G04 ================== begin FILE IDENTIFICATION RECORD ==================*
G04 Layout Name:  solutionstida01606_powercard_20march.brd*
G04 Film Name:    BOTTOM*
G04 File Format:  Gerber RS274X*
G04 File Origin:  Cadence Allegro 17.4-S031*
G04 Origin Date:  Fri Mar 22 14:58:21 2024*
G04 *
G04 Layer:  BOARD GEOMETRY/OUTLINE*
G04 Layer:  ETCH/BOTTOM*
G04 Layer:  PIN/BOTTOM*
G04 Layer:  VIA CLASS/BOTTOM*
G04 *
G04 Offset:    (0.000 0.000)*
G04 Mirror:    No*
G04 Mode:      Positive*
G04 Rotation:  0*
G04 FullContactRelief:  No*
G04 UndefLineWidth:     8.000*
G04 ================== end FILE IDENTIFICATION RECORD ====================*
%FSLAX25Y25*MOIN*%
%IR0*IPPOS*OFA0.00000B0.00000*MIA0B0*SFA1.00000B1.00000*%
%ADD12C,.1*%
%ADD11C,.3*%
%ADD42C,.103*%
%ADD35C,.13*%
%ADD10C,.22*%
%ADD32C,.15*%
%ADD19C,.121654*%
%ADD14C,.129528*%
%ADD21O,.395X.21*%
%ADD20C,.06*%
%ADD15C,.024*%
%ADD23C,.052*%
%ADD43C,.08*%
%ADD13C,.035*%
%ADD38C,.055*%
%ADD16C,.065*%
%ADD26R,.06X.06*%
%ADD25R,.07X.07*%
%ADD24R,.052X.052*%
%ADD39R,.055X.055*%
%ADD30O,.23622X.314961*%
%ADD29C,.035433*%
%ADD31R,.05906X.05118*%
%ADD27R,.05118X.05906*%
%ADD28C,.059055*%
%ADD37R,.03937X.043307*%
%ADD36R,.09252X.09252*%
%ADD33C,.091339*%
%ADD40R,.043307X.03937*%
%ADD22C,.064961*%
%ADD17C,.069291*%
%ADD18R,.069291X.069291*%
%ADD34R,.03937X.07874*%
%ADD41R,.047464X.098425*%
%ADD44C,.01*%
%ADD45C,.02*%
%ADD46C,.03*%
%ADD47C,.05*%
%ADD48C,.015*%
%ADD49C,.008*%
G75*
%LPD*%
G75*
G36*
G01X-596509Y45600D02*
X-563709D01*
X-518809Y700D01*
Y-34002D01*
X-522609Y-37802D01*
X-562807D01*
X-599409Y-1200D01*
Y42700D01*
X-596509Y45600D01*
G37*
G36*
G01X-602909Y120300D02*
Y165800D01*
X-600909Y167800D01*
X-522909D01*
X-516909Y161800D01*
Y122300D01*
X-520909Y118300D01*
X-600909D01*
X-602909Y120300D01*
G37*
G36*
G01Y313700D02*
Y365800D01*
X-601609Y367100D01*
X-526109D01*
X-516909Y357900D01*
Y321100D01*
X-526309Y311700D01*
X-600909D01*
X-602909Y313700D01*
G37*
G36*
G01X-518809Y537698D02*
X-520408Y536099D01*
X-520410D01*
X-527709Y528800D01*
X-600909D01*
X-602909Y530800D01*
Y588300D01*
X-599909Y591300D01*
X-528509D01*
X-518809Y581600D01*
Y537698D01*
G37*
G36*
G01X-465109Y160500D02*
X-446109D01*
X-445109Y159500D01*
Y129000D01*
X-414109Y98000D01*
Y53500D01*
X-414609Y53000D01*
X-434609D01*
X-436609Y55000D01*
Y83000D01*
X-467609Y114000D01*
Y158000D01*
X-465109Y160500D01*
G37*
G36*
G01X-414109Y583798D02*
X-413209Y582898D01*
Y557498D01*
X-415209Y555498D01*
X-445709D01*
X-458509Y542698D01*
X-464509D01*
X-466809Y544998D01*
Y580498D01*
X-463509Y583798D01*
X-414109D01*
G37*
G36*
G01X-466309Y323398D02*
Y351498D01*
X-464407Y353400D01*
X-450409D01*
X-427209Y330200D01*
X-414109D01*
Y308600D01*
X-414209Y308500D01*
X-451411D01*
X-466309Y323398D01*
G37*
G36*
G01X-393809Y53400D02*
X-393909Y53500D01*
Y75300D01*
X-393809Y75400D01*
X-348009D01*
X-341409Y68800D01*
Y60100D01*
X-348109Y53400D01*
X-393809D01*
G37*
G36*
G01Y308500D02*
X-393909Y308600D01*
Y330400D01*
X-393809Y330500D01*
X-348009D01*
X-341409Y323900D01*
Y315200D01*
X-348109Y308500D01*
X-393809D01*
G37*
G36*
G01X-393908Y558399D02*
X-393909Y558400D01*
Y582198D01*
X-392409Y583698D01*
X-346109D01*
X-341409Y578998D01*
Y559398D01*
X-346909Y553898D01*
X-392209D01*
X-393908Y555597D01*
Y558399D01*
G37*
G36*
G01X-122709Y44000D02*
X-129309Y37400D01*
X-182809D01*
X-209709Y10500D01*
X-306709D01*
X-311709Y15500D01*
Y68000D01*
X-304709Y75000D01*
X-128709D01*
X-122709Y69000D01*
Y44000D01*
G37*
G36*
G01Y277691D02*
X-133000Y267400D01*
X-306709D01*
X-311709Y272400D01*
Y324900D01*
X-304709Y331900D01*
X-128709D01*
X-122709Y325900D01*
Y277691D01*
G37*
G36*
G01Y549400D02*
X-129309Y542800D01*
X-182809D01*
X-209709Y515900D01*
X-306709D01*
X-311709Y520900D01*
Y573400D01*
X-304709Y580400D01*
X-128709D01*
X-122709Y574400D01*
Y549400D01*
G37*
G36*
G01X-132809Y150100D02*
X-134809Y148100D01*
X-139309D01*
X-144809Y153600D01*
X-218309D01*
X-220309Y155600D01*
Y165600D01*
X-217809Y168100D01*
X-134809D01*
X-132809Y166100D01*
Y150100D01*
G37*
G36*
G01X-132009Y406100D02*
X-134009Y404100D01*
X-138509D01*
X-144009Y409600D01*
X-217509D01*
X-219509Y411600D01*
Y421600D01*
X-217009Y424100D01*
X-134009D01*
X-132009Y422100D01*
Y406100D01*
G37*
G36*
G01X-132109Y655200D02*
X-134109Y653200D01*
X-138609D01*
X-144109Y658700D01*
X-217609D01*
X-219609Y660700D01*
Y670700D01*
X-217109Y673200D01*
X-134109D01*
X-132109Y671200D01*
Y655200D01*
G37*
G36*
G01X33700Y509000D02*
X19400D01*
X12300Y516100D01*
Y532400D01*
X12200Y532500D01*
X-87600D01*
X-102400Y547300D01*
Y559000D01*
X-97000Y564400D01*
X-67900D01*
X-63700Y560200D01*
X7800D01*
X24400Y543600D01*
Y543500D01*
X37500D01*
X40500Y540500D01*
Y515800D01*
X33700Y509000D01*
G37*
G36*
G01X-7700Y48800D02*
X49900D01*
X50800Y47900D01*
Y6800D01*
X87000Y-29400D01*
Y-60600D01*
X82900Y-64700D01*
X59000D01*
X33600Y-39300D01*
Y30500D01*
X25700Y38400D01*
X5200D01*
X2800Y36000D01*
Y20600D01*
X-1400Y16400D01*
X-5300D01*
X-9600Y20700D01*
Y21055D01*
X-9591Y21084D01*
G03X-9342Y22700I-5118J1616D01*
G03X-9600Y24344I-5367J0D01*
G01Y46900D01*
X-7700Y48800D01*
G37*
G36*
G01X41500Y146800D02*
X39000Y149300D01*
Y236600D01*
X29800Y245800D01*
X1700D01*
X500Y244600D01*
Y226300D01*
X-1700Y224100D01*
X-7200D01*
X-9200Y226100D01*
Y257700D01*
X-7500Y259400D01*
X48300D01*
X57300Y250400D01*
Y173800D01*
X67800Y163300D01*
Y151300D01*
X63300Y146800D01*
X41500D01*
G37*
G36*
G01X46800Y468100D02*
X50100D01*
X52500Y465700D01*
Y374400D01*
X54700Y372200D01*
X64700D01*
X66400Y370500D01*
Y354000D01*
X64900Y352500D01*
X43100D01*
X38600Y357000D01*
Y454900D01*
X3900D01*
X900Y451900D01*
Y431600D01*
X-2200Y428500D01*
X-6900D01*
X-9800Y431400D01*
Y433311D01*
X-9798Y433326D01*
G03X-9742Y434100I-5311J774D01*
G03X-9798Y434874I-5367J0D01*
G01X-9800Y434888D01*
Y462700D01*
X-4400Y468100D01*
X11100D01*
X17300Y461900D01*
X40600D01*
X46800Y468100D01*
G37*
G36*
G01X135291Y515600D02*
X624991D01*
X673564Y467027D01*
Y463678D01*
X673891D01*
Y421721D01*
X673864D01*
Y411878D01*
X673891D01*
Y91021D01*
X673564D01*
Y81178D01*
X673891D01*
Y39321D01*
X673864D01*
Y29478D01*
X673891D01*
Y-65700D01*
X669891Y-69700D01*
X632391D01*
X629391Y-66700D01*
Y103700D01*
X620691Y112400D01*
X513091D01*
X465791Y65100D01*
X142793D01*
X116091Y38398D01*
Y18300D01*
X113191Y15400D01*
X109291D01*
X106491Y18200D01*
Y37200D01*
X100591Y43100D01*
Y68900D01*
X114091Y82400D01*
Y101000D01*
X119491Y106400D01*
X443491D01*
X479091Y142000D01*
X616491D01*
X629391Y154900D01*
Y231300D01*
X619091Y241600D01*
X460291D01*
X431091Y270800D01*
X141493D01*
X115791Y245098D01*
Y223600D01*
X113291Y221100D01*
X109291D01*
X106491Y223900D01*
Y242300D01*
X102591Y246200D01*
Y276800D01*
X116291Y290500D01*
Y303900D01*
X121591Y309200D01*
X455491D01*
X475791Y288900D01*
X614291D01*
X629391Y304000D01*
Y432600D01*
X585591Y476400D01*
X145691D01*
X115891Y446600D01*
Y429500D01*
X113091Y426700D01*
X109391D01*
X106091Y430000D01*
Y476300D01*
X130291Y500500D01*
Y510600D01*
X135291Y515600D01*
G37*
G36*
G01X183800Y52800D02*
X283300D01*
X288700Y47400D01*
Y19000D01*
X287200Y17500D01*
X280700D01*
X279100Y19100D01*
Y38800D01*
X277200Y40700D01*
X195300D01*
X193000Y38400D01*
Y19300D01*
X192200Y18500D01*
X184300D01*
X182500Y20300D01*
Y22434D01*
X182502Y22448D01*
G03X182558Y23200I-5011J751D01*
G03X182502Y23951I-5067J0D01*
G01X182500Y23966D01*
Y51500D01*
X183800Y52800D01*
G37*
G36*
G01X183100Y464600D02*
X286000D01*
X288300Y462300D01*
Y431000D01*
X287000Y429700D01*
X279600D01*
X278700Y430600D01*
Y446200D01*
X271800Y453100D01*
X193700D01*
X191900Y451300D01*
Y432400D01*
X189300Y429800D01*
X184500D01*
X182100Y432200D01*
Y433634D01*
X182102Y433648D01*
G03X182158Y434400I-5011J751D01*
G03X182102Y435151I-5067J0D01*
G01X182100Y435166D01*
Y463600D01*
X183100Y464600D01*
G37*
G36*
G01X184100Y260700D02*
X289100D01*
X290000Y259800D01*
Y226900D01*
X287800Y224700D01*
X281600D01*
X279100Y227200D01*
Y228634D01*
X279102Y228648D01*
G03X279158Y229400I-5011J751D01*
G03X279102Y230151I-5067J0D01*
G01X279100Y230166D01*
Y245700D01*
X276600Y248200D01*
X195300D01*
X194500Y247400D01*
Y228300D01*
X190500Y224300D01*
X185800D01*
X182800Y227300D01*
Y259400D01*
X184100Y260700D01*
G37*
G54D10*
X-585209Y-50100D03*
X-587009Y732400D03*
X-461809Y271800D03*
X-22409Y-49100D03*
X-22500Y698000D03*
X466791Y33500D03*
X754591Y-53400D03*
X760400Y733200D03*
G54D20*
G01X2091Y-22402D02*
X28091D01*
G01X6291Y32098D02*
Y14598D01*
G01X6591Y182898D02*
X32591D01*
G01X5491Y240198D02*
Y222698D01*
G01X6591Y388398D02*
X32591D01*
G01X5191Y445698D02*
Y428198D01*
G01X23891Y31698D02*
Y14198D01*
G01X24791Y239998D02*
Y222498D01*
G01X24691Y445298D02*
Y427798D01*
G01X103091Y-22602D02*
X129091D01*
G01X101791Y33598D02*
Y16098D01*
G01X103591Y182898D02*
X129591D01*
G01X101491Y240798D02*
Y223298D01*
G01X102591Y388398D02*
X128591D01*
G01X100891Y445998D02*
Y428498D01*
G01X120591Y32898D02*
Y15398D01*
G01X120491Y240798D02*
Y223298D01*
G01X120891Y445898D02*
Y428398D01*
G01X146091Y59398D02*
X172091D01*
G01X145591Y142898D02*
X171591D01*
G01X145591Y264398D02*
X171591D01*
G01X145991Y348298D02*
X171991D01*
G01X145591Y470398D02*
X171591D01*
G01X199591Y-23102D02*
X225591D01*
G01X197791Y34398D02*
Y16898D01*
G01X199591Y182898D02*
X225591D01*
G01X198491Y240798D02*
Y223298D01*
G01X199591Y388398D02*
X225591D01*
G01X196591Y445998D02*
Y428498D01*
G01X218091Y34298D02*
Y16798D01*
G01X216991Y240898D02*
Y223398D01*
G01X216591Y445398D02*
Y427898D01*
G01X296091Y-23102D02*
X322091D01*
G01X293891Y32798D02*
Y15298D01*
G01X295591Y182898D02*
X321591D01*
G01X294091Y239698D02*
Y222198D01*
G01X296091Y388398D02*
X322091D01*
G01X292691Y445898D02*
Y428398D01*
G01X313791Y32198D02*
Y14698D01*
G01X314591Y239198D02*
Y221698D01*
G01X315191Y445398D02*
Y427898D01*
X-387009Y128400D03*
Y375300D03*
X-382009Y611500D03*
X-136009Y151200D03*
Y407200D03*
Y656200D03*
X-96209Y624100D03*
X-56209D03*
X991Y638400D03*
X10991D03*
X305500Y688400D03*
Y678400D03*
X315500Y688400D03*
Y678400D03*
X338000Y688400D03*
Y678400D03*
X348000Y688400D03*
Y678400D03*
X387491Y50900D03*
X377491D03*
X370500Y688400D03*
Y678400D03*
X390500Y688400D03*
Y678400D03*
X410500Y688400D03*
Y678400D03*
X420500Y688400D03*
Y678400D03*
X470500Y688400D03*
Y678400D03*
X499500Y688400D03*
Y678400D03*
X532991Y533600D03*
X542991D03*
X545200Y605900D03*
X552991Y533600D03*
X562991D03*
X566200Y605900D03*
X603091Y9398D03*
X613091Y169398D03*
X593091Y369398D03*
Y379398D03*
X598000Y688400D03*
Y678400D03*
X608000Y688400D03*
Y678400D03*
X625500Y688400D03*
Y678400D03*
X645991Y515400D03*
X655991D03*
X673000Y688400D03*
Y678400D03*
X733091Y129398D03*
Y369398D03*
Y379398D03*
X743091Y9398D03*
X753091Y159398D03*
X749991Y515400D03*
X759991D03*
G54D11*
X-577609Y23400D03*
Y142600D03*
X-577109Y337300D03*
X-577609Y558900D03*
X512891Y-42000D03*
X650891Y-42100D03*
G54D30*
X-37074Y69815D03*
Y109185D03*
X-34374Y284215D03*
Y323585D03*
X26174Y487415D03*
Y526785D03*
G54D21*
X-361209Y64400D03*
Y319400D03*
Y569400D03*
X-291209Y64400D03*
Y319400D03*
Y569400D03*
X-142409Y64500D03*
X-152609Y552700D03*
X-142309Y290000D03*
X-82609Y552700D03*
X-72409Y64500D03*
X-72309Y290000D03*
G54D12*
X-590109Y10900D03*
Y35900D03*
Y130100D03*
Y155100D03*
X-589609Y324800D03*
Y349800D03*
X-590109Y546400D03*
Y571400D03*
X-565109Y10900D03*
Y35900D03*
Y130100D03*
Y155100D03*
X-564609Y324800D03*
Y349800D03*
X-565109Y546400D03*
Y571400D03*
X500391Y-54500D03*
Y-29500D03*
X525391Y-54500D03*
Y-29500D03*
X638391Y-54600D03*
Y-29600D03*
X663391Y-54600D03*
Y-29600D03*
G54D22*
X-363200Y243400D03*
Y253400D03*
Y278400D03*
Y268400D03*
X-350300Y-1700D03*
Y-11700D03*
Y23300D03*
Y13300D03*
X-362000Y503400D03*
Y493400D03*
Y528400D03*
Y518400D03*
G54D40*
X422091Y20600D03*
X415398D03*
X419091Y225300D03*
X412398D03*
X417884Y431700D03*
X411191D03*
G54D31*
X-47900Y503860D03*
Y511340D03*
X733691Y221143D03*
Y228623D03*
Y237143D03*
Y244623D03*
Y253143D03*
Y260623D03*
Y269143D03*
Y276623D03*
X758746Y221143D03*
Y228623D03*
Y237143D03*
Y244623D03*
Y253143D03*
Y260623D03*
Y269143D03*
Y276623D03*
G54D13*
X-586792Y245331D03*
X-585400Y442200D03*
X-559209Y184700D03*
X-561809Y245100D03*
X-558709Y381400D03*
X-559500Y441400D03*
X-560309Y601800D03*
X-508909Y99500D03*
X-524409Y284300D03*
Y478900D03*
X-516900Y695300D03*
X-502009Y264700D03*
Y278900D03*
Y271800D03*
X-498500Y466200D03*
X-489009Y466400D03*
X-470300Y180000D03*
X-472009Y487200D03*
X-424400Y-51600D03*
X-429709Y57398D03*
X-429909Y80298D03*
X-429809Y72598D03*
Y64998D03*
X-429709Y323598D03*
Y318498D03*
Y312398D03*
Y328298D03*
X-426009Y431300D03*
X-428619Y565948D03*
Y559448D03*
Y578948D03*
Y572448D03*
X-416200Y471500D03*
X-396600Y128400D03*
X-395009Y181400D03*
X-397709Y186000D03*
X-398509Y375300D03*
X-400909Y431300D03*
X-383809Y563598D03*
X-387209Y569400D03*
X-383769Y574898D03*
X-394009Y611700D03*
X-381809Y61798D03*
X-381209Y56898D03*
X-381709Y67298D03*
X-381109Y72098D03*
X-381009Y312598D03*
X-381209Y322598D03*
X-381809Y317998D03*
X-381009Y327098D03*
X-314800Y-12500D03*
X-310700Y243200D03*
X-309100Y490400D03*
X-279000Y-11300D03*
X-115009Y109600D03*
X-100700Y129300D03*
X-108009Y154400D03*
X-115009Y177200D03*
X-108009Y228700D03*
Y242900D03*
Y235800D03*
X-109600Y420600D03*
Y427300D03*
X-109676Y432700D03*
X-115400Y468400D03*
X-115500Y462900D03*
X-95600Y486800D03*
X-31900Y649000D03*
X-26600D03*
X-809Y630200D03*
Y625800D03*
X23100Y577500D03*
X46500Y568200D03*
X65400Y310700D03*
X63991Y441400D03*
X62954Y553687D03*
X72591Y558200D03*
X86800Y555700D03*
X95100Y555600D03*
X84900Y579900D03*
X99891Y639300D03*
X86100Y639798D03*
X122000Y555900D03*
X116491Y556000D03*
X116191Y618900D03*
X112291Y626982D03*
X137491Y553300D03*
X143200Y576000D03*
X151200Y567200D03*
X190691Y573300D03*
X191900Y616400D03*
X223491Y548500D03*
X211191Y555100D03*
X216391D03*
X221800Y630900D03*
X239791Y555100D03*
X235491Y625700D03*
X230391D03*
X249400Y597900D03*
X261591Y619900D03*
X266191Y603700D03*
X361691Y38100D03*
X355300Y385800D03*
X357300Y458000D03*
X363700Y458300D03*
X376300Y458400D03*
X370000Y458300D03*
X382600Y458800D03*
X389791Y42200D03*
X406100Y459600D03*
X388400Y458900D03*
X393400Y459200D03*
X408000Y239000D03*
X421900Y459800D03*
X417000Y459700D03*
X460591Y202400D03*
X459591Y641600D03*
X464191Y637000D03*
X459800Y663800D03*
X469900Y202200D03*
X477100Y421900D03*
X486100Y458600D03*
X468791Y583700D03*
Y590200D03*
Y596700D03*
Y632500D03*
X548300Y592900D03*
X550991Y560000D03*
G54D41*
X508291Y35200D03*
Y78300D03*
Y417600D03*
Y460800D03*
X526030Y35200D03*
Y78300D03*
Y417600D03*
Y460800D03*
X538291Y35200D03*
Y78300D03*
Y417600D03*
Y460800D03*
X568291Y35200D03*
X556030D03*
X568291Y78300D03*
X556030D03*
X568291Y417600D03*
X556030D03*
X568291Y460800D03*
X556030D03*
X586030Y35200D03*
Y78300D03*
Y417600D03*
Y460800D03*
X671291Y34400D03*
X670991Y86100D03*
X671291Y416800D03*
X670991Y468600D03*
X689030Y34400D03*
X688730Y86100D03*
X689030Y416800D03*
X688730Y468600D03*
X701291Y34400D03*
X700991Y86100D03*
X701291Y416800D03*
X700991Y468600D03*
X719030Y34400D03*
X731291D03*
X718730Y86100D03*
X730991D03*
X719030Y416800D03*
X731291D03*
X718730Y468600D03*
X730991D03*
X749030Y34400D03*
X748730Y86100D03*
X749030Y416800D03*
X748730Y468600D03*
G54D23*
X-344100Y241000D03*
X-343800Y267200D03*
X-343100Y517000D03*
X-330500Y-14600D03*
X-331200Y11900D03*
X-342400Y488500D03*
G54D14*
X-527009Y-19600D03*
Y142600D03*
X-526509Y337300D03*
X-527009Y558900D03*
G54D32*
X-31909Y2200D03*
Y207800D03*
Y413400D03*
X148953Y2200D03*
Y207800D03*
Y413400D03*
X165491Y2200D03*
Y207800D03*
Y413400D03*
X346353Y2200D03*
Y207800D03*
Y413400D03*
G54D33*
X-24709Y22700D03*
X-24609Y229300D03*
X-25109Y434100D03*
X-14709Y22700D03*
X-4709D03*
X-14609Y229300D03*
X-4609D03*
X-15109Y434100D03*
X-5109D03*
X71291Y22500D03*
X81291D03*
X71191Y229500D03*
X81191D03*
X71091Y434400D03*
X81091D03*
X91291Y22500D03*
X91191Y229500D03*
X91091Y434400D03*
X167091D03*
X167491Y23200D03*
X177491D03*
X167691Y229400D03*
X177691D03*
X177091Y434400D03*
X187091D03*
X187491Y23200D03*
X187691Y229400D03*
X263591Y22300D03*
X264091Y229400D03*
X263491Y434300D03*
X273591Y22300D03*
X283591D03*
X274091Y229400D03*
X284091D03*
X273491Y434300D03*
X283491D03*
G54D24*
X-344100Y253500D03*
X-343800Y279700D03*
X-343100Y529500D03*
X-330500Y-2100D03*
X-331200Y24400D03*
X-342400Y501000D03*
G54D15*
X-537100Y689200D03*
X-469200Y709900D03*
X-415500Y238300D03*
X-408900Y486900D03*
X-185209Y706798D03*
X-147300Y694400D03*
X-153719Y706798D03*
X-147600Y707000D03*
X-153900Y694100D03*
X-129100Y475200D03*
X-128500Y693800D03*
X-122200Y693900D03*
X-128600Y706600D03*
X-128500Y727100D03*
X-122200Y727500D03*
X-127700Y718400D03*
X-103500Y706900D03*
X-109500Y693500D03*
X-109800Y707000D03*
X-116300Y693800D03*
X-115000Y727200D03*
X-109200D03*
X-102000Y739100D03*
X-98600Y505700D03*
X-97500Y510700D03*
X-86800Y509400D03*
X-92200Y510800D03*
X-90800Y707100D03*
X-84700D03*
X-84500Y694400D03*
X-91200Y694200D03*
X-97600Y693800D03*
X-90800Y727800D03*
X-81000Y727900D03*
X-59000Y237600D03*
X-73800Y488650D03*
X-73100Y508000D03*
X-77550Y510050D03*
X-65589Y694200D03*
X-54100Y233500D03*
X-56400Y247100D03*
X-52900Y374700D03*
X-49450Y377650D03*
X-47900Y503600D03*
X-43600Y587800D03*
X-38700Y577500D03*
X-41500Y583100D03*
X-49600Y589800D03*
X-45100Y729100D03*
X-57400Y727000D03*
X-32100Y576200D03*
X-23550Y577950D03*
X-34900Y735500D03*
X-15300Y580700D03*
X10800Y678100D03*
X18200Y704900D03*
X40800Y570000D03*
X29900Y558900D03*
X32091Y582205D03*
X22591Y617107D03*
X40591Y610900D03*
X40300Y639700D03*
X28200Y713600D03*
X62241Y575941D03*
X52800Y595200D03*
X56900Y593000D03*
X47284Y610900D03*
X48000Y629200D03*
X54300Y707200D03*
X63140Y72000D03*
X70500Y97800D03*
X63660Y88300D03*
X64800Y285300D03*
X73500Y300800D03*
X66300Y301500D03*
X81400Y311000D03*
X68700Y593400D03*
X77900Y601500D03*
X76691Y592693D03*
X68600Y606100D03*
X68445Y616698D03*
X79300Y652300D03*
X67800Y669100D03*
X73400Y706800D03*
X66600Y707300D03*
X79500Y708700D03*
X79300Y694400D03*
X98300Y610200D03*
X90800Y668300D03*
X85600Y652000D03*
X96200Y651800D03*
X97900Y667200D03*
X98300Y706200D03*
X85800Y693800D03*
X85300Y706700D03*
X92000Y705400D03*
X111900Y569546D03*
X111791Y562619D03*
X104800Y665000D03*
X114500Y651900D03*
X119200Y663900D03*
X119000Y672300D03*
X104800Y673400D03*
X110776Y694200D03*
X104800Y706600D03*
X137791Y610500D03*
X129200Y639400D03*
X128400Y663600D03*
X142700Y694200D03*
X135900Y706800D03*
X158100Y649600D03*
X161100Y672800D03*
Y706800D03*
X148500Y694600D03*
X164500Y638400D03*
X170900Y664000D03*
X196791Y578900D03*
X187500Y585400D03*
X187091Y592000D03*
X191900Y609754D03*
X194500Y591700D03*
X198400Y610000D03*
X197800Y650600D03*
X191500Y700500D03*
X218000Y610000D03*
X218284Y623200D03*
X229900Y569500D03*
X259800Y568500D03*
X260191Y561907D03*
X256191Y613107D03*
X258100Y645100D03*
X248800Y663800D03*
X266400Y626800D03*
X271300Y615800D03*
X382800Y253600D03*
X400500Y459500D03*
X413100Y48300D03*
Y124400D03*
X424500Y201500D03*
X417300Y408200D03*
X411400Y459700D03*
X426900Y534400D03*
X414600Y626800D03*
X434400Y41400D03*
X446500Y438500D03*
X432091Y620407D03*
X438300Y647100D03*
X457400Y131000D03*
X451300Y209100D03*
X448900Y337000D03*
X461400Y415400D03*
Y439800D03*
X468200Y463900D03*
X462700Y449900D03*
X491700Y666600D03*
X585700Y460300D03*
X574691Y565000D03*
X574791Y586600D03*
X588800Y666900D03*
X627054Y617300D03*
X635600Y582340D03*
X642500Y599300D03*
X634046Y610700D03*
X650240Y599400D03*
X641540Y630700D03*
X640100Y611700D03*
X657100Y583440D03*
X659900Y606900D03*
X666600Y608100D03*
X666700Y614600D03*
X667200Y629000D03*
X679291Y599558D03*
X733400Y221500D03*
G54D42*
X528491Y59400D03*
Y186900D03*
X527991Y314400D03*
X528491Y441800D03*
X567861Y59400D03*
Y186900D03*
X567361Y314400D03*
X567861Y441800D03*
X668791Y59400D03*
Y186900D03*
Y314400D03*
Y441800D03*
X708161Y59400D03*
Y186900D03*
Y314400D03*
Y441800D03*
G54D34*
X-9Y-100D03*
Y205500D03*
Y411100D03*
X19991Y-300D03*
X9991Y-13100D03*
X19991Y205300D03*
X9991Y192500D03*
Y398100D03*
X19991Y410900D03*
X29991Y-13100D03*
Y192500D03*
Y398100D03*
X96391Y-100D03*
Y205500D03*
Y411100D03*
X116391Y-300D03*
X106391Y-13100D03*
X116391Y205300D03*
X106391Y192500D03*
Y398100D03*
X116391Y410900D03*
X126391Y-13100D03*
Y192500D03*
Y398100D03*
X192691Y-100D03*
X202691Y-13100D03*
X192691Y205500D03*
X202691Y192500D03*
Y398100D03*
X192691Y411100D03*
X212691Y-300D03*
X222691Y-13100D03*
X212691Y205300D03*
X222691Y192500D03*
Y398100D03*
X212691Y410900D03*
X289091Y-100D03*
X299091Y-13100D03*
X289091Y205500D03*
X299091Y192500D03*
Y398100D03*
X289091Y411100D03*
X309091Y-300D03*
X319091Y-13100D03*
X309091Y205300D03*
X319091Y192500D03*
Y398100D03*
X309091Y410900D03*
X367291Y-14300D03*
Y10700D03*
Y191300D03*
Y216300D03*
Y397000D03*
Y422000D03*
X387291Y-14300D03*
X377291D03*
X387291Y10700D03*
X377291D03*
X387291Y191300D03*
X377291D03*
X387291Y216300D03*
X377291D03*
X387291Y397000D03*
X377291D03*
X387291Y422000D03*
X377291D03*
X407291Y-14300D03*
X397291D03*
X407291Y10700D03*
X397291D03*
X407291Y191300D03*
X397291D03*
X407291Y216300D03*
X397291D03*
X407291Y397000D03*
X397291D03*
X407291Y422000D03*
X397291D03*
X427291Y-14300D03*
X417291D03*
X427291Y10700D03*
X417291D03*
X427291Y191300D03*
X417291D03*
X427291Y216300D03*
X417291D03*
X427291Y397000D03*
X417291D03*
X427291Y422000D03*
X417291D03*
X437291Y-14300D03*
Y10700D03*
Y191300D03*
Y216300D03*
Y397000D03*
Y422000D03*
G54D25*
X-215009Y14062D03*
Y161700D03*
Y269562D03*
Y417200D03*
Y519062D03*
Y666700D03*
G54D16*
X-522830Y-31802D03*
Y130398D03*
X-522330Y325098D03*
X-522830Y546698D03*
X-462830Y-31802D03*
Y130398D03*
X-462330Y325098D03*
X-462830Y546698D03*
G54D43*
X605091Y562400D03*
Y552400D03*
Y577800D03*
Y587800D03*
G54D44*
G01X-508909Y99500D02*
Y190500D01*
X-528509Y210100D01*
Y304200D01*
X-509909Y322800D01*
Y374700D01*
X-528909Y393700D01*
Y500300D01*
X-514809Y514400D01*
Y593700D01*
X-522409Y601300D01*
Y696800D01*
X-517509Y701700D01*
X-158817D01*
X-153719Y706798D01*
G01X-147300Y694400D02*
X-150900Y698000D01*
X-481209D01*
X-517409Y661800D01*
Y605800D01*
X-510809Y599200D01*
Y512500D01*
X-518100Y505209D01*
Y393791D01*
X-507909Y383600D01*
Y321300D01*
X-524409Y304800D01*
Y284300D01*
G01Y478900D02*
X-519600Y483709D01*
Y505830D01*
X-518409Y507021D01*
Y507900D01*
X-512809Y513500D01*
Y596200D01*
X-519709Y603100D01*
Y662500D01*
X-482209Y700000D01*
X-154600D01*
X-147600Y707000D01*
G01X-56400Y247100D02*
X-92200D01*
X-101600Y256500D01*
Y464400D01*
X-90700Y475300D01*
Y500000D01*
X-96400Y505700D01*
X-98600D01*
G01X248800Y663800D02*
X240500D01*
X187950Y716350D01*
X-95250D01*
X-97600Y714000D01*
Y693800D01*
G01X-49600Y589800D02*
X-47400D01*
X-47200Y590000D01*
X-44000D01*
X-41200Y592800D01*
Y621600D01*
X10800Y673600D01*
Y678100D01*
G01X40300Y639700D02*
X42900D01*
X48000Y634600D01*
Y629200D01*
G01X47284Y610900D02*
X51200D01*
X68700Y593400D01*
G01X261591Y619900D02*
X247191Y634300D01*
X110591D01*
X107591Y637300D01*
Y662209D01*
X104800Y665000D01*
G01X129200Y639400D02*
Y660600D01*
X128400Y661400D01*
Y663600D01*
G01X143200Y576000D02*
X187991D01*
X190691Y573300D01*
G01X164500Y638400D02*
X170900Y644800D01*
Y664000D01*
G01X196791Y578900D02*
Y589409D01*
X194500Y591700D01*
G01X229900Y569500D02*
X216800Y582600D01*
X206400D01*
X205400Y583600D01*
Y593900D01*
X191900Y607400D01*
Y609754D01*
G01X357300Y458000D02*
Y455250D01*
X357991Y454559D01*
Y388491D01*
X355300Y385800D01*
G01X400500Y459500D02*
Y443000D01*
X382400Y424900D01*
Y409909D01*
X377291Y404800D01*
Y397000D01*
G01X411400Y459700D02*
Y446200D01*
X402000Y436800D01*
Y419209D01*
X387291Y404500D01*
Y397000D01*
G01X406100Y459600D02*
Y444650D01*
X388700Y427250D01*
Y423409D01*
X387291Y422000D01*
G01X407291Y-14300D02*
X411598D01*
Y16996D01*
X415201Y20600D01*
X415398D01*
G01X412398Y225300D02*
Y203907D01*
X407291Y198800D01*
Y191300D01*
G01Y397000D02*
Y404500D01*
X411991Y409200D01*
Y427931D01*
X411191Y428731D01*
Y431700D01*
G01X657100Y583440D02*
Y603200D01*
X648600Y611700D01*
X640100D01*
G01X659900Y606900D02*
X668000Y598800D01*
Y557268D01*
X694791Y530477D01*
Y499877D01*
X704870Y489798D01*
X759470D01*
X766191Y483077D01*
Y362919D01*
X746091Y342819D01*
Y279698D01*
X743016Y276623D01*
X733691D01*
G01X670100Y608100D02*
X671100Y607100D01*
Y556289D01*
X696291Y531098D01*
Y500498D01*
X705491Y491298D01*
X760091D01*
X767691Y483698D01*
Y362298D01*
X747591Y342198D01*
Y280098D01*
X751066Y276623D01*
X758746D01*
G54D17*
X-512009Y40400D03*
Y202600D03*
X-511509Y397300D03*
X-512009Y618900D03*
G54D26*
X-136009Y130700D03*
Y386700D03*
Y635700D03*
G54D35*
X-2509Y153100D03*
X6691D03*
X-2509Y358700D03*
X12391Y-52500D03*
X22191D03*
X7291Y358700D03*
X46691Y153100D03*
X47291Y358700D03*
X62191Y-52500D03*
X56491Y153100D03*
Y358700D03*
X71391Y-52500D03*
X158691Y71600D03*
X158791Y83100D03*
Y123100D03*
X158691Y130600D03*
Y277300D03*
X158791Y288700D03*
Y328700D03*
X158691Y336300D03*
Y482900D03*
X158791Y494300D03*
Y534300D03*
X158691Y541900D03*
G54D45*
G01X-604800Y749900D02*
Y754000D01*
X778800D01*
Y-73200D01*
X-604800D01*
Y751000D01*
G01X-470300Y180000D02*
X-444300D01*
X-415500Y208800D01*
Y238300D01*
G01X315500Y688400D02*
Y719700D01*
X313000Y722200D01*
X-181000D01*
X-185209Y717991D01*
Y706798D01*
G01X47178Y89500D02*
X54100Y96422D01*
Y127600D01*
X48600Y133100D01*
X-20700D01*
X-42000Y154400D01*
X-108009D01*
G01X-58078Y507100D02*
X-63178Y502000D01*
X-73300D01*
X-79700Y495600D01*
Y424000D01*
X-14100Y358400D01*
Y345400D01*
X-11600Y342900D01*
X62600D01*
X88100Y317400D01*
Y298400D01*
X84400Y294700D01*
X67800D01*
X66300Y296200D01*
Y301500D01*
G01X57300Y548800D02*
X69391D01*
X72591Y552000D01*
Y558200D01*
G01X63660Y88300D02*
X70500Y95140D01*
Y97800D01*
G01X62954Y553687D02*
Y561361D01*
X65291Y563698D01*
X68850D01*
X70350Y562198D01*
X78391D01*
X88991Y572798D01*
Y604798D01*
X80491Y613298D01*
Y634189D01*
X86100Y639798D01*
G01X223491Y548500D02*
X195191D01*
X182091Y561600D01*
X139891D01*
X137491Y559200D01*
Y553300D01*
G01X221800Y630900D02*
X225391Y627309D01*
Y613596D01*
X235287Y603700D01*
X266191D01*
G01X413100Y124400D02*
X409900D01*
X335600Y198700D01*
Y220800D01*
X337600Y222800D01*
X352000D01*
X382800Y253600D01*
G01X369391Y27100D02*
X361691Y34800D01*
Y38100D01*
G01X413100Y48300D02*
X397100Y32300D01*
X377200D01*
X371400Y38100D01*
X361691D01*
G01X434400Y41400D02*
Y32712D01*
X422288Y20600D01*
X422091D01*
G01X419091Y225300D02*
X449800D01*
X451300Y223800D01*
Y209100D01*
G01X461400Y439800D02*
X457500D01*
X453800Y443500D01*
X426216D01*
X417884Y435168D01*
Y431700D01*
G01X426900Y534400D02*
Y614499D01*
X414600Y626800D01*
G01X434400Y41400D02*
X447400Y28400D01*
Y-11800D01*
X444900Y-14300D01*
X437291D01*
G01X451300Y209100D02*
Y206400D01*
X443800Y198900D01*
X439454D01*
X437291Y196737D01*
Y191300D01*
G01X461400Y415400D02*
X447997Y401997D01*
X440320D01*
X437291Y398968D01*
Y397000D01*
G01X461400Y439800D02*
Y415400D01*
G01X641540Y630700D02*
Y613140D01*
X640100Y611700D01*
G54D18*
X-472009Y40400D03*
Y202600D03*
X-471509Y397300D03*
X-472009Y618900D03*
G54D36*
X15291Y22700D03*
X15391Y229300D03*
X14891Y434100D03*
X111291Y22500D03*
X111191Y229500D03*
X111091Y434400D03*
X207491Y23200D03*
X207691Y229400D03*
X207091Y434400D03*
X303591Y22300D03*
X304091Y229400D03*
X303491Y434300D03*
G54D27*
X-73640Y487800D03*
X-66160D03*
G54D46*
G01X-310700Y243200D02*
X-306950D01*
X-306151Y243999D01*
X-116201D01*
G01X-119940Y486200D02*
X-304900D01*
X-309100Y490400D01*
G01X-116201Y243999D02*
X-108200Y252000D01*
Y402700D01*
X-115200Y409700D01*
Y428600D01*
X-121700Y435100D01*
Y484440D01*
X-119940Y486200D01*
G01X-95600Y486800D02*
X-119340D01*
X-119940Y486200D01*
G01X-100700Y129300D02*
X-115009Y114991D01*
Y109600D01*
G01X-108009Y154400D02*
Y228700D01*
G01X-115009Y177200D02*
Y180950D01*
X-116200Y182140D01*
Y243998D01*
X-116201Y243999D01*
G01X-109600Y420600D02*
Y427300D01*
G01X-109676Y432700D02*
Y438867D01*
X-115500Y444691D01*
Y462900D01*
G01X-115400Y468400D02*
X-115209Y468209D01*
Y463191D01*
X-115500Y462900D01*
G01X299091Y192500D02*
X299100D01*
G01X299091Y398100D02*
X299200D01*
G01X349391Y27100D02*
Y32700D01*
X359491Y42800D01*
X379391D01*
X387491Y50900D01*
G01X367291Y423800D02*
Y422000D01*
G01X672900Y206000D02*
X668791Y201891D01*
Y186900D01*
G01X671291Y221098D02*
X671336Y221143D01*
G01X758746D02*
Y209346D01*
X755400Y206000D01*
X672900D01*
G01X733691Y244623D02*
Y253143D01*
G01Y228623D02*
Y237143D01*
G01Y260623D02*
Y269143D01*
G01X758746Y253143D02*
Y244623D01*
G01Y237143D02*
Y228623D01*
G01Y269143D02*
Y260623D01*
G54D37*
X111900Y569546D03*
Y562854D03*
G54D28*
X-58078Y499580D03*
Y507100D03*
Y514620D03*
X47178Y81980D03*
Y97020D03*
Y89500D03*
X49878Y303900D03*
Y296380D03*
Y311420D03*
G54D19*
X-457009Y-9600D03*
Y152600D03*
X-456509Y347300D03*
X-457009Y568900D03*
G54D47*
G01X-502009Y264700D02*
Y248200D01*
X-472009Y218200D01*
Y202600D01*
G01Y487200D02*
Y404264D01*
X-471509Y403764D01*
Y397300D01*
G01X459591Y641600D02*
X445591Y655600D01*
X330700D01*
X315500Y670800D01*
Y678400D01*
G01X469900Y202200D02*
Y197450D01*
X451950Y179500D01*
X374691D01*
X367291Y186900D01*
Y191300D01*
G01X486100Y458600D02*
Y411309D01*
X458291Y383500D01*
X374491D01*
X367291Y390700D01*
Y397000D01*
G01X468791Y596700D02*
Y590200D01*
G01D02*
Y583700D01*
G01Y632500D02*
Y596700D01*
G01X464191Y637000D02*
X468691Y632500D01*
X468791D01*
G01X464191Y637000D02*
X459591Y641600D01*
G01X605091Y577800D02*
X614800D01*
X616800Y579800D01*
Y598200D01*
X582900Y632100D01*
X491800D01*
X470500Y653400D01*
Y678400D01*
G01X508291Y35200D02*
Y54400D01*
X513291Y59400D01*
G01X508291Y78300D02*
Y64400D01*
X513291Y59400D01*
G01X514905Y441800D02*
X508291Y435185D01*
Y417600D01*
G01X514905Y441800D02*
X508291Y448414D01*
Y460800D01*
G01X526030Y35200D02*
X538291D01*
G01X513291Y59400D02*
X528491D01*
G01X526030Y78300D02*
X538291D01*
G01X526030Y417600D02*
X538291D01*
G01X528491Y441800D02*
X514905D01*
G01X526030Y460800D02*
X538291D01*
G01X556030Y35200D02*
X568291D01*
G01X567861Y59400D02*
X580291D01*
G01X556030Y78300D02*
X568291D01*
G01X556030Y417600D02*
X568291D01*
G01X579291Y441800D02*
X567861D01*
G01X556030Y460800D02*
X568291D01*
G01X580291Y59400D02*
X586030Y53661D01*
Y35200D01*
G01X580291Y59400D02*
X586030Y65138D01*
Y78300D01*
G01Y417600D02*
Y435061D01*
X579291Y441800D01*
G01X586030Y460800D02*
Y448538D01*
X579291Y441800D01*
G01X689030Y34400D02*
X701291D01*
G01X688730Y86100D02*
X700991D01*
G01X689030Y416800D02*
X701291D01*
G01X688730Y468600D02*
X700991D01*
G01X737391Y59400D02*
X708161D01*
G01Y441800D02*
X738491D01*
G01X719030Y34400D02*
X731291D01*
G01X718730Y86100D02*
X730991D01*
G01X719030Y416800D02*
X731291D01*
G01X718730Y468600D02*
X730991D01*
G01X749030Y34400D02*
Y48261D01*
X737891Y59400D01*
X737391D01*
G01X748730Y86100D02*
Y70738D01*
X737391Y59400D01*
G01X738491Y441800D02*
X749030Y431261D01*
Y416800D01*
G01X738491Y441800D02*
X748730Y452038D01*
Y468600D01*
G54D29*
X-39574Y54500D03*
X-43472Y57315D03*
X-44948Y61941D03*
Y67158D03*
Y72472D03*
Y77689D03*
X-43472Y82315D03*
X-39535Y85169D03*
X-44948Y101311D03*
X-43472Y96685D03*
X-39535Y93831D03*
X-43472Y121685D03*
X-44948Y117059D03*
Y111842D03*
Y106626D03*
X-39574Y124500D03*
X-40772Y271715D03*
X-42248Y276341D03*
Y281558D03*
Y286872D03*
Y292089D03*
X-40772Y296715D03*
X-42248Y326243D03*
Y321026D03*
Y315711D03*
X-40772Y311085D03*
Y336085D03*
X-42248Y331459D03*
X-29200Y61941D03*
X-30676Y57315D03*
X-34574Y54500D03*
X-30676Y82315D03*
X-29200Y77689D03*
Y72472D03*
Y67158D03*
X-34613Y85169D03*
X-30676Y96685D03*
X-29200Y101311D03*
X-34613Y93831D03*
X-29200Y106626D03*
Y111842D03*
Y117059D03*
X-30676Y121685D03*
X-34574Y124500D03*
X-26500Y281558D03*
Y276341D03*
X-27976Y271715D03*
X-31874Y268900D03*
X-36874D03*
X-27976Y296715D03*
X-26500Y292089D03*
Y286872D03*
X-36835Y299569D03*
X-31913D03*
X-27976Y311085D03*
X-26500Y315711D03*
Y321026D03*
Y326243D03*
X-36835Y308231D03*
X-31913D03*
X-26500Y331459D03*
X-27976Y336085D03*
X-31874Y338900D03*
X-36874D03*
X18300Y484758D03*
Y479541D03*
X19776Y474915D03*
Y499915D03*
X18300Y495289D03*
Y489974D03*
X19776Y514285D03*
X18300Y518911D03*
Y524128D03*
Y529442D03*
Y534659D03*
X19776Y539285D03*
X23674Y472100D03*
X28674D03*
X32572Y474915D03*
X34048Y479541D03*
Y484758D03*
Y489974D03*
Y495289D03*
X32572Y499915D03*
X28635Y502769D03*
X23713D03*
X34048Y524128D03*
Y518911D03*
X32572Y514285D03*
X28635Y511431D03*
X23713D03*
X23674Y542100D03*
X28674D03*
X32572Y539285D03*
X34048Y534659D03*
Y529442D03*
G54D38*
X359391Y27100D03*
X349391D03*
G54D48*
G01X-58078Y507100D02*
X-65078Y514100D01*
X-105000D01*
X-108200Y517300D01*
Y581300D01*
X-95500Y594000D01*
X-67500D01*
X-43800Y570300D01*
X23300D01*
X29900Y563700D01*
Y558900D01*
G01X-86800Y509400D02*
X-83950Y506550D01*
Y422240D01*
X-83800Y422090D01*
Y420700D01*
X-18400Y355300D01*
Y342900D01*
X-14150Y338650D01*
X56750D01*
X65400Y330000D01*
Y310700D01*
G01X81400Y311000D02*
X80300Y312100D01*
Y321600D01*
X61250Y340650D01*
X-12532D01*
X-16350Y344468D01*
Y356950D01*
X-81500Y422100D01*
Y422618D01*
X-81950Y423068D01*
Y503200D01*
X-77550Y507600D01*
Y510050D01*
G01X-58078Y514620D02*
X-55106Y517592D01*
X-44092D01*
X-41800Y515300D01*
Y490700D01*
X-44700Y487800D01*
X-66160D01*
G01X-58078Y507100D02*
X-53838Y511340D01*
X-47900D01*
G01X-43600Y587800D02*
X-41150D01*
X-38800Y590150D01*
Y620300D01*
X21800Y680900D01*
Y701300D01*
X18200Y704900D01*
G01X-41500Y583100D02*
X-38400D01*
X-36100Y585400D01*
Y619600D01*
X24900Y680600D01*
Y710300D01*
X28200Y713600D01*
G01X-38700Y577500D02*
X-32500Y583700D01*
Y614300D01*
X63900Y710700D01*
X69500D01*
X73400Y706800D01*
G01X-32100Y576200D02*
X-29900Y578400D01*
Y614072D01*
X63328Y707300D01*
X66600D01*
G01X-23550Y577950D02*
Y589950D01*
X31900Y645400D01*
X51200D01*
X76200Y670400D01*
Y702950D01*
X79500Y706250D01*
Y708700D01*
G01X85300Y706700D02*
X82400Y703800D01*
Y673200D01*
X52600Y643400D01*
X34200D01*
X-17300Y591900D01*
Y582700D01*
X-15300Y580700D01*
G01X29900Y558900D02*
X40000Y548800D01*
X57300D01*
G01X52800Y595200D02*
Y582000D01*
X40800Y570000D01*
G01X68600Y606100D02*
X65000D01*
X57400Y613700D01*
X33100D01*
X22500Y603100D01*
Y586900D01*
X27195Y582205D01*
X32091D01*
G01X46500Y568200D02*
X49500D01*
X51941Y570641D01*
Y573948D01*
X61512Y583519D01*
X81281D01*
X84900Y579900D01*
G01X65400Y310700D02*
X73500Y302600D01*
Y300800D01*
G01X68445Y616698D02*
Y630844D01*
X83200Y645600D01*
X94550D01*
X96200Y647250D01*
Y651800D01*
G01X97900Y667200D02*
X96168Y668932D01*
Y701232D01*
X92000Y705400D01*
G01X119000Y672300D02*
Y689900D01*
X135900Y706800D01*
G01X104800Y673400D02*
Y706600D01*
G01X161100Y672800D02*
Y706800D01*
G01X187500Y585400D02*
X183400Y589500D01*
Y622200D01*
X189000Y627800D01*
X213684D01*
X218284Y623200D01*
G01X197800Y650600D02*
X268000D01*
X271500Y647100D01*
X438300D01*
G01X249400Y597900D02*
X259800Y587500D01*
Y568500D01*
G01X266400Y626800D02*
X414600D01*
G01X548300Y592900D02*
X544500Y596700D01*
X487991D01*
X475191Y609500D01*
Y634100D01*
X459800Y649491D01*
Y663800D01*
G01X550991Y560000D02*
X548300Y562691D01*
Y592900D01*
G01X659900Y606900D02*
Y621700D01*
X667200Y629000D01*
G01X670100Y608100D02*
X666600D01*
G01X679291Y599558D02*
X670749Y608100D01*
X670100D01*
G54D39*
X369391Y27100D03*
G54D49*
G01X235900Y686800D02*
X236300Y686400D01*
M02*
