G04 ================== begin FILE IDENTIFICATION RECORD ==================*
G04 Layout Name:  solutionstida01606_powercard_20march.brd*
G04 Film Name:    DrillDimensions*
G04 File Format:  Gerber RS274X*
G04 File Origin:  Cadence Allegro 17.4-S031*
G04 Origin Date:  Fri Mar 22 14:58:21 2024*
G04 *
G04 Layer:  MANUFACTURING/NCLEGEND-1-4*
G04 Layer:  MANUFACTURING/NCDRILL_LEGEND*
G04 Layer:  MANUFACTURING/NCDRILL_FIGURE*
G04 Layer:  BOARD GEOMETRY/OUTLINE*
G04 Layer:  BOARD GEOMETRY/DIMENSION*
G04 *
G04 Offset:    (0.000 0.000)*
G04 Mirror:    No*
G04 Mode:      Positive*
G04 Rotation:  0*
G04 FullContactRelief:  No*
G04 UndefLineWidth:     8.000*
G04 ================== end FILE IDENTIFICATION RECORD ====================*
%FSLAX25Y25*MOIN*%
%IR0*IPPOS*OFA0.00000B0.00000*MIA0B0*SFA1.00000B1.00000*%
%AMMACRO30*
1,1,.008,-.015,.04*
20,1,.008,-.015,.04,.015,.04,0.0*
1,1,.008,.015,.04*
20,1,.008,.015,.04,.015,-.04,0.0*
1,1,.008,.015,-.04*
20,1,.008,.015,-.04,-.015,-.04,0.0*
1,1,.008,-.015,-.04*
20,1,.008,-.015,-.04,-.015,.04,0.0*
1,1,.008,-.015,.04*
%
%ADD30MACRO30*%
%AMMACRO27*
1,1,.008,.015,.04*
20,1,.008,.015,.04,.015,-.04,0.0*
1,1,.008,.015,-.04*
20,1,.008,.015,-.04,-.015,-.04,0.0*
1,1,.008,-.015,-.04*
20,1,.008,-.015,-.04,-.015,.04,0.0*
1,1,.008,-.015,.04*
20,1,.008,-.015,.04,.015,.04,0.0*
1,1,.008,.015,.04*
%
%ADD27MACRO27*%
%AMMACRO11*
1,1,.008,.09,0.0*
20,1,.008,.09,0.0,-.09,0.0,0.0*
1,1,.008,-.09,0.0*
1,1,.008,0.0,.09*
20,1,.008,0.0,.09,0.0,-.09,0.0*
1,1,.008,0.0,-.09*
%
%ADD11MACRO11*%
%AMMACRO12*
1,1,.008,.04,0.0*
20,1,.008,.04,0.0,-.04,0.0,0.0*
1,1,.008,-.04,0.0*
1,1,.008,0.0,.04*
20,1,.008,0.0,.04,0.0,-.04,0.0*
1,1,.008,0.0,-.04*
%
%ADD12MACRO12*%
%AMMACRO13*
1,1,.008,.02,0.0*
20,1,.008,.02,0.0,.019696,-.003473,0.0*
1,1,.008,.019696,-.003473*
20,1,.008,.019696,-.003473,.018794,-.00684,0.0*
1,1,.008,.018794,-.00684*
20,1,.008,.018794,-.00684,.017321,-.01,0.0*
1,1,.008,.017321,-.01*
20,1,.008,.017321,-.01,.015321,-.012856,0.0*
1,1,.008,.015321,-.012856*
20,1,.008,.015321,-.012856,.012856,-.015321,0.0*
1,1,.008,.012856,-.015321*
20,1,.008,.012856,-.015321,.01,-.017321,0.0*
1,1,.008,.01,-.017321*
20,1,.008,.01,-.017321,.00684,-.018794,0.0*
1,1,.008,.00684,-.018794*
20,1,.008,.00684,-.018794,.003473,-.019696,0.0*
1,1,.008,.003473,-.019696*
20,1,.008,.003473,-.019696,0.0,-.02,0.0*
1,1,.008,0.0,-.02*
20,1,.008,0.0,-.02,-.003473,-.019696,0.0*
1,1,.008,-.003473,-.019696*
20,1,.008,-.003473,-.019696,-.00684,-.018794,0.0*
1,1,.008,-.00684,-.018794*
20,1,.008,-.00684,-.018794,-.01,-.017321,0.0*
1,1,.008,-.01,-.017321*
20,1,.008,-.01,-.017321,-.012856,-.015321,0.0*
1,1,.008,-.012856,-.015321*
20,1,.008,-.012856,-.015321,-.015321,-.012856,0.0*
1,1,.008,-.015321,-.012856*
20,1,.008,-.015321,-.012856,-.017321,-.01,0.0*
1,1,.008,-.017321,-.01*
20,1,.008,-.017321,-.01,-.018794,-.00684,0.0*
1,1,.008,-.018794,-.00684*
20,1,.008,-.018794,-.00684,-.019696,-.003473,0.0*
1,1,.008,-.019696,-.003473*
20,1,.008,-.019696,-.003473,-.02,0.0,0.0*
1,1,.008,-.02,0.0*
20,1,.008,-.02,0.0,-.019696,.003473,0.0*
1,1,.008,-.019696,.003473*
20,1,.008,-.019696,.003473,-.018794,.00684,0.0*
1,1,.008,-.018794,.00684*
20,1,.008,-.018794,.00684,-.017321,.01,0.0*
1,1,.008,-.017321,.01*
20,1,.008,-.017321,.01,-.015321,.012856,0.0*
1,1,.008,-.015321,.012856*
20,1,.008,-.015321,.012856,-.012856,.015321,0.0*
1,1,.008,-.012856,.015321*
20,1,.008,-.012856,.015321,-.01,.017321,0.0*
1,1,.008,-.01,.017321*
20,1,.008,-.01,.017321,-.00684,.018794,0.0*
1,1,.008,-.00684,.018794*
20,1,.008,-.00684,.018794,-.003473,.019696,0.0*
1,1,.008,-.003473,.019696*
20,1,.008,-.003473,.019696,0.0,.02,0.0*
1,1,.008,0.0,.02*
20,1,.008,0.0,.02,.003473,.019696,0.0*
1,1,.008,.003473,.019696*
20,1,.008,.003473,.019696,.00684,.018794,0.0*
1,1,.008,.00684,.018794*
20,1,.008,.00684,.018794,.01,.017321,0.0*
1,1,.008,.01,.017321*
20,1,.008,.01,.017321,.012856,.015321,0.0*
1,1,.008,.012856,.015321*
20,1,.008,.012856,.015321,.015321,.012856,0.0*
1,1,.008,.015321,.012856*
20,1,.008,.015321,.012856,.017321,.01,0.0*
1,1,.008,.017321,.01*
20,1,.008,.017321,.01,.018794,.00684,0.0*
1,1,.008,.018794,.00684*
20,1,.008,.018794,.00684,.019696,.003473,0.0*
1,1,.008,.019696,.003473*
20,1,.008,.019696,.003473,.02,0.0,0.0*
1,1,.008,.02,0.0*
1,1,.008,.01,0.0*
20,1,.008,.01,0.0,-.01,0.0,0.0*
1,1,.008,-.01,0.0*
1,1,.008,0.0,.01*
20,1,.008,0.0,.01,0.0,-.01,0.0*
1,1,.008,0.0,-.01*
%
%ADD13MACRO13*%
%AMMACRO15*
1,1,.008,.025,0.0*
20,1,.008,.025,0.0,.02462,-.004341,0.0*
1,1,.008,.02462,-.004341*
20,1,.008,.02462,-.004341,.023492,-.008551,0.0*
1,1,.008,.023492,-.008551*
20,1,.008,.023492,-.008551,.021651,-.0125,0.0*
1,1,.008,.021651,-.0125*
20,1,.008,.021651,-.0125,.019151,-.01607,0.0*
1,1,.008,.019151,-.01607*
20,1,.008,.019151,-.01607,.01607,-.019151,0.0*
1,1,.008,.01607,-.019151*
20,1,.008,.01607,-.019151,.0125,-.021651,0.0*
1,1,.008,.0125,-.021651*
20,1,.008,.0125,-.021651,.008551,-.023492,0.0*
1,1,.008,.008551,-.023492*
20,1,.008,.008551,-.023492,.004341,-.02462,0.0*
1,1,.008,.004341,-.02462*
20,1,.008,.004341,-.02462,0.0,-.025,0.0*
1,1,.008,0.0,-.025*
20,1,.008,0.0,-.025,-.004341,-.02462,0.0*
1,1,.008,-.004341,-.02462*
20,1,.008,-.004341,-.02462,-.008551,-.023492,0.0*
1,1,.008,-.008551,-.023492*
20,1,.008,-.008551,-.023492,-.0125,-.021651,0.0*
1,1,.008,-.0125,-.021651*
20,1,.008,-.0125,-.021651,-.01607,-.019151,0.0*
1,1,.008,-.01607,-.019151*
20,1,.008,-.01607,-.019151,-.019151,-.01607,0.0*
1,1,.008,-.019151,-.01607*
20,1,.008,-.019151,-.01607,-.021651,-.0125,0.0*
1,1,.008,-.021651,-.0125*
20,1,.008,-.021651,-.0125,-.023492,-.008551,0.0*
1,1,.008,-.023492,-.008551*
20,1,.008,-.023492,-.008551,-.02462,-.004341,0.0*
1,1,.008,-.02462,-.004341*
20,1,.008,-.02462,-.004341,-.025,0.0,0.0*
1,1,.008,-.025,0.0*
20,1,.008,-.025,0.0,-.02462,.004341,0.0*
1,1,.008,-.02462,.004341*
20,1,.008,-.02462,.004341,-.023492,.008551,0.0*
1,1,.008,-.023492,.008551*
20,1,.008,-.023492,.008551,-.021651,.0125,0.0*
1,1,.008,-.021651,.0125*
20,1,.008,-.021651,.0125,-.019151,.01607,0.0*
1,1,.008,-.019151,.01607*
20,1,.008,-.019151,.01607,-.01607,.019151,0.0*
1,1,.008,-.01607,.019151*
20,1,.008,-.01607,.019151,-.0125,.021651,0.0*
1,1,.008,-.0125,.021651*
20,1,.008,-.0125,.021651,-.008551,.023492,0.0*
1,1,.008,-.008551,.023492*
20,1,.008,-.008551,.023492,-.004341,.02462,0.0*
1,1,.008,-.004341,.02462*
20,1,.008,-.004341,.02462,0.0,.025,0.0*
1,1,.008,0.0,.025*
20,1,.008,0.0,.025,.004341,.02462,0.0*
1,1,.008,.004341,.02462*
20,1,.008,.004341,.02462,.008551,.023492,0.0*
1,1,.008,.008551,.023492*
20,1,.008,.008551,.023492,.0125,.021651,0.0*
1,1,.008,.0125,.021651*
20,1,.008,.0125,.021651,.01607,.019151,0.0*
1,1,.008,.01607,.019151*
20,1,.008,.01607,.019151,.019151,.01607,0.0*
1,1,.008,.019151,.01607*
20,1,.008,.019151,.01607,.021651,.0125,0.0*
1,1,.008,.021651,.0125*
20,1,.008,.021651,.0125,.023492,.008551,0.0*
1,1,.008,.023492,.008551*
20,1,.008,.023492,.008551,.02462,.004341,0.0*
1,1,.008,.02462,.004341*
20,1,.008,.02462,.004341,.025,0.0,0.0*
1,1,.008,.025,0.0*
1,1,.008,.0125,0.0*
20,1,.008,.0125,0.0,-.0125,0.0,0.0*
1,1,.008,-.0125,0.0*
1,1,.008,0.0,.0125*
20,1,.008,0.0,.0125,0.0,-.0125,0.0*
1,1,.008,0.0,-.0125*
%
%ADD15MACRO15*%
%AMMACRO25*
1,1,.008,.0525,0.0*
20,1,.008,.0525,0.0,.051702,-.009117,0.0*
1,1,.008,.051702,-.009117*
20,1,.008,.051702,-.009117,.049334,-.017956,0.0*
1,1,.008,.049334,-.017956*
20,1,.008,.049334,-.017956,.045466,-.02625,0.0*
1,1,.008,.045466,-.02625*
20,1,.008,.045466,-.02625,.040217,-.033746,0.0*
1,1,.008,.040217,-.033746*
20,1,.008,.040217,-.033746,.033746,-.040217,0.0*
1,1,.008,.033746,-.040217*
20,1,.008,.033746,-.040217,.02625,-.045466,0.0*
1,1,.008,.02625,-.045466*
20,1,.008,.02625,-.045466,.017956,-.049334,0.0*
1,1,.008,.017956,-.049334*
20,1,.008,.017956,-.049334,.009117,-.051702,0.0*
1,1,.008,.009117,-.051702*
20,1,.008,.009117,-.051702,0.0,-.0525,0.0*
1,1,.008,0.0,-.0525*
20,1,.008,0.0,-.0525,-.009117,-.051702,0.0*
1,1,.008,-.009117,-.051702*
20,1,.008,-.009117,-.051702,-.017956,-.049334,0.0*
1,1,.008,-.017956,-.049334*
20,1,.008,-.017956,-.049334,-.02625,-.045466,0.0*
1,1,.008,-.02625,-.045466*
20,1,.008,-.02625,-.045466,-.033746,-.040217,0.0*
1,1,.008,-.033746,-.040217*
20,1,.008,-.033746,-.040217,-.040217,-.033746,0.0*
1,1,.008,-.040217,-.033746*
20,1,.008,-.040217,-.033746,-.045466,-.02625,0.0*
1,1,.008,-.045466,-.02625*
20,1,.008,-.045466,-.02625,-.049334,-.017956,0.0*
1,1,.008,-.049334,-.017956*
20,1,.008,-.049334,-.017956,-.051702,-.009117,0.0*
1,1,.008,-.051702,-.009117*
20,1,.008,-.051702,-.009117,-.0525,0.0,0.0*
1,1,.008,-.0525,0.0*
20,1,.008,-.0525,0.0,-.051702,.009117,0.0*
1,1,.008,-.051702,.009117*
20,1,.008,-.051702,.009117,-.049334,.017956,0.0*
1,1,.008,-.049334,.017956*
20,1,.008,-.049334,.017956,-.045466,.02625,0.0*
1,1,.008,-.045466,.02625*
20,1,.008,-.045466,.02625,-.040217,.033746,0.0*
1,1,.008,-.040217,.033746*
20,1,.008,-.040217,.033746,-.033746,.040217,0.0*
1,1,.008,-.033746,.040217*
20,1,.008,-.033746,.040217,-.02625,.045466,0.0*
1,1,.008,-.02625,.045466*
20,1,.008,-.02625,.045466,-.017956,.049334,0.0*
1,1,.008,-.017956,.049334*
20,1,.008,-.017956,.049334,-.009117,.051702,0.0*
1,1,.008,-.009117,.051702*
20,1,.008,-.009117,.051702,0.0,.0525,0.0*
1,1,.008,0.0,.0525*
20,1,.008,0.0,.0525,.009117,.051702,0.0*
1,1,.008,.009117,.051702*
20,1,.008,.009117,.051702,.017956,.049334,0.0*
1,1,.008,.017956,.049334*
20,1,.008,.017956,.049334,.02625,.045466,0.0*
1,1,.008,.02625,.045466*
20,1,.008,.02625,.045466,.033746,.040217,0.0*
1,1,.008,.033746,.040217*
20,1,.008,.033746,.040217,.040217,.033746,0.0*
1,1,.008,.040217,.033746*
20,1,.008,.040217,.033746,.045466,.02625,0.0*
1,1,.008,.045466,.02625*
20,1,.008,.045466,.02625,.049334,.017956,0.0*
1,1,.008,.049334,.017956*
20,1,.008,.049334,.017956,.051702,.009117,0.0*
1,1,.008,.051702,.009117*
20,1,.008,.051702,.009117,.0525,0.0,0.0*
1,1,.008,.0525,0.0*
1,1,.008,-.031237,-.015618*
20,1,.008,-.031237,-.015618,-.031237,.015619,0.0*
1,1,.008,-.031237,.015619*
20,1,.008,-.031237,.015619,-.037484,.009372,0.0*
1,1,.008,-.037484,.009372*
1,1,.008,-.037484,-.015618*
20,1,.008,-.037484,-.015618,-.02499,-.015618,0.0*
1,1,.008,-.02499,-.015618*
1,1,.008,.000001,.015619*
20,1,.008,.000001,.015619,-.004164,.014578,0.0*
1,1,.008,-.004164,.014578*
20,1,.008,-.004164,.014578,-.007287,.011975,0.0*
1,1,.008,-.007287,.011975*
20,1,.008,-.007287,.011975,-.00937,.008851,0.0*
1,1,.008,-.00937,.008851*
20,1,.008,-.00937,.008851,-.010931,.004686,0.0*
1,1,.008,-.010931,.004686*
20,1,.008,-.010931,.004686,-.011452,0.0,0.0*
1,1,.008,-.011452,0.0*
20,1,.008,-.011452,0.0,-.010931,-.004685,0.0*
1,1,.008,-.010931,-.004685*
20,1,.008,-.010931,-.004685,-.00937,-.00885,0.0*
1,1,.008,-.00937,-.00885*
20,1,.008,-.00937,-.00885,-.007287,-.011974,0.0*
1,1,.008,-.007287,-.011974*
20,1,.008,-.007287,-.011974,-.004164,-.014577,0.0*
1,1,.008,-.004164,-.014577*
20,1,.008,-.004164,-.014577,.000001,-.015618,0.0*
1,1,.008,.000001,-.015618*
20,1,.008,.000001,-.015618,.004166,-.014577,0.0*
1,1,.008,.004166,-.014577*
20,1,.008,.004166,-.014577,.00729,-.011974,0.0*
1,1,.008,.00729,-.011974*
20,1,.008,.00729,-.011974,.009373,-.00885,0.0*
1,1,.008,.009373,-.00885*
20,1,.008,.009373,-.00885,.010934,-.004685,0.0*
1,1,.008,.010934,-.004685*
20,1,.008,.010934,-.004685,.011455,0.0,0.0*
1,1,.008,.011455,0.0*
20,1,.008,.011455,0.0,.010934,.004686,0.0*
1,1,.008,.010934,.004686*
20,1,.008,.010934,.004686,.009373,.008851,0.0*
1,1,.008,.009373,.008851*
20,1,.008,.009373,.008851,.00729,.011975,0.0*
1,1,.008,.00729,.011975*
20,1,.008,.00729,.011975,.004166,.014578,0.0*
1,1,.008,.004166,.014578*
20,1,.008,.004166,.014578,.000001,.015619,0.0*
1,1,.008,.000001,.015619*
1,1,.008,.019786,-.010933*
20,1,.008,.019786,-.010933,.022909,-.013536,0.0*
1,1,.008,.022909,-.013536*
20,1,.008,.022909,-.013536,.026554,-.015097,0.0*
1,1,.008,.026554,-.015097*
20,1,.008,.026554,-.015097,.031239,-.015618,0.0*
1,1,.008,.031239,-.015618*
20,1,.008,.031239,-.015618,.035925,-.014577,0.0*
1,1,.008,.035925,-.014577*
20,1,.008,.035925,-.014577,.039569,-.012495,0.0*
1,1,.008,.039569,-.012495*
20,1,.008,.039569,-.012495,.042172,-.00885,0.0*
1,1,.008,.042172,-.00885*
20,1,.008,.042172,-.00885,.042693,-.004685,0.0*
1,1,.008,.042693,-.004685*
20,1,.008,.042693,-.004685,.041652,-.00052,0.0*
1,1,.008,.041652,-.00052*
20,1,.008,.041652,-.00052,.039049,.002083,0.0*
1,1,.008,.039049,.002083*
20,1,.008,.039049,.002083,.035404,.004165,0.0*
1,1,.008,.035404,.004165*
20,1,.008,.035404,.004165,.03176,.004686,0.0*
1,1,.008,.03176,.004686*
20,1,.008,.03176,.004686,.028116,.004165,0.0*
1,1,.008,.028116,.004165*
20,1,.008,.028116,.004165,.02343,.002083,0.0*
1,1,.008,.02343,.002083*
20,1,.008,.02343,.002083,.024992,.015619,0.0*
1,1,.008,.024992,.015619*
20,1,.008,.024992,.015619,.039049,.015619,0.0*
1,1,.008,.039049,.015619*
%
%ADD25MACRO25*%
%AMMACRO26*
1,1,.008,.019685,0.0*
20,1,.008,.019685,0.0,.019386,-.003418,0.0*
1,1,.008,.019386,-.003418*
20,1,.008,.019386,-.003418,.018498,-.006733,0.0*
1,1,.008,.018498,-.006733*
20,1,.008,.018498,-.006733,.017048,-.009842,0.0*
1,1,.008,.017048,-.009842*
20,1,.008,.017048,-.009842,.01508,-.012653,0.0*
1,1,.008,.01508,-.012653*
20,1,.008,.01508,-.012653,.012653,-.01508,0.0*
1,1,.008,.012653,-.01508*
20,1,.008,.012653,-.01508,.009843,-.017048,0.0*
1,1,.008,.009843,-.017048*
20,1,.008,.009843,-.017048,.006733,-.018498,0.0*
1,1,.008,.006733,-.018498*
20,1,.008,.006733,-.018498,.003418,-.019386,0.0*
1,1,.008,.003418,-.019386*
20,1,.008,.003418,-.019386,0.0,-.019685,0.0*
1,1,.008,0.0,-.019685*
20,1,.008,0.0,-.019685,-.003418,-.019386,0.0*
1,1,.008,-.003418,-.019386*
20,1,.008,-.003418,-.019386,-.006733,-.018498,0.0*
1,1,.008,-.006733,-.018498*
20,1,.008,-.006733,-.018498,-.009842,-.017048,0.0*
1,1,.008,-.009842,-.017048*
20,1,.008,-.009842,-.017048,-.012653,-.01508,0.0*
1,1,.008,-.012653,-.01508*
20,1,.008,-.012653,-.01508,-.01508,-.012653,0.0*
1,1,.008,-.01508,-.012653*
20,1,.008,-.01508,-.012653,-.017048,-.009843,0.0*
1,1,.008,-.017048,-.009843*
20,1,.008,-.017048,-.009843,-.018498,-.006733,0.0*
1,1,.008,-.018498,-.006733*
20,1,.008,-.018498,-.006733,-.019386,-.003418,0.0*
1,1,.008,-.019386,-.003418*
20,1,.008,-.019386,-.003418,-.019685,0.0,0.0*
1,1,.008,-.019685,0.0*
20,1,.008,-.019685,0.0,-.019386,.003418,0.0*
1,1,.008,-.019386,.003418*
20,1,.008,-.019386,.003418,-.018498,.006733,0.0*
1,1,.008,-.018498,.006733*
20,1,.008,-.018498,.006733,-.017048,.009842,0.0*
1,1,.008,-.017048,.009842*
20,1,.008,-.017048,.009842,-.01508,.012653,0.0*
1,1,.008,-.01508,.012653*
20,1,.008,-.01508,.012653,-.012653,.01508,0.0*
1,1,.008,-.012653,.01508*
20,1,.008,-.012653,.01508,-.009843,.017048,0.0*
1,1,.008,-.009843,.017048*
20,1,.008,-.009843,.017048,-.006733,.018498,0.0*
1,1,.008,-.006733,.018498*
20,1,.008,-.006733,.018498,-.003418,.019386,0.0*
1,1,.008,-.003418,.019386*
20,1,.008,-.003418,.019386,0.0,.019685,0.0*
1,1,.008,0.0,.019685*
20,1,.008,0.0,.019685,.003418,.019386,0.0*
1,1,.008,.003418,.019386*
20,1,.008,.003418,.019386,.006733,.018498,0.0*
1,1,.008,.006733,.018498*
20,1,.008,.006733,.018498,.009842,.017048,0.0*
1,1,.008,.009842,.017048*
20,1,.008,.009842,.017048,.012653,.01508,0.0*
1,1,.008,.012653,.01508*
20,1,.008,.012653,.01508,.01508,.012653,0.0*
1,1,.008,.01508,.012653*
20,1,.008,.01508,.012653,.017048,.009843,0.0*
1,1,.008,.017048,.009843*
20,1,.008,.017048,.009843,.018498,.006733,0.0*
1,1,.008,.018498,.006733*
20,1,.008,.018498,.006733,.019386,.003418,0.0*
1,1,.008,.019386,.003418*
20,1,.008,.019386,.003418,.019685,0.0,0.0*
1,1,.008,.019685,0.0*
1,1,.008,-.004921,.003281*
20,1,.008,-.004921,.003281,.004922,-.009842,0.0*
1,1,.008,.004922,-.009842*
1,1,.008,.004922,.003281*
20,1,.008,.004922,.003281,-.004921,-.009842,0.0*
1,1,.008,-.004921,-.009842*
%
%ADD26MACRO26*%
%AMMACRO24*
1,1,.008,-.049212,-.068898*
20,1,.008,-.049212,-.068898,-.049212,.068898,0.0*
1,1,.008,-.049212,.068898*
20,1,.008,-.049212,.068898,-.048465,.077444,0.0*
1,1,.008,-.048465,.077444*
20,1,.008,-.048465,.077444,-.046245,.08573,0.0*
1,1,.008,-.046245,.08573*
20,1,.008,-.046245,.08573,-.042619,.093504,0.0*
1,1,.008,-.042619,.093504*
20,1,.008,-.042619,.093504,-.037699,.100531,0.0*
1,1,.008,-.037699,.100531*
20,1,.008,-.037699,.100531,-.031633,.106597,0.0*
1,1,.008,-.031633,.106597*
20,1,.008,-.031633,.106597,-.024606,.111517,0.0*
1,1,.008,-.024606,.111517*
20,1,.008,-.024606,.111517,-.016832,.115143,0.0*
1,1,.008,-.016832,.115143*
20,1,.008,-.016832,.115143,-.008546,.117363,0.0*
1,1,.008,-.008546,.117363*
20,1,.008,-.008546,.117363,0.0,.118111,0.0*
1,1,.008,0.0,.118111*
20,1,.008,0.0,.118111,.008546,.117363,0.0*
1,1,.008,.008546,.117363*
20,1,.008,.008546,.117363,.016832,.115143,0.0*
1,1,.008,.016832,.115143*
20,1,.008,.016832,.115143,.024606,.111517,0.0*
1,1,.008,.024606,.111517*
20,1,.008,.024606,.111517,.031633,.106597,0.0*
1,1,.008,.031633,.106597*
20,1,.008,.031633,.106597,.037699,.100531,0.0*
1,1,.008,.037699,.100531*
20,1,.008,.037699,.100531,.042619,.093504,0.0*
1,1,.008,.042619,.093504*
20,1,.008,.042619,.093504,.046245,.08573,0.0*
1,1,.008,.046245,.08573*
20,1,.008,.046245,.08573,.048465,.077444,0.0*
1,1,.008,.048465,.077444*
20,1,.008,.048465,.077444,.049212,.068898,0.0*
1,1,.008,.049212,.068898*
20,1,.008,.049212,.068898,.049212,-.068898,0.0*
1,1,.008,.049212,-.068898*
20,1,.008,.049212,-.068898,.048465,-.077444,0.0*
1,1,.008,.048465,-.077444*
20,1,.008,.048465,-.077444,.046245,-.08573,0.0*
1,1,.008,.046245,-.08573*
20,1,.008,.046245,-.08573,.042619,-.093504,0.0*
1,1,.008,.042619,-.093504*
20,1,.008,.042619,-.093504,.037699,-.100531,0.0*
1,1,.008,.037699,-.100531*
20,1,.008,.037699,-.100531,.031633,-.106597,0.0*
1,1,.008,.031633,-.106597*
20,1,.008,.031633,-.106597,.024606,-.111517,0.0*
1,1,.008,.024606,-.111517*
20,1,.008,.024606,-.111517,.016832,-.115143,0.0*
1,1,.008,.016832,-.115143*
20,1,.008,.016832,-.115143,.008546,-.117363,0.0*
1,1,.008,.008546,-.117363*
20,1,.008,.008546,-.117363,0.0,-.118111,0.0*
1,1,.008,0.0,-.118111*
20,1,.008,0.0,-.118111,-.008546,-.117363,0.0*
1,1,.008,-.008546,-.117363*
20,1,.008,-.008546,-.117363,-.016832,-.115143,0.0*
1,1,.008,-.016832,-.115143*
20,1,.008,-.016832,-.115143,-.024606,-.111517,0.0*
1,1,.008,-.024606,-.111517*
20,1,.008,-.024606,-.111517,-.031633,-.106597,0.0*
1,1,.008,-.031633,-.106597*
20,1,.008,-.031633,-.106597,-.037699,-.100531,0.0*
1,1,.008,-.037699,-.100531*
20,1,.008,-.037699,-.100531,-.042619,-.093504,0.0*
1,1,.008,-.042619,-.093504*
20,1,.008,-.042619,-.093504,-.046245,-.08573,0.0*
1,1,.008,-.046245,-.08573*
20,1,.008,-.046245,-.08573,-.048465,-.077444,0.0*
1,1,.008,-.048465,-.077444*
20,1,.008,-.048465,-.077444,-.049212,-.068898,0.0*
1,1,.008,-.049212,-.068898*
%
%ADD24MACRO24*%
%AMMACRO22*
1,1,.008,0.0,.02*
20,1,.008,0.0,.02,.01732,-.01,0.0*
1,1,.008,.01732,-.01*
20,1,.008,.01732,-.01,-.01732,-.01,0.0*
1,1,.008,-.01732,-.01*
20,1,.008,-.01732,-.01,0.0,.02,0.0*
1,1,.008,0.0,.02*
1,1,.008,-.005667,-.01*
20,1,.008,-.005667,-.01,-.005667,.003333,0.0*
1,1,.008,-.005667,.003333*
1,1,.008,-.005667,0.0*
20,1,.008,-.005667,0.0,-.004333,.001667,0.0*
1,1,.008,-.004333,.001667*
20,1,.008,-.004333,.001667,-.002333,.003,0.0*
1,1,.008,-.002333,.003*
20,1,.008,-.002333,.003,.000334,.003333,0.0*
1,1,.008,.000334,.003333*
20,1,.008,.000334,.003333,.002666,.003,0.0*
1,1,.008,.002666,.003*
20,1,.008,.002666,.003,.004667,.001667,0.0*
1,1,.008,.004667,.001667*
20,1,.008,.004667,.001667,.005667,-.000667,0.0*
1,1,.008,.005667,-.000667*
20,1,.008,.005667,-.000667,.005667,-.01,0.0*
1,1,.008,.005667,-.01*
%
%ADD22MACRO22*%
%AMMACRO20*
1,1,.008,.0155,0.0*
20,1,.008,.0155,0.0,.015265,-.002692,0.0*
1,1,.008,.015265,-.002692*
20,1,.008,.015265,-.002692,.014565,-.005301,0.0*
1,1,.008,.014565,-.005301*
20,1,.008,.014565,-.005301,.013423,-.00775,0.0*
1,1,.008,.013423,-.00775*
20,1,.008,.013423,-.00775,.011874,-.009963,0.0*
1,1,.008,.011874,-.009963*
20,1,.008,.011874,-.009963,.009963,-.011874,0.0*
1,1,.008,.009963,-.011874*
20,1,.008,.009963,-.011874,.00775,-.013423,0.0*
1,1,.008,.00775,-.013423*
20,1,.008,.00775,-.013423,.005301,-.014565,0.0*
1,1,.008,.005301,-.014565*
20,1,.008,.005301,-.014565,.002692,-.015265,0.0*
1,1,.008,.002692,-.015265*
20,1,.008,.002692,-.015265,0.0,-.0155,0.0*
1,1,.008,0.0,-.0155*
20,1,.008,0.0,-.0155,-.002692,-.015265,0.0*
1,1,.008,-.002692,-.015265*
20,1,.008,-.002692,-.015265,-.005301,-.014565,0.0*
1,1,.008,-.005301,-.014565*
20,1,.008,-.005301,-.014565,-.00775,-.013423,0.0*
1,1,.008,-.00775,-.013423*
20,1,.008,-.00775,-.013423,-.009963,-.011874,0.0*
1,1,.008,-.009963,-.011874*
20,1,.008,-.009963,-.011874,-.011874,-.009963,0.0*
1,1,.008,-.011874,-.009963*
20,1,.008,-.011874,-.009963,-.013423,-.00775,0.0*
1,1,.008,-.013423,-.00775*
20,1,.008,-.013423,-.00775,-.014565,-.005301,0.0*
1,1,.008,-.014565,-.005301*
20,1,.008,-.014565,-.005301,-.015265,-.002692,0.0*
1,1,.008,-.015265,-.002692*
20,1,.008,-.015265,-.002692,-.0155,0.0,0.0*
1,1,.008,-.0155,0.0*
20,1,.008,-.0155,0.0,-.015265,.002692,0.0*
1,1,.008,-.015265,.002692*
20,1,.008,-.015265,.002692,-.014565,.005301,0.0*
1,1,.008,-.014565,.005301*
20,1,.008,-.014565,.005301,-.013423,.00775,0.0*
1,1,.008,-.013423,.00775*
20,1,.008,-.013423,.00775,-.011874,.009963,0.0*
1,1,.008,-.011874,.009963*
20,1,.008,-.011874,.009963,-.009963,.011874,0.0*
1,1,.008,-.009963,.011874*
20,1,.008,-.009963,.011874,-.00775,.013423,0.0*
1,1,.008,-.00775,.013423*
20,1,.008,-.00775,.013423,-.005301,.014565,0.0*
1,1,.008,-.005301,.014565*
20,1,.008,-.005301,.014565,-.002692,.015265,0.0*
1,1,.008,-.002692,.015265*
20,1,.008,-.002692,.015265,0.0,.0155,0.0*
1,1,.008,0.0,.0155*
20,1,.008,0.0,.0155,.002692,.015265,0.0*
1,1,.008,.002692,.015265*
20,1,.008,.002692,.015265,.005301,.014565,0.0*
1,1,.008,.005301,.014565*
20,1,.008,.005301,.014565,.00775,.013423,0.0*
1,1,.008,.00775,.013423*
20,1,.008,.00775,.013423,.009963,.011874,0.0*
1,1,.008,.009963,.011874*
20,1,.008,.009963,.011874,.011874,.009963,0.0*
1,1,.008,.011874,.009963*
20,1,.008,.011874,.009963,.013423,.00775,0.0*
1,1,.008,.013423,.00775*
20,1,.008,.013423,.00775,.014565,.005301,0.0*
1,1,.008,.014565,.005301*
20,1,.008,.014565,.005301,.015265,.002692,0.0*
1,1,.008,.015265,.002692*
20,1,.008,.015265,.002692,.0155,0.0,0.0*
1,1,.008,.0155,0.0*
1,1,.008,-.006459,-.00775*
20,1,.008,-.006459,-.00775,0.0,.00775,0.0*
1,1,.008,0.0,.00775*
20,1,.008,0.0,.00775,.006459,-.00775,0.0*
1,1,.008,.006459,-.00775*
1,1,.008,.004133,-.002325*
20,1,.008,.004133,-.002325,-.004134,-.002325,0.0*
1,1,.008,-.004134,-.002325*
%
%ADD20MACRO20*%
%AMMACRO21*
1,1,.008,.025,0.0*
20,1,.008,.025,0.0,.02462,-.004341,0.0*
1,1,.008,.02462,-.004341*
20,1,.008,.02462,-.004341,.023492,-.008551,0.0*
1,1,.008,.023492,-.008551*
20,1,.008,.023492,-.008551,.021651,-.0125,0.0*
1,1,.008,.021651,-.0125*
20,1,.008,.021651,-.0125,.019151,-.01607,0.0*
1,1,.008,.019151,-.01607*
20,1,.008,.019151,-.01607,.01607,-.019151,0.0*
1,1,.008,.01607,-.019151*
20,1,.008,.01607,-.019151,.0125,-.021651,0.0*
1,1,.008,.0125,-.021651*
20,1,.008,.0125,-.021651,.008551,-.023492,0.0*
1,1,.008,.008551,-.023492*
20,1,.008,.008551,-.023492,.004341,-.02462,0.0*
1,1,.008,.004341,-.02462*
20,1,.008,.004341,-.02462,0.0,-.025,0.0*
1,1,.008,0.0,-.025*
20,1,.008,0.0,-.025,-.004341,-.02462,0.0*
1,1,.008,-.004341,-.02462*
20,1,.008,-.004341,-.02462,-.008551,-.023492,0.0*
1,1,.008,-.008551,-.023492*
20,1,.008,-.008551,-.023492,-.0125,-.021651,0.0*
1,1,.008,-.0125,-.021651*
20,1,.008,-.0125,-.021651,-.01607,-.019151,0.0*
1,1,.008,-.01607,-.019151*
20,1,.008,-.01607,-.019151,-.019151,-.01607,0.0*
1,1,.008,-.019151,-.01607*
20,1,.008,-.019151,-.01607,-.021651,-.0125,0.0*
1,1,.008,-.021651,-.0125*
20,1,.008,-.021651,-.0125,-.023492,-.008551,0.0*
1,1,.008,-.023492,-.008551*
20,1,.008,-.023492,-.008551,-.02462,-.004341,0.0*
1,1,.008,-.02462,-.004341*
20,1,.008,-.02462,-.004341,-.025,0.0,0.0*
1,1,.008,-.025,0.0*
20,1,.008,-.025,0.0,-.02462,.004341,0.0*
1,1,.008,-.02462,.004341*
20,1,.008,-.02462,.004341,-.023492,.008551,0.0*
1,1,.008,-.023492,.008551*
20,1,.008,-.023492,.008551,-.021651,.0125,0.0*
1,1,.008,-.021651,.0125*
20,1,.008,-.021651,.0125,-.019151,.01607,0.0*
1,1,.008,-.019151,.01607*
20,1,.008,-.019151,.01607,-.01607,.019151,0.0*
1,1,.008,-.01607,.019151*
20,1,.008,-.01607,.019151,-.0125,.021651,0.0*
1,1,.008,-.0125,.021651*
20,1,.008,-.0125,.021651,-.008551,.023492,0.0*
1,1,.008,-.008551,.023492*
20,1,.008,-.008551,.023492,-.004341,.02462,0.0*
1,1,.008,-.004341,.02462*
20,1,.008,-.004341,.02462,0.0,.025,0.0*
1,1,.008,0.0,.025*
20,1,.008,0.0,.025,.004341,.02462,0.0*
1,1,.008,.004341,.02462*
20,1,.008,.004341,.02462,.008551,.023492,0.0*
1,1,.008,.008551,.023492*
20,1,.008,.008551,.023492,.0125,.021651,0.0*
1,1,.008,.0125,.021651*
20,1,.008,.0125,.021651,.01607,.019151,0.0*
1,1,.008,.01607,.019151*
20,1,.008,.01607,.019151,.019151,.01607,0.0*
1,1,.008,.019151,.01607*
20,1,.008,.019151,.01607,.021651,.0125,0.0*
1,1,.008,.021651,.0125*
20,1,.008,.021651,.0125,.023492,.008551,0.0*
1,1,.008,.023492,.008551*
20,1,.008,.023492,.008551,.02462,.004341,0.0*
1,1,.008,.02462,.004341*
20,1,.008,.02462,.004341,.025,0.0,0.0*
1,1,.008,.025,0.0*
1,1,.008,.009167,.010416*
20,1,.008,.009167,.010416,.006666,.011667,0.0*
1,1,.008,.006666,.011667*
20,1,.008,.006666,.011667,.00375,.0125,0.0*
1,1,.008,.00375,.0125*
20,1,.008,.00375,.0125,.000417,.0125,0.0*
1,1,.008,.000417,.0125*
20,1,.008,.000417,.0125,-.003334,.01125,0.0*
1,1,.008,-.003334,.01125*
20,1,.008,-.003334,.01125,-.00625,.009167,0.0*
1,1,.008,-.00625,.009167*
20,1,.008,-.00625,.009167,-.008333,.006666,0.0*
1,1,.008,-.008333,.006666*
20,1,.008,-.008333,.006666,-.010001,.0025,0.0*
1,1,.008,-.010001,.0025*
20,1,.008,-.010001,.0025,-.010417,-.00125,0.0*
1,1,.008,-.010417,-.00125*
20,1,.008,-.010417,-.00125,-.009583,-.005,0.0*
1,1,.008,-.009583,-.005*
20,1,.008,-.009583,-.005,-.008333,-.0075,0.0*
1,1,.008,-.008333,-.0075*
20,1,.008,-.008333,-.0075,-.005833,-.010001,0.0*
1,1,.008,-.005833,-.010001*
20,1,.008,-.005833,-.010001,-.002916,-.011667,0.0*
1,1,.008,-.002916,-.011667*
20,1,.008,-.002916,-.011667,0.0,-.0125,0.0*
1,1,.008,0.0,-.0125*
20,1,.008,0.0,-.0125,.002916,-.0125,0.0*
1,1,.008,.002916,-.0125*
20,1,.008,.002916,-.0125,.005833,-.011667,0.0*
1,1,.008,.005833,-.011667*
20,1,.008,.005833,-.011667,.008333,-.010417,0.0*
1,1,.008,.008333,-.010417*
20,1,.008,.008333,-.010417,.010417,-.008751,0.0*
1,1,.008,.010417,-.008751*
%
%ADD21MACRO21*%
%AMMACRO14*
1,1,.008,.019685,0.0*
20,1,.008,.019685,0.0,-.019685,0.0,0.0*
1,1,.008,-.019685,0.0*
1,1,.008,0.0,.019685*
20,1,.008,0.0,.019685,0.0,-.019685,0.0*
1,1,.008,0.0,-.019685*
%
%ADD14MACRO14*%
%AMMACRO29*
1,1,.008,-.017334,-.02*
20,1,.008,-.017334,-.02,-.017334,.02,0.0*
1,1,.008,-.017334,.02*
20,1,.008,-.017334,.02,-.000001,-.013334,0.0*
1,1,.008,-.000001,-.013334*
20,1,.008,-.000001,-.013334,.017334,.02,0.0*
1,1,.008,.017334,.02*
20,1,.008,.017334,.02,.017334,-.02,0.0*
1,1,.008,.017334,-.02*
%
%ADD29MACRO29*%
%AMMACRO18*
1,1,.008,-.0925,.055*
20,1,.008,-.0925,.055,.0925,.055,0.0*
1,1,.008,.0925,.055*
20,1,.008,.0925,.055,.102051,.054164,0.0*
1,1,.008,.102051,.054164*
20,1,.008,.102051,.054164,.111311,.051683,0.0*
1,1,.008,.111311,.051683*
20,1,.008,.111311,.051683,.12,.047631,0.0*
1,1,.008,.12,.047631*
20,1,.008,.12,.047631,.127853,.042132,0.0*
1,1,.008,.127853,.042132*
20,1,.008,.127853,.042132,.134632,.035353,0.0*
1,1,.008,.134632,.035353*
20,1,.008,.134632,.035353,.140131,.0275,0.0*
1,1,.008,.140131,.0275*
20,1,.008,.140131,.0275,.144183,.018811,0.0*
1,1,.008,.144183,.018811*
20,1,.008,.144183,.018811,.146664,.009551,0.0*
1,1,.008,.146664,.009551*
20,1,.008,.146664,.009551,.1475,0.0,0.0*
1,1,.008,.1475,0.0*
20,1,.008,.1475,0.0,.146664,-.009551,0.0*
1,1,.008,.146664,-.009551*
20,1,.008,.146664,-.009551,.144183,-.018811,0.0*
1,1,.008,.144183,-.018811*
20,1,.008,.144183,-.018811,.140131,-.0275,0.0*
1,1,.008,.140131,-.0275*
20,1,.008,.140131,-.0275,.134632,-.035353,0.0*
1,1,.008,.134632,-.035353*
20,1,.008,.134632,-.035353,.127853,-.042132,0.0*
1,1,.008,.127853,-.042132*
20,1,.008,.127853,-.042132,.12,-.047631,0.0*
1,1,.008,.12,-.047631*
20,1,.008,.12,-.047631,.111311,-.051683,0.0*
1,1,.008,.111311,-.051683*
20,1,.008,.111311,-.051683,.102051,-.054164,0.0*
1,1,.008,.102051,-.054164*
20,1,.008,.102051,-.054164,.0925,-.055,0.0*
1,1,.008,.0925,-.055*
20,1,.008,.0925,-.055,-.0925,-.055,0.0*
1,1,.008,-.0925,-.055*
20,1,.008,-.0925,-.055,-.102051,-.054164,0.0*
1,1,.008,-.102051,-.054164*
20,1,.008,-.102051,-.054164,-.111311,-.051683,0.0*
1,1,.008,-.111311,-.051683*
20,1,.008,-.111311,-.051683,-.12,-.047631,0.0*
1,1,.008,-.12,-.047631*
20,1,.008,-.12,-.047631,-.127853,-.042132,0.0*
1,1,.008,-.127853,-.042132*
20,1,.008,-.127853,-.042132,-.134632,-.035353,0.0*
1,1,.008,-.134632,-.035353*
20,1,.008,-.134632,-.035353,-.140131,-.0275,0.0*
1,1,.008,-.140131,-.0275*
20,1,.008,-.140131,-.0275,-.144183,-.018811,0.0*
1,1,.008,-.144183,-.018811*
20,1,.008,-.144183,-.018811,-.146664,-.009551,0.0*
1,1,.008,-.146664,-.009551*
20,1,.008,-.146664,-.009551,-.1475,0.0,0.0*
1,1,.008,-.1475,0.0*
20,1,.008,-.1475,0.0,-.146664,.009551,0.0*
1,1,.008,-.146664,.009551*
20,1,.008,-.146664,.009551,-.144183,.018811,0.0*
1,1,.008,-.144183,.018811*
20,1,.008,-.144183,.018811,-.140131,.0275,0.0*
1,1,.008,-.140131,.0275*
20,1,.008,-.140131,.0275,-.134632,.035353,0.0*
1,1,.008,-.134632,.035353*
20,1,.008,-.134632,.035353,-.127853,.042132,0.0*
1,1,.008,-.127853,.042132*
20,1,.008,-.127853,.042132,-.12,.047631,0.0*
1,1,.008,-.12,.047631*
20,1,.008,-.12,.047631,-.111311,.051683,0.0*
1,1,.008,-.111311,.051683*
20,1,.008,-.111311,.051683,-.102051,.054164,0.0*
1,1,.008,-.102051,.054164*
20,1,.008,-.102051,.054164,-.0925,.055,0.0*
1,1,.008,-.0925,.055*
%
%ADD18MACRO18*%
%AMMACRO23*
1,1,.008,.025,0.0*
20,1,.008,.025,0.0,.0125,.021651,0.0*
1,1,.008,.0125,.021651*
20,1,.008,.0125,.021651,-.0125,.021651,0.0*
1,1,.008,-.0125,.021651*
20,1,.008,-.0125,.021651,-.025,0.0,0.0*
1,1,.008,-.025,0.0*
20,1,.008,-.025,0.0,-.0125,-.021651,0.0*
1,1,.008,-.0125,-.021651*
20,1,.008,-.0125,-.021651,.0125,-.021651,0.0*
1,1,.008,.0125,-.021651*
20,1,.008,.0125,-.021651,.025,0.0,0.0*
1,1,.008,.025,0.0*
%
%ADD23MACRO23*%
%AMMACRO16*
1,1,.008,-.02,.0125*
20,1,.008,-.02,.0125,-.019696,.015973,0.0*
1,1,.008,-.019696,.015973*
20,1,.008,-.019696,.015973,-.018794,.01934,0.0*
1,1,.008,-.018794,.01934*
20,1,.008,-.018794,.01934,-.017321,.0225,0.0*
1,1,.008,-.017321,.0225*
20,1,.008,-.017321,.0225,-.015321,.025356,0.0*
1,1,.008,-.015321,.025356*
20,1,.008,-.015321,.025356,-.012856,.027821,0.0*
1,1,.008,-.012856,.027821*
20,1,.008,-.012856,.027821,-.01,.029821,0.0*
1,1,.008,-.01,.029821*
20,1,.008,-.01,.029821,-.00684,.031294,0.0*
1,1,.008,-.00684,.031294*
20,1,.008,-.00684,.031294,-.003473,.032196,0.0*
1,1,.008,-.003473,.032196*
20,1,.008,-.003473,.032196,0.0,.0325,0.0*
1,1,.008,0.0,.0325*
20,1,.008,0.0,.0325,.003473,.032196,0.0*
1,1,.008,.003473,.032196*
20,1,.008,.003473,.032196,.00684,.031294,0.0*
1,1,.008,.00684,.031294*
20,1,.008,.00684,.031294,.01,.029821,0.0*
1,1,.008,.01,.029821*
20,1,.008,.01,.029821,.012856,.027821,0.0*
1,1,.008,.012856,.027821*
20,1,.008,.012856,.027821,.015321,.025356,0.0*
1,1,.008,.015321,.025356*
20,1,.008,.015321,.025356,.017321,.0225,0.0*
1,1,.008,.017321,.0225*
20,1,.008,.017321,.0225,.018794,.01934,0.0*
1,1,.008,.018794,.01934*
20,1,.008,.018794,.01934,.019696,.015973,0.0*
1,1,.008,.019696,.015973*
20,1,.008,.019696,.015973,.02,.0125,0.0*
1,1,.008,.02,.0125*
20,1,.008,.02,.0125,.02,-.0125,0.0*
1,1,.008,.02,-.0125*
20,1,.008,.02,-.0125,.019696,-.015973,0.0*
1,1,.008,.019696,-.015973*
20,1,.008,.019696,-.015973,.018794,-.01934,0.0*
1,1,.008,.018794,-.01934*
20,1,.008,.018794,-.01934,.017321,-.0225,0.0*
1,1,.008,.017321,-.0225*
20,1,.008,.017321,-.0225,.015321,-.025356,0.0*
1,1,.008,.015321,-.025356*
20,1,.008,.015321,-.025356,.012856,-.027821,0.0*
1,1,.008,.012856,-.027821*
20,1,.008,.012856,-.027821,.01,-.029821,0.0*
1,1,.008,.01,-.029821*
20,1,.008,.01,-.029821,.00684,-.031294,0.0*
1,1,.008,.00684,-.031294*
20,1,.008,.00684,-.031294,.003473,-.032196,0.0*
1,1,.008,.003473,-.032196*
20,1,.008,.003473,-.032196,0.0,-.0325,0.0*
1,1,.008,0.0,-.0325*
20,1,.008,0.0,-.0325,-.003473,-.032196,0.0*
1,1,.008,-.003473,-.032196*
20,1,.008,-.003473,-.032196,-.00684,-.031294,0.0*
1,1,.008,-.00684,-.031294*
20,1,.008,-.00684,-.031294,-.01,-.029821,0.0*
1,1,.008,-.01,-.029821*
20,1,.008,-.01,-.029821,-.012856,-.027821,0.0*
1,1,.008,-.012856,-.027821*
20,1,.008,-.012856,-.027821,-.015321,-.025356,0.0*
1,1,.008,-.015321,-.025356*
20,1,.008,-.015321,-.025356,-.017321,-.0225,0.0*
1,1,.008,-.017321,-.0225*
20,1,.008,-.017321,-.0225,-.018794,-.01934,0.0*
1,1,.008,-.018794,-.01934*
20,1,.008,-.018794,-.01934,-.019696,-.015973,0.0*
1,1,.008,-.019696,-.015973*
20,1,.008,-.019696,-.015973,-.02,-.0125,0.0*
1,1,.008,-.02,-.0125*
20,1,.008,-.02,-.0125,-.02,.0125,0.0*
1,1,.008,-.02,.0125*
%
%ADD16MACRO16*%
%AMMACRO19*
1,1,.008,.021654,0.0*
20,1,.008,.021654,0.0,0.0,-.021654,0.0*
1,1,.008,0.0,-.021654*
20,1,.008,0.0,-.021654,-.021654,0.0,0.0*
1,1,.008,-.021654,0.0*
20,1,.008,-.021654,0.0,0.0,.021654,0.0*
1,1,.008,0.0,.021654*
20,1,.008,0.0,.021654,.021654,0.0,0.0*
1,1,.008,.021654,0.0*
1,1,.008,-.009022,-.010826*
20,1,.008,-.009022,-.010826,0.0,.010827,0.0*
1,1,.008,0.0,.010827*
20,1,.008,0.0,.010827,.009023,-.010826,0.0*
1,1,.008,.009023,-.010826*
1,1,.008,.005774,-.003248*
20,1,.008,.005774,-.003248,-.005774,-.003248,0.0*
1,1,.008,-.005774,-.003248*
%
%ADD19MACRO19*%
%AMMACRO17*
1,1,.008,.02,0.0*
20,1,.008,.02,0.0,.019696,-.003473,0.0*
1,1,.008,.019696,-.003473*
20,1,.008,.019696,-.003473,.018794,-.00684,0.0*
1,1,.008,.018794,-.00684*
20,1,.008,.018794,-.00684,.017321,-.01,0.0*
1,1,.008,.017321,-.01*
20,1,.008,.017321,-.01,.015321,-.012856,0.0*
1,1,.008,.015321,-.012856*
20,1,.008,.015321,-.012856,.012856,-.015321,0.0*
1,1,.008,.012856,-.015321*
20,1,.008,.012856,-.015321,.01,-.017321,0.0*
1,1,.008,.01,-.017321*
20,1,.008,.01,-.017321,.00684,-.018794,0.0*
1,1,.008,.00684,-.018794*
20,1,.008,.00684,-.018794,.003473,-.019696,0.0*
1,1,.008,.003473,-.019696*
20,1,.008,.003473,-.019696,0.0,-.02,0.0*
1,1,.008,0.0,-.02*
20,1,.008,0.0,-.02,-.003473,-.019696,0.0*
1,1,.008,-.003473,-.019696*
20,1,.008,-.003473,-.019696,-.00684,-.018794,0.0*
1,1,.008,-.00684,-.018794*
20,1,.008,-.00684,-.018794,-.01,-.017321,0.0*
1,1,.008,-.01,-.017321*
20,1,.008,-.01,-.017321,-.012856,-.015321,0.0*
1,1,.008,-.012856,-.015321*
20,1,.008,-.012856,-.015321,-.015321,-.012856,0.0*
1,1,.008,-.015321,-.012856*
20,1,.008,-.015321,-.012856,-.017321,-.01,0.0*
1,1,.008,-.017321,-.01*
20,1,.008,-.017321,-.01,-.018794,-.00684,0.0*
1,1,.008,-.018794,-.00684*
20,1,.008,-.018794,-.00684,-.019696,-.003473,0.0*
1,1,.008,-.019696,-.003473*
20,1,.008,-.019696,-.003473,-.02,0.0,0.0*
1,1,.008,-.02,0.0*
20,1,.008,-.02,0.0,-.019696,.003473,0.0*
1,1,.008,-.019696,.003473*
20,1,.008,-.019696,.003473,-.018794,.00684,0.0*
1,1,.008,-.018794,.00684*
20,1,.008,-.018794,.00684,-.017321,.01,0.0*
1,1,.008,-.017321,.01*
20,1,.008,-.017321,.01,-.015321,.012856,0.0*
1,1,.008,-.015321,.012856*
20,1,.008,-.015321,.012856,-.012856,.015321,0.0*
1,1,.008,-.012856,.015321*
20,1,.008,-.012856,.015321,-.01,.017321,0.0*
1,1,.008,-.01,.017321*
20,1,.008,-.01,.017321,-.00684,.018794,0.0*
1,1,.008,-.00684,.018794*
20,1,.008,-.00684,.018794,-.003473,.019696,0.0*
1,1,.008,-.003473,.019696*
20,1,.008,-.003473,.019696,0.0,.02,0.0*
1,1,.008,0.0,.02*
20,1,.008,0.0,.02,.003473,.019696,0.0*
1,1,.008,.003473,.019696*
20,1,.008,.003473,.019696,.00684,.018794,0.0*
1,1,.008,.00684,.018794*
20,1,.008,.00684,.018794,.01,.017321,0.0*
1,1,.008,.01,.017321*
20,1,.008,.01,.017321,.012856,.015321,0.0*
1,1,.008,.012856,.015321*
20,1,.008,.012856,.015321,.015321,.012856,0.0*
1,1,.008,.015321,.012856*
20,1,.008,.015321,.012856,.017321,.01,0.0*
1,1,.008,.017321,.01*
20,1,.008,.017321,.01,.018794,.00684,0.0*
1,1,.008,.018794,.00684*
20,1,.008,.018794,.00684,.019696,.003473,0.0*
1,1,.008,.019696,.003473*
20,1,.008,.019696,.003473,.02,0.0,0.0*
1,1,.008,.02,0.0*
1,1,.008,-.0051,-.0085*
20,1,.008,-.0051,-.0085,-.0051,.0085,0.0*
1,1,.008,-.0051,.0085*
20,1,.008,-.0051,.0085,-.015584,-.003683,0.0*
1,1,.008,-.015584,-.003683*
20,1,.008,-.015584,-.003683,-.001416,-.003683,0.0*
1,1,.008,-.001416,-.003683*
1,1,.008,.008501,.0085*
20,1,.008,.008501,.0085,.006234,.007933,0.0*
1,1,.008,.006234,.007933*
20,1,.008,.006234,.007933,.004534,.006517,0.0*
1,1,.008,.004534,.006517*
20,1,.008,.004534,.006517,.003401,.004817,0.0*
1,1,.008,.003401,.004817*
20,1,.008,.003401,.004817,.002551,.00255,0.0*
1,1,.008,.002551,.00255*
20,1,.008,.002551,.00255,.002268,0.0,0.0*
1,1,.008,.002268,0.0*
20,1,.008,.002268,0.0,.002551,-.00255,0.0*
1,1,.008,.002551,-.00255*
20,1,.008,.002551,-.00255,.003401,-.004817,0.0*
1,1,.008,.003401,-.004817*
20,1,.008,.003401,-.004817,.004534,-.006517,0.0*
1,1,.008,.004534,-.006517*
20,1,.008,.004534,-.006517,.006234,-.007933,0.0*
1,1,.008,.006234,-.007933*
20,1,.008,.006234,-.007933,.008501,-.0085,0.0*
1,1,.008,.008501,-.0085*
20,1,.008,.008501,-.0085,.010767,-.007933,0.0*
1,1,.008,.010767,-.007933*
20,1,.008,.010767,-.007933,.012468,-.006517,0.0*
1,1,.008,.012468,-.006517*
20,1,.008,.012468,-.006517,.013601,-.004817,0.0*
1,1,.008,.013601,-.004817*
20,1,.008,.013601,-.004817,.014451,-.00255,0.0*
1,1,.008,.014451,-.00255*
20,1,.008,.014451,-.00255,.014734,0.0,0.0*
1,1,.008,.014734,0.0*
20,1,.008,.014734,0.0,.014451,.00255,0.0*
1,1,.008,.014451,.00255*
20,1,.008,.014451,.00255,.013601,.004817,0.0*
1,1,.008,.013601,.004817*
20,1,.008,.013601,.004817,.012468,.006517,0.0*
1,1,.008,.012468,.006517*
20,1,.008,.012468,.006517,.010767,.007933,0.0*
1,1,.008,.010767,.007933*
20,1,.008,.010767,.007933,.008501,.0085,0.0*
1,1,.008,.008501,.0085*
%
%ADD17MACRO17*%
%AMMACRO28*
1,1,.008,.029,0.0*
20,1,.008,.029,0.0,.028559,-.005036,0.0*
1,1,.008,.028559,-.005036*
20,1,.008,.028559,-.005036,.027251,-.009919,0.0*
1,1,.008,.027251,-.009919*
20,1,.008,.027251,-.009919,.025115,-.0145,0.0*
1,1,.008,.025115,-.0145*
20,1,.008,.025115,-.0145,.022215,-.018641,0.0*
1,1,.008,.022215,-.018641*
20,1,.008,.022215,-.018641,.018641,-.022215,0.0*
1,1,.008,.018641,-.022215*
20,1,.008,.018641,-.022215,.0145,-.025115,0.0*
1,1,.008,.0145,-.025115*
20,1,.008,.0145,-.025115,.009919,-.027251,0.0*
1,1,.008,.009919,-.027251*
20,1,.008,.009919,-.027251,.005036,-.028559,0.0*
1,1,.008,.005036,-.028559*
20,1,.008,.005036,-.028559,0.0,-.029,0.0*
1,1,.008,0.0,-.029*
20,1,.008,0.0,-.029,-.005036,-.028559,0.0*
1,1,.008,-.005036,-.028559*
20,1,.008,-.005036,-.028559,-.009919,-.027251,0.0*
1,1,.008,-.009919,-.027251*
20,1,.008,-.009919,-.027251,-.0145,-.025115,0.0*
1,1,.008,-.0145,-.025115*
20,1,.008,-.0145,-.025115,-.018641,-.022215,0.0*
1,1,.008,-.018641,-.022215*
20,1,.008,-.018641,-.022215,-.022215,-.018641,0.0*
1,1,.008,-.022215,-.018641*
20,1,.008,-.022215,-.018641,-.025115,-.0145,0.0*
1,1,.008,-.025115,-.0145*
20,1,.008,-.025115,-.0145,-.027251,-.009919,0.0*
1,1,.008,-.027251,-.009919*
20,1,.008,-.027251,-.009919,-.028559,-.005036,0.0*
1,1,.008,-.028559,-.005036*
20,1,.008,-.028559,-.005036,-.029,0.0,0.0*
1,1,.008,-.029,0.0*
20,1,.008,-.029,0.0,-.028559,.005036,0.0*
1,1,.008,-.028559,.005036*
20,1,.008,-.028559,.005036,-.027251,.009919,0.0*
1,1,.008,-.027251,.009919*
20,1,.008,-.027251,.009919,-.025115,.0145,0.0*
1,1,.008,-.025115,.0145*
20,1,.008,-.025115,.0145,-.022215,.018641,0.0*
1,1,.008,-.022215,.018641*
20,1,.008,-.022215,.018641,-.018641,.022215,0.0*
1,1,.008,-.018641,.022215*
20,1,.008,-.018641,.022215,-.0145,.025115,0.0*
1,1,.008,-.0145,.025115*
20,1,.008,-.0145,.025115,-.009919,.027251,0.0*
1,1,.008,-.009919,.027251*
20,1,.008,-.009919,.027251,-.005036,.028559,0.0*
1,1,.008,-.005036,.028559*
20,1,.008,-.005036,.028559,0.0,.029,0.0*
1,1,.008,0.0,.029*
20,1,.008,0.0,.029,.005036,.028559,0.0*
1,1,.008,.005036,.028559*
20,1,.008,.005036,.028559,.009919,.027251,0.0*
1,1,.008,.009919,.027251*
20,1,.008,.009919,.027251,.0145,.025115,0.0*
1,1,.008,.0145,.025115*
20,1,.008,.0145,.025115,.018641,.022215,0.0*
1,1,.008,.018641,.022215*
20,1,.008,.018641,.022215,.022215,.018641,0.0*
1,1,.008,.022215,.018641*
20,1,.008,.022215,.018641,.025115,.0145,0.0*
1,1,.008,.025115,.0145*
20,1,.008,.025115,.0145,.027251,.009919,0.0*
1,1,.008,.027251,.009919*
20,1,.008,.027251,.009919,.028559,.005036,0.0*
1,1,.008,.028559,.005036*
20,1,.008,.028559,.005036,.029,0.0,0.0*
1,1,.008,.029,0.0*
1,1,.008,-.021363,-.008628*
20,1,.008,-.021363,-.008628,-.018899,-.010682,0.0*
1,1,.008,-.018899,-.010682*
20,1,.008,-.018899,-.010682,-.016023,-.011914,0.0*
1,1,.008,-.016023,-.011914*
20,1,.008,-.016023,-.011914,-.012325,-.012325,0.0*
1,1,.008,-.012325,-.012325*
20,1,.008,-.012325,-.012325,-.008627,-.011504,0.0*
1,1,.008,-.008627,-.011504*
20,1,.008,-.008627,-.011504,-.005752,-.009861,0.0*
1,1,.008,-.005752,-.009861*
20,1,.008,-.005752,-.009861,-.003697,-.006985,0.0*
1,1,.008,-.003697,-.006985*
20,1,.008,-.003697,-.006985,-.003287,-.003698,0.0*
1,1,.008,-.003287,-.003698*
20,1,.008,-.003287,-.003698,-.004108,-.000411,0.0*
1,1,.008,-.004108,-.000411*
20,1,.008,-.004108,-.000411,-.006163,.001643,0.0*
1,1,.008,-.006163,.001643*
20,1,.008,-.006163,.001643,-.009039,.003286,0.0*
1,1,.008,-.009039,.003286*
20,1,.008,-.009039,.003286,-.011914,.003697,0.0*
1,1,.008,-.011914,.003697*
20,1,.008,-.011914,.003697,-.01479,.003286,0.0*
1,1,.008,-.01479,.003286*
20,1,.008,-.01479,.003286,-.018487,.001643,0.0*
1,1,.008,-.018487,.001643*
20,1,.008,-.018487,.001643,-.017255,.012325,0.0*
1,1,.008,-.017255,.012325*
20,1,.008,-.017255,.012325,-.006163,.012325,0.0*
1,1,.008,-.006163,.012325*
1,1,.008,.012326,-.012325*
20,1,.008,.012326,-.012325,.015202,-.011914,0.0*
1,1,.008,.015202,-.011914*
20,1,.008,.015202,-.011914,.018488,-.010682,0.0*
1,1,.008,.018488,-.010682*
20,1,.008,.018488,-.010682,.020543,-.008628,0.0*
1,1,.008,.020543,-.008628*
20,1,.008,.020543,-.008628,.021364,-.005752,0.0*
1,1,.008,.021364,-.005752*
20,1,.008,.021364,-.005752,.020543,-.002876,0.0*
1,1,.008,.020543,-.002876*
20,1,.008,.020543,-.002876,.018078,-.000411,0.0*
1,1,.008,.018078,-.000411*
20,1,.008,.018078,-.000411,.01438,.000822,0.0*
1,1,.008,.01438,.000822*
20,1,.008,.01438,.000822,.010272,.000822,0.0*
1,1,.008,.010272,.000822*
20,1,.008,.010272,.000822,.007807,.001643,0.0*
1,1,.008,.007807,.001643*
20,1,.008,.007807,.001643,.005752,.003697,0.0*
1,1,.008,.005752,.003697*
20,1,.008,.005752,.003697,.004931,.006573,0.0*
1,1,.008,.004931,.006573*
20,1,.008,.004931,.006573,.006164,.009449,0.0*
1,1,.008,.006164,.009449*
20,1,.008,.006164,.009449,.009039,.011504,0.0*
1,1,.008,.009039,.011504*
20,1,.008,.009039,.011504,.012326,.012325,0.0*
1,1,.008,.012326,.012325*
20,1,.008,.012326,.012325,.015612,.011504,0.0*
1,1,.008,.015612,.011504*
20,1,.008,.015612,.011504,.018488,.009449,0.0*
1,1,.008,.018488,.009449*
20,1,.008,.018488,.009449,.019721,.006573,0.0*
1,1,.008,.019721,.006573*
20,1,.008,.019721,.006573,.018899,.003697,0.0*
1,1,.008,.018899,.003697*
20,1,.008,.018899,.003697,.016845,.001643,0.0*
1,1,.008,.016845,.001643*
20,1,.008,.016845,.001643,.01438,.000822,0.0*
1,1,.008,.01438,.000822*
20,1,.008,.01438,.000822,.010272,.000822,0.0*
1,1,.008,.010272,.000822*
20,1,.008,.010272,.000822,.006574,-.000411,0.0*
1,1,.008,.006574,-.000411*
20,1,.008,.006574,-.000411,.004109,-.002876,0.0*
1,1,.008,.004109,-.002876*
20,1,.008,.004109,-.002876,.003288,-.005752,0.0*
1,1,.008,.003288,-.005752*
20,1,.008,.003288,-.005752,.004109,-.008628,0.0*
1,1,.008,.004109,-.008628*
20,1,.008,.004109,-.008628,.006164,-.010682,0.0*
1,1,.008,.006164,-.010682*
20,1,.008,.006164,-.010682,.00945,-.011914,0.0*
1,1,.008,.00945,-.011914*
20,1,.008,.00945,-.011914,.012326,-.012325,0.0*
1,1,.008,.012326,-.012325*
%
%ADD28MACRO28*%
%AMMACRO10*
1,1,.008,.105,0.0*
20,1,.008,.105,0.0,-.105,0.0,0.0*
1,1,.008,-.105,0.0*
1,1,.008,0.0,.105*
20,1,.008,0.0,.105,0.0,-.105,0.0*
1,1,.008,0.0,-.105*
%
%ADD10MACRO10*%
%ADD31C,.008*%
%ADD32C,.02*%
%ADD33C,.06*%
G75*
%LPD*%
G75*
G54D10*
X-585209Y-50100D03*
X-587009Y732400D03*
X-461809Y271800D03*
X-22409Y-49100D03*
X-22500Y698000D03*
X466791Y33500D03*
X754591Y-53400D03*
X760400Y733200D03*
X870750Y-4110D03*
G54D20*
X-344100Y241000D03*
Y253500D03*
X-343800Y279700D03*
Y267200D03*
X-343100Y529500D03*
Y517000D03*
X-330500Y-2100D03*
Y-14600D03*
X-331200Y11900D03*
Y24400D03*
X-342400Y488500D03*
Y501000D03*
X359391Y27100D03*
X349391D03*
X369391D03*
X870750Y633684D03*
G54D11*
X-577609Y23400D03*
Y142600D03*
X-577109Y337300D03*
X-577609Y558900D03*
X512891Y-42000D03*
X650891Y-42100D03*
X870750Y31324D03*
G54D21*
X-215009Y14062D03*
Y161700D03*
Y269562D03*
Y417200D03*
Y519062D03*
Y666700D03*
X870750Y350220D03*
G54D12*
X-590109Y10900D03*
Y35900D03*
Y130100D03*
Y155100D03*
X-589609Y324800D03*
Y349800D03*
X-590109Y546400D03*
Y571400D03*
X-565109Y10900D03*
Y35900D03*
Y130100D03*
Y155100D03*
X-564609Y324800D03*
Y349800D03*
X-565109Y546400D03*
Y571400D03*
X500391Y-54500D03*
Y-29500D03*
X525391Y-54500D03*
Y-29500D03*
X638391Y-54600D03*
Y-29600D03*
X663391Y-54600D03*
Y-29600D03*
X870750Y208489D03*
G54D30*
Y-110408D03*
G54D31*
G01X836805Y763950D02*
Y776450D01*
X842695D01*
G01X840525Y770408D02*
X836805D01*
G01X850290Y776450D02*
X854010D01*
G01X852150D02*
Y763950D01*
G01X850290D02*
X854010D01*
G01X865480Y770200D02*
X868580D01*
Y766450D01*
X867650Y765200D01*
X866565Y764367D01*
X865015Y763950D01*
X863465Y764367D01*
X862380Y765200D01*
X861450Y766450D01*
X860830Y767908D01*
X860520Y769575D01*
Y771033D01*
X860830Y772283D01*
X861450Y773742D01*
X862380Y774992D01*
X863310Y775825D01*
X864550Y776450D01*
X865635D01*
X866875Y776033D01*
X867805Y775200D01*
G01X873540Y776450D02*
Y767492D01*
X874160Y765616D01*
X875400Y764367D01*
X876950Y763950D01*
X878500Y764367D01*
X879740Y765616D01*
X880360Y767492D01*
Y776450D01*
G01X886250Y763950D02*
Y776450D01*
X890125D01*
X891365Y775825D01*
X892140Y774992D01*
X892450Y773325D01*
X892140Y771658D01*
X891210Y770617D01*
X890125Y769992D01*
X886250D01*
G01X890125D02*
X892450Y763950D01*
G01X904850D02*
X898650D01*
Y776450D01*
X904850D01*
G01X902370Y770408D02*
X898650D01*
G01X951505Y-70809D02*
X952435Y-69559D01*
X953520Y-68934D01*
X954760Y-68726D01*
X956310Y-69142D01*
X957395Y-70184D01*
X957705Y-71434D01*
X957550Y-72684D01*
X956930Y-73726D01*
X953830Y-75809D01*
X952435Y-77267D01*
X951505Y-79351D01*
X951195Y-81226D01*
X957705D01*
G01X964215Y-79768D02*
X965300Y-80809D01*
X966540Y-81226D01*
X967780Y-80809D01*
X968865Y-79559D01*
X969640Y-77684D01*
X969950Y-75809D01*
Y-73517D01*
X969640Y-71642D01*
X968865Y-69976D01*
X967935Y-69142D01*
X966850Y-68726D01*
X965610Y-69142D01*
X964680Y-69976D01*
X964060Y-71225D01*
X963750Y-72892D01*
X964060Y-74350D01*
X964835Y-75809D01*
X965765Y-76642D01*
X966850Y-76851D01*
X968090Y-76434D01*
X969020Y-75392D01*
X969950Y-73517D01*
G01X975840Y-79351D02*
X976770Y-80392D01*
X977855Y-81017D01*
X979250Y-81226D01*
X980645Y-80809D01*
X981730Y-79976D01*
X982505Y-78517D01*
X982660Y-76851D01*
X982350Y-75184D01*
X981575Y-74142D01*
X980490Y-73309D01*
X979405Y-73101D01*
X978320Y-73309D01*
X976925Y-74142D01*
X977390Y-68726D01*
X981575D01*
G01X991650Y-81642D02*
X991340Y-81434D01*
Y-81017D01*
X991650Y-80809D01*
X991960Y-81017D01*
Y-81434D01*
X991650Y-81642D01*
G01X1004050Y-68726D02*
X1002810Y-69142D01*
X1001880Y-70184D01*
X1001260Y-71434D01*
X1000795Y-73101D01*
X1000640Y-74976D01*
X1000795Y-76851D01*
X1001260Y-78517D01*
X1001880Y-79768D01*
X1002810Y-80809D01*
X1004050Y-81226D01*
X1005290Y-80809D01*
X1006220Y-79768D01*
X1006840Y-78517D01*
X1007305Y-76851D01*
X1007460Y-74976D01*
X1007305Y-73101D01*
X1006840Y-71434D01*
X1006220Y-70184D01*
X1005290Y-69142D01*
X1004050Y-68726D01*
G01X1014125Y-72892D02*
X1018775Y-81226D01*
G01Y-72892D02*
X1014125Y-81226D01*
G01X1028850D02*
Y-68726D01*
X1026990Y-71225D01*
G01Y-81226D02*
X1030710D01*
G01X1041250D02*
Y-68726D01*
X1039390Y-71225D01*
G01Y-81226D02*
X1043110D01*
G01X1053650Y-68726D02*
X1052410Y-69142D01*
X1051480Y-70184D01*
X1050860Y-71434D01*
X1050395Y-73101D01*
X1050240Y-74976D01*
X1050395Y-76851D01*
X1050860Y-78517D01*
X1051480Y-79768D01*
X1052410Y-80809D01*
X1053650Y-81226D01*
X1054890Y-80809D01*
X1055820Y-79768D01*
X1056440Y-78517D01*
X1056905Y-76851D01*
X1057060Y-74976D01*
X1056905Y-73101D01*
X1056440Y-71434D01*
X1055820Y-70184D01*
X1054890Y-69142D01*
X1053650Y-68726D01*
G01X1066050Y-81642D02*
X1065740Y-81434D01*
Y-81017D01*
X1066050Y-80809D01*
X1066360Y-81017D01*
Y-81434D01*
X1066050Y-81642D01*
G01X1078450Y-68726D02*
X1077210Y-69142D01*
X1076280Y-70184D01*
X1075660Y-71434D01*
X1075195Y-73101D01*
X1075040Y-74976D01*
X1075195Y-76851D01*
X1075660Y-78517D01*
X1076280Y-79768D01*
X1077210Y-80809D01*
X1078450Y-81226D01*
X1079690Y-80809D01*
X1080620Y-79768D01*
X1081240Y-78517D01*
X1081705Y-76851D01*
X1081860Y-74976D01*
X1081705Y-73101D01*
X1081240Y-71434D01*
X1080620Y-70184D01*
X1079690Y-69142D01*
X1078450Y-68726D01*
G01X939105Y-35376D02*
X940035Y-34126D01*
X941120Y-33501D01*
X942360Y-33292D01*
X943910Y-33709D01*
X944995Y-34751D01*
X945305Y-36001D01*
X945150Y-37251D01*
X944530Y-38293D01*
X941430Y-40376D01*
X940035Y-41834D01*
X939105Y-43918D01*
X938795Y-45792D01*
X945305D01*
G01X951040Y-43293D02*
X951970Y-44751D01*
X953210Y-45584D01*
X954605Y-45792D01*
X955845Y-45584D01*
X957085Y-44543D01*
X957860Y-43293D01*
X958015Y-42042D01*
X957705Y-40584D01*
X956620Y-39543D01*
X955535Y-39126D01*
X954140D01*
G01X955535D02*
X956465Y-38501D01*
X957240Y-37459D01*
X957550Y-36209D01*
X957240Y-34959D01*
X956465Y-33918D01*
X955070Y-33292D01*
X953675Y-33501D01*
X952280Y-34334D01*
G01X963905Y-40584D02*
X964990Y-39126D01*
X965920Y-38293D01*
X967160Y-37876D01*
X968245Y-38293D01*
X969020Y-39126D01*
X969640Y-40376D01*
X969795Y-41834D01*
X969640Y-43084D01*
X969020Y-44335D01*
X968090Y-45376D01*
X967005Y-45792D01*
X965765Y-45376D01*
X964680Y-44126D01*
X964060Y-42251D01*
X963905Y-40168D01*
X964215Y-37459D01*
X964680Y-36001D01*
X965455Y-34543D01*
X966540Y-33501D01*
X967625Y-33292D01*
X968710Y-33709D01*
X969485Y-34751D01*
G01X979250Y-46209D02*
X978940Y-46001D01*
Y-45584D01*
X979250Y-45376D01*
X979560Y-45584D01*
Y-46001D01*
X979250Y-46209D01*
G01X988705Y-35376D02*
X989635Y-34126D01*
X990720Y-33501D01*
X991960Y-33292D01*
X993510Y-33709D01*
X994595Y-34751D01*
X994905Y-36001D01*
X994750Y-37251D01*
X994130Y-38293D01*
X991030Y-40376D01*
X989635Y-41834D01*
X988705Y-43918D01*
X988395Y-45792D01*
X994905D01*
G01X1001105Y-35376D02*
X1002035Y-34126D01*
X1003120Y-33501D01*
X1004360Y-33292D01*
X1005910Y-33709D01*
X1006995Y-34751D01*
X1007305Y-36001D01*
X1007150Y-37251D01*
X1006530Y-38293D01*
X1003430Y-40376D01*
X1002035Y-41834D01*
X1001105Y-43918D01*
X1000795Y-45792D01*
X1007305D01*
G01X1014125Y-37459D02*
X1018775Y-45792D01*
G01Y-37459D02*
X1014125Y-45792D01*
G01X1026215Y-44335D02*
X1027300Y-45376D01*
X1028540Y-45792D01*
X1029780Y-45376D01*
X1030865Y-44126D01*
X1031640Y-42251D01*
X1031950Y-40376D01*
Y-38084D01*
X1031640Y-36209D01*
X1030865Y-34543D01*
X1029935Y-33709D01*
X1028850Y-33292D01*
X1027610Y-33709D01*
X1026680Y-34543D01*
X1026060Y-35792D01*
X1025750Y-37459D01*
X1026060Y-38917D01*
X1026835Y-40376D01*
X1027765Y-41209D01*
X1028850Y-41418D01*
X1030090Y-41001D01*
X1031020Y-39959D01*
X1031950Y-38084D01*
G01X1041250Y-45792D02*
X1042335Y-45584D01*
X1043575Y-44959D01*
X1044350Y-43918D01*
X1044660Y-42459D01*
X1044350Y-41001D01*
X1043420Y-39751D01*
X1042025Y-39126D01*
X1040475D01*
X1039545Y-38709D01*
X1038770Y-37668D01*
X1038460Y-36209D01*
X1038925Y-34751D01*
X1040010Y-33709D01*
X1041250Y-33292D01*
X1042490Y-33709D01*
X1043575Y-34751D01*
X1044040Y-36209D01*
X1043730Y-37668D01*
X1042955Y-38709D01*
X1042025Y-39126D01*
X1040475D01*
X1039080Y-39751D01*
X1038150Y-41001D01*
X1037840Y-42459D01*
X1038150Y-43918D01*
X1038925Y-44959D01*
X1040165Y-45584D01*
X1041250Y-45792D01*
G01X1053650Y-46209D02*
X1053340Y-46001D01*
Y-45584D01*
X1053650Y-45376D01*
X1053960Y-45584D01*
Y-46001D01*
X1053650Y-46209D01*
G01X1067910Y-45792D02*
Y-33292D01*
X1062175Y-42251D01*
X1069925D01*
G01X1075505Y-35376D02*
X1076435Y-34126D01*
X1077520Y-33501D01*
X1078760Y-33292D01*
X1080310Y-33709D01*
X1081395Y-34751D01*
X1081705Y-36001D01*
X1081550Y-37251D01*
X1080930Y-38293D01*
X1077830Y-40376D01*
X1076435Y-41834D01*
X1075505Y-43918D01*
X1075195Y-45792D01*
X1081705D01*
G01X1087440Y-43918D02*
X1088370Y-44959D01*
X1089455Y-45584D01*
X1090850Y-45792D01*
X1092245Y-45376D01*
X1093330Y-44543D01*
X1094105Y-43084D01*
X1094260Y-41418D01*
X1093950Y-39751D01*
X1093175Y-38709D01*
X1092090Y-37876D01*
X1091005Y-37668D01*
X1089920Y-37876D01*
X1088525Y-38709D01*
X1088990Y-33292D01*
X1093175D01*
G01X939105Y763950D02*
Y776450D01*
X944995D01*
G01X942825Y770408D02*
X939105D01*
G01X952590Y776450D02*
X956310D01*
G01X954450D02*
Y763950D01*
G01X952590D02*
X956310D01*
G01X963285D02*
Y776450D01*
X970415Y763950D01*
Y776450D01*
G01X977390D02*
X981110D01*
G01X979250D02*
Y763950D01*
G01X977390D02*
X981110D01*
G01X988395Y765616D02*
X989635Y764575D01*
X991030Y763950D01*
X992270D01*
X993510Y764575D01*
X994440Y765616D01*
X994905Y767075D01*
X994595Y768533D01*
X993820Y769783D01*
X992425Y770617D01*
X990565Y771033D01*
X989480Y771866D01*
X989015Y773325D01*
X989325Y774783D01*
X990100Y775825D01*
X991185Y776450D01*
X992270D01*
X993355Y776033D01*
X994285Y774992D01*
G01X1000795Y763950D02*
Y776450D01*
G01X1007305D02*
Y763950D01*
G01Y770200D02*
X1000795D01*
G01X1019550Y763950D02*
X1013350D01*
Y776450D01*
X1019550D01*
G01X1017070Y770408D02*
X1013350D01*
G01X1025440Y763950D02*
Y776450D01*
X1028540D01*
X1029780Y775825D01*
X1030710Y774992D01*
X1031485Y773742D01*
X1032105Y772283D01*
X1032260Y770200D01*
X1032105Y768116D01*
X1031485Y766658D01*
X1030710Y765408D01*
X1029780Y764575D01*
X1028540Y763950D01*
X1025440D01*
G01X1036600Y759784D02*
X1045900D01*
G01X1050395Y765616D02*
X1051635Y764575D01*
X1053030Y763950D01*
X1054270D01*
X1055510Y764575D01*
X1056440Y765616D01*
X1056905Y767075D01*
X1056595Y768533D01*
X1055820Y769783D01*
X1054425Y770617D01*
X1052565Y771033D01*
X1051480Y771866D01*
X1051015Y773325D01*
X1051325Y774783D01*
X1052100Y775825D01*
X1053185Y776450D01*
X1054270D01*
X1055355Y776033D01*
X1056285Y774992D01*
G01X1064190Y776450D02*
X1067910D01*
G01X1066050D02*
Y763950D01*
G01X1064190D02*
X1067910D01*
G01X1075505Y776450D02*
X1081395D01*
X1075505Y763950D01*
X1081395D01*
G01X1093950D02*
X1087750D01*
Y776450D01*
X1093950D01*
G01X1091470Y770408D02*
X1087750D01*
G01X966850Y-116658D02*
X967935Y-116450D01*
X969175Y-115825D01*
X969950Y-114784D01*
X970260Y-113325D01*
X969950Y-111867D01*
X969020Y-110617D01*
X967625Y-109992D01*
X966075D01*
X965145Y-109575D01*
X964370Y-108534D01*
X964060Y-107075D01*
X964525Y-105617D01*
X965610Y-104575D01*
X966850Y-104158D01*
X968090Y-104575D01*
X969175Y-105617D01*
X969640Y-107075D01*
X969330Y-108534D01*
X968555Y-109575D01*
X967625Y-109992D01*
X966075D01*
X964680Y-110617D01*
X963750Y-111867D01*
X963440Y-113325D01*
X963750Y-114784D01*
X964525Y-115825D01*
X965765Y-116450D01*
X966850Y-116658D01*
G01X979250Y-104158D02*
X978010Y-104575D01*
X977080Y-105617D01*
X976460Y-106867D01*
X975995Y-108534D01*
X975840Y-110409D01*
X975995Y-112284D01*
X976460Y-113950D01*
X977080Y-115201D01*
X978010Y-116242D01*
X979250Y-116658D01*
X980490Y-116242D01*
X981420Y-115201D01*
X982040Y-113950D01*
X982505Y-112284D01*
X982660Y-110409D01*
X982505Y-108534D01*
X982040Y-106867D01*
X981420Y-105617D01*
X980490Y-104575D01*
X979250Y-104158D01*
G01X991650Y-117075D02*
X991340Y-116867D01*
Y-116450D01*
X991650Y-116242D01*
X991960Y-116450D01*
Y-116867D01*
X991650Y-117075D01*
G01X1004050Y-104158D02*
X1002810Y-104575D01*
X1001880Y-105617D01*
X1001260Y-106867D01*
X1000795Y-108534D01*
X1000640Y-110409D01*
X1000795Y-112284D01*
X1001260Y-113950D01*
X1001880Y-115201D01*
X1002810Y-116242D01*
X1004050Y-116658D01*
X1005290Y-116242D01*
X1006220Y-115201D01*
X1006840Y-113950D01*
X1007305Y-112284D01*
X1007460Y-110409D01*
X1007305Y-108534D01*
X1006840Y-106867D01*
X1006220Y-105617D01*
X1005290Y-104575D01*
X1004050Y-104158D01*
G01X1014125Y-108325D02*
X1018775Y-116658D01*
G01Y-108325D02*
X1014125Y-116658D01*
G01X1025440Y-114159D02*
X1026370Y-115617D01*
X1027610Y-116450D01*
X1029005Y-116658D01*
X1030245Y-116450D01*
X1031485Y-115409D01*
X1032260Y-114159D01*
X1032415Y-112909D01*
X1032105Y-111451D01*
X1031020Y-110409D01*
X1029935Y-109992D01*
X1028540D01*
G01X1029935D02*
X1030865Y-109367D01*
X1031640Y-108325D01*
X1031950Y-107075D01*
X1031640Y-105825D01*
X1030865Y-104784D01*
X1029470Y-104158D01*
X1028075Y-104367D01*
X1026680Y-105200D01*
G01X1041250Y-104158D02*
X1040010Y-104575D01*
X1039080Y-105617D01*
X1038460Y-106867D01*
X1037995Y-108534D01*
X1037840Y-110409D01*
X1037995Y-112284D01*
X1038460Y-113950D01*
X1039080Y-115201D01*
X1040010Y-116242D01*
X1041250Y-116658D01*
X1042490Y-116242D01*
X1043420Y-115201D01*
X1044040Y-113950D01*
X1044505Y-112284D01*
X1044660Y-110409D01*
X1044505Y-108534D01*
X1044040Y-106867D01*
X1043420Y-105617D01*
X1042490Y-104575D01*
X1041250Y-104158D01*
G01X1053650Y-117075D02*
X1053340Y-116867D01*
Y-116450D01*
X1053650Y-116242D01*
X1053960Y-116450D01*
Y-116867D01*
X1053650Y-117075D01*
G01X1066050Y-104158D02*
X1064810Y-104575D01*
X1063880Y-105617D01*
X1063260Y-106867D01*
X1062795Y-108534D01*
X1062640Y-110409D01*
X1062795Y-112284D01*
X1063260Y-113950D01*
X1063880Y-115201D01*
X1064810Y-116242D01*
X1066050Y-116658D01*
X1067290Y-116242D01*
X1068220Y-115201D01*
X1068840Y-113950D01*
X1069305Y-112284D01*
X1069460Y-110409D01*
X1069305Y-108534D01*
X1068840Y-106867D01*
X1068220Y-105617D01*
X1067290Y-104575D01*
X1066050Y-104158D01*
G01X988705Y57D02*
X989635Y1307D01*
X990720Y1932D01*
X991960Y2140D01*
X993510Y1724D01*
X994595Y682D01*
X994905Y-568D01*
X994750Y-1818D01*
X994130Y-2860D01*
X991030Y-4943D01*
X989635Y-6401D01*
X988705Y-8485D01*
X988395Y-10360D01*
X994905D01*
G01X1004050D02*
Y2140D01*
X1002190Y-359D01*
G01Y-10360D02*
X1005910D01*
G01X1016450Y2140D02*
X1015210Y1724D01*
X1014280Y682D01*
X1013660Y-568D01*
X1013195Y-2235D01*
X1013040Y-4110D01*
X1013195Y-5985D01*
X1013660Y-7651D01*
X1014280Y-8902D01*
X1015210Y-9943D01*
X1016450Y-10360D01*
X1017690Y-9943D01*
X1018620Y-8902D01*
X1019240Y-7651D01*
X1019705Y-5985D01*
X1019860Y-4110D01*
X1019705Y-2235D01*
X1019240Y-568D01*
X1018620Y682D01*
X1017690Y1724D01*
X1016450Y2140D01*
G01X1028850Y-10776D02*
X1028540Y-10568D01*
Y-10151D01*
X1028850Y-9943D01*
X1029160Y-10151D01*
Y-10568D01*
X1028850Y-10776D01*
G01X1041250Y2140D02*
X1040010Y1724D01*
X1039080Y682D01*
X1038460Y-568D01*
X1037995Y-2235D01*
X1037840Y-4110D01*
X1037995Y-5985D01*
X1038460Y-7651D01*
X1039080Y-8902D01*
X1040010Y-9943D01*
X1041250Y-10360D01*
X1042490Y-9943D01*
X1043420Y-8902D01*
X1044040Y-7651D01*
X1044505Y-5985D01*
X1044660Y-4110D01*
X1044505Y-2235D01*
X1044040Y-568D01*
X1043420Y682D01*
X1042490Y1724D01*
X1041250Y2140D01*
G01X991650Y25074D02*
Y37574D01*
X989790Y35074D01*
G01Y25074D02*
X993510D01*
G01X1004050D02*
X1005135Y25282D01*
X1006375Y25907D01*
X1007150Y26948D01*
X1007460Y28407D01*
X1007150Y29865D01*
X1006220Y31115D01*
X1004825Y31740D01*
X1003275D01*
X1002345Y32157D01*
X1001570Y33198D01*
X1001260Y34657D01*
X1001725Y36115D01*
X1002810Y37157D01*
X1004050Y37574D01*
X1005290Y37157D01*
X1006375Y36115D01*
X1006840Y34657D01*
X1006530Y33198D01*
X1005755Y32157D01*
X1004825Y31740D01*
X1003275D01*
X1001880Y31115D01*
X1000950Y29865D01*
X1000640Y28407D01*
X1000950Y26948D01*
X1001725Y25907D01*
X1002965Y25282D01*
X1004050Y25074D01*
G01X1016450Y37574D02*
X1015210Y37157D01*
X1014280Y36115D01*
X1013660Y34865D01*
X1013195Y33198D01*
X1013040Y31323D01*
X1013195Y29448D01*
X1013660Y27782D01*
X1014280Y26532D01*
X1015210Y25490D01*
X1016450Y25074D01*
X1017690Y25490D01*
X1018620Y26532D01*
X1019240Y27782D01*
X1019705Y29448D01*
X1019860Y31323D01*
X1019705Y33198D01*
X1019240Y34865D01*
X1018620Y36115D01*
X1017690Y37157D01*
X1016450Y37574D01*
G01X1028850Y24657D02*
X1028540Y24865D01*
Y25282D01*
X1028850Y25490D01*
X1029160Y25282D01*
Y24865D01*
X1028850Y24657D01*
G01X1041250Y37574D02*
X1040010Y37157D01*
X1039080Y36115D01*
X1038460Y34865D01*
X1037995Y33198D01*
X1037840Y31323D01*
X1037995Y29448D01*
X1038460Y27782D01*
X1039080Y26532D01*
X1040010Y25490D01*
X1041250Y25074D01*
X1042490Y25490D01*
X1043420Y26532D01*
X1044040Y27782D01*
X1044505Y29448D01*
X1044660Y31323D01*
X1044505Y33198D01*
X1044040Y34865D01*
X1043420Y36115D01*
X1042490Y37157D01*
X1041250Y37574D01*
G01X991650Y60507D02*
Y73007D01*
X989790Y70507D01*
G01Y60507D02*
X993510D01*
G01X1004050Y73007D02*
X1002810Y72590D01*
X1001880Y71548D01*
X1001260Y70298D01*
X1000795Y68631D01*
X1000640Y66756D01*
X1000795Y64881D01*
X1001260Y63215D01*
X1001880Y61964D01*
X1002810Y60923D01*
X1004050Y60507D01*
X1005290Y60923D01*
X1006220Y61964D01*
X1006840Y63215D01*
X1007305Y64881D01*
X1007460Y66756D01*
X1007305Y68631D01*
X1006840Y70298D01*
X1006220Y71548D01*
X1005290Y72590D01*
X1004050Y73007D01*
G01X1013040Y62381D02*
X1013970Y61340D01*
X1015055Y60715D01*
X1016450Y60507D01*
X1017845Y60923D01*
X1018930Y61756D01*
X1019705Y63215D01*
X1019860Y64881D01*
X1019550Y66548D01*
X1018775Y67590D01*
X1017690Y68423D01*
X1016605Y68631D01*
X1015520Y68423D01*
X1014125Y67590D01*
X1014590Y73007D01*
X1018775D01*
G01X1028850Y60090D02*
X1028540Y60298D01*
Y60715D01*
X1028850Y60923D01*
X1029160Y60715D01*
Y60298D01*
X1028850Y60090D01*
G01X1041250Y73007D02*
X1040010Y72590D01*
X1039080Y71548D01*
X1038460Y70298D01*
X1037995Y68631D01*
X1037840Y66756D01*
X1037995Y64881D01*
X1038460Y63215D01*
X1039080Y61964D01*
X1040010Y60923D01*
X1041250Y60507D01*
X1042490Y60923D01*
X1043420Y61964D01*
X1044040Y63215D01*
X1044505Y64881D01*
X1044660Y66756D01*
X1044505Y68631D01*
X1044040Y70298D01*
X1043420Y71548D01*
X1042490Y72590D01*
X1041250Y73007D01*
G01X991650Y95940D02*
X992735Y96148D01*
X993975Y96773D01*
X994750Y97814D01*
X995060Y99273D01*
X994750Y100731D01*
X993820Y101981D01*
X992425Y102606D01*
X990875D01*
X989945Y103023D01*
X989170Y104064D01*
X988860Y105523D01*
X989325Y106981D01*
X990410Y108023D01*
X991650Y108440D01*
X992890Y108023D01*
X993975Y106981D01*
X994440Y105523D01*
X994130Y104064D01*
X993355Y103023D01*
X992425Y102606D01*
X990875D01*
X989480Y101981D01*
X988550Y100731D01*
X988240Y99273D01*
X988550Y97814D01*
X989325Y96773D01*
X990565Y96148D01*
X991650Y95940D01*
G01X1001105Y101148D02*
X1002190Y102606D01*
X1003120Y103439D01*
X1004360Y103856D01*
X1005445Y103439D01*
X1006220Y102606D01*
X1006840Y101356D01*
X1006995Y99898D01*
X1006840Y98648D01*
X1006220Y97398D01*
X1005290Y96356D01*
X1004205Y95940D01*
X1002965Y96356D01*
X1001880Y97606D01*
X1001260Y99481D01*
X1001105Y101564D01*
X1001415Y104273D01*
X1001880Y105731D01*
X1002655Y107189D01*
X1003740Y108231D01*
X1004825Y108440D01*
X1005910Y108023D01*
X1006685Y106981D01*
G01X1016450Y95523D02*
X1016140Y95731D01*
Y96148D01*
X1016450Y96356D01*
X1016760Y96148D01*
Y95731D01*
X1016450Y95523D01*
G01X1025905Y106356D02*
X1026835Y107606D01*
X1027920Y108231D01*
X1029160Y108440D01*
X1030710Y108023D01*
X1031795Y106981D01*
X1032105Y105731D01*
X1031950Y104481D01*
X1031330Y103439D01*
X1028230Y101356D01*
X1026835Y99898D01*
X1025905Y97814D01*
X1025595Y95940D01*
X1032105D01*
G01X1038305Y106356D02*
X1039235Y107606D01*
X1040320Y108231D01*
X1041560Y108440D01*
X1043110Y108023D01*
X1044195Y106981D01*
X1044505Y105731D01*
X1044350Y104481D01*
X1043730Y103439D01*
X1040630Y101356D01*
X1039235Y99898D01*
X1038305Y97814D01*
X1037995Y95940D01*
X1044505D01*
G01X997850Y131372D02*
X998935Y131581D01*
X1000175Y132206D01*
X1000950Y133247D01*
X1001260Y134706D01*
X1000950Y136164D01*
X1000020Y137414D01*
X998625Y138039D01*
X997075D01*
X996145Y138456D01*
X995370Y139497D01*
X995060Y140956D01*
X995525Y142414D01*
X996610Y143456D01*
X997850Y143872D01*
X999090Y143456D01*
X1000175Y142414D01*
X1000640Y140956D01*
X1000330Y139497D01*
X999555Y138456D01*
X998625Y138039D01*
X997075D01*
X995680Y137414D01*
X994750Y136164D01*
X994440Y134706D01*
X994750Y133247D01*
X995525Y132206D01*
X996765Y131581D01*
X997850Y131372D01*
G01X1006840Y133872D02*
X1007770Y132414D01*
X1009010Y131581D01*
X1010405Y131372D01*
X1011645Y131581D01*
X1012885Y132622D01*
X1013660Y133872D01*
X1013815Y135122D01*
X1013505Y136581D01*
X1012420Y137622D01*
X1011335Y138039D01*
X1009940D01*
G01X1011335D02*
X1012265Y138664D01*
X1013040Y139706D01*
X1013350Y140956D01*
X1013040Y142206D01*
X1012265Y143247D01*
X1010870Y143872D01*
X1009475Y143664D01*
X1008080Y142831D01*
G01X1022650Y130956D02*
X1022340Y131164D01*
Y131581D01*
X1022650Y131789D01*
X1022960Y131581D01*
Y131164D01*
X1022650Y130956D01*
G01X1035050Y143872D02*
X1033810Y143456D01*
X1032880Y142414D01*
X1032260Y141164D01*
X1031795Y139497D01*
X1031640Y137622D01*
X1031795Y135747D01*
X1032260Y134081D01*
X1032880Y132830D01*
X1033810Y131789D01*
X1035050Y131372D01*
X1036290Y131789D01*
X1037220Y132830D01*
X1037840Y134081D01*
X1038305Y135747D01*
X1038460Y137622D01*
X1038305Y139497D01*
X1037840Y141164D01*
X1037220Y142414D01*
X1036290Y143456D01*
X1035050Y143872D01*
G01X985450Y166806D02*
X986535Y167014D01*
X987775Y167639D01*
X988550Y168680D01*
X988860Y170139D01*
X988550Y171597D01*
X987620Y172847D01*
X986225Y173472D01*
X984675D01*
X983745Y173889D01*
X982970Y174930D01*
X982660Y176389D01*
X983125Y177847D01*
X984210Y178889D01*
X985450Y179306D01*
X986690Y178889D01*
X987775Y177847D01*
X988240Y176389D01*
X987930Y174930D01*
X987155Y173889D01*
X986225Y173472D01*
X984675D01*
X983280Y172847D01*
X982350Y171597D01*
X982040Y170139D01*
X982350Y168680D01*
X983125Y167639D01*
X984365Y167014D01*
X985450Y166806D01*
G01X997850D02*
Y179306D01*
X995990Y176806D01*
G01Y166806D02*
X999710D01*
G01X1010250Y166389D02*
X1009940Y166597D01*
Y167014D01*
X1010250Y167222D01*
X1010560Y167014D01*
Y166597D01*
X1010250Y166389D01*
G01X1022650Y166806D02*
Y179306D01*
X1020790Y176806D01*
G01Y166806D02*
X1024510D01*
G01X1035050Y179306D02*
X1033810Y178889D01*
X1032880Y177847D01*
X1032260Y176597D01*
X1031795Y174930D01*
X1031640Y173055D01*
X1031795Y171180D01*
X1032260Y169514D01*
X1032880Y168264D01*
X1033810Y167222D01*
X1035050Y166806D01*
X1036290Y167222D01*
X1037220Y168264D01*
X1037840Y169514D01*
X1038305Y171180D01*
X1038460Y173055D01*
X1038305Y174930D01*
X1037840Y176597D01*
X1037220Y177847D01*
X1036290Y178889D01*
X1035050Y179306D01*
G01X1044505Y177222D02*
X1045435Y178472D01*
X1046520Y179097D01*
X1047760Y179306D01*
X1049310Y178889D01*
X1050395Y177847D01*
X1050705Y176597D01*
X1050550Y175347D01*
X1049930Y174305D01*
X1046830Y172222D01*
X1045435Y170764D01*
X1044505Y168680D01*
X1044195Y166806D01*
X1050705D01*
G01X997850Y202238D02*
X998935Y202447D01*
X1000175Y203072D01*
X1000950Y204113D01*
X1001260Y205572D01*
X1000950Y207030D01*
X1000020Y208280D01*
X998625Y208905D01*
X997075D01*
X996145Y209322D01*
X995370Y210363D01*
X995060Y211822D01*
X995525Y213280D01*
X996610Y214322D01*
X997850Y214739D01*
X999090Y214322D01*
X1000175Y213280D01*
X1000640Y211822D01*
X1000330Y210363D01*
X999555Y209322D01*
X998625Y208905D01*
X997075D01*
X995680Y208280D01*
X994750Y207030D01*
X994440Y205572D01*
X994750Y204113D01*
X995525Y203072D01*
X996765Y202447D01*
X997850Y202238D01*
G01X1010250Y214739D02*
X1009010Y214322D01*
X1008080Y213280D01*
X1007460Y212030D01*
X1006995Y210363D01*
X1006840Y208488D01*
X1006995Y206613D01*
X1007460Y204947D01*
X1008080Y203696D01*
X1009010Y202655D01*
X1010250Y202238D01*
X1011490Y202655D01*
X1012420Y203696D01*
X1013040Y204947D01*
X1013505Y206613D01*
X1013660Y208488D01*
X1013505Y210363D01*
X1013040Y212030D01*
X1012420Y213280D01*
X1011490Y214322D01*
X1010250Y214739D01*
G01X1022650Y201822D02*
X1022340Y202030D01*
Y202447D01*
X1022650Y202655D01*
X1022960Y202447D01*
Y202030D01*
X1022650Y201822D01*
G01X1035050Y214739D02*
X1033810Y214322D01*
X1032880Y213280D01*
X1032260Y212030D01*
X1031795Y210363D01*
X1031640Y208488D01*
X1031795Y206613D01*
X1032260Y204947D01*
X1032880Y203696D01*
X1033810Y202655D01*
X1035050Y202238D01*
X1036290Y202655D01*
X1037220Y203696D01*
X1037840Y204947D01*
X1038305Y206613D01*
X1038460Y208488D01*
X1038305Y210363D01*
X1037840Y212030D01*
X1037220Y213280D01*
X1036290Y214322D01*
X1035050Y214739D01*
G01X982505Y242880D02*
X983590Y244338D01*
X984520Y245171D01*
X985760Y245588D01*
X986845Y245171D01*
X987620Y244338D01*
X988240Y243088D01*
X988395Y241630D01*
X988240Y240380D01*
X987620Y239130D01*
X986690Y238088D01*
X985605Y237672D01*
X984365Y238088D01*
X983280Y239338D01*
X982660Y241213D01*
X982505Y243296D01*
X982815Y246005D01*
X983280Y247463D01*
X984055Y248921D01*
X985140Y249963D01*
X986225Y250172D01*
X987310Y249755D01*
X988085Y248713D01*
G01X999710Y237672D02*
Y250172D01*
X993975Y241213D01*
X1001725D01*
G01X1010250Y237255D02*
X1009940Y237463D01*
Y237880D01*
X1010250Y238088D01*
X1010560Y237880D01*
Y237463D01*
X1010250Y237255D01*
G01X1022650Y237672D02*
Y250172D01*
X1020790Y247672D01*
G01Y237672D02*
X1024510D01*
G01X1034740D02*
X1035050Y240380D01*
X1035515Y242671D01*
X1036135Y244755D01*
X1036910Y247046D01*
X1038150Y250172D01*
X1031950D01*
G01X1044040Y240171D02*
X1044970Y238713D01*
X1046210Y237880D01*
X1047605Y237672D01*
X1048845Y237880D01*
X1050085Y238921D01*
X1050860Y240171D01*
X1051015Y241422D01*
X1050705Y242880D01*
X1049620Y243921D01*
X1048535Y244338D01*
X1047140D01*
G01X1048535D02*
X1049465Y244963D01*
X1050240Y246005D01*
X1050550Y247255D01*
X1050240Y248505D01*
X1049465Y249546D01*
X1048070Y250172D01*
X1046675Y249963D01*
X1045280Y249130D01*
G01X994440Y274979D02*
X995370Y273938D01*
X996455Y273313D01*
X997850Y273104D01*
X999245Y273521D01*
X1000330Y274354D01*
X1001105Y275813D01*
X1001260Y277479D01*
X1000950Y279146D01*
X1000175Y280188D01*
X999090Y281021D01*
X998005Y281229D01*
X996920Y281021D01*
X995525Y280188D01*
X995990Y285604D01*
X1000175D01*
G01X1010250Y273104D02*
X1011335Y273313D01*
X1012575Y273938D01*
X1013350Y274979D01*
X1013660Y276438D01*
X1013350Y277896D01*
X1012420Y279146D01*
X1011025Y279771D01*
X1009475D01*
X1008545Y280188D01*
X1007770Y281229D01*
X1007460Y282688D01*
X1007925Y284146D01*
X1009010Y285188D01*
X1010250Y285604D01*
X1011490Y285188D01*
X1012575Y284146D01*
X1013040Y282688D01*
X1012730Y281229D01*
X1011955Y280188D01*
X1011025Y279771D01*
X1009475D01*
X1008080Y279146D01*
X1007150Y277896D01*
X1006840Y276438D01*
X1007150Y274979D01*
X1007925Y273938D01*
X1009165Y273313D01*
X1010250Y273104D01*
G01X1022650Y272688D02*
X1022340Y272896D01*
Y273313D01*
X1022650Y273521D01*
X1022960Y273313D01*
Y272896D01*
X1022650Y272688D01*
G01X1035050Y285604D02*
X1033810Y285188D01*
X1032880Y284146D01*
X1032260Y282896D01*
X1031795Y281229D01*
X1031640Y279354D01*
X1031795Y277479D01*
X1032260Y275813D01*
X1032880Y274562D01*
X1033810Y273521D01*
X1035050Y273104D01*
X1036290Y273521D01*
X1037220Y274562D01*
X1037840Y275813D01*
X1038305Y277479D01*
X1038460Y279354D01*
X1038305Y281229D01*
X1037840Y282896D01*
X1037220Y284146D01*
X1036290Y285188D01*
X1035050Y285604D01*
G01X982040Y310412D02*
X982970Y309371D01*
X984055Y308746D01*
X985450Y308538D01*
X986845Y308954D01*
X987930Y309787D01*
X988705Y311246D01*
X988860Y312912D01*
X988550Y314579D01*
X987775Y315621D01*
X986690Y316454D01*
X985605Y316662D01*
X984520Y316454D01*
X983125Y315621D01*
X983590Y321038D01*
X987775D01*
G01X997850Y308538D02*
Y321038D01*
X995990Y318538D01*
G01Y308538D02*
X999710D01*
G01X1010250Y308121D02*
X1009940Y308329D01*
Y308746D01*
X1010250Y308954D01*
X1010560Y308746D01*
Y308329D01*
X1010250Y308121D01*
G01X1022650Y308538D02*
Y321038D01*
X1020790Y318538D01*
G01Y308538D02*
X1024510D01*
G01X1035050D02*
X1036135Y308746D01*
X1037375Y309371D01*
X1038150Y310412D01*
X1038460Y311871D01*
X1038150Y313329D01*
X1037220Y314579D01*
X1035825Y315204D01*
X1034275D01*
X1033345Y315621D01*
X1032570Y316662D01*
X1032260Y318121D01*
X1032725Y319579D01*
X1033810Y320621D01*
X1035050Y321038D01*
X1036290Y320621D01*
X1037375Y319579D01*
X1037840Y318121D01*
X1037530Y316662D01*
X1036755Y315621D01*
X1035825Y315204D01*
X1034275D01*
X1032880Y314579D01*
X1031950Y313329D01*
X1031640Y311871D01*
X1031950Y310412D01*
X1032725Y309371D01*
X1033965Y308746D01*
X1035050Y308538D01*
G01X1047450D02*
Y321038D01*
X1045590Y318538D01*
G01Y308538D02*
X1049310D01*
G01X994440Y345845D02*
X995370Y344804D01*
X996455Y344179D01*
X997850Y343970D01*
X999245Y344387D01*
X1000330Y345220D01*
X1001105Y346679D01*
X1001260Y348345D01*
X1000950Y350012D01*
X1000175Y351054D01*
X999090Y351887D01*
X998005Y352095D01*
X996920Y351887D01*
X995525Y351054D01*
X995990Y356470D01*
X1000175D01*
G01X1010250D02*
X1009010Y356054D01*
X1008080Y355012D01*
X1007460Y353762D01*
X1006995Y352095D01*
X1006840Y350220D01*
X1006995Y348345D01*
X1007460Y346679D01*
X1008080Y345428D01*
X1009010Y344387D01*
X1010250Y343970D01*
X1011490Y344387D01*
X1012420Y345428D01*
X1013040Y346679D01*
X1013505Y348345D01*
X1013660Y350220D01*
X1013505Y352095D01*
X1013040Y353762D01*
X1012420Y355012D01*
X1011490Y356054D01*
X1010250Y356470D01*
G01X1022650Y343554D02*
X1022340Y343762D01*
Y344179D01*
X1022650Y344387D01*
X1022960Y344179D01*
Y343762D01*
X1022650Y343554D01*
G01X1035050Y356470D02*
X1033810Y356054D01*
X1032880Y355012D01*
X1032260Y353762D01*
X1031795Y352095D01*
X1031640Y350220D01*
X1031795Y348345D01*
X1032260Y346679D01*
X1032880Y345428D01*
X1033810Y344387D01*
X1035050Y343970D01*
X1036290Y344387D01*
X1037220Y345428D01*
X1037840Y346679D01*
X1038305Y348345D01*
X1038460Y350220D01*
X1038305Y352095D01*
X1037840Y353762D01*
X1037220Y355012D01*
X1036290Y356054D01*
X1035050Y356470D01*
G01X987310Y379404D02*
Y391904D01*
X981575Y382945D01*
X989325D01*
G01X994905Y384612D02*
X995990Y386070D01*
X996920Y386903D01*
X998160Y387320D01*
X999245Y386903D01*
X1000020Y386070D01*
X1000640Y384820D01*
X1000795Y383362D01*
X1000640Y382112D01*
X1000020Y380861D01*
X999090Y379820D01*
X998005Y379404D01*
X996765Y379820D01*
X995680Y381070D01*
X995060Y382945D01*
X994905Y385028D01*
X995215Y387737D01*
X995680Y389195D01*
X996455Y390653D01*
X997540Y391695D01*
X998625Y391904D01*
X999710Y391487D01*
X1000485Y390445D01*
G01X1010250Y378987D02*
X1009940Y379195D01*
Y379612D01*
X1010250Y379820D01*
X1010560Y379612D01*
Y379195D01*
X1010250Y378987D01*
G01X1022650Y391904D02*
X1021410Y391487D01*
X1020480Y390445D01*
X1019860Y389195D01*
X1019395Y387528D01*
X1019240Y385653D01*
X1019395Y383778D01*
X1019860Y382112D01*
X1020480Y380861D01*
X1021410Y379820D01*
X1022650Y379404D01*
X1023890Y379820D01*
X1024820Y380861D01*
X1025440Y382112D01*
X1025905Y383778D01*
X1026060Y385653D01*
X1025905Y387528D01*
X1025440Y389195D01*
X1024820Y390445D01*
X1023890Y391487D01*
X1022650Y391904D01*
G01X1032105Y384612D02*
X1033190Y386070D01*
X1034120Y386903D01*
X1035360Y387320D01*
X1036445Y386903D01*
X1037220Y386070D01*
X1037840Y384820D01*
X1037995Y383362D01*
X1037840Y382112D01*
X1037220Y380861D01*
X1036290Y379820D01*
X1035205Y379404D01*
X1033965Y379820D01*
X1032880Y381070D01*
X1032260Y382945D01*
X1032105Y385028D01*
X1032415Y387737D01*
X1032880Y389195D01*
X1033655Y390653D01*
X1034740Y391695D01*
X1035825Y391904D01*
X1036910Y391487D01*
X1037685Y390445D01*
G01X1044040Y381903D02*
X1044970Y380445D01*
X1046210Y379612D01*
X1047605Y379404D01*
X1048845Y379612D01*
X1050085Y380653D01*
X1050860Y381903D01*
X1051015Y383154D01*
X1050705Y384612D01*
X1049620Y385653D01*
X1048535Y386070D01*
X1047140D01*
G01X1048535D02*
X1049465Y386695D01*
X1050240Y387737D01*
X1050550Y388987D01*
X1050240Y390237D01*
X1049465Y391278D01*
X1048070Y391904D01*
X1046675Y391695D01*
X1045280Y390862D01*
G01X987310Y414836D02*
Y427336D01*
X981575Y418378D01*
X989325D01*
G01X994440Y417336D02*
X995370Y415878D01*
X996610Y415045D01*
X998005Y414836D01*
X999245Y415045D01*
X1000485Y416086D01*
X1001260Y417336D01*
X1001415Y418586D01*
X1001105Y420044D01*
X1000020Y421086D01*
X998935Y421503D01*
X997540D01*
G01X998935D02*
X999865Y422128D01*
X1000640Y423170D01*
X1000950Y424420D01*
X1000640Y425670D01*
X999865Y426711D01*
X998470Y427336D01*
X997075Y427128D01*
X995680Y426295D01*
G01X1010250Y414420D02*
X1009940Y414628D01*
Y415045D01*
X1010250Y415253D01*
X1010560Y415045D01*
Y414628D01*
X1010250Y414420D01*
G01X1019240Y417336D02*
X1020170Y415878D01*
X1021410Y415045D01*
X1022805Y414836D01*
X1024045Y415045D01*
X1025285Y416086D01*
X1026060Y417336D01*
X1026215Y418586D01*
X1025905Y420044D01*
X1024820Y421086D01*
X1023735Y421503D01*
X1022340D01*
G01X1023735D02*
X1024665Y422128D01*
X1025440Y423170D01*
X1025750Y424420D01*
X1025440Y425670D01*
X1024665Y426711D01*
X1023270Y427336D01*
X1021875Y427128D01*
X1020480Y426295D01*
G01X1035050Y427336D02*
X1033810Y426920D01*
X1032880Y425878D01*
X1032260Y424628D01*
X1031795Y422961D01*
X1031640Y421086D01*
X1031795Y419211D01*
X1032260Y417545D01*
X1032880Y416294D01*
X1033810Y415253D01*
X1035050Y414836D01*
X1036290Y415253D01*
X1037220Y416294D01*
X1037840Y417545D01*
X1038305Y419211D01*
X1038460Y421086D01*
X1038305Y422961D01*
X1037840Y424628D01*
X1037220Y425878D01*
X1036290Y426920D01*
X1035050Y427336D01*
G01X1047140Y414836D02*
X1047450Y417545D01*
X1047915Y419836D01*
X1048535Y421920D01*
X1049310Y424211D01*
X1050550Y427336D01*
X1044350D01*
G01X999710Y450270D02*
Y462770D01*
X993975Y453811D01*
X1001725D01*
G01X1007305Y460686D02*
X1008235Y461936D01*
X1009320Y462561D01*
X1010560Y462770D01*
X1012110Y462353D01*
X1013195Y461311D01*
X1013505Y460061D01*
X1013350Y458811D01*
X1012730Y457769D01*
X1009630Y455686D01*
X1008235Y454228D01*
X1007305Y452144D01*
X1006995Y450270D01*
X1013505D01*
G01X1022650Y449853D02*
X1022340Y450061D01*
Y450478D01*
X1022650Y450686D01*
X1022960Y450478D01*
Y450061D01*
X1022650Y449853D01*
G01X1035050Y462770D02*
X1033810Y462353D01*
X1032880Y461311D01*
X1032260Y460061D01*
X1031795Y458394D01*
X1031640Y456519D01*
X1031795Y454644D01*
X1032260Y452978D01*
X1032880Y451727D01*
X1033810Y450686D01*
X1035050Y450270D01*
X1036290Y450686D01*
X1037220Y451727D01*
X1037840Y452978D01*
X1038305Y454644D01*
X1038460Y456519D01*
X1038305Y458394D01*
X1037840Y460061D01*
X1037220Y461311D01*
X1036290Y462353D01*
X1035050Y462770D01*
G01X999710Y485702D02*
Y498202D01*
X993975Y489244D01*
X1001725D01*
G01X1010250Y498202D02*
X1009010Y497786D01*
X1008080Y496744D01*
X1007460Y495494D01*
X1006995Y493827D01*
X1006840Y491952D01*
X1006995Y490077D01*
X1007460Y488411D01*
X1008080Y487160D01*
X1009010Y486119D01*
X1010250Y485702D01*
X1011490Y486119D01*
X1012420Y487160D01*
X1013040Y488411D01*
X1013505Y490077D01*
X1013660Y491952D01*
X1013505Y493827D01*
X1013040Y495494D01*
X1012420Y496744D01*
X1011490Y497786D01*
X1010250Y498202D01*
G01X1022650Y485286D02*
X1022340Y485494D01*
Y485911D01*
X1022650Y486119D01*
X1022960Y485911D01*
Y485494D01*
X1022650Y485286D01*
G01X1035050Y498202D02*
X1033810Y497786D01*
X1032880Y496744D01*
X1032260Y495494D01*
X1031795Y493827D01*
X1031640Y491952D01*
X1031795Y490077D01*
X1032260Y488411D01*
X1032880Y487160D01*
X1033810Y486119D01*
X1035050Y485702D01*
X1036290Y486119D01*
X1037220Y487160D01*
X1037840Y488411D01*
X1038305Y490077D01*
X1038460Y491952D01*
X1038305Y493827D01*
X1037840Y495494D01*
X1037220Y496744D01*
X1036290Y497786D01*
X1035050Y498202D01*
G01X999710Y521135D02*
Y533635D01*
X993975Y524677D01*
X1001725D01*
G01X1010250Y533635D02*
X1009010Y533219D01*
X1008080Y532177D01*
X1007460Y530927D01*
X1006995Y529260D01*
X1006840Y527385D01*
X1006995Y525510D01*
X1007460Y523844D01*
X1008080Y522594D01*
X1009010Y521552D01*
X1010250Y521135D01*
X1011490Y521552D01*
X1012420Y522594D01*
X1013040Y523844D01*
X1013505Y525510D01*
X1013660Y527385D01*
X1013505Y529260D01*
X1013040Y530927D01*
X1012420Y532177D01*
X1011490Y533219D01*
X1010250Y533635D01*
G01X1022650Y520719D02*
X1022340Y520927D01*
Y521344D01*
X1022650Y521552D01*
X1022960Y521344D01*
Y520927D01*
X1022650Y520719D01*
G01X1035050Y533635D02*
X1033810Y533219D01*
X1032880Y532177D01*
X1032260Y530927D01*
X1031795Y529260D01*
X1031640Y527385D01*
X1031795Y525510D01*
X1032260Y523844D01*
X1032880Y522594D01*
X1033810Y521552D01*
X1035050Y521135D01*
X1036290Y521552D01*
X1037220Y522594D01*
X1037840Y523844D01*
X1038305Y525510D01*
X1038460Y527385D01*
X1038305Y529260D01*
X1037840Y530927D01*
X1037220Y532177D01*
X1036290Y533219D01*
X1035050Y533635D01*
G01X994440Y559068D02*
X995370Y557610D01*
X996610Y556777D01*
X998005Y556568D01*
X999245Y556777D01*
X1000485Y557818D01*
X1001260Y559068D01*
X1001415Y560319D01*
X1001105Y561776D01*
X1000020Y562818D01*
X998935Y563235D01*
X997540D01*
G01X998935D02*
X999865Y563860D01*
X1000640Y564902D01*
X1000950Y566152D01*
X1000640Y567402D01*
X999865Y568443D01*
X998470Y569068D01*
X997075Y568860D01*
X995680Y568027D01*
G01X1007305Y561776D02*
X1008390Y563235D01*
X1009320Y564068D01*
X1010560Y564485D01*
X1011645Y564068D01*
X1012420Y563235D01*
X1013040Y561985D01*
X1013195Y560527D01*
X1013040Y559277D01*
X1012420Y558027D01*
X1011490Y556985D01*
X1010405Y556568D01*
X1009165Y556985D01*
X1008080Y558235D01*
X1007460Y560110D01*
X1007305Y562193D01*
X1007615Y564902D01*
X1008080Y566360D01*
X1008855Y567818D01*
X1009940Y568860D01*
X1011025Y569068D01*
X1012110Y568652D01*
X1012885Y567610D01*
G01X1022650Y556152D02*
X1022340Y556360D01*
Y556777D01*
X1022650Y556985D01*
X1022960Y556777D01*
Y556360D01*
X1022650Y556152D01*
G01X1035050Y569068D02*
X1033810Y568652D01*
X1032880Y567610D01*
X1032260Y566360D01*
X1031795Y564693D01*
X1031640Y562818D01*
X1031795Y560943D01*
X1032260Y559277D01*
X1032880Y558027D01*
X1033810Y556985D01*
X1035050Y556568D01*
X1036290Y556985D01*
X1037220Y558027D01*
X1037840Y559277D01*
X1038305Y560943D01*
X1038460Y562818D01*
X1038305Y564693D01*
X1037840Y566360D01*
X1037220Y567610D01*
X1036290Y568652D01*
X1035050Y569068D01*
G01X982040Y594501D02*
X982970Y593043D01*
X984210Y592210D01*
X985605Y592002D01*
X986845Y592210D01*
X988085Y593251D01*
X988860Y594501D01*
X989015Y595752D01*
X988705Y597210D01*
X987620Y598251D01*
X986535Y598668D01*
X985140D01*
G01X986535D02*
X987465Y599293D01*
X988240Y600335D01*
X988550Y601585D01*
X988240Y602835D01*
X987465Y603876D01*
X986070Y604502D01*
X984675Y604293D01*
X983280Y603460D01*
G01X997850Y592002D02*
Y604502D01*
X995990Y602002D01*
G01Y592002D02*
X999710D01*
G01X1010250Y591585D02*
X1009940Y591793D01*
Y592210D01*
X1010250Y592418D01*
X1010560Y592210D01*
Y591793D01*
X1010250Y591585D01*
G01X1024510Y592002D02*
Y604502D01*
X1018775Y595543D01*
X1026525D01*
G01X1032415Y593460D02*
X1033500Y592418D01*
X1034740Y592002D01*
X1035980Y592418D01*
X1037065Y593668D01*
X1037840Y595543D01*
X1038150Y597418D01*
Y599710D01*
X1037840Y601585D01*
X1037065Y603251D01*
X1036135Y604085D01*
X1035050Y604502D01*
X1033810Y604085D01*
X1032880Y603251D01*
X1032260Y602002D01*
X1031950Y600335D01*
X1032260Y598877D01*
X1033035Y597418D01*
X1033965Y596585D01*
X1035050Y596376D01*
X1036290Y596793D01*
X1037220Y597835D01*
X1038150Y599710D01*
G01X1044505Y597210D02*
X1045590Y598668D01*
X1046520Y599501D01*
X1047760Y599918D01*
X1048845Y599501D01*
X1049620Y598668D01*
X1050240Y597418D01*
X1050395Y595960D01*
X1050240Y594710D01*
X1049620Y593460D01*
X1048690Y592418D01*
X1047605Y592002D01*
X1046365Y592418D01*
X1045280Y593668D01*
X1044660Y595543D01*
X1044505Y597626D01*
X1044815Y600335D01*
X1045280Y601793D01*
X1046055Y603251D01*
X1047140Y604293D01*
X1048225Y604502D01*
X1049310Y604085D01*
X1050085Y603043D01*
G01X994440Y629934D02*
X995370Y628476D01*
X996610Y627643D01*
X998005Y627434D01*
X999245Y627643D01*
X1000485Y628684D01*
X1001260Y629934D01*
X1001415Y631185D01*
X1001105Y632642D01*
X1000020Y633684D01*
X998935Y634101D01*
X997540D01*
G01X998935D02*
X999865Y634726D01*
X1000640Y635768D01*
X1000950Y637018D01*
X1000640Y638268D01*
X999865Y639309D01*
X998470Y639934D01*
X997075Y639726D01*
X995680Y638893D01*
G01X1010250Y627434D02*
Y639934D01*
X1008390Y637435D01*
G01Y627434D02*
X1012110D01*
G01X1022650Y627018D02*
X1022340Y627226D01*
Y627643D01*
X1022650Y627851D01*
X1022960Y627643D01*
Y627226D01*
X1022650Y627018D01*
G01X1035050Y639934D02*
X1033810Y639518D01*
X1032880Y638476D01*
X1032260Y637226D01*
X1031795Y635559D01*
X1031640Y633684D01*
X1031795Y631809D01*
X1032260Y630143D01*
X1032880Y628892D01*
X1033810Y627851D01*
X1035050Y627434D01*
X1036290Y627851D01*
X1037220Y628892D01*
X1037840Y630143D01*
X1038305Y631809D01*
X1038460Y633684D01*
X1038305Y635559D01*
X1037840Y637226D01*
X1037220Y638476D01*
X1036290Y639518D01*
X1035050Y639934D01*
G01X994905Y673284D02*
X995835Y674534D01*
X996920Y675159D01*
X998160Y675368D01*
X999710Y674951D01*
X1000795Y673909D01*
X1001105Y672659D01*
X1000950Y671409D01*
X1000330Y670367D01*
X997230Y668284D01*
X995835Y666826D01*
X994905Y664742D01*
X994595Y662868D01*
X1001105D01*
G01X1010250Y675368D02*
X1009010Y674951D01*
X1008080Y673909D01*
X1007460Y672659D01*
X1006995Y670992D01*
X1006840Y669117D01*
X1006995Y667242D01*
X1007460Y665576D01*
X1008080Y664326D01*
X1009010Y663284D01*
X1010250Y662868D01*
X1011490Y663284D01*
X1012420Y664326D01*
X1013040Y665576D01*
X1013505Y667242D01*
X1013660Y669117D01*
X1013505Y670992D01*
X1013040Y672659D01*
X1012420Y673909D01*
X1011490Y674951D01*
X1010250Y675368D01*
G01X1022650Y662451D02*
X1022340Y662659D01*
Y663076D01*
X1022650Y663284D01*
X1022960Y663076D01*
Y662659D01*
X1022650Y662451D01*
G01X1035050Y675368D02*
X1033810Y674951D01*
X1032880Y673909D01*
X1032260Y672659D01*
X1031795Y670992D01*
X1031640Y669117D01*
X1031795Y667242D01*
X1032260Y665576D01*
X1032880Y664326D01*
X1033810Y663284D01*
X1035050Y662868D01*
X1036290Y663284D01*
X1037220Y664326D01*
X1037840Y665576D01*
X1038305Y667242D01*
X1038460Y669117D01*
X1038305Y670992D01*
X1037840Y672659D01*
X1037220Y673909D01*
X1036290Y674951D01*
X1035050Y675368D01*
G01X985450Y698300D02*
Y710800D01*
X983590Y708301D01*
G01Y698300D02*
X987310D01*
G01X995215Y699758D02*
X996300Y698717D01*
X997540Y698300D01*
X998780Y698717D01*
X999865Y699967D01*
X1000640Y701842D01*
X1000950Y703717D01*
Y706009D01*
X1000640Y707884D01*
X999865Y709550D01*
X998935Y710384D01*
X997850Y710800D01*
X996610Y710384D01*
X995680Y709550D01*
X995060Y708301D01*
X994750Y706634D01*
X995060Y705176D01*
X995835Y703717D01*
X996765Y702884D01*
X997850Y702675D01*
X999090Y703092D01*
X1000020Y704134D01*
X1000950Y706009D01*
G01X1010250Y697884D02*
X1009940Y698092D01*
Y698509D01*
X1010250Y698717D01*
X1010560Y698509D01*
Y698092D01*
X1010250Y697884D01*
G01X1019705Y703508D02*
X1020790Y704967D01*
X1021720Y705800D01*
X1022960Y706217D01*
X1024045Y705800D01*
X1024820Y704967D01*
X1025440Y703717D01*
X1025595Y702259D01*
X1025440Y701009D01*
X1024820Y699758D01*
X1023890Y698717D01*
X1022805Y698300D01*
X1021565Y698717D01*
X1020480Y699967D01*
X1019860Y701842D01*
X1019705Y703925D01*
X1020015Y706634D01*
X1020480Y708092D01*
X1021255Y709550D01*
X1022340Y710592D01*
X1023425Y710800D01*
X1024510Y710384D01*
X1025285Y709342D01*
G01X1035050Y698300D02*
X1036135Y698509D01*
X1037375Y699134D01*
X1038150Y700175D01*
X1038460Y701634D01*
X1038150Y703092D01*
X1037220Y704342D01*
X1035825Y704967D01*
X1034275D01*
X1033345Y705384D01*
X1032570Y706425D01*
X1032260Y707884D01*
X1032725Y709342D01*
X1033810Y710384D01*
X1035050Y710800D01*
X1036290Y710384D01*
X1037375Y709342D01*
X1037840Y707884D01*
X1037530Y706425D01*
X1036755Y705384D01*
X1035825Y704967D01*
X1034275D01*
X1032880Y704342D01*
X1031950Y703092D01*
X1031640Y701634D01*
X1031950Y700175D01*
X1032725Y699134D01*
X1033965Y698509D01*
X1035050Y698300D01*
G01X1044040Y700175D02*
X1044970Y699134D01*
X1046055Y698509D01*
X1047450Y698300D01*
X1048845Y698717D01*
X1049930Y699550D01*
X1050705Y701009D01*
X1050860Y702675D01*
X1050550Y704342D01*
X1049775Y705384D01*
X1048690Y706217D01*
X1047605Y706425D01*
X1046520Y706217D01*
X1045125Y705384D01*
X1045590Y710800D01*
X1049775D01*
G01X997850Y733734D02*
Y746234D01*
X995990Y743734D01*
G01Y733734D02*
X999710D01*
G01X1006840Y736233D02*
X1007770Y734775D01*
X1009010Y733942D01*
X1010405Y733734D01*
X1011645Y733942D01*
X1012885Y734983D01*
X1013660Y736233D01*
X1013815Y737484D01*
X1013505Y738942D01*
X1012420Y739983D01*
X1011335Y740400D01*
X1009940D01*
G01X1011335D02*
X1012265Y741025D01*
X1013040Y742067D01*
X1013350Y743317D01*
X1013040Y744567D01*
X1012265Y745608D01*
X1010870Y746234D01*
X1009475Y746025D01*
X1008080Y745192D01*
G01X1022650Y733317D02*
X1022340Y733525D01*
Y733942D01*
X1022650Y734150D01*
X1022960Y733942D01*
Y733525D01*
X1022650Y733317D01*
G01X1035050Y746234D02*
X1033810Y745817D01*
X1032880Y744775D01*
X1032260Y743525D01*
X1031795Y741858D01*
X1031640Y739983D01*
X1031795Y738108D01*
X1032260Y736442D01*
X1032880Y735192D01*
X1033810Y734150D01*
X1035050Y733734D01*
X1036290Y734150D01*
X1037220Y735192D01*
X1037840Y736442D01*
X1038305Y738108D01*
X1038460Y739983D01*
X1038305Y741858D01*
X1037840Y743525D01*
X1037220Y744775D01*
X1036290Y745817D01*
X1035050Y746234D01*
G01X978940Y813950D02*
Y826450D01*
X982040D01*
X983280Y825825D01*
X984210Y824992D01*
X984985Y823742D01*
X985605Y822283D01*
X985760Y820200D01*
X985605Y818116D01*
X984985Y816658D01*
X984210Y815408D01*
X983280Y814575D01*
X982040Y813950D01*
X978940D01*
G01X991650D02*
Y826450D01*
X995525D01*
X996765Y825825D01*
X997540Y824992D01*
X997850Y823325D01*
X997540Y821658D01*
X996610Y820617D01*
X995525Y819992D01*
X991650D01*
G01X995525D02*
X997850Y813950D01*
G01X1005290Y826450D02*
X1009010D01*
G01X1007150D02*
Y813950D01*
G01X1005290D02*
X1009010D01*
G01X1016450Y826450D02*
Y813950D01*
X1022650D01*
G01X1028850Y826450D02*
Y813950D01*
X1035050D01*
G01X1060160Y825408D02*
X1059230Y826033D01*
X1058145Y826450D01*
X1056905D01*
X1055510Y825825D01*
X1054425Y824783D01*
X1053650Y823533D01*
X1053030Y821450D01*
X1052875Y819575D01*
X1053185Y817700D01*
X1053650Y816450D01*
X1054580Y815200D01*
X1055665Y814367D01*
X1056750Y813950D01*
X1057835D01*
X1058920Y814367D01*
X1059850Y814991D01*
X1060625Y815825D01*
G01X1065895Y813950D02*
Y826450D01*
G01X1072405D02*
Y813950D01*
G01Y820200D02*
X1065895D01*
G01X1077675Y813950D02*
X1081550Y826450D01*
X1085425Y813950D01*
G01X1084030Y818325D02*
X1079070D01*
G01X1090850Y813950D02*
Y826450D01*
X1094725D01*
X1095965Y825825D01*
X1096740Y824992D01*
X1097050Y823325D01*
X1096740Y821658D01*
X1095810Y820617D01*
X1094725Y819992D01*
X1090850D01*
G01X1094725D02*
X1097050Y813950D01*
G01X1106350Y826450D02*
Y813950D01*
G01X1102785Y826450D02*
X1109915D01*
G01X1118750Y813533D02*
X1118440Y813742D01*
Y814158D01*
X1118750Y814367D01*
X1119060Y814158D01*
Y813742D01*
X1118750Y813533D01*
G01Y819158D02*
X1118440Y819367D01*
Y819783D01*
X1118750Y819992D01*
X1119060Y819783D01*
Y819367D01*
X1118750Y819158D01*
G01X1143550Y826450D02*
Y813950D01*
G01X1139985Y826450D02*
X1147115D01*
G01X1155950Y813950D02*
X1154710Y814158D01*
X1153625Y814991D01*
X1152695Y816242D01*
X1152075Y817700D01*
X1151765Y819367D01*
Y821033D01*
X1152075Y822700D01*
X1152695Y824158D01*
X1153625Y825408D01*
X1154710Y826242D01*
X1155950Y826450D01*
X1157190Y826242D01*
X1158275Y825408D01*
X1159205Y824158D01*
X1159825Y822700D01*
X1160135Y821033D01*
Y819367D01*
X1159825Y817700D01*
X1159205Y816242D01*
X1158275Y814991D01*
X1157190Y814158D01*
X1155950Y813950D01*
G01X1165250D02*
Y826450D01*
X1168970D01*
X1170210Y825825D01*
X1171140Y824367D01*
X1171450Y822700D01*
X1171140Y821033D01*
X1170365Y819783D01*
X1168970Y819158D01*
X1165250D01*
G01X1193150Y826450D02*
Y813950D01*
G01X1190980Y822283D02*
X1195320D01*
G01X1205550Y813950D02*
X1204620Y814158D01*
X1203690Y814991D01*
X1203070Y816450D01*
X1202760Y818116D01*
X1203070Y819783D01*
X1203690Y821242D01*
X1204620Y822075D01*
X1205550Y822283D01*
X1206480Y822075D01*
X1207410Y821242D01*
X1208030Y819783D01*
X1208185Y818116D01*
X1208030Y816450D01*
X1207410Y814991D01*
X1206480Y814158D01*
X1205550Y813950D01*
G01X1231590Y820617D02*
X1232210Y821242D01*
X1232675Y822283D01*
X1232985Y823742D01*
X1232675Y824992D01*
X1232055Y825825D01*
X1230970Y826450D01*
X1226785D01*
Y813950D01*
X1231900D01*
X1232985Y814783D01*
X1233605Y816033D01*
X1233915Y817492D01*
X1233605Y818950D01*
X1232675Y820200D01*
X1231590Y820617D01*
X1226785D01*
G01X1242750Y813950D02*
X1241510Y814158D01*
X1240425Y814991D01*
X1239495Y816242D01*
X1238875Y817700D01*
X1238565Y819367D01*
Y821033D01*
X1238875Y822700D01*
X1239495Y824158D01*
X1240425Y825408D01*
X1241510Y826242D01*
X1242750Y826450D01*
X1243990Y826242D01*
X1245075Y825408D01*
X1246005Y824158D01*
X1246625Y822700D01*
X1246935Y821033D01*
Y819367D01*
X1246625Y817700D01*
X1246005Y816242D01*
X1245075Y814991D01*
X1243990Y814158D01*
X1242750Y813950D01*
G01X1255150Y826450D02*
Y813950D01*
G01X1251585Y826450D02*
X1258715D01*
G01X1267550D02*
Y813950D01*
G01X1263985Y826450D02*
X1271115D01*
G01X1279950Y813950D02*
X1278710Y814158D01*
X1277625Y814991D01*
X1276695Y816242D01*
X1276075Y817700D01*
X1275765Y819367D01*
Y821033D01*
X1276075Y822700D01*
X1276695Y824158D01*
X1277625Y825408D01*
X1278710Y826242D01*
X1279950Y826450D01*
X1281190Y826242D01*
X1282275Y825408D01*
X1283205Y824158D01*
X1283825Y822700D01*
X1284135Y821033D01*
Y819367D01*
X1283825Y817700D01*
X1283205Y816242D01*
X1282275Y814991D01*
X1281190Y814158D01*
X1279950Y813950D01*
G01X1288320D02*
Y826450D01*
X1292350Y816033D01*
X1296380Y826450D01*
Y813950D01*
G01X1009475Y788950D02*
X1013350Y801450D01*
X1017225Y788950D01*
G01X1015830Y793325D02*
X1010870D01*
G01X1022650Y801450D02*
Y788950D01*
X1028850D01*
G01X1035050Y801450D02*
Y788950D01*
X1041250D01*
G01X1059540Y801450D02*
Y792492D01*
X1060160Y790616D01*
X1061400Y789367D01*
X1062950Y788950D01*
X1064500Y789367D01*
X1065740Y790616D01*
X1066360Y792492D01*
Y801450D01*
G01X1071785Y788950D02*
Y801450D01*
X1078915Y788950D01*
Y801450D01*
G01X1085890D02*
X1089610D01*
G01X1087750D02*
Y788950D01*
G01X1085890D02*
X1089610D01*
G01X1100150Y801450D02*
Y788950D01*
G01X1096585Y801450D02*
X1103715D01*
G01X1109295Y790616D02*
X1110535Y789575D01*
X1111930Y788950D01*
X1113170D01*
X1114410Y789575D01*
X1115340Y790616D01*
X1115805Y792075D01*
X1115495Y793533D01*
X1114720Y794783D01*
X1113325Y795617D01*
X1111465Y796033D01*
X1110380Y796866D01*
X1109915Y798325D01*
X1110225Y799783D01*
X1111000Y800825D01*
X1112085Y801450D01*
X1113170D01*
X1114255Y801033D01*
X1115185Y799992D01*
G01X1133475Y788950D02*
X1137350Y801450D01*
X1141225Y788950D01*
G01X1139830Y793325D02*
X1134870D01*
G01X1146650Y788950D02*
Y801450D01*
X1150525D01*
X1151765Y800825D01*
X1152540Y799992D01*
X1152850Y798325D01*
X1152540Y796658D01*
X1151610Y795617D01*
X1150525Y794992D01*
X1146650D01*
G01X1150525D02*
X1152850Y788950D01*
G01X1165250D02*
X1159050D01*
Y801450D01*
X1165250D01*
G01X1162770Y795408D02*
X1159050D01*
G01X1185090Y801450D02*
X1188810D01*
G01X1186950D02*
Y788950D01*
G01X1185090D02*
X1188810D01*
G01X1195785D02*
Y801450D01*
X1202915Y788950D01*
Y801450D01*
G01X1220120Y788950D02*
Y801450D01*
X1224150Y791033D01*
X1228180Y801450D01*
Y788950D01*
G01X1234690Y801450D02*
X1238410D01*
G01X1236550D02*
Y788950D01*
G01X1234690D02*
X1238410D01*
G01X1245850Y801450D02*
Y788950D01*
X1252050D01*
G01X1258095Y790616D02*
X1259335Y789575D01*
X1260730Y788950D01*
X1261970D01*
X1263210Y789575D01*
X1264140Y790616D01*
X1264605Y792075D01*
X1264295Y793533D01*
X1263520Y794783D01*
X1262125Y795617D01*
X1260265Y796033D01*
X1259180Y796866D01*
X1258715Y798325D01*
X1259025Y799783D01*
X1259800Y800825D01*
X1260885Y801450D01*
X1261970D01*
X1263055Y801033D01*
X1263985Y799992D01*
G01X1134250Y763950D02*
Y776450D01*
X1138125D01*
X1139365Y775825D01*
X1140140Y774992D01*
X1140450Y773325D01*
X1140140Y771658D01*
X1139210Y770617D01*
X1138125Y769992D01*
X1134250D01*
G01X1138125D02*
X1140450Y763950D01*
G01X1149750D02*
X1148510Y764158D01*
X1147425Y764991D01*
X1146495Y766242D01*
X1145875Y767700D01*
X1145565Y769367D01*
Y771033D01*
X1145875Y772700D01*
X1146495Y774158D01*
X1147425Y775408D01*
X1148510Y776242D01*
X1149750Y776450D01*
X1150990Y776242D01*
X1152075Y775408D01*
X1153005Y774158D01*
X1153625Y772700D01*
X1153935Y771033D01*
Y769367D01*
X1153625Y767700D01*
X1153005Y766242D01*
X1152075Y764991D01*
X1150990Y764158D01*
X1149750Y763950D01*
G01X1162150Y776450D02*
Y763950D01*
G01X1158585Y776450D02*
X1165715D01*
G01X1170675Y763950D02*
X1174550Y776450D01*
X1178425Y763950D01*
G01X1177030Y768325D02*
X1172070D01*
G01X1186950Y776450D02*
Y763950D01*
G01X1183385Y776450D02*
X1190515D01*
G01X1197490D02*
X1201210D01*
G01X1199350D02*
Y763950D01*
G01X1197490D02*
X1201210D01*
G01X1211750D02*
X1210510Y764158D01*
X1209425Y764991D01*
X1208495Y766242D01*
X1207875Y767700D01*
X1207565Y769367D01*
Y771033D01*
X1207875Y772700D01*
X1208495Y774158D01*
X1209425Y775408D01*
X1210510Y776242D01*
X1211750Y776450D01*
X1212990Y776242D01*
X1214075Y775408D01*
X1215005Y774158D01*
X1215625Y772700D01*
X1215935Y771033D01*
Y769367D01*
X1215625Y767700D01*
X1215005Y766242D01*
X1214075Y764991D01*
X1212990Y764158D01*
X1211750Y763950D01*
G01X1220585D02*
Y776450D01*
X1227715Y763950D01*
Y776450D01*
G01X1147115Y-115201D02*
X1148200Y-116242D01*
X1149440Y-116658D01*
X1150680Y-116242D01*
X1151765Y-114992D01*
X1152540Y-113117D01*
X1152850Y-111242D01*
Y-108950D01*
X1152540Y-107075D01*
X1151765Y-105409D01*
X1150835Y-104575D01*
X1149750Y-104158D01*
X1148510Y-104575D01*
X1147580Y-105409D01*
X1146960Y-106658D01*
X1146650Y-108325D01*
X1146960Y-109783D01*
X1147735Y-111242D01*
X1148665Y-112075D01*
X1149750Y-112284D01*
X1150990Y-111867D01*
X1151920Y-110825D01*
X1152850Y-108950D01*
G01X1162150Y-104158D02*
X1160910Y-104575D01*
X1159980Y-105617D01*
X1159360Y-106867D01*
X1158895Y-108534D01*
X1158740Y-110409D01*
X1158895Y-112284D01*
X1159360Y-113950D01*
X1159980Y-115201D01*
X1160910Y-116242D01*
X1162150Y-116658D01*
X1163390Y-116242D01*
X1164320Y-115201D01*
X1164940Y-113950D01*
X1165405Y-112284D01*
X1165560Y-110409D01*
X1165405Y-108534D01*
X1164940Y-106867D01*
X1164320Y-105617D01*
X1163390Y-104575D01*
X1162150Y-104158D01*
G01X1174550Y-117075D02*
X1174240Y-116867D01*
Y-116450D01*
X1174550Y-116242D01*
X1174860Y-116450D01*
Y-116867D01*
X1174550Y-117075D01*
G01X1186950Y-104158D02*
X1185710Y-104575D01*
X1184780Y-105617D01*
X1184160Y-106867D01*
X1183695Y-108534D01*
X1183540Y-110409D01*
X1183695Y-112284D01*
X1184160Y-113950D01*
X1184780Y-115201D01*
X1185710Y-116242D01*
X1186950Y-116658D01*
X1188190Y-116242D01*
X1189120Y-115201D01*
X1189740Y-113950D01*
X1190205Y-112284D01*
X1190360Y-110409D01*
X1190205Y-108534D01*
X1189740Y-106867D01*
X1189120Y-105617D01*
X1188190Y-104575D01*
X1186950Y-104158D01*
G01X1199350D02*
X1198110Y-104575D01*
X1197180Y-105617D01*
X1196560Y-106867D01*
X1196095Y-108534D01*
X1195940Y-110409D01*
X1196095Y-112284D01*
X1196560Y-113950D01*
X1197180Y-115201D01*
X1198110Y-116242D01*
X1199350Y-116658D01*
X1200590Y-116242D01*
X1201520Y-115201D01*
X1202140Y-113950D01*
X1202605Y-112284D01*
X1202760Y-110409D01*
X1202605Y-108534D01*
X1202140Y-106867D01*
X1201520Y-105617D01*
X1200590Y-104575D01*
X1199350Y-104158D01*
G01X1211750D02*
X1210510Y-104575D01*
X1209580Y-105617D01*
X1208960Y-106867D01*
X1208495Y-108534D01*
X1208340Y-110409D01*
X1208495Y-112284D01*
X1208960Y-113950D01*
X1209580Y-115201D01*
X1210510Y-116242D01*
X1211750Y-116658D01*
X1212990Y-116242D01*
X1213920Y-115201D01*
X1214540Y-113950D01*
X1215005Y-112284D01*
X1215160Y-110409D01*
X1215005Y-108534D01*
X1214540Y-106867D01*
X1213920Y-105617D01*
X1212990Y-104575D01*
X1211750Y-104158D01*
G01X1155950Y-68726D02*
X1154710Y-69142D01*
X1153780Y-70184D01*
X1153160Y-71434D01*
X1152695Y-73101D01*
X1152540Y-74976D01*
X1152695Y-76851D01*
X1153160Y-78517D01*
X1153780Y-79768D01*
X1154710Y-80809D01*
X1155950Y-81226D01*
X1157190Y-80809D01*
X1158120Y-79768D01*
X1158740Y-78517D01*
X1159205Y-76851D01*
X1159360Y-74976D01*
X1159205Y-73101D01*
X1158740Y-71434D01*
X1158120Y-70184D01*
X1157190Y-69142D01*
X1155950Y-68726D01*
G01X1168350Y-81642D02*
X1168040Y-81434D01*
Y-81017D01*
X1168350Y-80809D01*
X1168660Y-81017D01*
Y-81434D01*
X1168350Y-81642D01*
G01X1180750Y-68726D02*
X1179510Y-69142D01*
X1178580Y-70184D01*
X1177960Y-71434D01*
X1177495Y-73101D01*
X1177340Y-74976D01*
X1177495Y-76851D01*
X1177960Y-78517D01*
X1178580Y-79768D01*
X1179510Y-80809D01*
X1180750Y-81226D01*
X1181990Y-80809D01*
X1182920Y-79768D01*
X1183540Y-78517D01*
X1184005Y-76851D01*
X1184160Y-74976D01*
X1184005Y-73101D01*
X1183540Y-71434D01*
X1182920Y-70184D01*
X1181990Y-69142D01*
X1180750Y-68726D01*
G01X1193150D02*
X1191910Y-69142D01*
X1190980Y-70184D01*
X1190360Y-71434D01*
X1189895Y-73101D01*
X1189740Y-74976D01*
X1189895Y-76851D01*
X1190360Y-78517D01*
X1190980Y-79768D01*
X1191910Y-80809D01*
X1193150Y-81226D01*
X1194390Y-80809D01*
X1195320Y-79768D01*
X1195940Y-78517D01*
X1196405Y-76851D01*
X1196560Y-74976D01*
X1196405Y-73101D01*
X1195940Y-71434D01*
X1195320Y-70184D01*
X1194390Y-69142D01*
X1193150Y-68726D01*
G01X1205550D02*
X1204310Y-69142D01*
X1203380Y-70184D01*
X1202760Y-71434D01*
X1202295Y-73101D01*
X1202140Y-74976D01*
X1202295Y-76851D01*
X1202760Y-78517D01*
X1203380Y-79768D01*
X1204310Y-80809D01*
X1205550Y-81226D01*
X1206790Y-80809D01*
X1207720Y-79768D01*
X1208340Y-78517D01*
X1208805Y-76851D01*
X1208960Y-74976D01*
X1208805Y-73101D01*
X1208340Y-71434D01*
X1207720Y-70184D01*
X1206790Y-69142D01*
X1205550Y-68726D01*
G01X1147115Y-44335D02*
X1148200Y-45376D01*
X1149440Y-45792D01*
X1150680Y-45376D01*
X1151765Y-44126D01*
X1152540Y-42251D01*
X1152850Y-40376D01*
Y-38084D01*
X1152540Y-36209D01*
X1151765Y-34543D01*
X1150835Y-33709D01*
X1149750Y-33292D01*
X1148510Y-33709D01*
X1147580Y-34543D01*
X1146960Y-35792D01*
X1146650Y-37459D01*
X1146960Y-38917D01*
X1147735Y-40376D01*
X1148665Y-41209D01*
X1149750Y-41418D01*
X1150990Y-41001D01*
X1151920Y-39959D01*
X1152850Y-38084D01*
G01X1162150Y-33292D02*
X1160910Y-33709D01*
X1159980Y-34751D01*
X1159360Y-36001D01*
X1158895Y-37668D01*
X1158740Y-39543D01*
X1158895Y-41418D01*
X1159360Y-43084D01*
X1159980Y-44335D01*
X1160910Y-45376D01*
X1162150Y-45792D01*
X1163390Y-45376D01*
X1164320Y-44335D01*
X1164940Y-43084D01*
X1165405Y-41418D01*
X1165560Y-39543D01*
X1165405Y-37668D01*
X1164940Y-36001D01*
X1164320Y-34751D01*
X1163390Y-33709D01*
X1162150Y-33292D01*
G01X1174550Y-46209D02*
X1174240Y-46001D01*
Y-45584D01*
X1174550Y-45376D01*
X1174860Y-45584D01*
Y-46001D01*
X1174550Y-46209D01*
G01X1186950Y-33292D02*
X1185710Y-33709D01*
X1184780Y-34751D01*
X1184160Y-36001D01*
X1183695Y-37668D01*
X1183540Y-39543D01*
X1183695Y-41418D01*
X1184160Y-43084D01*
X1184780Y-44335D01*
X1185710Y-45376D01*
X1186950Y-45792D01*
X1188190Y-45376D01*
X1189120Y-44335D01*
X1189740Y-43084D01*
X1190205Y-41418D01*
X1190360Y-39543D01*
X1190205Y-37668D01*
X1189740Y-36001D01*
X1189120Y-34751D01*
X1188190Y-33709D01*
X1186950Y-33292D01*
G01X1199350D02*
X1198110Y-33709D01*
X1197180Y-34751D01*
X1196560Y-36001D01*
X1196095Y-37668D01*
X1195940Y-39543D01*
X1196095Y-41418D01*
X1196560Y-43084D01*
X1197180Y-44335D01*
X1198110Y-45376D01*
X1199350Y-45792D01*
X1200590Y-45376D01*
X1201520Y-44335D01*
X1202140Y-43084D01*
X1202605Y-41418D01*
X1202760Y-39543D01*
X1202605Y-37668D01*
X1202140Y-36001D01*
X1201520Y-34751D01*
X1200590Y-33709D01*
X1199350Y-33292D01*
G01X1211750D02*
X1210510Y-33709D01*
X1209580Y-34751D01*
X1208960Y-36001D01*
X1208495Y-37668D01*
X1208340Y-39543D01*
X1208495Y-41418D01*
X1208960Y-43084D01*
X1209580Y-44335D01*
X1210510Y-45376D01*
X1211750Y-45792D01*
X1212990Y-45376D01*
X1213920Y-44335D01*
X1214540Y-43084D01*
X1215005Y-41418D01*
X1215160Y-39543D01*
X1215005Y-37668D01*
X1214540Y-36001D01*
X1213920Y-34751D01*
X1212990Y-33709D01*
X1211750Y-33292D01*
G01X1178735Y-6193D02*
X1182765D01*
G01X1178735Y29240D02*
X1182765D01*
G01X1178735Y64673D02*
X1182765D01*
G01X1178735Y100106D02*
X1182765D01*
G01X1178735Y135539D02*
X1182765D01*
G01X1178735Y170972D02*
X1182765D01*
G01X1178735Y206405D02*
X1182765D01*
G01X1178735Y241838D02*
X1182765D01*
G01X1178735Y277271D02*
X1182765D01*
G01X1178735Y312704D02*
X1182765D01*
G01X1178735Y348137D02*
X1182765D01*
G01X1178735Y383570D02*
X1182765D01*
G01X1178735Y419003D02*
X1182765D01*
G01X1178735Y454436D02*
X1182765D01*
G01X1178735Y489869D02*
X1182765D01*
G01X1178735Y525302D02*
X1182765D01*
G01X1178735Y560735D02*
X1182765D01*
G01X1178735Y596168D02*
X1182765D01*
G01X1178735Y631601D02*
X1182765D01*
G01X1178735Y667034D02*
X1182765D01*
G01X1178735Y702467D02*
X1182765D01*
G01X1178735Y737900D02*
X1182765D01*
G01X1248485Y-116658D02*
Y-104158D01*
X1255615Y-116658D01*
Y-104158D01*
G01X1264450Y-116658D02*
X1263210Y-116450D01*
X1262125Y-115617D01*
X1261195Y-114367D01*
X1260575Y-112909D01*
X1260265Y-111242D01*
Y-109575D01*
X1260575Y-107908D01*
X1261195Y-106450D01*
X1262125Y-105200D01*
X1263210Y-104367D01*
X1264450Y-104158D01*
X1265690Y-104367D01*
X1266775Y-105200D01*
X1267705Y-106450D01*
X1268325Y-107908D01*
X1268635Y-109575D01*
Y-111242D01*
X1268325Y-112909D01*
X1267705Y-114367D01*
X1266775Y-115617D01*
X1265690Y-116450D01*
X1264450Y-116658D01*
G01X1273285D02*
Y-104158D01*
X1280415Y-116658D01*
Y-104158D01*
G01X1287235Y-112492D02*
X1291265D01*
G01X1298550Y-116658D02*
Y-104158D01*
X1302270D01*
X1303510Y-104784D01*
X1304440Y-106242D01*
X1304750Y-107908D01*
X1304440Y-109575D01*
X1303665Y-110825D01*
X1302270Y-111451D01*
X1298550D01*
G01X1310950Y-104158D02*
Y-116658D01*
X1317150D01*
G01X1322575D02*
X1326450Y-104158D01*
X1330325Y-116658D01*
G01X1328930Y-112284D02*
X1323970D01*
G01X1338850Y-104158D02*
Y-116658D01*
G01X1335285Y-104158D02*
X1342415D01*
G01X1354350Y-116658D02*
X1348150D01*
Y-104158D01*
X1354350D01*
G01X1351870Y-110200D02*
X1348150D01*
G01X1360240Y-116658D02*
Y-104158D01*
X1363340D01*
X1364580Y-104784D01*
X1365510Y-105617D01*
X1366285Y-106867D01*
X1366905Y-108325D01*
X1367060Y-110409D01*
X1366905Y-112492D01*
X1366285Y-113950D01*
X1365510Y-115201D01*
X1364580Y-116034D01*
X1363340Y-116658D01*
X1360240D01*
G01X1248485Y-10360D02*
Y2140D01*
X1255615Y-10360D01*
Y2140D01*
G01X1264450Y-10360D02*
X1263210Y-10151D01*
X1262125Y-9318D01*
X1261195Y-8068D01*
X1260575Y-6610D01*
X1260265Y-4943D01*
Y-3276D01*
X1260575Y-1609D01*
X1261195Y-151D01*
X1262125Y1099D01*
X1263210Y1932D01*
X1264450Y2140D01*
X1265690Y1932D01*
X1266775Y1099D01*
X1267705Y-151D01*
X1268325Y-1609D01*
X1268635Y-3276D01*
Y-4943D01*
X1268325Y-6610D01*
X1267705Y-8068D01*
X1266775Y-9318D01*
X1265690Y-10151D01*
X1264450Y-10360D01*
G01X1273285D02*
Y2140D01*
X1280415Y-10360D01*
Y2140D01*
G01X1287235Y-6193D02*
X1291265D01*
G01X1298550Y-10360D02*
Y2140D01*
X1302270D01*
X1303510Y1515D01*
X1304440Y57D01*
X1304750Y-1609D01*
X1304440Y-3276D01*
X1303665Y-4526D01*
X1302270Y-5152D01*
X1298550D01*
G01X1310950Y2140D02*
Y-10360D01*
X1317150D01*
G01X1322575D02*
X1326450Y2140D01*
X1330325Y-10360D01*
G01X1328930Y-5985D02*
X1323970D01*
G01X1338850Y2140D02*
Y-10360D01*
G01X1335285Y2140D02*
X1342415D01*
G01X1354350Y-10360D02*
X1348150D01*
Y2140D01*
X1354350D01*
G01X1351870Y-3901D02*
X1348150D01*
G01X1360240Y-10360D02*
Y2140D01*
X1363340D01*
X1364580Y1515D01*
X1365510Y682D01*
X1366285Y-568D01*
X1366905Y-2026D01*
X1367060Y-4110D01*
X1366905Y-6193D01*
X1366285Y-7651D01*
X1365510Y-8902D01*
X1364580Y-9735D01*
X1363340Y-10360D01*
X1360240D01*
G01X1273750Y-81226D02*
Y-68726D01*
X1277470D01*
X1278710Y-69351D01*
X1279640Y-70809D01*
X1279950Y-72476D01*
X1279640Y-74142D01*
X1278865Y-75392D01*
X1277470Y-76018D01*
X1273750D01*
G01X1286150Y-68726D02*
Y-81226D01*
X1292350D01*
G01X1297775D02*
X1301650Y-68726D01*
X1305525Y-81226D01*
G01X1304130Y-76851D02*
X1299170D01*
G01X1314050Y-68726D02*
Y-81226D01*
G01X1310485Y-68726D02*
X1317615D01*
G01X1329550Y-81226D02*
X1323350D01*
Y-68726D01*
X1329550D01*
G01X1327070Y-74767D02*
X1323350D01*
G01X1335440Y-81226D02*
Y-68726D01*
X1338540D01*
X1339780Y-69351D01*
X1340710Y-70184D01*
X1341485Y-71434D01*
X1342105Y-72892D01*
X1342260Y-74976D01*
X1342105Y-77059D01*
X1341485Y-78517D01*
X1340710Y-79768D01*
X1339780Y-80601D01*
X1338540Y-81226D01*
X1335440D01*
G01X1273750Y-45792D02*
Y-33292D01*
X1277470D01*
X1278710Y-33918D01*
X1279640Y-35376D01*
X1279950Y-37042D01*
X1279640Y-38709D01*
X1278865Y-39959D01*
X1277470Y-40584D01*
X1273750D01*
G01X1286150Y-33292D02*
Y-45792D01*
X1292350D01*
G01X1297775D02*
X1301650Y-33292D01*
X1305525Y-45792D01*
G01X1304130Y-41418D02*
X1299170D01*
G01X1314050Y-33292D02*
Y-45792D01*
G01X1310485Y-33292D02*
X1317615D01*
G01X1329550Y-45792D02*
X1323350D01*
Y-33292D01*
X1329550D01*
G01X1327070Y-39334D02*
X1323350D01*
G01X1335440Y-45792D02*
Y-33292D01*
X1338540D01*
X1339780Y-33918D01*
X1340710Y-34751D01*
X1341485Y-36001D01*
X1342105Y-37459D01*
X1342260Y-39543D01*
X1342105Y-41626D01*
X1341485Y-43084D01*
X1340710Y-44335D01*
X1339780Y-45168D01*
X1338540Y-45792D01*
X1335440D01*
G01X1273750Y25074D02*
Y37574D01*
X1277470D01*
X1278710Y36948D01*
X1279640Y35490D01*
X1279950Y33824D01*
X1279640Y32157D01*
X1278865Y30907D01*
X1277470Y30282D01*
X1273750D01*
G01X1286150Y37574D02*
Y25074D01*
X1292350D01*
G01X1297775D02*
X1301650Y37574D01*
X1305525Y25074D01*
G01X1304130Y29448D02*
X1299170D01*
G01X1314050Y37574D02*
Y25074D01*
G01X1310485Y37574D02*
X1317615D01*
G01X1329550Y25074D02*
X1323350D01*
Y37574D01*
X1329550D01*
G01X1327070Y31532D02*
X1323350D01*
G01X1335440Y25074D02*
Y37574D01*
X1338540D01*
X1339780Y36948D01*
X1340710Y36115D01*
X1341485Y34865D01*
X1342105Y33407D01*
X1342260Y31323D01*
X1342105Y29240D01*
X1341485Y27782D01*
X1340710Y26532D01*
X1339780Y25698D01*
X1338540Y25074D01*
X1335440D01*
G01X1273750Y60507D02*
Y73007D01*
X1277470D01*
X1278710Y72381D01*
X1279640Y70923D01*
X1279950Y69257D01*
X1279640Y67590D01*
X1278865Y66340D01*
X1277470Y65714D01*
X1273750D01*
G01X1286150Y73007D02*
Y60507D01*
X1292350D01*
G01X1297775D02*
X1301650Y73007D01*
X1305525Y60507D01*
G01X1304130Y64881D02*
X1299170D01*
G01X1314050Y73007D02*
Y60507D01*
G01X1310485Y73007D02*
X1317615D01*
G01X1329550Y60507D02*
X1323350D01*
Y73007D01*
X1329550D01*
G01X1327070Y66965D02*
X1323350D01*
G01X1335440Y60507D02*
Y73007D01*
X1338540D01*
X1339780Y72381D01*
X1340710Y71548D01*
X1341485Y70298D01*
X1342105Y68840D01*
X1342260Y66756D01*
X1342105Y64673D01*
X1341485Y63215D01*
X1340710Y61964D01*
X1339780Y61131D01*
X1338540Y60507D01*
X1335440D01*
G01X1273750Y95940D02*
Y108440D01*
X1277470D01*
X1278710Y107814D01*
X1279640Y106356D01*
X1279950Y104689D01*
X1279640Y103023D01*
X1278865Y101773D01*
X1277470Y101148D01*
X1273750D01*
G01X1286150Y108440D02*
Y95940D01*
X1292350D01*
G01X1297775D02*
X1301650Y108440D01*
X1305525Y95940D01*
G01X1304130Y100314D02*
X1299170D01*
G01X1314050Y108440D02*
Y95940D01*
G01X1310485Y108440D02*
X1317615D01*
G01X1329550Y95940D02*
X1323350D01*
Y108440D01*
X1329550D01*
G01X1327070Y102398D02*
X1323350D01*
G01X1335440Y95940D02*
Y108440D01*
X1338540D01*
X1339780Y107814D01*
X1340710Y106981D01*
X1341485Y105731D01*
X1342105Y104273D01*
X1342260Y102189D01*
X1342105Y100106D01*
X1341485Y98648D01*
X1340710Y97398D01*
X1339780Y96564D01*
X1338540Y95940D01*
X1335440D01*
G01X1273750Y131372D02*
Y143872D01*
X1277470D01*
X1278710Y143247D01*
X1279640Y141789D01*
X1279950Y140122D01*
X1279640Y138456D01*
X1278865Y137206D01*
X1277470Y136581D01*
X1273750D01*
G01X1286150Y143872D02*
Y131372D01*
X1292350D01*
G01X1297775D02*
X1301650Y143872D01*
X1305525Y131372D01*
G01X1304130Y135747D02*
X1299170D01*
G01X1314050Y143872D02*
Y131372D01*
G01X1310485Y143872D02*
X1317615D01*
G01X1329550Y131372D02*
X1323350D01*
Y143872D01*
X1329550D01*
G01X1327070Y137831D02*
X1323350D01*
G01X1335440Y131372D02*
Y143872D01*
X1338540D01*
X1339780Y143247D01*
X1340710Y142414D01*
X1341485Y141164D01*
X1342105Y139706D01*
X1342260Y137622D01*
X1342105Y135539D01*
X1341485Y134081D01*
X1340710Y132830D01*
X1339780Y131997D01*
X1338540Y131372D01*
X1335440D01*
G01X1273750Y166806D02*
Y179306D01*
X1277470D01*
X1278710Y178680D01*
X1279640Y177222D01*
X1279950Y175556D01*
X1279640Y173889D01*
X1278865Y172639D01*
X1277470Y172014D01*
X1273750D01*
G01X1286150Y179306D02*
Y166806D01*
X1292350D01*
G01X1297775D02*
X1301650Y179306D01*
X1305525Y166806D01*
G01X1304130Y171180D02*
X1299170D01*
G01X1314050Y179306D02*
Y166806D01*
G01X1310485Y179306D02*
X1317615D01*
G01X1329550Y166806D02*
X1323350D01*
Y179306D01*
X1329550D01*
G01X1327070Y173264D02*
X1323350D01*
G01X1335440Y166806D02*
Y179306D01*
X1338540D01*
X1339780Y178680D01*
X1340710Y177847D01*
X1341485Y176597D01*
X1342105Y175139D01*
X1342260Y173055D01*
X1342105Y170972D01*
X1341485Y169514D01*
X1340710Y168264D01*
X1339780Y167430D01*
X1338540Y166806D01*
X1335440D01*
G01X1273750Y202238D02*
Y214739D01*
X1277470D01*
X1278710Y214113D01*
X1279640Y212655D01*
X1279950Y210989D01*
X1279640Y209322D01*
X1278865Y208072D01*
X1277470Y207446D01*
X1273750D01*
G01X1286150Y214739D02*
Y202238D01*
X1292350D01*
G01X1297775D02*
X1301650Y214739D01*
X1305525Y202238D01*
G01X1304130Y206613D02*
X1299170D01*
G01X1314050Y214739D02*
Y202238D01*
G01X1310485Y214739D02*
X1317615D01*
G01X1329550Y202238D02*
X1323350D01*
Y214739D01*
X1329550D01*
G01X1327070Y208697D02*
X1323350D01*
G01X1335440Y202238D02*
Y214739D01*
X1338540D01*
X1339780Y214113D01*
X1340710Y213280D01*
X1341485Y212030D01*
X1342105Y210572D01*
X1342260Y208488D01*
X1342105Y206405D01*
X1341485Y204947D01*
X1340710Y203696D01*
X1339780Y202863D01*
X1338540Y202238D01*
X1335440D01*
G01X1273750Y237672D02*
Y250172D01*
X1277470D01*
X1278710Y249546D01*
X1279640Y248088D01*
X1279950Y246422D01*
X1279640Y244755D01*
X1278865Y243505D01*
X1277470Y242880D01*
X1273750D01*
G01X1286150Y250172D02*
Y237672D01*
X1292350D01*
G01X1297775D02*
X1301650Y250172D01*
X1305525Y237672D01*
G01X1304130Y242046D02*
X1299170D01*
G01X1314050Y250172D02*
Y237672D01*
G01X1310485Y250172D02*
X1317615D01*
G01X1329550Y237672D02*
X1323350D01*
Y250172D01*
X1329550D01*
G01X1327070Y244130D02*
X1323350D01*
G01X1335440Y237672D02*
Y250172D01*
X1338540D01*
X1339780Y249546D01*
X1340710Y248713D01*
X1341485Y247463D01*
X1342105Y246005D01*
X1342260Y243921D01*
X1342105Y241838D01*
X1341485Y240380D01*
X1340710Y239130D01*
X1339780Y238296D01*
X1338540Y237672D01*
X1335440D01*
G01X1273750Y273104D02*
Y285604D01*
X1277470D01*
X1278710Y284979D01*
X1279640Y283521D01*
X1279950Y281855D01*
X1279640Y280188D01*
X1278865Y278938D01*
X1277470Y278312D01*
X1273750D01*
G01X1286150Y285604D02*
Y273104D01*
X1292350D01*
G01X1297775D02*
X1301650Y285604D01*
X1305525Y273104D01*
G01X1304130Y277479D02*
X1299170D01*
G01X1314050Y285604D02*
Y273104D01*
G01X1310485Y285604D02*
X1317615D01*
G01X1329550Y273104D02*
X1323350D01*
Y285604D01*
X1329550D01*
G01X1327070Y279563D02*
X1323350D01*
G01X1335440Y273104D02*
Y285604D01*
X1338540D01*
X1339780Y284979D01*
X1340710Y284146D01*
X1341485Y282896D01*
X1342105Y281438D01*
X1342260Y279354D01*
X1342105Y277271D01*
X1341485Y275813D01*
X1340710Y274562D01*
X1339780Y273729D01*
X1338540Y273104D01*
X1335440D01*
G01X1273750Y308538D02*
Y321038D01*
X1277470D01*
X1278710Y320412D01*
X1279640Y318954D01*
X1279950Y317288D01*
X1279640Y315621D01*
X1278865Y314371D01*
X1277470Y313746D01*
X1273750D01*
G01X1286150Y321038D02*
Y308538D01*
X1292350D01*
G01X1297775D02*
X1301650Y321038D01*
X1305525Y308538D01*
G01X1304130Y312912D02*
X1299170D01*
G01X1314050Y321038D02*
Y308538D01*
G01X1310485Y321038D02*
X1317615D01*
G01X1329550Y308538D02*
X1323350D01*
Y321038D01*
X1329550D01*
G01X1327070Y314996D02*
X1323350D01*
G01X1335440Y308538D02*
Y321038D01*
X1338540D01*
X1339780Y320412D01*
X1340710Y319579D01*
X1341485Y318329D01*
X1342105Y316871D01*
X1342260Y314787D01*
X1342105Y312704D01*
X1341485Y311246D01*
X1340710Y309996D01*
X1339780Y309162D01*
X1338540Y308538D01*
X1335440D01*
G01X1273750Y343970D02*
Y356470D01*
X1277470D01*
X1278710Y355845D01*
X1279640Y354387D01*
X1279950Y352720D01*
X1279640Y351054D01*
X1278865Y349804D01*
X1277470Y349178D01*
X1273750D01*
G01X1286150Y356470D02*
Y343970D01*
X1292350D01*
G01X1297775D02*
X1301650Y356470D01*
X1305525Y343970D01*
G01X1304130Y348345D02*
X1299170D01*
G01X1314050Y356470D02*
Y343970D01*
G01X1310485Y356470D02*
X1317615D01*
G01X1329550Y343970D02*
X1323350D01*
Y356470D01*
X1329550D01*
G01X1327070Y350429D02*
X1323350D01*
G01X1335440Y343970D02*
Y356470D01*
X1338540D01*
X1339780Y355845D01*
X1340710Y355012D01*
X1341485Y353762D01*
X1342105Y352304D01*
X1342260Y350220D01*
X1342105Y348137D01*
X1341485Y346679D01*
X1340710Y345428D01*
X1339780Y344595D01*
X1338540Y343970D01*
X1335440D01*
G01X1273750Y379404D02*
Y391904D01*
X1277470D01*
X1278710Y391278D01*
X1279640Y389820D01*
X1279950Y388154D01*
X1279640Y386487D01*
X1278865Y385237D01*
X1277470Y384612D01*
X1273750D01*
G01X1286150Y391904D02*
Y379404D01*
X1292350D01*
G01X1297775D02*
X1301650Y391904D01*
X1305525Y379404D01*
G01X1304130Y383778D02*
X1299170D01*
G01X1314050Y391904D02*
Y379404D01*
G01X1310485Y391904D02*
X1317615D01*
G01X1329550Y379404D02*
X1323350D01*
Y391904D01*
X1329550D01*
G01X1327070Y385862D02*
X1323350D01*
G01X1335440Y379404D02*
Y391904D01*
X1338540D01*
X1339780Y391278D01*
X1340710Y390445D01*
X1341485Y389195D01*
X1342105Y387737D01*
X1342260Y385653D01*
X1342105Y383570D01*
X1341485Y382112D01*
X1340710Y380861D01*
X1339780Y380028D01*
X1338540Y379404D01*
X1335440D01*
G01X1273750Y414836D02*
Y427336D01*
X1277470D01*
X1278710Y426711D01*
X1279640Y425253D01*
X1279950Y423586D01*
X1279640Y421920D01*
X1278865Y420670D01*
X1277470Y420044D01*
X1273750D01*
G01X1286150Y427336D02*
Y414836D01*
X1292350D01*
G01X1297775D02*
X1301650Y427336D01*
X1305525Y414836D01*
G01X1304130Y419211D02*
X1299170D01*
G01X1314050Y427336D02*
Y414836D01*
G01X1310485Y427336D02*
X1317615D01*
G01X1329550Y414836D02*
X1323350D01*
Y427336D01*
X1329550D01*
G01X1327070Y421295D02*
X1323350D01*
G01X1335440Y414836D02*
Y427336D01*
X1338540D01*
X1339780Y426711D01*
X1340710Y425878D01*
X1341485Y424628D01*
X1342105Y423170D01*
X1342260Y421086D01*
X1342105Y419003D01*
X1341485Y417545D01*
X1340710Y416294D01*
X1339780Y415461D01*
X1338540Y414836D01*
X1335440D01*
G01X1273750Y450270D02*
Y462770D01*
X1277470D01*
X1278710Y462144D01*
X1279640Y460686D01*
X1279950Y459019D01*
X1279640Y457353D01*
X1278865Y456103D01*
X1277470Y455477D01*
X1273750D01*
G01X1286150Y462770D02*
Y450270D01*
X1292350D01*
G01X1297775D02*
X1301650Y462770D01*
X1305525Y450270D01*
G01X1304130Y454644D02*
X1299170D01*
G01X1314050Y462770D02*
Y450270D01*
G01X1310485Y462770D02*
X1317615D01*
G01X1329550Y450270D02*
X1323350D01*
Y462770D01*
X1329550D01*
G01X1327070Y456728D02*
X1323350D01*
G01X1335440Y450270D02*
Y462770D01*
X1338540D01*
X1339780Y462144D01*
X1340710Y461311D01*
X1341485Y460061D01*
X1342105Y458603D01*
X1342260Y456519D01*
X1342105Y454436D01*
X1341485Y452978D01*
X1340710Y451727D01*
X1339780Y450894D01*
X1338540Y450270D01*
X1335440D01*
G01X1273750Y485702D02*
Y498202D01*
X1277470D01*
X1278710Y497577D01*
X1279640Y496119D01*
X1279950Y494452D01*
X1279640Y492786D01*
X1278865Y491536D01*
X1277470Y490910D01*
X1273750D01*
G01X1286150Y498202D02*
Y485702D01*
X1292350D01*
G01X1297775D02*
X1301650Y498202D01*
X1305525Y485702D01*
G01X1304130Y490077D02*
X1299170D01*
G01X1314050Y498202D02*
Y485702D01*
G01X1310485Y498202D02*
X1317615D01*
G01X1329550Y485702D02*
X1323350D01*
Y498202D01*
X1329550D01*
G01X1327070Y492161D02*
X1323350D01*
G01X1335440Y485702D02*
Y498202D01*
X1338540D01*
X1339780Y497577D01*
X1340710Y496744D01*
X1341485Y495494D01*
X1342105Y494036D01*
X1342260Y491952D01*
X1342105Y489869D01*
X1341485Y488411D01*
X1340710Y487160D01*
X1339780Y486327D01*
X1338540Y485702D01*
X1335440D01*
G01X1273750Y521135D02*
Y533635D01*
X1277470D01*
X1278710Y533010D01*
X1279640Y531552D01*
X1279950Y529886D01*
X1279640Y528219D01*
X1278865Y526969D01*
X1277470Y526344D01*
X1273750D01*
G01X1286150Y533635D02*
Y521135D01*
X1292350D01*
G01X1297775D02*
X1301650Y533635D01*
X1305525Y521135D01*
G01X1304130Y525510D02*
X1299170D01*
G01X1314050Y533635D02*
Y521135D01*
G01X1310485Y533635D02*
X1317615D01*
G01X1329550Y521135D02*
X1323350D01*
Y533635D01*
X1329550D01*
G01X1327070Y527594D02*
X1323350D01*
G01X1335440Y521135D02*
Y533635D01*
X1338540D01*
X1339780Y533010D01*
X1340710Y532177D01*
X1341485Y530927D01*
X1342105Y529469D01*
X1342260Y527385D01*
X1342105Y525302D01*
X1341485Y523844D01*
X1340710Y522594D01*
X1339780Y521760D01*
X1338540Y521135D01*
X1335440D01*
G01X1273750Y556568D02*
Y569068D01*
X1277470D01*
X1278710Y568443D01*
X1279640Y566985D01*
X1279950Y565318D01*
X1279640Y563652D01*
X1278865Y562402D01*
X1277470Y561776D01*
X1273750D01*
G01X1286150Y569068D02*
Y556568D01*
X1292350D01*
G01X1297775D02*
X1301650Y569068D01*
X1305525Y556568D01*
G01X1304130Y560943D02*
X1299170D01*
G01X1314050Y569068D02*
Y556568D01*
G01X1310485Y569068D02*
X1317615D01*
G01X1329550Y556568D02*
X1323350D01*
Y569068D01*
X1329550D01*
G01X1327070Y563027D02*
X1323350D01*
G01X1335440Y556568D02*
Y569068D01*
X1338540D01*
X1339780Y568443D01*
X1340710Y567610D01*
X1341485Y566360D01*
X1342105Y564902D01*
X1342260Y562818D01*
X1342105Y560735D01*
X1341485Y559277D01*
X1340710Y558027D01*
X1339780Y557193D01*
X1338540Y556568D01*
X1335440D01*
G01X1273750Y592002D02*
Y604502D01*
X1277470D01*
X1278710Y603876D01*
X1279640Y602418D01*
X1279950Y600752D01*
X1279640Y599085D01*
X1278865Y597835D01*
X1277470Y597210D01*
X1273750D01*
G01X1286150Y604502D02*
Y592002D01*
X1292350D01*
G01X1297775D02*
X1301650Y604502D01*
X1305525Y592002D01*
G01X1304130Y596376D02*
X1299170D01*
G01X1314050Y604502D02*
Y592002D01*
G01X1310485Y604502D02*
X1317615D01*
G01X1329550Y592002D02*
X1323350D01*
Y604502D01*
X1329550D01*
G01X1327070Y598460D02*
X1323350D01*
G01X1335440Y592002D02*
Y604502D01*
X1338540D01*
X1339780Y603876D01*
X1340710Y603043D01*
X1341485Y601793D01*
X1342105Y600335D01*
X1342260Y598251D01*
X1342105Y596168D01*
X1341485Y594710D01*
X1340710Y593460D01*
X1339780Y592626D01*
X1338540Y592002D01*
X1335440D01*
G01X1273750Y627434D02*
Y639934D01*
X1277470D01*
X1278710Y639309D01*
X1279640Y637851D01*
X1279950Y636185D01*
X1279640Y634518D01*
X1278865Y633268D01*
X1277470Y632642D01*
X1273750D01*
G01X1286150Y639934D02*
Y627434D01*
X1292350D01*
G01X1297775D02*
X1301650Y639934D01*
X1305525Y627434D01*
G01X1304130Y631809D02*
X1299170D01*
G01X1314050Y639934D02*
Y627434D01*
G01X1310485Y639934D02*
X1317615D01*
G01X1329550Y627434D02*
X1323350D01*
Y639934D01*
X1329550D01*
G01X1327070Y633893D02*
X1323350D01*
G01X1335440Y627434D02*
Y639934D01*
X1338540D01*
X1339780Y639309D01*
X1340710Y638476D01*
X1341485Y637226D01*
X1342105Y635768D01*
X1342260Y633684D01*
X1342105Y631601D01*
X1341485Y630143D01*
X1340710Y628892D01*
X1339780Y628059D01*
X1338540Y627434D01*
X1335440D01*
G01X1273750Y662868D02*
Y675368D01*
X1277470D01*
X1278710Y674742D01*
X1279640Y673284D01*
X1279950Y671618D01*
X1279640Y669951D01*
X1278865Y668701D01*
X1277470Y668076D01*
X1273750D01*
G01X1286150Y675368D02*
Y662868D01*
X1292350D01*
G01X1297775D02*
X1301650Y675368D01*
X1305525Y662868D01*
G01X1304130Y667242D02*
X1299170D01*
G01X1314050Y675368D02*
Y662868D01*
G01X1310485Y675368D02*
X1317615D01*
G01X1329550Y662868D02*
X1323350D01*
Y675368D01*
X1329550D01*
G01X1327070Y669326D02*
X1323350D01*
G01X1335440Y662868D02*
Y675368D01*
X1338540D01*
X1339780Y674742D01*
X1340710Y673909D01*
X1341485Y672659D01*
X1342105Y671201D01*
X1342260Y669117D01*
X1342105Y667034D01*
X1341485Y665576D01*
X1340710Y664326D01*
X1339780Y663492D01*
X1338540Y662868D01*
X1335440D01*
G01X1273750Y698300D02*
Y710800D01*
X1277470D01*
X1278710Y710175D01*
X1279640Y708717D01*
X1279950Y707050D01*
X1279640Y705384D01*
X1278865Y704134D01*
X1277470Y703508D01*
X1273750D01*
G01X1286150Y710800D02*
Y698300D01*
X1292350D01*
G01X1297775D02*
X1301650Y710800D01*
X1305525Y698300D01*
G01X1304130Y702675D02*
X1299170D01*
G01X1314050Y710800D02*
Y698300D01*
G01X1310485Y710800D02*
X1317615D01*
G01X1329550Y698300D02*
X1323350D01*
Y710800D01*
X1329550D01*
G01X1327070Y704759D02*
X1323350D01*
G01X1335440Y698300D02*
Y710800D01*
X1338540D01*
X1339780Y710175D01*
X1340710Y709342D01*
X1341485Y708092D01*
X1342105Y706634D01*
X1342260Y704550D01*
X1342105Y702467D01*
X1341485Y701009D01*
X1340710Y699758D01*
X1339780Y698925D01*
X1338540Y698300D01*
X1335440D01*
G01X1273750Y733734D02*
Y746234D01*
X1277470D01*
X1278710Y745608D01*
X1279640Y744150D01*
X1279950Y742484D01*
X1279640Y740817D01*
X1278865Y739567D01*
X1277470Y738942D01*
X1273750D01*
G01X1286150Y746234D02*
Y733734D01*
X1292350D01*
G01X1297775D02*
X1301650Y746234D01*
X1305525Y733734D01*
G01X1304130Y738108D02*
X1299170D01*
G01X1314050Y746234D02*
Y733734D01*
G01X1310485Y746234D02*
X1317615D01*
G01X1329550Y733734D02*
X1323350D01*
Y746234D01*
X1329550D01*
G01X1327070Y740192D02*
X1323350D01*
G01X1335440Y733734D02*
Y746234D01*
X1338540D01*
X1339780Y745608D01*
X1340710Y744775D01*
X1341485Y743525D01*
X1342105Y742067D01*
X1342260Y739983D01*
X1342105Y737900D01*
X1341485Y736442D01*
X1340710Y735192D01*
X1339780Y734358D01*
X1338540Y733734D01*
X1335440D01*
G01X1273750Y763950D02*
Y776450D01*
X1277470D01*
X1278710Y775825D01*
X1279640Y774367D01*
X1279950Y772700D01*
X1279640Y771033D01*
X1278865Y769783D01*
X1277470Y769158D01*
X1273750D01*
G01X1286150Y776450D02*
Y763950D01*
X1292350D01*
G01X1297775D02*
X1301650Y776450D01*
X1305525Y763950D01*
G01X1304130Y768325D02*
X1299170D01*
G01X1314050Y776450D02*
Y763950D01*
G01X1310485Y776450D02*
X1317615D01*
G01X1329550Y763950D02*
X1323350D01*
Y776450D01*
X1329550D01*
G01X1327070Y770408D02*
X1323350D01*
G01X1335440Y763950D02*
Y776450D01*
X1338540D01*
X1339780Y775825D01*
X1340710Y774992D01*
X1341485Y773742D01*
X1342105Y772283D01*
X1342260Y770200D01*
X1342105Y768116D01*
X1341485Y766658D01*
X1340710Y765408D01*
X1339780Y764575D01*
X1338540Y763950D01*
X1335440D01*
G01X1401315Y-115201D02*
X1402400Y-116242D01*
X1403640Y-116658D01*
X1404880Y-116242D01*
X1405965Y-114992D01*
X1406740Y-113117D01*
X1407050Y-111242D01*
Y-108950D01*
X1406740Y-107075D01*
X1405965Y-105409D01*
X1405035Y-104575D01*
X1403950Y-104158D01*
X1402710Y-104575D01*
X1401780Y-105409D01*
X1401160Y-106658D01*
X1400850Y-108325D01*
X1401160Y-109783D01*
X1401935Y-111242D01*
X1402865Y-112075D01*
X1403950Y-112284D01*
X1405190Y-111867D01*
X1406120Y-110825D01*
X1407050Y-108950D01*
G01X1413405Y-111451D02*
X1414490Y-109992D01*
X1415420Y-109159D01*
X1416660Y-108742D01*
X1417745Y-109159D01*
X1418520Y-109992D01*
X1419140Y-111242D01*
X1419295Y-112700D01*
X1419140Y-113950D01*
X1418520Y-115201D01*
X1417590Y-116242D01*
X1416505Y-116658D01*
X1415265Y-116242D01*
X1414180Y-114992D01*
X1413560Y-113117D01*
X1413405Y-111034D01*
X1413715Y-108325D01*
X1414180Y-106867D01*
X1414955Y-105409D01*
X1416040Y-104367D01*
X1417125Y-104158D01*
X1418210Y-104575D01*
X1418985Y-105617D01*
G01X1403950Y-81226D02*
Y-68726D01*
X1402090Y-71225D01*
G01Y-81226D02*
X1405810D01*
G01X1413405Y-70809D02*
X1414335Y-69559D01*
X1415420Y-68934D01*
X1416660Y-68726D01*
X1418210Y-69142D01*
X1419295Y-70184D01*
X1419605Y-71434D01*
X1419450Y-72684D01*
X1418830Y-73726D01*
X1415730Y-75809D01*
X1414335Y-77267D01*
X1413405Y-79351D01*
X1413095Y-81226D01*
X1419605D01*
G01X1403950Y60507D02*
Y73007D01*
X1402090Y70507D01*
G01Y60507D02*
X1405810D01*
G01X1413405Y70923D02*
X1414335Y72173D01*
X1415420Y72798D01*
X1416660Y73007D01*
X1418210Y72590D01*
X1419295Y71548D01*
X1419605Y70298D01*
X1419450Y69048D01*
X1418830Y68006D01*
X1415730Y65923D01*
X1414335Y64465D01*
X1413405Y62381D01*
X1413095Y60507D01*
X1419605D01*
G01X1403950Y131372D02*
Y143872D01*
X1402090Y141373D01*
G01Y131372D02*
X1405810D01*
G01X1413405Y136581D02*
X1414490Y138039D01*
X1415420Y138872D01*
X1416660Y139289D01*
X1417745Y138872D01*
X1418520Y138039D01*
X1419140Y136789D01*
X1419295Y135331D01*
X1419140Y134081D01*
X1418520Y132830D01*
X1417590Y131789D01*
X1416505Y131372D01*
X1415265Y131789D01*
X1414180Y133039D01*
X1413560Y134914D01*
X1413405Y136997D01*
X1413715Y139706D01*
X1414180Y141164D01*
X1414955Y142622D01*
X1416040Y143664D01*
X1417125Y143872D01*
X1418210Y143456D01*
X1418985Y142414D01*
G01X1401005Y212655D02*
X1401935Y213905D01*
X1403020Y214530D01*
X1404260Y214739D01*
X1405810Y214322D01*
X1406895Y213280D01*
X1407205Y212030D01*
X1407050Y210780D01*
X1406430Y209738D01*
X1403330Y207655D01*
X1401935Y206197D01*
X1401005Y204113D01*
X1400695Y202238D01*
X1407205D01*
G01X1418210D02*
Y214739D01*
X1412475Y205780D01*
X1420225D01*
G01X1403950Y237672D02*
Y250172D01*
X1402090Y247672D01*
G01Y237672D02*
X1405810D01*
G01X1413405Y248088D02*
X1414335Y249338D01*
X1415420Y249963D01*
X1416660Y250172D01*
X1418210Y249755D01*
X1419295Y248713D01*
X1419605Y247463D01*
X1419450Y246213D01*
X1418830Y245171D01*
X1415730Y243088D01*
X1414335Y241630D01*
X1413405Y239546D01*
X1413095Y237672D01*
X1419605D01*
G01X1401005Y283521D02*
X1401935Y284771D01*
X1403020Y285396D01*
X1404260Y285604D01*
X1405810Y285188D01*
X1406895Y284146D01*
X1407205Y282896D01*
X1407050Y281646D01*
X1406430Y280604D01*
X1403330Y278521D01*
X1401935Y277063D01*
X1401005Y274979D01*
X1400695Y273104D01*
X1407205D01*
G01X1418210D02*
Y285604D01*
X1412475Y276646D01*
X1420225D01*
G01X1400540Y311037D02*
X1401470Y309579D01*
X1402710Y308746D01*
X1404105Y308538D01*
X1405345Y308746D01*
X1406585Y309787D01*
X1407360Y311037D01*
X1407515Y312288D01*
X1407205Y313746D01*
X1406120Y314787D01*
X1405035Y315204D01*
X1403640D01*
G01X1405035D02*
X1405965Y315829D01*
X1406740Y316871D01*
X1407050Y318121D01*
X1406740Y319371D01*
X1405965Y320412D01*
X1404570Y321038D01*
X1403175Y320829D01*
X1401780Y319996D01*
G01X1413405Y313746D02*
X1414490Y315204D01*
X1415420Y316037D01*
X1416660Y316454D01*
X1417745Y316037D01*
X1418520Y315204D01*
X1419140Y313954D01*
X1419295Y312496D01*
X1419140Y311246D01*
X1418520Y309996D01*
X1417590Y308954D01*
X1416505Y308538D01*
X1415265Y308954D01*
X1414180Y310204D01*
X1413560Y312079D01*
X1413405Y314162D01*
X1413715Y316871D01*
X1414180Y318329D01*
X1414955Y319787D01*
X1416040Y320829D01*
X1417125Y321038D01*
X1418210Y320621D01*
X1418985Y319579D01*
G01X1403950Y414836D02*
Y427336D01*
X1402090Y424837D01*
G01Y414836D02*
X1405810D01*
G01X1413405Y425253D02*
X1414335Y426503D01*
X1415420Y427128D01*
X1416660Y427336D01*
X1418210Y426920D01*
X1419295Y425878D01*
X1419605Y424628D01*
X1419450Y423378D01*
X1418830Y422336D01*
X1415730Y420253D01*
X1414335Y418795D01*
X1413405Y416711D01*
X1413095Y414836D01*
X1419605D01*
G01X1400540Y523010D02*
X1401470Y521969D01*
X1402555Y521344D01*
X1403950Y521135D01*
X1405345Y521552D01*
X1406430Y522385D01*
X1407205Y523844D01*
X1407360Y525510D01*
X1407050Y527177D01*
X1406275Y528219D01*
X1405190Y529052D01*
X1404105Y529260D01*
X1403020Y529052D01*
X1401625Y528219D01*
X1402090Y533635D01*
X1406275D01*
G01X1418210Y521135D02*
Y533635D01*
X1412475Y524677D01*
X1420225D01*
G01X1403950Y627434D02*
Y639934D01*
X1402090Y637435D01*
G01Y627434D02*
X1405810D01*
G01X1412940Y629309D02*
X1413870Y628268D01*
X1414955Y627643D01*
X1416350Y627434D01*
X1417745Y627851D01*
X1418830Y628684D01*
X1419605Y630143D01*
X1419760Y631809D01*
X1419450Y633476D01*
X1418675Y634518D01*
X1417590Y635351D01*
X1416505Y635559D01*
X1415420Y635351D01*
X1414025Y634518D01*
X1414490Y639934D01*
X1418675D01*
G01X1397750Y662868D02*
Y675368D01*
X1395890Y672868D01*
G01Y662868D02*
X1399610D01*
G01X1407205Y673284D02*
X1408135Y674534D01*
X1409220Y675159D01*
X1410460Y675368D01*
X1412010Y674951D01*
X1413095Y673909D01*
X1413405Y672659D01*
X1413250Y671409D01*
X1412630Y670367D01*
X1409530Y668284D01*
X1408135Y666826D01*
X1407205Y664742D01*
X1406895Y662868D01*
X1413405D01*
G01X1422550D02*
X1423635Y663076D01*
X1424875Y663701D01*
X1425650Y664742D01*
X1425960Y666201D01*
X1425650Y667659D01*
X1424720Y668909D01*
X1423325Y669534D01*
X1421775D01*
X1420845Y669951D01*
X1420070Y670992D01*
X1419760Y672451D01*
X1420225Y673909D01*
X1421310Y674951D01*
X1422550Y675368D01*
X1423790Y674951D01*
X1424875Y673909D01*
X1425340Y672451D01*
X1425030Y670992D01*
X1424255Y669951D01*
X1423325Y669534D01*
X1421775D01*
X1420380Y668909D01*
X1419450Y667659D01*
X1419140Y666201D01*
X1419450Y664742D01*
X1420225Y663701D01*
X1421465Y663076D01*
X1422550Y662868D01*
G01X1401315Y699758D02*
X1402400Y698717D01*
X1403640Y698300D01*
X1404880Y698717D01*
X1405965Y699967D01*
X1406740Y701842D01*
X1407050Y703717D01*
Y706009D01*
X1406740Y707884D01*
X1405965Y709550D01*
X1405035Y710384D01*
X1403950Y710800D01*
X1402710Y710384D01*
X1401780Y709550D01*
X1401160Y708301D01*
X1400850Y706634D01*
X1401160Y705176D01*
X1401935Y703717D01*
X1402865Y702884D01*
X1403950Y702675D01*
X1405190Y703092D01*
X1406120Y704134D01*
X1407050Y706009D01*
G01X1413405Y703508D02*
X1414490Y704967D01*
X1415420Y705800D01*
X1416660Y706217D01*
X1417745Y705800D01*
X1418520Y704967D01*
X1419140Y703717D01*
X1419295Y702259D01*
X1419140Y701009D01*
X1418520Y699758D01*
X1417590Y698717D01*
X1416505Y698300D01*
X1415265Y698717D01*
X1414180Y699967D01*
X1413560Y701842D01*
X1413405Y703925D01*
X1413715Y706634D01*
X1414180Y708092D01*
X1414955Y709550D01*
X1416040Y710592D01*
X1417125Y710800D01*
X1418210Y710384D01*
X1418985Y709342D01*
G01X1397750Y733734D02*
Y746234D01*
X1395890Y743734D01*
G01Y733734D02*
X1399610D01*
G01X1409840D02*
X1410150Y736442D01*
X1410615Y738733D01*
X1411235Y740817D01*
X1412010Y743108D01*
X1413250Y746234D01*
X1407050D01*
G01X1419140Y736233D02*
X1420070Y734775D01*
X1421310Y733942D01*
X1422705Y733734D01*
X1423945Y733942D01*
X1425185Y734983D01*
X1425960Y736233D01*
X1426115Y737484D01*
X1425805Y738942D01*
X1424720Y739983D01*
X1423635Y740400D01*
X1422240D01*
G01X1423635D02*
X1424565Y741025D01*
X1425340Y742067D01*
X1425650Y743317D01*
X1425340Y744567D01*
X1424565Y745608D01*
X1423170Y746234D01*
X1421775Y746025D01*
X1420380Y745192D01*
G01X1397750Y763950D02*
X1396510Y764158D01*
X1395425Y764991D01*
X1394495Y766242D01*
X1393875Y767700D01*
X1393565Y769367D01*
Y771033D01*
X1393875Y772700D01*
X1394495Y774158D01*
X1395425Y775408D01*
X1396510Y776242D01*
X1397750Y776450D01*
X1398990Y776242D01*
X1400075Y775408D01*
X1401005Y774158D01*
X1401625Y772700D01*
X1401935Y771033D01*
Y769367D01*
X1401625Y767700D01*
X1401005Y766242D01*
X1400075Y764991D01*
X1398990Y764158D01*
X1397750Y763950D01*
G01X1398990Y767283D02*
X1400850Y763950D01*
G01X1410150Y776450D02*
Y763950D01*
G01X1406585Y776450D02*
X1413715D01*
G01X1422550Y763950D02*
Y769575D01*
X1419450Y776450D01*
G01X1425650D02*
X1422550Y769575D01*
G01X1407205Y-40584D02*
X1408290Y-39126D01*
X1409220Y-38293D01*
X1410460Y-37876D01*
X1411545Y-38293D01*
X1412320Y-39126D01*
X1412940Y-40376D01*
X1413095Y-41834D01*
X1412940Y-43084D01*
X1412320Y-44335D01*
X1411390Y-45376D01*
X1410305Y-45792D01*
X1409065Y-45376D01*
X1407980Y-44126D01*
X1407360Y-42251D01*
X1407205Y-40168D01*
X1407515Y-37459D01*
X1407980Y-36001D01*
X1408755Y-34543D01*
X1409840Y-33501D01*
X1410925Y-33292D01*
X1412010Y-33709D01*
X1412785Y-34751D01*
G01X1410150Y-10360D02*
X1411235Y-10151D01*
X1412475Y-9526D01*
X1413250Y-8485D01*
X1413560Y-7026D01*
X1413250Y-5568D01*
X1412320Y-4318D01*
X1410925Y-3693D01*
X1409375D01*
X1408445Y-3276D01*
X1407670Y-2235D01*
X1407360Y-776D01*
X1407825Y682D01*
X1408910Y1724D01*
X1410150Y2140D01*
X1411390Y1724D01*
X1412475Y682D01*
X1412940Y-776D01*
X1412630Y-2235D01*
X1411855Y-3276D01*
X1410925Y-3693D01*
X1409375D01*
X1407980Y-4318D01*
X1407050Y-5568D01*
X1406740Y-7026D01*
X1407050Y-8485D01*
X1407825Y-9526D01*
X1409065Y-10151D01*
X1410150Y-10360D01*
G01X1407205Y30282D02*
X1408290Y31740D01*
X1409220Y32573D01*
X1410460Y32990D01*
X1411545Y32573D01*
X1412320Y31740D01*
X1412940Y30490D01*
X1413095Y29032D01*
X1412940Y27782D01*
X1412320Y26532D01*
X1411390Y25490D01*
X1410305Y25074D01*
X1409065Y25490D01*
X1407980Y26740D01*
X1407360Y28615D01*
X1407205Y30698D01*
X1407515Y33407D01*
X1407980Y34865D01*
X1408755Y36323D01*
X1409840Y37365D01*
X1410925Y37574D01*
X1412010Y37157D01*
X1412785Y36115D01*
G01X1412010Y95940D02*
Y108440D01*
X1406275Y99481D01*
X1414025D01*
G01X1412010Y166806D02*
Y179306D01*
X1406275Y170347D01*
X1414025D01*
G01X1407205Y349178D02*
X1408290Y350637D01*
X1409220Y351470D01*
X1410460Y351887D01*
X1411545Y351470D01*
X1412320Y350637D01*
X1412940Y349387D01*
X1413095Y347929D01*
X1412940Y346679D01*
X1412320Y345428D01*
X1411390Y344387D01*
X1410305Y343970D01*
X1409065Y344387D01*
X1407980Y345637D01*
X1407360Y347512D01*
X1407205Y349595D01*
X1407515Y352304D01*
X1407980Y353762D01*
X1408755Y355220D01*
X1409840Y356262D01*
X1410925Y356470D01*
X1412010Y356054D01*
X1412785Y355012D01*
G01X1410150Y379404D02*
X1411235Y379612D01*
X1412475Y380237D01*
X1413250Y381278D01*
X1413560Y382737D01*
X1413250Y384195D01*
X1412320Y385445D01*
X1410925Y386070D01*
X1409375D01*
X1408445Y386487D01*
X1407670Y387528D01*
X1407360Y388987D01*
X1407825Y390445D01*
X1408910Y391487D01*
X1410150Y391904D01*
X1411390Y391487D01*
X1412475Y390445D01*
X1412940Y388987D01*
X1412630Y387528D01*
X1411855Y386487D01*
X1410925Y386070D01*
X1409375D01*
X1407980Y385445D01*
X1407050Y384195D01*
X1406740Y382737D01*
X1407050Y381278D01*
X1407825Y380237D01*
X1409065Y379612D01*
X1410150Y379404D01*
G01Y450270D02*
X1411235Y450478D01*
X1412475Y451103D01*
X1413250Y452144D01*
X1413560Y453603D01*
X1413250Y455061D01*
X1412320Y456311D01*
X1410925Y456936D01*
X1409375D01*
X1408445Y457353D01*
X1407670Y458394D01*
X1407360Y459853D01*
X1407825Y461311D01*
X1408910Y462353D01*
X1410150Y462770D01*
X1411390Y462353D01*
X1412475Y461311D01*
X1412940Y459853D01*
X1412630Y458394D01*
X1411855Y457353D01*
X1410925Y456936D01*
X1409375D01*
X1407980Y456311D01*
X1407050Y455061D01*
X1406740Y453603D01*
X1407050Y452144D01*
X1407825Y451103D01*
X1409065Y450478D01*
X1410150Y450270D01*
G01X1407205Y490910D02*
X1408290Y492369D01*
X1409220Y493202D01*
X1410460Y493619D01*
X1411545Y493202D01*
X1412320Y492369D01*
X1412940Y491119D01*
X1413095Y489661D01*
X1412940Y488411D01*
X1412320Y487160D01*
X1411390Y486119D01*
X1410305Y485702D01*
X1409065Y486119D01*
X1407980Y487369D01*
X1407360Y489244D01*
X1407205Y491327D01*
X1407515Y494036D01*
X1407980Y495494D01*
X1408755Y496952D01*
X1409840Y497994D01*
X1410925Y498202D01*
X1412010Y497786D01*
X1412785Y496744D01*
G01X1407205Y561776D02*
X1408290Y563235D01*
X1409220Y564068D01*
X1410460Y564485D01*
X1411545Y564068D01*
X1412320Y563235D01*
X1412940Y561985D01*
X1413095Y560527D01*
X1412940Y559277D01*
X1412320Y558027D01*
X1411390Y556985D01*
X1410305Y556568D01*
X1409065Y556985D01*
X1407980Y558235D01*
X1407360Y560110D01*
X1407205Y562193D01*
X1407515Y564902D01*
X1407980Y566360D01*
X1408755Y567818D01*
X1409840Y568860D01*
X1410925Y569068D01*
X1412010Y568652D01*
X1412785Y567610D01*
G01X1407515Y593460D02*
X1408600Y592418D01*
X1409840Y592002D01*
X1411080Y592418D01*
X1412165Y593668D01*
X1412940Y595543D01*
X1413250Y597418D01*
Y599710D01*
X1412940Y601585D01*
X1412165Y603251D01*
X1411235Y604085D01*
X1410150Y604502D01*
X1408910Y604085D01*
X1407980Y603251D01*
X1407360Y602002D01*
X1407050Y600335D01*
X1407360Y598877D01*
X1408135Y597418D01*
X1409065Y596585D01*
X1410150Y596376D01*
X1411390Y596793D01*
X1412320Y597835D01*
X1413250Y599710D01*
G01X235900Y686800D02*
X236300Y686400D01*
G01X825800Y-128125D02*
Y832700D01*
X1448900D01*
Y-128125D01*
X825800D01*
G01Y-92692D02*
X1448900D01*
G01X825800Y-57259D02*
X1448900D01*
G01X825800Y-21826D02*
X1448900D01*
G01X825800Y13607D02*
X1448900D01*
G01X825800Y49040D02*
X1448900D01*
G01X825800Y84473D02*
X1448900D01*
G01X825800Y119906D02*
X1448900D01*
G01X825800Y155339D02*
X1448900D01*
G01X825800Y190772D02*
X1448900D01*
G01X825800Y226205D02*
X1448900D01*
G01X825800Y261638D02*
X1448900D01*
G01X825800Y297071D02*
X1448900D01*
G01X825800Y332504D02*
X1448900D01*
G01X825800Y367937D02*
X1448900D01*
G01X825800Y403370D02*
X1448900D01*
G01X825800Y438803D02*
X1448900D01*
G01X825800Y474236D02*
X1448900D01*
G01X825800Y509669D02*
X1448900D01*
G01X825800Y545102D02*
X1448900D01*
G01X825800Y580535D02*
X1448900D01*
G01X825800Y615968D02*
X1448900D01*
G01X825800Y651401D02*
X1448900D01*
G01X825800Y686834D02*
X1448900D01*
G01X825800Y722267D02*
X1448900D01*
G01X825800Y757700D02*
X1448900D01*
G01X825800Y782700D02*
X1448900D01*
G01X825800Y807700D02*
X1448900D01*
G01X915700Y782700D02*
Y-128125D01*
G01X1117200Y782700D02*
Y-128125D01*
G01X1244300Y782700D02*
Y-128125D01*
G01X1371400Y782700D02*
Y-128125D01*
G54D22*
X-136009Y130700D03*
Y151200D03*
Y386700D03*
Y407200D03*
Y635700D03*
Y656200D03*
X870750Y491952D03*
G54D13*
X-586792Y245331D03*
X-585400Y442200D03*
X-559209Y184700D03*
X-561809Y245100D03*
X-558709Y381400D03*
X-559500Y441400D03*
X-560309Y601800D03*
X-508909Y99500D03*
X-524409Y284300D03*
Y478900D03*
X-516900Y695300D03*
X-502009Y264700D03*
Y278900D03*
Y271800D03*
X-498500Y466200D03*
X-489009Y466400D03*
X-470300Y180000D03*
X-472009Y487200D03*
X-424400Y-51600D03*
X-429709Y57398D03*
X-429909Y80298D03*
X-429809Y72598D03*
Y64998D03*
X-429709Y323598D03*
Y318498D03*
Y312398D03*
Y328298D03*
X-426009Y431300D03*
X-428619Y565948D03*
Y559448D03*
Y578948D03*
Y572448D03*
X-416200Y471500D03*
X-396600Y128400D03*
X-395009Y181400D03*
X-397709Y186000D03*
X-398509Y375300D03*
X-400909Y431300D03*
X-383809Y563598D03*
X-387209Y569400D03*
X-383769Y574898D03*
X-394009Y611700D03*
X-381809Y61798D03*
X-381209Y56898D03*
X-381709Y67298D03*
X-381109Y72098D03*
X-381009Y312598D03*
X-381209Y322598D03*
X-381809Y317998D03*
X-381009Y327098D03*
X-314800Y-12500D03*
X-310700Y243200D03*
X-309100Y490400D03*
X-279000Y-11300D03*
X-115009Y109600D03*
X-100700Y129300D03*
X-108009Y154400D03*
X-115009Y177200D03*
X-108009Y228700D03*
Y242900D03*
Y235800D03*
X-109600Y420600D03*
Y427300D03*
X-109676Y432700D03*
X-115400Y468400D03*
X-115500Y462900D03*
X-95600Y486800D03*
X-31900Y649000D03*
X-26600D03*
X-809Y630200D03*
Y625800D03*
X23100Y577500D03*
X46500Y568200D03*
X65400Y310700D03*
X63991Y441400D03*
X62954Y553687D03*
X72591Y558200D03*
X86800Y555700D03*
X95100Y555600D03*
X84900Y579900D03*
X99891Y639300D03*
X86100Y639798D03*
X122000Y555900D03*
X116491Y556000D03*
X116191Y618900D03*
X112291Y626982D03*
X137491Y553300D03*
X143200Y576000D03*
X151200Y567200D03*
X190691Y573300D03*
X191900Y616400D03*
X223491Y548500D03*
X211191Y555100D03*
X216391D03*
X221800Y630900D03*
X239791Y555100D03*
X235491Y625700D03*
X230391D03*
X249400Y597900D03*
X261591Y619900D03*
X266191Y603700D03*
X361691Y38100D03*
X355300Y385800D03*
X357300Y458000D03*
X363700Y458300D03*
X376300Y458400D03*
X370000Y458300D03*
X382600Y458800D03*
X389791Y42200D03*
X406100Y459600D03*
X388400Y458900D03*
X393400Y459200D03*
X408000Y239000D03*
X421900Y459800D03*
X417000Y459700D03*
X460591Y202400D03*
X459591Y641600D03*
X464191Y637000D03*
X459800Y663800D03*
X469900Y202200D03*
X477100Y421900D03*
X486100Y458600D03*
X468791Y583700D03*
Y590200D03*
Y596700D03*
Y632500D03*
X548300Y592900D03*
X550991Y560000D03*
X870750Y669118D03*
G54D32*
G01X-604800Y749900D02*
Y754000D01*
X778800D01*
Y-73200D01*
X-604800D01*
Y751000D01*
G54D23*
X-96209Y624100D03*
X-56209D03*
X532991Y533600D03*
X542991D03*
X552991D03*
X562991D03*
X870750Y562818D03*
G54D14*
X-527009Y-19600D03*
Y142600D03*
X-526509Y337300D03*
X-527009Y558900D03*
X-512009Y40400D03*
Y202600D03*
X-511509Y397300D03*
X-512009Y618900D03*
X-472009Y40400D03*
Y202600D03*
X-471509Y397300D03*
X-472009Y618900D03*
X-457009Y-9600D03*
Y152600D03*
X-456509Y347300D03*
X-457009Y568900D03*
X-58078Y499580D03*
Y507100D03*
Y514620D03*
X-39574Y54500D03*
X-43472Y57315D03*
X-44948Y61941D03*
Y67158D03*
Y72472D03*
Y77689D03*
X-43472Y82315D03*
X-39535Y85169D03*
X-44948Y101311D03*
X-43472Y96685D03*
X-39535Y93831D03*
X-43472Y121685D03*
X-44948Y117059D03*
Y111842D03*
Y106626D03*
X-39574Y124500D03*
X-40772Y271715D03*
X-42248Y276341D03*
Y281558D03*
Y286872D03*
Y292089D03*
X-40772Y296715D03*
X-42248Y326243D03*
Y321026D03*
Y315711D03*
X-40772Y311085D03*
Y336085D03*
X-42248Y331459D03*
X-29200Y61941D03*
X-30676Y57315D03*
X-34574Y54500D03*
X-30676Y82315D03*
X-29200Y77689D03*
Y72472D03*
Y67158D03*
X-34613Y85169D03*
X-30676Y96685D03*
X-29200Y101311D03*
X-34613Y93831D03*
X-29200Y106626D03*
Y111842D03*
Y117059D03*
X-30676Y121685D03*
X-34574Y124500D03*
X-26500Y281558D03*
Y276341D03*
X-27976Y271715D03*
X-31874Y268900D03*
X-36874D03*
X-27976Y296715D03*
X-26500Y292089D03*
Y286872D03*
X-36835Y299569D03*
X-31913D03*
X-27976Y311085D03*
X-26500Y315711D03*
Y321026D03*
Y326243D03*
X-36835Y308231D03*
X-31913D03*
X-26500Y331459D03*
X-27976Y336085D03*
X-31874Y338900D03*
X-36874D03*
X15291Y22700D03*
X15391Y229300D03*
X14891Y434100D03*
X18300Y484758D03*
Y479541D03*
X19776Y474915D03*
Y499915D03*
X18300Y495289D03*
Y489974D03*
X19776Y514285D03*
X18300Y518911D03*
Y524128D03*
Y529442D03*
Y534659D03*
X19776Y539285D03*
X23674Y472100D03*
X28674D03*
X32572Y474915D03*
X34048Y479541D03*
Y484758D03*
Y489974D03*
Y495289D03*
X32572Y499915D03*
X28635Y502769D03*
X23713D03*
X34048Y524128D03*
Y518911D03*
X32572Y514285D03*
X28635Y511431D03*
X23713D03*
X23674Y542100D03*
X28674D03*
X32572Y539285D03*
X34048Y534659D03*
Y529442D03*
X47178Y81980D03*
Y97020D03*
Y89500D03*
X49878Y303900D03*
Y296380D03*
Y311420D03*
X111291Y22500D03*
X111191Y229500D03*
X111091Y434400D03*
X207491Y23200D03*
X207691Y229400D03*
X207091Y434400D03*
X303591Y22300D03*
X304091Y229400D03*
X303491Y434300D03*
X870750Y102190D03*
Y173056D03*
Y243922D03*
Y385654D03*
Y598252D03*
Y704550D03*
G54D33*
G01X2091Y-22402D02*
X28091D01*
G01X6291Y32098D02*
Y14598D01*
G01X6591Y182898D02*
X32591D01*
G01X5491Y240198D02*
Y222698D01*
G01X6591Y388398D02*
X32591D01*
G01X5191Y445698D02*
Y428198D01*
G01X23891Y31698D02*
Y14198D01*
G01X24791Y239998D02*
Y222498D01*
G01X24691Y445298D02*
Y427798D01*
G01X103091Y-22602D02*
X129091D01*
G01X101791Y33598D02*
Y16098D01*
G01X103591Y182898D02*
X129591D01*
G01X101491Y240798D02*
Y223298D01*
G01X102591Y388398D02*
X128591D01*
G01X100891Y445998D02*
Y428498D01*
G01X120591Y32898D02*
Y15398D01*
G01X120491Y240798D02*
Y223298D01*
G01X120891Y445898D02*
Y428398D01*
G01X146091Y59398D02*
X172091D01*
G01X145591Y142898D02*
X171591D01*
G01X145591Y264398D02*
X171591D01*
G01X145991Y348298D02*
X171991D01*
G01X145591Y470398D02*
X171591D01*
G01X199591Y-23102D02*
X225591D01*
G01X197791Y34398D02*
Y16898D01*
G01X199591Y182898D02*
X225591D01*
G01X198491Y240798D02*
Y223298D01*
G01X199591Y388398D02*
X225591D01*
G01X196591Y445998D02*
Y428498D01*
G01X218091Y34298D02*
Y16798D01*
G01X216991Y240898D02*
Y223398D01*
G01X216591Y445398D02*
Y427898D01*
G01X296091Y-23102D02*
X322091D01*
G01X293891Y32798D02*
Y15298D01*
G01X295591Y182898D02*
X321591D01*
G01X294091Y239698D02*
Y222198D01*
G01X296091Y388398D02*
X322091D01*
G01X292691Y445898D02*
Y428398D01*
G01X313791Y32198D02*
Y14698D01*
G01X314591Y239198D02*
Y221698D01*
G01X315191Y445398D02*
Y427898D01*
G54D24*
X-37074Y69815D03*
Y109185D03*
X-34374Y284215D03*
Y323585D03*
X26174Y487415D03*
Y526785D03*
X870750Y-39542D03*
G54D15*
X-537100Y689200D03*
X-469200Y709900D03*
X-415500Y238300D03*
X-408900Y486900D03*
X-185209Y706798D03*
X-147300Y694400D03*
X-153719Y706798D03*
X-147600Y707000D03*
X-153900Y694100D03*
X-129100Y475200D03*
X-128500Y693800D03*
X-122200Y693900D03*
X-128600Y706600D03*
X-128500Y727100D03*
X-122200Y727500D03*
X-127700Y718400D03*
X-103500Y706900D03*
X-109500Y693500D03*
X-109800Y707000D03*
X-116300Y693800D03*
X-115000Y727200D03*
X-109200D03*
X-102000Y739100D03*
X-98600Y505700D03*
X-97500Y510700D03*
X-86800Y509400D03*
X-92200Y510800D03*
X-90800Y707100D03*
X-84700D03*
X-84500Y694400D03*
X-91200Y694200D03*
X-97600Y693800D03*
X-90800Y727800D03*
X-81000Y727900D03*
X-59000Y237600D03*
X-73800Y488650D03*
X-73100Y508000D03*
X-77550Y510050D03*
X-65589Y694200D03*
X-54100Y233500D03*
X-56400Y247100D03*
X-52900Y374700D03*
X-49450Y377650D03*
X-47900Y503600D03*
X-43600Y587800D03*
X-38700Y577500D03*
X-41500Y583100D03*
X-49600Y589800D03*
X-45100Y729100D03*
X-57400Y727000D03*
X-32100Y576200D03*
X-23550Y577950D03*
X-34900Y735500D03*
X-15300Y580700D03*
X10800Y678100D03*
X18200Y704900D03*
X40800Y570000D03*
X29900Y558900D03*
X32091Y582205D03*
X22591Y617107D03*
X40591Y610900D03*
X40300Y639700D03*
X28200Y713600D03*
X62241Y575941D03*
X52800Y595200D03*
X56900Y593000D03*
X47284Y610900D03*
X48000Y629200D03*
X54300Y707200D03*
X63140Y72000D03*
X70500Y97800D03*
X63660Y88300D03*
X64800Y285300D03*
X73500Y300800D03*
X66300Y301500D03*
X81400Y311000D03*
X68700Y593400D03*
X77900Y601500D03*
X76691Y592693D03*
X68600Y606100D03*
X68445Y616698D03*
X79300Y652300D03*
X67800Y669100D03*
X73400Y706800D03*
X66600Y707300D03*
X79500Y708700D03*
X79300Y694400D03*
X98300Y610200D03*
X90800Y668300D03*
X85600Y652000D03*
X96200Y651800D03*
X97900Y667200D03*
X98300Y706200D03*
X85800Y693800D03*
X85300Y706700D03*
X92000Y705400D03*
X111900Y569546D03*
X111791Y562619D03*
X104800Y665000D03*
X114500Y651900D03*
X119200Y663900D03*
X119000Y672300D03*
X104800Y673400D03*
X110776Y694200D03*
X104800Y706600D03*
X137791Y610500D03*
X129200Y639400D03*
X128400Y663600D03*
X142700Y694200D03*
X135900Y706800D03*
X158100Y649600D03*
X161100Y672800D03*
Y706800D03*
X148500Y694600D03*
X164500Y638400D03*
X170900Y664000D03*
X196791Y578900D03*
X187500Y585400D03*
X187091Y592000D03*
X191900Y609754D03*
X194500Y591700D03*
X198400Y610000D03*
X197800Y650600D03*
X191500Y700500D03*
X218000Y610000D03*
X218284Y623200D03*
X229900Y569500D03*
X259800Y568500D03*
X260191Y561907D03*
X256191Y613107D03*
X258100Y645100D03*
X248800Y663800D03*
X266400Y626800D03*
X271300Y615800D03*
X382800Y253600D03*
X400500Y459500D03*
X413100Y48300D03*
Y124400D03*
X424500Y201500D03*
X417300Y408200D03*
X411400Y459700D03*
X426900Y534400D03*
X414600Y626800D03*
X434400Y41400D03*
X446500Y438500D03*
X432091Y620407D03*
X438300Y647100D03*
X457400Y131000D03*
X451300Y209100D03*
X448900Y337000D03*
X461400Y415400D03*
Y439800D03*
X468200Y463900D03*
X462700Y449900D03*
X491700Y666600D03*
X585700Y460300D03*
X574691Y565000D03*
X574791Y586600D03*
X588800Y666900D03*
X627054Y617300D03*
X635600Y582340D03*
X642500Y599300D03*
X634046Y610700D03*
X650240Y599400D03*
X641540Y630700D03*
X640100Y611700D03*
X657100Y583440D03*
X659900Y606900D03*
X666600Y608100D03*
X666700Y614600D03*
X667200Y629000D03*
X679291Y599558D03*
X733400Y221500D03*
X870750Y739984D03*
G54D16*
X-522830Y-31802D03*
Y130398D03*
X-522330Y325098D03*
X-522830Y546698D03*
X-462830Y-31802D03*
Y130398D03*
X-462330Y325098D03*
X-462830Y546698D03*
X870750Y456520D03*
G54D25*
X-31909Y2200D03*
Y207800D03*
Y413400D03*
X148953Y2200D03*
Y207800D03*
Y413400D03*
X165491Y2200D03*
Y207800D03*
Y413400D03*
X346353Y2200D03*
Y207800D03*
Y413400D03*
X870750Y66757D03*
G54D17*
X-387009Y128400D03*
Y375300D03*
X-382009Y611500D03*
X991Y638400D03*
X10991D03*
X305500Y688400D03*
Y678400D03*
X315500Y688400D03*
Y678400D03*
X338000Y688400D03*
Y678400D03*
X348000Y688400D03*
Y678400D03*
X387491Y50900D03*
X377491D03*
X370500Y688400D03*
Y678400D03*
X390500Y688400D03*
Y678400D03*
X410500Y688400D03*
Y678400D03*
X420500Y688400D03*
Y678400D03*
X470500Y688400D03*
Y678400D03*
X499500Y688400D03*
Y678400D03*
X545200Y605900D03*
X566200D03*
X603091Y9398D03*
X613091Y169398D03*
X593091Y369398D03*
Y379398D03*
X605091Y562400D03*
Y552400D03*
Y577800D03*
Y587800D03*
X598000Y688400D03*
Y678400D03*
X608000Y688400D03*
Y678400D03*
X625500Y688400D03*
Y678400D03*
X645991Y515400D03*
X655991D03*
X673000Y688400D03*
Y678400D03*
X733091Y129398D03*
Y369398D03*
Y379398D03*
X743091Y9398D03*
X753091Y159398D03*
X749991Y515400D03*
X759991D03*
X870750Y527385D03*
G54D26*
X-24709Y22700D03*
X-24609Y229300D03*
X-25109Y434100D03*
X-14709Y22700D03*
X-4709D03*
X-14609Y229300D03*
X-4609D03*
X-15109Y434100D03*
X-5109D03*
X71291Y22500D03*
X81291D03*
X71191Y229500D03*
X81191D03*
X71091Y434400D03*
X81091D03*
X91291Y22500D03*
X91191Y229500D03*
X91091Y434400D03*
X167091D03*
X167491Y23200D03*
X177491D03*
X167691Y229400D03*
X177691D03*
X177091Y434400D03*
X187091D03*
X187491Y23200D03*
X187691Y229400D03*
X263591Y22300D03*
X264091Y229400D03*
X263491Y434300D03*
X273591Y22300D03*
X283591D03*
X274091Y229400D03*
X284091D03*
X273491Y434300D03*
X283491D03*
X870750Y314788D03*
G54D18*
X-361209Y64400D03*
Y319400D03*
Y569400D03*
X-291209Y64400D03*
Y319400D03*
Y569400D03*
X-142409Y64500D03*
X-152609Y552700D03*
X-142309Y290000D03*
X-82609Y552700D03*
X-72409Y64500D03*
X-72309Y290000D03*
X870750Y-74976D03*
G54D27*
X-9Y-100D03*
Y205500D03*
Y411100D03*
X19991Y-300D03*
X9991Y-13100D03*
X19991Y205300D03*
X9991Y192500D03*
Y398100D03*
X19991Y410900D03*
X29991Y-13100D03*
Y192500D03*
Y398100D03*
X96391Y-100D03*
Y205500D03*
Y411100D03*
X116391Y-300D03*
X106391Y-13100D03*
X116391Y205300D03*
X106391Y192500D03*
Y398100D03*
X116391Y410900D03*
X126391Y-13100D03*
Y192500D03*
Y398100D03*
X192691Y-100D03*
X202691Y-13100D03*
X192691Y205500D03*
X202691Y192500D03*
Y398100D03*
X192691Y411100D03*
X212691Y-300D03*
X222691Y-13100D03*
X212691Y205300D03*
X222691Y192500D03*
Y398100D03*
X212691Y410900D03*
X289091Y-100D03*
X299091Y-13100D03*
X289091Y205500D03*
X299091Y192500D03*
Y398100D03*
X289091Y411100D03*
X309091Y-300D03*
X319091Y-13100D03*
X309091Y205300D03*
X319091Y192500D03*
Y398100D03*
X309091Y410900D03*
X367291Y-14300D03*
Y10700D03*
Y191300D03*
Y216300D03*
Y397000D03*
Y422000D03*
X387291Y-14300D03*
X377291D03*
X387291Y10700D03*
X377291D03*
X387291Y191300D03*
X377291D03*
X387291Y216300D03*
X377291D03*
X387291Y397000D03*
X377291D03*
X387291Y422000D03*
X377291D03*
X407291Y-14300D03*
X397291D03*
X407291Y10700D03*
X397291D03*
X407291Y191300D03*
X397291D03*
X407291Y216300D03*
X397291D03*
X407291Y397000D03*
X397291D03*
X407291Y422000D03*
X397291D03*
X427291Y-14300D03*
X417291D03*
X427291Y10700D03*
X417291D03*
X427291Y191300D03*
X417291D03*
X427291Y216300D03*
X417291D03*
X427291Y397000D03*
X417291D03*
X427291Y422000D03*
X417291D03*
X437291Y-14300D03*
Y10700D03*
Y191300D03*
Y216300D03*
Y397000D03*
Y422000D03*
G54D28*
X-2509Y153100D03*
X6691D03*
X-2509Y358700D03*
X12391Y-52500D03*
X22191D03*
X7291Y358700D03*
X46691Y153100D03*
X47291Y358700D03*
X62191Y-52500D03*
X56491Y153100D03*
Y358700D03*
X71391Y-52500D03*
X158691Y71600D03*
X158791Y83100D03*
Y123100D03*
X158691Y130600D03*
Y277300D03*
X158791Y288700D03*
Y328700D03*
X158691Y336300D03*
Y482900D03*
X158791Y494300D03*
Y534300D03*
X158691Y541900D03*
X870750Y279354D03*
G54D19*
X-363200Y243400D03*
Y253400D03*
Y278400D03*
Y268400D03*
X-350300Y-1700D03*
Y-11700D03*
Y23300D03*
Y13300D03*
X-362000Y503400D03*
Y493400D03*
Y528400D03*
Y518400D03*
X870750Y421086D03*
G54D29*
X528491Y59400D03*
Y186900D03*
X527991Y314400D03*
X528491Y441800D03*
X567861Y59400D03*
Y186900D03*
X567361Y314400D03*
X567861Y441800D03*
X668791Y59400D03*
Y186900D03*
Y314400D03*
Y441800D03*
X708161Y59400D03*
Y186900D03*
Y314400D03*
Y441800D03*
X870750Y137622D03*
M02*
