G04 ================== begin FILE IDENTIFICATION RECORD ==================*
G04 Layout Name:  solutionstida01606_powercard_rev17.brd*
G04 Film Name:    DrillDimensions*
G04 File Format:  Gerber RS274X*
G04 File Origin:  Cadence Allegro -unreleased*
G04 Origin Date:  Fri Aug 27 11:16:49 2021*
G04 *
G04 Layer:  MANUFACTURING/NCLEGEND-1-4*
G04 Layer:  MANUFACTURING/NCDRILL_LEGEND*
G04 Layer:  MANUFACTURING/NCDRILL_FIGURE*
G04 Layer:  BOARD GEOMETRY/OUTLINE*
G04 Layer:  BOARD GEOMETRY/DIMENSION*
G04 *
G04 Offset:    (0.000 0.000)*
G04 Mirror:    No*
G04 Mode:      Positive*
G04 Rotation:  0*
G04 FullContactRelief:  No*
G04 UndefLineWidth:     8.000*
G04 ================== end FILE IDENTIFICATION RECORD ====================*
%FSLAX25Y25*MOIN*%
%IR0*IPPOS*OFA0.00000B0.00000*MIA0B0*SFA1.00000B1.00000*%
%AMMACRO28*
1,1,.008,.026,0.0*
20,1,.008,.026,0.0,.025605,-.004515,0.0*
1,1,.008,.025605,-.004515*
20,1,.008,.025605,-.004515,.024432,-.008893,0.0*
1,1,.008,.024432,-.008893*
20,1,.008,.024432,-.008893,.022517,-.013,0.0*
1,1,.008,.022517,-.013*
20,1,.008,.022517,-.013,.019917,-.016712,0.0*
1,1,.008,.019917,-.016712*
20,1,.008,.019917,-.016712,.016712,-.019917,0.0*
1,1,.008,.016712,-.019917*
20,1,.008,.016712,-.019917,.013,-.022517,0.0*
1,1,.008,.013,-.022517*
20,1,.008,.013,-.022517,.008893,-.024432,0.0*
1,1,.008,.008893,-.024432*
20,1,.008,.008893,-.024432,.004515,-.025605,0.0*
1,1,.008,.004515,-.025605*
20,1,.008,.004515,-.025605,0.0,-.026,0.0*
1,1,.008,0.0,-.026*
20,1,.008,0.0,-.026,-.004515,-.025605,0.0*
1,1,.008,-.004515,-.025605*
20,1,.008,-.004515,-.025605,-.008893,-.024432,0.0*
1,1,.008,-.008893,-.024432*
20,1,.008,-.008893,-.024432,-.013,-.022517,0.0*
1,1,.008,-.013,-.022517*
20,1,.008,-.013,-.022517,-.016712,-.019917,0.0*
1,1,.008,-.016712,-.019917*
20,1,.008,-.016712,-.019917,-.019917,-.016712,0.0*
1,1,.008,-.019917,-.016712*
20,1,.008,-.019917,-.016712,-.022517,-.013,0.0*
1,1,.008,-.022517,-.013*
20,1,.008,-.022517,-.013,-.024432,-.008893,0.0*
1,1,.008,-.024432,-.008893*
20,1,.008,-.024432,-.008893,-.025605,-.004515,0.0*
1,1,.008,-.025605,-.004515*
20,1,.008,-.025605,-.004515,-.026,0.0,0.0*
1,1,.008,-.026,0.0*
20,1,.008,-.026,0.0,-.025605,.004515,0.0*
1,1,.008,-.025605,.004515*
20,1,.008,-.025605,.004515,-.024432,.008893,0.0*
1,1,.008,-.024432,.008893*
20,1,.008,-.024432,.008893,-.022517,.013,0.0*
1,1,.008,-.022517,.013*
20,1,.008,-.022517,.013,-.019917,.016712,0.0*
1,1,.008,-.019917,.016712*
20,1,.008,-.019917,.016712,-.016712,.019917,0.0*
1,1,.008,-.016712,.019917*
20,1,.008,-.016712,.019917,-.013,.022517,0.0*
1,1,.008,-.013,.022517*
20,1,.008,-.013,.022517,-.008893,.024432,0.0*
1,1,.008,-.008893,.024432*
20,1,.008,-.008893,.024432,-.004515,.025605,0.0*
1,1,.008,-.004515,.025605*
20,1,.008,-.004515,.025605,0.0,.026,0.0*
1,1,.008,0.0,.026*
20,1,.008,0.0,.026,.004515,.025605,0.0*
1,1,.008,.004515,.025605*
20,1,.008,.004515,.025605,.008893,.024432,0.0*
1,1,.008,.008893,.024432*
20,1,.008,.008893,.024432,.013,.022517,0.0*
1,1,.008,.013,.022517*
20,1,.008,.013,.022517,.016712,.019917,0.0*
1,1,.008,.016712,.019917*
20,1,.008,.016712,.019917,.019917,.016712,0.0*
1,1,.008,.019917,.016712*
20,1,.008,.019917,.016712,.022517,.013,0.0*
1,1,.008,.022517,.013*
20,1,.008,.022517,.013,.024432,.008893,0.0*
1,1,.008,.024432,.008893*
20,1,.008,.024432,.008893,.025605,.004515,0.0*
1,1,.008,.025605,.004515*
20,1,.008,.025605,.004515,.026,0.0,0.0*
1,1,.008,.026,0.0*
%
%ADD28MACRO28*%
%AMMACRO11*
1,1,.008,.09,0.0*
20,1,.008,.09,0.0,-.09,0.0,0.0*
1,1,.008,-.09,0.0*
1,1,.008,0.0,.09*
20,1,.008,0.0,.09,0.0,-.09,0.0*
1,1,.008,0.0,-.09*
%
%ADD11MACRO11*%
%AMMACRO12*
1,1,.008,.04,0.0*
20,1,.008,.04,0.0,-.04,0.0,0.0*
1,1,.008,-.04,0.0*
1,1,.008,0.0,.04*
20,1,.008,0.0,.04,0.0,-.04,0.0*
1,1,.008,0.0,-.04*
%
%ADD12MACRO12*%
%AMMACRO13*
1,1,.008,.02,0.0*
20,1,.008,.02,0.0,.019696,-.003473,0.0*
1,1,.008,.019696,-.003473*
20,1,.008,.019696,-.003473,.018794,-.00684,0.0*
1,1,.008,.018794,-.00684*
20,1,.008,.018794,-.00684,.017321,-.01,0.0*
1,1,.008,.017321,-.01*
20,1,.008,.017321,-.01,.015321,-.012856,0.0*
1,1,.008,.015321,-.012856*
20,1,.008,.015321,-.012856,.012856,-.015321,0.0*
1,1,.008,.012856,-.015321*
20,1,.008,.012856,-.015321,.01,-.017321,0.0*
1,1,.008,.01,-.017321*
20,1,.008,.01,-.017321,.00684,-.018794,0.0*
1,1,.008,.00684,-.018794*
20,1,.008,.00684,-.018794,.003473,-.019696,0.0*
1,1,.008,.003473,-.019696*
20,1,.008,.003473,-.019696,0.0,-.02,0.0*
1,1,.008,0.0,-.02*
20,1,.008,0.0,-.02,-.003473,-.019696,0.0*
1,1,.008,-.003473,-.019696*
20,1,.008,-.003473,-.019696,-.00684,-.018794,0.0*
1,1,.008,-.00684,-.018794*
20,1,.008,-.00684,-.018794,-.01,-.017321,0.0*
1,1,.008,-.01,-.017321*
20,1,.008,-.01,-.017321,-.012856,-.015321,0.0*
1,1,.008,-.012856,-.015321*
20,1,.008,-.012856,-.015321,-.015321,-.012856,0.0*
1,1,.008,-.015321,-.012856*
20,1,.008,-.015321,-.012856,-.017321,-.01,0.0*
1,1,.008,-.017321,-.01*
20,1,.008,-.017321,-.01,-.018794,-.00684,0.0*
1,1,.008,-.018794,-.00684*
20,1,.008,-.018794,-.00684,-.019696,-.003473,0.0*
1,1,.008,-.019696,-.003473*
20,1,.008,-.019696,-.003473,-.02,0.0,0.0*
1,1,.008,-.02,0.0*
20,1,.008,-.02,0.0,-.019696,.003473,0.0*
1,1,.008,-.019696,.003473*
20,1,.008,-.019696,.003473,-.018794,.00684,0.0*
1,1,.008,-.018794,.00684*
20,1,.008,-.018794,.00684,-.017321,.01,0.0*
1,1,.008,-.017321,.01*
20,1,.008,-.017321,.01,-.015321,.012856,0.0*
1,1,.008,-.015321,.012856*
20,1,.008,-.015321,.012856,-.012856,.015321,0.0*
1,1,.008,-.012856,.015321*
20,1,.008,-.012856,.015321,-.01,.017321,0.0*
1,1,.008,-.01,.017321*
20,1,.008,-.01,.017321,-.00684,.018794,0.0*
1,1,.008,-.00684,.018794*
20,1,.008,-.00684,.018794,-.003473,.019696,0.0*
1,1,.008,-.003473,.019696*
20,1,.008,-.003473,.019696,0.0,.02,0.0*
1,1,.008,0.0,.02*
20,1,.008,0.0,.02,.003473,.019696,0.0*
1,1,.008,.003473,.019696*
20,1,.008,.003473,.019696,.00684,.018794,0.0*
1,1,.008,.00684,.018794*
20,1,.008,.00684,.018794,.01,.017321,0.0*
1,1,.008,.01,.017321*
20,1,.008,.01,.017321,.012856,.015321,0.0*
1,1,.008,.012856,.015321*
20,1,.008,.012856,.015321,.015321,.012856,0.0*
1,1,.008,.015321,.012856*
20,1,.008,.015321,.012856,.017321,.01,0.0*
1,1,.008,.017321,.01*
20,1,.008,.017321,.01,.018794,.00684,0.0*
1,1,.008,.018794,.00684*
20,1,.008,.018794,.00684,.019696,.003473,0.0*
1,1,.008,.019696,.003473*
20,1,.008,.019696,.003473,.02,0.0,0.0*
1,1,.008,.02,0.0*
1,1,.008,.01,0.0*
20,1,.008,.01,0.0,-.01,0.0,0.0*
1,1,.008,-.01,0.0*
1,1,.008,0.0,.01*
20,1,.008,0.0,.01,0.0,-.01,0.0*
1,1,.008,0.0,-.01*
%
%ADD13MACRO13*%
%AMMACRO22*
1,1,.008,.0525,0.0*
20,1,.008,.0525,0.0,.051702,-.009117,0.0*
1,1,.008,.051702,-.009117*
20,1,.008,.051702,-.009117,.049334,-.017956,0.0*
1,1,.008,.049334,-.017956*
20,1,.008,.049334,-.017956,.045466,-.02625,0.0*
1,1,.008,.045466,-.02625*
20,1,.008,.045466,-.02625,.040217,-.033746,0.0*
1,1,.008,.040217,-.033746*
20,1,.008,.040217,-.033746,.033746,-.040217,0.0*
1,1,.008,.033746,-.040217*
20,1,.008,.033746,-.040217,.02625,-.045466,0.0*
1,1,.008,.02625,-.045466*
20,1,.008,.02625,-.045466,.017956,-.049334,0.0*
1,1,.008,.017956,-.049334*
20,1,.008,.017956,-.049334,.009117,-.051702,0.0*
1,1,.008,.009117,-.051702*
20,1,.008,.009117,-.051702,0.0,-.0525,0.0*
1,1,.008,0.0,-.0525*
20,1,.008,0.0,-.0525,-.009117,-.051702,0.0*
1,1,.008,-.009117,-.051702*
20,1,.008,-.009117,-.051702,-.017956,-.049334,0.0*
1,1,.008,-.017956,-.049334*
20,1,.008,-.017956,-.049334,-.02625,-.045466,0.0*
1,1,.008,-.02625,-.045466*
20,1,.008,-.02625,-.045466,-.033746,-.040217,0.0*
1,1,.008,-.033746,-.040217*
20,1,.008,-.033746,-.040217,-.040217,-.033746,0.0*
1,1,.008,-.040217,-.033746*
20,1,.008,-.040217,-.033746,-.045466,-.02625,0.0*
1,1,.008,-.045466,-.02625*
20,1,.008,-.045466,-.02625,-.049334,-.017956,0.0*
1,1,.008,-.049334,-.017956*
20,1,.008,-.049334,-.017956,-.051702,-.009117,0.0*
1,1,.008,-.051702,-.009117*
20,1,.008,-.051702,-.009117,-.0525,0.0,0.0*
1,1,.008,-.0525,0.0*
20,1,.008,-.0525,0.0,-.051702,.009117,0.0*
1,1,.008,-.051702,.009117*
20,1,.008,-.051702,.009117,-.049334,.017956,0.0*
1,1,.008,-.049334,.017956*
20,1,.008,-.049334,.017956,-.045466,.02625,0.0*
1,1,.008,-.045466,.02625*
20,1,.008,-.045466,.02625,-.040217,.033746,0.0*
1,1,.008,-.040217,.033746*
20,1,.008,-.040217,.033746,-.033746,.040217,0.0*
1,1,.008,-.033746,.040217*
20,1,.008,-.033746,.040217,-.02625,.045466,0.0*
1,1,.008,-.02625,.045466*
20,1,.008,-.02625,.045466,-.017956,.049334,0.0*
1,1,.008,-.017956,.049334*
20,1,.008,-.017956,.049334,-.009117,.051702,0.0*
1,1,.008,-.009117,.051702*
20,1,.008,-.009117,.051702,0.0,.0525,0.0*
1,1,.008,0.0,.0525*
20,1,.008,0.0,.0525,.009117,.051702,0.0*
1,1,.008,.009117,.051702*
20,1,.008,.009117,.051702,.017956,.049334,0.0*
1,1,.008,.017956,.049334*
20,1,.008,.017956,.049334,.02625,.045466,0.0*
1,1,.008,.02625,.045466*
20,1,.008,.02625,.045466,.033746,.040217,0.0*
1,1,.008,.033746,.040217*
20,1,.008,.033746,.040217,.040217,.033746,0.0*
1,1,.008,.040217,.033746*
20,1,.008,.040217,.033746,.045466,.02625,0.0*
1,1,.008,.045466,.02625*
20,1,.008,.045466,.02625,.049334,.017956,0.0*
1,1,.008,.049334,.017956*
20,1,.008,.049334,.017956,.051702,.009117,0.0*
1,1,.008,.051702,.009117*
20,1,.008,.051702,.009117,.0525,0.0,0.0*
1,1,.008,.0525,0.0*
1,1,.008,-.031237,-.015618*
20,1,.008,-.031237,-.015618,-.031237,.015619,0.0*
1,1,.008,-.031237,.015619*
20,1,.008,-.031237,.015619,-.037484,.009372,0.0*
1,1,.008,-.037484,.009372*
1,1,.008,-.037484,-.015618*
20,1,.008,-.037484,-.015618,-.02499,-.015618,0.0*
1,1,.008,-.02499,-.015618*
1,1,.008,.000001,.015619*
20,1,.008,.000001,.015619,-.004164,.014578,0.0*
1,1,.008,-.004164,.014578*
20,1,.008,-.004164,.014578,-.007287,.011975,0.0*
1,1,.008,-.007287,.011975*
20,1,.008,-.007287,.011975,-.00937,.008851,0.0*
1,1,.008,-.00937,.008851*
20,1,.008,-.00937,.008851,-.010931,.004686,0.0*
1,1,.008,-.010931,.004686*
20,1,.008,-.010931,.004686,-.011452,0.0,0.0*
1,1,.008,-.011452,0.0*
20,1,.008,-.011452,0.0,-.010931,-.004685,0.0*
1,1,.008,-.010931,-.004685*
20,1,.008,-.010931,-.004685,-.00937,-.00885,0.0*
1,1,.008,-.00937,-.00885*
20,1,.008,-.00937,-.00885,-.007287,-.011974,0.0*
1,1,.008,-.007287,-.011974*
20,1,.008,-.007287,-.011974,-.004164,-.014577,0.0*
1,1,.008,-.004164,-.014577*
20,1,.008,-.004164,-.014577,.000001,-.015618,0.0*
1,1,.008,.000001,-.015618*
20,1,.008,.000001,-.015618,.004166,-.014577,0.0*
1,1,.008,.004166,-.014577*
20,1,.008,.004166,-.014577,.00729,-.011974,0.0*
1,1,.008,.00729,-.011974*
20,1,.008,.00729,-.011974,.009373,-.00885,0.0*
1,1,.008,.009373,-.00885*
20,1,.008,.009373,-.00885,.010934,-.004685,0.0*
1,1,.008,.010934,-.004685*
20,1,.008,.010934,-.004685,.011455,0.0,0.0*
1,1,.008,.011455,0.0*
20,1,.008,.011455,0.0,.010934,.004686,0.0*
1,1,.008,.010934,.004686*
20,1,.008,.010934,.004686,.009373,.008851,0.0*
1,1,.008,.009373,.008851*
20,1,.008,.009373,.008851,.00729,.011975,0.0*
1,1,.008,.00729,.011975*
20,1,.008,.00729,.011975,.004166,.014578,0.0*
1,1,.008,.004166,.014578*
20,1,.008,.004166,.014578,.000001,.015619,0.0*
1,1,.008,.000001,.015619*
1,1,.008,.019786,-.010933*
20,1,.008,.019786,-.010933,.022909,-.013536,0.0*
1,1,.008,.022909,-.013536*
20,1,.008,.022909,-.013536,.026554,-.015097,0.0*
1,1,.008,.026554,-.015097*
20,1,.008,.026554,-.015097,.031239,-.015618,0.0*
1,1,.008,.031239,-.015618*
20,1,.008,.031239,-.015618,.035925,-.014577,0.0*
1,1,.008,.035925,-.014577*
20,1,.008,.035925,-.014577,.039569,-.012495,0.0*
1,1,.008,.039569,-.012495*
20,1,.008,.039569,-.012495,.042172,-.00885,0.0*
1,1,.008,.042172,-.00885*
20,1,.008,.042172,-.00885,.042693,-.004685,0.0*
1,1,.008,.042693,-.004685*
20,1,.008,.042693,-.004685,.041652,-.00052,0.0*
1,1,.008,.041652,-.00052*
20,1,.008,.041652,-.00052,.039049,.002083,0.0*
1,1,.008,.039049,.002083*
20,1,.008,.039049,.002083,.035404,.004165,0.0*
1,1,.008,.035404,.004165*
20,1,.008,.035404,.004165,.03176,.004686,0.0*
1,1,.008,.03176,.004686*
20,1,.008,.03176,.004686,.028116,.004165,0.0*
1,1,.008,.028116,.004165*
20,1,.008,.028116,.004165,.02343,.002083,0.0*
1,1,.008,.02343,.002083*
20,1,.008,.02343,.002083,.024992,.015619,0.0*
1,1,.008,.024992,.015619*
20,1,.008,.024992,.015619,.039049,.015619,0.0*
1,1,.008,.039049,.015619*
%
%ADD22MACRO22*%
%AMMACRO23*
1,1,.008,.033,0.0*
20,1,.008,.033,0.0,-.033,0.0,0.0*
1,1,.008,-.033,0.0*
1,1,.008,0.0,.033*
20,1,.008,0.0,.033,0.0,-.033,0.0*
1,1,.008,0.0,-.033*
%
%ADD23MACRO23*%
%AMMACRO25*
1,1,.008,0.0,.02*
20,1,.008,0.0,.02,.02,-.02,0.0*
1,1,.008,.02,-.02*
20,1,.008,.02,-.02,-.02,-.02,0.0*
1,1,.008,-.02,-.02*
20,1,.008,-.02,-.02,0.0,.02,0.0*
1,1,.008,0.0,.02*
1,1,.008,-.002,-.01*
20,1,.008,-.002,-.01,-.002,.007,0.0*
1,1,.008,-.002,.007*
20,1,.008,-.002,.007,-.001333,.008666,0.0*
1,1,.008,-.001333,.008666*
20,1,.008,-.001333,.008666,0.0,.009667,0.0*
1,1,.008,0.0,.009667*
20,1,.008,0.0,.009667,.002,.01,0.0*
1,1,.008,.002,.01*
20,1,.008,.002,.01,.004,.009333,0.0*
1,1,.008,.004,.009333*
20,1,.008,.004,.009333,.005,.007667,0.0*
1,1,.008,.005,.007667*
1,1,.008,.001,.002*
20,1,.008,.001,.002,-.005667,.002,0.0*
1,1,.008,-.005667,.002*
%
%ADD25MACRO25*%
%AMMACRO20*
1,1,.008,0.0,.02*
20,1,.008,0.0,.02,.02,-.02,0.0*
1,1,.008,.02,-.02*
20,1,.008,.02,-.02,-.02,-.02,0.0*
1,1,.008,-.02,-.02*
20,1,.008,-.02,-.02,0.0,.02,0.0*
1,1,.008,0.0,.02*
1,1,.008,-.005667,-.01*
20,1,.008,-.005667,-.01,-.005667,.003333,0.0*
1,1,.008,-.005667,.003333*
1,1,.008,-.005667,0.0*
20,1,.008,-.005667,0.0,-.004333,.001667,0.0*
1,1,.008,-.004333,.001667*
20,1,.008,-.004333,.001667,-.002333,.003,0.0*
1,1,.008,-.002333,.003*
20,1,.008,-.002333,.003,.000334,.003333,0.0*
1,1,.008,.000334,.003333*
20,1,.008,.000334,.003333,.002666,.003,0.0*
1,1,.008,.002666,.003*
20,1,.008,.002666,.003,.004667,.001667,0.0*
1,1,.008,.004667,.001667*
20,1,.008,.004667,.001667,.005667,-.000667,0.0*
1,1,.008,.005667,-.000667*
20,1,.008,.005667,-.000667,.005667,-.01,0.0*
1,1,.008,.005667,-.01*
%
%ADD20MACRO20*%
%AMMACRO26*
1,1,.008,.0155,0.0*
20,1,.008,.0155,0.0,.015265,-.002692,0.0*
1,1,.008,.015265,-.002692*
20,1,.008,.015265,-.002692,.014565,-.005301,0.0*
1,1,.008,.014565,-.005301*
20,1,.008,.014565,-.005301,.013423,-.00775,0.0*
1,1,.008,.013423,-.00775*
20,1,.008,.013423,-.00775,.011874,-.009963,0.0*
1,1,.008,.011874,-.009963*
20,1,.008,.011874,-.009963,.009963,-.011874,0.0*
1,1,.008,.009963,-.011874*
20,1,.008,.009963,-.011874,.00775,-.013423,0.0*
1,1,.008,.00775,-.013423*
20,1,.008,.00775,-.013423,.005301,-.014565,0.0*
1,1,.008,.005301,-.014565*
20,1,.008,.005301,-.014565,.002692,-.015265,0.0*
1,1,.008,.002692,-.015265*
20,1,.008,.002692,-.015265,0.0,-.0155,0.0*
1,1,.008,0.0,-.0155*
20,1,.008,0.0,-.0155,-.002692,-.015265,0.0*
1,1,.008,-.002692,-.015265*
20,1,.008,-.002692,-.015265,-.005301,-.014565,0.0*
1,1,.008,-.005301,-.014565*
20,1,.008,-.005301,-.014565,-.00775,-.013423,0.0*
1,1,.008,-.00775,-.013423*
20,1,.008,-.00775,-.013423,-.009963,-.011874,0.0*
1,1,.008,-.009963,-.011874*
20,1,.008,-.009963,-.011874,-.011874,-.009963,0.0*
1,1,.008,-.011874,-.009963*
20,1,.008,-.011874,-.009963,-.013423,-.00775,0.0*
1,1,.008,-.013423,-.00775*
20,1,.008,-.013423,-.00775,-.014565,-.005301,0.0*
1,1,.008,-.014565,-.005301*
20,1,.008,-.014565,-.005301,-.015265,-.002692,0.0*
1,1,.008,-.015265,-.002692*
20,1,.008,-.015265,-.002692,-.0155,0.0,0.0*
1,1,.008,-.0155,0.0*
20,1,.008,-.0155,0.0,-.015265,.002692,0.0*
1,1,.008,-.015265,.002692*
20,1,.008,-.015265,.002692,-.014565,.005301,0.0*
1,1,.008,-.014565,.005301*
20,1,.008,-.014565,.005301,-.013423,.00775,0.0*
1,1,.008,-.013423,.00775*
20,1,.008,-.013423,.00775,-.011874,.009963,0.0*
1,1,.008,-.011874,.009963*
20,1,.008,-.011874,.009963,-.009963,.011874,0.0*
1,1,.008,-.009963,.011874*
20,1,.008,-.009963,.011874,-.00775,.013423,0.0*
1,1,.008,-.00775,.013423*
20,1,.008,-.00775,.013423,-.005301,.014565,0.0*
1,1,.008,-.005301,.014565*
20,1,.008,-.005301,.014565,-.002692,.015265,0.0*
1,1,.008,-.002692,.015265*
20,1,.008,-.002692,.015265,0.0,.0155,0.0*
1,1,.008,0.0,.0155*
20,1,.008,0.0,.0155,.002692,.015265,0.0*
1,1,.008,.002692,.015265*
20,1,.008,.002692,.015265,.005301,.014565,0.0*
1,1,.008,.005301,.014565*
20,1,.008,.005301,.014565,.00775,.013423,0.0*
1,1,.008,.00775,.013423*
20,1,.008,.00775,.013423,.009963,.011874,0.0*
1,1,.008,.009963,.011874*
20,1,.008,.009963,.011874,.011874,.009963,0.0*
1,1,.008,.011874,.009963*
20,1,.008,.011874,.009963,.013423,.00775,0.0*
1,1,.008,.013423,.00775*
20,1,.008,.013423,.00775,.014565,.005301,0.0*
1,1,.008,.014565,.005301*
20,1,.008,.014565,.005301,.015265,.002692,0.0*
1,1,.008,.015265,.002692*
20,1,.008,.015265,.002692,.0155,0.0,0.0*
1,1,.008,.0155,0.0*
1,1,.008,-.006459,-.00775*
20,1,.008,-.006459,-.00775,0.0,.00775,0.0*
1,1,.008,0.0,.00775*
20,1,.008,0.0,.00775,.006459,-.00775,0.0*
1,1,.008,.006459,-.00775*
1,1,.008,.004133,-.002325*
20,1,.008,.004133,-.002325,-.004134,-.002325,0.0*
1,1,.008,-.004134,-.002325*
%
%ADD26MACRO26*%
%AMMACRO19*
1,1,.008,.025,0.0*
20,1,.008,.025,0.0,.02462,-.004341,0.0*
1,1,.008,.02462,-.004341*
20,1,.008,.02462,-.004341,.023492,-.008551,0.0*
1,1,.008,.023492,-.008551*
20,1,.008,.023492,-.008551,.021651,-.0125,0.0*
1,1,.008,.021651,-.0125*
20,1,.008,.021651,-.0125,.019151,-.01607,0.0*
1,1,.008,.019151,-.01607*
20,1,.008,.019151,-.01607,.01607,-.019151,0.0*
1,1,.008,.01607,-.019151*
20,1,.008,.01607,-.019151,.0125,-.021651,0.0*
1,1,.008,.0125,-.021651*
20,1,.008,.0125,-.021651,.008551,-.023492,0.0*
1,1,.008,.008551,-.023492*
20,1,.008,.008551,-.023492,.004341,-.02462,0.0*
1,1,.008,.004341,-.02462*
20,1,.008,.004341,-.02462,0.0,-.025,0.0*
1,1,.008,0.0,-.025*
20,1,.008,0.0,-.025,-.004341,-.02462,0.0*
1,1,.008,-.004341,-.02462*
20,1,.008,-.004341,-.02462,-.008551,-.023492,0.0*
1,1,.008,-.008551,-.023492*
20,1,.008,-.008551,-.023492,-.0125,-.021651,0.0*
1,1,.008,-.0125,-.021651*
20,1,.008,-.0125,-.021651,-.01607,-.019151,0.0*
1,1,.008,-.01607,-.019151*
20,1,.008,-.01607,-.019151,-.019151,-.01607,0.0*
1,1,.008,-.019151,-.01607*
20,1,.008,-.019151,-.01607,-.021651,-.0125,0.0*
1,1,.008,-.021651,-.0125*
20,1,.008,-.021651,-.0125,-.023492,-.008551,0.0*
1,1,.008,-.023492,-.008551*
20,1,.008,-.023492,-.008551,-.02462,-.004341,0.0*
1,1,.008,-.02462,-.004341*
20,1,.008,-.02462,-.004341,-.025,0.0,0.0*
1,1,.008,-.025,0.0*
20,1,.008,-.025,0.0,-.02462,.004341,0.0*
1,1,.008,-.02462,.004341*
20,1,.008,-.02462,.004341,-.023492,.008551,0.0*
1,1,.008,-.023492,.008551*
20,1,.008,-.023492,.008551,-.021651,.0125,0.0*
1,1,.008,-.021651,.0125*
20,1,.008,-.021651,.0125,-.019151,.01607,0.0*
1,1,.008,-.019151,.01607*
20,1,.008,-.019151,.01607,-.01607,.019151,0.0*
1,1,.008,-.01607,.019151*
20,1,.008,-.01607,.019151,-.0125,.021651,0.0*
1,1,.008,-.0125,.021651*
20,1,.008,-.0125,.021651,-.008551,.023492,0.0*
1,1,.008,-.008551,.023492*
20,1,.008,-.008551,.023492,-.004341,.02462,0.0*
1,1,.008,-.004341,.02462*
20,1,.008,-.004341,.02462,0.0,.025,0.0*
1,1,.008,0.0,.025*
20,1,.008,0.0,.025,.004341,.02462,0.0*
1,1,.008,.004341,.02462*
20,1,.008,.004341,.02462,.008551,.023492,0.0*
1,1,.008,.008551,.023492*
20,1,.008,.008551,.023492,.0125,.021651,0.0*
1,1,.008,.0125,.021651*
20,1,.008,.0125,.021651,.01607,.019151,0.0*
1,1,.008,.01607,.019151*
20,1,.008,.01607,.019151,.019151,.01607,0.0*
1,1,.008,.019151,.01607*
20,1,.008,.019151,.01607,.021651,.0125,0.0*
1,1,.008,.021651,.0125*
20,1,.008,.021651,.0125,.023492,.008551,0.0*
1,1,.008,.023492,.008551*
20,1,.008,.023492,.008551,.02462,.004341,0.0*
1,1,.008,.02462,.004341*
20,1,.008,.02462,.004341,.025,0.0,0.0*
1,1,.008,.025,0.0*
1,1,.008,.009167,.010416*
20,1,.008,.009167,.010416,.006666,.011667,0.0*
1,1,.008,.006666,.011667*
20,1,.008,.006666,.011667,.00375,.0125,0.0*
1,1,.008,.00375,.0125*
20,1,.008,.00375,.0125,.000417,.0125,0.0*
1,1,.008,.000417,.0125*
20,1,.008,.000417,.0125,-.003334,.01125,0.0*
1,1,.008,-.003334,.01125*
20,1,.008,-.003334,.01125,-.00625,.009167,0.0*
1,1,.008,-.00625,.009167*
20,1,.008,-.00625,.009167,-.008333,.006666,0.0*
1,1,.008,-.008333,.006666*
20,1,.008,-.008333,.006666,-.010001,.0025,0.0*
1,1,.008,-.010001,.0025*
20,1,.008,-.010001,.0025,-.010417,-.00125,0.0*
1,1,.008,-.010417,-.00125*
20,1,.008,-.010417,-.00125,-.009583,-.005,0.0*
1,1,.008,-.009583,-.005*
20,1,.008,-.009583,-.005,-.008333,-.0075,0.0*
1,1,.008,-.008333,-.0075*
20,1,.008,-.008333,-.0075,-.005833,-.010001,0.0*
1,1,.008,-.005833,-.010001*
20,1,.008,-.005833,-.010001,-.002916,-.011667,0.0*
1,1,.008,-.002916,-.011667*
20,1,.008,-.002916,-.011667,0.0,-.0125,0.0*
1,1,.008,0.0,-.0125*
20,1,.008,0.0,-.0125,.002916,-.0125,0.0*
1,1,.008,.002916,-.0125*
20,1,.008,.002916,-.0125,.005833,-.011667,0.0*
1,1,.008,.005833,-.011667*
20,1,.008,.005833,-.011667,.008333,-.010417,0.0*
1,1,.008,.008333,-.010417*
20,1,.008,.008333,-.010417,.010417,-.008751,0.0*
1,1,.008,.010417,-.008751*
%
%ADD19MACRO19*%
%AMMACRO14*
1,1,.008,.019685,0.0*
20,1,.008,.019685,0.0,-.019685,0.0,0.0*
1,1,.008,-.019685,0.0*
1,1,.008,0.0,.019685*
20,1,.008,0.0,.019685,0.0,-.019685,0.0*
1,1,.008,0.0,-.019685*
%
%ADD14MACRO14*%
%AMMACRO27*
1,1,.008,-.017334,-.02*
20,1,.008,-.017334,-.02,-.017334,.02,0.0*
1,1,.008,-.017334,.02*
20,1,.008,-.017334,.02,-.000001,-.013334,0.0*
1,1,.008,-.000001,-.013334*
20,1,.008,-.000001,-.013334,.017334,.02,0.0*
1,1,.008,.017334,.02*
20,1,.008,.017334,.02,.017334,-.02,0.0*
1,1,.008,.017334,-.02*
%
%ADD27MACRO27*%
%AMMACRO24*
1,1,.008,0.0,.02*
20,1,.008,0.0,.02,.02,-.02,0.0*
1,1,.008,.02,-.02*
20,1,.008,.02,-.02,-.02,-.02,0.0*
1,1,.008,-.02,-.02*
20,1,.008,-.02,-.02,0.0,.02,0.0*
1,1,.008,0.0,.02*
1,1,.008,-.007,-.016*
20,1,.008,-.007,-.016,-.005,-.016666,0.0*
1,1,.008,-.005,-.016666*
20,1,.008,-.005,-.016666,-.002333,-.016,0.0*
1,1,.008,-.002333,-.016*
20,1,.008,-.002333,-.016,-.000667,-.014667,0.0*
1,1,.008,-.000667,-.014667*
20,1,.008,-.000667,-.014667,.000667,-.013,0.0*
1,1,.008,.000667,-.013*
20,1,.008,.000667,-.013,.002666,-.007667,0.0*
1,1,.008,.002666,-.007667*
20,1,.008,.002666,-.007667,.007,.003333,0.0*
1,1,.008,.007,.003333*
1,1,.008,-.003667,.003333*
20,1,.008,-.003667,.003333,.002666,-.007667,0.0*
1,1,.008,.002666,-.007667*
%
%ADD24MACRO24*%
%AMMACRO17*
1,1,.008,-.0925,.055*
20,1,.008,-.0925,.055,.0925,.055,0.0*
1,1,.008,.0925,.055*
20,1,.008,.0925,.055,.102051,.054164,0.0*
1,1,.008,.102051,.054164*
20,1,.008,.102051,.054164,.111311,.051683,0.0*
1,1,.008,.111311,.051683*
20,1,.008,.111311,.051683,.12,.047631,0.0*
1,1,.008,.12,.047631*
20,1,.008,.12,.047631,.127853,.042132,0.0*
1,1,.008,.127853,.042132*
20,1,.008,.127853,.042132,.134632,.035353,0.0*
1,1,.008,.134632,.035353*
20,1,.008,.134632,.035353,.140131,.0275,0.0*
1,1,.008,.140131,.0275*
20,1,.008,.140131,.0275,.144183,.018811,0.0*
1,1,.008,.144183,.018811*
20,1,.008,.144183,.018811,.146664,.009551,0.0*
1,1,.008,.146664,.009551*
20,1,.008,.146664,.009551,.1475,0.0,0.0*
1,1,.008,.1475,0.0*
20,1,.008,.1475,0.0,.146664,-.009551,0.0*
1,1,.008,.146664,-.009551*
20,1,.008,.146664,-.009551,.144183,-.018811,0.0*
1,1,.008,.144183,-.018811*
20,1,.008,.144183,-.018811,.140131,-.0275,0.0*
1,1,.008,.140131,-.0275*
20,1,.008,.140131,-.0275,.134632,-.035353,0.0*
1,1,.008,.134632,-.035353*
20,1,.008,.134632,-.035353,.127853,-.042132,0.0*
1,1,.008,.127853,-.042132*
20,1,.008,.127853,-.042132,.12,-.047631,0.0*
1,1,.008,.12,-.047631*
20,1,.008,.12,-.047631,.111311,-.051683,0.0*
1,1,.008,.111311,-.051683*
20,1,.008,.111311,-.051683,.102051,-.054164,0.0*
1,1,.008,.102051,-.054164*
20,1,.008,.102051,-.054164,.0925,-.055,0.0*
1,1,.008,.0925,-.055*
20,1,.008,.0925,-.055,-.0925,-.055,0.0*
1,1,.008,-.0925,-.055*
20,1,.008,-.0925,-.055,-.102051,-.054164,0.0*
1,1,.008,-.102051,-.054164*
20,1,.008,-.102051,-.054164,-.111311,-.051683,0.0*
1,1,.008,-.111311,-.051683*
20,1,.008,-.111311,-.051683,-.12,-.047631,0.0*
1,1,.008,-.12,-.047631*
20,1,.008,-.12,-.047631,-.127853,-.042132,0.0*
1,1,.008,-.127853,-.042132*
20,1,.008,-.127853,-.042132,-.134632,-.035353,0.0*
1,1,.008,-.134632,-.035353*
20,1,.008,-.134632,-.035353,-.140131,-.0275,0.0*
1,1,.008,-.140131,-.0275*
20,1,.008,-.140131,-.0275,-.144183,-.018811,0.0*
1,1,.008,-.144183,-.018811*
20,1,.008,-.144183,-.018811,-.146664,-.009551,0.0*
1,1,.008,-.146664,-.009551*
20,1,.008,-.146664,-.009551,-.1475,0.0,0.0*
1,1,.008,-.1475,0.0*
20,1,.008,-.1475,0.0,-.146664,.009551,0.0*
1,1,.008,-.146664,.009551*
20,1,.008,-.146664,.009551,-.144183,.018811,0.0*
1,1,.008,-.144183,.018811*
20,1,.008,-.144183,.018811,-.140131,.0275,0.0*
1,1,.008,-.140131,.0275*
20,1,.008,-.140131,.0275,-.134632,.035353,0.0*
1,1,.008,-.134632,.035353*
20,1,.008,-.134632,.035353,-.127853,.042132,0.0*
1,1,.008,-.127853,.042132*
20,1,.008,-.127853,.042132,-.12,.047631,0.0*
1,1,.008,-.12,.047631*
20,1,.008,-.12,.047631,-.111311,.051683,0.0*
1,1,.008,-.111311,.051683*
20,1,.008,-.111311,.051683,-.102051,.054164,0.0*
1,1,.008,-.102051,.054164*
20,1,.008,-.102051,.054164,-.0925,.055,0.0*
1,1,.008,-.0925,.055*
%
%ADD17MACRO17*%
%AMMACRO21*
1,1,.008,.025,0.0*
20,1,.008,.025,0.0,.0125,.021651,0.0*
1,1,.008,.0125,.021651*
20,1,.008,.0125,.021651,-.0125,.021651,0.0*
1,1,.008,-.0125,.021651*
20,1,.008,-.0125,.021651,-.025,0.0,0.0*
1,1,.008,-.025,0.0*
20,1,.008,-.025,0.0,-.0125,-.021651,0.0*
1,1,.008,-.0125,-.021651*
20,1,.008,-.0125,-.021651,.0125,-.021651,0.0*
1,1,.008,.0125,-.021651*
20,1,.008,.0125,-.021651,.025,0.0,0.0*
1,1,.008,.025,0.0*
%
%ADD21MACRO21*%
%AMMACRO15*
1,1,.008,-.02,.0125*
20,1,.008,-.02,.0125,-.019696,.015973,0.0*
1,1,.008,-.019696,.015973*
20,1,.008,-.019696,.015973,-.018794,.01934,0.0*
1,1,.008,-.018794,.01934*
20,1,.008,-.018794,.01934,-.017321,.0225,0.0*
1,1,.008,-.017321,.0225*
20,1,.008,-.017321,.0225,-.015321,.025356,0.0*
1,1,.008,-.015321,.025356*
20,1,.008,-.015321,.025356,-.012856,.027821,0.0*
1,1,.008,-.012856,.027821*
20,1,.008,-.012856,.027821,-.01,.029821,0.0*
1,1,.008,-.01,.029821*
20,1,.008,-.01,.029821,-.00684,.031294,0.0*
1,1,.008,-.00684,.031294*
20,1,.008,-.00684,.031294,-.003473,.032196,0.0*
1,1,.008,-.003473,.032196*
20,1,.008,-.003473,.032196,0.0,.0325,0.0*
1,1,.008,0.0,.0325*
20,1,.008,0.0,.0325,.003473,.032196,0.0*
1,1,.008,.003473,.032196*
20,1,.008,.003473,.032196,.00684,.031294,0.0*
1,1,.008,.00684,.031294*
20,1,.008,.00684,.031294,.01,.029821,0.0*
1,1,.008,.01,.029821*
20,1,.008,.01,.029821,.012856,.027821,0.0*
1,1,.008,.012856,.027821*
20,1,.008,.012856,.027821,.015321,.025356,0.0*
1,1,.008,.015321,.025356*
20,1,.008,.015321,.025356,.017321,.0225,0.0*
1,1,.008,.017321,.0225*
20,1,.008,.017321,.0225,.018794,.01934,0.0*
1,1,.008,.018794,.01934*
20,1,.008,.018794,.01934,.019696,.015973,0.0*
1,1,.008,.019696,.015973*
20,1,.008,.019696,.015973,.02,.0125,0.0*
1,1,.008,.02,.0125*
20,1,.008,.02,.0125,.02,-.0125,0.0*
1,1,.008,.02,-.0125*
20,1,.008,.02,-.0125,.019696,-.015973,0.0*
1,1,.008,.019696,-.015973*
20,1,.008,.019696,-.015973,.018794,-.01934,0.0*
1,1,.008,.018794,-.01934*
20,1,.008,.018794,-.01934,.017321,-.0225,0.0*
1,1,.008,.017321,-.0225*
20,1,.008,.017321,-.0225,.015321,-.025356,0.0*
1,1,.008,.015321,-.025356*
20,1,.008,.015321,-.025356,.012856,-.027821,0.0*
1,1,.008,.012856,-.027821*
20,1,.008,.012856,-.027821,.01,-.029821,0.0*
1,1,.008,.01,-.029821*
20,1,.008,.01,-.029821,.00684,-.031294,0.0*
1,1,.008,.00684,-.031294*
20,1,.008,.00684,-.031294,.003473,-.032196,0.0*
1,1,.008,.003473,-.032196*
20,1,.008,.003473,-.032196,0.0,-.0325,0.0*
1,1,.008,0.0,-.0325*
20,1,.008,0.0,-.0325,-.003473,-.032196,0.0*
1,1,.008,-.003473,-.032196*
20,1,.008,-.003473,-.032196,-.00684,-.031294,0.0*
1,1,.008,-.00684,-.031294*
20,1,.008,-.00684,-.031294,-.01,-.029821,0.0*
1,1,.008,-.01,-.029821*
20,1,.008,-.01,-.029821,-.012856,-.027821,0.0*
1,1,.008,-.012856,-.027821*
20,1,.008,-.012856,-.027821,-.015321,-.025356,0.0*
1,1,.008,-.015321,-.025356*
20,1,.008,-.015321,-.025356,-.017321,-.0225,0.0*
1,1,.008,-.017321,-.0225*
20,1,.008,-.017321,-.0225,-.018794,-.01934,0.0*
1,1,.008,-.018794,-.01934*
20,1,.008,-.018794,-.01934,-.019696,-.015973,0.0*
1,1,.008,-.019696,-.015973*
20,1,.008,-.019696,-.015973,-.02,-.0125,0.0*
1,1,.008,-.02,-.0125*
20,1,.008,-.02,-.0125,-.02,.0125,0.0*
1,1,.008,-.02,.0125*
%
%ADD15MACRO15*%
%AMMACRO16*
1,1,.008,.02,0.0*
20,1,.008,.02,0.0,.019696,-.003473,0.0*
1,1,.008,.019696,-.003473*
20,1,.008,.019696,-.003473,.018794,-.00684,0.0*
1,1,.008,.018794,-.00684*
20,1,.008,.018794,-.00684,.017321,-.01,0.0*
1,1,.008,.017321,-.01*
20,1,.008,.017321,-.01,.015321,-.012856,0.0*
1,1,.008,.015321,-.012856*
20,1,.008,.015321,-.012856,.012856,-.015321,0.0*
1,1,.008,.012856,-.015321*
20,1,.008,.012856,-.015321,.01,-.017321,0.0*
1,1,.008,.01,-.017321*
20,1,.008,.01,-.017321,.00684,-.018794,0.0*
1,1,.008,.00684,-.018794*
20,1,.008,.00684,-.018794,.003473,-.019696,0.0*
1,1,.008,.003473,-.019696*
20,1,.008,.003473,-.019696,0.0,-.02,0.0*
1,1,.008,0.0,-.02*
20,1,.008,0.0,-.02,-.003473,-.019696,0.0*
1,1,.008,-.003473,-.019696*
20,1,.008,-.003473,-.019696,-.00684,-.018794,0.0*
1,1,.008,-.00684,-.018794*
20,1,.008,-.00684,-.018794,-.01,-.017321,0.0*
1,1,.008,-.01,-.017321*
20,1,.008,-.01,-.017321,-.012856,-.015321,0.0*
1,1,.008,-.012856,-.015321*
20,1,.008,-.012856,-.015321,-.015321,-.012856,0.0*
1,1,.008,-.015321,-.012856*
20,1,.008,-.015321,-.012856,-.017321,-.01,0.0*
1,1,.008,-.017321,-.01*
20,1,.008,-.017321,-.01,-.018794,-.00684,0.0*
1,1,.008,-.018794,-.00684*
20,1,.008,-.018794,-.00684,-.019696,-.003473,0.0*
1,1,.008,-.019696,-.003473*
20,1,.008,-.019696,-.003473,-.02,0.0,0.0*
1,1,.008,-.02,0.0*
20,1,.008,-.02,0.0,-.019696,.003473,0.0*
1,1,.008,-.019696,.003473*
20,1,.008,-.019696,.003473,-.018794,.00684,0.0*
1,1,.008,-.018794,.00684*
20,1,.008,-.018794,.00684,-.017321,.01,0.0*
1,1,.008,-.017321,.01*
20,1,.008,-.017321,.01,-.015321,.012856,0.0*
1,1,.008,-.015321,.012856*
20,1,.008,-.015321,.012856,-.012856,.015321,0.0*
1,1,.008,-.012856,.015321*
20,1,.008,-.012856,.015321,-.01,.017321,0.0*
1,1,.008,-.01,.017321*
20,1,.008,-.01,.017321,-.00684,.018794,0.0*
1,1,.008,-.00684,.018794*
20,1,.008,-.00684,.018794,-.003473,.019696,0.0*
1,1,.008,-.003473,.019696*
20,1,.008,-.003473,.019696,0.0,.02,0.0*
1,1,.008,0.0,.02*
20,1,.008,0.0,.02,.003473,.019696,0.0*
1,1,.008,.003473,.019696*
20,1,.008,.003473,.019696,.00684,.018794,0.0*
1,1,.008,.00684,.018794*
20,1,.008,.00684,.018794,.01,.017321,0.0*
1,1,.008,.01,.017321*
20,1,.008,.01,.017321,.012856,.015321,0.0*
1,1,.008,.012856,.015321*
20,1,.008,.012856,.015321,.015321,.012856,0.0*
1,1,.008,.015321,.012856*
20,1,.008,.015321,.012856,.017321,.01,0.0*
1,1,.008,.017321,.01*
20,1,.008,.017321,.01,.018794,.00684,0.0*
1,1,.008,.018794,.00684*
20,1,.008,.018794,.00684,.019696,.003473,0.0*
1,1,.008,.019696,.003473*
20,1,.008,.019696,.003473,.02,0.0,0.0*
1,1,.008,.02,0.0*
1,1,.008,-.0051,-.0085*
20,1,.008,-.0051,-.0085,-.0051,.0085,0.0*
1,1,.008,-.0051,.0085*
20,1,.008,-.0051,.0085,-.015584,-.003683,0.0*
1,1,.008,-.015584,-.003683*
20,1,.008,-.015584,-.003683,-.001416,-.003683,0.0*
1,1,.008,-.001416,-.003683*
1,1,.008,.008501,.0085*
20,1,.008,.008501,.0085,.006234,.007933,0.0*
1,1,.008,.006234,.007933*
20,1,.008,.006234,.007933,.004534,.006517,0.0*
1,1,.008,.004534,.006517*
20,1,.008,.004534,.006517,.003401,.004817,0.0*
1,1,.008,.003401,.004817*
20,1,.008,.003401,.004817,.002551,.00255,0.0*
1,1,.008,.002551,.00255*
20,1,.008,.002551,.00255,.002268,0.0,0.0*
1,1,.008,.002268,0.0*
20,1,.008,.002268,0.0,.002551,-.00255,0.0*
1,1,.008,.002551,-.00255*
20,1,.008,.002551,-.00255,.003401,-.004817,0.0*
1,1,.008,.003401,-.004817*
20,1,.008,.003401,-.004817,.004534,-.006517,0.0*
1,1,.008,.004534,-.006517*
20,1,.008,.004534,-.006517,.006234,-.007933,0.0*
1,1,.008,.006234,-.007933*
20,1,.008,.006234,-.007933,.008501,-.0085,0.0*
1,1,.008,.008501,-.0085*
20,1,.008,.008501,-.0085,.010767,-.007933,0.0*
1,1,.008,.010767,-.007933*
20,1,.008,.010767,-.007933,.012468,-.006517,0.0*
1,1,.008,.012468,-.006517*
20,1,.008,.012468,-.006517,.013601,-.004817,0.0*
1,1,.008,.013601,-.004817*
20,1,.008,.013601,-.004817,.014451,-.00255,0.0*
1,1,.008,.014451,-.00255*
20,1,.008,.014451,-.00255,.014734,0.0,0.0*
1,1,.008,.014734,0.0*
20,1,.008,.014734,0.0,.014451,.00255,0.0*
1,1,.008,.014451,.00255*
20,1,.008,.014451,.00255,.013601,.004817,0.0*
1,1,.008,.013601,.004817*
20,1,.008,.013601,.004817,.012468,.006517,0.0*
1,1,.008,.012468,.006517*
20,1,.008,.012468,.006517,.010767,.007933,0.0*
1,1,.008,.010767,.007933*
20,1,.008,.010767,.007933,.008501,.0085,0.0*
1,1,.008,.008501,.0085*
%
%ADD16MACRO16*%
%AMMACRO29*
1,1,.008,0.0,.02*
20,1,.008,0.0,.02,.02,-.02,0.0*
1,1,.008,.02,-.02*
20,1,.008,.02,-.02,-.02,-.02,0.0*
1,1,.008,-.02,-.02*
20,1,.008,-.02,-.02,0.0,.02,0.0*
1,1,.008,0.0,.02*
1,1,.008,-.007,-.01*
20,1,.008,-.007,-.01,-.007,.01,0.0*
1,1,.008,-.007,.01*
1,1,.008,.007,.01*
20,1,.008,.007,.01,.007,-.01,0.0*
1,1,.008,.007,-.01*
1,1,.008,.007,0.0*
20,1,.008,.007,0.0,-.007,0.0,0.0*
1,1,.008,-.007,0.0*
%
%ADD29MACRO29*%
%AMMACRO18*
1,1,.008,.029,0.0*
20,1,.008,.029,0.0,.028559,-.005036,0.0*
1,1,.008,.028559,-.005036*
20,1,.008,.028559,-.005036,.027251,-.009919,0.0*
1,1,.008,.027251,-.009919*
20,1,.008,.027251,-.009919,.025115,-.0145,0.0*
1,1,.008,.025115,-.0145*
20,1,.008,.025115,-.0145,.022215,-.018641,0.0*
1,1,.008,.022215,-.018641*
20,1,.008,.022215,-.018641,.018641,-.022215,0.0*
1,1,.008,.018641,-.022215*
20,1,.008,.018641,-.022215,.0145,-.025115,0.0*
1,1,.008,.0145,-.025115*
20,1,.008,.0145,-.025115,.009919,-.027251,0.0*
1,1,.008,.009919,-.027251*
20,1,.008,.009919,-.027251,.005036,-.028559,0.0*
1,1,.008,.005036,-.028559*
20,1,.008,.005036,-.028559,0.0,-.029,0.0*
1,1,.008,0.0,-.029*
20,1,.008,0.0,-.029,-.005036,-.028559,0.0*
1,1,.008,-.005036,-.028559*
20,1,.008,-.005036,-.028559,-.009919,-.027251,0.0*
1,1,.008,-.009919,-.027251*
20,1,.008,-.009919,-.027251,-.0145,-.025115,0.0*
1,1,.008,-.0145,-.025115*
20,1,.008,-.0145,-.025115,-.018641,-.022215,0.0*
1,1,.008,-.018641,-.022215*
20,1,.008,-.018641,-.022215,-.022215,-.018641,0.0*
1,1,.008,-.022215,-.018641*
20,1,.008,-.022215,-.018641,-.025115,-.0145,0.0*
1,1,.008,-.025115,-.0145*
20,1,.008,-.025115,-.0145,-.027251,-.009919,0.0*
1,1,.008,-.027251,-.009919*
20,1,.008,-.027251,-.009919,-.028559,-.005036,0.0*
1,1,.008,-.028559,-.005036*
20,1,.008,-.028559,-.005036,-.029,0.0,0.0*
1,1,.008,-.029,0.0*
20,1,.008,-.029,0.0,-.028559,.005036,0.0*
1,1,.008,-.028559,.005036*
20,1,.008,-.028559,.005036,-.027251,.009919,0.0*
1,1,.008,-.027251,.009919*
20,1,.008,-.027251,.009919,-.025115,.0145,0.0*
1,1,.008,-.025115,.0145*
20,1,.008,-.025115,.0145,-.022215,.018641,0.0*
1,1,.008,-.022215,.018641*
20,1,.008,-.022215,.018641,-.018641,.022215,0.0*
1,1,.008,-.018641,.022215*
20,1,.008,-.018641,.022215,-.0145,.025115,0.0*
1,1,.008,-.0145,.025115*
20,1,.008,-.0145,.025115,-.009919,.027251,0.0*
1,1,.008,-.009919,.027251*
20,1,.008,-.009919,.027251,-.005036,.028559,0.0*
1,1,.008,-.005036,.028559*
20,1,.008,-.005036,.028559,0.0,.029,0.0*
1,1,.008,0.0,.029*
20,1,.008,0.0,.029,.005036,.028559,0.0*
1,1,.008,.005036,.028559*
20,1,.008,.005036,.028559,.009919,.027251,0.0*
1,1,.008,.009919,.027251*
20,1,.008,.009919,.027251,.0145,.025115,0.0*
1,1,.008,.0145,.025115*
20,1,.008,.0145,.025115,.018641,.022215,0.0*
1,1,.008,.018641,.022215*
20,1,.008,.018641,.022215,.022215,.018641,0.0*
1,1,.008,.022215,.018641*
20,1,.008,.022215,.018641,.025115,.0145,0.0*
1,1,.008,.025115,.0145*
20,1,.008,.025115,.0145,.027251,.009919,0.0*
1,1,.008,.027251,.009919*
20,1,.008,.027251,.009919,.028559,.005036,0.0*
1,1,.008,.028559,.005036*
20,1,.008,.028559,.005036,.029,0.0,0.0*
1,1,.008,.029,0.0*
1,1,.008,-.021363,-.008628*
20,1,.008,-.021363,-.008628,-.018899,-.010682,0.0*
1,1,.008,-.018899,-.010682*
20,1,.008,-.018899,-.010682,-.016023,-.011914,0.0*
1,1,.008,-.016023,-.011914*
20,1,.008,-.016023,-.011914,-.012325,-.012325,0.0*
1,1,.008,-.012325,-.012325*
20,1,.008,-.012325,-.012325,-.008627,-.011504,0.0*
1,1,.008,-.008627,-.011504*
20,1,.008,-.008627,-.011504,-.005752,-.009861,0.0*
1,1,.008,-.005752,-.009861*
20,1,.008,-.005752,-.009861,-.003697,-.006985,0.0*
1,1,.008,-.003697,-.006985*
20,1,.008,-.003697,-.006985,-.003287,-.003698,0.0*
1,1,.008,-.003287,-.003698*
20,1,.008,-.003287,-.003698,-.004108,-.000411,0.0*
1,1,.008,-.004108,-.000411*
20,1,.008,-.004108,-.000411,-.006163,.001643,0.0*
1,1,.008,-.006163,.001643*
20,1,.008,-.006163,.001643,-.009039,.003286,0.0*
1,1,.008,-.009039,.003286*
20,1,.008,-.009039,.003286,-.011914,.003697,0.0*
1,1,.008,-.011914,.003697*
20,1,.008,-.011914,.003697,-.01479,.003286,0.0*
1,1,.008,-.01479,.003286*
20,1,.008,-.01479,.003286,-.018487,.001643,0.0*
1,1,.008,-.018487,.001643*
20,1,.008,-.018487,.001643,-.017255,.012325,0.0*
1,1,.008,-.017255,.012325*
20,1,.008,-.017255,.012325,-.006163,.012325,0.0*
1,1,.008,-.006163,.012325*
1,1,.008,.012326,-.012325*
20,1,.008,.012326,-.012325,.015202,-.011914,0.0*
1,1,.008,.015202,-.011914*
20,1,.008,.015202,-.011914,.018488,-.010682,0.0*
1,1,.008,.018488,-.010682*
20,1,.008,.018488,-.010682,.020543,-.008628,0.0*
1,1,.008,.020543,-.008628*
20,1,.008,.020543,-.008628,.021364,-.005752,0.0*
1,1,.008,.021364,-.005752*
20,1,.008,.021364,-.005752,.020543,-.002876,0.0*
1,1,.008,.020543,-.002876*
20,1,.008,.020543,-.002876,.018078,-.000411,0.0*
1,1,.008,.018078,-.000411*
20,1,.008,.018078,-.000411,.01438,.000822,0.0*
1,1,.008,.01438,.000822*
20,1,.008,.01438,.000822,.010272,.000822,0.0*
1,1,.008,.010272,.000822*
20,1,.008,.010272,.000822,.007807,.001643,0.0*
1,1,.008,.007807,.001643*
20,1,.008,.007807,.001643,.005752,.003697,0.0*
1,1,.008,.005752,.003697*
20,1,.008,.005752,.003697,.004931,.006573,0.0*
1,1,.008,.004931,.006573*
20,1,.008,.004931,.006573,.006164,.009449,0.0*
1,1,.008,.006164,.009449*
20,1,.008,.006164,.009449,.009039,.011504,0.0*
1,1,.008,.009039,.011504*
20,1,.008,.009039,.011504,.012326,.012325,0.0*
1,1,.008,.012326,.012325*
20,1,.008,.012326,.012325,.015612,.011504,0.0*
1,1,.008,.015612,.011504*
20,1,.008,.015612,.011504,.018488,.009449,0.0*
1,1,.008,.018488,.009449*
20,1,.008,.018488,.009449,.019721,.006573,0.0*
1,1,.008,.019721,.006573*
20,1,.008,.019721,.006573,.018899,.003697,0.0*
1,1,.008,.018899,.003697*
20,1,.008,.018899,.003697,.016845,.001643,0.0*
1,1,.008,.016845,.001643*
20,1,.008,.016845,.001643,.01438,.000822,0.0*
1,1,.008,.01438,.000822*
20,1,.008,.01438,.000822,.010272,.000822,0.0*
1,1,.008,.010272,.000822*
20,1,.008,.010272,.000822,.006574,-.000411,0.0*
1,1,.008,.006574,-.000411*
20,1,.008,.006574,-.000411,.004109,-.002876,0.0*
1,1,.008,.004109,-.002876*
20,1,.008,.004109,-.002876,.003288,-.005752,0.0*
1,1,.008,.003288,-.005752*
20,1,.008,.003288,-.005752,.004109,-.008628,0.0*
1,1,.008,.004109,-.008628*
20,1,.008,.004109,-.008628,.006164,-.010682,0.0*
1,1,.008,.006164,-.010682*
20,1,.008,.006164,-.010682,.00945,-.011914,0.0*
1,1,.008,.00945,-.011914*
20,1,.008,.00945,-.011914,.012326,-.012325,0.0*
1,1,.008,.012326,-.012325*
%
%ADD18MACRO18*%
%AMMACRO10*
1,1,.008,.105,0.0*
20,1,.008,.105,0.0,-.105,0.0,0.0*
1,1,.008,-.105,0.0*
1,1,.008,0.0,.105*
20,1,.008,0.0,.105,0.0,-.105,0.0*
1,1,.008,0.0,-.105*
%
%ADD10MACRO10*%
%ADD30C,.008*%
%ADD31C,.06*%
G75*
%LPD*%
G75*
G54D10*
X21700Y20502D03*
X23300Y766002D03*
X145100Y342402D03*
X584500Y21502D03*
Y766002D03*
X1072100Y102602D03*
Y766002D03*
X1361500Y16902D03*
X1363000Y771402D03*
X1481950Y-63348D03*
G54D20*
X470900Y201302D03*
Y221802D03*
Y457302D03*
Y477802D03*
Y706302D03*
Y726802D03*
X1481950Y472152D03*
G54D11*
X29300Y94002D03*
Y213202D03*
X29800Y407902D03*
X29300Y629502D03*
X1119800Y28602D03*
X1257800Y28502D03*
X1481950Y-31848D03*
G54D30*
G01X1448005Y714652D02*
Y727152D01*
X1453895D01*
G01X1451725Y721110D02*
X1448005D01*
G01X1461490Y727152D02*
X1465210D01*
G01X1463350D02*
Y714652D01*
G01X1461490D02*
X1465210D01*
G01X1476680Y720901D02*
X1479780D01*
Y717151D01*
X1478850Y715901D01*
X1477765Y715068D01*
X1476215Y714652D01*
X1474665Y715068D01*
X1473580Y715901D01*
X1472650Y717151D01*
X1472030Y718610D01*
X1471720Y720276D01*
Y721735D01*
X1472030Y722985D01*
X1472650Y724444D01*
X1473580Y725693D01*
X1474510Y726526D01*
X1475750Y727152D01*
X1476835D01*
X1478075Y726735D01*
X1479005Y725902D01*
G01X1484740Y727152D02*
Y718193D01*
X1485360Y716318D01*
X1486600Y715068D01*
X1488150Y714652D01*
X1489700Y715068D01*
X1490940Y716318D01*
X1491560Y718193D01*
Y727152D01*
G01X1497450Y714652D02*
Y727152D01*
X1501325D01*
X1502565Y726526D01*
X1503340Y725693D01*
X1503650Y724027D01*
X1503340Y722360D01*
X1502410Y721318D01*
X1501325Y720693D01*
X1497450D01*
G01X1501325D02*
X1503650Y714652D01*
G01X1516050D02*
X1509850D01*
Y727152D01*
X1516050D01*
G01X1513570Y721110D02*
X1509850D01*
G01X1526590Y764652D02*
Y777152D01*
X1529690D01*
X1530930Y776526D01*
X1531860Y775693D01*
X1532635Y774444D01*
X1533255Y772985D01*
X1533410Y770901D01*
X1533255Y768818D01*
X1532635Y767360D01*
X1531860Y766110D01*
X1530930Y765276D01*
X1529690Y764652D01*
X1526590D01*
G01X1539300D02*
Y777152D01*
X1543175D01*
X1544415Y776526D01*
X1545190Y775693D01*
X1545500Y774027D01*
X1545190Y772360D01*
X1544260Y771318D01*
X1543175Y770693D01*
X1539300D01*
G01X1543175D02*
X1545500Y764652D01*
G01X1552940Y777152D02*
X1556660D01*
G01X1554800D02*
Y764652D01*
G01X1552940D02*
X1556660D01*
G01X1564100Y777152D02*
Y764652D01*
X1570300D01*
G01X1576500Y777152D02*
Y764652D01*
X1582700D01*
G01X1607810Y776110D02*
X1606880Y776735D01*
X1605795Y777152D01*
X1604555D01*
X1603160Y776526D01*
X1602075Y775485D01*
X1601300Y774235D01*
X1600680Y772152D01*
X1600525Y770276D01*
X1600835Y768402D01*
X1601300Y767151D01*
X1602230Y765901D01*
X1603315Y765068D01*
X1604400Y764652D01*
X1605485D01*
X1606570Y765068D01*
X1607500Y765693D01*
X1608275Y766526D01*
G01X1613545Y764652D02*
Y777152D01*
G01X1620055D02*
Y764652D01*
G01Y770901D02*
X1613545D01*
G01X1625325Y764652D02*
X1629200Y777152D01*
X1633075Y764652D01*
G01X1631680Y769026D02*
X1626720D01*
G01X1638500Y764652D02*
Y777152D01*
X1642375D01*
X1643615Y776526D01*
X1644390Y775693D01*
X1644700Y774027D01*
X1644390Y772360D01*
X1643460Y771318D01*
X1642375Y770693D01*
X1638500D01*
G01X1642375D02*
X1644700Y764652D01*
G01X1654000Y777152D02*
Y764652D01*
G01X1650435Y777152D02*
X1657565D01*
G01X1666400Y764235D02*
X1666090Y764443D01*
Y764860D01*
X1666400Y765068D01*
X1666710Y764860D01*
Y764443D01*
X1666400Y764235D01*
G01Y769860D02*
X1666090Y770068D01*
Y770485D01*
X1666400Y770693D01*
X1666710Y770485D01*
Y770068D01*
X1666400Y769860D01*
G01X1691200Y777152D02*
Y764652D01*
G01X1687635Y777152D02*
X1694765D01*
G01X1703600Y764652D02*
X1702360Y764860D01*
X1701275Y765693D01*
X1700345Y766943D01*
X1699725Y768402D01*
X1699415Y770068D01*
Y771735D01*
X1699725Y773402D01*
X1700345Y774860D01*
X1701275Y776110D01*
X1702360Y776943D01*
X1703600Y777152D01*
X1704840Y776943D01*
X1705925Y776110D01*
X1706855Y774860D01*
X1707475Y773402D01*
X1707785Y771735D01*
Y770068D01*
X1707475Y768402D01*
X1706855Y766943D01*
X1705925Y765693D01*
X1704840Y764860D01*
X1703600Y764652D01*
G01X1712900D02*
Y777152D01*
X1716620D01*
X1717860Y776526D01*
X1718790Y775068D01*
X1719100Y773402D01*
X1718790Y771735D01*
X1718015Y770485D01*
X1716620Y769860D01*
X1712900D01*
G01X1740800Y777152D02*
Y764652D01*
G01X1738630Y772985D02*
X1742970D01*
G01X1753200Y764652D02*
X1752270Y764860D01*
X1751340Y765693D01*
X1750720Y767151D01*
X1750410Y768818D01*
X1750720Y770485D01*
X1751340Y771943D01*
X1752270Y772776D01*
X1753200Y772985D01*
X1754130Y772776D01*
X1755060Y771943D01*
X1755680Y770485D01*
X1755835Y768818D01*
X1755680Y767151D01*
X1755060Y765693D01*
X1754130Y764860D01*
X1753200Y764652D01*
G01X1779240Y771318D02*
X1779860Y771943D01*
X1780325Y772985D01*
X1780635Y774444D01*
X1780325Y775693D01*
X1779705Y776526D01*
X1778620Y777152D01*
X1774435D01*
Y764652D01*
X1779550D01*
X1780635Y765485D01*
X1781255Y766735D01*
X1781565Y768193D01*
X1781255Y769651D01*
X1780325Y770901D01*
X1779240Y771318D01*
X1774435D01*
G01X1790400Y764652D02*
X1789160Y764860D01*
X1788075Y765693D01*
X1787145Y766943D01*
X1786525Y768402D01*
X1786215Y770068D01*
Y771735D01*
X1786525Y773402D01*
X1787145Y774860D01*
X1788075Y776110D01*
X1789160Y776943D01*
X1790400Y777152D01*
X1791640Y776943D01*
X1792725Y776110D01*
X1793655Y774860D01*
X1794275Y773402D01*
X1794585Y771735D01*
Y770068D01*
X1794275Y768402D01*
X1793655Y766943D01*
X1792725Y765693D01*
X1791640Y764860D01*
X1790400Y764652D01*
G01X1802800Y777152D02*
Y764652D01*
G01X1799235Y777152D02*
X1806365D01*
G01X1815200D02*
Y764652D01*
G01X1811635Y777152D02*
X1818765D01*
G01X1827600Y764652D02*
X1826360Y764860D01*
X1825275Y765693D01*
X1824345Y766943D01*
X1823725Y768402D01*
X1823415Y770068D01*
Y771735D01*
X1823725Y773402D01*
X1824345Y774860D01*
X1825275Y776110D01*
X1826360Y776943D01*
X1827600Y777152D01*
X1828840Y776943D01*
X1829925Y776110D01*
X1830855Y774860D01*
X1831475Y773402D01*
X1831785Y771735D01*
Y770068D01*
X1831475Y768402D01*
X1830855Y766943D01*
X1829925Y765693D01*
X1828840Y764860D01*
X1827600Y764652D01*
G01X1835970D02*
Y777152D01*
X1840000Y766735D01*
X1844030Y777152D01*
Y764652D01*
G01X1550305Y714652D02*
Y727152D01*
X1556195D01*
G01X1554025Y721110D02*
X1550305D01*
G01X1563790Y727152D02*
X1567510D01*
G01X1565650D02*
Y714652D01*
G01X1563790D02*
X1567510D01*
G01X1574485D02*
Y727152D01*
X1581615Y714652D01*
Y727152D01*
G01X1588590D02*
X1592310D01*
G01X1590450D02*
Y714652D01*
G01X1588590D02*
X1592310D01*
G01X1599595Y716318D02*
X1600835Y715276D01*
X1602230Y714652D01*
X1603470D01*
X1604710Y715276D01*
X1605640Y716318D01*
X1606105Y717777D01*
X1605795Y719235D01*
X1605020Y720485D01*
X1603625Y721318D01*
X1601765Y721735D01*
X1600680Y722568D01*
X1600215Y724027D01*
X1600525Y725485D01*
X1601300Y726526D01*
X1602385Y727152D01*
X1603470D01*
X1604555Y726735D01*
X1605485Y725693D01*
G01X1611995Y714652D02*
Y727152D01*
G01X1618505D02*
Y714652D01*
G01Y720901D02*
X1611995D01*
G01X1630750Y714652D02*
X1624550D01*
Y727152D01*
X1630750D01*
G01X1628270Y721110D02*
X1624550D01*
G01X1636640Y714652D02*
Y727152D01*
X1639740D01*
X1640980Y726526D01*
X1641910Y725693D01*
X1642685Y724444D01*
X1643305Y722985D01*
X1643460Y720901D01*
X1643305Y718818D01*
X1642685Y717360D01*
X1641910Y716110D01*
X1640980Y715276D01*
X1639740Y714652D01*
X1636640D01*
G01X1647800Y710485D02*
X1657100D01*
G01X1661595Y716318D02*
X1662835Y715276D01*
X1664230Y714652D01*
X1665470D01*
X1666710Y715276D01*
X1667640Y716318D01*
X1668105Y717777D01*
X1667795Y719235D01*
X1667020Y720485D01*
X1665625Y721318D01*
X1663765Y721735D01*
X1662680Y722568D01*
X1662215Y724027D01*
X1662525Y725485D01*
X1663300Y726526D01*
X1664385Y727152D01*
X1665470D01*
X1666555Y726735D01*
X1667485Y725693D01*
G01X1675390Y727152D02*
X1679110D01*
G01X1677250D02*
Y714652D01*
G01X1675390D02*
X1679110D01*
G01X1686705Y727152D02*
X1692595D01*
X1686705Y714652D01*
X1692595D01*
G01X1705150D02*
X1698950D01*
Y727152D01*
X1705150D01*
G01X1702670Y721110D02*
X1698950D01*
G01X1557125Y739652D02*
X1561000Y752152D01*
X1564875Y739652D01*
G01X1563480Y744026D02*
X1558520D01*
G01X1570300Y752152D02*
Y739652D01*
X1576500D01*
G01X1582700Y752152D02*
Y739652D01*
X1588900D01*
G01X1607190Y752152D02*
Y743193D01*
X1607810Y741318D01*
X1609050Y740068D01*
X1610600Y739652D01*
X1612150Y740068D01*
X1613390Y741318D01*
X1614010Y743193D01*
Y752152D01*
G01X1619435Y739652D02*
Y752152D01*
X1626565Y739652D01*
Y752152D01*
G01X1633540D02*
X1637260D01*
G01X1635400D02*
Y739652D01*
G01X1633540D02*
X1637260D01*
G01X1647800Y752152D02*
Y739652D01*
G01X1644235Y752152D02*
X1651365D01*
G01X1656945Y741318D02*
X1658185Y740276D01*
X1659580Y739652D01*
X1660820D01*
X1662060Y740276D01*
X1662990Y741318D01*
X1663455Y742777D01*
X1663145Y744235D01*
X1662370Y745485D01*
X1660975Y746318D01*
X1659115Y746735D01*
X1658030Y747568D01*
X1657565Y749027D01*
X1657875Y750485D01*
X1658650Y751526D01*
X1659735Y752152D01*
X1660820D01*
X1661905Y751735D01*
X1662835Y750693D01*
G01X1681125Y739652D02*
X1685000Y752152D01*
X1688875Y739652D01*
G01X1687480Y744026D02*
X1682520D01*
G01X1694300Y739652D02*
Y752152D01*
X1698175D01*
X1699415Y751526D01*
X1700190Y750693D01*
X1700500Y749027D01*
X1700190Y747360D01*
X1699260Y746318D01*
X1698175Y745693D01*
X1694300D01*
G01X1698175D02*
X1700500Y739652D01*
G01X1712900D02*
X1706700D01*
Y752152D01*
X1712900D01*
G01X1710420Y746110D02*
X1706700D01*
G01X1732740Y752152D02*
X1736460D01*
G01X1734600D02*
Y739652D01*
G01X1732740D02*
X1736460D01*
G01X1743435D02*
Y752152D01*
X1750565Y739652D01*
Y752152D01*
G01X1767770Y739652D02*
Y752152D01*
X1771800Y741735D01*
X1775830Y752152D01*
Y739652D01*
G01X1782340Y752152D02*
X1786060D01*
G01X1784200D02*
Y739652D01*
G01X1782340D02*
X1786060D01*
G01X1793500Y752152D02*
Y739652D01*
X1799700D01*
G01X1805745Y741318D02*
X1806985Y740276D01*
X1808380Y739652D01*
X1809620D01*
X1810860Y740276D01*
X1811790Y741318D01*
X1812255Y742777D01*
X1811945Y744235D01*
X1811170Y745485D01*
X1809775Y746318D01*
X1807915Y746735D01*
X1806830Y747568D01*
X1806365Y749027D01*
X1806675Y750485D01*
X1807450Y751526D01*
X1808535Y752152D01*
X1809620D01*
X1810705Y751735D01*
X1811635Y750693D01*
G01X1562705Y-90682D02*
X1563635Y-89432D01*
X1564720Y-88807D01*
X1565960Y-88598D01*
X1567510Y-89015D01*
X1568595Y-90057D01*
X1568905Y-91307D01*
X1568750Y-92557D01*
X1568130Y-93598D01*
X1565030Y-95682D01*
X1563635Y-97140D01*
X1562705Y-99224D01*
X1562395Y-101098D01*
X1568905D01*
G01X1575415Y-99640D02*
X1576500Y-100682D01*
X1577740Y-101098D01*
X1578980Y-100682D01*
X1580065Y-99432D01*
X1580840Y-97557D01*
X1581150Y-95682D01*
Y-93390D01*
X1580840Y-91515D01*
X1580065Y-89848D01*
X1579135Y-89015D01*
X1578050Y-88598D01*
X1576810Y-89015D01*
X1575880Y-89848D01*
X1575260Y-91098D01*
X1574950Y-92765D01*
X1575260Y-94223D01*
X1576035Y-95682D01*
X1576965Y-96515D01*
X1578050Y-96724D01*
X1579290Y-96307D01*
X1580220Y-95265D01*
X1581150Y-93390D01*
G01X1587040Y-99224D02*
X1587970Y-100265D01*
X1589055Y-100890D01*
X1590450Y-101098D01*
X1591845Y-100682D01*
X1592930Y-99849D01*
X1593705Y-98390D01*
X1593860Y-96724D01*
X1593550Y-95057D01*
X1592775Y-94015D01*
X1591690Y-93182D01*
X1590605Y-92974D01*
X1589520Y-93182D01*
X1588125Y-94015D01*
X1588590Y-88598D01*
X1592775D01*
G01X1602850Y-101515D02*
X1602540Y-101307D01*
Y-100890D01*
X1602850Y-100682D01*
X1603160Y-100890D01*
Y-101307D01*
X1602850Y-101515D01*
G01X1615250Y-88598D02*
X1614010Y-89015D01*
X1613080Y-90057D01*
X1612460Y-91307D01*
X1611995Y-92974D01*
X1611840Y-94849D01*
X1611995Y-96724D01*
X1612460Y-98390D01*
X1613080Y-99640D01*
X1614010Y-100682D01*
X1615250Y-101098D01*
X1616490Y-100682D01*
X1617420Y-99640D01*
X1618040Y-98390D01*
X1618505Y-96724D01*
X1618660Y-94849D01*
X1618505Y-92974D01*
X1618040Y-91307D01*
X1617420Y-90057D01*
X1616490Y-89015D01*
X1615250Y-88598D01*
G01X1625325Y-92765D02*
X1629975Y-101098D01*
G01Y-92765D02*
X1625325Y-101098D01*
G01X1640050D02*
Y-88598D01*
X1638190Y-91098D01*
G01Y-101098D02*
X1641910D01*
G01X1652450D02*
Y-88598D01*
X1650590Y-91098D01*
G01Y-101098D02*
X1654310D01*
G01X1664850Y-88598D02*
X1663610Y-89015D01*
X1662680Y-90057D01*
X1662060Y-91307D01*
X1661595Y-92974D01*
X1661440Y-94849D01*
X1661595Y-96724D01*
X1662060Y-98390D01*
X1662680Y-99640D01*
X1663610Y-100682D01*
X1664850Y-101098D01*
X1666090Y-100682D01*
X1667020Y-99640D01*
X1667640Y-98390D01*
X1668105Y-96724D01*
X1668260Y-94849D01*
X1668105Y-92974D01*
X1667640Y-91307D01*
X1667020Y-90057D01*
X1666090Y-89015D01*
X1664850Y-88598D01*
G01X1677250Y-101515D02*
X1676940Y-101307D01*
Y-100890D01*
X1677250Y-100682D01*
X1677560Y-100890D01*
Y-101307D01*
X1677250Y-101515D01*
G01X1689650Y-88598D02*
X1688410Y-89015D01*
X1687480Y-90057D01*
X1686860Y-91307D01*
X1686395Y-92974D01*
X1686240Y-94849D01*
X1686395Y-96724D01*
X1686860Y-98390D01*
X1687480Y-99640D01*
X1688410Y-100682D01*
X1689650Y-101098D01*
X1690890Y-100682D01*
X1691820Y-99640D01*
X1692440Y-98390D01*
X1692905Y-96724D01*
X1693060Y-94849D01*
X1692905Y-92974D01*
X1692440Y-91307D01*
X1691820Y-90057D01*
X1690890Y-89015D01*
X1689650Y-88598D01*
G01X1599905Y-59182D02*
X1600835Y-57932D01*
X1601920Y-57307D01*
X1603160Y-57098D01*
X1604710Y-57515D01*
X1605795Y-58557D01*
X1606105Y-59807D01*
X1605950Y-61057D01*
X1605330Y-62098D01*
X1602230Y-64182D01*
X1600835Y-65640D01*
X1599905Y-67724D01*
X1599595Y-69598D01*
X1606105D01*
G01X1615250D02*
Y-57098D01*
X1613390Y-59598D01*
G01Y-69598D02*
X1617110D01*
G01X1627650Y-57098D02*
X1626410Y-57515D01*
X1625480Y-58557D01*
X1624860Y-59807D01*
X1624395Y-61474D01*
X1624240Y-63349D01*
X1624395Y-65224D01*
X1624860Y-66890D01*
X1625480Y-68140D01*
X1626410Y-69182D01*
X1627650Y-69598D01*
X1628890Y-69182D01*
X1629820Y-68140D01*
X1630440Y-66890D01*
X1630905Y-65224D01*
X1631060Y-63349D01*
X1630905Y-61474D01*
X1630440Y-59807D01*
X1629820Y-58557D01*
X1628890Y-57515D01*
X1627650Y-57098D01*
G01X1640050Y-70015D02*
X1639740Y-69807D01*
Y-69390D01*
X1640050Y-69182D01*
X1640360Y-69390D01*
Y-69807D01*
X1640050Y-70015D01*
G01X1652450Y-57098D02*
X1651210Y-57515D01*
X1650280Y-58557D01*
X1649660Y-59807D01*
X1649195Y-61474D01*
X1649040Y-63349D01*
X1649195Y-65224D01*
X1649660Y-66890D01*
X1650280Y-68140D01*
X1651210Y-69182D01*
X1652450Y-69598D01*
X1653690Y-69182D01*
X1654620Y-68140D01*
X1655240Y-66890D01*
X1655705Y-65224D01*
X1655860Y-63349D01*
X1655705Y-61474D01*
X1655240Y-59807D01*
X1654620Y-58557D01*
X1653690Y-57515D01*
X1652450Y-57098D01*
G01X1602850Y-38098D02*
Y-25598D01*
X1600990Y-28098D01*
G01Y-38098D02*
X1604710D01*
G01X1615250D02*
X1616335Y-37890D01*
X1617575Y-37265D01*
X1618350Y-36224D01*
X1618660Y-34765D01*
X1618350Y-33307D01*
X1617420Y-32057D01*
X1616025Y-31432D01*
X1614475D01*
X1613545Y-31015D01*
X1612770Y-29974D01*
X1612460Y-28515D01*
X1612925Y-27057D01*
X1614010Y-26015D01*
X1615250Y-25598D01*
X1616490Y-26015D01*
X1617575Y-27057D01*
X1618040Y-28515D01*
X1617730Y-29974D01*
X1616955Y-31015D01*
X1616025Y-31432D01*
X1614475D01*
X1613080Y-32057D01*
X1612150Y-33307D01*
X1611840Y-34765D01*
X1612150Y-36224D01*
X1612925Y-37265D01*
X1614165Y-37890D01*
X1615250Y-38098D01*
G01X1627650Y-25598D02*
X1626410Y-26015D01*
X1625480Y-27057D01*
X1624860Y-28306D01*
X1624395Y-29974D01*
X1624240Y-31849D01*
X1624395Y-33724D01*
X1624860Y-35390D01*
X1625480Y-36640D01*
X1626410Y-37682D01*
X1627650Y-38098D01*
X1628890Y-37682D01*
X1629820Y-36640D01*
X1630440Y-35390D01*
X1630905Y-33724D01*
X1631060Y-31849D01*
X1630905Y-29974D01*
X1630440Y-28306D01*
X1629820Y-27057D01*
X1628890Y-26015D01*
X1627650Y-25598D01*
G01X1640050Y-38515D02*
X1639740Y-38307D01*
Y-37890D01*
X1640050Y-37682D01*
X1640360Y-37890D01*
Y-38307D01*
X1640050Y-38515D01*
G01X1652450Y-25598D02*
X1651210Y-26015D01*
X1650280Y-27057D01*
X1649660Y-28306D01*
X1649195Y-29974D01*
X1649040Y-31849D01*
X1649195Y-33724D01*
X1649660Y-35390D01*
X1650280Y-36640D01*
X1651210Y-37682D01*
X1652450Y-38098D01*
X1653690Y-37682D01*
X1654620Y-36640D01*
X1655240Y-35390D01*
X1655705Y-33724D01*
X1655860Y-31849D01*
X1655705Y-29974D01*
X1655240Y-28306D01*
X1654620Y-27057D01*
X1653690Y-26015D01*
X1652450Y-25598D01*
G01X1596340Y-6598D02*
X1596650Y-3890D01*
X1597115Y-1599D01*
X1597735Y485D01*
X1598510Y2776D01*
X1599750Y5902D01*
X1593550D01*
G01X1609050D02*
X1607810Y5485D01*
X1606880Y4443D01*
X1606260Y3194D01*
X1605795Y1526D01*
X1605640Y-349D01*
X1605795Y-2224D01*
X1606260Y-3890D01*
X1606880Y-5140D01*
X1607810Y-6182D01*
X1609050Y-6598D01*
X1610290Y-6182D01*
X1611220Y-5140D01*
X1611840Y-3890D01*
X1612305Y-2224D01*
X1612460Y-349D01*
X1612305Y1526D01*
X1611840Y3194D01*
X1611220Y4443D01*
X1610290Y5485D01*
X1609050Y5902D01*
G01X1621450Y-7015D02*
X1621140Y-6807D01*
Y-6390D01*
X1621450Y-6182D01*
X1621760Y-6390D01*
Y-6807D01*
X1621450Y-7015D01*
G01X1633850Y-6598D02*
X1634935Y-6390D01*
X1636175Y-5765D01*
X1636950Y-4724D01*
X1637260Y-3265D01*
X1636950Y-1807D01*
X1636020Y-557D01*
X1634625Y68D01*
X1633075D01*
X1632145Y485D01*
X1631370Y1526D01*
X1631060Y2985D01*
X1631525Y4443D01*
X1632610Y5485D01*
X1633850Y5902D01*
X1635090Y5485D01*
X1636175Y4443D01*
X1636640Y2985D01*
X1636330Y1526D01*
X1635555Y485D01*
X1634625Y68D01*
X1633075D01*
X1631680Y-557D01*
X1630750Y-1807D01*
X1630440Y-3265D01*
X1630750Y-4724D01*
X1631525Y-5765D01*
X1632765Y-6390D01*
X1633850Y-6598D01*
G01X1643305Y-1390D02*
X1644390Y68D01*
X1645320Y902D01*
X1646560Y1318D01*
X1647645Y902D01*
X1648420Y68D01*
X1649040Y-1182D01*
X1649195Y-2640D01*
X1649040Y-3890D01*
X1648420Y-5140D01*
X1647490Y-6182D01*
X1646405Y-6598D01*
X1645165Y-6182D01*
X1644080Y-4932D01*
X1643460Y-3057D01*
X1643305Y-973D01*
X1643615Y1735D01*
X1644080Y3194D01*
X1644855Y4652D01*
X1645940Y5693D01*
X1647025Y5902D01*
X1648110Y5485D01*
X1648885Y4443D01*
G01X1655705Y-1390D02*
X1656790Y68D01*
X1657720Y902D01*
X1658960Y1318D01*
X1660045Y902D01*
X1660820Y68D01*
X1661440Y-1182D01*
X1661595Y-2640D01*
X1661440Y-3890D01*
X1660820Y-5140D01*
X1659890Y-6182D01*
X1658805Y-6598D01*
X1657565Y-6182D01*
X1656480Y-4932D01*
X1655860Y-3057D01*
X1655705Y-973D01*
X1656015Y1735D01*
X1656480Y3194D01*
X1657255Y4652D01*
X1658340Y5693D01*
X1659425Y5902D01*
X1660510Y5485D01*
X1661285Y4443D01*
G01X1593705Y30110D02*
X1594790Y31568D01*
X1595720Y32402D01*
X1596960Y32818D01*
X1598045Y32402D01*
X1598820Y31568D01*
X1599440Y30318D01*
X1599595Y28860D01*
X1599440Y27610D01*
X1598820Y26360D01*
X1597890Y25318D01*
X1596805Y24902D01*
X1595565Y25318D01*
X1594480Y26568D01*
X1593860Y28443D01*
X1593705Y30526D01*
X1594015Y33235D01*
X1594480Y34694D01*
X1595255Y36152D01*
X1596340Y37193D01*
X1597425Y37402D01*
X1598510Y36985D01*
X1599285Y35943D01*
G01X1606105Y30110D02*
X1607190Y31568D01*
X1608120Y32402D01*
X1609360Y32818D01*
X1610445Y32402D01*
X1611220Y31568D01*
X1611840Y30318D01*
X1611995Y28860D01*
X1611840Y27610D01*
X1611220Y26360D01*
X1610290Y25318D01*
X1609205Y24902D01*
X1607965Y25318D01*
X1606880Y26568D01*
X1606260Y28443D01*
X1606105Y30526D01*
X1606415Y33235D01*
X1606880Y34694D01*
X1607655Y36152D01*
X1608740Y37193D01*
X1609825Y37402D01*
X1610910Y36985D01*
X1611685Y35943D01*
G01X1621450Y24485D02*
X1621140Y24693D01*
Y25110D01*
X1621450Y25318D01*
X1621760Y25110D01*
Y24693D01*
X1621450Y24485D01*
G01X1631215Y26360D02*
X1632300Y25318D01*
X1633540Y24902D01*
X1634780Y25318D01*
X1635865Y26568D01*
X1636640Y28443D01*
X1636950Y30318D01*
Y32610D01*
X1636640Y34485D01*
X1635865Y36152D01*
X1634935Y36985D01*
X1633850Y37402D01*
X1632610Y36985D01*
X1631680Y36152D01*
X1631060Y34902D01*
X1630750Y33235D01*
X1631060Y31777D01*
X1631835Y30318D01*
X1632765Y29485D01*
X1633850Y29276D01*
X1635090Y29693D01*
X1636020Y30735D01*
X1636950Y32610D01*
G01X1643305Y35318D02*
X1644235Y36568D01*
X1645320Y37193D01*
X1646560Y37402D01*
X1648110Y36985D01*
X1649195Y35943D01*
X1649505Y34694D01*
X1649350Y33443D01*
X1648730Y32402D01*
X1645630Y30318D01*
X1644235Y28860D01*
X1643305Y26776D01*
X1642995Y24902D01*
X1649505D01*
G01X1656015Y26360D02*
X1657100Y25318D01*
X1658340Y24902D01*
X1659580Y25318D01*
X1660665Y26568D01*
X1661440Y28443D01*
X1661750Y30318D01*
Y32610D01*
X1661440Y34485D01*
X1660665Y36152D01*
X1659735Y36985D01*
X1658650Y37402D01*
X1657410Y36985D01*
X1656480Y36152D01*
X1655860Y34902D01*
X1655550Y33235D01*
X1655860Y31777D01*
X1656635Y30318D01*
X1657565Y29485D01*
X1658650Y29276D01*
X1659890Y29693D01*
X1660820Y30735D01*
X1661750Y32610D01*
G01X1602850Y87902D02*
Y100402D01*
X1600990Y97902D01*
G01Y87902D02*
X1604710D01*
G01X1615250Y100402D02*
X1614010Y99985D01*
X1613080Y98943D01*
X1612460Y97694D01*
X1611995Y96026D01*
X1611840Y94151D01*
X1611995Y92276D01*
X1612460Y90610D01*
X1613080Y89360D01*
X1614010Y88318D01*
X1615250Y87902D01*
X1616490Y88318D01*
X1617420Y89360D01*
X1618040Y90610D01*
X1618505Y92276D01*
X1618660Y94151D01*
X1618505Y96026D01*
X1618040Y97694D01*
X1617420Y98943D01*
X1616490Y99985D01*
X1615250Y100402D01*
G01X1624240Y89776D02*
X1625170Y88735D01*
X1626255Y88110D01*
X1627650Y87902D01*
X1629045Y88318D01*
X1630130Y89151D01*
X1630905Y90610D01*
X1631060Y92276D01*
X1630750Y93943D01*
X1629975Y94985D01*
X1628890Y95818D01*
X1627805Y96026D01*
X1626720Y95818D01*
X1625325Y94985D01*
X1625790Y100402D01*
X1629975D01*
G01X1640050Y87485D02*
X1639740Y87693D01*
Y88110D01*
X1640050Y88318D01*
X1640360Y88110D01*
Y87693D01*
X1640050Y87485D01*
G01X1652450Y100402D02*
X1651210Y99985D01*
X1650280Y98943D01*
X1649660Y97694D01*
X1649195Y96026D01*
X1649040Y94151D01*
X1649195Y92276D01*
X1649660Y90610D01*
X1650280Y89360D01*
X1651210Y88318D01*
X1652450Y87902D01*
X1653690Y88318D01*
X1654620Y89360D01*
X1655240Y90610D01*
X1655705Y92276D01*
X1655860Y94151D01*
X1655705Y96026D01*
X1655240Y97694D01*
X1654620Y98943D01*
X1653690Y99985D01*
X1652450Y100402D01*
G01X1602850Y119402D02*
X1603935Y119610D01*
X1605175Y120235D01*
X1605950Y121276D01*
X1606260Y122735D01*
X1605950Y124193D01*
X1605020Y125443D01*
X1603625Y126068D01*
X1602075D01*
X1601145Y126485D01*
X1600370Y127526D01*
X1600060Y128985D01*
X1600525Y130443D01*
X1601610Y131485D01*
X1602850Y131902D01*
X1604090Y131485D01*
X1605175Y130443D01*
X1605640Y128985D01*
X1605330Y127526D01*
X1604555Y126485D01*
X1603625Y126068D01*
X1602075D01*
X1600680Y125443D01*
X1599750Y124193D01*
X1599440Y122735D01*
X1599750Y121276D01*
X1600525Y120235D01*
X1601765Y119610D01*
X1602850Y119402D01*
G01X1612305Y124610D02*
X1613390Y126068D01*
X1614320Y126902D01*
X1615560Y127318D01*
X1616645Y126902D01*
X1617420Y126068D01*
X1618040Y124818D01*
X1618195Y123360D01*
X1618040Y122110D01*
X1617420Y120860D01*
X1616490Y119818D01*
X1615405Y119402D01*
X1614165Y119818D01*
X1613080Y121068D01*
X1612460Y122943D01*
X1612305Y125027D01*
X1612615Y127735D01*
X1613080Y129194D01*
X1613855Y130652D01*
X1614940Y131693D01*
X1616025Y131902D01*
X1617110Y131485D01*
X1617885Y130443D01*
G01X1627650Y118985D02*
X1627340Y119193D01*
Y119610D01*
X1627650Y119818D01*
X1627960Y119610D01*
Y119193D01*
X1627650Y118985D01*
G01X1637105Y129818D02*
X1638035Y131068D01*
X1639120Y131693D01*
X1640360Y131902D01*
X1641910Y131485D01*
X1642995Y130443D01*
X1643305Y129194D01*
X1643150Y127943D01*
X1642530Y126902D01*
X1639430Y124818D01*
X1638035Y123360D01*
X1637105Y121276D01*
X1636795Y119402D01*
X1643305D01*
G01X1649505Y129818D02*
X1650435Y131068D01*
X1651520Y131693D01*
X1652760Y131902D01*
X1654310Y131485D01*
X1655395Y130443D01*
X1655705Y129194D01*
X1655550Y127943D01*
X1654930Y126902D01*
X1651830Y124818D01*
X1650435Y123360D01*
X1649505Y121276D01*
X1649195Y119402D01*
X1655705D01*
G01X1596650Y182402D02*
X1597735Y182610D01*
X1598975Y183235D01*
X1599750Y184276D01*
X1600060Y185735D01*
X1599750Y187193D01*
X1598820Y188443D01*
X1597425Y189068D01*
X1595875D01*
X1594945Y189485D01*
X1594170Y190526D01*
X1593860Y191985D01*
X1594325Y193443D01*
X1595410Y194485D01*
X1596650Y194902D01*
X1597890Y194485D01*
X1598975Y193443D01*
X1599440Y191985D01*
X1599130Y190526D01*
X1598355Y189485D01*
X1597425Y189068D01*
X1595875D01*
X1594480Y188443D01*
X1593550Y187193D01*
X1593240Y185735D01*
X1593550Y184276D01*
X1594325Y183235D01*
X1595565Y182610D01*
X1596650Y182402D01*
G01X1609050D02*
Y194902D01*
X1607190Y192402D01*
G01Y182402D02*
X1610910D01*
G01X1621450Y181985D02*
X1621140Y182193D01*
Y182610D01*
X1621450Y182818D01*
X1621760Y182610D01*
Y182193D01*
X1621450Y181985D01*
G01X1633850Y182402D02*
Y194902D01*
X1631990Y192402D01*
G01Y182402D02*
X1635710D01*
G01X1646250Y194902D02*
X1645010Y194485D01*
X1644080Y193443D01*
X1643460Y192194D01*
X1642995Y190526D01*
X1642840Y188651D01*
X1642995Y186776D01*
X1643460Y185110D01*
X1644080Y183860D01*
X1645010Y182818D01*
X1646250Y182402D01*
X1647490Y182818D01*
X1648420Y183860D01*
X1649040Y185110D01*
X1649505Y186776D01*
X1649660Y188651D01*
X1649505Y190526D01*
X1649040Y192194D01*
X1648420Y193443D01*
X1647490Y194485D01*
X1646250Y194902D01*
G01X1655705Y192818D02*
X1656635Y194068D01*
X1657720Y194693D01*
X1658960Y194902D01*
X1660510Y194485D01*
X1661595Y193443D01*
X1661905Y192194D01*
X1661750Y190943D01*
X1661130Y189902D01*
X1658030Y187818D01*
X1656635Y186360D01*
X1655705Y184276D01*
X1655395Y182402D01*
X1661905D01*
G01X1598510Y402902D02*
Y415402D01*
X1592775Y406443D01*
X1600525D01*
G01X1606105Y408110D02*
X1607190Y409568D01*
X1608120Y410402D01*
X1609360Y410818D01*
X1610445Y410402D01*
X1611220Y409568D01*
X1611840Y408318D01*
X1611995Y406860D01*
X1611840Y405610D01*
X1611220Y404360D01*
X1610290Y403318D01*
X1609205Y402902D01*
X1607965Y403318D01*
X1606880Y404568D01*
X1606260Y406443D01*
X1606105Y408526D01*
X1606415Y411235D01*
X1606880Y412694D01*
X1607655Y414152D01*
X1608740Y415193D01*
X1609825Y415402D01*
X1610910Y414985D01*
X1611685Y413943D01*
G01X1621450Y402485D02*
X1621140Y402693D01*
Y403110D01*
X1621450Y403318D01*
X1621760Y403110D01*
Y402693D01*
X1621450Y402485D01*
G01X1633850Y415402D02*
X1632610Y414985D01*
X1631680Y413943D01*
X1631060Y412694D01*
X1630595Y411026D01*
X1630440Y409151D01*
X1630595Y407276D01*
X1631060Y405610D01*
X1631680Y404360D01*
X1632610Y403318D01*
X1633850Y402902D01*
X1635090Y403318D01*
X1636020Y404360D01*
X1636640Y405610D01*
X1637105Y407276D01*
X1637260Y409151D01*
X1637105Y411026D01*
X1636640Y412694D01*
X1636020Y413943D01*
X1635090Y414985D01*
X1633850Y415402D01*
G01X1643305Y408110D02*
X1644390Y409568D01*
X1645320Y410402D01*
X1646560Y410818D01*
X1647645Y410402D01*
X1648420Y409568D01*
X1649040Y408318D01*
X1649195Y406860D01*
X1649040Y405610D01*
X1648420Y404360D01*
X1647490Y403318D01*
X1646405Y402902D01*
X1645165Y403318D01*
X1644080Y404568D01*
X1643460Y406443D01*
X1643305Y408526D01*
X1643615Y411235D01*
X1644080Y412694D01*
X1644855Y414152D01*
X1645940Y415193D01*
X1647025Y415402D01*
X1648110Y414985D01*
X1648885Y413943D01*
G01X1655240Y405401D02*
X1656170Y403943D01*
X1657410Y403110D01*
X1658805Y402902D01*
X1660045Y403110D01*
X1661285Y404151D01*
X1662060Y405401D01*
X1662215Y406652D01*
X1661905Y408110D01*
X1660820Y409151D01*
X1659735Y409568D01*
X1658340D01*
G01X1659735D02*
X1660665Y410193D01*
X1661440Y411235D01*
X1661750Y412485D01*
X1661440Y413735D01*
X1660665Y414776D01*
X1659270Y415402D01*
X1657875Y415193D01*
X1656480Y414360D01*
G01X1593240Y562901D02*
X1594170Y561443D01*
X1595410Y560610D01*
X1596805Y560402D01*
X1598045Y560610D01*
X1599285Y561651D01*
X1600060Y562901D01*
X1600215Y564152D01*
X1599905Y565610D01*
X1598820Y566651D01*
X1597735Y567068D01*
X1596340D01*
G01X1597735D02*
X1598665Y567693D01*
X1599440Y568735D01*
X1599750Y569985D01*
X1599440Y571235D01*
X1598665Y572276D01*
X1597270Y572902D01*
X1595875Y572693D01*
X1594480Y571860D01*
G01X1605640Y562901D02*
X1606570Y561443D01*
X1607810Y560610D01*
X1609205Y560402D01*
X1610445Y560610D01*
X1611685Y561651D01*
X1612460Y562901D01*
X1612615Y564152D01*
X1612305Y565610D01*
X1611220Y566651D01*
X1610135Y567068D01*
X1608740D01*
G01X1610135D02*
X1611065Y567693D01*
X1611840Y568735D01*
X1612150Y569985D01*
X1611840Y571235D01*
X1611065Y572276D01*
X1609670Y572902D01*
X1608275Y572693D01*
X1606880Y571860D01*
G01X1621450Y559985D02*
X1621140Y560193D01*
Y560610D01*
X1621450Y560818D01*
X1621760Y560610D01*
Y560193D01*
X1621450Y559985D01*
G01X1633850Y572902D02*
X1632610Y572485D01*
X1631680Y571443D01*
X1631060Y570194D01*
X1630595Y568526D01*
X1630440Y566651D01*
X1630595Y564776D01*
X1631060Y563110D01*
X1631680Y561860D01*
X1632610Y560818D01*
X1633850Y560402D01*
X1635090Y560818D01*
X1636020Y561860D01*
X1636640Y563110D01*
X1637105Y564776D01*
X1637260Y566651D01*
X1637105Y568526D01*
X1636640Y570194D01*
X1636020Y571443D01*
X1635090Y572485D01*
X1633850Y572902D01*
G01X1645940Y560402D02*
X1646250Y563110D01*
X1646715Y565401D01*
X1647335Y567485D01*
X1648110Y569776D01*
X1649350Y572902D01*
X1643150D01*
G01X1658650Y560402D02*
Y572902D01*
X1656790Y570402D01*
G01Y560402D02*
X1660510D01*
G01X1605640Y58276D02*
X1606570Y57235D01*
X1607655Y56610D01*
X1609050Y56402D01*
X1610445Y56818D01*
X1611530Y57651D01*
X1612305Y59110D01*
X1612460Y60776D01*
X1612150Y62443D01*
X1611375Y63485D01*
X1610290Y64318D01*
X1609205Y64526D01*
X1608120Y64318D01*
X1606725Y63485D01*
X1607190Y68902D01*
X1611375D01*
G01X1621450D02*
X1620210Y68485D01*
X1619280Y67443D01*
X1618660Y66194D01*
X1618195Y64526D01*
X1618040Y62651D01*
X1618195Y60776D01*
X1618660Y59110D01*
X1619280Y57860D01*
X1620210Y56818D01*
X1621450Y56402D01*
X1622690Y56818D01*
X1623620Y57860D01*
X1624240Y59110D01*
X1624705Y60776D01*
X1624860Y62651D01*
X1624705Y64526D01*
X1624240Y66194D01*
X1623620Y67443D01*
X1622690Y68485D01*
X1621450Y68902D01*
G01X1633850Y55985D02*
X1633540Y56193D01*
Y56610D01*
X1633850Y56818D01*
X1634160Y56610D01*
Y56193D01*
X1633850Y55985D01*
G01X1646250Y68902D02*
X1645010Y68485D01*
X1644080Y67443D01*
X1643460Y66194D01*
X1642995Y64526D01*
X1642840Y62651D01*
X1642995Y60776D01*
X1643460Y59110D01*
X1644080Y57860D01*
X1645010Y56818D01*
X1646250Y56402D01*
X1647490Y56818D01*
X1648420Y57860D01*
X1649040Y59110D01*
X1649505Y60776D01*
X1649660Y62651D01*
X1649505Y64526D01*
X1649040Y66194D01*
X1648420Y67443D01*
X1647490Y68485D01*
X1646250Y68902D01*
G01X1609050Y150902D02*
X1610135Y151110D01*
X1611375Y151735D01*
X1612150Y152776D01*
X1612460Y154235D01*
X1612150Y155693D01*
X1611220Y156943D01*
X1609825Y157568D01*
X1608275D01*
X1607345Y157985D01*
X1606570Y159026D01*
X1606260Y160485D01*
X1606725Y161943D01*
X1607810Y162985D01*
X1609050Y163402D01*
X1610290Y162985D01*
X1611375Y161943D01*
X1611840Y160485D01*
X1611530Y159026D01*
X1610755Y157985D01*
X1609825Y157568D01*
X1608275D01*
X1606880Y156943D01*
X1605950Y155693D01*
X1605640Y154235D01*
X1605950Y152776D01*
X1606725Y151735D01*
X1607965Y151110D01*
X1609050Y150902D01*
G01X1618040Y153401D02*
X1618970Y151943D01*
X1620210Y151110D01*
X1621605Y150902D01*
X1622845Y151110D01*
X1624085Y152151D01*
X1624860Y153401D01*
X1625015Y154652D01*
X1624705Y156110D01*
X1623620Y157151D01*
X1622535Y157568D01*
X1621140D01*
G01X1622535D02*
X1623465Y158193D01*
X1624240Y159235D01*
X1624550Y160485D01*
X1624240Y161735D01*
X1623465Y162776D01*
X1622070Y163402D01*
X1620675Y163193D01*
X1619280Y162360D01*
G01X1633850Y150485D02*
X1633540Y150693D01*
Y151110D01*
X1633850Y151318D01*
X1634160Y151110D01*
Y150693D01*
X1633850Y150485D01*
G01X1646250Y163402D02*
X1645010Y162985D01*
X1644080Y161943D01*
X1643460Y160694D01*
X1642995Y159026D01*
X1642840Y157151D01*
X1642995Y155276D01*
X1643460Y153610D01*
X1644080Y152360D01*
X1645010Y151318D01*
X1646250Y150902D01*
X1647490Y151318D01*
X1648420Y152360D01*
X1649040Y153610D01*
X1649505Y155276D01*
X1649660Y157151D01*
X1649505Y159026D01*
X1649040Y160694D01*
X1648420Y161943D01*
X1647490Y162985D01*
X1646250Y163402D01*
G01X1609050Y213902D02*
X1610135Y214110D01*
X1611375Y214735D01*
X1612150Y215776D01*
X1612460Y217235D01*
X1612150Y218693D01*
X1611220Y219943D01*
X1609825Y220568D01*
X1608275D01*
X1607345Y220985D01*
X1606570Y222026D01*
X1606260Y223485D01*
X1606725Y224943D01*
X1607810Y225985D01*
X1609050Y226402D01*
X1610290Y225985D01*
X1611375Y224943D01*
X1611840Y223485D01*
X1611530Y222026D01*
X1610755Y220985D01*
X1609825Y220568D01*
X1608275D01*
X1606880Y219943D01*
X1605950Y218693D01*
X1605640Y217235D01*
X1605950Y215776D01*
X1606725Y214735D01*
X1607965Y214110D01*
X1609050Y213902D01*
G01X1621450Y226402D02*
X1620210Y225985D01*
X1619280Y224943D01*
X1618660Y223694D01*
X1618195Y222026D01*
X1618040Y220151D01*
X1618195Y218276D01*
X1618660Y216610D01*
X1619280Y215360D01*
X1620210Y214318D01*
X1621450Y213902D01*
X1622690Y214318D01*
X1623620Y215360D01*
X1624240Y216610D01*
X1624705Y218276D01*
X1624860Y220151D01*
X1624705Y222026D01*
X1624240Y223694D01*
X1623620Y224943D01*
X1622690Y225985D01*
X1621450Y226402D01*
G01X1633850Y213485D02*
X1633540Y213693D01*
Y214110D01*
X1633850Y214318D01*
X1634160Y214110D01*
Y213693D01*
X1633850Y213485D01*
G01X1646250Y226402D02*
X1645010Y225985D01*
X1644080Y224943D01*
X1643460Y223694D01*
X1642995Y222026D01*
X1642840Y220151D01*
X1642995Y218276D01*
X1643460Y216610D01*
X1644080Y215360D01*
X1645010Y214318D01*
X1646250Y213902D01*
X1647490Y214318D01*
X1648420Y215360D01*
X1649040Y216610D01*
X1649505Y218276D01*
X1649660Y220151D01*
X1649505Y222026D01*
X1649040Y223694D01*
X1648420Y224943D01*
X1647490Y225985D01*
X1646250Y226402D01*
G01X1606105Y250610D02*
X1607190Y252068D01*
X1608120Y252901D01*
X1609360Y253318D01*
X1610445Y252901D01*
X1611220Y252068D01*
X1611840Y250818D01*
X1611995Y249360D01*
X1611840Y248110D01*
X1611220Y246860D01*
X1610290Y245818D01*
X1609205Y245402D01*
X1607965Y245818D01*
X1606880Y247068D01*
X1606260Y248943D01*
X1606105Y251026D01*
X1606415Y253735D01*
X1606880Y255193D01*
X1607655Y256652D01*
X1608740Y257693D01*
X1609825Y257902D01*
X1610910Y257485D01*
X1611685Y256443D01*
G01X1618505Y250610D02*
X1619590Y252068D01*
X1620520Y252901D01*
X1621760Y253318D01*
X1622845Y252901D01*
X1623620Y252068D01*
X1624240Y250818D01*
X1624395Y249360D01*
X1624240Y248110D01*
X1623620Y246860D01*
X1622690Y245818D01*
X1621605Y245402D01*
X1620365Y245818D01*
X1619280Y247068D01*
X1618660Y248943D01*
X1618505Y251026D01*
X1618815Y253735D01*
X1619280Y255193D01*
X1620055Y256652D01*
X1621140Y257693D01*
X1622225Y257902D01*
X1623310Y257485D01*
X1624085Y256443D01*
G01X1633850Y244985D02*
X1633540Y245193D01*
Y245610D01*
X1633850Y245818D01*
X1634160Y245610D01*
Y245193D01*
X1633850Y244985D01*
G01X1646250Y257902D02*
X1645010Y257485D01*
X1644080Y256443D01*
X1643460Y255193D01*
X1642995Y253526D01*
X1642840Y251651D01*
X1642995Y249776D01*
X1643460Y248110D01*
X1644080Y246860D01*
X1645010Y245818D01*
X1646250Y245402D01*
X1647490Y245818D01*
X1648420Y246860D01*
X1649040Y248110D01*
X1649505Y249776D01*
X1649660Y251651D01*
X1649505Y253526D01*
X1649040Y255193D01*
X1648420Y256443D01*
X1647490Y257485D01*
X1646250Y257902D01*
G01X1605640Y278776D02*
X1606570Y277735D01*
X1607655Y277110D01*
X1609050Y276902D01*
X1610445Y277318D01*
X1611530Y278151D01*
X1612305Y279610D01*
X1612460Y281276D01*
X1612150Y282943D01*
X1611375Y283985D01*
X1610290Y284818D01*
X1609205Y285026D01*
X1608120Y284818D01*
X1606725Y283985D01*
X1607190Y289402D01*
X1611375D01*
G01X1621450Y276902D02*
X1622535Y277110D01*
X1623775Y277735D01*
X1624550Y278776D01*
X1624860Y280235D01*
X1624550Y281693D01*
X1623620Y282943D01*
X1622225Y283568D01*
X1620675D01*
X1619745Y283985D01*
X1618970Y285026D01*
X1618660Y286485D01*
X1619125Y287943D01*
X1620210Y288985D01*
X1621450Y289402D01*
X1622690Y288985D01*
X1623775Y287943D01*
X1624240Y286485D01*
X1623930Y285026D01*
X1623155Y283985D01*
X1622225Y283568D01*
X1620675D01*
X1619280Y282943D01*
X1618350Y281693D01*
X1618040Y280235D01*
X1618350Y278776D01*
X1619125Y277735D01*
X1620365Y277110D01*
X1621450Y276902D01*
G01X1633850Y276485D02*
X1633540Y276693D01*
Y277110D01*
X1633850Y277318D01*
X1634160Y277110D01*
Y276693D01*
X1633850Y276485D01*
G01X1646250Y289402D02*
X1645010Y288985D01*
X1644080Y287943D01*
X1643460Y286694D01*
X1642995Y285026D01*
X1642840Y283151D01*
X1642995Y281276D01*
X1643460Y279610D01*
X1644080Y278360D01*
X1645010Y277318D01*
X1646250Y276902D01*
X1647490Y277318D01*
X1648420Y278360D01*
X1649040Y279610D01*
X1649505Y281276D01*
X1649660Y283151D01*
X1649505Y285026D01*
X1649040Y286694D01*
X1648420Y287943D01*
X1647490Y288985D01*
X1646250Y289402D01*
G01X1605640Y310276D02*
X1606570Y309235D01*
X1607655Y308610D01*
X1609050Y308402D01*
X1610445Y308818D01*
X1611530Y309651D01*
X1612305Y311110D01*
X1612460Y312776D01*
X1612150Y314443D01*
X1611375Y315485D01*
X1610290Y316318D01*
X1609205Y316526D01*
X1608120Y316318D01*
X1606725Y315485D01*
X1607190Y320902D01*
X1611375D01*
G01X1618505Y318818D02*
X1619435Y320068D01*
X1620520Y320693D01*
X1621760Y320902D01*
X1623310Y320485D01*
X1624395Y319443D01*
X1624705Y318194D01*
X1624550Y316943D01*
X1623930Y315902D01*
X1620830Y313818D01*
X1619435Y312360D01*
X1618505Y310276D01*
X1618195Y308402D01*
X1624705D01*
G01X1633850Y307985D02*
X1633540Y308193D01*
Y308610D01*
X1633850Y308818D01*
X1634160Y308610D01*
Y308193D01*
X1633850Y307985D01*
G01X1646250Y320902D02*
X1645010Y320485D01*
X1644080Y319443D01*
X1643460Y318194D01*
X1642995Y316526D01*
X1642840Y314651D01*
X1642995Y312776D01*
X1643460Y311110D01*
X1644080Y309860D01*
X1645010Y308818D01*
X1646250Y308402D01*
X1647490Y308818D01*
X1648420Y309860D01*
X1649040Y311110D01*
X1649505Y312776D01*
X1649660Y314651D01*
X1649505Y316526D01*
X1649040Y318194D01*
X1648420Y319443D01*
X1647490Y320485D01*
X1646250Y320902D01*
G01X1605640Y341776D02*
X1606570Y340735D01*
X1607655Y340110D01*
X1609050Y339902D01*
X1610445Y340318D01*
X1611530Y341151D01*
X1612305Y342610D01*
X1612460Y344276D01*
X1612150Y345943D01*
X1611375Y346985D01*
X1610290Y347818D01*
X1609205Y348026D01*
X1608120Y347818D01*
X1606725Y346985D01*
X1607190Y352402D01*
X1611375D01*
G01X1621450Y339902D02*
Y352402D01*
X1619590Y349902D01*
G01Y339902D02*
X1623310D01*
G01X1633850Y339485D02*
X1633540Y339693D01*
Y340110D01*
X1633850Y340318D01*
X1634160Y340110D01*
Y339693D01*
X1633850Y339485D01*
G01X1646250Y352402D02*
X1645010Y351985D01*
X1644080Y350943D01*
X1643460Y349694D01*
X1642995Y348026D01*
X1642840Y346151D01*
X1642995Y344276D01*
X1643460Y342610D01*
X1644080Y341360D01*
X1645010Y340318D01*
X1646250Y339902D01*
X1647490Y340318D01*
X1648420Y341360D01*
X1649040Y342610D01*
X1649505Y344276D01*
X1649660Y346151D01*
X1649505Y348026D01*
X1649040Y349694D01*
X1648420Y350943D01*
X1647490Y351985D01*
X1646250Y352402D01*
G01X1605640Y373276D02*
X1606570Y372235D01*
X1607655Y371610D01*
X1609050Y371402D01*
X1610445Y371818D01*
X1611530Y372651D01*
X1612305Y374110D01*
X1612460Y375776D01*
X1612150Y377443D01*
X1611375Y378485D01*
X1610290Y379318D01*
X1609205Y379526D01*
X1608120Y379318D01*
X1606725Y378485D01*
X1607190Y383902D01*
X1611375D01*
G01X1621450D02*
X1620210Y383485D01*
X1619280Y382443D01*
X1618660Y381194D01*
X1618195Y379526D01*
X1618040Y377651D01*
X1618195Y375776D01*
X1618660Y374110D01*
X1619280Y372860D01*
X1620210Y371818D01*
X1621450Y371402D01*
X1622690Y371818D01*
X1623620Y372860D01*
X1624240Y374110D01*
X1624705Y375776D01*
X1624860Y377651D01*
X1624705Y379526D01*
X1624240Y381194D01*
X1623620Y382443D01*
X1622690Y383485D01*
X1621450Y383902D01*
G01X1633850Y370985D02*
X1633540Y371193D01*
Y371610D01*
X1633850Y371818D01*
X1634160Y371610D01*
Y371193D01*
X1633850Y370985D01*
G01X1646250Y383902D02*
X1645010Y383485D01*
X1644080Y382443D01*
X1643460Y381194D01*
X1642995Y379526D01*
X1642840Y377651D01*
X1642995Y375776D01*
X1643460Y374110D01*
X1644080Y372860D01*
X1645010Y371818D01*
X1646250Y371402D01*
X1647490Y371818D01*
X1648420Y372860D01*
X1649040Y374110D01*
X1649505Y375776D01*
X1649660Y377651D01*
X1649505Y379526D01*
X1649040Y381194D01*
X1648420Y382443D01*
X1647490Y383485D01*
X1646250Y383902D01*
G01X1610910Y434402D02*
Y446902D01*
X1605175Y437943D01*
X1612925D01*
G01X1618505Y444818D02*
X1619435Y446068D01*
X1620520Y446693D01*
X1621760Y446902D01*
X1623310Y446485D01*
X1624395Y445443D01*
X1624705Y444194D01*
X1624550Y442943D01*
X1623930Y441902D01*
X1620830Y439818D01*
X1619435Y438360D01*
X1618505Y436276D01*
X1618195Y434402D01*
X1624705D01*
G01X1633850Y433985D02*
X1633540Y434193D01*
Y434610D01*
X1633850Y434818D01*
X1634160Y434610D01*
Y434193D01*
X1633850Y433985D01*
G01X1646250Y446902D02*
X1645010Y446485D01*
X1644080Y445443D01*
X1643460Y444194D01*
X1642995Y442526D01*
X1642840Y440651D01*
X1642995Y438776D01*
X1643460Y437110D01*
X1644080Y435860D01*
X1645010Y434818D01*
X1646250Y434402D01*
X1647490Y434818D01*
X1648420Y435860D01*
X1649040Y437110D01*
X1649505Y438776D01*
X1649660Y440651D01*
X1649505Y442526D01*
X1649040Y444194D01*
X1648420Y445443D01*
X1647490Y446485D01*
X1646250Y446902D01*
G01X1610910Y465902D02*
Y478402D01*
X1605175Y469443D01*
X1612925D01*
G01X1621450Y478402D02*
X1620210Y477985D01*
X1619280Y476943D01*
X1618660Y475694D01*
X1618195Y474026D01*
X1618040Y472151D01*
X1618195Y470276D01*
X1618660Y468610D01*
X1619280Y467360D01*
X1620210Y466318D01*
X1621450Y465902D01*
X1622690Y466318D01*
X1623620Y467360D01*
X1624240Y468610D01*
X1624705Y470276D01*
X1624860Y472151D01*
X1624705Y474026D01*
X1624240Y475694D01*
X1623620Y476943D01*
X1622690Y477985D01*
X1621450Y478402D01*
G01X1633850Y465485D02*
X1633540Y465693D01*
Y466110D01*
X1633850Y466318D01*
X1634160Y466110D01*
Y465693D01*
X1633850Y465485D01*
G01X1646250Y478402D02*
X1645010Y477985D01*
X1644080Y476943D01*
X1643460Y475694D01*
X1642995Y474026D01*
X1642840Y472151D01*
X1642995Y470276D01*
X1643460Y468610D01*
X1644080Y467360D01*
X1645010Y466318D01*
X1646250Y465902D01*
X1647490Y466318D01*
X1648420Y467360D01*
X1649040Y468610D01*
X1649505Y470276D01*
X1649660Y472151D01*
X1649505Y474026D01*
X1649040Y475694D01*
X1648420Y476943D01*
X1647490Y477985D01*
X1646250Y478402D01*
G01X1610910Y497402D02*
Y509902D01*
X1605175Y500943D01*
X1612925D01*
G01X1621450Y509902D02*
X1620210Y509485D01*
X1619280Y508443D01*
X1618660Y507194D01*
X1618195Y505526D01*
X1618040Y503651D01*
X1618195Y501776D01*
X1618660Y500110D01*
X1619280Y498860D01*
X1620210Y497818D01*
X1621450Y497402D01*
X1622690Y497818D01*
X1623620Y498860D01*
X1624240Y500110D01*
X1624705Y501776D01*
X1624860Y503651D01*
X1624705Y505526D01*
X1624240Y507194D01*
X1623620Y508443D01*
X1622690Y509485D01*
X1621450Y509902D01*
G01X1633850Y496985D02*
X1633540Y497193D01*
Y497610D01*
X1633850Y497818D01*
X1634160Y497610D01*
Y497193D01*
X1633850Y496985D01*
G01X1646250Y509902D02*
X1645010Y509485D01*
X1644080Y508443D01*
X1643460Y507194D01*
X1642995Y505526D01*
X1642840Y503651D01*
X1642995Y501776D01*
X1643460Y500110D01*
X1644080Y498860D01*
X1645010Y497818D01*
X1646250Y497402D01*
X1647490Y497818D01*
X1648420Y498860D01*
X1649040Y500110D01*
X1649505Y501776D01*
X1649660Y503651D01*
X1649505Y505526D01*
X1649040Y507194D01*
X1648420Y508443D01*
X1647490Y509485D01*
X1646250Y509902D01*
G01X1605640Y531401D02*
X1606570Y529943D01*
X1607810Y529110D01*
X1609205Y528902D01*
X1610445Y529110D01*
X1611685Y530151D01*
X1612460Y531401D01*
X1612615Y532652D01*
X1612305Y534110D01*
X1611220Y535151D01*
X1610135Y535568D01*
X1608740D01*
G01X1610135D02*
X1611065Y536193D01*
X1611840Y537235D01*
X1612150Y538485D01*
X1611840Y539735D01*
X1611065Y540776D01*
X1609670Y541402D01*
X1608275Y541193D01*
X1606880Y540360D01*
G01X1618505Y534110D02*
X1619590Y535568D01*
X1620520Y536402D01*
X1621760Y536818D01*
X1622845Y536402D01*
X1623620Y535568D01*
X1624240Y534318D01*
X1624395Y532860D01*
X1624240Y531610D01*
X1623620Y530360D01*
X1622690Y529318D01*
X1621605Y528902D01*
X1620365Y529318D01*
X1619280Y530568D01*
X1618660Y532443D01*
X1618505Y534526D01*
X1618815Y537235D01*
X1619280Y538694D01*
X1620055Y540152D01*
X1621140Y541193D01*
X1622225Y541402D01*
X1623310Y540985D01*
X1624085Y539943D01*
G01X1633850Y528485D02*
X1633540Y528693D01*
Y529110D01*
X1633850Y529318D01*
X1634160Y529110D01*
Y528693D01*
X1633850Y528485D01*
G01X1646250Y541402D02*
X1645010Y540985D01*
X1644080Y539943D01*
X1643460Y538694D01*
X1642995Y537026D01*
X1642840Y535151D01*
X1642995Y533276D01*
X1643460Y531610D01*
X1644080Y530360D01*
X1645010Y529318D01*
X1646250Y528902D01*
X1647490Y529318D01*
X1648420Y530360D01*
X1649040Y531610D01*
X1649505Y533276D01*
X1649660Y535151D01*
X1649505Y537026D01*
X1649040Y538694D01*
X1648420Y539943D01*
X1647490Y540985D01*
X1646250Y541402D01*
G01X1605640Y594401D02*
X1606570Y592943D01*
X1607810Y592110D01*
X1609205Y591902D01*
X1610445Y592110D01*
X1611685Y593151D01*
X1612460Y594401D01*
X1612615Y595652D01*
X1612305Y597110D01*
X1611220Y598151D01*
X1610135Y598568D01*
X1608740D01*
G01X1610135D02*
X1611065Y599193D01*
X1611840Y600235D01*
X1612150Y601485D01*
X1611840Y602735D01*
X1611065Y603776D01*
X1609670Y604402D01*
X1608275Y604193D01*
X1606880Y603360D01*
G01X1618505Y602318D02*
X1619435Y603568D01*
X1620520Y604193D01*
X1621760Y604402D01*
X1623310Y603985D01*
X1624395Y602943D01*
X1624705Y601694D01*
X1624550Y600443D01*
X1623930Y599402D01*
X1620830Y597318D01*
X1619435Y595860D01*
X1618505Y593776D01*
X1618195Y591902D01*
X1624705D01*
G01X1633850Y591485D02*
X1633540Y591693D01*
Y592110D01*
X1633850Y592318D01*
X1634160Y592110D01*
Y591693D01*
X1633850Y591485D01*
G01X1646250Y604402D02*
X1645010Y603985D01*
X1644080Y602943D01*
X1643460Y601694D01*
X1642995Y600026D01*
X1642840Y598151D01*
X1642995Y596276D01*
X1643460Y594610D01*
X1644080Y593360D01*
X1645010Y592318D01*
X1646250Y591902D01*
X1647490Y592318D01*
X1648420Y593360D01*
X1649040Y594610D01*
X1649505Y596276D01*
X1649660Y598151D01*
X1649505Y600026D01*
X1649040Y601694D01*
X1648420Y602943D01*
X1647490Y603985D01*
X1646250Y604402D01*
G01X1605640Y625901D02*
X1606570Y624443D01*
X1607810Y623610D01*
X1609205Y623402D01*
X1610445Y623610D01*
X1611685Y624651D01*
X1612460Y625901D01*
X1612615Y627152D01*
X1612305Y628610D01*
X1611220Y629651D01*
X1610135Y630068D01*
X1608740D01*
G01X1610135D02*
X1611065Y630693D01*
X1611840Y631735D01*
X1612150Y632985D01*
X1611840Y634235D01*
X1611065Y635276D01*
X1609670Y635902D01*
X1608275Y635693D01*
X1606880Y634860D01*
G01X1621450Y623402D02*
Y635902D01*
X1619590Y633402D01*
G01Y623402D02*
X1623310D01*
G01X1633850Y622985D02*
X1633540Y623193D01*
Y623610D01*
X1633850Y623818D01*
X1634160Y623610D01*
Y623193D01*
X1633850Y622985D01*
G01X1646250Y635902D02*
X1645010Y635485D01*
X1644080Y634443D01*
X1643460Y633194D01*
X1642995Y631526D01*
X1642840Y629651D01*
X1642995Y627776D01*
X1643460Y626110D01*
X1644080Y624860D01*
X1645010Y623818D01*
X1646250Y623402D01*
X1647490Y623818D01*
X1648420Y624860D01*
X1649040Y626110D01*
X1649505Y627776D01*
X1649660Y629651D01*
X1649505Y631526D01*
X1649040Y633194D01*
X1648420Y634443D01*
X1647490Y635485D01*
X1646250Y635902D01*
G01X1606105Y665318D02*
X1607035Y666568D01*
X1608120Y667193D01*
X1609360Y667402D01*
X1610910Y666985D01*
X1611995Y665943D01*
X1612305Y664694D01*
X1612150Y663443D01*
X1611530Y662402D01*
X1608430Y660318D01*
X1607035Y658860D01*
X1606105Y656776D01*
X1605795Y654902D01*
X1612305D01*
G01X1621450Y667402D02*
X1620210Y666985D01*
X1619280Y665943D01*
X1618660Y664694D01*
X1618195Y663026D01*
X1618040Y661151D01*
X1618195Y659276D01*
X1618660Y657610D01*
X1619280Y656360D01*
X1620210Y655318D01*
X1621450Y654902D01*
X1622690Y655318D01*
X1623620Y656360D01*
X1624240Y657610D01*
X1624705Y659276D01*
X1624860Y661151D01*
X1624705Y663026D01*
X1624240Y664694D01*
X1623620Y665943D01*
X1622690Y666985D01*
X1621450Y667402D01*
G01X1633850Y654485D02*
X1633540Y654693D01*
Y655110D01*
X1633850Y655318D01*
X1634160Y655110D01*
Y654693D01*
X1633850Y654485D01*
G01X1646250Y667402D02*
X1645010Y666985D01*
X1644080Y665943D01*
X1643460Y664694D01*
X1642995Y663026D01*
X1642840Y661151D01*
X1642995Y659276D01*
X1643460Y657610D01*
X1644080Y656360D01*
X1645010Y655318D01*
X1646250Y654902D01*
X1647490Y655318D01*
X1648420Y656360D01*
X1649040Y657610D01*
X1649505Y659276D01*
X1649660Y661151D01*
X1649505Y663026D01*
X1649040Y664694D01*
X1648420Y665943D01*
X1647490Y666985D01*
X1646250Y667402D01*
G01X1615250Y686402D02*
X1616335Y686610D01*
X1617575Y687235D01*
X1618350Y688276D01*
X1618660Y689735D01*
X1618350Y691193D01*
X1617420Y692443D01*
X1616025Y693068D01*
X1614475D01*
X1613545Y693485D01*
X1612770Y694526D01*
X1612460Y695985D01*
X1612925Y697443D01*
X1614010Y698485D01*
X1615250Y698902D01*
X1616490Y698485D01*
X1617575Y697443D01*
X1618040Y695985D01*
X1617730Y694526D01*
X1616955Y693485D01*
X1616025Y693068D01*
X1614475D01*
X1613080Y692443D01*
X1612150Y691193D01*
X1611840Y689735D01*
X1612150Y688276D01*
X1612925Y687235D01*
X1614165Y686610D01*
X1615250Y686402D01*
G01X1627650Y685985D02*
X1627340Y686193D01*
Y686610D01*
X1627650Y686818D01*
X1627960Y686610D01*
Y686193D01*
X1627650Y685985D01*
G01X1640050Y698902D02*
X1638810Y698485D01*
X1637880Y697443D01*
X1637260Y696194D01*
X1636795Y694526D01*
X1636640Y692651D01*
X1636795Y690776D01*
X1637260Y689110D01*
X1637880Y687860D01*
X1638810Y686818D01*
X1640050Y686402D01*
X1641290Y686818D01*
X1642220Y687860D01*
X1642840Y689110D01*
X1643305Y690776D01*
X1643460Y692651D01*
X1643305Y694526D01*
X1642840Y696194D01*
X1642220Y697443D01*
X1641290Y698485D01*
X1640050Y698902D01*
G01X1732585Y-69598D02*
Y-57098D01*
X1739715Y-69598D01*
Y-57098D01*
G01X1748550Y-69598D02*
X1747310Y-69390D01*
X1746225Y-68557D01*
X1745295Y-67307D01*
X1744675Y-65848D01*
X1744365Y-64182D01*
Y-62515D01*
X1744675Y-60848D01*
X1745295Y-59390D01*
X1746225Y-58140D01*
X1747310Y-57307D01*
X1748550Y-57098D01*
X1749790Y-57307D01*
X1750875Y-58140D01*
X1751805Y-59390D01*
X1752425Y-60848D01*
X1752735Y-62515D01*
Y-64182D01*
X1752425Y-65848D01*
X1751805Y-67307D01*
X1750875Y-68557D01*
X1749790Y-69390D01*
X1748550Y-69598D01*
G01X1757385D02*
Y-57098D01*
X1764515Y-69598D01*
Y-57098D01*
G01X1771335Y-65432D02*
X1775365D01*
G01X1782650Y-69598D02*
Y-57098D01*
X1786370D01*
X1787610Y-57724D01*
X1788540Y-59182D01*
X1788850Y-60848D01*
X1788540Y-62515D01*
X1787765Y-63765D01*
X1786370Y-64390D01*
X1782650D01*
G01X1795050Y-57098D02*
Y-69598D01*
X1801250D01*
G01X1806675D02*
X1810550Y-57098D01*
X1814425Y-69598D01*
G01X1813030Y-65224D02*
X1808070D01*
G01X1822950Y-57098D02*
Y-69598D01*
G01X1819385Y-57098D02*
X1826515D01*
G01X1838450Y-69598D02*
X1832250D01*
Y-57098D01*
X1838450D01*
G01X1835970Y-63140D02*
X1832250D01*
G01X1844340Y-69598D02*
Y-57098D01*
X1847440D01*
X1848680Y-57724D01*
X1849610Y-58557D01*
X1850385Y-59807D01*
X1851005Y-61265D01*
X1851160Y-63349D01*
X1851005Y-65432D01*
X1850385Y-66890D01*
X1849610Y-68140D01*
X1848680Y-68974D01*
X1847440Y-69598D01*
X1844340D01*
G01X1732585Y-38098D02*
Y-25598D01*
X1739715Y-38098D01*
Y-25598D01*
G01X1748550Y-38098D02*
X1747310Y-37890D01*
X1746225Y-37057D01*
X1745295Y-35807D01*
X1744675Y-34348D01*
X1744365Y-32682D01*
Y-31015D01*
X1744675Y-29348D01*
X1745295Y-27890D01*
X1746225Y-26640D01*
X1747310Y-25807D01*
X1748550Y-25598D01*
X1749790Y-25807D01*
X1750875Y-26640D01*
X1751805Y-27890D01*
X1752425Y-29348D01*
X1752735Y-31015D01*
Y-32682D01*
X1752425Y-34348D01*
X1751805Y-35807D01*
X1750875Y-37057D01*
X1749790Y-37890D01*
X1748550Y-38098D01*
G01X1757385D02*
Y-25598D01*
X1764515Y-38098D01*
Y-25598D01*
G01X1771335Y-33932D02*
X1775365D01*
G01X1782650Y-38098D02*
Y-25598D01*
X1786370D01*
X1787610Y-26224D01*
X1788540Y-27682D01*
X1788850Y-29348D01*
X1788540Y-31015D01*
X1787765Y-32265D01*
X1786370Y-32890D01*
X1782650D01*
G01X1795050Y-25598D02*
Y-38098D01*
X1801250D01*
G01X1806675D02*
X1810550Y-25598D01*
X1814425Y-38098D01*
G01X1813030Y-33724D02*
X1808070D01*
G01X1822950Y-25598D02*
Y-38098D01*
G01X1819385Y-25598D02*
X1826515D01*
G01X1838450Y-38098D02*
X1832250D01*
Y-25598D01*
X1838450D01*
G01X1835970Y-31640D02*
X1832250D01*
G01X1844340Y-38098D02*
Y-25598D01*
X1847440D01*
X1848680Y-26224D01*
X1849610Y-27057D01*
X1850385Y-28306D01*
X1851005Y-29765D01*
X1851160Y-31849D01*
X1851005Y-33932D01*
X1850385Y-35390D01*
X1849610Y-36640D01*
X1848680Y-37474D01*
X1847440Y-38098D01*
X1844340D01*
G01X1732585Y-6598D02*
Y5902D01*
X1739715Y-6598D01*
Y5902D01*
G01X1748550Y-6598D02*
X1747310Y-6390D01*
X1746225Y-5557D01*
X1745295Y-4307D01*
X1744675Y-2848D01*
X1744365Y-1182D01*
Y485D01*
X1744675Y2152D01*
X1745295Y3610D01*
X1746225Y4860D01*
X1747310Y5693D01*
X1748550Y5902D01*
X1749790Y5693D01*
X1750875Y4860D01*
X1751805Y3610D01*
X1752425Y2152D01*
X1752735Y485D01*
Y-1182D01*
X1752425Y-2848D01*
X1751805Y-4307D01*
X1750875Y-5557D01*
X1749790Y-6390D01*
X1748550Y-6598D01*
G01X1757385D02*
Y5902D01*
X1764515Y-6598D01*
Y5902D01*
G01X1771335Y-2432D02*
X1775365D01*
G01X1782650Y-6598D02*
Y5902D01*
X1786370D01*
X1787610Y5276D01*
X1788540Y3818D01*
X1788850Y2152D01*
X1788540Y485D01*
X1787765Y-765D01*
X1786370Y-1390D01*
X1782650D01*
G01X1795050Y5902D02*
Y-6598D01*
X1801250D01*
G01X1806675D02*
X1810550Y5902D01*
X1814425Y-6598D01*
G01X1813030Y-2224D02*
X1808070D01*
G01X1822950Y5902D02*
Y-6598D01*
G01X1819385Y5902D02*
X1826515D01*
G01X1838450Y-6598D02*
X1832250D01*
Y5902D01*
X1838450D01*
G01X1835970Y-140D02*
X1832250D01*
G01X1844340Y-6598D02*
Y5902D01*
X1847440D01*
X1848680Y5276D01*
X1849610Y4443D01*
X1850385Y3194D01*
X1851005Y1735D01*
X1851160Y-349D01*
X1851005Y-2432D01*
X1850385Y-3890D01*
X1849610Y-5140D01*
X1848680Y-5974D01*
X1847440Y-6598D01*
X1844340D01*
G01X1732585Y24902D02*
Y37402D01*
X1739715Y24902D01*
Y37402D01*
G01X1748550Y24902D02*
X1747310Y25110D01*
X1746225Y25943D01*
X1745295Y27193D01*
X1744675Y28652D01*
X1744365Y30318D01*
Y31985D01*
X1744675Y33652D01*
X1745295Y35110D01*
X1746225Y36360D01*
X1747310Y37193D01*
X1748550Y37402D01*
X1749790Y37193D01*
X1750875Y36360D01*
X1751805Y35110D01*
X1752425Y33652D01*
X1752735Y31985D01*
Y30318D01*
X1752425Y28652D01*
X1751805Y27193D01*
X1750875Y25943D01*
X1749790Y25110D01*
X1748550Y24902D01*
G01X1757385D02*
Y37402D01*
X1764515Y24902D01*
Y37402D01*
G01X1771335Y29068D02*
X1775365D01*
G01X1782650Y24902D02*
Y37402D01*
X1786370D01*
X1787610Y36776D01*
X1788540Y35318D01*
X1788850Y33652D01*
X1788540Y31985D01*
X1787765Y30735D01*
X1786370Y30110D01*
X1782650D01*
G01X1795050Y37402D02*
Y24902D01*
X1801250D01*
G01X1806675D02*
X1810550Y37402D01*
X1814425Y24902D01*
G01X1813030Y29276D02*
X1808070D01*
G01X1822950Y37402D02*
Y24902D01*
G01X1819385Y37402D02*
X1826515D01*
G01X1838450Y24902D02*
X1832250D01*
Y37402D01*
X1838450D01*
G01X1835970Y31360D02*
X1832250D01*
G01X1844340Y24902D02*
Y37402D01*
X1847440D01*
X1848680Y36776D01*
X1849610Y35943D01*
X1850385Y34694D01*
X1851005Y33235D01*
X1851160Y31151D01*
X1851005Y29068D01*
X1850385Y27610D01*
X1849610Y26360D01*
X1848680Y25526D01*
X1847440Y24902D01*
X1844340D01*
G01X1732585Y56402D02*
Y68902D01*
X1739715Y56402D01*
Y68902D01*
G01X1748550Y56402D02*
X1747310Y56610D01*
X1746225Y57443D01*
X1745295Y58693D01*
X1744675Y60152D01*
X1744365Y61818D01*
Y63485D01*
X1744675Y65152D01*
X1745295Y66610D01*
X1746225Y67860D01*
X1747310Y68693D01*
X1748550Y68902D01*
X1749790Y68693D01*
X1750875Y67860D01*
X1751805Y66610D01*
X1752425Y65152D01*
X1752735Y63485D01*
Y61818D01*
X1752425Y60152D01*
X1751805Y58693D01*
X1750875Y57443D01*
X1749790Y56610D01*
X1748550Y56402D01*
G01X1757385D02*
Y68902D01*
X1764515Y56402D01*
Y68902D01*
G01X1771335Y60568D02*
X1775365D01*
G01X1782650Y56402D02*
Y68902D01*
X1786370D01*
X1787610Y68276D01*
X1788540Y66818D01*
X1788850Y65152D01*
X1788540Y63485D01*
X1787765Y62235D01*
X1786370Y61610D01*
X1782650D01*
G01X1795050Y68902D02*
Y56402D01*
X1801250D01*
G01X1806675D02*
X1810550Y68902D01*
X1814425Y56402D01*
G01X1813030Y60776D02*
X1808070D01*
G01X1822950Y68902D02*
Y56402D01*
G01X1819385Y68902D02*
X1826515D01*
G01X1838450Y56402D02*
X1832250D01*
Y68902D01*
X1838450D01*
G01X1835970Y62860D02*
X1832250D01*
G01X1844340Y56402D02*
Y68902D01*
X1847440D01*
X1848680Y68276D01*
X1849610Y67443D01*
X1850385Y66194D01*
X1851005Y64735D01*
X1851160Y62651D01*
X1851005Y60568D01*
X1850385Y59110D01*
X1849610Y57860D01*
X1848680Y57026D01*
X1847440Y56402D01*
X1844340D01*
G01X1757850Y-101098D02*
Y-88598D01*
X1761570D01*
X1762810Y-89224D01*
X1763740Y-90682D01*
X1764050Y-92348D01*
X1763740Y-94015D01*
X1762965Y-95265D01*
X1761570Y-95890D01*
X1757850D01*
G01X1770250Y-88598D02*
Y-101098D01*
X1776450D01*
G01X1781875D02*
X1785750Y-88598D01*
X1789625Y-101098D01*
G01X1788230Y-96724D02*
X1783270D01*
G01X1798150Y-88598D02*
Y-101098D01*
G01X1794585Y-88598D02*
X1801715D01*
G01X1813650Y-101098D02*
X1807450D01*
Y-88598D01*
X1813650D01*
G01X1811170Y-94640D02*
X1807450D01*
G01X1819540Y-101098D02*
Y-88598D01*
X1822640D01*
X1823880Y-89224D01*
X1824810Y-90057D01*
X1825585Y-91307D01*
X1826205Y-92765D01*
X1826360Y-94849D01*
X1826205Y-96932D01*
X1825585Y-98390D01*
X1824810Y-99640D01*
X1823880Y-100474D01*
X1822640Y-101098D01*
X1819540D01*
G01X1757850Y87902D02*
Y100402D01*
X1761570D01*
X1762810Y99776D01*
X1763740Y98318D01*
X1764050Y96652D01*
X1763740Y94985D01*
X1762965Y93735D01*
X1761570Y93110D01*
X1757850D01*
G01X1770250Y100402D02*
Y87902D01*
X1776450D01*
G01X1781875D02*
X1785750Y100402D01*
X1789625Y87902D01*
G01X1788230Y92276D02*
X1783270D01*
G01X1798150Y100402D02*
Y87902D01*
G01X1794585Y100402D02*
X1801715D01*
G01X1813650Y87902D02*
X1807450D01*
Y100402D01*
X1813650D01*
G01X1811170Y94360D02*
X1807450D01*
G01X1819540Y87902D02*
Y100402D01*
X1822640D01*
X1823880Y99776D01*
X1824810Y98943D01*
X1825585Y97694D01*
X1826205Y96235D01*
X1826360Y94151D01*
X1826205Y92068D01*
X1825585Y90610D01*
X1824810Y89360D01*
X1823880Y88526D01*
X1822640Y87902D01*
X1819540D01*
G01X1757850Y119402D02*
Y131902D01*
X1761570D01*
X1762810Y131276D01*
X1763740Y129818D01*
X1764050Y128152D01*
X1763740Y126485D01*
X1762965Y125235D01*
X1761570Y124610D01*
X1757850D01*
G01X1770250Y131902D02*
Y119402D01*
X1776450D01*
G01X1781875D02*
X1785750Y131902D01*
X1789625Y119402D01*
G01X1788230Y123776D02*
X1783270D01*
G01X1798150Y131902D02*
Y119402D01*
G01X1794585Y131902D02*
X1801715D01*
G01X1813650Y119402D02*
X1807450D01*
Y131902D01*
X1813650D01*
G01X1811170Y125860D02*
X1807450D01*
G01X1819540Y119402D02*
Y131902D01*
X1822640D01*
X1823880Y131276D01*
X1824810Y130443D01*
X1825585Y129194D01*
X1826205Y127735D01*
X1826360Y125651D01*
X1826205Y123568D01*
X1825585Y122110D01*
X1824810Y120860D01*
X1823880Y120027D01*
X1822640Y119402D01*
X1819540D01*
G01X1757850Y150902D02*
Y163402D01*
X1761570D01*
X1762810Y162776D01*
X1763740Y161318D01*
X1764050Y159652D01*
X1763740Y157985D01*
X1762965Y156735D01*
X1761570Y156110D01*
X1757850D01*
G01X1770250Y163402D02*
Y150902D01*
X1776450D01*
G01X1781875D02*
X1785750Y163402D01*
X1789625Y150902D01*
G01X1788230Y155276D02*
X1783270D01*
G01X1798150Y163402D02*
Y150902D01*
G01X1794585Y163402D02*
X1801715D01*
G01X1813650Y150902D02*
X1807450D01*
Y163402D01*
X1813650D01*
G01X1811170Y157360D02*
X1807450D01*
G01X1819540Y150902D02*
Y163402D01*
X1822640D01*
X1823880Y162776D01*
X1824810Y161943D01*
X1825585Y160694D01*
X1826205Y159235D01*
X1826360Y157151D01*
X1826205Y155068D01*
X1825585Y153610D01*
X1824810Y152360D01*
X1823880Y151526D01*
X1822640Y150902D01*
X1819540D01*
G01X1757850Y182402D02*
Y194902D01*
X1761570D01*
X1762810Y194276D01*
X1763740Y192818D01*
X1764050Y191152D01*
X1763740Y189485D01*
X1762965Y188235D01*
X1761570Y187610D01*
X1757850D01*
G01X1770250Y194902D02*
Y182402D01*
X1776450D01*
G01X1781875D02*
X1785750Y194902D01*
X1789625Y182402D01*
G01X1788230Y186776D02*
X1783270D01*
G01X1798150Y194902D02*
Y182402D01*
G01X1794585Y194902D02*
X1801715D01*
G01X1813650Y182402D02*
X1807450D01*
Y194902D01*
X1813650D01*
G01X1811170Y188860D02*
X1807450D01*
G01X1819540Y182402D02*
Y194902D01*
X1822640D01*
X1823880Y194276D01*
X1824810Y193443D01*
X1825585Y192194D01*
X1826205Y190735D01*
X1826360Y188651D01*
X1826205Y186568D01*
X1825585Y185110D01*
X1824810Y183860D01*
X1823880Y183026D01*
X1822640Y182402D01*
X1819540D01*
G01X1757850Y213902D02*
Y226402D01*
X1761570D01*
X1762810Y225776D01*
X1763740Y224318D01*
X1764050Y222652D01*
X1763740Y220985D01*
X1762965Y219735D01*
X1761570Y219110D01*
X1757850D01*
G01X1770250Y226402D02*
Y213902D01*
X1776450D01*
G01X1781875D02*
X1785750Y226402D01*
X1789625Y213902D01*
G01X1788230Y218276D02*
X1783270D01*
G01X1798150Y226402D02*
Y213902D01*
G01X1794585Y226402D02*
X1801715D01*
G01X1813650Y213902D02*
X1807450D01*
Y226402D01*
X1813650D01*
G01X1811170Y220360D02*
X1807450D01*
G01X1819540Y213902D02*
Y226402D01*
X1822640D01*
X1823880Y225776D01*
X1824810Y224943D01*
X1825585Y223694D01*
X1826205Y222235D01*
X1826360Y220151D01*
X1826205Y218068D01*
X1825585Y216610D01*
X1824810Y215360D01*
X1823880Y214526D01*
X1822640Y213902D01*
X1819540D01*
G01X1757850Y245402D02*
Y257902D01*
X1761570D01*
X1762810Y257276D01*
X1763740Y255818D01*
X1764050Y254152D01*
X1763740Y252485D01*
X1762965Y251235D01*
X1761570Y250610D01*
X1757850D01*
G01X1770250Y257902D02*
Y245402D01*
X1776450D01*
G01X1781875D02*
X1785750Y257902D01*
X1789625Y245402D01*
G01X1788230Y249776D02*
X1783270D01*
G01X1798150Y257902D02*
Y245402D01*
G01X1794585Y257902D02*
X1801715D01*
G01X1813650Y245402D02*
X1807450D01*
Y257902D01*
X1813650D01*
G01X1811170Y251860D02*
X1807450D01*
G01X1819540Y245402D02*
Y257902D01*
X1822640D01*
X1823880Y257276D01*
X1824810Y256443D01*
X1825585Y255193D01*
X1826205Y253735D01*
X1826360Y251651D01*
X1826205Y249568D01*
X1825585Y248110D01*
X1824810Y246860D01*
X1823880Y246026D01*
X1822640Y245402D01*
X1819540D01*
G01X1757850Y276902D02*
Y289402D01*
X1761570D01*
X1762810Y288776D01*
X1763740Y287318D01*
X1764050Y285652D01*
X1763740Y283985D01*
X1762965Y282735D01*
X1761570Y282110D01*
X1757850D01*
G01X1770250Y289402D02*
Y276902D01*
X1776450D01*
G01X1781875D02*
X1785750Y289402D01*
X1789625Y276902D01*
G01X1788230Y281276D02*
X1783270D01*
G01X1798150Y289402D02*
Y276902D01*
G01X1794585Y289402D02*
X1801715D01*
G01X1813650Y276902D02*
X1807450D01*
Y289402D01*
X1813650D01*
G01X1811170Y283360D02*
X1807450D01*
G01X1819540Y276902D02*
Y289402D01*
X1822640D01*
X1823880Y288776D01*
X1824810Y287943D01*
X1825585Y286694D01*
X1826205Y285235D01*
X1826360Y283151D01*
X1826205Y281068D01*
X1825585Y279610D01*
X1824810Y278360D01*
X1823880Y277526D01*
X1822640Y276902D01*
X1819540D01*
G01X1757850Y308402D02*
Y320902D01*
X1761570D01*
X1762810Y320276D01*
X1763740Y318818D01*
X1764050Y317152D01*
X1763740Y315485D01*
X1762965Y314235D01*
X1761570Y313610D01*
X1757850D01*
G01X1770250Y320902D02*
Y308402D01*
X1776450D01*
G01X1781875D02*
X1785750Y320902D01*
X1789625Y308402D01*
G01X1788230Y312776D02*
X1783270D01*
G01X1798150Y320902D02*
Y308402D01*
G01X1794585Y320902D02*
X1801715D01*
G01X1813650Y308402D02*
X1807450D01*
Y320902D01*
X1813650D01*
G01X1811170Y314860D02*
X1807450D01*
G01X1819540Y308402D02*
Y320902D01*
X1822640D01*
X1823880Y320276D01*
X1824810Y319443D01*
X1825585Y318194D01*
X1826205Y316735D01*
X1826360Y314651D01*
X1826205Y312568D01*
X1825585Y311110D01*
X1824810Y309860D01*
X1823880Y309026D01*
X1822640Y308402D01*
X1819540D01*
G01X1757850Y339902D02*
Y352402D01*
X1761570D01*
X1762810Y351776D01*
X1763740Y350318D01*
X1764050Y348652D01*
X1763740Y346985D01*
X1762965Y345735D01*
X1761570Y345110D01*
X1757850D01*
G01X1770250Y352402D02*
Y339902D01*
X1776450D01*
G01X1781875D02*
X1785750Y352402D01*
X1789625Y339902D01*
G01X1788230Y344276D02*
X1783270D01*
G01X1798150Y352402D02*
Y339902D01*
G01X1794585Y352402D02*
X1801715D01*
G01X1813650Y339902D02*
X1807450D01*
Y352402D01*
X1813650D01*
G01X1811170Y346360D02*
X1807450D01*
G01X1819540Y339902D02*
Y352402D01*
X1822640D01*
X1823880Y351776D01*
X1824810Y350943D01*
X1825585Y349694D01*
X1826205Y348235D01*
X1826360Y346151D01*
X1826205Y344068D01*
X1825585Y342610D01*
X1824810Y341360D01*
X1823880Y340526D01*
X1822640Y339902D01*
X1819540D01*
G01X1757850Y371402D02*
Y383902D01*
X1761570D01*
X1762810Y383276D01*
X1763740Y381818D01*
X1764050Y380152D01*
X1763740Y378485D01*
X1762965Y377235D01*
X1761570Y376610D01*
X1757850D01*
G01X1770250Y383902D02*
Y371402D01*
X1776450D01*
G01X1781875D02*
X1785750Y383902D01*
X1789625Y371402D01*
G01X1788230Y375776D02*
X1783270D01*
G01X1798150Y383902D02*
Y371402D01*
G01X1794585Y383902D02*
X1801715D01*
G01X1813650Y371402D02*
X1807450D01*
Y383902D01*
X1813650D01*
G01X1811170Y377860D02*
X1807450D01*
G01X1819540Y371402D02*
Y383902D01*
X1822640D01*
X1823880Y383276D01*
X1824810Y382443D01*
X1825585Y381194D01*
X1826205Y379735D01*
X1826360Y377651D01*
X1826205Y375568D01*
X1825585Y374110D01*
X1824810Y372860D01*
X1823880Y372026D01*
X1822640Y371402D01*
X1819540D01*
G01X1757850Y402902D02*
Y415402D01*
X1761570D01*
X1762810Y414776D01*
X1763740Y413318D01*
X1764050Y411652D01*
X1763740Y409985D01*
X1762965Y408735D01*
X1761570Y408110D01*
X1757850D01*
G01X1770250Y415402D02*
Y402902D01*
X1776450D01*
G01X1781875D02*
X1785750Y415402D01*
X1789625Y402902D01*
G01X1788230Y407276D02*
X1783270D01*
G01X1798150Y415402D02*
Y402902D01*
G01X1794585Y415402D02*
X1801715D01*
G01X1813650Y402902D02*
X1807450D01*
Y415402D01*
X1813650D01*
G01X1811170Y409360D02*
X1807450D01*
G01X1819540Y402902D02*
Y415402D01*
X1822640D01*
X1823880Y414776D01*
X1824810Y413943D01*
X1825585Y412694D01*
X1826205Y411235D01*
X1826360Y409151D01*
X1826205Y407068D01*
X1825585Y405610D01*
X1824810Y404360D01*
X1823880Y403526D01*
X1822640Y402902D01*
X1819540D01*
G01X1757850Y434402D02*
Y446902D01*
X1761570D01*
X1762810Y446276D01*
X1763740Y444818D01*
X1764050Y443152D01*
X1763740Y441485D01*
X1762965Y440235D01*
X1761570Y439610D01*
X1757850D01*
G01X1770250Y446902D02*
Y434402D01*
X1776450D01*
G01X1781875D02*
X1785750Y446902D01*
X1789625Y434402D01*
G01X1788230Y438776D02*
X1783270D01*
G01X1798150Y446902D02*
Y434402D01*
G01X1794585Y446902D02*
X1801715D01*
G01X1813650Y434402D02*
X1807450D01*
Y446902D01*
X1813650D01*
G01X1811170Y440860D02*
X1807450D01*
G01X1819540Y434402D02*
Y446902D01*
X1822640D01*
X1823880Y446276D01*
X1824810Y445443D01*
X1825585Y444194D01*
X1826205Y442735D01*
X1826360Y440651D01*
X1826205Y438568D01*
X1825585Y437110D01*
X1824810Y435860D01*
X1823880Y435026D01*
X1822640Y434402D01*
X1819540D01*
G01X1757850Y465902D02*
Y478402D01*
X1761570D01*
X1762810Y477776D01*
X1763740Y476318D01*
X1764050Y474652D01*
X1763740Y472985D01*
X1762965Y471735D01*
X1761570Y471110D01*
X1757850D01*
G01X1770250Y478402D02*
Y465902D01*
X1776450D01*
G01X1781875D02*
X1785750Y478402D01*
X1789625Y465902D01*
G01X1788230Y470276D02*
X1783270D01*
G01X1798150Y478402D02*
Y465902D01*
G01X1794585Y478402D02*
X1801715D01*
G01X1813650Y465902D02*
X1807450D01*
Y478402D01*
X1813650D01*
G01X1811170Y472360D02*
X1807450D01*
G01X1819540Y465902D02*
Y478402D01*
X1822640D01*
X1823880Y477776D01*
X1824810Y476943D01*
X1825585Y475694D01*
X1826205Y474235D01*
X1826360Y472151D01*
X1826205Y470068D01*
X1825585Y468610D01*
X1824810Y467360D01*
X1823880Y466527D01*
X1822640Y465902D01*
X1819540D01*
G01X1757850Y497402D02*
Y509902D01*
X1761570D01*
X1762810Y509276D01*
X1763740Y507818D01*
X1764050Y506152D01*
X1763740Y504485D01*
X1762965Y503235D01*
X1761570Y502610D01*
X1757850D01*
G01X1770250Y509902D02*
Y497402D01*
X1776450D01*
G01X1781875D02*
X1785750Y509902D01*
X1789625Y497402D01*
G01X1788230Y501776D02*
X1783270D01*
G01X1798150Y509902D02*
Y497402D01*
G01X1794585Y509902D02*
X1801715D01*
G01X1813650Y497402D02*
X1807450D01*
Y509902D01*
X1813650D01*
G01X1811170Y503860D02*
X1807450D01*
G01X1819540Y497402D02*
Y509902D01*
X1822640D01*
X1823880Y509276D01*
X1824810Y508443D01*
X1825585Y507194D01*
X1826205Y505735D01*
X1826360Y503651D01*
X1826205Y501568D01*
X1825585Y500110D01*
X1824810Y498860D01*
X1823880Y498026D01*
X1822640Y497402D01*
X1819540D01*
G01X1757850Y528902D02*
Y541402D01*
X1761570D01*
X1762810Y540776D01*
X1763740Y539318D01*
X1764050Y537652D01*
X1763740Y535985D01*
X1762965Y534735D01*
X1761570Y534110D01*
X1757850D01*
G01X1770250Y541402D02*
Y528902D01*
X1776450D01*
G01X1781875D02*
X1785750Y541402D01*
X1789625Y528902D01*
G01X1788230Y533276D02*
X1783270D01*
G01X1798150Y541402D02*
Y528902D01*
G01X1794585Y541402D02*
X1801715D01*
G01X1813650Y528902D02*
X1807450D01*
Y541402D01*
X1813650D01*
G01X1811170Y535360D02*
X1807450D01*
G01X1819540Y528902D02*
Y541402D01*
X1822640D01*
X1823880Y540776D01*
X1824810Y539943D01*
X1825585Y538694D01*
X1826205Y537235D01*
X1826360Y535151D01*
X1826205Y533068D01*
X1825585Y531610D01*
X1824810Y530360D01*
X1823880Y529526D01*
X1822640Y528902D01*
X1819540D01*
G01X1757850Y560402D02*
Y572902D01*
X1761570D01*
X1762810Y572276D01*
X1763740Y570818D01*
X1764050Y569152D01*
X1763740Y567485D01*
X1762965Y566235D01*
X1761570Y565610D01*
X1757850D01*
G01X1770250Y572902D02*
Y560402D01*
X1776450D01*
G01X1781875D02*
X1785750Y572902D01*
X1789625Y560402D01*
G01X1788230Y564776D02*
X1783270D01*
G01X1798150Y572902D02*
Y560402D01*
G01X1794585Y572902D02*
X1801715D01*
G01X1813650Y560402D02*
X1807450D01*
Y572902D01*
X1813650D01*
G01X1811170Y566860D02*
X1807450D01*
G01X1819540Y560402D02*
Y572902D01*
X1822640D01*
X1823880Y572276D01*
X1824810Y571443D01*
X1825585Y570194D01*
X1826205Y568735D01*
X1826360Y566651D01*
X1826205Y564568D01*
X1825585Y563110D01*
X1824810Y561860D01*
X1823880Y561026D01*
X1822640Y560402D01*
X1819540D01*
G01X1757850Y591902D02*
Y604402D01*
X1761570D01*
X1762810Y603776D01*
X1763740Y602318D01*
X1764050Y600652D01*
X1763740Y598985D01*
X1762965Y597735D01*
X1761570Y597110D01*
X1757850D01*
G01X1770250Y604402D02*
Y591902D01*
X1776450D01*
G01X1781875D02*
X1785750Y604402D01*
X1789625Y591902D01*
G01X1788230Y596276D02*
X1783270D01*
G01X1798150Y604402D02*
Y591902D01*
G01X1794585Y604402D02*
X1801715D01*
G01X1813650Y591902D02*
X1807450D01*
Y604402D01*
X1813650D01*
G01X1811170Y598360D02*
X1807450D01*
G01X1819540Y591902D02*
Y604402D01*
X1822640D01*
X1823880Y603776D01*
X1824810Y602943D01*
X1825585Y601694D01*
X1826205Y600235D01*
X1826360Y598151D01*
X1826205Y596068D01*
X1825585Y594610D01*
X1824810Y593360D01*
X1823880Y592526D01*
X1822640Y591902D01*
X1819540D01*
G01X1757850Y623402D02*
Y635902D01*
X1761570D01*
X1762810Y635276D01*
X1763740Y633818D01*
X1764050Y632152D01*
X1763740Y630485D01*
X1762965Y629235D01*
X1761570Y628610D01*
X1757850D01*
G01X1770250Y635902D02*
Y623402D01*
X1776450D01*
G01X1781875D02*
X1785750Y635902D01*
X1789625Y623402D01*
G01X1788230Y627776D02*
X1783270D01*
G01X1798150Y635902D02*
Y623402D01*
G01X1794585Y635902D02*
X1801715D01*
G01X1813650Y623402D02*
X1807450D01*
Y635902D01*
X1813650D01*
G01X1811170Y629860D02*
X1807450D01*
G01X1819540Y623402D02*
Y635902D01*
X1822640D01*
X1823880Y635276D01*
X1824810Y634443D01*
X1825585Y633194D01*
X1826205Y631735D01*
X1826360Y629651D01*
X1826205Y627568D01*
X1825585Y626110D01*
X1824810Y624860D01*
X1823880Y624027D01*
X1822640Y623402D01*
X1819540D01*
G01X1757850Y654902D02*
Y667402D01*
X1761570D01*
X1762810Y666776D01*
X1763740Y665318D01*
X1764050Y663652D01*
X1763740Y661985D01*
X1762965Y660735D01*
X1761570Y660110D01*
X1757850D01*
G01X1770250Y667402D02*
Y654902D01*
X1776450D01*
G01X1781875D02*
X1785750Y667402D01*
X1789625Y654902D01*
G01X1788230Y659276D02*
X1783270D01*
G01X1798150Y667402D02*
Y654902D01*
G01X1794585Y667402D02*
X1801715D01*
G01X1813650Y654902D02*
X1807450D01*
Y667402D01*
X1813650D01*
G01X1811170Y661360D02*
X1807450D01*
G01X1819540Y654902D02*
Y667402D01*
X1822640D01*
X1823880Y666776D01*
X1824810Y665943D01*
X1825585Y664694D01*
X1826205Y663235D01*
X1826360Y661151D01*
X1826205Y659068D01*
X1825585Y657610D01*
X1824810Y656360D01*
X1823880Y655526D01*
X1822640Y654902D01*
X1819540D01*
G01X1757850Y686402D02*
Y698902D01*
X1761570D01*
X1762810Y698276D01*
X1763740Y696818D01*
X1764050Y695152D01*
X1763740Y693485D01*
X1762965Y692235D01*
X1761570Y691610D01*
X1757850D01*
G01X1770250Y698902D02*
Y686402D01*
X1776450D01*
G01X1781875D02*
X1785750Y698902D01*
X1789625Y686402D01*
G01X1788230Y690776D02*
X1783270D01*
G01X1798150Y698902D02*
Y686402D01*
G01X1794585Y698902D02*
X1801715D01*
G01X1813650Y686402D02*
X1807450D01*
Y698902D01*
X1813650D01*
G01X1811170Y692860D02*
X1807450D01*
G01X1819540Y686402D02*
Y698902D01*
X1822640D01*
X1823880Y698276D01*
X1824810Y697443D01*
X1825585Y696194D01*
X1826205Y694735D01*
X1826360Y692651D01*
X1826205Y690568D01*
X1825585Y689110D01*
X1824810Y687860D01*
X1823880Y687027D01*
X1822640Y686402D01*
X1819540D01*
G01X1757850Y714652D02*
Y727152D01*
X1761570D01*
X1762810Y726526D01*
X1763740Y725068D01*
X1764050Y723402D01*
X1763740Y721735D01*
X1762965Y720485D01*
X1761570Y719860D01*
X1757850D01*
G01X1770250Y727152D02*
Y714652D01*
X1776450D01*
G01X1781875D02*
X1785750Y727152D01*
X1789625Y714652D01*
G01X1788230Y719026D02*
X1783270D01*
G01X1798150Y727152D02*
Y714652D01*
G01X1794585Y727152D02*
X1801715D01*
G01X1813650Y714652D02*
X1807450D01*
Y727152D01*
X1813650D01*
G01X1811170Y721110D02*
X1807450D01*
G01X1819540Y714652D02*
Y727152D01*
X1822640D01*
X1823880Y726526D01*
X1824810Y725693D01*
X1825585Y724444D01*
X1826205Y722985D01*
X1826360Y720901D01*
X1826205Y718818D01*
X1825585Y717360D01*
X1824810Y716110D01*
X1823880Y715276D01*
X1822640Y714652D01*
X1819540D01*
G01X1888050Y-101098D02*
Y-88598D01*
X1886190Y-91098D01*
G01Y-101098D02*
X1889910D01*
G01X1897505Y-90682D02*
X1898435Y-89432D01*
X1899520Y-88807D01*
X1900760Y-88598D01*
X1902310Y-89015D01*
X1903395Y-90057D01*
X1903705Y-91307D01*
X1903550Y-92557D01*
X1902930Y-93598D01*
X1899830Y-95682D01*
X1898435Y-97140D01*
X1897505Y-99224D01*
X1897195Y-101098D01*
X1903705D01*
G01X1888050Y87902D02*
Y100402D01*
X1886190Y97902D01*
G01Y87902D02*
X1889910D01*
G01X1897505Y98318D02*
X1898435Y99568D01*
X1899520Y100193D01*
X1900760Y100402D01*
X1902310Y99985D01*
X1903395Y98943D01*
X1903705Y97694D01*
X1903550Y96443D01*
X1902930Y95402D01*
X1899830Y93318D01*
X1898435Y91860D01*
X1897505Y89776D01*
X1897195Y87902D01*
X1903705D01*
G01X1888050Y150902D02*
Y163402D01*
X1886190Y160902D01*
G01Y150902D02*
X1889910D01*
G01X1897505Y156110D02*
X1898590Y157568D01*
X1899520Y158402D01*
X1900760Y158818D01*
X1901845Y158402D01*
X1902620Y157568D01*
X1903240Y156318D01*
X1903395Y154860D01*
X1903240Y153610D01*
X1902620Y152360D01*
X1901690Y151318D01*
X1900605Y150902D01*
X1899365Y151318D01*
X1898280Y152568D01*
X1897660Y154443D01*
X1897505Y156526D01*
X1897815Y159235D01*
X1898280Y160694D01*
X1899055Y162152D01*
X1900140Y163193D01*
X1901225Y163402D01*
X1902310Y162985D01*
X1903085Y161943D01*
G01X1885105Y224318D02*
X1886035Y225568D01*
X1887120Y226193D01*
X1888360Y226402D01*
X1889910Y225985D01*
X1890995Y224943D01*
X1891305Y223694D01*
X1891150Y222443D01*
X1890530Y221401D01*
X1887430Y219318D01*
X1886035Y217860D01*
X1885105Y215776D01*
X1884795Y213902D01*
X1891305D01*
G01X1902310D02*
Y226402D01*
X1896575Y217443D01*
X1904325D01*
G01X1884640Y247901D02*
X1885570Y246443D01*
X1886810Y245610D01*
X1888205Y245402D01*
X1889445Y245610D01*
X1890685Y246651D01*
X1891460Y247901D01*
X1891615Y249152D01*
X1891305Y250610D01*
X1890220Y251651D01*
X1889135Y252068D01*
X1887740D01*
G01X1889135D02*
X1890065Y252693D01*
X1890840Y253735D01*
X1891150Y254985D01*
X1890840Y256235D01*
X1890065Y257276D01*
X1888670Y257902D01*
X1887275Y257693D01*
X1885880Y256860D01*
G01X1897505Y250610D02*
X1898590Y252068D01*
X1899520Y252901D01*
X1900760Y253318D01*
X1901845Y252901D01*
X1902620Y252068D01*
X1903240Y250818D01*
X1903395Y249360D01*
X1903240Y248110D01*
X1902620Y246860D01*
X1901690Y245818D01*
X1900605Y245402D01*
X1899365Y245818D01*
X1898280Y247068D01*
X1897660Y248943D01*
X1897505Y251026D01*
X1897815Y253735D01*
X1898280Y255193D01*
X1899055Y256652D01*
X1900140Y257693D01*
X1901225Y257902D01*
X1902310Y257485D01*
X1903085Y256443D01*
G01X1884640Y279401D02*
X1885570Y277943D01*
X1886810Y277110D01*
X1888205Y276902D01*
X1889445Y277110D01*
X1890685Y278151D01*
X1891460Y279401D01*
X1891615Y280652D01*
X1891305Y282110D01*
X1890220Y283151D01*
X1889135Y283568D01*
X1887740D01*
G01X1889135D02*
X1890065Y284193D01*
X1890840Y285235D01*
X1891150Y286485D01*
X1890840Y287735D01*
X1890065Y288776D01*
X1888670Y289402D01*
X1887275Y289193D01*
X1885880Y288360D01*
G01X1900450Y289402D02*
X1899210Y288985D01*
X1898280Y287943D01*
X1897660Y286694D01*
X1897195Y285026D01*
X1897040Y283151D01*
X1897195Y281276D01*
X1897660Y279610D01*
X1898280Y278360D01*
X1899210Y277318D01*
X1900450Y276902D01*
X1901690Y277318D01*
X1902620Y278360D01*
X1903240Y279610D01*
X1903705Y281276D01*
X1903860Y283151D01*
X1903705Y285026D01*
X1903240Y286694D01*
X1902620Y287943D01*
X1901690Y288985D01*
X1900450Y289402D01*
G01X1888050Y339902D02*
Y352402D01*
X1886190Y349902D01*
G01Y339902D02*
X1889910D01*
G01X1900450D02*
X1901535Y340110D01*
X1902775Y340735D01*
X1903550Y341776D01*
X1903860Y343235D01*
X1903550Y344693D01*
X1902620Y345943D01*
X1901225Y346568D01*
X1899675D01*
X1898745Y346985D01*
X1897970Y348026D01*
X1897660Y349485D01*
X1898125Y350943D01*
X1899210Y351985D01*
X1900450Y352402D01*
X1901690Y351985D01*
X1902775Y350943D01*
X1903240Y349485D01*
X1902930Y348026D01*
X1902155Y346985D01*
X1901225Y346568D01*
X1899675D01*
X1898280Y345943D01*
X1897350Y344693D01*
X1897040Y343235D01*
X1897350Y341776D01*
X1898125Y340735D01*
X1899365Y340110D01*
X1900450Y339902D01*
G01X1888050Y497402D02*
X1889135Y497610D01*
X1890375Y498235D01*
X1891150Y499276D01*
X1891460Y500735D01*
X1891150Y502193D01*
X1890220Y503443D01*
X1888825Y504068D01*
X1887275D01*
X1886345Y504485D01*
X1885570Y505526D01*
X1885260Y506985D01*
X1885725Y508443D01*
X1886810Y509485D01*
X1888050Y509902D01*
X1889290Y509485D01*
X1890375Y508443D01*
X1890840Y506985D01*
X1890530Y505526D01*
X1889755Y504485D01*
X1888825Y504068D01*
X1887275D01*
X1885880Y503443D01*
X1884950Y502193D01*
X1884640Y500735D01*
X1884950Y499276D01*
X1885725Y498235D01*
X1886965Y497610D01*
X1888050Y497402D01*
G01X1897040Y499901D02*
X1897970Y498443D01*
X1899210Y497610D01*
X1900605Y497402D01*
X1901845Y497610D01*
X1903085Y498651D01*
X1903860Y499901D01*
X1904015Y501152D01*
X1903705Y502610D01*
X1902620Y503651D01*
X1901535Y504068D01*
X1900140D01*
G01X1901535D02*
X1902465Y504693D01*
X1903240Y505735D01*
X1903550Y506985D01*
X1903240Y508235D01*
X1902465Y509276D01*
X1901070Y509902D01*
X1899675Y509693D01*
X1898280Y508860D01*
G01X1888050Y591902D02*
Y604402D01*
X1886190Y601902D01*
G01Y591902D02*
X1889910D01*
G01X1897505Y602318D02*
X1898435Y603568D01*
X1899520Y604193D01*
X1900760Y604402D01*
X1902310Y603985D01*
X1903395Y602943D01*
X1903705Y601694D01*
X1903550Y600443D01*
X1902930Y599402D01*
X1899830Y597318D01*
X1898435Y595860D01*
X1897505Y593776D01*
X1897195Y591902D01*
X1903705D01*
G01X1878440Y656776D02*
X1879370Y655735D01*
X1880455Y655110D01*
X1881850Y654902D01*
X1883245Y655318D01*
X1884330Y656151D01*
X1885105Y657610D01*
X1885260Y659276D01*
X1884950Y660943D01*
X1884175Y661985D01*
X1883090Y662818D01*
X1882005Y663026D01*
X1880920Y662818D01*
X1879525Y661985D01*
X1879990Y667402D01*
X1884175D01*
G01X1891305Y665318D02*
X1892235Y666568D01*
X1893320Y667193D01*
X1894560Y667402D01*
X1896110Y666985D01*
X1897195Y665943D01*
X1897505Y664694D01*
X1897350Y663443D01*
X1896730Y662402D01*
X1893630Y660318D01*
X1892235Y658860D01*
X1891305Y656776D01*
X1890995Y654902D01*
X1897505D01*
G01X1906650D02*
Y667402D01*
X1904790Y664902D01*
G01Y654902D02*
X1908510D01*
G01X1888050Y686402D02*
Y698902D01*
X1886190Y696402D01*
G01Y686402D02*
X1889910D01*
G01X1900450Y698902D02*
X1899210Y698485D01*
X1898280Y697443D01*
X1897660Y696194D01*
X1897195Y694526D01*
X1897040Y692651D01*
X1897195Y690776D01*
X1897660Y689110D01*
X1898280Y687860D01*
X1899210Y686818D01*
X1900450Y686402D01*
X1901690Y686818D01*
X1902620Y687860D01*
X1903240Y689110D01*
X1903705Y690776D01*
X1903860Y692651D01*
X1903705Y694526D01*
X1903240Y696194D01*
X1902620Y697443D01*
X1901690Y698485D01*
X1900450Y698902D01*
G01X1881850Y714652D02*
X1880610Y714860D01*
X1879525Y715693D01*
X1878595Y716943D01*
X1877975Y718402D01*
X1877665Y720068D01*
Y721735D01*
X1877975Y723402D01*
X1878595Y724860D01*
X1879525Y726110D01*
X1880610Y726943D01*
X1881850Y727152D01*
X1883090Y726943D01*
X1884175Y726110D01*
X1885105Y724860D01*
X1885725Y723402D01*
X1886035Y721735D01*
Y720068D01*
X1885725Y718402D01*
X1885105Y716943D01*
X1884175Y715693D01*
X1883090Y714860D01*
X1881850Y714652D01*
G01X1883090Y717985D02*
X1884950Y714652D01*
G01X1894250Y727152D02*
Y714652D01*
G01X1890685Y727152D02*
X1897815D01*
G01X1906650Y714652D02*
Y720276D01*
X1903550Y727152D01*
G01X1909750D02*
X1906650Y720276D01*
G01X1891615Y-68140D02*
X1892700Y-69182D01*
X1893940Y-69598D01*
X1895180Y-69182D01*
X1896265Y-67932D01*
X1897040Y-66057D01*
X1897350Y-64182D01*
Y-61890D01*
X1897040Y-60015D01*
X1896265Y-58348D01*
X1895335Y-57515D01*
X1894250Y-57098D01*
X1893010Y-57515D01*
X1892080Y-58348D01*
X1891460Y-59598D01*
X1891150Y-61265D01*
X1891460Y-62723D01*
X1892235Y-64182D01*
X1893165Y-65015D01*
X1894250Y-65224D01*
X1895490Y-64807D01*
X1896420Y-63765D01*
X1897350Y-61890D01*
G01X1891305Y-32890D02*
X1892390Y-31432D01*
X1893320Y-30598D01*
X1894560Y-30182D01*
X1895645Y-30598D01*
X1896420Y-31432D01*
X1897040Y-32682D01*
X1897195Y-34140D01*
X1897040Y-35390D01*
X1896420Y-36640D01*
X1895490Y-37682D01*
X1894405Y-38098D01*
X1893165Y-37682D01*
X1892080Y-36432D01*
X1891460Y-34557D01*
X1891305Y-32474D01*
X1891615Y-29765D01*
X1892080Y-28306D01*
X1892855Y-26849D01*
X1893940Y-25807D01*
X1895025Y-25598D01*
X1896110Y-26015D01*
X1896885Y-27057D01*
G01X1894250Y-6598D02*
Y5902D01*
X1892390Y3402D01*
G01Y-6598D02*
X1896110D01*
G01X1894250Y24902D02*
Y37402D01*
X1892390Y34902D01*
G01Y24902D02*
X1896110D01*
G01X1896110Y56402D02*
Y68902D01*
X1890375Y59943D01*
X1898125D01*
G01X1896110Y119402D02*
Y131902D01*
X1890375Y122943D01*
X1898125D01*
G01X1896110Y182402D02*
Y194902D01*
X1890375Y185943D01*
X1898125D01*
G01X1891305Y318818D02*
X1892235Y320068D01*
X1893320Y320693D01*
X1894560Y320902D01*
X1896110Y320485D01*
X1897195Y319443D01*
X1897505Y318194D01*
X1897350Y316943D01*
X1896730Y315902D01*
X1893630Y313818D01*
X1892235Y312360D01*
X1891305Y310276D01*
X1890995Y308402D01*
X1897505D01*
G01X1891305Y376610D02*
X1892390Y378068D01*
X1893320Y378902D01*
X1894560Y379318D01*
X1895645Y378902D01*
X1896420Y378068D01*
X1897040Y376818D01*
X1897195Y375360D01*
X1897040Y374110D01*
X1896420Y372860D01*
X1895490Y371818D01*
X1894405Y371402D01*
X1893165Y371818D01*
X1892080Y373068D01*
X1891460Y374943D01*
X1891305Y377026D01*
X1891615Y379735D01*
X1892080Y381194D01*
X1892855Y382652D01*
X1893940Y383693D01*
X1895025Y383902D01*
X1896110Y383485D01*
X1896885Y382443D01*
G01X1894250Y402902D02*
X1895335Y403110D01*
X1896575Y403735D01*
X1897350Y404776D01*
X1897660Y406235D01*
X1897350Y407693D01*
X1896420Y408943D01*
X1895025Y409568D01*
X1893475D01*
X1892545Y409985D01*
X1891770Y411026D01*
X1891460Y412485D01*
X1891925Y413943D01*
X1893010Y414985D01*
X1894250Y415402D01*
X1895490Y414985D01*
X1896575Y413943D01*
X1897040Y412485D01*
X1896730Y411026D01*
X1895955Y409985D01*
X1895025Y409568D01*
X1893475D01*
X1892080Y408943D01*
X1891150Y407693D01*
X1890840Y406235D01*
X1891150Y404776D01*
X1891925Y403735D01*
X1893165Y403110D01*
X1894250Y402902D01*
G01Y434402D02*
X1895335Y434610D01*
X1896575Y435235D01*
X1897350Y436276D01*
X1897660Y437735D01*
X1897350Y439193D01*
X1896420Y440443D01*
X1895025Y441068D01*
X1893475D01*
X1892545Y441485D01*
X1891770Y442526D01*
X1891460Y443985D01*
X1891925Y445443D01*
X1893010Y446485D01*
X1894250Y446902D01*
X1895490Y446485D01*
X1896575Y445443D01*
X1897040Y443985D01*
X1896730Y442526D01*
X1895955Y441485D01*
X1895025Y441068D01*
X1893475D01*
X1892080Y440443D01*
X1891150Y439193D01*
X1890840Y437735D01*
X1891150Y436276D01*
X1891925Y435235D01*
X1893165Y434610D01*
X1894250Y434402D01*
G01X1891305Y471110D02*
X1892390Y472568D01*
X1893320Y473402D01*
X1894560Y473818D01*
X1895645Y473402D01*
X1896420Y472568D01*
X1897040Y471318D01*
X1897195Y469860D01*
X1897040Y468610D01*
X1896420Y467360D01*
X1895490Y466318D01*
X1894405Y465902D01*
X1893165Y466318D01*
X1892080Y467568D01*
X1891460Y469443D01*
X1891305Y471527D01*
X1891615Y474235D01*
X1892080Y475694D01*
X1892855Y477152D01*
X1893940Y478193D01*
X1895025Y478402D01*
X1896110Y477985D01*
X1896885Y476943D01*
G01X1894250Y528902D02*
X1895335Y529110D01*
X1896575Y529735D01*
X1897350Y530776D01*
X1897660Y532235D01*
X1897350Y533693D01*
X1896420Y534943D01*
X1895025Y535568D01*
X1893475D01*
X1892545Y535985D01*
X1891770Y537026D01*
X1891460Y538485D01*
X1891925Y539943D01*
X1893010Y540985D01*
X1894250Y541402D01*
X1895490Y540985D01*
X1896575Y539943D01*
X1897040Y538485D01*
X1896730Y537026D01*
X1895955Y535985D01*
X1895025Y535568D01*
X1893475D01*
X1892080Y534943D01*
X1891150Y533693D01*
X1890840Y532235D01*
X1891150Y530776D01*
X1891925Y529735D01*
X1893165Y529110D01*
X1894250Y528902D01*
G01X1891305Y570818D02*
X1892235Y572068D01*
X1893320Y572693D01*
X1894560Y572902D01*
X1896110Y572485D01*
X1897195Y571443D01*
X1897505Y570194D01*
X1897350Y568943D01*
X1896730Y567902D01*
X1893630Y565818D01*
X1892235Y564360D01*
X1891305Y562276D01*
X1890995Y560402D01*
X1897505D01*
G01X1891615Y624860D02*
X1892700Y623818D01*
X1893940Y623402D01*
X1895180Y623818D01*
X1896265Y625068D01*
X1897040Y626943D01*
X1897350Y628818D01*
Y631110D01*
X1897040Y632985D01*
X1896265Y634652D01*
X1895335Y635485D01*
X1894250Y635902D01*
X1893010Y635485D01*
X1892080Y634652D01*
X1891460Y633402D01*
X1891150Y631735D01*
X1891460Y630277D01*
X1892235Y628818D01*
X1893165Y627985D01*
X1894250Y627776D01*
X1895490Y628193D01*
X1896420Y629235D01*
X1897350Y631110D01*
G01X1377953Y0D02*
Y787402D01*
X0D01*
Y0D01*
X1377953D01*
G01X1437000Y-110598D02*
Y783402D01*
X1933000D01*
Y-110598D01*
X1437000D01*
G01Y-79098D02*
X1933000D01*
G01X1437000Y-47598D02*
X1933000D01*
G01X1437000Y-16098D02*
X1933000D01*
G01X1437000Y15402D02*
X1933000D01*
G01X1437000Y46902D02*
X1933000D01*
G01X1437000Y78402D02*
X1933000D01*
G01X1437000Y109902D02*
X1933000D01*
G01X1437000Y141402D02*
X1933000D01*
G01X1437000Y172902D02*
X1933000D01*
G01X1437000Y204402D02*
X1933000D01*
G01X1437000Y235902D02*
X1933000D01*
G01X1437000Y267402D02*
X1933000D01*
G01X1437000Y298902D02*
X1933000D01*
G01X1437000Y330402D02*
X1933000D01*
G01X1437000Y361902D02*
X1933000D01*
G01X1437000Y393402D02*
X1933000D01*
G01X1437000Y424902D02*
X1933000D01*
G01X1437000Y456402D02*
X1933000D01*
G01X1437000Y487902D02*
X1933000D01*
G01X1437000Y519402D02*
X1933000D01*
G01X1437000Y550902D02*
X1933000D01*
G01X1437000Y582402D02*
X1933000D01*
G01X1437000Y613902D02*
X1933000D01*
G01X1437000Y645402D02*
X1933000D01*
G01X1437000Y676902D02*
X1933000D01*
G01X1437000Y708402D02*
X1933000D01*
G01X1437000Y733402D02*
X1933000D01*
G01X1437000Y758402D02*
X1933000D01*
G01X1526900Y733402D02*
Y-110598D01*
G01X1728400Y733402D02*
Y-110598D01*
G01X1855500Y733402D02*
Y-110598D01*
G54D21*
X510700Y694702D03*
X550700D03*
X1139900Y604202D03*
X1149900D03*
X1159900D03*
X1169900D03*
X1277100Y724102D03*
Y704102D03*
X1481950Y535152D03*
G54D12*
X16800Y81502D03*
Y106502D03*
Y200702D03*
Y225702D03*
X17300Y395402D03*
Y420402D03*
X16800Y617002D03*
Y642002D03*
X41800Y81502D03*
Y106502D03*
Y200702D03*
Y225702D03*
X42300Y395402D03*
Y420402D03*
X41800Y617002D03*
Y642002D03*
X1107300Y16102D03*
Y41102D03*
X1132300Y16102D03*
Y41102D03*
X1245300Y16002D03*
Y41002D03*
X1270300Y16002D03*
Y41002D03*
X1481950Y220152D03*
G54D31*
G01X614500Y48000D02*
X640500D01*
G01X613000Y105000D02*
Y87500D01*
G01X613500Y253500D02*
X639500D01*
G01X613500Y310500D02*
Y293000D01*
G01Y459000D02*
X639500D01*
G01X613000Y516000D02*
Y498500D01*
G01X631000Y105000D02*
Y87500D01*
G01X631500Y310500D02*
Y293000D01*
G01X631000Y516000D02*
Y498500D01*
G01X710000Y48000D02*
X736000D01*
G01X709500Y103500D02*
Y86000D01*
G01X710500Y253500D02*
X736500D01*
G01X709500Y310500D02*
Y293000D01*
G01Y459000D02*
X735500D01*
G01X709000Y516000D02*
Y498500D01*
G01X727500Y103500D02*
Y86000D01*
G01Y310500D02*
Y293000D01*
G01X727000Y516000D02*
Y498500D01*
G01X753000Y130000D02*
X779000D01*
G01X752500Y213500D02*
X778500D01*
G01X752500Y335000D02*
X778500D01*
G01X752900Y418900D02*
X778900D01*
G01X752500Y541000D02*
X778500D01*
G01X806500Y47500D02*
X832500D01*
G01X805500Y105000D02*
Y87500D01*
G01X806500Y253500D02*
X832500D01*
G01X805900Y310500D02*
Y293000D01*
G01X806500Y459000D02*
X832500D01*
G01X805500Y516000D02*
Y498500D01*
G01X823500Y105000D02*
Y87500D01*
G01Y310500D02*
Y293000D01*
G01Y516000D02*
Y498500D01*
G01X903000Y47500D02*
X929000D01*
G01X902700Y104600D02*
Y87100D01*
G01X902500Y253500D02*
X928500D01*
G01X902500Y310500D02*
Y293000D01*
G01X903000Y459000D02*
X929000D01*
G01X902000Y516000D02*
Y498500D01*
G01X920000Y104500D02*
Y87000D01*
G01X920500Y310500D02*
Y293000D01*
G01X920000Y516000D02*
Y498500D01*
G54D22*
X575000Y72802D03*
Y278402D03*
Y484002D03*
X755862Y72802D03*
Y278402D03*
Y484002D03*
X772400Y72802D03*
Y278402D03*
Y484002D03*
X953262Y72802D03*
Y278402D03*
Y484002D03*
X1481950Y94152D03*
G54D13*
X20116Y315933D03*
X20500Y512402D03*
X47700Y255302D03*
X45100Y315702D03*
X48200Y452002D03*
X45600Y512402D03*
X46600Y672402D03*
X64000Y757202D03*
X69900Y764302D03*
X98000Y169370D03*
X82500Y354902D03*
X101100Y529002D03*
X82500Y549502D03*
X87800Y765902D03*
X109600Y250602D03*
X103900Y288102D03*
X104900Y335302D03*
Y342402D03*
Y349502D03*
X104400Y534202D03*
X117900Y537002D03*
X123000Y80000D03*
X132800Y243902D03*
X125400Y250602D03*
X124600Y513002D03*
X134900Y555202D03*
Y548102D03*
Y562302D03*
X138250Y756652D03*
X132000Y759902D03*
X136000Y763902D03*
X144900Y264002D03*
X146900Y513002D03*
X142500Y760902D03*
X146000Y754402D03*
X150000Y758402D03*
X182076Y109576D03*
Y100824D03*
X177200Y128000D03*
X177000Y150900D03*
X177100Y143200D03*
Y135600D03*
X181000Y283802D03*
X182000Y355802D03*
X182076Y364576D03*
X177200Y394200D03*
Y389100D03*
Y383000D03*
Y398900D03*
X180900Y501902D03*
X182000Y605802D03*
X182076Y614576D03*
X178290Y636550D03*
Y630050D03*
Y649550D03*
Y643050D03*
X184804Y19000D03*
X201800Y19502D03*
X197200Y23102D03*
X194000Y40202D03*
X190922Y89478D03*
X195600Y101502D03*
X196232Y108802D03*
X187106Y115685D03*
X201800Y274502D03*
X197200Y278102D03*
X194000Y295202D03*
X194500Y356302D03*
X190922Y344478D03*
X196232Y363802D03*
X187106Y370686D03*
X189100Y537102D03*
X201800Y524502D03*
X196200Y528202D03*
X194000Y545202D03*
X190900Y594500D03*
X195600Y606502D03*
X196232Y613802D03*
X187106Y620685D03*
X219400Y40202D03*
X205700Y40402D03*
X220945Y76955D03*
X210300Y109002D03*
X209600Y199002D03*
X211900Y252002D03*
X209200Y256602D03*
X219400Y295202D03*
X205900Y295402D03*
X220945Y331955D03*
X210300Y364002D03*
X208400Y445902D03*
X206000Y501902D03*
X219400Y545202D03*
X205900Y545402D03*
X220945Y581955D03*
X210300Y614002D03*
X223100Y634200D03*
X219700Y640002D03*
X223140Y645500D03*
X212900Y682302D03*
X225100Y34602D03*
X238400Y56402D03*
X226643Y82654D03*
X227700Y89302D03*
X225100Y132400D03*
X225700Y127500D03*
X225200Y137900D03*
X225800Y142700D03*
X225100Y270702D03*
Y289602D03*
X238400Y311402D03*
X226643Y337654D03*
X227700Y344302D03*
X225900Y383200D03*
X225700Y393200D03*
X225100Y388600D03*
X225900Y397700D03*
X225100Y539602D03*
X238400Y561402D03*
X227700Y594302D03*
X226643Y587654D03*
X262100Y29302D03*
X249300Y53602D03*
X248100Y62602D03*
X253800Y65502D03*
X254600Y73502D03*
X252200Y89302D03*
X246200D03*
X258200D03*
X262100Y284302D03*
X249400Y308502D03*
X254600Y328502D03*
X253800Y320502D03*
X248100Y317602D03*
X258200Y344302D03*
X246200D03*
X252200D03*
X262100Y534302D03*
X249300Y558602D03*
X253800Y570502D03*
X254600Y578502D03*
X248100Y567602D03*
X258200Y594302D03*
X252200D03*
X246200D03*
X273900Y23702D03*
X280900Y45702D03*
X278600Y39602D03*
Y294602D03*
X273900Y278702D03*
X280900Y300702D03*
X273900Y528702D03*
X280700Y550002D03*
X278600Y544602D03*
X302400Y48502D03*
X302911Y35302D03*
X302450Y41902D03*
X302400Y290302D03*
Y296902D03*
Y303502D03*
Y540302D03*
Y553502D03*
Y546902D03*
X310300Y24302D03*
X309900Y278402D03*
X310600Y528702D03*
X326000Y19902D03*
X363200Y34654D03*
Y289202D03*
Y539043D03*
X381100Y34654D03*
X380900Y290902D03*
Y540902D03*
X401900Y38721D03*
X404100Y53102D03*
X401800Y293702D03*
X404100Y308102D03*
X401800Y543702D03*
X404100Y558102D03*
X407300Y59302D03*
X407400Y314402D03*
X407500Y564502D03*
X505900Y159002D03*
X491900D03*
X498900Y231802D03*
Y217602D03*
Y224702D03*
X491900Y247802D03*
X498900Y306402D03*
Y313502D03*
Y299302D03*
X491900Y333002D03*
X498900Y491002D03*
Y485702D03*
Y496802D03*
X491700Y538902D03*
Y546002D03*
X518900Y349002D03*
X516900Y358002D03*
X524600Y577702D03*
X572900Y563002D03*
X569900Y560002D03*
Y570002D03*
X572900Y567002D03*
X576800Y684002D03*
X583900D03*
X582800Y712102D03*
X587200D03*
X596900Y370002D03*
X606100Y700802D03*
Y696402D03*
X605193Y683913D03*
X591000Y684002D03*
X598100D03*
X602000Y720602D03*
X616900Y63802D03*
Y270302D03*
Y477202D03*
X609100Y720602D03*
X616200D03*
X636900Y63802D03*
Y270202D03*
Y475102D03*
X643421Y630550D03*
X638950Y647718D03*
X629500Y684454D03*
X642500Y681502D03*
X667535Y172106D03*
X669261Y168106D03*
X669727Y374000D03*
X668000Y378000D03*
X658850Y627950D03*
X655000Y672400D03*
X658900Y681502D03*
X685600Y204002D03*
X682400Y200202D03*
X670900Y512002D03*
X681900Y553002D03*
Y549002D03*
X669863Y624289D03*
X684900Y623402D03*
X679500Y628802D03*
X673301Y646100D03*
X670500Y663902D03*
X676000Y669402D03*
X683600Y667702D03*
X680150Y693188D03*
X687400Y710000D03*
X684600Y724802D03*
X675100D03*
X681500Y761502D03*
X676800Y762102D03*
X687800Y761502D03*
X684500Y764602D03*
X692900Y163502D03*
Y369702D03*
X697900Y554002D03*
X701900D03*
X690900Y574502D03*
X706100Y595402D03*
X700100Y626202D03*
X705300D03*
X691800Y652000D03*
X690100Y667702D03*
X707136Y695374D03*
X696500Y696500D03*
X700941Y696800D03*
X706800Y709902D03*
X694000Y724802D03*
X709700D03*
X709800Y761402D03*
X697200Y760502D03*
X690800Y764602D03*
X703900Y767402D03*
X706800Y764502D03*
X713300Y63802D03*
X715700Y157202D03*
Y162202D03*
X713300Y270802D03*
X715700Y367802D03*
X713300Y476302D03*
X715700Y575302D03*
Y570302D03*
X710500Y595402D03*
X728600Y626214D03*
X723400Y626420D03*
X724300Y696802D03*
X719200D03*
X718800Y708702D03*
X719300Y742402D03*
X712900Y764002D03*
X733300Y64302D03*
X738500Y267402D03*
X733300Y269702D03*
Y475002D03*
X744400Y623902D03*
X749000Y628702D03*
X744700Y676302D03*
X731700Y710402D03*
X738100Y725102D03*
Y761302D03*
X733200Y762302D03*
X758500Y267402D03*
X758600Y639702D03*
X752900Y643902D03*
X762200Y772102D03*
X766000Y763502D03*
X789600Y713402D03*
X775300D03*
X782000Y724202D03*
X775900Y760803D03*
X787500Y779002D03*
X791300Y782302D03*
X781800Y774902D03*
X809600Y64202D03*
Y270002D03*
Y476002D03*
X797600Y643902D03*
X809700Y646102D03*
X794100Y668902D03*
X801600Y667202D03*
X808100D03*
X805200Y675802D03*
Y692402D03*
X801500Y709402D03*
X807700Y725402D03*
X806148Y745105D03*
X810557Y745200D03*
X830400Y619102D03*
X818100Y625702D03*
X823300D03*
X827900Y677102D03*
X828108Y713386D03*
X826200Y716902D03*
X823700Y724602D03*
X814611Y744905D03*
X816900Y760803D03*
X829500Y761302D03*
X825800Y763902D03*
X846700Y625702D03*
X841500D03*
X851796Y664702D03*
X832300Y696202D03*
X842400Y696302D03*
X837300D03*
X837900Y725502D03*
X846000Y725702D03*
X851500Y761302D03*
X867000Y628402D03*
X867100Y644802D03*
X863100Y678602D03*
X871400Y682802D03*
X868500Y690502D03*
X857200Y720402D03*
X879000Y624802D03*
X876900Y658702D03*
X883970Y651300D03*
X876900Y663102D03*
X882000Y691502D03*
X906000Y63802D03*
Y270002D03*
Y476302D03*
X900300Y625102D03*
X904964Y625137D03*
X912800Y631500D03*
X909800Y645102D03*
X910000Y665002D03*
X893100Y678202D03*
X903800Y733602D03*
X910900D03*
X931374Y625626D03*
X918640Y625625D03*
X924996D03*
X926900Y678102D03*
X921300Y679802D03*
X922500Y693702D03*
X931500Y689702D03*
X921400Y686102D03*
X918000Y733602D03*
X943000Y612000D03*
X949000D03*
X938021Y625625D03*
X943000Y659202D03*
X936170Y651701D03*
X943000Y663602D03*
X936900Y709902D03*
X968600Y108702D03*
X963900Y253002D03*
X971500Y313102D03*
X960400Y460002D03*
X964900D03*
X961900Y495002D03*
X963200Y532702D03*
X986500Y296602D03*
X996700Y112802D03*
X1002900Y99302D03*
X997700Y500802D03*
X1009600Y506602D03*
X1004000Y523202D03*
X1006800Y529702D03*
X1012300Y526346D03*
X1003500Y765102D03*
X1016100Y308302D03*
X1025000Y512902D03*
X1019200Y509902D03*
X1016284Y525994D03*
X1022000Y523202D03*
X1030400Y677902D03*
X1025300Y673702D03*
X1028800Y703202D03*
X1041000Y99902D03*
X1039400Y93802D03*
X1044400Y299202D03*
X1048700Y513002D03*
X1043971Y508748D03*
X1042900Y512602D03*
X1041900Y505002D03*
X1047800Y523502D03*
X1051100Y656002D03*
X1044400Y661302D03*
X1039100Y684902D03*
X1048300Y703202D03*
X1041800D03*
X1035300D03*
X1038200Y724202D03*
X1058100Y272902D03*
X1067500Y273002D03*
X1074700Y289302D03*
X1067500Y480302D03*
X1075000Y491102D03*
X1063900Y640002D03*
X1071100Y707602D03*
X1066500Y712202D03*
X1066600Y720202D03*
X1082600Y516202D03*
X1083600Y660802D03*
Y654302D03*
X1075700Y660802D03*
Y654302D03*
Y667302D03*
X1083600D03*
X1087800Y701302D03*
Y694802D03*
X1075700Y703102D03*
X1087800Y707802D03*
X1097800Y645002D03*
X1113800Y695402D03*
Y701902D03*
X1118800Y639102D03*
Y646202D03*
Y653302D03*
X1129600Y729302D03*
X1141000Y630602D03*
Y637702D03*
Y623502D03*
X1157900Y630602D03*
X1176600Y636002D03*
X1171700D03*
X1156800Y663202D03*
X1170300Y667802D03*
X1175200D03*
X1195900Y708102D03*
X1188984Y734473D03*
X1181400Y743102D03*
X1188900Y758502D03*
X1181400Y767102D03*
X1243800Y634600D03*
X1256800Y628100D03*
X1250300D03*
Y634600D03*
X1256800D03*
X1243800Y628100D03*
X1256700Y685102D03*
X1250200D03*
X1243700D03*
X1256700Y691602D03*
X1250200D03*
X1243700D03*
X1256700Y698102D03*
X1250200D03*
X1243700D03*
X1256700Y704602D03*
X1250200D03*
X1243700D03*
X1263300Y628100D03*
X1269800D03*
X1263300Y634600D03*
X1269800D03*
X1269700Y685102D03*
X1263200D03*
X1269700Y691602D03*
X1263200D03*
X1314600Y689202D03*
X1307900Y689102D03*
X1301400D03*
Y695602D03*
X1314600Y695702D03*
X1307900Y695602D03*
X1301400Y702102D03*
X1314600Y702202D03*
X1307900Y702102D03*
X1314600Y708702D03*
X1307900Y708602D03*
X1301400D03*
X1314600Y715202D03*
X1308100D03*
X1301600D03*
X1321100Y689202D03*
X1327600D03*
Y695702D03*
X1321100D03*
Y702202D03*
X1327600D03*
Y708702D03*
X1321100D03*
Y715202D03*
X1327600D03*
X1360200Y680502D03*
X1371000Y665702D03*
X1370900Y674402D03*
X1362500Y695602D03*
X1481950Y661152D03*
G54D14*
X79900Y51002D03*
Y213202D03*
X80400Y407902D03*
X79900Y629502D03*
X94900Y111002D03*
Y273202D03*
X95400Y467902D03*
X94900Y689502D03*
X134900Y111002D03*
Y273202D03*
X135400Y467902D03*
X134900Y689502D03*
X149900Y61002D03*
Y223202D03*
X150400Y417902D03*
X149900Y639502D03*
X650517Y743553D03*
X659769D03*
X870399Y749065D03*
X879258Y743553D03*
X940852D03*
X1044006Y749222D03*
X1211259Y749401D03*
Y767117D03*
X1481950Y-348D03*
Y31152D03*
Y62652D03*
Y125652D03*
Y188652D03*
Y409152D03*
Y566652D03*
G54D23*
X600400Y90802D03*
Y296402D03*
Y502102D03*
X621800Y90802D03*
Y296402D03*
Y502102D03*
X643300Y90802D03*
Y296402D03*
Y502102D03*
X696800Y90802D03*
Y296402D03*
Y502102D03*
X718200Y90802D03*
Y296402D03*
Y502102D03*
X739700Y90802D03*
Y296402D03*
Y502102D03*
X793100Y90802D03*
Y296402D03*
Y502102D03*
X814500Y90802D03*
Y296402D03*
Y502102D03*
X836000Y90802D03*
Y296402D03*
Y502102D03*
X889500Y90802D03*
Y296402D03*
Y502102D03*
X910900Y90802D03*
Y296402D03*
Y502102D03*
X932400Y90802D03*
Y296402D03*
Y502102D03*
X1481950Y251652D03*
G54D15*
X84079Y38800D03*
Y201000D03*
X84579Y395700D03*
X84079Y617300D03*
X144079Y38800D03*
Y201000D03*
X144579Y395700D03*
X144079Y617300D03*
X1481950Y440652D03*
G54D24*
X626900Y137002D03*
Y187002D03*
X627300Y342802D03*
Y392802D03*
X626900Y548002D03*
Y598002D03*
X646900Y137002D03*
X636900D03*
Y187002D03*
X646900D03*
X647300Y342802D03*
X637300D03*
Y392802D03*
X647300D03*
X646900Y548002D03*
X636900D03*
Y598002D03*
X646900D03*
X1481950Y346152D03*
G54D16*
X179900Y43002D03*
Y295202D03*
X180000Y545202D03*
X219900Y199002D03*
Y445902D03*
X224900Y682102D03*
X607900Y709002D03*
X617900D03*
X636000Y709902D03*
Y719902D03*
X814200Y769302D03*
Y779302D03*
X842300Y778902D03*
X852300D03*
X888900Y716002D03*
X898900D03*
X974200Y73802D03*
Y63802D03*
Y269402D03*
Y279402D03*
Y475102D03*
Y485102D03*
X994200Y73802D03*
X984200Y63802D03*
X994200D03*
X984200Y73802D03*
X994400Y121502D03*
X984400D03*
X984200Y269402D03*
X994200D03*
Y279402D03*
X984200D03*
X994400Y327102D03*
X984400D03*
X984200Y475102D03*
X994200D03*
Y485102D03*
X994400Y532702D03*
X984400D03*
X1004200Y63802D03*
X1014200D03*
X1004200Y269402D03*
X1014200D03*
X1004200Y475102D03*
X1014200D03*
X1024200Y63802D03*
Y73802D03*
X1034200D03*
Y63802D03*
X1024200Y269402D03*
X1034200D03*
X1024200Y279402D03*
X1034200D03*
X1024200Y475102D03*
X1034200D03*
X1024200Y485102D03*
X1034200D03*
X1044200Y63802D03*
Y73802D03*
Y269402D03*
Y475102D03*
X1107600Y638802D03*
X1137800Y774102D03*
X1168000Y779902D03*
X1210000Y80000D03*
X1220000Y240000D03*
X1200000Y440000D03*
Y450000D03*
X1212000Y633002D03*
Y623002D03*
Y648402D03*
Y658402D03*
X1237100Y724202D03*
X1252900Y586002D03*
X1247100Y724202D03*
X1262900Y586002D03*
X1340000Y200000D03*
Y440000D03*
Y450000D03*
X1350000Y80000D03*
X1360000Y230000D03*
X1356900Y586002D03*
X1366900D03*
X1481950Y503652D03*
G54D25*
X676939Y150752D03*
Y173252D03*
Y158252D03*
Y165752D03*
X677339Y356552D03*
Y364052D03*
Y371552D03*
Y379052D03*
X676939Y569252D03*
Y561752D03*
Y576752D03*
Y584252D03*
X1481950Y598152D03*
G54D17*
X245700Y135002D03*
Y390002D03*
Y640002D03*
X315700Y135002D03*
Y390002D03*
Y640002D03*
X464500Y135102D03*
Y392002D03*
Y640502D03*
X534500Y135102D03*
Y392002D03*
Y640502D03*
X1481950Y-94848D03*
G54D26*
X966300Y97702D03*
X956300D03*
X966300Y303402D03*
X956300D03*
X966400Y512202D03*
X956400D03*
X976300Y97702D03*
Y303402D03*
X976400Y512202D03*
X1481950Y629652D03*
G54D18*
X311400Y13002D03*
X312200Y267802D03*
X311800Y518002D03*
X351400Y13002D03*
X352200Y267802D03*
X351800Y518002D03*
X604400Y223702D03*
X613600D03*
X604400Y429302D03*
X619300Y18102D03*
X629100D03*
X614200Y429302D03*
X653600Y223702D03*
X654200Y429302D03*
X669100Y18102D03*
X663400Y223702D03*
Y429302D03*
X678300Y18102D03*
X765600Y142202D03*
X765700Y153702D03*
Y193702D03*
X765600Y201202D03*
Y347902D03*
X765700Y359302D03*
Y399302D03*
X765600Y406902D03*
Y553502D03*
X765700Y564902D03*
Y604902D03*
X765600Y612502D03*
X1481950Y283152D03*
G54D27*
X1135400Y130002D03*
Y257502D03*
X1134900Y385002D03*
X1135400Y512402D03*
X1174770Y130002D03*
Y257502D03*
X1174270Y385002D03*
X1174770Y512402D03*
X1275700Y130002D03*
Y257502D03*
Y385002D03*
Y512402D03*
X1315070Y130002D03*
Y257502D03*
Y385002D03*
Y512402D03*
X1481950Y157152D03*
G54D19*
X391900Y84664D03*
Y232302D03*
Y340164D03*
Y487802D03*
Y589664D03*
Y737302D03*
X1481950Y377652D03*
G54D28*
X1306900Y646802D03*
X1341900D03*
X1481950Y314652D03*
G54D29*
X1338410Y690087D03*
X1349631Y692646D03*
Y687527D03*
X1351875Y690087D03*
X1347387D03*
X1342898D03*
X1340654Y687527D03*
Y692646D03*
X1345142D03*
Y687527D03*
X1481950Y692652D03*
M02*
