G04 ================== begin FILE IDENTIFICATION RECORD ==================*
G04 Layout Name:  solutionstida01606_powercard_20march.brd*
G04 Film Name:    PWR_LAYER*
G04 File Format:  Gerber RS274X*
G04 File Origin:  Cadence Allegro 17.4-S031*
G04 Origin Date:  Fri Mar 22 14:58:21 2024*
G04 *
G04 Layer:  BOARD GEOMETRY/OUTLINE*
G04 Layer:  ETCH/PWR LAYER*
G04 Layer:  PIN/PWR LAYER*
G04 Layer:  VIA CLASS/PWR LAYER*
G04 *
G04 Offset:    (0.000 0.000)*
G04 Mirror:    No*
G04 Mode:      Positive*
G04 Rotation:  0*
G04 FullContactRelief:  No*
G04 UndefLineWidth:     8.000*
G04 ================== end FILE IDENTIFICATION RECORD ====================*
%FSLAX25Y25*MOIN*%
%IR0*IPPOS*OFA0.00000B0.00000*MIA0B0*SFA1.00000B1.00000*%
%ADD12C,.1*%
%ADD11C,.3*%
%ADD10C,.21*%
%ADD37C,.103*%
%ADD34C,.13*%
%ADD31C,.15*%
%ADD19C,.121654*%
%ADD14C,.129528*%
%ADD21O,.395X.21*%
%ADD27C,.06*%
%ADD15C,.024*%
%ADD23C,.052*%
%ADD20C,.08*%
%ADD13C,.035*%
%ADD16C,.055*%
%ADD26R,.06X.06*%
%ADD25R,.07X.07*%
%ADD24R,.052X.052*%
%ADD36R,.055X.055*%
%ADD30O,.23622X.314961*%
%ADD35C,.09252*%
%ADD29C,.035433*%
%ADD28C,.059055*%
%ADD32C,.091339*%
%ADD22C,.064961*%
%ADD17C,.069291*%
%ADD18R,.069291X.069291*%
%ADD33R,.03937X.07874*%
%ADD38C,.01*%
%ADD39C,.02*%
%ADD40C,.03*%
%ADD41C,.05*%
%ADD42C,.015*%
%ADD43C,.008*%
G75*
%LPD*%
G75*
G36*
G01X-94600Y75100D02*
X-82500Y87200D01*
X-29800D01*
X-22600Y80000D01*
Y54900D01*
X-28500Y49000D01*
X-89300D01*
X-94600Y54300D01*
Y75100D01*
G37*
G36*
G01X-86300Y301300D02*
X-28200D01*
X-22100Y295200D01*
Y270700D01*
X-26600Y266200D01*
X-87900D01*
X-93100Y271400D01*
Y294500D01*
X-86300Y301300D01*
G37*
G36*
G01X202591Y38400D02*
X199091Y41900D01*
X97200D01*
Y20300D01*
X93900Y17000D01*
X89800D01*
X86600Y20200D01*
Y41900D01*
X23091D01*
X20091Y38900D01*
Y18400D01*
X17091Y15400D01*
X13091D01*
X10091Y18400D01*
Y53300D01*
X10100D01*
Y63000D01*
X-18600Y91700D01*
X-45700D01*
X-50000Y96000D01*
Y125600D01*
X-48700Y126900D01*
X-29800D01*
X29800Y67300D01*
Y53300D01*
X60491D01*
X60591Y53400D01*
X210091D01*
X212091Y51400D01*
Y17900D01*
X209591Y15400D01*
X205591D01*
X202591Y18400D01*
Y38400D01*
G37*
G36*
G01X94800Y224600D02*
X88800D01*
X86300Y227100D01*
Y247800D01*
X23391D01*
X20391Y244800D01*
Y224300D01*
X17391Y221300D01*
X13391D01*
X10391Y224300D01*
Y259445D01*
X10500D01*
Y285400D01*
X-10600Y306500D01*
X-44900D01*
X-46600Y308200D01*
Y339600D01*
X-44600Y341600D01*
X-27800D01*
X22100Y291700D01*
Y260845D01*
X23500Y259445D01*
X60745D01*
X60891Y259300D01*
X210391D01*
X212391Y257300D01*
Y223800D01*
X209891Y221300D01*
X205891D01*
X202891Y224300D01*
Y244300D01*
X199391Y247800D01*
X96700D01*
X96600Y247700D01*
Y226400D01*
X94800Y224600D01*
G37*
G36*
G01X12791Y426800D02*
X9791Y429800D01*
Y480800D01*
X9796Y480804D01*
Y495996D01*
X18500Y504700D01*
X33300D01*
X42291Y495709D01*
Y482800D01*
X60291Y464800D01*
X209791D01*
X211791Y462800D01*
Y429300D01*
X209291Y426800D01*
X205291D01*
X202291Y429800D01*
Y449800D01*
X198791Y453300D01*
X96600D01*
X96400Y453100D01*
Y431300D01*
X94300Y429200D01*
X88100D01*
X86200Y431100D01*
Y453300D01*
X22791D01*
X19791Y450300D01*
Y429800D01*
X16791Y426800D01*
X12791D01*
G37*
G54D10*
X-585209Y-50100D03*
X-587009Y732400D03*
X-461809Y271800D03*
X-22409Y-49100D03*
X-22500Y698000D03*
X466791Y33500D03*
X754591Y-53400D03*
X760400Y733200D03*
G54D20*
X-387009Y128400D03*
Y375300D03*
X-382009Y611500D03*
X991Y638400D03*
X10991D03*
X305500Y688400D03*
Y678400D03*
X315500Y688400D03*
Y678400D03*
X338000Y688400D03*
Y678400D03*
X348000Y688400D03*
Y678400D03*
X387491Y50900D03*
X377491D03*
X370500Y688400D03*
Y678400D03*
X390500Y688400D03*
Y678400D03*
X410500Y688400D03*
Y678400D03*
X420500Y688400D03*
Y678400D03*
X470500Y688400D03*
Y678400D03*
X499500Y688400D03*
Y678400D03*
X545200Y605900D03*
X566200D03*
X603091Y9398D03*
X613091Y169398D03*
X593091Y369398D03*
Y379398D03*
X605091Y562400D03*
Y552400D03*
Y577800D03*
Y587800D03*
X598000Y688400D03*
Y678400D03*
X608000Y688400D03*
Y678400D03*
X625500Y688400D03*
Y678400D03*
X645991Y515400D03*
X655991D03*
X673000Y688400D03*
Y678400D03*
X733091Y129398D03*
Y369398D03*
Y379398D03*
X743091Y9398D03*
X753091Y159398D03*
X749991Y515400D03*
X759991D03*
G54D11*
X-577609Y23400D03*
Y142600D03*
X-577109Y337300D03*
X-577609Y558900D03*
X512891Y-42000D03*
X650891Y-42100D03*
G54D30*
X-37074Y69815D03*
Y109185D03*
X-34374Y284215D03*
Y323585D03*
X26174Y487415D03*
Y526785D03*
G54D21*
X-361209Y64400D03*
Y319400D03*
Y569400D03*
X-291209Y64400D03*
Y319400D03*
Y569400D03*
X-142409Y64500D03*
X-152609Y552700D03*
X-142309Y290000D03*
X-82609Y552700D03*
X-72409Y64500D03*
X-72309Y290000D03*
G54D12*
X-590109Y10900D03*
Y35900D03*
Y130100D03*
Y155100D03*
X-589609Y324800D03*
Y349800D03*
X-590109Y546400D03*
Y571400D03*
X-565109Y10900D03*
Y35900D03*
Y130100D03*
Y155100D03*
X-564609Y324800D03*
Y349800D03*
X-565109Y546400D03*
Y571400D03*
X500391Y-54500D03*
Y-29500D03*
X525391Y-54500D03*
Y-29500D03*
X638391Y-54600D03*
Y-29600D03*
X663391Y-54600D03*
Y-29600D03*
G54D40*
G01X-115400Y468400D02*
Y472150D01*
X-115440Y472190D01*
Y476931D01*
X-118209Y479700D01*
X-333600D01*
X-342400Y488500D01*
G01X-108009Y154400D02*
Y105400D01*
X-108109Y105300D01*
Y4600D01*
X-130209Y-17500D01*
X-309800D01*
X-314800Y-12500D01*
G01X-279000Y-11300D02*
X-132509D01*
X-115009Y6200D01*
Y109600D01*
G01D02*
Y177200D01*
G01X-109600Y420600D02*
Y410650D01*
X-108300Y409350D01*
Y246941D01*
X-108009Y246650D01*
Y242900D01*
G01X-109676Y432700D02*
Y427376D01*
X-109600Y427300D01*
G01X-115500Y462900D02*
X-115400Y463000D01*
Y468400D01*
G01X29991Y-13100D02*
X106391D01*
G01X299091Y192500D02*
X295122D01*
X294723Y192100D01*
X289700D01*
X282900Y198900D01*
X217800D01*
X211400Y192500D01*
X202691D01*
G54D22*
X-363200Y243400D03*
Y253400D03*
Y278400D03*
Y268400D03*
X-350300Y-1700D03*
Y-11700D03*
Y23300D03*
Y13300D03*
X-362000Y503400D03*
Y493400D03*
Y528400D03*
Y518400D03*
G54D13*
X-586792Y245331D03*
X-585400Y442200D03*
X-559209Y184700D03*
X-561809Y245100D03*
X-558709Y381400D03*
X-559500Y441400D03*
X-560309Y601800D03*
X-508909Y99500D03*
X-524409Y284300D03*
Y478900D03*
X-516900Y695300D03*
X-502009Y264700D03*
Y278900D03*
Y271800D03*
X-498500Y466200D03*
X-489009Y466400D03*
X-470300Y180000D03*
X-472009Y487200D03*
X-424400Y-51600D03*
X-429709Y57398D03*
X-429909Y80298D03*
X-429809Y72598D03*
Y64998D03*
X-429709Y323598D03*
Y318498D03*
Y312398D03*
Y328298D03*
X-426009Y431300D03*
X-428619Y565948D03*
Y559448D03*
Y578948D03*
Y572448D03*
X-416200Y471500D03*
X-396600Y128400D03*
X-395009Y181400D03*
X-397709Y186000D03*
X-398509Y375300D03*
X-400909Y431300D03*
X-383809Y563598D03*
X-387209Y569400D03*
X-383769Y574898D03*
X-394009Y611700D03*
X-381809Y61798D03*
X-381209Y56898D03*
X-381709Y67298D03*
X-381109Y72098D03*
X-381009Y312598D03*
X-381209Y322598D03*
X-381809Y317998D03*
X-381009Y327098D03*
X-314800Y-12500D03*
X-310700Y243200D03*
X-309100Y490400D03*
X-279000Y-11300D03*
X-115009Y109600D03*
X-100700Y129300D03*
X-108009Y154400D03*
X-115009Y177200D03*
X-108009Y228700D03*
Y242900D03*
Y235800D03*
X-109600Y420600D03*
Y427300D03*
X-109676Y432700D03*
X-115400Y468400D03*
X-115500Y462900D03*
X-95600Y486800D03*
X-31900Y649000D03*
X-26600D03*
X-809Y630200D03*
Y625800D03*
X23100Y577500D03*
X46500Y568200D03*
X65400Y310700D03*
X63991Y441400D03*
X62954Y553687D03*
X72591Y558200D03*
X86800Y555700D03*
X95100Y555600D03*
X84900Y579900D03*
X99891Y639300D03*
X86100Y639798D03*
X122000Y555900D03*
X116491Y556000D03*
X116191Y618900D03*
X112291Y626982D03*
X137491Y553300D03*
X143200Y576000D03*
X151200Y567200D03*
X190691Y573300D03*
X191900Y616400D03*
X223491Y548500D03*
X211191Y555100D03*
X216391D03*
X221800Y630900D03*
X239791Y555100D03*
X235491Y625700D03*
X230391D03*
X249400Y597900D03*
X261591Y619900D03*
X266191Y603700D03*
X361691Y38100D03*
X355300Y385800D03*
X357300Y458000D03*
X363700Y458300D03*
X376300Y458400D03*
X370000Y458300D03*
X382600Y458800D03*
X389791Y42200D03*
X406100Y459600D03*
X388400Y458900D03*
X393400Y459200D03*
X408000Y239000D03*
X421900Y459800D03*
X417000Y459700D03*
X460591Y202400D03*
X459591Y641600D03*
X464191Y637000D03*
X459800Y663800D03*
X469900Y202200D03*
X477100Y421900D03*
X486100Y458600D03*
X468791Y583700D03*
Y590200D03*
Y596700D03*
Y632500D03*
X548300Y592900D03*
X550991Y560000D03*
G54D31*
X-31909Y2200D03*
Y207800D03*
Y413400D03*
X148953Y2200D03*
Y207800D03*
Y413400D03*
X165491Y2200D03*
Y207800D03*
Y413400D03*
X346353Y2200D03*
Y207800D03*
Y413400D03*
G54D41*
G01X-472009Y40400D02*
X-487609Y56000D01*
Y187000D01*
X-472009Y202600D01*
G01X-471509Y397300D02*
X-502009Y366800D01*
G01X-472009Y487200D02*
Y491950D01*
X-488209Y508150D01*
Y602514D01*
X-471916Y618807D01*
X-472009Y618900D01*
G01X-469200Y709900D02*
Y719400D01*
X-444600Y744000D01*
X437800D01*
X470500Y711300D01*
Y688400D01*
G01X-116509Y237500D02*
X-111109Y242900D01*
X-108009D01*
G01X-116509Y237500D02*
X-109709D01*
X-108009Y235800D01*
G01Y229000D02*
Y235800D01*
G01Y229000D02*
X-116509Y237500D01*
G01X-108009Y228700D02*
Y229000D01*
G01Y242900D02*
Y235800D01*
G01X486896Y214446D02*
X495700Y205642D01*
Y5509D01*
X462791Y-27400D01*
X372291D01*
X367291Y-22400D01*
Y-14300D01*
G01X460591Y202400D02*
Y193409D01*
X482300Y171700D01*
Y99509D01*
X442900Y60109D01*
Y18277D01*
X437291Y12668D01*
Y10700D01*
G01X477100Y421900D02*
Y417150D01*
X475800Y415850D01*
Y226700D01*
X460591Y211491D01*
Y202400D01*
G01X486896Y214446D02*
X474650Y202200D01*
X469900D01*
G01X486896Y214446D02*
X486100Y215242D01*
Y458600D01*
G01X477100Y421900D02*
Y511809D01*
X520791Y555500D01*
Y571500D01*
X527091Y577800D01*
X605091D01*
G01X486100Y458600D02*
Y486709D01*
X532991Y533600D01*
G54D32*
X-24709Y22700D03*
X-24609Y229300D03*
X-25109Y434100D03*
X-14709Y22700D03*
X-4709D03*
X-14609Y229300D03*
X-4609D03*
X-15109Y434100D03*
X-5109D03*
X71291Y22500D03*
X81291D03*
X71191Y229500D03*
X81191D03*
X71091Y434400D03*
X81091D03*
X91291Y22500D03*
X91191Y229500D03*
X91091Y434400D03*
X167091D03*
X167491Y23200D03*
X177491D03*
X167691Y229400D03*
X177691D03*
X177091Y434400D03*
X187091D03*
X187491Y23200D03*
X187691Y229400D03*
X263591Y22300D03*
X264091Y229400D03*
X263491Y434300D03*
X273591Y22300D03*
X283591D03*
X274091Y229400D03*
X284091D03*
X273491Y434300D03*
X283491D03*
G54D23*
X-344100Y241000D03*
X-343800Y267200D03*
X-343100Y517000D03*
X-330500Y-14600D03*
X-331200Y11900D03*
X-342400Y488500D03*
G54D14*
X-527009Y-19600D03*
Y142600D03*
X-526509Y337300D03*
X-527009Y558900D03*
G54D42*
G01X-416200Y471500D02*
X-495700D01*
X-497500Y473300D01*
Y580700D01*
X-525100Y608300D01*
Y632200D01*
X-545000Y652100D01*
Y681300D01*
X-537100Y689200D01*
G01X-129100Y475200D02*
X-404200D01*
X-408900Y479900D01*
Y486900D01*
G01X-95600Y486800D02*
X-75415D01*
X-74815Y486200D01*
X-73276D01*
G01D02*
X-70276Y483200D01*
Y407576D01*
X-18300Y355600D01*
Y342500D01*
X-16500Y340700D01*
X55100D01*
X59300Y336500D01*
Y290800D01*
X64800Y285300D01*
G01X-73800Y488650D02*
Y486724D01*
X-73276Y486200D01*
G01X18200Y704900D02*
X52000D01*
X54300Y707200D01*
G01X98300Y610200D02*
X67800D01*
X52800Y595200D01*
G01X77900Y601500D02*
X65400D01*
X56900Y593000D01*
G01X68700Y593400D02*
X71100Y595800D01*
X83300D01*
X87100Y592000D01*
X187091D01*
G01X79300Y652300D02*
Y694400D01*
G01X90800Y668300D02*
Y694500D01*
X98300Y702000D01*
Y706200D01*
G01X85600Y652000D02*
Y691150D01*
X85800Y691350D01*
Y693800D01*
G01X158100Y649600D02*
X116900D01*
X116333Y650168D01*
X116232D01*
X114500Y651900D01*
G01X198400Y610000D02*
X218000D01*
G54D33*
X-9Y-100D03*
Y205500D03*
Y411100D03*
X19991Y-300D03*
X9991Y-13100D03*
X19991Y205300D03*
X9991Y192500D03*
Y398100D03*
X19991Y410900D03*
X29991Y-13100D03*
Y192500D03*
Y398100D03*
X96391Y-100D03*
Y205500D03*
Y411100D03*
X116391Y-300D03*
X106391Y-13100D03*
X116391Y205300D03*
X106391Y192500D03*
Y398100D03*
X116391Y410900D03*
X126391Y-13100D03*
Y192500D03*
Y398100D03*
X192691Y-100D03*
X202691Y-13100D03*
X192691Y205500D03*
X202691Y192500D03*
Y398100D03*
X192691Y411100D03*
X212691Y-300D03*
X222691Y-13100D03*
X212691Y205300D03*
X222691Y192500D03*
Y398100D03*
X212691Y410900D03*
X289091Y-100D03*
X299091Y-13100D03*
X289091Y205500D03*
X299091Y192500D03*
Y398100D03*
X289091Y411100D03*
X309091Y-300D03*
X319091Y-13100D03*
X309091Y205300D03*
X319091Y192500D03*
Y398100D03*
X309091Y410900D03*
X367291Y-14300D03*
Y10700D03*
Y191300D03*
Y216300D03*
Y397000D03*
Y422000D03*
X387291Y-14300D03*
X377291D03*
X387291Y10700D03*
X377291D03*
X387291Y191300D03*
X377291D03*
X387291Y216300D03*
X377291D03*
X387291Y397000D03*
X377291D03*
X387291Y422000D03*
X377291D03*
X407291Y-14300D03*
X397291D03*
X407291Y10700D03*
X397291D03*
X407291Y191300D03*
X397291D03*
X407291Y216300D03*
X397291D03*
X407291Y397000D03*
X397291D03*
X407291Y422000D03*
X397291D03*
X427291Y-14300D03*
X417291D03*
X427291Y10700D03*
X417291D03*
X427291Y191300D03*
X417291D03*
X427291Y216300D03*
X417291D03*
X427291Y397000D03*
X417291D03*
X427291Y422000D03*
X417291D03*
X437291Y-14300D03*
Y10700D03*
Y191300D03*
Y216300D03*
Y397000D03*
Y422000D03*
G54D24*
X-344100Y253500D03*
X-343800Y279700D03*
X-343100Y529500D03*
X-330500Y-2100D03*
X-331200Y24400D03*
X-342400Y501000D03*
G54D15*
X-537100Y689200D03*
X-469200Y709900D03*
X-415500Y238300D03*
X-408900Y486900D03*
X-185209Y706798D03*
X-147300Y694400D03*
X-153719Y706798D03*
X-147600Y707000D03*
X-153900Y694100D03*
X-129100Y475200D03*
X-128500Y693800D03*
X-122200Y693900D03*
X-128600Y706600D03*
X-128500Y727100D03*
X-122200Y727500D03*
X-127700Y718400D03*
X-103500Y706900D03*
X-109500Y693500D03*
X-109800Y707000D03*
X-116300Y693800D03*
X-115000Y727200D03*
X-109200D03*
X-102000Y739100D03*
X-98600Y505700D03*
X-97500Y510700D03*
X-86800Y509400D03*
X-92200Y510800D03*
X-90800Y707100D03*
X-84700D03*
X-84500Y694400D03*
X-91200Y694200D03*
X-97600Y693800D03*
X-90800Y727800D03*
X-81000Y727900D03*
X-59000Y237600D03*
X-73800Y488650D03*
X-73100Y508000D03*
X-77550Y510050D03*
X-65589Y694200D03*
X-54100Y233500D03*
X-56400Y247100D03*
X-52900Y374700D03*
X-49450Y377650D03*
X-47900Y503600D03*
X-43600Y587800D03*
X-38700Y577500D03*
X-41500Y583100D03*
X-49600Y589800D03*
X-45100Y729100D03*
X-57400Y727000D03*
X-32100Y576200D03*
X-23550Y577950D03*
X-34900Y735500D03*
X-15300Y580700D03*
X10800Y678100D03*
X18200Y704900D03*
X40800Y570000D03*
X29900Y558900D03*
X32091Y582205D03*
X22591Y617107D03*
X40591Y610900D03*
X40300Y639700D03*
X28200Y713600D03*
X62241Y575941D03*
X52800Y595200D03*
X56900Y593000D03*
X47284Y610900D03*
X48000Y629200D03*
X54300Y707200D03*
X63140Y72000D03*
X70500Y97800D03*
X63660Y88300D03*
X64800Y285300D03*
X73500Y300800D03*
X66300Y301500D03*
X81400Y311000D03*
X68700Y593400D03*
X77900Y601500D03*
X76691Y592693D03*
X68600Y606100D03*
X68445Y616698D03*
X79300Y652300D03*
X67800Y669100D03*
X73400Y706800D03*
X66600Y707300D03*
X79500Y708700D03*
X79300Y694400D03*
X98300Y610200D03*
X90800Y668300D03*
X85600Y652000D03*
X96200Y651800D03*
X97900Y667200D03*
X98300Y706200D03*
X85800Y693800D03*
X85300Y706700D03*
X92000Y705400D03*
X111900Y569546D03*
X111791Y562619D03*
X104800Y665000D03*
X114500Y651900D03*
X119200Y663900D03*
X119000Y672300D03*
X104800Y673400D03*
X110776Y694200D03*
X104800Y706600D03*
X137791Y610500D03*
X129200Y639400D03*
X128400Y663600D03*
X142700Y694200D03*
X135900Y706800D03*
X158100Y649600D03*
X161100Y672800D03*
Y706800D03*
X148500Y694600D03*
X164500Y638400D03*
X170900Y664000D03*
X196791Y578900D03*
X187500Y585400D03*
X187091Y592000D03*
X191900Y609754D03*
X194500Y591700D03*
X198400Y610000D03*
X197800Y650600D03*
X191500Y700500D03*
X218000Y610000D03*
X218284Y623200D03*
X229900Y569500D03*
X259800Y568500D03*
X260191Y561907D03*
X256191Y613107D03*
X258100Y645100D03*
X248800Y663800D03*
X266400Y626800D03*
X271300Y615800D03*
X382800Y253600D03*
X400500Y459500D03*
X413100Y48300D03*
Y124400D03*
X424500Y201500D03*
X417300Y408200D03*
X411400Y459700D03*
X426900Y534400D03*
X414600Y626800D03*
X434400Y41400D03*
X446500Y438500D03*
X432091Y620407D03*
X438300Y647100D03*
X457400Y131000D03*
X451300Y209100D03*
X448900Y337000D03*
X461400Y415400D03*
Y439800D03*
X468200Y463900D03*
X462700Y449900D03*
X491700Y666600D03*
X585700Y460300D03*
X574691Y565000D03*
X574791Y586600D03*
X588800Y666900D03*
X627054Y617300D03*
X635600Y582340D03*
X642500Y599300D03*
X634046Y610700D03*
X650240Y599400D03*
X641540Y630700D03*
X640100Y611700D03*
X657100Y583440D03*
X659900Y606900D03*
X666600Y608100D03*
X666700Y614600D03*
X667200Y629000D03*
X679291Y599558D03*
X733400Y221500D03*
G54D43*
G01X235900Y686800D02*
X236300Y686400D01*
G54D25*
X-215009Y14062D03*
Y161700D03*
Y269562D03*
Y417200D03*
Y519062D03*
Y666700D03*
G54D16*
X-522830Y-31802D03*
Y130398D03*
X-522330Y325098D03*
X-522830Y546698D03*
X-462830Y-31802D03*
Y130398D03*
X-462330Y325098D03*
X-462830Y546698D03*
X-96209Y624100D03*
X-56209D03*
X359391Y27100D03*
X349391D03*
X532991Y533600D03*
X542991D03*
X552991D03*
X562991D03*
G54D34*
X-2509Y153100D03*
X6691D03*
X-2509Y358700D03*
X12391Y-52500D03*
X22191D03*
X7291Y358700D03*
X46691Y153100D03*
X47291Y358700D03*
X62191Y-52500D03*
X56491Y153100D03*
Y358700D03*
X71391Y-52500D03*
X158691Y71600D03*
X158791Y83100D03*
Y123100D03*
X158691Y130600D03*
Y277300D03*
X158791Y288700D03*
Y328700D03*
X158691Y336300D03*
Y482900D03*
X158791Y494300D03*
Y534300D03*
X158691Y541900D03*
G54D17*
X-512009Y40400D03*
Y202600D03*
X-511509Y397300D03*
X-512009Y618900D03*
G54D35*
X15291Y22700D03*
X15391Y229300D03*
X14891Y434100D03*
X111291Y22500D03*
X111191Y229500D03*
X111091Y434400D03*
X207491Y23200D03*
X207691Y229400D03*
X207091Y434400D03*
X303591Y22300D03*
X304091Y229400D03*
X303491Y434300D03*
G54D26*
X-136009Y130700D03*
Y386700D03*
Y635700D03*
G54D18*
X-472009Y40400D03*
Y202600D03*
X-471509Y397300D03*
X-472009Y618900D03*
G54D36*
X369391Y27100D03*
G54D27*
G01X-502009Y264700D02*
Y271800D01*
G01Y366800D02*
Y278900D01*
G01Y271800D02*
Y278900D01*
G01X2091Y-22402D02*
X28091D01*
G01X6291Y32098D02*
Y14598D01*
G01X6591Y182898D02*
X32591D01*
G01X5491Y240198D02*
Y222698D01*
G01X6591Y388398D02*
X32591D01*
G01X5191Y445698D02*
Y428198D01*
G01X23891Y31698D02*
Y14198D01*
G01X24791Y239998D02*
Y222498D01*
G01X24691Y445298D02*
Y427798D01*
G01X103091Y-22602D02*
X129091D01*
G01X101791Y33598D02*
Y16098D01*
G01X103591Y182898D02*
X129591D01*
G01X101491Y240798D02*
Y223298D01*
G01X102591Y388398D02*
X128591D01*
G01X100891Y445998D02*
Y428498D01*
G01X120591Y32898D02*
Y15398D01*
G01X120491Y240798D02*
Y223298D01*
G01X120891Y445898D02*
Y428398D01*
G01X146091Y59398D02*
X172091D01*
G01X145591Y142898D02*
X171591D01*
G01X145591Y264398D02*
X171591D01*
G01X145991Y348298D02*
X171991D01*
G01X145591Y470398D02*
X171591D01*
G01X199591Y-23102D02*
X225591D01*
G01X197791Y34398D02*
Y16898D01*
G01X199591Y182898D02*
X225591D01*
G01X198491Y240798D02*
Y223298D01*
G01X199591Y388398D02*
X225591D01*
G01X196591Y445998D02*
Y428498D01*
G01X218091Y34298D02*
Y16798D01*
G01X216991Y240898D02*
Y223398D01*
G01X216591Y445398D02*
Y427898D01*
G01X296091Y-23102D02*
X322091D01*
G01X293891Y32798D02*
Y15298D01*
G01X295591Y182898D02*
X321591D01*
G01X294091Y239698D02*
Y222198D01*
G01X296091Y388398D02*
X322091D01*
G01X292691Y445898D02*
Y428398D01*
G01X313791Y32198D02*
Y14698D01*
G01X314591Y239198D02*
Y221698D01*
G01X315191Y445398D02*
Y427898D01*
G01X528491Y441800D02*
Y470700D01*
X538791Y481000D01*
X601191D01*
X635591Y515400D01*
X645991D01*
G01X655991D02*
X645991D01*
G01X749991D02*
X738591D01*
X704191Y481000D01*
X680891D01*
X668791Y468900D01*
Y441800D01*
G01X759991Y515400D02*
X749991D01*
X-136009Y151200D03*
Y407200D03*
Y656200D03*
G54D28*
X-58078Y499580D03*
Y507100D03*
Y514620D03*
X47178Y81980D03*
Y97020D03*
Y89500D03*
X49878Y303900D03*
Y296380D03*
Y311420D03*
G54D19*
X-457009Y-9600D03*
Y152600D03*
X-456509Y347300D03*
X-457009Y568900D03*
G54D37*
X528491Y59400D03*
Y186900D03*
X527991Y314400D03*
X528491Y441800D03*
X567861Y59400D03*
Y186900D03*
X567361Y314400D03*
X567861Y441800D03*
X668791Y59400D03*
Y186900D03*
Y314400D03*
Y441800D03*
X708161Y59400D03*
Y186900D03*
Y314400D03*
Y441800D03*
G54D38*
G01X-586792Y245331D02*
X-572440D01*
X-536009Y208900D01*
X-442809D01*
X-422659Y188750D01*
X-132159D01*
X-131809Y189100D01*
X-131179D01*
X-100100Y220179D01*
Y482585D01*
X-102950Y485435D01*
Y490365D01*
X-102600Y490715D01*
Y494033D01*
X-111500Y502933D01*
Y588043D01*
X-96543Y603000D01*
X27134D01*
X49735Y580399D01*
X64851D01*
X86800Y558450D01*
Y555700D01*
G01X122000Y555900D02*
X120055Y557845D01*
X119458D01*
X118291Y559012D01*
Y576209D01*
X106500Y588000D01*
X53291D01*
X30791Y610500D01*
X-99650D01*
X-119000Y591150D01*
Y499826D01*
X-110450Y491276D01*
Y482328D01*
X-110100Y481978D01*
Y461709D01*
X-133509Y438300D01*
X-487909D01*
X-502649Y453040D01*
X-571069D01*
X-573609Y450500D01*
Y443500D01*
X-574909Y442200D01*
X-585400D01*
G01X116491Y556000D02*
X113691Y558800D01*
X105000D01*
X86650Y577150D01*
X83761D01*
X82150Y578761D01*
Y581650D01*
X77300Y586500D01*
X52120D01*
X29620Y609000D01*
X-99029D01*
X-117500Y590528D01*
Y500448D01*
X-108950Y491898D01*
Y482949D01*
X-108600Y482600D01*
Y461087D01*
X-132888Y436800D01*
X-489909D01*
X-504509Y451400D01*
X-570309D01*
X-571609Y450100D01*
Y443500D01*
X-569909Y441800D01*
X-562650D01*
X-562250Y441400D01*
X-559500D01*
G01X95100Y555600D02*
Y558891D01*
X72091Y581899D01*
X50356D01*
X27755Y604500D01*
X-97165D01*
X-113000Y588664D01*
Y502312D01*
X-104100Y493412D01*
Y491336D01*
X-104450Y490986D01*
Y484814D01*
X-101600Y481964D01*
Y220800D01*
X-131800Y190600D01*
X-419209D01*
X-439109Y210500D01*
X-533109D01*
X-561809Y239200D01*
Y245100D01*
G01X-516900Y695300D02*
X-515400D01*
X-510400Y700300D01*
X-160100D01*
X-153900Y694100D01*
G01X-426009Y431300D02*
X-414809D01*
X-410909Y435200D01*
X-132366D01*
X-107100Y460466D01*
Y483221D01*
X-107450Y483571D01*
Y492519D01*
X-116000Y501069D01*
Y589907D01*
X-98407Y607500D01*
X28998D01*
X51598Y584900D01*
X75391D01*
X80650Y579641D01*
Y578139D01*
X83139Y575650D01*
X84641D01*
X104591Y555700D01*
X110182D01*
X113021Y552862D01*
X128453D01*
X146891Y571300D01*
X154700D01*
X156700Y569300D01*
X193200D01*
X197600Y573700D01*
X233100D01*
X239791Y567009D01*
Y555100D01*
G01X216391D02*
Y552350D01*
X212541Y548500D01*
X200700D01*
X191100Y558100D01*
X149600D01*
X139300Y547800D01*
X111719D01*
X108318Y551200D01*
X70391D01*
X21591Y600000D01*
X-95300D01*
X-108500Y586800D01*
Y504176D01*
X-99600Y495276D01*
Y489472D01*
X-99950Y489122D01*
Y486678D01*
X-97100Y483828D01*
Y218936D01*
X-129936Y186100D01*
X-130409D01*
X-133164Y183344D01*
X-393064D01*
X-395009Y181400D01*
G01X-397709Y186000D02*
X-132709D01*
X-131109Y187600D01*
X-130558D01*
X-98600Y219557D01*
Y483206D01*
X-101450Y486056D01*
Y489744D01*
X-101100Y490094D01*
Y494655D01*
X-110000Y503555D01*
Y587421D01*
X-95922Y601500D01*
X23291D01*
X72091Y552700D01*
X108940D01*
X112240Y549400D01*
X137800D01*
X148000Y559600D01*
X191721D01*
X201300Y550021D01*
X210191D01*
X211191Y551021D01*
Y555100D01*
G01X229900Y569500D02*
Y567300D01*
X229600Y567000D01*
Y562400D01*
X228600Y561400D01*
X139113D01*
X129075Y551362D01*
X112399D01*
X109561Y554200D01*
X103791D01*
X83841Y574150D01*
X82518D01*
X79150Y577518D01*
Y578841D01*
X74591Y583400D01*
X50977D01*
X28377Y606000D01*
X-97786D01*
X-114500Y589286D01*
Y501690D01*
X-105950Y493140D01*
Y484192D01*
X-105600Y483842D01*
Y459844D01*
X-108400Y457044D01*
Y456609D01*
X-131764Y433244D01*
X-398964D01*
X-400909Y431300D01*
G01X-128500Y727100D02*
X-131900Y723700D01*
Y697200D01*
X-128500Y693800D01*
G01X-122200Y727500D02*
X-118900Y724200D01*
Y697200D01*
X-122200Y693900D01*
G01X-127700Y718400D02*
Y707500D01*
X-128600Y706600D01*
G01X-34900Y735500D02*
X-39500Y730900D01*
Y689200D01*
X-43400Y685300D01*
X-112400D01*
X-116300Y689200D01*
Y693800D01*
G01X-102000Y739100D02*
Y710600D01*
X-103500Y709100D01*
Y706900D01*
G01X-115000Y727200D02*
Y699000D01*
X-109500Y693500D01*
G01X-109200Y727200D02*
Y725000D01*
X-109000Y724800D01*
Y710000D01*
X-109800Y709200D01*
Y707000D01*
G01X-84500Y694400D02*
Y689800D01*
X-83500Y688800D01*
X-49000D01*
X-45100Y692700D01*
Y729100D01*
G01X-90800Y727800D02*
Y707100D01*
G01X-81000Y727900D02*
Y710800D01*
X-84700Y707100D01*
G01X-57400Y727000D02*
Y700200D01*
X-59300Y698300D01*
X-87100D01*
X-91200Y694200D01*
G01X-56400Y247100D02*
X-62400Y241100D01*
Y199900D01*
X-25100Y162600D01*
Y137600D01*
X-24300Y136800D01*
X66411D01*
X66611Y136600D01*
X66800D01*
X93800Y109600D01*
X388300D01*
X393600Y104300D01*
Y46009D01*
X389791Y42200D01*
G01X-31900Y649000D02*
X-24109Y641209D01*
Y628500D01*
X-15909Y620300D01*
X-15321D01*
X-14621Y619600D01*
X55691D01*
X61791Y613500D01*
X113246D01*
X114246Y614500D01*
Y616955D01*
X116191Y618900D01*
G01X112291Y626982D02*
Y618600D01*
X109391Y615700D01*
X72900D01*
X71900Y616700D01*
Y620100D01*
X70900Y621100D01*
X-14000D01*
X-19709Y626809D01*
Y642109D01*
X-26600Y649000D01*
G01X-809Y625800D02*
X1941D01*
X3141Y627000D01*
X39791D01*
X46641Y633850D01*
X228141D01*
X232336Y629655D01*
Y627644D01*
X230391Y625700D01*
G01X235491D02*
Y628800D01*
X228941Y635350D01*
X45641D01*
X39291Y629000D01*
X3141D01*
X1941Y630200D01*
X-809D01*
G01X110776Y694200D02*
X142700D01*
G01X459800Y663800D02*
X248800D01*
G01X355300Y385800D02*
X361591D01*
X391795Y355595D01*
Y254595D01*
X363700Y226500D01*
X340778D01*
X340578Y226300D01*
X339600D01*
X335039Y221739D01*
Y194061D01*
X395991Y133109D01*
Y39100D01*
X372741Y15839D01*
Y-7782D01*
X377291Y-12332D01*
Y-14300D01*
G01X363700Y458300D02*
Y438400D01*
X355991Y430691D01*
Y394088D01*
X360741Y389338D01*
Y389259D01*
X395000Y355000D01*
Y254900D01*
X365100Y225000D01*
X341400D01*
X336600Y220200D01*
Y196800D01*
X398600Y134800D01*
Y36946D01*
X377291Y15637D01*
Y10700D01*
G01X370000Y458300D02*
Y437200D01*
X357491Y424691D01*
Y394709D01*
X397800Y354400D01*
Y254500D01*
X359500Y216200D01*
Y181000D01*
X401500Y139000D01*
Y23521D01*
X400079Y22100D01*
X389300D01*
X387291Y20091D01*
Y10700D01*
G01X376300Y458400D02*
Y439200D01*
X358991Y421891D01*
Y396209D01*
X400200Y355000D01*
Y248200D01*
X372291Y220291D01*
Y203800D01*
X377291Y198800D01*
Y191300D01*
G01X382600Y458800D02*
Y439000D01*
X371900Y428300D01*
Y391400D01*
X402600Y360700D01*
Y243800D01*
X377291Y218491D01*
Y216300D01*
G01X388400Y458900D02*
Y442600D01*
X373400Y427600D01*
Y392600D01*
X404500Y361500D01*
Y241200D01*
X387291Y223991D01*
Y216300D01*
G01X397291Y191300D02*
Y163400D01*
X407691Y153000D01*
Y17600D01*
X401900D01*
Y-12660D01*
X400259Y-14300D01*
X397291D01*
G01X417000Y459700D02*
Y449300D01*
X392800Y425100D01*
Y391591D01*
X412700Y371691D01*
Y236813D01*
X407887Y232000D01*
X403700D01*
X392091Y220391D01*
Y162009D01*
X404300Y149800D01*
Y21300D01*
X402400Y19400D01*
X393800D01*
X392600Y18200D01*
Y-7023D01*
X387291Y-12332D01*
Y-14300D01*
G01X397291Y397000D02*
Y392063D01*
X414900Y374454D01*
Y234600D01*
X402400Y222100D01*
Y203909D01*
X397291Y198800D01*
Y191300D01*
G01X393400Y459200D02*
Y456450D01*
X393900Y455950D01*
Y437909D01*
X391300Y435309D01*
Y387991D01*
X408000Y371291D01*
Y239000D01*
G01X421900Y459800D02*
Y449500D01*
X403000Y430600D01*
Y410209D01*
X397291Y404500D01*
Y397000D01*
G01X417291Y-14300D02*
Y-12332D01*
X412500Y-7541D01*
Y18000D01*
X417291Y22791D01*
Y191300D01*
G01X424500Y201500D02*
X422191Y199191D01*
Y18100D01*
X427291Y13000D01*
Y10700D01*
G01X417291Y397000D02*
Y392063D01*
X422291Y387063D01*
Y207800D01*
X417291Y202800D01*
Y191300D01*
G01X417300Y408200D02*
X412600Y403500D01*
Y393091D01*
X417291Y388400D01*
Y216300D01*
G01X423000Y393800D02*
Y389191D01*
X427291Y384900D01*
Y216300D01*
G01X432491Y191400D02*
Y187300D01*
X427491Y182300D01*
Y21209D01*
X432200Y16500D01*
Y-4454D01*
X427291Y-9363D01*
Y-14300D01*
G01Y191300D02*
X432391D01*
X432491Y191400D01*
G01D02*
Y387800D01*
X427291Y393000D01*
Y397000D01*
G54D29*
X-39574Y54500D03*
X-43472Y57315D03*
X-44948Y61941D03*
Y67158D03*
Y72472D03*
Y77689D03*
X-43472Y82315D03*
X-39535Y85169D03*
X-44948Y101311D03*
X-43472Y96685D03*
X-39535Y93831D03*
X-43472Y121685D03*
X-44948Y117059D03*
Y111842D03*
Y106626D03*
X-39574Y124500D03*
X-40772Y271715D03*
X-42248Y276341D03*
Y281558D03*
Y286872D03*
Y292089D03*
X-40772Y296715D03*
X-42248Y326243D03*
Y321026D03*
Y315711D03*
X-40772Y311085D03*
Y336085D03*
X-42248Y331459D03*
X-29200Y61941D03*
X-30676Y57315D03*
X-34574Y54500D03*
X-30676Y82315D03*
X-29200Y77689D03*
Y72472D03*
Y67158D03*
X-34613Y85169D03*
X-30676Y96685D03*
X-29200Y101311D03*
X-34613Y93831D03*
X-29200Y106626D03*
Y111842D03*
Y117059D03*
X-30676Y121685D03*
X-34574Y124500D03*
X-26500Y281558D03*
Y276341D03*
X-27976Y271715D03*
X-31874Y268900D03*
X-36874D03*
X-27976Y296715D03*
X-26500Y292089D03*
Y286872D03*
X-36835Y299569D03*
X-31913D03*
X-27976Y311085D03*
X-26500Y315711D03*
Y321026D03*
Y326243D03*
X-36835Y308231D03*
X-31913D03*
X-26500Y331459D03*
X-27976Y336085D03*
X-31874Y338900D03*
X-36874D03*
X18300Y484758D03*
Y479541D03*
X19776Y474915D03*
Y499915D03*
X18300Y495289D03*
Y489974D03*
X19776Y514285D03*
X18300Y518911D03*
Y524128D03*
Y529442D03*
Y534659D03*
X19776Y539285D03*
X23674Y472100D03*
X28674D03*
X32572Y474915D03*
X34048Y479541D03*
Y484758D03*
Y489974D03*
Y495289D03*
X32572Y499915D03*
X28635Y502769D03*
X23713D03*
X34048Y524128D03*
Y518911D03*
X32572Y514285D03*
X28635Y511431D03*
X23713D03*
X23674Y542100D03*
X28674D03*
X32572Y539285D03*
X34048Y534659D03*
Y529442D03*
G54D39*
G01X-604800Y749900D02*
Y754000D01*
X778800D01*
Y-73200D01*
X-604800D01*
Y751000D01*
G01X-100700Y129300D02*
X-95400Y134600D01*
X65500D01*
X77800Y122300D01*
Y75700D01*
X74100Y72000D01*
X63140D01*
G01X-95600Y486800D02*
Y496600D01*
X-105400Y506400D01*
Y583800D01*
X-93500Y595700D01*
X12000D01*
X17900Y589800D01*
Y576100D01*
X25600Y568400D01*
Y548500D01*
X107200D01*
X111300Y544400D01*
X140400D01*
X149000Y553000D01*
X190700D01*
X200900Y542800D01*
X465791D01*
X468791Y545800D01*
Y583700D01*
G01X126391Y-13100D02*
Y6500D01*
X124391Y8500D01*
X113291D01*
X111291Y10500D01*
Y22500D01*
G01X119200Y663900D02*
Y657346D01*
X122000Y654546D01*
X625054D01*
X627054Y652546D01*
Y617300D01*
G01X191500Y700500D02*
X154400D01*
X148500Y694600D01*
G01X271300Y615800D02*
Y631900D01*
X258100Y645100D01*
G01X382800Y253600D02*
X389000Y259800D01*
Y344900D01*
X337053Y396847D01*
Y418953D01*
X352200Y434100D01*
Y459700D01*
X426900Y534400D01*
G01X413100Y48300D02*
Y124400D01*
G01X446500Y438500D02*
X444591Y436591D01*
Y416491D01*
X442000Y413900D01*
X435200D01*
X423000Y401700D01*
Y393800D01*
G01X434400Y41400D02*
Y66100D01*
X475100Y106800D01*
Y107300D01*
X476400Y108600D01*
Y166500D01*
X451300Y191600D01*
Y209100D01*
G01X457400Y131000D02*
X444000Y144400D01*
Y224100D01*
X453350Y233450D01*
Y425150D01*
X466450Y438250D01*
Y462150D01*
X468200Y463900D01*
G01X451300Y209100D02*
X466000Y223800D01*
Y410800D01*
X461400Y415400D01*
G01X448900Y337000D02*
Y424800D01*
X454700Y430600D01*
Y441900D01*
X462700Y449900D01*
G01X666700Y614600D02*
X659600D01*
X649800Y604800D01*
X626700D01*
X612400Y590500D01*
Y536800D01*
X601300Y525700D01*
X544991D01*
X542991Y527700D01*
Y533600D01*
G01X635600Y582340D02*
Y592400D01*
X642500Y599300D01*
M02*
