G04 ================== begin FILE IDENTIFICATION RECORD ==================*
G04 Layout Name:  solutionstida01606_powercard_rev17.brd*
G04 Film Name:    SilkscreenBOTTOM*
G04 File Format:  Gerber RS274X*
G04 File Origin:  Cadence Allegro -unreleased*
G04 Origin Date:  Fri Aug 27 11:16:49 2021*
G04 *
G04 Layer:  REF DES/SILKSCREEN_BOTTOM*
G04 Layer:  PACKAGE GEOMETRY/SILKSCREEN_BOTTOM*
G04 Layer:  BOARD GEOMETRY/SILKSCREEN_BOTTOM*
G04 Layer:  BOARD GEOMETRY/OUTLINE*
G04 *
G04 Offset:    (0.000 0.000)*
G04 Mirror:    No*
G04 Mode:      Positive*
G04 Rotation:  0*
G04 FullContactRelief:  No*
G04 UndefLineWidth:     8.000*
G04 ================== end FILE IDENTIFICATION RECORD ====================*
%FSLAX25Y25*MOIN*%
%IR0*IPPOS*OFA0.00000B0.00000*MIA0B0*SFA1.00000B1.00000*%
%ADD10C,.006*%
%ADD11C,.008*%
%ADD12C,.06*%
G75*
%LPD*%
G75*
G54D10*
G01X186715Y99202D02*
X182525D01*
Y102892D01*
G01X188025Y106632D02*
Y103772D01*
G01X182525Y107512D02*
Y111202D01*
X186715D01*
G01Y354202D02*
X182525D01*
Y357892D01*
G01X188025Y361632D02*
Y358772D01*
G01X182525Y362512D02*
Y366202D01*
X186715D01*
G01Y604202D02*
X182525D01*
Y607892D01*
G01X188025Y611632D02*
Y608772D01*
G01X182525Y612512D02*
Y616202D01*
X186715D01*
G54D11*
G01X116067Y51900D02*
Y56900D01*
X114483D01*
X113977Y56650D01*
X113660Y56317D01*
X113533Y55650D01*
X113660Y54983D01*
X114040Y54567D01*
X114483Y54317D01*
X116067D01*
G01X114483D02*
X113533Y51900D01*
G01X110903D02*
Y56900D01*
X108497D01*
G01X109383Y54483D02*
X110903D01*
G01X103840Y51900D02*
Y56900D01*
X106183Y53317D01*
X103017D01*
G01X118767Y213900D02*
Y218900D01*
X117183D01*
X116677Y218650D01*
X116360Y218317D01*
X116233Y217650D01*
X116360Y216983D01*
X116740Y216567D01*
X117183Y216317D01*
X118767D01*
G01X117183D02*
X116233Y213900D01*
G01X113603D02*
Y218900D01*
X111197D01*
G01X112083Y216483D02*
X113603D01*
G01X107300Y213900D02*
Y218900D01*
X108060Y217900D01*
G01Y213900D02*
X106540D01*
G01X117667Y409000D02*
Y414000D01*
X116083D01*
X115577Y413750D01*
X115260Y413417D01*
X115133Y412750D01*
X115260Y412083D01*
X115640Y411667D01*
X116083Y411417D01*
X117667D01*
G01X116083D02*
X115133Y409000D01*
G01X112503D02*
Y414000D01*
X110097D01*
G01X110983Y411583D02*
X112503D01*
G01X107403Y413167D02*
X107023Y413667D01*
X106580Y413917D01*
X106073Y414000D01*
X105440Y413833D01*
X104997Y413417D01*
X104870Y412917D01*
X104933Y412416D01*
X105187Y412000D01*
X106453Y411167D01*
X107023Y410583D01*
X107403Y409750D01*
X107530Y409000D01*
X104870D01*
G01X121567Y629700D02*
Y634700D01*
X119983D01*
X119477Y634450D01*
X119160Y634117D01*
X119033Y633450D01*
X119160Y632783D01*
X119540Y632367D01*
X119983Y632117D01*
X121567D01*
G01X119983D02*
X119033Y629700D01*
G01X116403D02*
Y634700D01*
X113997D01*
G01X114883Y632283D02*
X116403D01*
G01X111493Y630700D02*
X111113Y630117D01*
X110607Y629783D01*
X110037Y629700D01*
X109530Y629783D01*
X109023Y630200D01*
X108707Y630700D01*
X108643Y631200D01*
X108770Y631783D01*
X109213Y632200D01*
X109657Y632367D01*
X110227D01*
G01X109657D02*
X109277Y632617D01*
X108960Y633033D01*
X108833Y633533D01*
X108960Y634033D01*
X109277Y634450D01*
X109847Y634700D01*
X110417Y634617D01*
X110987Y634283D01*
G01X190043Y114602D02*
Y117702D01*
X189277D01*
X188970Y117546D01*
X188740Y117340D01*
X188548Y117030D01*
X188395Y116668D01*
X188357Y116152D01*
X188395Y115635D01*
X188548Y115273D01*
X188740Y114963D01*
X188970Y114757D01*
X189277Y114602D01*
X190043D01*
G01X186100D02*
Y117702D01*
X186560Y117082D01*
G01Y114602D02*
X185640D01*
G01X183728Y117185D02*
X183498Y117495D01*
X183230Y117650D01*
X182923Y117702D01*
X182540Y117598D01*
X182272Y117340D01*
X182195Y117030D01*
X182233Y116720D01*
X182387Y116462D01*
X183153Y115945D01*
X183498Y115583D01*
X183728Y115066D01*
X183805Y114602D01*
X182195D01*
G01X189543Y370502D02*
Y373602D01*
X188777D01*
X188470Y373446D01*
X188240Y373240D01*
X188048Y372930D01*
X187895Y372568D01*
X187857Y372052D01*
X187895Y371535D01*
X188048Y371173D01*
X188240Y370863D01*
X188470Y370657D01*
X188777Y370502D01*
X189543D01*
G01X185600D02*
Y373602D01*
X186060Y372982D01*
G01Y370502D02*
X185140D01*
G01X182040D02*
Y373602D01*
X183458Y371380D01*
X181542D01*
G01X189343Y619802D02*
Y622902D01*
X188577D01*
X188270Y622746D01*
X188040Y622540D01*
X187848Y622230D01*
X187695Y621868D01*
X187657Y621352D01*
X187695Y620835D01*
X187848Y620473D01*
X188040Y620163D01*
X188270Y619957D01*
X188577Y619802D01*
X189343D01*
G01X185400D02*
Y622902D01*
X185860Y622282D01*
G01Y619802D02*
X184940D01*
G01X183028Y621093D02*
X182760Y621455D01*
X182530Y621662D01*
X182223Y621765D01*
X181955Y621662D01*
X181763Y621455D01*
X181610Y621145D01*
X181572Y620783D01*
X181610Y620473D01*
X181763Y620163D01*
X181993Y619905D01*
X182262Y619802D01*
X182568Y619905D01*
X182837Y620215D01*
X182990Y620680D01*
X183028Y621197D01*
X182952Y621868D01*
X182837Y622230D01*
X182645Y622592D01*
X182377Y622850D01*
X182108Y622902D01*
X181840Y622798D01*
X181648Y622540D01*
G01X265700Y44701D02*
Y26101D01*
X275100D01*
Y44901D01*
X265700D01*
Y44701D01*
G01X272557Y49943D02*
X272787Y50098D01*
X273055Y50202D01*
X273362D01*
X273707Y50046D01*
X273975Y49788D01*
X274167Y49478D01*
X274320Y48962D01*
X274358Y48497D01*
X274282Y48032D01*
X274167Y47722D01*
X273937Y47412D01*
X273668Y47205D01*
X273400Y47102D01*
X273132D01*
X272863Y47205D01*
X272633Y47360D01*
X272442Y47566D01*
G01X270952Y47463D02*
X270683Y47205D01*
X270377Y47102D01*
X270070Y47205D01*
X269802Y47515D01*
X269610Y47980D01*
X269533Y48445D01*
Y49013D01*
X269610Y49478D01*
X269802Y49892D01*
X270032Y50098D01*
X270300Y50202D01*
X270607Y50098D01*
X270837Y49892D01*
X270990Y49582D01*
X271067Y49168D01*
X270990Y48807D01*
X270798Y48445D01*
X270568Y48238D01*
X270300Y48187D01*
X269993Y48290D01*
X269763Y48548D01*
X269533Y49013D01*
G01X267277Y47102D02*
X267200Y47773D01*
X267085Y48342D01*
X266932Y48858D01*
X266740Y49427D01*
X266433Y50202D01*
X267967D01*
G01X265700Y299701D02*
Y281101D01*
X275100D01*
Y299901D01*
X265700D01*
Y299701D01*
G01X273257Y304643D02*
X273487Y304798D01*
X273755Y304902D01*
X274062D01*
X274407Y304747D01*
X274675Y304488D01*
X274867Y304178D01*
X275020Y303662D01*
X275058Y303197D01*
X274982Y302732D01*
X274867Y302422D01*
X274637Y302112D01*
X274368Y301905D01*
X274100Y301802D01*
X273832D01*
X273563Y301905D01*
X273333Y302060D01*
X273142Y302266D01*
G01X271652Y302163D02*
X271383Y301905D01*
X271077Y301802D01*
X270770Y301905D01*
X270502Y302215D01*
X270310Y302680D01*
X270233Y303145D01*
Y303713D01*
X270310Y304178D01*
X270502Y304592D01*
X270732Y304798D01*
X271000Y304902D01*
X271307Y304798D01*
X271537Y304592D01*
X271690Y304282D01*
X271767Y303868D01*
X271690Y303507D01*
X271498Y303145D01*
X271268Y302938D01*
X271000Y302887D01*
X270693Y302990D01*
X270463Y303248D01*
X270233Y303713D01*
G01X267900Y301802D02*
X267632Y301853D01*
X267325Y302008D01*
X267133Y302266D01*
X267057Y302628D01*
X267133Y302990D01*
X267363Y303300D01*
X267708Y303455D01*
X268092D01*
X268322Y303558D01*
X268513Y303816D01*
X268590Y304178D01*
X268475Y304540D01*
X268207Y304798D01*
X267900Y304902D01*
X267593Y304798D01*
X267325Y304540D01*
X267210Y304178D01*
X267287Y303816D01*
X267478Y303558D01*
X267708Y303455D01*
X268092D01*
X268437Y303300D01*
X268667Y302990D01*
X268743Y302628D01*
X268667Y302266D01*
X268475Y302008D01*
X268168Y301853D01*
X267900Y301802D01*
G01X265700Y548602D02*
Y530002D01*
X275100D01*
Y548802D01*
X265700D01*
Y548602D01*
G01X274507Y554443D02*
X274737Y554598D01*
X275005Y554702D01*
X275312D01*
X275657Y554546D01*
X275925Y554288D01*
X276117Y553978D01*
X276270Y553462D01*
X276308Y552997D01*
X276232Y552532D01*
X276117Y552222D01*
X275887Y551912D01*
X275618Y551705D01*
X275350Y551602D01*
X275082D01*
X274813Y551705D01*
X274583Y551860D01*
X274392Y552066D01*
G01X272250Y551602D02*
Y554702D01*
X272710Y554082D01*
G01Y551602D02*
X271790D01*
G01X269150D02*
Y554702D01*
X269610Y554082D01*
G01Y551602D02*
X268690D01*
G01X266778Y554185D02*
X266548Y554495D01*
X266280Y554650D01*
X265973Y554702D01*
X265590Y554598D01*
X265322Y554340D01*
X265245Y554030D01*
X265283Y553720D01*
X265437Y553462D01*
X266203Y552945D01*
X266548Y552583D01*
X266778Y552066D01*
X266855Y551602D01*
X265245D01*
G01X768362Y85302D02*
X563362D01*
Y60302D01*
X768362D01*
Y85302D01*
G01Y290902D02*
X563362D01*
Y265902D01*
X768362D01*
Y290902D01*
G01Y496502D02*
X563362D01*
Y471502D01*
X768362D01*
Y496502D01*
G01X663858Y198485D02*
Y186122D01*
X669212D01*
Y198485D01*
X663858D01*
G01X663235Y200290D02*
X666335D01*
Y201249D01*
X666180Y201555D01*
X665973Y201747D01*
X665560Y201824D01*
X665147Y201747D01*
X664888Y201517D01*
X664733Y201249D01*
Y200290D01*
G01Y201249D02*
X663235Y201824D01*
G01Y204157D02*
X666335D01*
X665715Y203697D01*
G01X663235D02*
Y204617D01*
G01X663597Y206605D02*
X663338Y206874D01*
X663235Y207180D01*
X663338Y207487D01*
X663648Y207755D01*
X664113Y207947D01*
X664578Y208024D01*
X665147D01*
X665612Y207947D01*
X666025Y207755D01*
X666232Y207525D01*
X666335Y207257D01*
X666232Y206950D01*
X666025Y206720D01*
X665715Y206567D01*
X665302Y206490D01*
X664940Y206567D01*
X664578Y206759D01*
X664372Y206989D01*
X664320Y207257D01*
X664423Y207564D01*
X664682Y207794D01*
X665147Y208024D01*
G01X658400Y395481D02*
X661500D01*
Y396440D01*
X661345Y396746D01*
X661138Y396938D01*
X660725Y397015D01*
X660312Y396938D01*
X660053Y396708D01*
X659898Y396440D01*
Y395481D01*
G01Y396440D02*
X658400Y397015D01*
G01X660983Y398620D02*
X661293Y398850D01*
X661448Y399118D01*
X661500Y399425D01*
X661397Y399808D01*
X661138Y400077D01*
X660828Y400153D01*
X660518Y400115D01*
X660260Y399961D01*
X659743Y399195D01*
X659382Y398850D01*
X658865Y398620D01*
X658400Y398543D01*
Y400153D01*
G01Y402448D02*
X661500D01*
X660880Y401988D01*
G01X658400D02*
Y402908D01*
G01X662823Y403983D02*
Y391620D01*
X668177D01*
Y403983D01*
X662823D01*
G01X677500Y188387D02*
X680600D01*
Y189345D01*
X680445Y189652D01*
X680238Y189844D01*
X679825Y189920D01*
X679412Y189844D01*
X679153Y189614D01*
X678998Y189345D01*
Y188387D01*
G01Y189345D02*
X677500Y189920D01*
G01X680083Y191525D02*
X680393Y191755D01*
X680548Y192024D01*
X680600Y192330D01*
X680497Y192714D01*
X680238Y192982D01*
X679928Y193058D01*
X679618Y193020D01*
X679360Y192867D01*
X678843Y192100D01*
X678482Y191755D01*
X677965Y191525D01*
X677500Y191448D01*
Y193058D01*
G01X680600Y195354D02*
X680497Y195047D01*
X680238Y194817D01*
X679928Y194664D01*
X679515Y194548D01*
X679050Y194510D01*
X678585Y194548D01*
X678172Y194664D01*
X677862Y194817D01*
X677603Y195047D01*
X677500Y195354D01*
X677603Y195660D01*
X677862Y195890D01*
X678172Y196044D01*
X678585Y196158D01*
X679050Y196197D01*
X679515Y196158D01*
X679928Y196044D01*
X680238Y195890D01*
X680497Y195660D01*
X680600Y195354D01*
G01X670223Y198481D02*
Y186119D01*
X675577D01*
Y198481D01*
X670223D01*
G01X676300Y395335D02*
X679400D01*
Y396293D01*
X679245Y396600D01*
X679038Y396792D01*
X678625Y396868D01*
X678212Y396792D01*
X677953Y396562D01*
X677798Y396293D01*
Y395335D01*
G01Y396293D02*
X676300Y396868D01*
G01X678883Y398473D02*
X679193Y398703D01*
X679348Y398972D01*
X679400Y399278D01*
X679297Y399662D01*
X679038Y399930D01*
X678728Y400007D01*
X678418Y399968D01*
X678160Y399815D01*
X677643Y399048D01*
X677282Y398703D01*
X676765Y398473D01*
X676300Y398397D01*
Y400007D01*
G01X678883Y401573D02*
X679193Y401803D01*
X679348Y402072D01*
X679400Y402378D01*
X679297Y402762D01*
X679038Y403030D01*
X678728Y403107D01*
X678418Y403068D01*
X678160Y402915D01*
X677643Y402148D01*
X677282Y401803D01*
X676765Y401573D01*
X676300Y401497D01*
Y403107D01*
G01X669223Y403936D02*
Y391574D01*
X674577D01*
Y403936D01*
X669223D01*
G01X729340Y768002D02*
X714740D01*
Y760002D01*
X729340D01*
Y768002D01*
G01X727617Y770202D02*
Y773302D01*
X726658D01*
X726352Y773146D01*
X726160Y772940D01*
X726083Y772527D01*
X726160Y772113D01*
X726390Y771855D01*
X726658Y771700D01*
X727617D01*
G01X726658D02*
X726083Y770202D01*
G01X723750D02*
Y773302D01*
X724210Y772682D01*
G01Y770202D02*
X723290D01*
G01X721302Y770563D02*
X721033Y770305D01*
X720727Y770202D01*
X720420Y770305D01*
X720152Y770615D01*
X719960Y771080D01*
X719883Y771545D01*
Y772113D01*
X719960Y772578D01*
X720152Y772992D01*
X720382Y773198D01*
X720650Y773302D01*
X720957Y773198D01*
X721187Y772992D01*
X721340Y772682D01*
X721417Y772268D01*
X721340Y771907D01*
X721148Y771545D01*
X720918Y771338D01*
X720650Y771287D01*
X720343Y771390D01*
X720113Y771648D01*
X719883Y772113D01*
G01X718278Y771493D02*
X718010Y771855D01*
X717780Y772062D01*
X717473Y772165D01*
X717205Y772062D01*
X717013Y771855D01*
X716860Y771545D01*
X716822Y771183D01*
X716860Y770873D01*
X717013Y770563D01*
X717243Y770305D01*
X717512Y770202D01*
X717818Y770305D01*
X718087Y770615D01*
X718240Y771080D01*
X718278Y771597D01*
X718202Y772268D01*
X718087Y772630D01*
X717895Y772992D01*
X717627Y773250D01*
X717358Y773302D01*
X717090Y773198D01*
X716898Y772940D01*
G01X743479Y269022D02*
X743287Y268712D01*
X743057Y268505D01*
X742789Y268402D01*
X742482Y268505D01*
X742252Y268712D01*
X742022Y269022D01*
X741945Y269435D01*
Y271502D01*
G01X740455Y268298D02*
X738769Y270572D01*
G01X739612Y270985D02*
Y267885D01*
G01X738769Y268298D02*
X740455Y270572D01*
G01X740762Y269435D02*
X738462D01*
G01X743479Y474622D02*
X743287Y474311D01*
X743057Y474105D01*
X742789Y474002D01*
X742482Y474105D01*
X742252Y474311D01*
X742022Y474622D01*
X741945Y475035D01*
Y477102D01*
G01X740455Y473898D02*
X738769Y476172D01*
G01X739612Y476585D02*
Y473485D01*
G01X738769Y473898D02*
X740455Y476172D01*
G01X740762Y475035D02*
X738462D01*
G01X758617Y52622D02*
X758425Y52312D01*
X758195Y52105D01*
X757927Y52002D01*
X757620Y52105D01*
X757390Y52312D01*
X757160Y52622D01*
X757083Y53035D01*
Y55102D01*
G01X755593Y51898D02*
X753907Y54172D01*
G01X754750Y54585D02*
Y51485D01*
G01X753907Y51898D02*
X755593Y54172D01*
G01X755900Y53035D02*
X753600D01*
G01X965762Y85302D02*
X760762D01*
Y60302D01*
X965762D01*
Y85302D01*
G01Y290902D02*
X760762D01*
Y265902D01*
X965762D01*
Y290902D01*
G01Y496502D02*
X760762D01*
Y471502D01*
X965762D01*
Y496502D01*
G01X940879Y63422D02*
X940687Y63112D01*
X940457Y62905D01*
X940189Y62802D01*
X939882Y62905D01*
X939652Y63112D01*
X939422Y63422D01*
X939345Y63835D01*
Y65902D01*
G01X937855Y62698D02*
X936169Y64972D01*
G01X937012Y65385D02*
Y62285D01*
G01X936169Y62698D02*
X937855Y64972D01*
G01X938162Y63835D02*
X935862D01*
G01X940879Y269022D02*
X940687Y268712D01*
X940457Y268505D01*
X940189Y268402D01*
X939882Y268505D01*
X939652Y268712D01*
X939422Y269022D01*
X939345Y269435D01*
Y271502D01*
G01X937855Y268298D02*
X936169Y270572D01*
G01X937012Y270985D02*
Y267885D01*
G01X936169Y268298D02*
X937855Y270572D01*
G01X938162Y269435D02*
X935862D01*
G01X940879Y474622D02*
X940687Y474311D01*
X940457Y474105D01*
X940189Y474002D01*
X939882Y474105D01*
X939652Y474311D01*
X939422Y474622D01*
X939345Y475035D01*
Y477102D01*
G01X937855Y473898D02*
X936169Y476172D01*
G01X937012Y476585D02*
Y473485D01*
G01X936169Y473898D02*
X937855Y476172D01*
G01X938162Y475035D02*
X935862D01*
G01X958880Y90282D02*
X956610Y93692D01*
G01X973640Y90202D02*
X958800D01*
G01X960693Y114902D02*
Y112680D01*
X960540Y112215D01*
X960233Y111905D01*
X959850Y111802D01*
X959467Y111905D01*
X959160Y112215D01*
X959007Y112680D01*
Y114902D01*
G01X956750Y111802D02*
Y114902D01*
X957210Y114282D01*
G01Y111802D02*
X956290D01*
G01X954493Y112422D02*
X954263Y112060D01*
X953957Y111853D01*
X953612Y111802D01*
X953305Y111853D01*
X952998Y112112D01*
X952807Y112422D01*
X952768Y112732D01*
X952845Y113093D01*
X953113Y113352D01*
X953382Y113455D01*
X953727D01*
G01X953382D02*
X953152Y113610D01*
X952960Y113868D01*
X952883Y114178D01*
X952960Y114488D01*
X953152Y114746D01*
X953497Y114902D01*
X953842Y114850D01*
X954187Y114643D01*
G01X956610Y101712D02*
X958880Y105122D01*
G01D02*
X962290Y107392D01*
G01D02*
X966300Y108192D01*
G01D02*
X970310Y107392D01*
G01D02*
X973720Y105122D01*
G01X956610Y307412D02*
X958880Y310822D01*
G01D02*
X962290Y313092D01*
G01D02*
X966300Y313892D01*
G01D02*
X970310Y313092D01*
G01D02*
X973720Y310822D01*
G01X958880Y295982D02*
X956610Y299392D01*
G01X973640Y295902D02*
X958800D01*
G01X963493Y319402D02*
Y317180D01*
X963340Y316715D01*
X963033Y316405D01*
X962650Y316302D01*
X962267Y316405D01*
X961960Y316715D01*
X961807Y317180D01*
Y319402D01*
G01X959550Y316302D02*
Y319402D01*
X960010Y318782D01*
G01Y316302D02*
X959090D01*
G01X955990D02*
Y319402D01*
X957408Y317180D01*
X955492D01*
G01X956710Y516212D02*
X958980Y519622D01*
G01Y504782D02*
X956710Y508192D01*
G01X973740Y504702D02*
X958900D01*
G01X964193Y527702D02*
Y525480D01*
X964040Y525015D01*
X963733Y524705D01*
X963350Y524602D01*
X962967Y524705D01*
X962660Y525015D01*
X962507Y525480D01*
Y527702D01*
G01X960250Y524602D02*
Y527702D01*
X960710Y527082D01*
G01Y524602D02*
X959790D01*
G01X957878Y525893D02*
X957610Y526255D01*
X957380Y526462D01*
X957073Y526565D01*
X956805Y526462D01*
X956613Y526255D01*
X956460Y525945D01*
X956422Y525583D01*
X956460Y525273D01*
X956613Y524963D01*
X956843Y524705D01*
X957112Y524602D01*
X957418Y524705D01*
X957687Y525015D01*
X957840Y525480D01*
X957878Y525997D01*
X957802Y526668D01*
X957687Y527030D01*
X957495Y527392D01*
X957227Y527650D01*
X956958Y527702D01*
X956690Y527598D01*
X956498Y527340D01*
G01X958980Y519622D02*
X962390Y521892D01*
G01D02*
X966400Y522692D01*
G01D02*
X970410Y521892D01*
G01D02*
X973820Y519622D01*
G01X975990Y93692D02*
X973720Y90282D01*
G01D02*
X973640Y90202D01*
G01X973720Y105122D02*
X975990Y101712D01*
G01X973720Y310822D02*
X975990Y307412D01*
G01Y299392D02*
X973720Y295982D01*
G01D02*
X973640Y295902D01*
G01X973820Y519622D02*
X976090Y516212D01*
G01Y508192D02*
X973820Y504782D01*
G01D02*
X973740Y504702D01*
G01X1025767Y88702D02*
Y91802D01*
X1024808D01*
X1024502Y91647D01*
X1024310Y91440D01*
X1024233Y91027D01*
X1024310Y90613D01*
X1024540Y90355D01*
X1024808Y90200D01*
X1025767D01*
G01X1024808D02*
X1024233Y88702D01*
G01X1022743Y89322D02*
X1022513Y88960D01*
X1022207Y88753D01*
X1021862Y88702D01*
X1021555Y88753D01*
X1021248Y89012D01*
X1021057Y89322D01*
X1021018Y89632D01*
X1021095Y89993D01*
X1021363Y90252D01*
X1021632Y90355D01*
X1021977D01*
G01X1021632D02*
X1021402Y90510D01*
X1021210Y90768D01*
X1021133Y91078D01*
X1021210Y91388D01*
X1021402Y91647D01*
X1021747Y91802D01*
X1022092Y91750D01*
X1022437Y91543D01*
G01X1019528Y91285D02*
X1019298Y91595D01*
X1019030Y91750D01*
X1018723Y91802D01*
X1018340Y91698D01*
X1018072Y91440D01*
X1017995Y91130D01*
X1018033Y90820D01*
X1018187Y90562D01*
X1018953Y90045D01*
X1019298Y89683D01*
X1019528Y89166D01*
X1019605Y88702D01*
X1017995D01*
G01X1015672Y81024D02*
X1028035D01*
Y86379D01*
X1015672D01*
Y81024D01*
G01X1024517Y293702D02*
Y296802D01*
X1023558D01*
X1023252Y296647D01*
X1023060Y296440D01*
X1022983Y296027D01*
X1023060Y295613D01*
X1023290Y295355D01*
X1023558Y295200D01*
X1024517D01*
G01X1023558D02*
X1022983Y293702D01*
G01X1020650D02*
X1020382Y293753D01*
X1020075Y293908D01*
X1019883Y294166D01*
X1019807Y294528D01*
X1019883Y294890D01*
X1020113Y295200D01*
X1020458Y295355D01*
X1020842D01*
X1021072Y295458D01*
X1021263Y295716D01*
X1021340Y296078D01*
X1021225Y296440D01*
X1020957Y296698D01*
X1020650Y296802D01*
X1020343Y296698D01*
X1020075Y296440D01*
X1019960Y296078D01*
X1020037Y295716D01*
X1020228Y295458D01*
X1020458Y295355D01*
X1020842D01*
X1021187Y295200D01*
X1021417Y294890D01*
X1021493Y294528D01*
X1021417Y294166D01*
X1021225Y293908D01*
X1020918Y293753D01*
X1020650Y293702D01*
G01X1015672Y286624D02*
X1028035D01*
Y291979D01*
X1015672D01*
Y286624D01*
G01X1016065Y492224D02*
X1028428D01*
Y497579D01*
X1016065D01*
Y492224D01*
G01X1026067Y500002D02*
Y503102D01*
X1025108D01*
X1024802Y502946D01*
X1024610Y502740D01*
X1024533Y502327D01*
X1024610Y501913D01*
X1024840Y501655D01*
X1025108Y501500D01*
X1026067D01*
G01X1025108D02*
X1024533Y500002D01*
G01X1022200D02*
Y503102D01*
X1022660Y502482D01*
G01Y500002D02*
X1021740D01*
G01X1019100D02*
Y503102D01*
X1019560Y502482D01*
G01Y500002D02*
X1018640D01*
G01X1113569Y99802D02*
X1136569D01*
Y111802D01*
X1111569D01*
Y99802D01*
X1113569D01*
G01Y142902D02*
X1136569D01*
Y154902D01*
X1111569D01*
Y142902D01*
X1113569D01*
G01Y482202D02*
X1136569D01*
Y494202D01*
X1111569D01*
Y482202D01*
X1113569D01*
G01Y525402D02*
X1136569D01*
Y537402D01*
X1111569D01*
Y525402D01*
X1113569D01*
G01X1129286Y93102D02*
Y96202D01*
X1128328D01*
X1128021Y96046D01*
X1127829Y95840D01*
X1127753Y95427D01*
X1127829Y95013D01*
X1128059Y94755D01*
X1128328Y94600D01*
X1129286D01*
G01X1128328D02*
X1127753Y93102D01*
G01X1125419D02*
Y96202D01*
X1125879Y95582D01*
G01Y93102D02*
X1124959D01*
G01X1122971Y93463D02*
X1122703Y93205D01*
X1122396Y93102D01*
X1122089Y93205D01*
X1121821Y93515D01*
X1121629Y93980D01*
X1121553Y94445D01*
Y95013D01*
X1121629Y95478D01*
X1121821Y95892D01*
X1122051Y96098D01*
X1122319Y96202D01*
X1122626Y96098D01*
X1122856Y95892D01*
X1123009Y95582D01*
X1123086Y95168D01*
X1123009Y94807D01*
X1122818Y94445D01*
X1122588Y94238D01*
X1122319Y94187D01*
X1122013Y94290D01*
X1121783Y94548D01*
X1121553Y95013D01*
G01X1119219Y93102D02*
Y96202D01*
X1119679Y95582D01*
G01Y93102D02*
X1118759D01*
G01X1130186Y157602D02*
Y160702D01*
X1129228D01*
X1128921Y160546D01*
X1128729Y160340D01*
X1128653Y159927D01*
X1128729Y159513D01*
X1128959Y159255D01*
X1129228Y159100D01*
X1130186D01*
G01X1129228D02*
X1128653Y157602D01*
G01X1126319D02*
Y160702D01*
X1126779Y160082D01*
G01Y157602D02*
X1125859D01*
G01X1123871Y157963D02*
X1123603Y157705D01*
X1123296Y157602D01*
X1122989Y157705D01*
X1122721Y158015D01*
X1122529Y158480D01*
X1122453Y158945D01*
Y159513D01*
X1122529Y159978D01*
X1122721Y160392D01*
X1122951Y160598D01*
X1123219Y160702D01*
X1123526Y160598D01*
X1123756Y160392D01*
X1123909Y160082D01*
X1123986Y159668D01*
X1123909Y159307D01*
X1123718Y158945D01*
X1123488Y158738D01*
X1123219Y158687D01*
X1122913Y158790D01*
X1122683Y159048D01*
X1122453Y159513D01*
G01X1120119Y160702D02*
X1120426Y160598D01*
X1120656Y160340D01*
X1120809Y160030D01*
X1120924Y159616D01*
X1120963Y159152D01*
X1120924Y158687D01*
X1120809Y158273D01*
X1120656Y157963D01*
X1120426Y157705D01*
X1120119Y157602D01*
X1119813Y157705D01*
X1119583Y157963D01*
X1119429Y158273D01*
X1119314Y158687D01*
X1119276Y159152D01*
X1119314Y159616D01*
X1119429Y160030D01*
X1119583Y160340D01*
X1119813Y160598D01*
X1120119Y160702D01*
G01X1127136Y475502D02*
Y478602D01*
X1126178D01*
X1125871Y478446D01*
X1125679Y478240D01*
X1125603Y477827D01*
X1125679Y477413D01*
X1125909Y477155D01*
X1126178Y477000D01*
X1127136D01*
G01X1126178D02*
X1125603Y475502D01*
G01X1123269D02*
Y478602D01*
X1123729Y477982D01*
G01Y475502D02*
X1122809D01*
G01X1119709D02*
Y478602D01*
X1121128Y476380D01*
X1119211D01*
G01X1129036Y540702D02*
Y543802D01*
X1128078D01*
X1127771Y543646D01*
X1127579Y543440D01*
X1127503Y543027D01*
X1127579Y542613D01*
X1127809Y542355D01*
X1128078Y542200D01*
X1129036D01*
G01X1128078D02*
X1127503Y540702D01*
G01X1125169D02*
Y543802D01*
X1125629Y543182D01*
G01Y540702D02*
X1124709D01*
G01X1122913Y541166D02*
X1122683Y540908D01*
X1122414Y540753D01*
X1122069Y540702D01*
X1121724Y540805D01*
X1121456Y541012D01*
X1121264Y541373D01*
X1121226Y541787D01*
X1121303Y542200D01*
X1121494Y542458D01*
X1121763Y542665D01*
X1122031Y542716D01*
X1122299Y542665D01*
X1122644Y542458D01*
X1122529Y543802D01*
X1121494D01*
G01X1159286Y93102D02*
Y96202D01*
X1158328D01*
X1158021Y96046D01*
X1157829Y95840D01*
X1157753Y95427D01*
X1157829Y95013D01*
X1158059Y94755D01*
X1158328Y94600D01*
X1159286D01*
G01X1158328D02*
X1157753Y93102D01*
G01X1155419D02*
Y96202D01*
X1155879Y95582D01*
G01Y93102D02*
X1154959D01*
G01X1152319D02*
X1152051Y93153D01*
X1151744Y93308D01*
X1151553Y93566D01*
X1151476Y93928D01*
X1151553Y94290D01*
X1151783Y94600D01*
X1152128Y94755D01*
X1152511D01*
X1152741Y94858D01*
X1152933Y95116D01*
X1153009Y95478D01*
X1152894Y95840D01*
X1152626Y96098D01*
X1152319Y96202D01*
X1152013Y96098D01*
X1151744Y95840D01*
X1151629Y95478D01*
X1151706Y95116D01*
X1151898Y94858D01*
X1152128Y94755D01*
X1152511D01*
X1152856Y94600D01*
X1153086Y94290D01*
X1153163Y93928D01*
X1153086Y93566D01*
X1152894Y93308D01*
X1152588Y93153D01*
X1152319Y93102D01*
G01X1149871Y93463D02*
X1149603Y93205D01*
X1149296Y93102D01*
X1148989Y93205D01*
X1148721Y93515D01*
X1148529Y93980D01*
X1148453Y94445D01*
Y95013D01*
X1148529Y95478D01*
X1148721Y95892D01*
X1148951Y96098D01*
X1149219Y96202D01*
X1149526Y96098D01*
X1149756Y95892D01*
X1149909Y95582D01*
X1149986Y95168D01*
X1149909Y94807D01*
X1149718Y94445D01*
X1149488Y94238D01*
X1149219Y94187D01*
X1148913Y94290D01*
X1148683Y94548D01*
X1148453Y95013D01*
G01X1143569Y99802D02*
X1166569D01*
Y111802D01*
X1141569D01*
Y99802D01*
X1143569D01*
G01Y142902D02*
X1166569D01*
Y154902D01*
X1141569D01*
Y142902D01*
X1143569D01*
G01X1160186Y157602D02*
Y160702D01*
X1159228D01*
X1158921Y160546D01*
X1158729Y160340D01*
X1158653Y159927D01*
X1158729Y159513D01*
X1158959Y159255D01*
X1159228Y159100D01*
X1160186D01*
G01X1159228D02*
X1158653Y157602D01*
G01X1156319D02*
Y160702D01*
X1156779Y160082D01*
G01Y157602D02*
X1155859D01*
G01X1153219D02*
X1152951Y157653D01*
X1152644Y157808D01*
X1152453Y158066D01*
X1152376Y158428D01*
X1152453Y158790D01*
X1152683Y159100D01*
X1153028Y159255D01*
X1153411D01*
X1153641Y159358D01*
X1153833Y159616D01*
X1153909Y159978D01*
X1153794Y160340D01*
X1153526Y160598D01*
X1153219Y160702D01*
X1152913Y160598D01*
X1152644Y160340D01*
X1152529Y159978D01*
X1152606Y159616D01*
X1152798Y159358D01*
X1153028Y159255D01*
X1153411D01*
X1153756Y159100D01*
X1153986Y158790D01*
X1154063Y158428D01*
X1153986Y158066D01*
X1153794Y157808D01*
X1153488Y157653D01*
X1153219Y157602D01*
G01X1150119D02*
X1149851Y157653D01*
X1149544Y157808D01*
X1149353Y158066D01*
X1149276Y158428D01*
X1149353Y158790D01*
X1149583Y159100D01*
X1149928Y159255D01*
X1150311D01*
X1150541Y159358D01*
X1150733Y159616D01*
X1150809Y159978D01*
X1150694Y160340D01*
X1150426Y160598D01*
X1150119Y160702D01*
X1149813Y160598D01*
X1149544Y160340D01*
X1149429Y159978D01*
X1149506Y159616D01*
X1149698Y159358D01*
X1149928Y159255D01*
X1150311D01*
X1150656Y159100D01*
X1150886Y158790D01*
X1150963Y158428D01*
X1150886Y158066D01*
X1150694Y157808D01*
X1150388Y157653D01*
X1150119Y157602D01*
G01X1157136Y475502D02*
Y478602D01*
X1156178D01*
X1155871Y478446D01*
X1155679Y478240D01*
X1155603Y477827D01*
X1155679Y477413D01*
X1155909Y477155D01*
X1156178Y477000D01*
X1157136D01*
G01X1156178D02*
X1155603Y475502D01*
G01X1153269D02*
Y478602D01*
X1153729Y477982D01*
G01Y475502D02*
X1152809D01*
G01X1150898Y478085D02*
X1150668Y478395D01*
X1150399Y478550D01*
X1150093Y478602D01*
X1149709Y478498D01*
X1149441Y478240D01*
X1149364Y477930D01*
X1149403Y477620D01*
X1149556Y477362D01*
X1150323Y476845D01*
X1150668Y476483D01*
X1150898Y475966D01*
X1150974Y475502D01*
X1149364D01*
G01X1143569Y482202D02*
X1166569D01*
Y494202D01*
X1141569D01*
Y482202D01*
X1143569D01*
G01Y525402D02*
X1166569D01*
Y537402D01*
X1141569D01*
Y525402D01*
X1143569D01*
G01X1159036Y540702D02*
Y543802D01*
X1158078D01*
X1157771Y543646D01*
X1157579Y543440D01*
X1157503Y543027D01*
X1157579Y542613D01*
X1157809Y542355D01*
X1158078Y542200D01*
X1159036D01*
G01X1158078D02*
X1157503Y540702D01*
G01X1155169D02*
Y543802D01*
X1155629Y543182D01*
G01Y540702D02*
X1154709D01*
G01X1152913Y541322D02*
X1152683Y540960D01*
X1152376Y540753D01*
X1152031Y540702D01*
X1151724Y540753D01*
X1151418Y541012D01*
X1151226Y541322D01*
X1151188Y541632D01*
X1151264Y541993D01*
X1151533Y542252D01*
X1151801Y542355D01*
X1152146D01*
G01X1151801D02*
X1151571Y542510D01*
X1151379Y542768D01*
X1151303Y543078D01*
X1151379Y543388D01*
X1151571Y543646D01*
X1151916Y543802D01*
X1152261Y543750D01*
X1152606Y543543D01*
G01X1173569Y99802D02*
X1196569D01*
Y111802D01*
X1171569D01*
Y99802D01*
X1173569D01*
G01Y142902D02*
X1196569D01*
Y154902D01*
X1171569D01*
Y142902D01*
X1173569D01*
G01Y482202D02*
X1196569D01*
Y494202D01*
X1171569D01*
Y482202D01*
X1173569D01*
G01Y525402D02*
X1196569D01*
Y537402D01*
X1171569D01*
Y525402D01*
X1173569D01*
G01X1189286Y93102D02*
Y96202D01*
X1188328D01*
X1188021Y96046D01*
X1187829Y95840D01*
X1187753Y95427D01*
X1187829Y95013D01*
X1188059Y94755D01*
X1188328Y94600D01*
X1189286D01*
G01X1188328D02*
X1187753Y93102D01*
G01X1185419D02*
Y96202D01*
X1185879Y95582D01*
G01Y93102D02*
X1184959D01*
G01X1182319D02*
X1182051Y93153D01*
X1181744Y93308D01*
X1181553Y93566D01*
X1181476Y93928D01*
X1181553Y94290D01*
X1181783Y94600D01*
X1182128Y94755D01*
X1182511D01*
X1182741Y94858D01*
X1182933Y95116D01*
X1183009Y95478D01*
X1182894Y95840D01*
X1182626Y96098D01*
X1182319Y96202D01*
X1182013Y96098D01*
X1181744Y95840D01*
X1181629Y95478D01*
X1181706Y95116D01*
X1181898Y94858D01*
X1182128Y94755D01*
X1182511D01*
X1182856Y94600D01*
X1183086Y94290D01*
X1183163Y93928D01*
X1183086Y93566D01*
X1182894Y93308D01*
X1182588Y93153D01*
X1182319Y93102D01*
G01X1179296D02*
X1179219Y93773D01*
X1179104Y94342D01*
X1178951Y94858D01*
X1178759Y95427D01*
X1178453Y96202D01*
X1179986D01*
G01X1190186Y157602D02*
Y160702D01*
X1189228D01*
X1188921Y160546D01*
X1188729Y160340D01*
X1188653Y159927D01*
X1188729Y159513D01*
X1188959Y159255D01*
X1189228Y159100D01*
X1190186D01*
G01X1189228D02*
X1188653Y157602D01*
G01X1186319D02*
Y160702D01*
X1186779Y160082D01*
G01Y157602D02*
X1185859D01*
G01X1183219D02*
X1182951Y157653D01*
X1182644Y157808D01*
X1182453Y158066D01*
X1182376Y158428D01*
X1182453Y158790D01*
X1182683Y159100D01*
X1183028Y159255D01*
X1183411D01*
X1183641Y159358D01*
X1183833Y159616D01*
X1183909Y159978D01*
X1183794Y160340D01*
X1183526Y160598D01*
X1183219Y160702D01*
X1182913Y160598D01*
X1182644Y160340D01*
X1182529Y159978D01*
X1182606Y159616D01*
X1182798Y159358D01*
X1183028Y159255D01*
X1183411D01*
X1183756Y159100D01*
X1183986Y158790D01*
X1184063Y158428D01*
X1183986Y158066D01*
X1183794Y157808D01*
X1183488Y157653D01*
X1183219Y157602D01*
G01X1180848Y158893D02*
X1180579Y159255D01*
X1180349Y159462D01*
X1180043Y159565D01*
X1179774Y159462D01*
X1179583Y159255D01*
X1179429Y158945D01*
X1179391Y158583D01*
X1179429Y158273D01*
X1179583Y157963D01*
X1179813Y157705D01*
X1180081Y157602D01*
X1180388Y157705D01*
X1180656Y158015D01*
X1180809Y158480D01*
X1180848Y158997D01*
X1180771Y159668D01*
X1180656Y160030D01*
X1180464Y160392D01*
X1180196Y160650D01*
X1179928Y160702D01*
X1179659Y160598D01*
X1179468Y160340D01*
G01X1185586Y475502D02*
Y478602D01*
X1184628D01*
X1184321Y478446D01*
X1184129Y478240D01*
X1184053Y477827D01*
X1184129Y477413D01*
X1184359Y477155D01*
X1184628Y477000D01*
X1185586D01*
G01X1184628D02*
X1184053Y475502D01*
G01X1182371Y475863D02*
X1182103Y475605D01*
X1181796Y475502D01*
X1181489Y475605D01*
X1181221Y475915D01*
X1181029Y476380D01*
X1180953Y476845D01*
Y477413D01*
X1181029Y477878D01*
X1181221Y478292D01*
X1181451Y478498D01*
X1181719Y478602D01*
X1182026Y478498D01*
X1182256Y478292D01*
X1182409Y477982D01*
X1182486Y477568D01*
X1182409Y477207D01*
X1182218Y476845D01*
X1181988Y476638D01*
X1181719Y476587D01*
X1181413Y476690D01*
X1181183Y476948D01*
X1180953Y477413D01*
G01X1189036Y540702D02*
Y543802D01*
X1188078D01*
X1187771Y543646D01*
X1187579Y543440D01*
X1187503Y543027D01*
X1187579Y542613D01*
X1187809Y542355D01*
X1188078Y542200D01*
X1189036D01*
G01X1188078D02*
X1187503Y540702D01*
G01X1185169D02*
Y543802D01*
X1185629Y543182D01*
G01Y540702D02*
X1184709D01*
G01X1182069Y543802D02*
X1182376Y543698D01*
X1182606Y543440D01*
X1182759Y543130D01*
X1182874Y542716D01*
X1182913Y542252D01*
X1182874Y541787D01*
X1182759Y541373D01*
X1182606Y541063D01*
X1182376Y540805D01*
X1182069Y540702D01*
X1181763Y540805D01*
X1181533Y541063D01*
X1181379Y541373D01*
X1181264Y541787D01*
X1181226Y542252D01*
X1181264Y542716D01*
X1181379Y543130D01*
X1181533Y543440D01*
X1181763Y543698D01*
X1182069Y543802D01*
G01X1216317Y612222D02*
X1216125Y611912D01*
X1215895Y611705D01*
X1215627Y611602D01*
X1215320Y611705D01*
X1215090Y611912D01*
X1214860Y612222D01*
X1214783Y612635D01*
Y614702D01*
G01X1213178Y614185D02*
X1212948Y614495D01*
X1212680Y614650D01*
X1212373Y614702D01*
X1211990Y614598D01*
X1211722Y614340D01*
X1211645Y614030D01*
X1211683Y613720D01*
X1211837Y613462D01*
X1212603Y612945D01*
X1212948Y612583D01*
X1213178Y612066D01*
X1213255Y611602D01*
X1211645D01*
G01X1210078Y612893D02*
X1209810Y613255D01*
X1209580Y613462D01*
X1209273Y613565D01*
X1209005Y613462D01*
X1208813Y613255D01*
X1208660Y612945D01*
X1208622Y612583D01*
X1208660Y612273D01*
X1208813Y611963D01*
X1209043Y611705D01*
X1209312Y611602D01*
X1209618Y611705D01*
X1209887Y612015D01*
X1210040Y612480D01*
X1210078Y612997D01*
X1210002Y613668D01*
X1209887Y614030D01*
X1209695Y614392D01*
X1209427Y614650D01*
X1209158Y614702D01*
X1208890Y614598D01*
X1208698Y614340D01*
G01X1215600Y636702D02*
X1208300D01*
Y619302D01*
X1215600D01*
Y636702D01*
G01X1208400Y644702D02*
X1215700D01*
Y662102D01*
X1208400D01*
Y644702D01*
G01X1216417Y666522D02*
X1216225Y666212D01*
X1215995Y666005D01*
X1215727Y665902D01*
X1215420Y666005D01*
X1215190Y666212D01*
X1214960Y666522D01*
X1214883Y666935D01*
Y669002D01*
G01X1213278Y668485D02*
X1213048Y668795D01*
X1212780Y668950D01*
X1212473Y669002D01*
X1212090Y668898D01*
X1211822Y668640D01*
X1211745Y668330D01*
X1211783Y668020D01*
X1211937Y667762D01*
X1212703Y667245D01*
X1213048Y666883D01*
X1213278Y666366D01*
X1213355Y665902D01*
X1211745D01*
G01X1209450D02*
X1209182Y665953D01*
X1208875Y666108D01*
X1208683Y666366D01*
X1208607Y666728D01*
X1208683Y667090D01*
X1208913Y667400D01*
X1209258Y667555D01*
X1209642D01*
X1209872Y667658D01*
X1210063Y667916D01*
X1210140Y668278D01*
X1210025Y668640D01*
X1209757Y668898D01*
X1209450Y669002D01*
X1209143Y668898D01*
X1208875Y668640D01*
X1208760Y668278D01*
X1208837Y667916D01*
X1209028Y667658D01*
X1209258Y667555D01*
X1209642D01*
X1209987Y667400D01*
X1210217Y667090D01*
X1210293Y666728D01*
X1210217Y666366D01*
X1210025Y666108D01*
X1209718Y665953D01*
X1209450Y665902D01*
G01X1297569Y111002D02*
X1274569D01*
Y99002D01*
X1299569D01*
Y111002D01*
X1297569D01*
G01X1297269Y162702D02*
X1274269D01*
Y150702D01*
X1299269D01*
Y162702D01*
X1297269D01*
G01X1297569Y493402D02*
X1274569D01*
Y481402D01*
X1299569D01*
Y493402D01*
X1297569D01*
G01X1297269Y545202D02*
X1274269D01*
Y533202D01*
X1299269D01*
Y545202D01*
X1297269D01*
G01X1294986Y92802D02*
Y95902D01*
X1294028D01*
X1293721Y95746D01*
X1293529Y95540D01*
X1293453Y95127D01*
X1293529Y94713D01*
X1293759Y94455D01*
X1294028Y94300D01*
X1294986D01*
G01X1294028D02*
X1293453Y92802D01*
G01X1291119D02*
Y95902D01*
X1291579Y95282D01*
G01Y92802D02*
X1290659D01*
G01X1288019D02*
X1287751Y92853D01*
X1287444Y93008D01*
X1287253Y93266D01*
X1287176Y93628D01*
X1287253Y93990D01*
X1287483Y94300D01*
X1287828Y94455D01*
X1288211D01*
X1288441Y94558D01*
X1288633Y94816D01*
X1288709Y95178D01*
X1288594Y95540D01*
X1288326Y95798D01*
X1288019Y95902D01*
X1287713Y95798D01*
X1287444Y95540D01*
X1287329Y95178D01*
X1287406Y94816D01*
X1287598Y94558D01*
X1287828Y94455D01*
X1288211D01*
X1288556Y94300D01*
X1288786Y93990D01*
X1288863Y93628D01*
X1288786Y93266D01*
X1288594Y93008D01*
X1288288Y92853D01*
X1288019Y92802D01*
G01X1284919D02*
Y95902D01*
X1285379Y95282D01*
G01Y92802D02*
X1284459D01*
G01X1296386Y165902D02*
Y169002D01*
X1295428D01*
X1295121Y168846D01*
X1294929Y168640D01*
X1294853Y168227D01*
X1294929Y167813D01*
X1295159Y167555D01*
X1295428Y167400D01*
X1296386D01*
G01X1295428D02*
X1294853Y165902D01*
G01X1292519D02*
Y169002D01*
X1292979Y168382D01*
G01Y165902D02*
X1292059D01*
G01X1289419D02*
X1289151Y165953D01*
X1288844Y166108D01*
X1288653Y166366D01*
X1288576Y166728D01*
X1288653Y167090D01*
X1288883Y167400D01*
X1289228Y167555D01*
X1289611D01*
X1289841Y167658D01*
X1290033Y167916D01*
X1290109Y168278D01*
X1289994Y168640D01*
X1289726Y168898D01*
X1289419Y169002D01*
X1289113Y168898D01*
X1288844Y168640D01*
X1288729Y168278D01*
X1288806Y167916D01*
X1288998Y167658D01*
X1289228Y167555D01*
X1289611D01*
X1289956Y167400D01*
X1290186Y167090D01*
X1290263Y166728D01*
X1290186Y166366D01*
X1289994Y166108D01*
X1289688Y165953D01*
X1289419Y165902D01*
G01X1286319Y169002D02*
X1286626Y168898D01*
X1286856Y168640D01*
X1287009Y168330D01*
X1287124Y167916D01*
X1287163Y167452D01*
X1287124Y166987D01*
X1287009Y166573D01*
X1286856Y166263D01*
X1286626Y166005D01*
X1286319Y165902D01*
X1286013Y166005D01*
X1285783Y166263D01*
X1285629Y166573D01*
X1285514Y166987D01*
X1285476Y167452D01*
X1285514Y167916D01*
X1285629Y168330D01*
X1285783Y168640D01*
X1286013Y168898D01*
X1286319Y169002D01*
G01X1291386Y475202D02*
Y478302D01*
X1290428D01*
X1290121Y478146D01*
X1289929Y477940D01*
X1289853Y477527D01*
X1289929Y477113D01*
X1290159Y476855D01*
X1290428Y476700D01*
X1291386D01*
G01X1290428D02*
X1289853Y475202D01*
G01X1288248Y477785D02*
X1288018Y478095D01*
X1287749Y478250D01*
X1287443Y478302D01*
X1287059Y478198D01*
X1286791Y477940D01*
X1286714Y477630D01*
X1286753Y477320D01*
X1286906Y477062D01*
X1287673Y476545D01*
X1288018Y476183D01*
X1288248Y475666D01*
X1288324Y475202D01*
X1286714D01*
G01X1289817Y547702D02*
Y550802D01*
X1288858D01*
X1288552Y550646D01*
X1288360Y550440D01*
X1288283Y550027D01*
X1288360Y549613D01*
X1288590Y549355D01*
X1288858Y549200D01*
X1289817D01*
G01X1288858D02*
X1288283Y547702D01*
G01X1285950D02*
Y550802D01*
X1286410Y550182D01*
G01Y547702D02*
X1285490D01*
G01X1324986Y92802D02*
Y95902D01*
X1324028D01*
X1323721Y95746D01*
X1323529Y95540D01*
X1323453Y95127D01*
X1323529Y94713D01*
X1323759Y94455D01*
X1324028Y94300D01*
X1324986D01*
G01X1324028D02*
X1323453Y92802D01*
G01X1321119D02*
Y95902D01*
X1321579Y95282D01*
G01Y92802D02*
X1320659D01*
G01X1318019D02*
X1317751Y92853D01*
X1317444Y93008D01*
X1317253Y93266D01*
X1317176Y93628D01*
X1317253Y93990D01*
X1317483Y94300D01*
X1317828Y94455D01*
X1318211D01*
X1318441Y94558D01*
X1318633Y94816D01*
X1318709Y95178D01*
X1318594Y95540D01*
X1318326Y95798D01*
X1318019Y95902D01*
X1317713Y95798D01*
X1317444Y95540D01*
X1317329Y95178D01*
X1317406Y94816D01*
X1317598Y94558D01*
X1317828Y94455D01*
X1318211D01*
X1318556Y94300D01*
X1318786Y93990D01*
X1318863Y93628D01*
X1318786Y93266D01*
X1318594Y93008D01*
X1318288Y92853D01*
X1318019Y92802D01*
G01X1315763Y93422D02*
X1315533Y93060D01*
X1315226Y92853D01*
X1314881Y92802D01*
X1314574Y92853D01*
X1314268Y93112D01*
X1314076Y93422D01*
X1314038Y93732D01*
X1314114Y94093D01*
X1314383Y94352D01*
X1314651Y94455D01*
X1314996D01*
G01X1314651D02*
X1314421Y94610D01*
X1314229Y94868D01*
X1314153Y95178D01*
X1314229Y95488D01*
X1314421Y95746D01*
X1314766Y95902D01*
X1315111Y95850D01*
X1315456Y95643D01*
G01X1327569Y111002D02*
X1304569D01*
Y99002D01*
X1329569D01*
Y111002D01*
X1327569D01*
G01X1327269Y162702D02*
X1304269D01*
Y150702D01*
X1329269D01*
Y162702D01*
X1327269D01*
G01X1326386Y165902D02*
Y169002D01*
X1325428D01*
X1325121Y168846D01*
X1324929Y168640D01*
X1324853Y168227D01*
X1324929Y167813D01*
X1325159Y167555D01*
X1325428Y167400D01*
X1326386D01*
G01X1325428D02*
X1324853Y165902D01*
G01X1322519D02*
Y169002D01*
X1322979Y168382D01*
G01Y165902D02*
X1322059D01*
G01X1319419D02*
X1319151Y165953D01*
X1318844Y166108D01*
X1318653Y166366D01*
X1318576Y166728D01*
X1318653Y167090D01*
X1318883Y167400D01*
X1319228Y167555D01*
X1319611D01*
X1319841Y167658D01*
X1320033Y167916D01*
X1320109Y168278D01*
X1319994Y168640D01*
X1319726Y168898D01*
X1319419Y169002D01*
X1319113Y168898D01*
X1318844Y168640D01*
X1318729Y168278D01*
X1318806Y167916D01*
X1318998Y167658D01*
X1319228Y167555D01*
X1319611D01*
X1319956Y167400D01*
X1320186Y167090D01*
X1320263Y166728D01*
X1320186Y166366D01*
X1319994Y166108D01*
X1319688Y165953D01*
X1319419Y165902D01*
G01X1317048Y168485D02*
X1316818Y168795D01*
X1316549Y168950D01*
X1316243Y169002D01*
X1315859Y168898D01*
X1315591Y168640D01*
X1315514Y168330D01*
X1315553Y168020D01*
X1315706Y167762D01*
X1316473Y167245D01*
X1316818Y166883D01*
X1317048Y166366D01*
X1317124Y165902D01*
X1315514D01*
G01X1321386Y475202D02*
Y478302D01*
X1320428D01*
X1320121Y478146D01*
X1319929Y477940D01*
X1319853Y477527D01*
X1319929Y477113D01*
X1320159Y476855D01*
X1320428Y476700D01*
X1321386D01*
G01X1320428D02*
X1319853Y475202D01*
G01X1317059D02*
Y478302D01*
X1318478Y476080D01*
X1316561D01*
G01X1327569Y493402D02*
X1304569D01*
Y481402D01*
X1329569D01*
Y493402D01*
X1327569D01*
G01X1327269Y545202D02*
X1304269D01*
Y533202D01*
X1329269D01*
Y545202D01*
X1327269D01*
G01X1319517Y547402D02*
Y550502D01*
X1318558D01*
X1318252Y550346D01*
X1318060Y550140D01*
X1317983Y549727D01*
X1318060Y549313D01*
X1318290Y549055D01*
X1318558Y548900D01*
X1319517D01*
G01X1318558D02*
X1317983Y547402D01*
G01X1316493Y548022D02*
X1316263Y547660D01*
X1315957Y547453D01*
X1315612Y547402D01*
X1315305Y547453D01*
X1314998Y547712D01*
X1314807Y548022D01*
X1314768Y548332D01*
X1314845Y548693D01*
X1315113Y548952D01*
X1315382Y549055D01*
X1315727D01*
G01X1315382D02*
X1315152Y549210D01*
X1314960Y549468D01*
X1314883Y549778D01*
X1314960Y550088D01*
X1315152Y550346D01*
X1315497Y550502D01*
X1315842Y550450D01*
X1316187Y550243D01*
G01X1357569Y111002D02*
X1334569D01*
Y99002D01*
X1359569D01*
Y111002D01*
X1357569D01*
G01X1357269Y162702D02*
X1334269D01*
Y150702D01*
X1359269D01*
Y162702D01*
X1357269D01*
G01X1336600Y302785D02*
Y288185D01*
X1344600D01*
Y302785D01*
X1336600D01*
G01Y318785D02*
Y304185D01*
X1344600D01*
Y318785D01*
X1336600D01*
G01Y334785D02*
Y320185D01*
X1344600D01*
Y334785D01*
X1336600D01*
G01Y350785D02*
Y336185D01*
X1344600D01*
Y350785D01*
X1336600D01*
G01X1357569Y493402D02*
X1334569D01*
Y481402D01*
X1359569D01*
Y493402D01*
X1357569D01*
G01X1357269Y545202D02*
X1334269D01*
Y533202D01*
X1359269D01*
Y545202D01*
X1357269D01*
G01X1354986Y92802D02*
Y95902D01*
X1354028D01*
X1353721Y95746D01*
X1353529Y95540D01*
X1353453Y95127D01*
X1353529Y94713D01*
X1353759Y94455D01*
X1354028Y94300D01*
X1354986D01*
G01X1354028D02*
X1353453Y92802D01*
G01X1351119D02*
Y95902D01*
X1351579Y95282D01*
G01Y92802D02*
X1350659D01*
G01X1348019D02*
X1347751Y92853D01*
X1347444Y93008D01*
X1347253Y93266D01*
X1347176Y93628D01*
X1347253Y93990D01*
X1347483Y94300D01*
X1347828Y94455D01*
X1348211D01*
X1348441Y94558D01*
X1348633Y94816D01*
X1348709Y95178D01*
X1348594Y95540D01*
X1348326Y95798D01*
X1348019Y95902D01*
X1347713Y95798D01*
X1347444Y95540D01*
X1347329Y95178D01*
X1347406Y94816D01*
X1347598Y94558D01*
X1347828Y94455D01*
X1348211D01*
X1348556Y94300D01*
X1348786Y93990D01*
X1348863Y93628D01*
X1348786Y93266D01*
X1348594Y93008D01*
X1348288Y92853D01*
X1348019Y92802D01*
G01X1345763Y93266D02*
X1345533Y93008D01*
X1345264Y92853D01*
X1344919Y92802D01*
X1344574Y92905D01*
X1344306Y93112D01*
X1344114Y93473D01*
X1344076Y93887D01*
X1344153Y94300D01*
X1344344Y94558D01*
X1344613Y94765D01*
X1344881Y94816D01*
X1345149Y94765D01*
X1345494Y94558D01*
X1345379Y95902D01*
X1344344D01*
G01X1356386Y165902D02*
Y169002D01*
X1355428D01*
X1355121Y168846D01*
X1354929Y168640D01*
X1354853Y168227D01*
X1354929Y167813D01*
X1355159Y167555D01*
X1355428Y167400D01*
X1356386D01*
G01X1355428D02*
X1354853Y165902D01*
G01X1352519D02*
Y169002D01*
X1352979Y168382D01*
G01Y165902D02*
X1352059D01*
G01X1349419D02*
X1349151Y165953D01*
X1348844Y166108D01*
X1348653Y166366D01*
X1348576Y166728D01*
X1348653Y167090D01*
X1348883Y167400D01*
X1349228Y167555D01*
X1349611D01*
X1349841Y167658D01*
X1350033Y167916D01*
X1350109Y168278D01*
X1349994Y168640D01*
X1349726Y168898D01*
X1349419Y169002D01*
X1349113Y168898D01*
X1348844Y168640D01*
X1348729Y168278D01*
X1348806Y167916D01*
X1348998Y167658D01*
X1349228Y167555D01*
X1349611D01*
X1349956Y167400D01*
X1350186Y167090D01*
X1350263Y166728D01*
X1350186Y166366D01*
X1349994Y166108D01*
X1349688Y165953D01*
X1349419Y165902D01*
G01X1345859D02*
Y169002D01*
X1347278Y166780D01*
X1345361D01*
G01X1347300Y289968D02*
X1350400D01*
Y290927D01*
X1350245Y291234D01*
X1350038Y291425D01*
X1349625Y291502D01*
X1349212Y291425D01*
X1348953Y291195D01*
X1348798Y290927D01*
Y289968D01*
G01Y290927D02*
X1347300Y291502D01*
G01Y293835D02*
X1350400D01*
X1349780Y293375D01*
G01X1347300D02*
Y294295D01*
G01X1347920Y296092D02*
X1347558Y296322D01*
X1347352Y296628D01*
X1347300Y296974D01*
X1347352Y297280D01*
X1347610Y297587D01*
X1347920Y297778D01*
X1348230Y297817D01*
X1348592Y297740D01*
X1348850Y297472D01*
X1348953Y297204D01*
Y296858D01*
G01Y297204D02*
X1349108Y297434D01*
X1349367Y297625D01*
X1349677Y297702D01*
X1349987Y297625D01*
X1350245Y297434D01*
X1350400Y297089D01*
X1350348Y296744D01*
X1350142Y296398D01*
G01X1349883Y299307D02*
X1350193Y299537D01*
X1350348Y299805D01*
X1350400Y300112D01*
X1350297Y300495D01*
X1350038Y300764D01*
X1349728Y300840D01*
X1349418Y300802D01*
X1349160Y300648D01*
X1348643Y299882D01*
X1348282Y299537D01*
X1347765Y299307D01*
X1347300Y299230D01*
Y300840D01*
G01Y305968D02*
X1350400D01*
Y306927D01*
X1350245Y307234D01*
X1350038Y307425D01*
X1349625Y307502D01*
X1349212Y307425D01*
X1348953Y307195D01*
X1348798Y306927D01*
Y305968D01*
G01Y306927D02*
X1347300Y307502D01*
G01Y309835D02*
X1350400D01*
X1349780Y309375D01*
G01X1347300D02*
Y310295D01*
G01X1347920Y312092D02*
X1347558Y312322D01*
X1347352Y312628D01*
X1347300Y312974D01*
X1347352Y313280D01*
X1347610Y313587D01*
X1347920Y313778D01*
X1348230Y313817D01*
X1348592Y313740D01*
X1348850Y313472D01*
X1348953Y313204D01*
Y312858D01*
G01Y313204D02*
X1349108Y313434D01*
X1349367Y313625D01*
X1349677Y313702D01*
X1349987Y313625D01*
X1350245Y313434D01*
X1350400Y313088D01*
X1350348Y312744D01*
X1350142Y312398D01*
G01X1347920Y315192D02*
X1347558Y315422D01*
X1347352Y315728D01*
X1347300Y316074D01*
X1347352Y316380D01*
X1347610Y316687D01*
X1347920Y316878D01*
X1348230Y316917D01*
X1348592Y316840D01*
X1348850Y316572D01*
X1348953Y316304D01*
Y315959D01*
G01Y316304D02*
X1349108Y316534D01*
X1349367Y316725D01*
X1349677Y316802D01*
X1349987Y316725D01*
X1350245Y316534D01*
X1350400Y316188D01*
X1350348Y315844D01*
X1350142Y315499D01*
G01X1347300Y321968D02*
X1350400D01*
Y322927D01*
X1350245Y323234D01*
X1350038Y323425D01*
X1349625Y323502D01*
X1349212Y323425D01*
X1348953Y323195D01*
X1348798Y322927D01*
Y321968D01*
G01Y322927D02*
X1347300Y323502D01*
G01Y325835D02*
X1350400D01*
X1349780Y325375D01*
G01X1347300D02*
Y326295D01*
G01X1347920Y328092D02*
X1347558Y328322D01*
X1347352Y328628D01*
X1347300Y328974D01*
X1347352Y329280D01*
X1347610Y329587D01*
X1347920Y329778D01*
X1348230Y329817D01*
X1348592Y329740D01*
X1348850Y329472D01*
X1348953Y329204D01*
Y328859D01*
G01Y329204D02*
X1349108Y329434D01*
X1349367Y329625D01*
X1349677Y329702D01*
X1349987Y329625D01*
X1350245Y329434D01*
X1350400Y329088D01*
X1350348Y328744D01*
X1350142Y328399D01*
G01X1347300Y332495D02*
X1350400D01*
X1348178Y331077D01*
Y332994D01*
G01X1347300Y337968D02*
X1350400D01*
Y338927D01*
X1350245Y339234D01*
X1350038Y339425D01*
X1349625Y339502D01*
X1349212Y339425D01*
X1348953Y339195D01*
X1348798Y338927D01*
Y337968D01*
G01Y338927D02*
X1347300Y339502D01*
G01Y341835D02*
X1350400D01*
X1349780Y341375D01*
G01X1347300D02*
Y342295D01*
G01X1347920Y344092D02*
X1347558Y344322D01*
X1347352Y344628D01*
X1347300Y344974D01*
X1347352Y345280D01*
X1347610Y345587D01*
X1347920Y345778D01*
X1348230Y345817D01*
X1348592Y345740D01*
X1348850Y345472D01*
X1348953Y345204D01*
Y344858D01*
G01Y345204D02*
X1349108Y345434D01*
X1349367Y345625D01*
X1349677Y345702D01*
X1349987Y345625D01*
X1350245Y345434D01*
X1350400Y345089D01*
X1350348Y344744D01*
X1350142Y344398D01*
G01X1347765Y347192D02*
X1347507Y347422D01*
X1347352Y347690D01*
X1347300Y348035D01*
X1347403Y348380D01*
X1347610Y348648D01*
X1347972Y348840D01*
X1348385Y348878D01*
X1348798Y348802D01*
X1349057Y348610D01*
X1349263Y348342D01*
X1349315Y348074D01*
X1349263Y347805D01*
X1349057Y347460D01*
X1350400Y347575D01*
Y348610D01*
G01X1351386Y475202D02*
Y478302D01*
X1350428D01*
X1350121Y478146D01*
X1349929Y477940D01*
X1349853Y477527D01*
X1349929Y477113D01*
X1350159Y476855D01*
X1350428Y476700D01*
X1351386D01*
G01X1350428D02*
X1349853Y475202D01*
G01X1347596D02*
X1347519Y475873D01*
X1347404Y476441D01*
X1347251Y476958D01*
X1347059Y477527D01*
X1346753Y478302D01*
X1348286D01*
G01X1351017Y547902D02*
Y551002D01*
X1350058D01*
X1349752Y550846D01*
X1349560Y550640D01*
X1349483Y550227D01*
X1349560Y549813D01*
X1349790Y549555D01*
X1350058Y549400D01*
X1351017D01*
G01X1350058D02*
X1349483Y547902D01*
G01X1347878Y549193D02*
X1347610Y549555D01*
X1347380Y549762D01*
X1347073Y549865D01*
X1346805Y549762D01*
X1346613Y549555D01*
X1346460Y549245D01*
X1346422Y548883D01*
X1346460Y548573D01*
X1346613Y548263D01*
X1346843Y548005D01*
X1347112Y547902D01*
X1347418Y548005D01*
X1347687Y548315D01*
X1347840Y548780D01*
X1347878Y549297D01*
X1347802Y549968D01*
X1347687Y550330D01*
X1347495Y550692D01*
X1347227Y550950D01*
X1346958Y551002D01*
X1346690Y550898D01*
X1346498Y550640D01*
G01X1371755Y290268D02*
X1374855D01*
Y291227D01*
X1374700Y291534D01*
X1374493Y291725D01*
X1374080Y291802D01*
X1373667Y291725D01*
X1373408Y291495D01*
X1373253Y291227D01*
Y290268D01*
G01Y291227D02*
X1371755Y291802D01*
G01Y294135D02*
X1374855D01*
X1374235Y293675D01*
G01X1371755D02*
Y294595D01*
G01X1372375Y296392D02*
X1372013Y296622D01*
X1371807Y296928D01*
X1371755Y297274D01*
X1371807Y297580D01*
X1372065Y297887D01*
X1372375Y298078D01*
X1372685Y298117D01*
X1373047Y298040D01*
X1373305Y297772D01*
X1373408Y297504D01*
Y297158D01*
G01Y297504D02*
X1373563Y297734D01*
X1373822Y297925D01*
X1374132Y298002D01*
X1374442Y297925D01*
X1374700Y297734D01*
X1374855Y297388D01*
X1374803Y297044D01*
X1374597Y296698D01*
G01X1371755Y300258D02*
X1372427Y300335D01*
X1372995Y300450D01*
X1373512Y300604D01*
X1374080Y300795D01*
X1374855Y301102D01*
Y299568D01*
G01X1361655Y302785D02*
Y288185D01*
X1369655D01*
Y302785D01*
X1361655D01*
G01X1371755Y306268D02*
X1374855D01*
Y307227D01*
X1374700Y307534D01*
X1374493Y307725D01*
X1374080Y307802D01*
X1373667Y307725D01*
X1373408Y307495D01*
X1373253Y307227D01*
Y306268D01*
G01Y307227D02*
X1371755Y307802D01*
G01Y310135D02*
X1374855D01*
X1374235Y309675D01*
G01X1371755D02*
Y310595D01*
G01X1372375Y312392D02*
X1372013Y312622D01*
X1371807Y312928D01*
X1371755Y313274D01*
X1371807Y313580D01*
X1372065Y313887D01*
X1372375Y314078D01*
X1372685Y314117D01*
X1373047Y314040D01*
X1373305Y313772D01*
X1373408Y313504D01*
Y313158D01*
G01Y313504D02*
X1373563Y313734D01*
X1373822Y313925D01*
X1374132Y314002D01*
X1374442Y313925D01*
X1374700Y313734D01*
X1374855Y313388D01*
X1374803Y313044D01*
X1374597Y312699D01*
G01X1371755Y316335D02*
X1371807Y316604D01*
X1371962Y316910D01*
X1372220Y317102D01*
X1372582Y317178D01*
X1372943Y317102D01*
X1373253Y316872D01*
X1373408Y316527D01*
Y316144D01*
X1373512Y315914D01*
X1373770Y315722D01*
X1374132Y315645D01*
X1374493Y315760D01*
X1374752Y316028D01*
X1374855Y316335D01*
X1374752Y316642D01*
X1374493Y316910D01*
X1374132Y317025D01*
X1373770Y316949D01*
X1373512Y316757D01*
X1373408Y316527D01*
Y316144D01*
X1373253Y315798D01*
X1372943Y315568D01*
X1372582Y315492D01*
X1372220Y315568D01*
X1371962Y315760D01*
X1371807Y316067D01*
X1371755Y316335D01*
G01X1361655Y318785D02*
Y304185D01*
X1369655D01*
Y318785D01*
X1361655D01*
G01X1371755Y322268D02*
X1374855D01*
Y323227D01*
X1374700Y323534D01*
X1374493Y323725D01*
X1374080Y323802D01*
X1373667Y323725D01*
X1373408Y323495D01*
X1373253Y323227D01*
Y322268D01*
G01Y323227D02*
X1371755Y323802D01*
G01Y326135D02*
X1374855D01*
X1374235Y325675D01*
G01X1371755D02*
Y326595D01*
G01X1373047Y328507D02*
X1373408Y328775D01*
X1373615Y329005D01*
X1373718Y329312D01*
X1373615Y329580D01*
X1373408Y329772D01*
X1373098Y329925D01*
X1372737Y329964D01*
X1372427Y329925D01*
X1372117Y329772D01*
X1371858Y329542D01*
X1371755Y329274D01*
X1371858Y328967D01*
X1372168Y328698D01*
X1372633Y328545D01*
X1373150Y328507D01*
X1373822Y328584D01*
X1374183Y328698D01*
X1374545Y328890D01*
X1374803Y329158D01*
X1374855Y329427D01*
X1374752Y329695D01*
X1374493Y329887D01*
G01X1373047Y331607D02*
X1373408Y331875D01*
X1373615Y332105D01*
X1373718Y332412D01*
X1373615Y332680D01*
X1373408Y332872D01*
X1373098Y333025D01*
X1372737Y333064D01*
X1372427Y333025D01*
X1372117Y332872D01*
X1371858Y332642D01*
X1371755Y332374D01*
X1371858Y332067D01*
X1372168Y331798D01*
X1372633Y331645D01*
X1373150Y331607D01*
X1373822Y331684D01*
X1374183Y331798D01*
X1374545Y331990D01*
X1374803Y332258D01*
X1374855Y332527D01*
X1374752Y332795D01*
X1374493Y332987D01*
G01X1361655Y334785D02*
Y320185D01*
X1369655D01*
Y334785D01*
X1361655D01*
G01X1371755Y338268D02*
X1374855D01*
Y339227D01*
X1374700Y339534D01*
X1374493Y339725D01*
X1374080Y339802D01*
X1373667Y339725D01*
X1373408Y339495D01*
X1373253Y339227D01*
Y338268D01*
G01Y339227D02*
X1371755Y339802D01*
G01X1374338Y341407D02*
X1374648Y341637D01*
X1374803Y341905D01*
X1374855Y342212D01*
X1374752Y342595D01*
X1374493Y342864D01*
X1374183Y342940D01*
X1373873Y342902D01*
X1373615Y342749D01*
X1373098Y341982D01*
X1372737Y341637D01*
X1372220Y341407D01*
X1371755Y341330D01*
Y342940D01*
G01X1374855Y345235D02*
X1374752Y344928D01*
X1374493Y344698D01*
X1374183Y344545D01*
X1373770Y344430D01*
X1373305Y344392D01*
X1372840Y344430D01*
X1372427Y344545D01*
X1372117Y344698D01*
X1371858Y344928D01*
X1371755Y345235D01*
X1371858Y345542D01*
X1372117Y345772D01*
X1372427Y345925D01*
X1372840Y346040D01*
X1373305Y346078D01*
X1373770Y346040D01*
X1374183Y345925D01*
X1374493Y345772D01*
X1374752Y345542D01*
X1374855Y345235D01*
G01X1372220Y347492D02*
X1371962Y347722D01*
X1371807Y347990D01*
X1371755Y348335D01*
X1371858Y348680D01*
X1372065Y348948D01*
X1372427Y349140D01*
X1372840Y349178D01*
X1373253Y349102D01*
X1373512Y348910D01*
X1373718Y348642D01*
X1373770Y348374D01*
X1373718Y348105D01*
X1373512Y347760D01*
X1374855Y347875D01*
Y348910D01*
G01X1361655Y350785D02*
Y336185D01*
X1369655D01*
Y350785D01*
X1361655D01*
G01X1377953Y0D02*
Y787402D01*
X0D01*
Y0D01*
X1377953D01*
G01X134879Y48000D02*
Y30000D01*
X92879D01*
Y48000D01*
X134879D01*
G01Y210200D02*
Y192200D01*
X92879D01*
Y210200D01*
X134879D01*
G01X135379Y404900D02*
Y386900D01*
X93379D01*
Y404900D01*
X135379D01*
G01X134879Y626500D02*
Y608500D01*
X92879D01*
Y626500D01*
X134879D01*
G54D12*
G01X614500Y48000D02*
X640500D01*
G01X613000Y105000D02*
Y87500D01*
G01X613500Y253500D02*
X639500D01*
G01X613500Y310500D02*
Y293000D01*
G01Y459000D02*
X639500D01*
G01X613000Y516000D02*
Y498500D01*
G01X631000Y105000D02*
Y87500D01*
G01X631500Y310500D02*
Y293000D01*
G01X631000Y516000D02*
Y498500D01*
G01X710000Y48000D02*
X736000D01*
G01X709500Y103500D02*
Y86000D01*
G01X710500Y253500D02*
X736500D01*
G01X709500Y310500D02*
Y293000D01*
G01Y459000D02*
X735500D01*
G01X709000Y516000D02*
Y498500D01*
G01X727500Y103500D02*
Y86000D01*
G01Y310500D02*
Y293000D01*
G01X727000Y516000D02*
Y498500D01*
G01X753000Y130000D02*
X779000D01*
G01X752500Y213500D02*
X778500D01*
G01X752500Y335000D02*
X778500D01*
G01X752900Y418900D02*
X778900D01*
G01X752500Y541000D02*
X778500D01*
G01X806500Y47500D02*
X832500D01*
G01X805500Y105000D02*
Y87500D01*
G01X806500Y253500D02*
X832500D01*
G01X805900Y310500D02*
Y293000D01*
G01X806500Y459000D02*
X832500D01*
G01X805500Y516000D02*
Y498500D01*
G01X823500Y105000D02*
Y87500D01*
G01Y310500D02*
Y293000D01*
G01Y516000D02*
Y498500D01*
G01X903000Y47500D02*
X929000D01*
G01X902700Y104600D02*
Y87100D01*
G01X902500Y253500D02*
X928500D01*
G01X902500Y310500D02*
Y293000D01*
G01X903000Y459000D02*
X929000D01*
G01X902000Y516000D02*
Y498500D01*
G01X920000Y104500D02*
Y87000D01*
G01X920500Y310500D02*
Y293000D01*
G01X920000Y516000D02*
Y498500D01*
M02*
