G04 ================== begin FILE IDENTIFICATION RECORD ==================*
G04 Layout Name:  solutionstida01606_powercard_20march.brd*
G04 Film Name:    SoldermaskTOP*
G04 File Format:  Gerber RS274X*
G04 File Origin:  Cadence Allegro 17.4-S031*
G04 Origin Date:  Fri Mar 22 14:58:21 2024*
G04 *
G04 Layer:  VIA CLASS/SOLDERMASK_TOP*
G04 Layer:  PIN/SOLDERMASK_TOP*
G04 Layer:  PACKAGE GEOMETRY/SOLDERMASK_TOP*
G04 Layer:  BOARD GEOMETRY/SOLDERMASK_TOP*
G04 Layer:  BOARD GEOMETRY/OUTLINE*
G04 *
G04 Offset:    (0.000 0.000)*
G04 Mirror:    No*
G04 Mode:      Positive*
G04 Rotation:  0*
G04 FullContactRelief:  No*
G04 UndefLineWidth:     8.000*
G04 ================== end FILE IDENTIFICATION RECORD ====================*
%FSLAX25Y25*MOIN*%
%IR0*IPPOS*OFA0.00000B0.00000*MIA0B0*SFA1.00000B1.00000*%
%ADD11C,.3*%
%ADD56C,.103*%
%ADD48C,.13*%
%ADD12C,.14*%
%ADD10C,.23*%
%ADD44C,.15*%
%ADD26C,.121654*%
%ADD49R,.100394X.100394*%
%ADD17R,.128016X.061087*%
%ADD16C,.129528*%
%AMMACRO27*
4,1,40,-.011811,-.03248,
-.011811,.03248,
-.011765,.032993,
-.011631,.033491,
-.011413,.033958,
-.011116,.03438,
-.010751,.034744,
-.010329,.035039,
-.009861,.035256,
-.009363,.035389,
-.008858,.035433,
.008858,.035433,
.009371,.035387,
.009869,.035253,
.010336,.035035,
.010758,.034738,
.011122,.034373,
.011417,.033951,
.011634,.033483,
.011767,.032985,
.011811,.03248,
.011811,-.03248,
.011765,-.032993,
.011631,-.033491,
.011413,-.033958,
.011116,-.03438,
.010751,-.034744,
.010329,-.035039,
.009861,-.035256,
.009363,-.035389,
.008858,-.035433,
-.008858,-.035433,
-.009371,-.035387,
-.009869,-.035253,
-.010336,-.035035,
-.010758,-.034738,
-.011122,-.034373,
-.011417,-.033951,
-.011634,-.033483,
-.011767,-.032985,
-.011811,-.03248,
0.0*
%
%ADD27MACRO27*%
%AMMACRO54*
4,1,44,.016339,.009256,
.016339,-.009256,
.016208,-.010759,
.015817,-.012217,
.015179,-.013584,
.014314,-.01482,
.013247,-.015887,
.012011,-.016753,
.010644,-.017391,
.009186,-.017781,
.007683,-.017913,
.007677,-.017913,
-.007677,-.017913,
-.00918,-.017782,
-.010638,-.017393,
-.012006,-.016756,
-.013243,-.015891,
-.01431,-.014825,
-.015177,-.013589,
-.015815,-.012222,
-.016207,-.010765,
-.016339,-.009262,
-.016339,-.009256,
-.016339,.009256,
-.016208,.010759,
-.015817,.012217,
-.015179,.013584,
-.014314,.01482,
-.013247,.015887,
-.012011,.016753,
-.010644,.017391,
-.009186,.017781,
-.007683,.017913,
-.007677,.017913,
.007677,.017913,
.00918,.017782,
.010638,.017393,
.012006,.016756,
.013243,.015891,
.01431,.014825,
.015177,.013589,
.015815,.012222,
.016207,.010765,
.016339,.009262,
.016339,.009256,
0.0*
%
%ADD54MACRO54*%
%ADD51R,.03X.055*%
%ADD32O,.395X.21*%
%ADD59R,.055X.03*%
%ADD30R,.116X.217*%
%ADD50R,.046X.014*%
%ADD39C,.06*%
%ADD34C,.052*%
%ADD20C,.08*%
%ADD19C,.044*%
%ADD14C,.035*%
%ADD52C,.055*%
%ADD31C,.083*%
%ADD40C,.075*%
%ADD29R,.05X.05*%
%ADD38R,.06X.06*%
%ADD35R,.052X.052*%
%ADD36R,.072X.072*%
%ADD53R,.055X.055*%
%ADD43O,.23622X.314961*%
%ADD42C,.035433*%
%ADD41C,.059055*%
%ADD23R,.03937X.043307*%
%ADD33C,.064961*%
%ADD18R,.043307X.03937*%
%ADD21C,.069291*%
%ADD13R,.06693X.05906*%
%ADD45C,.096457*%
%ADD28R,.05906X.06693*%
%ADD15R,.039433X.061087*%
%ADD55R,.07874X.07087*%
%ADD25R,.069291X.069291*%
%ADD47R,.07087X.07874*%
%ADD37R,.041339X.098425*%
%ADD24R,.059055X.059055*%
%ADD57R,.029528X.026772*%
%ADD46R,.04937X.08874*%
%ADD58R,.025984X.026772*%
%ADD22R,.086614X.084646*%
%ADD60C,.02*%
%ADD61C,.05*%
%ADD62C,.008*%
G75*
%LPD*%
G75*
G36*
G01X594967Y548580D02*
X577821D01*
Y567106D01*
X594967D01*
Y548580D01*
G37*
G36*
G01X595067Y580180D02*
X577921D01*
Y598706D01*
X595067D01*
Y580180D01*
G37*
G54D10*
X-585209Y-50100D03*
X-587009Y732400D03*
X-461809Y271800D03*
X-22409Y-49100D03*
X-22500Y698000D03*
X466791Y33500D03*
X754591Y-53400D03*
X760400Y733200D03*
G54D20*
X-522830Y-31802D03*
Y130398D03*
X-522330Y325098D03*
X-522830Y546698D03*
X-462830Y-31802D03*
Y130398D03*
X-462330Y325098D03*
X-462830Y546698D03*
G54D11*
X-577609Y23400D03*
Y142600D03*
X-577109Y337300D03*
X-577609Y558900D03*
X512891Y-42000D03*
X650891Y-42100D03*
G54D21*
X-512009Y40400D03*
Y202600D03*
X-511509Y397300D03*
X-512009Y618900D03*
G54D30*
X-419909Y64400D03*
Y319400D03*
X-419009Y569400D03*
X-388109Y64400D03*
Y319400D03*
X-387209Y569400D03*
G54D12*
X-590109Y10900D03*
Y35900D03*
Y130100D03*
Y155100D03*
X-589609Y324800D03*
Y349800D03*
X-590109Y546400D03*
Y571400D03*
X-565109Y10900D03*
Y35900D03*
Y130100D03*
Y155100D03*
X-564609Y324800D03*
Y349800D03*
X-565109Y546400D03*
Y571400D03*
X500391Y-54500D03*
Y-29500D03*
X525391Y-54500D03*
Y-29500D03*
X638391Y-54600D03*
Y-29600D03*
X663391Y-54600D03*
Y-29600D03*
G54D22*
X-512070Y77400D03*
X-512109Y239600D03*
Y434300D03*
Y655900D03*
X-494748Y77400D03*
X-494786Y239600D03*
Y434300D03*
Y655900D03*
G54D13*
X-593209Y189100D03*
Y196580D03*
Y205100D03*
Y212580D03*
Y221100D03*
Y228580D03*
Y237100D03*
Y244580D03*
X-592709Y385800D03*
Y393280D03*
Y401800D03*
Y409280D03*
Y417800D03*
Y425280D03*
Y433800D03*
Y441280D03*
X-593509Y601500D03*
Y608980D03*
Y617500D03*
Y624980D03*
Y633500D03*
Y640980D03*
Y649500D03*
Y656980D03*
X-568209Y189100D03*
Y196580D03*
Y205100D03*
Y212580D03*
Y221100D03*
Y228580D03*
Y237100D03*
Y244580D03*
X-567709Y385800D03*
Y401800D03*
Y393280D03*
Y409280D03*
Y417800D03*
Y425280D03*
Y433800D03*
Y441280D03*
X-568209Y601800D03*
Y609280D03*
Y617800D03*
Y625280D03*
Y633800D03*
Y641280D03*
Y649800D03*
Y657280D03*
X-427509Y128400D03*
Y135880D03*
Y143400D03*
Y150880D03*
Y158400D03*
Y165880D03*
Y173400D03*
Y180880D03*
X-432309Y375300D03*
Y382780D03*
Y391300D03*
Y398780D03*
Y407300D03*
Y414780D03*
Y423300D03*
Y430780D03*
X-427909Y611700D03*
Y619180D03*
Y627700D03*
Y635180D03*
Y643700D03*
Y651180D03*
Y659700D03*
Y667180D03*
X-404509Y128400D03*
Y135880D03*
Y143400D03*
Y150880D03*
Y158400D03*
Y165880D03*
Y173400D03*
Y180880D03*
X-407309Y375300D03*
Y382780D03*
Y391300D03*
Y398780D03*
Y407300D03*
Y414780D03*
Y423300D03*
Y430780D03*
X-402809Y611700D03*
Y619180D03*
Y627700D03*
Y635180D03*
Y643700D03*
Y651180D03*
Y659700D03*
Y667180D03*
X-386700Y16660D03*
Y24140D03*
X-390300Y244840D03*
Y237360D03*
X-390600Y273260D03*
Y280740D03*
X-389000Y486660D03*
Y494140D03*
X-388800Y521960D03*
Y529440D03*
X-377700Y-15940D03*
Y-8460D03*
X-377400Y16960D03*
Y24440D03*
X-328500Y244660D03*
Y252140D03*
X-327300Y270860D03*
Y278340D03*
X-327100Y491160D03*
Y498640D03*
X-327900Y519960D03*
Y527440D03*
X-315100Y-12140D03*
Y-4660D03*
X-319400Y244560D03*
Y252040D03*
X-317700Y491360D03*
Y498840D03*
X-66000Y506660D03*
Y514140D03*
X55200Y81460D03*
Y88940D03*
X57700Y294460D03*
Y301940D03*
X102891Y562519D03*
Y570000D03*
X111791Y562619D03*
Y570100D03*
X107591Y611500D03*
Y618980D03*
X220991Y562019D03*
Y569500D03*
X225691Y611000D03*
Y618480D03*
X229891Y562119D03*
Y569600D03*
X557091Y552519D03*
Y560000D03*
X555691Y584219D03*
Y591700D03*
X635700Y526760D03*
Y534240D03*
Y542760D03*
Y550240D03*
X635600Y558460D03*
Y565940D03*
Y574860D03*
Y582340D03*
X657400Y528260D03*
Y535740D03*
X657300Y543960D03*
Y551440D03*
X657100Y560160D03*
Y567640D03*
Y575960D03*
Y583440D03*
X679291Y607038D03*
Y599558D03*
G54D40*
X-96209Y624100D03*
X-56209D03*
X532991Y533600D03*
X542991D03*
X552991D03*
X562991D03*
G54D31*
X-387009Y128400D03*
Y375300D03*
X-382009Y611500D03*
X991Y638400D03*
X10991D03*
X305500Y688400D03*
Y678400D03*
X315500Y688400D03*
Y678400D03*
X338000Y688400D03*
Y678400D03*
X348000Y688400D03*
Y678400D03*
X387491Y50900D03*
X377491D03*
X370500Y688400D03*
Y678400D03*
X390500Y688400D03*
Y678400D03*
X410500Y688400D03*
Y678400D03*
X420500Y688400D03*
Y678400D03*
X470500Y688400D03*
Y678400D03*
X499500Y688400D03*
Y678400D03*
X545200Y605900D03*
X566200D03*
X603091Y9398D03*
X613091Y169398D03*
X593091Y369398D03*
Y379398D03*
X605091Y562400D03*
Y552400D03*
Y577800D03*
Y587800D03*
X598000Y688400D03*
Y678400D03*
X608000Y688400D03*
Y678400D03*
X625500Y688400D03*
Y678400D03*
X645991Y515400D03*
X655991D03*
X673000Y688400D03*
Y678400D03*
X733091Y129398D03*
Y369398D03*
Y379398D03*
X743091Y9398D03*
X753091Y159398D03*
X749991Y515400D03*
X759991D03*
G54D23*
X-523109Y95046D03*
Y88353D03*
X-400300Y41254D03*
Y47946D03*
X-401800Y303547D03*
Y296853D03*
X-399800Y546554D03*
Y553246D03*
X32091Y588898D03*
Y582205D03*
X22591Y623800D03*
Y617107D03*
X28891Y617007D03*
Y623700D03*
X55468Y569248D03*
X62241D03*
X55468Y575941D03*
X62241D03*
X78991Y562800D03*
Y569493D03*
X72591D03*
Y562800D03*
X68991Y586800D03*
X76691Y586000D03*
X68991Y593493D03*
X76691Y592693D03*
X83191Y586000D03*
Y592693D03*
X135691Y562407D03*
Y569100D03*
X142091D03*
Y562407D03*
X131291Y610500D03*
X137791D03*
X131291Y617193D03*
X137791D03*
X196891Y559407D03*
Y566100D03*
X201091Y585107D03*
X194591D03*
X187091Y585307D03*
X196791Y572207D03*
Y578900D03*
X204791Y610000D03*
X198291D03*
X201091Y591800D03*
X194591D03*
X187091Y592000D03*
X191900Y609754D03*
X204791Y616693D03*
X198291D03*
X191900Y616446D03*
X253791Y561907D03*
Y568600D03*
X260191D03*
Y561907D03*
X249791Y613500D03*
Y620193D03*
X256191Y619800D03*
Y613107D03*
X415391Y626800D03*
Y620107D03*
X432091Y627100D03*
Y620407D03*
X565891Y559200D03*
Y552507D03*
X564491Y584107D03*
Y590800D03*
X666500Y608046D03*
Y601354D03*
X666800Y621446D03*
Y614754D03*
X673200Y621346D03*
Y614654D03*
G54D41*
X-58078Y499580D03*
Y507100D03*
Y514620D03*
X47178Y81980D03*
Y97020D03*
Y89500D03*
X49878Y303900D03*
Y296380D03*
Y311420D03*
G54D14*
X-586792Y245331D03*
X-585400Y442200D03*
X-559209Y184700D03*
X-561809Y245100D03*
X-558709Y381400D03*
X-559500Y441400D03*
X-560309Y601800D03*
X-508909Y99500D03*
X-524409Y284300D03*
Y478900D03*
X-516900Y695300D03*
X-502009Y264700D03*
Y278900D03*
Y271800D03*
X-498500Y466200D03*
X-489009Y466400D03*
X-470300Y180000D03*
X-472009Y487200D03*
X-424400Y-51600D03*
X-429709Y57398D03*
X-429909Y80298D03*
X-429809Y72598D03*
Y64998D03*
X-429709Y323598D03*
Y318498D03*
Y312398D03*
Y328298D03*
X-426009Y431300D03*
X-428619Y565948D03*
Y559448D03*
Y578948D03*
Y572448D03*
X-416200Y471500D03*
X-396600Y128400D03*
X-395009Y181400D03*
X-397709Y186000D03*
X-398509Y375300D03*
X-400909Y431300D03*
X-383809Y563598D03*
X-387209Y569400D03*
X-383769Y574898D03*
X-394009Y611700D03*
X-381809Y61798D03*
X-381209Y56898D03*
X-381709Y67298D03*
X-381109Y72098D03*
X-381009Y312598D03*
X-381209Y322598D03*
X-381809Y317998D03*
X-381009Y327098D03*
X-314800Y-12500D03*
X-310700Y243200D03*
X-309100Y490400D03*
X-279000Y-11300D03*
X-115009Y109600D03*
X-100700Y129300D03*
X-108009Y154400D03*
X-115009Y177200D03*
X-108009Y228700D03*
Y242900D03*
Y235800D03*
X-109600Y420600D03*
Y427300D03*
X-109676Y432700D03*
X-115400Y468400D03*
X-115500Y462900D03*
X-95600Y486800D03*
X-31900Y649000D03*
X-26600D03*
X-809Y630200D03*
Y625800D03*
X23100Y577500D03*
X46500Y568200D03*
X65400Y310700D03*
X63991Y441400D03*
X62954Y553687D03*
X72591Y558200D03*
X86800Y555700D03*
X95100Y555600D03*
X84900Y579900D03*
X99891Y639300D03*
X86100Y639798D03*
X122000Y555900D03*
X116491Y556000D03*
X116191Y618900D03*
X112291Y626982D03*
X137491Y553300D03*
X143200Y576000D03*
X151200Y567200D03*
X190691Y573300D03*
X191900Y616400D03*
X223491Y548500D03*
X211191Y555100D03*
X216391D03*
X221800Y630900D03*
X239791Y555100D03*
X235491Y625700D03*
X230391D03*
X249400Y597900D03*
X261591Y619900D03*
X266191Y603700D03*
X361691Y38100D03*
X355300Y385800D03*
X357300Y458000D03*
X363700Y458300D03*
X376300Y458400D03*
X370000Y458300D03*
X382600Y458800D03*
X389791Y42200D03*
X406100Y459600D03*
X388400Y458900D03*
X393400Y459200D03*
X408000Y239000D03*
X421900Y459800D03*
X417000Y459700D03*
X460591Y202400D03*
X459591Y641600D03*
X464191Y637000D03*
X459800Y663800D03*
X469900Y202200D03*
X477100Y421900D03*
X486100Y458600D03*
X468791Y583700D03*
Y590200D03*
Y596700D03*
Y632500D03*
X548300Y592900D03*
X550991Y560000D03*
G54D50*
X36991Y616482D03*
Y619041D03*
Y621600D03*
X44591D03*
Y616482D03*
G54D32*
X-361209Y64400D03*
Y319400D03*
Y569400D03*
X-291209Y64400D03*
Y319400D03*
Y569400D03*
X-142409Y64500D03*
X-152609Y552700D03*
X-142309Y290000D03*
X-82609Y552700D03*
X-72409Y64500D03*
X-72309Y290000D03*
G54D60*
G01X-604800Y749900D02*
Y754000D01*
X778800D01*
Y-73200D01*
X-604800D01*
Y751000D01*
G54D24*
X-485996Y77400D03*
X-485409Y239600D03*
X-486082Y434300D03*
Y655900D03*
X-471822Y77400D03*
X-471236Y239600D03*
X-471909Y434300D03*
Y655900D03*
G54D15*
X-549964Y95012D03*
X-540909D03*
X-531854D03*
X-542964Y263812D03*
X-533909D03*
X-542964Y458412D03*
X-533909D03*
X-542964Y680112D03*
X-533909D03*
X-524854Y263812D03*
Y458412D03*
Y680112D03*
X441436Y602988D03*
X459546D03*
X450491D03*
G54D33*
X-363200Y243400D03*
Y253400D03*
Y278400D03*
Y268400D03*
X-350300Y-1700D03*
Y-11700D03*
Y23300D03*
Y13300D03*
X-362000Y503400D03*
Y493400D03*
Y528400D03*
Y518400D03*
G54D42*
X-39574Y54500D03*
X-43472Y57315D03*
X-44948Y61941D03*
Y67158D03*
Y72472D03*
Y77689D03*
X-43472Y82315D03*
X-39535Y85169D03*
X-44948Y101311D03*
X-43472Y96685D03*
X-39535Y93831D03*
X-43472Y121685D03*
X-44948Y117059D03*
Y111842D03*
Y106626D03*
X-39574Y124500D03*
X-40772Y271715D03*
X-42248Y276341D03*
Y281558D03*
Y286872D03*
Y292089D03*
X-40772Y296715D03*
X-42248Y326243D03*
Y321026D03*
Y315711D03*
X-40772Y311085D03*
Y336085D03*
X-42248Y331459D03*
X-29200Y61941D03*
X-30676Y57315D03*
X-34574Y54500D03*
X-30676Y82315D03*
X-29200Y77689D03*
Y72472D03*
Y67158D03*
X-34613Y85169D03*
X-30676Y96685D03*
X-29200Y101311D03*
X-34613Y93831D03*
X-29200Y106626D03*
Y111842D03*
Y117059D03*
X-30676Y121685D03*
X-34574Y124500D03*
X-26500Y281558D03*
Y276341D03*
X-27976Y271715D03*
X-31874Y268900D03*
X-36874D03*
X-27976Y296715D03*
X-26500Y292089D03*
Y286872D03*
X-36835Y299569D03*
X-31913D03*
X-27976Y311085D03*
X-26500Y315711D03*
Y321026D03*
Y326243D03*
X-36835Y308231D03*
X-31913D03*
X-26500Y331459D03*
X-27976Y336085D03*
X-31874Y338900D03*
X-36874D03*
X18300Y484758D03*
Y479541D03*
X19776Y474915D03*
Y499915D03*
X18300Y495289D03*
Y489974D03*
X19776Y514285D03*
X18300Y518911D03*
Y524128D03*
Y529442D03*
Y534659D03*
X19776Y539285D03*
X23674Y472100D03*
X28674D03*
X32572Y474915D03*
X34048Y479541D03*
Y484758D03*
Y489974D03*
Y495289D03*
X32572Y499915D03*
X28635Y502769D03*
X23713D03*
X34048Y524128D03*
Y518911D03*
X32572Y514285D03*
X28635Y511431D03*
X23713D03*
X23674Y542100D03*
X28674D03*
X32572Y539285D03*
X34048Y534659D03*
Y529442D03*
G54D51*
X89591Y579600D03*
X94591D03*
X99591D03*
X94591Y599100D03*
X89591D03*
X99591D03*
X104591Y579600D03*
X109591D03*
X114591D03*
X119591D03*
X109591Y599100D03*
X104591D03*
X114591D03*
X119591D03*
X207691Y579100D03*
X212691D03*
X217691D03*
X222691D03*
X212691Y598600D03*
X207691D03*
X217691D03*
X222691D03*
X227691Y579100D03*
X232691D03*
X237691D03*
X227691Y598600D03*
X232691D03*
X237691D03*
G54D61*
G01X-576500Y23600D02*
Y12400D01*
G01X-529200Y-19800D02*
X-527300Y-17900D01*
G01X-528200Y142200D02*
X-527500Y142900D01*
G01X-525800Y338600D02*
X-525600Y338400D01*
G01X-528600Y556700D02*
X-526500Y558800D01*
G01X-359000Y319500D02*
X-358600Y319100D01*
G01X-359800Y569700D02*
X-359300Y569200D01*
G01X-215200Y161300D02*
X-146200D01*
X-136400Y151500D01*
G01X-153400Y552600D02*
X-153000Y552200D01*
G01X-83000Y553200D02*
X-77100D01*
G01X-70800Y63100D02*
X-44700D01*
X-36800Y71000D01*
G01X-66500Y289900D02*
X-39000D01*
X-34200Y285100D01*
G01X-38900Y110400D02*
X-25900D01*
X21600Y62900D01*
Y48900D01*
X21400Y48700D01*
X43500D01*
G01X-35100Y322700D02*
X-19000D01*
X17000Y286700D01*
Y253300D01*
X42400D01*
X43200Y254100D01*
X90100D01*
X91000Y253200D01*
Y229400D01*
X91100Y229500D01*
Y253100D01*
X92100Y254100D01*
X204800D01*
X207400Y251500D01*
Y229900D01*
G01X15300Y22400D02*
Y42600D01*
X21600Y48900D01*
G01X17000Y253300D02*
Y230600D01*
X15500Y229100D01*
G01X14100Y433300D02*
Y478200D01*
X24800Y488900D01*
X26700D01*
X39600Y476000D01*
Y460400D01*
X39200Y460000D01*
X39300Y459900D01*
X91100D01*
Y435500D01*
X91000Y435400D01*
Y460000D01*
X91600Y460600D01*
X199900D01*
X206600Y453900D01*
Y434800D01*
G01X507500Y62800D02*
Y-37100D01*
X512700Y-42300D01*
X502200Y-52800D01*
X62000D01*
X62400Y-53200D01*
X71500D01*
G01X43500Y48700D02*
X91000D01*
X91300Y48400D01*
Y23300D01*
X91400Y23400D01*
Y48800D01*
X203700D01*
X207400Y45100D01*
Y23900D01*
G01X57000Y152500D02*
X59000D01*
X69900Y163400D01*
X506400Y165000D01*
G01X57800Y359900D02*
Y360900D01*
X63900Y367000D01*
X507600D01*
X508600Y366000D01*
G01X507500Y188100D02*
Y62800D01*
X512000Y58300D01*
X527600D01*
X528900Y59600D01*
X529700Y58800D01*
G01X507500Y314700D02*
Y188100D01*
X509900Y185700D01*
X526400D01*
X528100Y187400D01*
G01X527600Y439700D02*
X525100D01*
X507500Y422100D01*
Y314700D01*
X507800Y314400D01*
X528800D01*
G01X666900Y185100D02*
X668600Y186800D01*
G01X668200Y314100D02*
X669700Y312600D01*
G01X667400Y441300D02*
X665100D01*
G54D25*
X-472009Y40400D03*
Y202600D03*
X-471509Y397300D03*
X-472009Y618900D03*
G54D43*
X-37074Y69815D03*
Y109185D03*
X-34374Y284215D03*
Y323585D03*
X26174Y487415D03*
Y526785D03*
G54D52*
X359391Y27100D03*
X349391D03*
G54D34*
X-344100Y241000D03*
X-343800Y267200D03*
X-343100Y517000D03*
X-330500Y-14600D03*
X-331200Y11900D03*
X-342400Y488500D03*
G54D16*
X-527009Y-19600D03*
Y142600D03*
X-526509Y337300D03*
X-527009Y558900D03*
G54D62*
G01X235900Y686800D02*
X236300Y686400D01*
G54D53*
X369391Y27100D03*
G54D35*
X-344100Y253500D03*
X-343800Y279700D03*
X-343100Y529500D03*
X-330500Y-2100D03*
X-331200Y24400D03*
X-342400Y501000D03*
G54D17*
X-540909Y70800D03*
X-533909Y239600D03*
Y434200D03*
Y655900D03*
X450491Y627200D03*
G54D26*
X-457009Y-9600D03*
Y152600D03*
X-456509Y347300D03*
X-457009Y568900D03*
G54D44*
X-31909Y2200D03*
Y207800D03*
Y413400D03*
X148953Y2200D03*
Y207800D03*
Y413400D03*
X165491Y2200D03*
Y207800D03*
Y413400D03*
X346353Y2200D03*
Y207800D03*
Y413400D03*
G54D45*
X-24709Y22700D03*
X-24609Y229300D03*
X-25109Y434100D03*
X-14709Y22700D03*
X-4709D03*
X-14609Y229300D03*
X-4609D03*
X-15109Y434100D03*
X-5109D03*
X71291Y22500D03*
X81291D03*
X71191Y229500D03*
X81191D03*
X71091Y434400D03*
X81091D03*
X91291Y22500D03*
X91191Y229500D03*
X91091Y434400D03*
X167091D03*
X167491Y23200D03*
X177491D03*
X167691Y229400D03*
X177691D03*
X177091Y434400D03*
X187091D03*
X187491Y23200D03*
X187691Y229400D03*
X263591Y22300D03*
X264091Y229400D03*
X263491Y434300D03*
X273591Y22300D03*
X283591D03*
X274091Y229400D03*
X284091D03*
X273491Y434300D03*
X283491D03*
G54D18*
X-530709Y279600D03*
X-530316Y273000D03*
X-537009D03*
X-530316Y467400D03*
X-537009D03*
X-530709Y473800D03*
X-530316Y689000D03*
X-537009D03*
X-530709Y695300D03*
X-509262Y95100D03*
X-515956D03*
X-524016Y279600D03*
Y473800D03*
Y695300D03*
X40948Y557398D03*
X38548Y582698D03*
Y588831D03*
X40591Y610900D03*
X55548Y562398D03*
X62241D03*
X47641Y557398D03*
X45241Y582698D03*
Y588831D03*
X47284Y610900D03*
X68445Y616698D03*
X75138D03*
X95354Y555600D03*
X102046D03*
X88291Y570700D03*
X94984D03*
X120391D03*
X122484Y610800D03*
X115791D03*
X112446Y627000D03*
X105754D03*
X127084Y570700D03*
X223098Y554200D03*
X205998Y570200D03*
X212691D03*
X211591Y610200D03*
X218284D03*
Y616700D03*
X211591D03*
Y623200D03*
X218284D03*
X221954Y630900D03*
X229154Y546800D03*
X235847D03*
X229791Y554200D03*
X245184Y570200D03*
X238491D03*
X240584Y610300D03*
X233891D03*
X228647Y630900D03*
X362798Y17800D03*
X361298Y50900D03*
X369491Y17800D03*
X376891Y40700D03*
X383584D03*
X376891Y34300D03*
X383584D03*
X367991Y50900D03*
X389691Y34300D03*
X396384D03*
X627354Y610700D03*
X627054Y617300D03*
X643354Y591400D03*
X650046D03*
X634046Y610700D03*
X633746Y617300D03*
X634554Y639100D03*
X641246D03*
X660344Y628298D03*
X667038D03*
X666638Y644998D03*
X659944D03*
G54D36*
X-215009Y14062D03*
Y161700D03*
Y269562D03*
Y417200D03*
Y519062D03*
Y666700D03*
G54D54*
X415391Y608094D03*
Y614000D03*
G54D27*
X-406700Y-18084D03*
X-411700D03*
Y23884D03*
X-406700D03*
X-405500Y238116D03*
X-410500D03*
X-415500D03*
Y280084D03*
X-410500D03*
X-405500D03*
X-408900Y486916D03*
X-413900D03*
Y528884D03*
X-408900D03*
X-396700Y-18084D03*
X-401700D03*
Y23884D03*
X-396700D03*
X-400500Y238116D03*
Y280084D03*
X-398900Y486916D03*
X-403900D03*
Y528884D03*
X-398900D03*
G54D46*
X-9Y-100D03*
Y205500D03*
Y411100D03*
X19991Y-300D03*
X9991Y-13100D03*
X19991Y205300D03*
X9991Y192500D03*
Y398100D03*
X19991Y410900D03*
X29991Y-13100D03*
Y192500D03*
Y398100D03*
X96391Y-100D03*
Y205500D03*
Y411100D03*
X116391Y-300D03*
X106391Y-13100D03*
X116391Y205300D03*
X106391Y192500D03*
Y398100D03*
X116391Y410900D03*
X126391Y-13100D03*
Y192500D03*
Y398100D03*
X192691Y-100D03*
X202691Y-13100D03*
X192691Y205500D03*
X202691Y192500D03*
Y398100D03*
X192691Y411100D03*
X212691Y-300D03*
X222691Y-13100D03*
X212691Y205300D03*
X222691Y192500D03*
Y398100D03*
X212691Y410900D03*
X289091Y-100D03*
X299091Y-13100D03*
X289091Y205500D03*
X299091Y192500D03*
Y398100D03*
X289091Y411100D03*
X309091Y-300D03*
X319091Y-13100D03*
X309091Y205300D03*
X319091Y192500D03*
Y398100D03*
X309091Y410900D03*
X367291Y-14300D03*
Y10700D03*
Y191300D03*
Y216300D03*
Y397000D03*
Y422000D03*
X387291Y-14300D03*
X377291D03*
X387291Y10700D03*
X377291D03*
X387291Y191300D03*
X377291D03*
X387291Y216300D03*
X377291D03*
X387291Y397000D03*
X377291D03*
X387291Y422000D03*
X377291D03*
X407291Y-14300D03*
X397291D03*
X407291Y10700D03*
X397291D03*
X407291Y191300D03*
X397291D03*
X407291Y216300D03*
X397291D03*
X407291Y397000D03*
X397291D03*
X407291Y422000D03*
X397291D03*
X427291Y-14300D03*
X417291D03*
X427291Y10700D03*
X417291D03*
X427291Y191300D03*
X417291D03*
X427291Y216300D03*
X417291D03*
X427291Y397000D03*
X417291D03*
X427291Y422000D03*
X417291D03*
X437291Y-14300D03*
Y10700D03*
Y191300D03*
Y216300D03*
Y397000D03*
Y422000D03*
G54D37*
X-185209Y694200D03*
Y706798D03*
X-178953Y694200D03*
X-166357D03*
X-172655D03*
X-166315Y706798D03*
X-178911D03*
X-172613D03*
X-160059Y694200D03*
X-147463D03*
X-153761D03*
X-141165D03*
X-160017Y706798D03*
X-147421D03*
X-153719D03*
X-141123D03*
X-128569Y694200D03*
X-122271D03*
X-134867D03*
X-122229Y706798D03*
X-128527D03*
X-134825D03*
X-115973Y694200D03*
X-109675D03*
X-103377D03*
X-109633Y706798D03*
X-115931D03*
X-103335D03*
X-84483Y694200D03*
X-90781D03*
X-97079D03*
X-84441Y706798D03*
X-90739D03*
X-97037D03*
X-71887Y694200D03*
X-65589D03*
X-78185D03*
X-77943Y706798D03*
X-71845D03*
X-65547D03*
X35200Y694200D03*
X41498D03*
X41942Y707098D03*
X35242Y707198D03*
X54094Y694200D03*
X60392D03*
X47796D03*
X60434Y706798D03*
X54136D03*
X48142Y706898D03*
X79286Y694200D03*
X66690D03*
X72988D03*
X79328Y706798D03*
X66732D03*
X73030D03*
X91882Y694200D03*
X85584D03*
X98180D03*
X91924Y706798D03*
X85626D03*
X98222D03*
X117074Y694200D03*
X123372D03*
X104478D03*
X110776D03*
X123414Y706798D03*
X117116D03*
X104520D03*
X110818D03*
X135968Y694200D03*
X129670D03*
X142266D03*
X129712Y706798D03*
X136010D03*
X142308D03*
X148564Y694200D03*
X154862D03*
X161160D03*
X148606Y706798D03*
X154904D03*
X161202D03*
X167458Y694200D03*
X173756D03*
X173798Y706798D03*
X167500D03*
G54D55*
X423391Y616076D03*
Y627100D03*
G54D28*
X-407940Y33400D03*
X-409740Y289300D03*
X-408340Y538700D03*
X-385440Y-25600D03*
X-400460Y33400D03*
X-402260Y289300D03*
X-400860Y538700D03*
X-377960Y-25600D03*
X-73840Y478300D03*
X-66360D03*
X-66260Y497400D03*
X-73740D03*
X63140Y72000D03*
X55660D03*
X63660Y88300D03*
X62340Y97700D03*
X54860D03*
X57460Y285700D03*
X58060Y310700D03*
X71140Y88300D03*
X77940Y97800D03*
X70460D03*
X64940Y285700D03*
X66360Y301300D03*
X73840D03*
X65540Y310700D03*
X81340Y310900D03*
X73860D03*
X93771Y562900D03*
X86291D03*
X120791Y561700D03*
X116191Y618900D03*
X123671D03*
X128271Y561700D03*
X204911Y562400D03*
X212391D03*
X238591D03*
X246071D03*
X234291Y618400D03*
X241771D03*
X650240Y599400D03*
X642760D03*
X641540Y630700D03*
X634060D03*
X668031Y636598D03*
X660551D03*
G54D19*
X-537100Y689200D03*
X-469200Y709900D03*
X-415500Y238300D03*
X-408900Y486900D03*
X-185209Y706798D03*
X-147300Y694400D03*
X-153719Y706798D03*
X-147600Y707000D03*
X-153900Y694100D03*
X-129100Y475200D03*
X-128500Y693800D03*
X-122200Y693900D03*
X-128600Y706600D03*
X-128500Y727100D03*
X-122200Y727500D03*
X-127700Y718400D03*
X-103500Y706900D03*
X-109500Y693500D03*
X-109800Y707000D03*
X-116300Y693800D03*
X-115000Y727200D03*
X-109200D03*
X-102000Y739100D03*
X-98600Y505700D03*
X-97500Y510700D03*
X-86800Y509400D03*
X-92200Y510800D03*
X-90800Y707100D03*
X-84700D03*
X-84500Y694400D03*
X-91200Y694200D03*
X-97600Y693800D03*
X-90800Y727800D03*
X-81000Y727900D03*
X-59000Y237600D03*
X-73800Y488650D03*
X-73100Y508000D03*
X-77550Y510050D03*
X-65589Y694200D03*
X-54100Y233500D03*
X-56400Y247100D03*
X-52900Y374700D03*
X-49450Y377650D03*
X-47900Y503600D03*
X-43600Y587800D03*
X-38700Y577500D03*
X-41500Y583100D03*
X-49600Y589800D03*
X-45100Y729100D03*
X-57400Y727000D03*
X-32100Y576200D03*
X-23550Y577950D03*
X-34900Y735500D03*
X-15300Y580700D03*
X10800Y678100D03*
X18200Y704900D03*
X40800Y570000D03*
X29900Y558900D03*
X32091Y582205D03*
X22591Y617107D03*
X40591Y610900D03*
X40300Y639700D03*
X28200Y713600D03*
X62241Y575941D03*
X52800Y595200D03*
X56900Y593000D03*
X47284Y610900D03*
X48000Y629200D03*
X54300Y707200D03*
X63140Y72000D03*
X70500Y97800D03*
X63660Y88300D03*
X64800Y285300D03*
X73500Y300800D03*
X66300Y301500D03*
X81400Y311000D03*
X68700Y593400D03*
X77900Y601500D03*
X76691Y592693D03*
X68600Y606100D03*
X68445Y616698D03*
X79300Y652300D03*
X67800Y669100D03*
X73400Y706800D03*
X66600Y707300D03*
X79500Y708700D03*
X79300Y694400D03*
X98300Y610200D03*
X90800Y668300D03*
X85600Y652000D03*
X96200Y651800D03*
X97900Y667200D03*
X98300Y706200D03*
X85800Y693800D03*
X85300Y706700D03*
X92000Y705400D03*
X111900Y569546D03*
X111791Y562619D03*
X104800Y665000D03*
X114500Y651900D03*
X119200Y663900D03*
X119000Y672300D03*
X104800Y673400D03*
X110776Y694200D03*
X104800Y706600D03*
X137791Y610500D03*
X129200Y639400D03*
X128400Y663600D03*
X142700Y694200D03*
X135900Y706800D03*
X158100Y649600D03*
X161100Y672800D03*
Y706800D03*
X148500Y694600D03*
X164500Y638400D03*
X170900Y664000D03*
X196791Y578900D03*
X187500Y585400D03*
X187091Y592000D03*
X191900Y609754D03*
X194500Y591700D03*
X198400Y610000D03*
X197800Y650600D03*
X191500Y700500D03*
X218000Y610000D03*
X218284Y623200D03*
X229900Y569500D03*
X259800Y568500D03*
X260191Y561907D03*
X256191Y613107D03*
X258100Y645100D03*
X248800Y663800D03*
X266400Y626800D03*
X271300Y615800D03*
X382800Y253600D03*
X400500Y459500D03*
X413100Y48300D03*
Y124400D03*
X424500Y201500D03*
X417300Y408200D03*
X411400Y459700D03*
X426900Y534400D03*
X414600Y626800D03*
X434400Y41400D03*
X446500Y438500D03*
X432091Y620407D03*
X438300Y647100D03*
X457400Y131000D03*
X451300Y209100D03*
X448900Y337000D03*
X461400Y415400D03*
Y439800D03*
X468200Y463900D03*
X462700Y449900D03*
X491700Y666600D03*
X585700Y460300D03*
X574691Y565000D03*
X574791Y586600D03*
X588800Y666900D03*
X627054Y617300D03*
X635600Y582340D03*
X642500Y599300D03*
X634046Y610700D03*
X650240Y599400D03*
X641540Y630700D03*
X640100Y611700D03*
X657100Y583440D03*
X659900Y606900D03*
X666600Y608100D03*
X666700Y614600D03*
X667200Y629000D03*
X679291Y599558D03*
X733400Y221500D03*
G54D47*
X-14609Y9500D03*
X-3585D03*
X-13709Y215400D03*
X-2685D03*
X-13709Y420400D03*
X-2685D03*
X82291Y9400D03*
Y215400D03*
Y420400D03*
X93315Y9400D03*
Y215400D03*
Y420400D03*
X178291Y9400D03*
Y215400D03*
Y420400D03*
X189315Y9400D03*
Y215400D03*
Y420400D03*
X286315Y9400D03*
X275291D03*
X286315Y215400D03*
X275291D03*
X286315Y420400D03*
X275291D03*
X444291Y592400D03*
X455315D03*
G54D38*
X-136009Y130700D03*
Y386700D03*
Y635700D03*
G54D29*
X-419000Y42600D03*
Y34200D03*
X-418300Y297800D03*
Y289400D03*
X-416800Y547000D03*
Y538600D03*
X-386700Y-16500D03*
Y-8100D03*
X-310600Y243500D03*
Y251900D03*
X-309000Y490200D03*
Y498600D03*
X58800Y668900D03*
Y677300D03*
X67800Y669100D03*
Y677500D03*
X119000Y663900D03*
X104800Y665000D03*
X119000Y672300D03*
X104800Y673400D03*
X128800Y664100D03*
X138200Y664000D03*
X128800Y672500D03*
X138200Y672400D03*
X161100Y664100D03*
Y672500D03*
X170700Y664000D03*
Y672400D03*
X186600Y664700D03*
Y673100D03*
X248900Y598000D03*
X257300D03*
X500100Y666600D03*
X491700D03*
X588800Y666900D03*
X597200D03*
G54D56*
X528491Y59400D03*
Y186900D03*
X527991Y314400D03*
X528491Y441800D03*
X567861Y59400D03*
Y186900D03*
X567361Y314400D03*
X567861Y441800D03*
X668791Y59400D03*
Y186900D03*
Y314400D03*
Y441800D03*
X708161Y59400D03*
Y186900D03*
Y314400D03*
Y441800D03*
G54D57*
X574691Y550000D03*
Y555000D03*
Y560000D03*
Y565000D03*
X574791Y581600D03*
Y586600D03*
Y591600D03*
Y596600D03*
G54D39*
G01X2091Y-22402D02*
X28091D01*
G01X6291Y32098D02*
Y14598D01*
G01X6591Y182898D02*
X32591D01*
G01X5491Y240198D02*
Y222698D01*
G01X6591Y388398D02*
X32591D01*
G01X5191Y445698D02*
Y428198D01*
G01X23891Y31698D02*
Y14198D01*
G01X24791Y239998D02*
Y222498D01*
G01X24691Y445298D02*
Y427798D01*
G01X103091Y-22602D02*
X129091D01*
G01X101791Y33598D02*
Y16098D01*
G01X103591Y182898D02*
X129591D01*
G01X101491Y240798D02*
Y223298D01*
G01X102591Y388398D02*
X128591D01*
G01X100891Y445998D02*
Y428498D01*
G01X120591Y32898D02*
Y15398D01*
G01X120491Y240798D02*
Y223298D01*
G01X120891Y445898D02*
Y428398D01*
G01X146091Y59398D02*
X172091D01*
G01X145591Y142898D02*
X171591D01*
G01X145591Y264398D02*
X171591D01*
G01X145991Y348298D02*
X171991D01*
G01X145591Y470398D02*
X171591D01*
G01X199591Y-23102D02*
X225591D01*
G01X197791Y34398D02*
Y16898D01*
G01X199591Y182898D02*
X225591D01*
G01X198491Y240798D02*
Y223298D01*
G01X199591Y388398D02*
X225591D01*
G01X196591Y445998D02*
Y428498D01*
G01X218091Y34298D02*
Y16798D01*
G01X216991Y240898D02*
Y223398D01*
G01X216591Y445398D02*
Y427898D01*
G01X296091Y-23102D02*
X322091D01*
G01X293891Y32798D02*
Y15298D01*
G01X295591Y182898D02*
X321591D01*
G01X294091Y239698D02*
Y222198D01*
G01X296091Y388398D02*
X322091D01*
G01X292691Y445898D02*
Y428398D01*
G01X313791Y32198D02*
Y14698D01*
G01X314591Y239198D02*
Y221698D01*
G01X315191Y445398D02*
Y427898D01*
X-136009Y151200D03*
Y407200D03*
Y656200D03*
G54D48*
X-2509Y153100D03*
X6691D03*
X-2509Y358700D03*
X12391Y-52500D03*
X22191D03*
X7291Y358700D03*
X46691Y153100D03*
X47291Y358700D03*
X62191Y-52500D03*
X56491Y153100D03*
Y358700D03*
X71391Y-52500D03*
X158691Y71600D03*
X158791Y83100D03*
Y123100D03*
X158691Y130600D03*
Y277300D03*
X158791Y288700D03*
Y328700D03*
X158691Y336300D03*
Y482900D03*
X158791Y494300D03*
Y534300D03*
X158691Y541900D03*
G54D58*
X596541Y565000D03*
Y560000D03*
Y555000D03*
Y550000D03*
X596641Y586600D03*
Y581600D03*
Y596600D03*
Y591600D03*
G54D49*
X15291Y22700D03*
X15391Y229300D03*
X14891Y434100D03*
X111291Y22500D03*
X111191Y229500D03*
X111091Y434400D03*
X207491Y23200D03*
X207691Y229400D03*
X207091Y434400D03*
X303591Y22300D03*
X304091Y229400D03*
X303491Y434300D03*
G54D59*
X640450Y606900D03*
Y621900D03*
Y616900D03*
Y611900D03*
X659950Y606900D03*
Y616900D03*
Y621900D03*
Y611900D03*
M02*
