G04 ================== begin FILE IDENTIFICATION RECORD ==================*
G04 Layout Name:  solutionstida01606_powercard_20march.brd*
G04 Film Name:    SoldermaskBOTTOM*
G04 File Format:  Gerber RS274X*
G04 File Origin:  Cadence Allegro 17.4-S031*
G04 Origin Date:  Fri Mar 22 14:58:21 2024*
G04 *
G04 Layer:  VIA CLASS/SOLDERMASK_BOTTOM*
G04 Layer:  PIN/SOLDERMASK_BOTTOM*
G04 Layer:  PACKAGE GEOMETRY/SOLDERMASK_BOTTOM*
G04 Layer:  BOARD GEOMETRY/SOLDERMASK_BOTTOM*
G04 Layer:  BOARD GEOMETRY/OUTLINE*
G04 *
G04 Offset:    (0.000 0.000)*
G04 Mirror:    No*
G04 Mode:      Positive*
G04 Rotation:  0*
G04 FullContactRelief:  No*
G04 UndefLineWidth:     8.000*
G04 ================== end FILE IDENTIFICATION RECORD ====================*
%FSLAX25Y25*MOIN*%
%IR0*IPPOS*OFA0.00000B0.00000*MIA0B0*SFA1.00000B1.00000*%
%ADD11C,.3*%
%ADD43C,.103*%
%ADD36C,.13*%
%ADD10C,.23*%
%ADD33C,.15*%
%ADD18C,.121654*%
%ADD37R,.100394X.100394*%
%ADD13C,.129528*%
%ADD20O,.395X.21*%
%ADD26C,.06*%
%ADD22C,.052*%
%ADD15C,.08*%
%ADD14C,.044*%
%ADD12C,.035*%
%ADD39C,.055*%
%ADD19C,.083*%
%ADD27C,.075*%
%ADD25R,.06X.06*%
%ADD23R,.052X.052*%
%ADD24R,.072X.072*%
%ADD40R,.055X.055*%
%ADD31O,.23622X.314961*%
%ADD30C,.035433*%
%ADD29C,.059055*%
%ADD38R,.03937X.043307*%
%ADD41R,.043307X.03937*%
%ADD21C,.064961*%
%ADD16C,.069291*%
%ADD32R,.06693X.05906*%
%ADD34C,.096457*%
%ADD28R,.05906X.06693*%
%ADD17R,.069291X.069291*%
%ADD35R,.04937X.08874*%
%ADD42R,.047464X.098425*%
%ADD44C,.008*%
%ADD45C,.02*%
%ADD46C,.05*%
G75*
%LPD*%
G75*
G54D10*
X-585209Y-50100D03*
X-587009Y732400D03*
X-461809Y271800D03*
X-22409Y-49100D03*
X-22500Y698000D03*
X466791Y33500D03*
X754591Y-53400D03*
X760400Y733200D03*
G54D20*
X-361209Y64400D03*
Y319400D03*
Y569400D03*
X-291209Y64400D03*
Y319400D03*
Y569400D03*
X-142409Y64500D03*
X-152609Y552700D03*
X-142309Y290000D03*
X-82609Y552700D03*
X-72409Y64500D03*
X-72309Y290000D03*
G54D11*
X-577609Y23400D03*
Y142600D03*
X-577109Y337300D03*
X-577609Y558900D03*
X512891Y-42000D03*
X650891Y-42100D03*
G54D21*
X-363200Y243400D03*
Y253400D03*
Y278400D03*
Y268400D03*
X-350300Y-1700D03*
Y-11700D03*
Y23300D03*
Y13300D03*
X-362000Y503400D03*
Y493400D03*
Y528400D03*
Y518400D03*
G54D30*
X-39574Y54500D03*
X-43472Y57315D03*
X-44948Y61941D03*
Y67158D03*
Y72472D03*
Y77689D03*
X-43472Y82315D03*
X-39535Y85169D03*
X-44948Y101311D03*
X-43472Y96685D03*
X-39535Y93831D03*
X-43472Y121685D03*
X-44948Y117059D03*
Y111842D03*
Y106626D03*
X-39574Y124500D03*
X-40772Y271715D03*
X-42248Y276341D03*
Y281558D03*
Y286872D03*
Y292089D03*
X-40772Y296715D03*
X-42248Y326243D03*
Y321026D03*
Y315711D03*
X-40772Y311085D03*
Y336085D03*
X-42248Y331459D03*
X-29200Y61941D03*
X-30676Y57315D03*
X-34574Y54500D03*
X-30676Y82315D03*
X-29200Y77689D03*
Y72472D03*
Y67158D03*
X-34613Y85169D03*
X-30676Y96685D03*
X-29200Y101311D03*
X-34613Y93831D03*
X-29200Y106626D03*
Y111842D03*
Y117059D03*
X-30676Y121685D03*
X-34574Y124500D03*
X-26500Y281558D03*
Y276341D03*
X-27976Y271715D03*
X-31874Y268900D03*
X-36874D03*
X-27976Y296715D03*
X-26500Y292089D03*
Y286872D03*
X-36835Y299569D03*
X-31913D03*
X-27976Y311085D03*
X-26500Y315711D03*
Y321026D03*
Y326243D03*
X-36835Y308231D03*
X-31913D03*
X-26500Y331459D03*
X-27976Y336085D03*
X-31874Y338900D03*
X-36874D03*
X18300Y484758D03*
Y479541D03*
X19776Y474915D03*
Y499915D03*
X18300Y495289D03*
Y489974D03*
X19776Y514285D03*
X18300Y518911D03*
Y524128D03*
Y529442D03*
Y534659D03*
X19776Y539285D03*
X23674Y472100D03*
X28674D03*
X32572Y474915D03*
X34048Y479541D03*
Y484758D03*
Y489974D03*
Y495289D03*
X32572Y499915D03*
X28635Y502769D03*
X23713D03*
X34048Y524128D03*
Y518911D03*
X32572Y514285D03*
X28635Y511431D03*
X23713D03*
X23674Y542100D03*
X28674D03*
X32572Y539285D03*
X34048Y534659D03*
Y529442D03*
G54D12*
X-586792Y245331D03*
X-585400Y442200D03*
X-559209Y184700D03*
X-561809Y245100D03*
X-558709Y381400D03*
X-559500Y441400D03*
X-560309Y601800D03*
X-508909Y99500D03*
X-524409Y284300D03*
Y478900D03*
X-516900Y695300D03*
X-502009Y264700D03*
Y278900D03*
Y271800D03*
X-498500Y466200D03*
X-489009Y466400D03*
X-470300Y180000D03*
X-472009Y487200D03*
X-424400Y-51600D03*
X-429709Y57398D03*
X-429909Y80298D03*
X-429809Y72598D03*
Y64998D03*
X-429709Y323598D03*
Y318498D03*
Y312398D03*
Y328298D03*
X-426009Y431300D03*
X-428619Y565948D03*
Y559448D03*
Y578948D03*
Y572448D03*
X-416200Y471500D03*
X-396600Y128400D03*
X-395009Y181400D03*
X-397709Y186000D03*
X-398509Y375300D03*
X-400909Y431300D03*
X-383809Y563598D03*
X-387209Y569400D03*
X-383769Y574898D03*
X-394009Y611700D03*
X-381809Y61798D03*
X-381209Y56898D03*
X-381709Y67298D03*
X-381109Y72098D03*
X-381009Y312598D03*
X-381209Y322598D03*
X-381809Y317998D03*
X-381009Y327098D03*
X-314800Y-12500D03*
X-310700Y243200D03*
X-309100Y490400D03*
X-279000Y-11300D03*
X-115009Y109600D03*
X-100700Y129300D03*
X-108009Y154400D03*
X-115009Y177200D03*
X-108009Y228700D03*
Y242900D03*
Y235800D03*
X-109600Y420600D03*
Y427300D03*
X-109676Y432700D03*
X-115400Y468400D03*
X-115500Y462900D03*
X-95600Y486800D03*
X-31900Y649000D03*
X-26600D03*
X-809Y630200D03*
Y625800D03*
X23100Y577500D03*
X46500Y568200D03*
X65400Y310700D03*
X63991Y441400D03*
X62954Y553687D03*
X72591Y558200D03*
X86800Y555700D03*
X95100Y555600D03*
X84900Y579900D03*
X99891Y639300D03*
X86100Y639798D03*
X122000Y555900D03*
X116491Y556000D03*
X116191Y618900D03*
X112291Y626982D03*
X137491Y553300D03*
X143200Y576000D03*
X151200Y567200D03*
X190691Y573300D03*
X191900Y616400D03*
X223491Y548500D03*
X211191Y555100D03*
X216391D03*
X221800Y630900D03*
X239791Y555100D03*
X235491Y625700D03*
X230391D03*
X249400Y597900D03*
X261591Y619900D03*
X266191Y603700D03*
X361691Y38100D03*
X355300Y385800D03*
X357300Y458000D03*
X363700Y458300D03*
X376300Y458400D03*
X370000Y458300D03*
X382600Y458800D03*
X389791Y42200D03*
X406100Y459600D03*
X388400Y458900D03*
X393400Y459200D03*
X408000Y239000D03*
X421900Y459800D03*
X417000Y459700D03*
X460591Y202400D03*
X459591Y641600D03*
X464191Y637000D03*
X459800Y663800D03*
X469900Y202200D03*
X477100Y421900D03*
X486100Y458600D03*
X468791Y583700D03*
Y590200D03*
Y596700D03*
Y632500D03*
X548300Y592900D03*
X550991Y560000D03*
G54D31*
X-37074Y69815D03*
Y109185D03*
X-34374Y284215D03*
Y323585D03*
X26174Y487415D03*
Y526785D03*
G54D40*
X369391Y27100D03*
G54D22*
X-344100Y241000D03*
X-343800Y267200D03*
X-343100Y517000D03*
X-330500Y-14600D03*
X-331200Y11900D03*
X-342400Y488500D03*
G54D13*
X-527009Y-19600D03*
Y142600D03*
X-526509Y337300D03*
X-527009Y558900D03*
G54D32*
X-47900Y503860D03*
Y511340D03*
X733691Y221143D03*
Y228623D03*
Y237143D03*
Y244623D03*
Y253143D03*
Y260623D03*
Y269143D03*
Y276623D03*
X758746Y221143D03*
Y228623D03*
Y237143D03*
Y244623D03*
Y253143D03*
Y260623D03*
Y269143D03*
Y276623D03*
G54D41*
X422091Y20600D03*
X415398D03*
X419091Y225300D03*
X412398D03*
X417884Y431700D03*
X411191D03*
G54D23*
X-344100Y253500D03*
X-343800Y279700D03*
X-343100Y529500D03*
X-330500Y-2100D03*
X-331200Y24400D03*
X-342400Y501000D03*
G54D14*
X-537100Y689200D03*
X-469200Y709900D03*
X-415500Y238300D03*
X-408900Y486900D03*
X-185209Y706798D03*
X-147300Y694400D03*
X-153719Y706798D03*
X-147600Y707000D03*
X-153900Y694100D03*
X-129100Y475200D03*
X-128500Y693800D03*
X-122200Y693900D03*
X-128600Y706600D03*
X-128500Y727100D03*
X-122200Y727500D03*
X-127700Y718400D03*
X-103500Y706900D03*
X-109500Y693500D03*
X-109800Y707000D03*
X-116300Y693800D03*
X-115000Y727200D03*
X-109200D03*
X-102000Y739100D03*
X-98600Y505700D03*
X-97500Y510700D03*
X-86800Y509400D03*
X-92200Y510800D03*
X-90800Y707100D03*
X-84700D03*
X-84500Y694400D03*
X-91200Y694200D03*
X-97600Y693800D03*
X-90800Y727800D03*
X-81000Y727900D03*
X-59000Y237600D03*
X-73800Y488650D03*
X-73100Y508000D03*
X-77550Y510050D03*
X-65589Y694200D03*
X-54100Y233500D03*
X-56400Y247100D03*
X-52900Y374700D03*
X-49450Y377650D03*
X-47900Y503600D03*
X-43600Y587800D03*
X-38700Y577500D03*
X-41500Y583100D03*
X-49600Y589800D03*
X-45100Y729100D03*
X-57400Y727000D03*
X-32100Y576200D03*
X-23550Y577950D03*
X-34900Y735500D03*
X-15300Y580700D03*
X10800Y678100D03*
X18200Y704900D03*
X40800Y570000D03*
X29900Y558900D03*
X32091Y582205D03*
X22591Y617107D03*
X40591Y610900D03*
X40300Y639700D03*
X28200Y713600D03*
X62241Y575941D03*
X52800Y595200D03*
X56900Y593000D03*
X47284Y610900D03*
X48000Y629200D03*
X54300Y707200D03*
X63140Y72000D03*
X70500Y97800D03*
X63660Y88300D03*
X64800Y285300D03*
X73500Y300800D03*
X66300Y301500D03*
X81400Y311000D03*
X68700Y593400D03*
X77900Y601500D03*
X76691Y592693D03*
X68600Y606100D03*
X68445Y616698D03*
X79300Y652300D03*
X67800Y669100D03*
X73400Y706800D03*
X66600Y707300D03*
X79500Y708700D03*
X79300Y694400D03*
X98300Y610200D03*
X90800Y668300D03*
X85600Y652000D03*
X96200Y651800D03*
X97900Y667200D03*
X98300Y706200D03*
X85800Y693800D03*
X85300Y706700D03*
X92000Y705400D03*
X111900Y569546D03*
X111791Y562619D03*
X104800Y665000D03*
X114500Y651900D03*
X119200Y663900D03*
X119000Y672300D03*
X104800Y673400D03*
X110776Y694200D03*
X104800Y706600D03*
X137791Y610500D03*
X129200Y639400D03*
X128400Y663600D03*
X142700Y694200D03*
X135900Y706800D03*
X158100Y649600D03*
X161100Y672800D03*
Y706800D03*
X148500Y694600D03*
X164500Y638400D03*
X170900Y664000D03*
X196791Y578900D03*
X187500Y585400D03*
X187091Y592000D03*
X191900Y609754D03*
X194500Y591700D03*
X198400Y610000D03*
X197800Y650600D03*
X191500Y700500D03*
X218000Y610000D03*
X218284Y623200D03*
X229900Y569500D03*
X259800Y568500D03*
X260191Y561907D03*
X256191Y613107D03*
X258100Y645100D03*
X248800Y663800D03*
X266400Y626800D03*
X271300Y615800D03*
X382800Y253600D03*
X400500Y459500D03*
X413100Y48300D03*
Y124400D03*
X424500Y201500D03*
X417300Y408200D03*
X411400Y459700D03*
X426900Y534400D03*
X414600Y626800D03*
X434400Y41400D03*
X446500Y438500D03*
X432091Y620407D03*
X438300Y647100D03*
X457400Y131000D03*
X451300Y209100D03*
X448900Y337000D03*
X461400Y415400D03*
Y439800D03*
X468200Y463900D03*
X462700Y449900D03*
X491700Y666600D03*
X585700Y460300D03*
X574691Y565000D03*
X574791Y586600D03*
X588800Y666900D03*
X627054Y617300D03*
X635600Y582340D03*
X642500Y599300D03*
X634046Y610700D03*
X650240Y599400D03*
X641540Y630700D03*
X640100Y611700D03*
X657100Y583440D03*
X659900Y606900D03*
X666600Y608100D03*
X666700Y614600D03*
X667200Y629000D03*
X679291Y599558D03*
X733400Y221500D03*
G54D42*
X508291Y35200D03*
Y78300D03*
Y417600D03*
Y460800D03*
X526030Y35200D03*
Y78300D03*
Y417600D03*
Y460800D03*
X538291Y35200D03*
Y78300D03*
Y417600D03*
Y460800D03*
X568291Y35200D03*
X556030D03*
X568291Y78300D03*
X556030D03*
X568291Y417600D03*
X556030D03*
X568291Y460800D03*
X556030D03*
X586030Y35200D03*
Y78300D03*
Y417600D03*
Y460800D03*
X671291Y34400D03*
X670991Y86100D03*
X671291Y416800D03*
X670991Y468600D03*
X689030Y34400D03*
X688730Y86100D03*
X689030Y416800D03*
X688730Y468600D03*
X701291Y34400D03*
X700991Y86100D03*
X701291Y416800D03*
X700991Y468600D03*
X719030Y34400D03*
X731291D03*
X718730Y86100D03*
X730991D03*
X719030Y416800D03*
X731291D03*
X718730Y468600D03*
X730991D03*
X749030Y34400D03*
X748730Y86100D03*
X749030Y416800D03*
X748730Y468600D03*
G54D24*
X-215009Y14062D03*
Y161700D03*
Y269562D03*
Y417200D03*
Y519062D03*
Y666700D03*
G54D15*
X-522830Y-31802D03*
Y130398D03*
X-522330Y325098D03*
X-522830Y546698D03*
X-462830Y-31802D03*
Y130398D03*
X-462330Y325098D03*
X-462830Y546698D03*
G54D33*
X-31909Y2200D03*
Y207800D03*
Y413400D03*
X148953Y2200D03*
Y207800D03*
Y413400D03*
X165491Y2200D03*
Y207800D03*
Y413400D03*
X346353Y2200D03*
Y207800D03*
Y413400D03*
G54D34*
X-24709Y22700D03*
X-24609Y229300D03*
X-25109Y434100D03*
X-14709Y22700D03*
X-4709D03*
X-14609Y229300D03*
X-4609D03*
X-15109Y434100D03*
X-5109D03*
X71291Y22500D03*
X81291D03*
X71191Y229500D03*
X81191D03*
X71091Y434400D03*
X81091D03*
X91291Y22500D03*
X91191Y229500D03*
X91091Y434400D03*
X167091D03*
X167491Y23200D03*
X177491D03*
X167691Y229400D03*
X177691D03*
X177091Y434400D03*
X187091D03*
X187491Y23200D03*
X187691Y229400D03*
X263591Y22300D03*
X264091Y229400D03*
X263491Y434300D03*
X273591Y22300D03*
X283591D03*
X274091Y229400D03*
X284091D03*
X273491Y434300D03*
X283491D03*
G54D16*
X-512009Y40400D03*
Y202600D03*
X-511509Y397300D03*
X-512009Y618900D03*
G54D25*
X-136009Y130700D03*
Y386700D03*
Y635700D03*
G54D43*
X528491Y59400D03*
Y186900D03*
X527991Y314400D03*
X528491Y441800D03*
X567861Y59400D03*
Y186900D03*
X567361Y314400D03*
X567861Y441800D03*
X668791Y59400D03*
Y186900D03*
Y314400D03*
Y441800D03*
X708161Y59400D03*
Y186900D03*
Y314400D03*
Y441800D03*
G54D44*
G01X565333Y661103D02*
Y662623D01*
G01X564250Y661800D02*
X566417D01*
G01X567000Y666900D02*
X562000D01*
X563000Y666140D01*
G01X567000D02*
Y667660D01*
G01X566250Y670607D02*
X566667Y670987D01*
X566917Y671430D01*
X567000Y672000D01*
X566833Y672570D01*
X566500Y673013D01*
X565917Y673330D01*
X565250Y673393D01*
X564583Y673267D01*
X564167Y672950D01*
X563833Y672507D01*
X563750Y672063D01*
X563833Y671620D01*
X564167Y671050D01*
X562000Y671240D01*
Y672950D01*
G01Y675517D02*
X567000Y677100D01*
X562000Y678683D01*
G01X568667Y680300D02*
Y684100D01*
G01X562000Y686540D02*
Y688060D01*
G01Y687300D02*
X567000D01*
G01Y686540D02*
Y688060D01*
G01Y690943D02*
X562000D01*
X567000Y693857D01*
X562000D01*
G01X235900Y686800D02*
X236300Y686400D01*
G54D35*
X-9Y-100D03*
Y205500D03*
Y411100D03*
X19991Y-300D03*
X9991Y-13100D03*
X19991Y205300D03*
X9991Y192500D03*
Y398100D03*
X19991Y410900D03*
X29991Y-13100D03*
Y192500D03*
Y398100D03*
X96391Y-100D03*
Y205500D03*
Y411100D03*
X116391Y-300D03*
X106391Y-13100D03*
X116391Y205300D03*
X106391Y192500D03*
Y398100D03*
X116391Y410900D03*
X126391Y-13100D03*
Y192500D03*
Y398100D03*
X192691Y-100D03*
X202691Y-13100D03*
X192691Y205500D03*
X202691Y192500D03*
Y398100D03*
X192691Y411100D03*
X212691Y-300D03*
X222691Y-13100D03*
X212691Y205300D03*
X222691Y192500D03*
Y398100D03*
X212691Y410900D03*
X289091Y-100D03*
X299091Y-13100D03*
X289091Y205500D03*
X299091Y192500D03*
Y398100D03*
X289091Y411100D03*
X309091Y-300D03*
X319091Y-13100D03*
X309091Y205300D03*
X319091Y192500D03*
Y398100D03*
X309091Y410900D03*
X367291Y-14300D03*
Y10700D03*
Y191300D03*
Y216300D03*
Y397000D03*
Y422000D03*
X387291Y-14300D03*
X377291D03*
X387291Y10700D03*
X377291D03*
X387291Y191300D03*
X377291D03*
X387291Y216300D03*
X377291D03*
X387291Y397000D03*
X377291D03*
X387291Y422000D03*
X377291D03*
X407291Y-14300D03*
X397291D03*
X407291Y10700D03*
X397291D03*
X407291Y191300D03*
X397291D03*
X407291Y216300D03*
X397291D03*
X407291Y397000D03*
X397291D03*
X407291Y422000D03*
X397291D03*
X427291Y-14300D03*
X417291D03*
X427291Y10700D03*
X417291D03*
X427291Y191300D03*
X417291D03*
X427291Y216300D03*
X417291D03*
X427291Y397000D03*
X417291D03*
X427291Y422000D03*
X417291D03*
X437291Y-14300D03*
Y10700D03*
Y191300D03*
Y216300D03*
Y397000D03*
Y422000D03*
G54D17*
X-472009Y40400D03*
Y202600D03*
X-471509Y397300D03*
X-472009Y618900D03*
G54D26*
G01X2091Y-22402D02*
X28091D01*
G01X6291Y32098D02*
Y14598D01*
G01X6591Y182898D02*
X32591D01*
G01X5491Y240198D02*
Y222698D01*
G01X6591Y388398D02*
X32591D01*
G01X5191Y445698D02*
Y428198D01*
G01X23891Y31698D02*
Y14198D01*
G01X24791Y239998D02*
Y222498D01*
G01X24691Y445298D02*
Y427798D01*
G01X103091Y-22602D02*
X129091D01*
G01X101791Y33598D02*
Y16098D01*
G01X103591Y182898D02*
X129591D01*
G01X101491Y240798D02*
Y223298D01*
G01X102591Y388398D02*
X128591D01*
G01X100891Y445998D02*
Y428498D01*
G01X120591Y32898D02*
Y15398D01*
G01X120491Y240798D02*
Y223298D01*
G01X120891Y445898D02*
Y428398D01*
G01X146091Y59398D02*
X172091D01*
G01X145591Y142898D02*
X171591D01*
G01X145591Y264398D02*
X171591D01*
G01X145991Y348298D02*
X171991D01*
G01X145591Y470398D02*
X171591D01*
G01X199591Y-23102D02*
X225591D01*
G01X197791Y34398D02*
Y16898D01*
G01X199591Y182898D02*
X225591D01*
G01X198491Y240798D02*
Y223298D01*
G01X199591Y388398D02*
X225591D01*
G01X196591Y445998D02*
Y428498D01*
G01X218091Y34298D02*
Y16798D01*
G01X216991Y240898D02*
Y223398D01*
G01X216591Y445398D02*
Y427898D01*
G01X296091Y-23102D02*
X322091D01*
G01X293891Y32798D02*
Y15298D01*
G01X295591Y182898D02*
X321591D01*
G01X294091Y239698D02*
Y222198D01*
G01X296091Y388398D02*
X322091D01*
G01X292691Y445898D02*
Y428398D01*
G01X313791Y32198D02*
Y14698D01*
G01X314591Y239198D02*
Y221698D01*
G01X315191Y445398D02*
Y427898D01*
X-136009Y151200D03*
Y407200D03*
Y656200D03*
G54D45*
G01X-604800Y749900D02*
Y754000D01*
X778800D01*
Y-73200D01*
X-604800D01*
Y751000D01*
G54D27*
X-96209Y624100D03*
X-56209D03*
X532991Y533600D03*
X542991D03*
X552991D03*
X562991D03*
G54D18*
X-457009Y-9600D03*
Y152600D03*
X-456509Y347300D03*
X-457009Y568900D03*
G54D36*
X-2509Y153100D03*
X6691D03*
X-2509Y358700D03*
X12391Y-52500D03*
X22191D03*
X7291Y358700D03*
X46691Y153100D03*
X47291Y358700D03*
X62191Y-52500D03*
X56491Y153100D03*
Y358700D03*
X71391Y-52500D03*
X158691Y71600D03*
X158791Y83100D03*
Y123100D03*
X158691Y130600D03*
Y277300D03*
X158791Y288700D03*
Y328700D03*
X158691Y336300D03*
Y482900D03*
X158791Y494300D03*
Y534300D03*
X158691Y541900D03*
G54D46*
G01X-576300Y20100D02*
X-567500D01*
X-527500Y-19900D01*
G01X-580500Y144900D02*
X-529100D01*
X-527000Y142800D01*
G01X-575300Y339000D02*
X-527300D01*
X-525400Y337100D01*
G01X-578000Y559300D02*
X-527900D01*
X-527300Y558700D01*
G01X-457400Y152200D02*
Y122500D01*
X-421000Y86100D01*
Y63400D01*
G01X-457800Y346300D02*
Y333700D01*
X-443900Y319800D01*
X-420000D01*
G01X-456100Y566600D02*
X-422400D01*
X-421000Y568000D01*
G01X-388600Y63200D02*
X-362800D01*
G01X-388300Y319400D02*
X-362800D01*
X-362500Y319100D01*
G01X-387300Y568800D02*
X-363200D01*
G01X-291900Y64100D02*
Y42900D01*
X-290000Y41000D01*
X-211600D01*
X-189200Y63400D01*
X-141400D01*
G01X-292800Y322400D02*
Y294400D01*
X-286700Y288300D01*
X-142700D01*
G01X-294500Y568400D02*
Y550400D01*
X-290900Y546800D01*
X-270300D01*
X-262500Y554600D01*
X-155100D01*
X-154200Y553700D01*
G01X-215700Y417700D02*
X-146500D01*
X-136400Y407600D01*
G01X-215300Y666100D02*
X-145500D01*
X-136200Y656800D01*
G01X-82900Y552000D02*
X1300D01*
X27000Y526300D01*
G01X-5200Y22700D02*
Y39100D01*
X-2600Y41700D01*
X38300D01*
X43100Y36900D01*
Y-33200D01*
X62200Y-52300D01*
X70500D01*
X71200Y-51600D01*
G01X-4800Y230100D02*
Y250600D01*
X-4400Y251000D01*
X37800D01*
X46000Y242800D01*
Y153800D01*
X44900Y152700D01*
G01X-4900Y433800D02*
Y454100D01*
X-700Y458300D01*
X45000D01*
X46000Y457300D01*
Y358500D01*
X45800Y358300D01*
G01X46000Y153800D02*
X55400D01*
X55800Y153400D01*
G01X46000Y358500D02*
X56500D01*
X56700Y358700D01*
G01X110800Y23600D02*
Y58000D01*
X135800Y83000D01*
X450700D01*
X496000Y128300D01*
X632300D01*
X649800Y110800D01*
Y58400D01*
X666700D01*
X668100Y59800D01*
X649800D01*
X649500Y59500D01*
Y-41200D01*
X650400Y-42100D01*
G01X649800Y110800D02*
Y186800D01*
X649900Y186900D01*
X669400D01*
X669100Y186600D01*
X649500D01*
X649300Y186800D01*
Y270100D01*
X649100Y270300D01*
X460700D01*
X441200Y289800D01*
X142700D01*
X110800Y257900D01*
Y229700D01*
X111000Y229500D01*
G01X649100Y270300D02*
Y312700D01*
X650700Y314300D01*
X667300D01*
X666600Y313600D01*
X648900D01*
Y441000D01*
X649800Y441900D01*
X670200D01*
X670700Y441400D01*
X649600D01*
X597000Y494000D01*
X158600D01*
X157200Y495400D01*
X148000D01*
X111000Y458400D01*
Y434900D01*
G01X188900Y23900D02*
Y44800D01*
X191000Y46900D01*
X278500D01*
X283800Y41600D01*
Y22400D01*
G01X187200Y230100D02*
Y251400D01*
X189700Y253900D01*
X281400D01*
X284400Y250900D01*
Y229800D01*
G01X188100Y434700D02*
Y456400D01*
X189500Y457800D01*
X278700D01*
X283300Y453200D01*
Y434300D01*
G54D28*
X-73640Y487800D03*
X-66160D03*
G54D19*
X-387009Y128400D03*
Y375300D03*
X-382009Y611500D03*
X991Y638400D03*
X10991D03*
X305500Y688400D03*
Y678400D03*
X315500Y688400D03*
Y678400D03*
X338000Y688400D03*
Y678400D03*
X348000Y688400D03*
Y678400D03*
X387491Y50900D03*
X377491D03*
X370500Y688400D03*
Y678400D03*
X390500Y688400D03*
Y678400D03*
X410500Y688400D03*
Y678400D03*
X420500Y688400D03*
Y678400D03*
X470500Y688400D03*
Y678400D03*
X499500Y688400D03*
Y678400D03*
X545200Y605900D03*
X566200D03*
X603091Y9398D03*
X613091Y169398D03*
X593091Y369398D03*
Y379398D03*
X605091Y562400D03*
Y552400D03*
Y577800D03*
Y587800D03*
X598000Y688400D03*
Y678400D03*
X608000Y688400D03*
Y678400D03*
X625500Y688400D03*
Y678400D03*
X645991Y515400D03*
X655991D03*
X673000Y688400D03*
Y678400D03*
X733091Y129398D03*
Y369398D03*
Y379398D03*
X743091Y9398D03*
X753091Y159398D03*
X749991Y515400D03*
X759991D03*
G54D37*
X15291Y22700D03*
X15391Y229300D03*
X14891Y434100D03*
X111291Y22500D03*
X111191Y229500D03*
X111091Y434400D03*
X207491Y23200D03*
X207691Y229400D03*
X207091Y434400D03*
X303591Y22300D03*
X304091Y229400D03*
X303491Y434300D03*
G54D38*
X111900Y569546D03*
Y562854D03*
G54D29*
X-58078Y499580D03*
Y507100D03*
Y514620D03*
X47178Y81980D03*
Y97020D03*
Y89500D03*
X49878Y303900D03*
Y296380D03*
Y311420D03*
G54D39*
X359391Y27100D03*
X349391D03*
M02*
