G04 ================== begin FILE IDENTIFICATION RECORD ==================*
G04 Layout Name:  solutionstida01606_powercard_rev17.brd*
G04 Film Name:    SoldermaskBOTTOM*
G04 File Format:  Gerber RS274X*
G04 File Origin:  Cadence Allegro -unreleased*
G04 Origin Date:  Fri Aug 27 11:16:49 2021*
G04 *
G04 Layer:  VIA CLASS/SOLDERMASK_BOTTOM*
G04 Layer:  PIN/SOLDERMASK_BOTTOM*
G04 Layer:  PACKAGE GEOMETRY/SOLDERMASK_BOTTOM*
G04 Layer:  BOARD GEOMETRY/SOLDERMASK_BOTTOM*
G04 Layer:  BOARD GEOMETRY/OUTLINE*
G04 *
G04 Offset:    (0.000 0.000)*
G04 Mirror:    No*
G04 Mode:      Positive*
G04 Rotation:  0*
G04 FullContactRelief:  No*
G04 UndefLineWidth:     8.000*
G04 ================== end FILE IDENTIFICATION RECORD ====================*
%FSLAX25Y25*MOIN*%
%IR0*IPPOS*OFA0.00000B0.00000*MIA0B0*SFA1.00000B1.00000*%
%ADD30O,.075X.1*%
%ADD11C,.3*%
%ADD41C,.103*%
%ADD29C,.13*%
%ADD10C,.23*%
%ADD27C,.15*%
%ADD17C,.121654*%
%ADD13C,.129528*%
%ADD44R,.16X.2*%
%ADD20R,.04X.02*%
%ADD19R,.0505X.02*%
%ADD34O,.091X.051*%
%ADD21O,.395X.21*%
%ADD25C,.06*%
%ADD36C,.07*%
%ADD14C,.08*%
%ADD12C,.035*%
%ADD33C,.050004*%
%ADD37C,.055*%
%ADD18C,.083*%
%ADD26C,.075*%
%ADD24R,.06X.06*%
%ADD28C,.095*%
%ADD32C,.053071*%
%ADD23R,.072X.072*%
%ADD38R,.055X.055*%
%ADD42C,.07087*%
%ADD46C,.023685*%
%ADD31R,.03937X.043307*%
%ADD39R,.043307X.03937*%
%ADD43C,.066933*%
%ADD15C,.069291*%
%ADD45R,.06693X.05906*%
%ADD35R,.05906X.06693*%
%ADD22R,.07874X.047244*%
%ADD16R,.069291X.069291*%
%ADD40R,.047464X.098425*%
%ADD47C,.008*%
G75*
%LPD*%
G75*
G54D10*
X21700Y20502D03*
X23300Y766002D03*
X145100Y342402D03*
X584500Y21502D03*
Y766002D03*
X1072100Y102602D03*
Y766002D03*
X1361500Y16902D03*
X1363000Y771402D03*
G54D20*
X189075Y101462D03*
Y108942D03*
Y356462D03*
Y363942D03*
Y606462D03*
Y613942D03*
G54D11*
X29300Y94002D03*
Y213202D03*
X29800Y407902D03*
X29300Y629502D03*
X1119800Y28602D03*
X1257800Y28502D03*
G54D12*
X20116Y315933D03*
X20500Y512402D03*
X47700Y255302D03*
X45100Y315702D03*
X48200Y452002D03*
X45600Y512402D03*
X46600Y672402D03*
X64000Y757202D03*
X69900Y764302D03*
X98000Y169370D03*
X82500Y354902D03*
X101100Y529002D03*
X82500Y549502D03*
X87800Y765902D03*
X109600Y250602D03*
X103900Y288102D03*
X104900Y335302D03*
Y342402D03*
Y349502D03*
X104400Y534202D03*
X117900Y537002D03*
X123000Y80000D03*
X132800Y243902D03*
X125400Y250602D03*
X124600Y513002D03*
X134900Y555202D03*
Y548102D03*
Y562302D03*
X138250Y756652D03*
X132000Y759902D03*
X136000Y763902D03*
X144900Y264002D03*
X146900Y513002D03*
X142500Y760902D03*
X146000Y754402D03*
X150000Y758402D03*
X182076Y109576D03*
Y100824D03*
X177200Y128000D03*
X177000Y150900D03*
X177100Y143200D03*
Y135600D03*
X181000Y283802D03*
X182000Y355802D03*
X182076Y364576D03*
X177200Y394200D03*
Y389100D03*
Y383000D03*
Y398900D03*
X180900Y501902D03*
X182000Y605802D03*
X182076Y614576D03*
X178290Y636550D03*
Y630050D03*
Y649550D03*
Y643050D03*
X184804Y19000D03*
X201800Y19502D03*
X197200Y23102D03*
X194000Y40202D03*
X190922Y89478D03*
X195600Y101502D03*
X196232Y108802D03*
X187106Y115685D03*
X201800Y274502D03*
X197200Y278102D03*
X194000Y295202D03*
X194500Y356302D03*
X190922Y344478D03*
X196232Y363802D03*
X187106Y370686D03*
X189100Y537102D03*
X201800Y524502D03*
X196200Y528202D03*
X194000Y545202D03*
X190900Y594500D03*
X195600Y606502D03*
X196232Y613802D03*
X187106Y620685D03*
X219400Y40202D03*
X205700Y40402D03*
X220945Y76955D03*
X210300Y109002D03*
X209600Y199002D03*
X211900Y252002D03*
X209200Y256602D03*
X219400Y295202D03*
X205900Y295402D03*
X220945Y331955D03*
X210300Y364002D03*
X208400Y445902D03*
X206000Y501902D03*
X219400Y545202D03*
X205900Y545402D03*
X220945Y581955D03*
X210300Y614002D03*
X223100Y634200D03*
X219700Y640002D03*
X223140Y645500D03*
X212900Y682302D03*
X225100Y34602D03*
X238400Y56402D03*
X226643Y82654D03*
X227700Y89302D03*
X225100Y132400D03*
X225700Y127500D03*
X225200Y137900D03*
X225800Y142700D03*
X225100Y270702D03*
Y289602D03*
X238400Y311402D03*
X226643Y337654D03*
X227700Y344302D03*
X225900Y383200D03*
X225700Y393200D03*
X225100Y388600D03*
X225900Y397700D03*
X225100Y539602D03*
X238400Y561402D03*
X227700Y594302D03*
X226643Y587654D03*
X262100Y29302D03*
X249300Y53602D03*
X248100Y62602D03*
X253800Y65502D03*
X254600Y73502D03*
X252200Y89302D03*
X246200D03*
X258200D03*
X262100Y284302D03*
X249400Y308502D03*
X254600Y328502D03*
X253800Y320502D03*
X248100Y317602D03*
X258200Y344302D03*
X246200D03*
X252200D03*
X262100Y534302D03*
X249300Y558602D03*
X253800Y570502D03*
X254600Y578502D03*
X248100Y567602D03*
X258200Y594302D03*
X252200D03*
X246200D03*
X273900Y23702D03*
X280900Y45702D03*
X278600Y39602D03*
Y294602D03*
X273900Y278702D03*
X280900Y300702D03*
X273900Y528702D03*
X280700Y550002D03*
X278600Y544602D03*
X302400Y48502D03*
X302911Y35302D03*
X302450Y41902D03*
X302400Y290302D03*
Y296902D03*
Y303502D03*
Y540302D03*
Y553502D03*
Y546902D03*
X310300Y24302D03*
X309900Y278402D03*
X310600Y528702D03*
X326000Y19902D03*
X363200Y34654D03*
Y289202D03*
Y539043D03*
X381100Y34654D03*
X380900Y290902D03*
Y540902D03*
X401900Y38721D03*
X404100Y53102D03*
X401800Y293702D03*
X404100Y308102D03*
X401800Y543702D03*
X404100Y558102D03*
X407300Y59302D03*
X407400Y314402D03*
X407500Y564502D03*
X505900Y159002D03*
X491900D03*
X498900Y231802D03*
Y217602D03*
Y224702D03*
X491900Y247802D03*
X498900Y306402D03*
Y313502D03*
Y299302D03*
X491900Y333002D03*
X498900Y491002D03*
Y485702D03*
Y496802D03*
X491700Y538902D03*
Y546002D03*
X518900Y349002D03*
X516900Y358002D03*
X524600Y577702D03*
X572900Y563002D03*
X569900Y560002D03*
Y570002D03*
X572900Y567002D03*
X576800Y684002D03*
X583900D03*
X582800Y712102D03*
X587200D03*
X596900Y370002D03*
X606100Y700802D03*
Y696402D03*
X605193Y683913D03*
X591000Y684002D03*
X598100D03*
X602000Y720602D03*
X616900Y63802D03*
Y270302D03*
Y477202D03*
X609100Y720602D03*
X616200D03*
X636900Y63802D03*
Y270202D03*
Y475102D03*
X643421Y630550D03*
X638950Y647718D03*
X629500Y684454D03*
X642500Y681502D03*
X667535Y172106D03*
X669261Y168106D03*
X669727Y374000D03*
X668000Y378000D03*
X658850Y627950D03*
X655000Y672400D03*
X658900Y681502D03*
X685600Y204002D03*
X682400Y200202D03*
X670900Y512002D03*
X681900Y553002D03*
Y549002D03*
X669863Y624289D03*
X684900Y623402D03*
X679500Y628802D03*
X673301Y646100D03*
X670500Y663902D03*
X676000Y669402D03*
X683600Y667702D03*
X680150Y693188D03*
X687400Y710000D03*
X684600Y724802D03*
X675100D03*
X681500Y761502D03*
X676800Y762102D03*
X687800Y761502D03*
X684500Y764602D03*
X692900Y163502D03*
Y369702D03*
X697900Y554002D03*
X701900D03*
X690900Y574502D03*
X706100Y595402D03*
X700100Y626202D03*
X705300D03*
X691800Y652000D03*
X690100Y667702D03*
X707136Y695374D03*
X696500Y696500D03*
X700941Y696800D03*
X706800Y709902D03*
X694000Y724802D03*
X709700D03*
X709800Y761402D03*
X697200Y760502D03*
X690800Y764602D03*
X703900Y767402D03*
X706800Y764502D03*
X713300Y63802D03*
X715700Y157202D03*
Y162202D03*
X713300Y270802D03*
X715700Y367802D03*
X713300Y476302D03*
X715700Y575302D03*
Y570302D03*
X710500Y595402D03*
X728600Y626214D03*
X723400Y626420D03*
X724300Y696802D03*
X719200D03*
X718800Y708702D03*
X719300Y742402D03*
X712900Y764002D03*
X733300Y64302D03*
X738500Y267402D03*
X733300Y269702D03*
Y475002D03*
X744400Y623902D03*
X749000Y628702D03*
X744700Y676302D03*
X731700Y710402D03*
X738100Y725102D03*
Y761302D03*
X733200Y762302D03*
X758500Y267402D03*
X758600Y639702D03*
X752900Y643902D03*
X762200Y772102D03*
X766000Y763502D03*
X789600Y713402D03*
X775300D03*
X782000Y724202D03*
X775900Y760803D03*
X787500Y779002D03*
X791300Y782302D03*
X781800Y774902D03*
X809600Y64202D03*
Y270002D03*
Y476002D03*
X797600Y643902D03*
X809700Y646102D03*
X794100Y668902D03*
X801600Y667202D03*
X808100D03*
X805200Y675802D03*
Y692402D03*
X801500Y709402D03*
X807700Y725402D03*
X806148Y745105D03*
X810557Y745200D03*
X830400Y619102D03*
X818100Y625702D03*
X823300D03*
X827900Y677102D03*
X828108Y713386D03*
X826200Y716902D03*
X823700Y724602D03*
X814611Y744905D03*
X816900Y760803D03*
X829500Y761302D03*
X825800Y763902D03*
X846700Y625702D03*
X841500D03*
X851796Y664702D03*
X832300Y696202D03*
X842400Y696302D03*
X837300D03*
X837900Y725502D03*
X846000Y725702D03*
X851500Y761302D03*
X867000Y628402D03*
X867100Y644802D03*
X863100Y678602D03*
X871400Y682802D03*
X868500Y690502D03*
X857200Y720402D03*
X879000Y624802D03*
X876900Y658702D03*
X883970Y651300D03*
X876900Y663102D03*
X882000Y691502D03*
X906000Y63802D03*
Y270002D03*
Y476302D03*
X900300Y625102D03*
X904964Y625137D03*
X912800Y631500D03*
X909800Y645102D03*
X910000Y665002D03*
X893100Y678202D03*
X903800Y733602D03*
X910900D03*
X931374Y625626D03*
X918640Y625625D03*
X924996D03*
X926900Y678102D03*
X921300Y679802D03*
X922500Y693702D03*
X931500Y689702D03*
X921400Y686102D03*
X918000Y733602D03*
X943000Y612000D03*
X949000D03*
X938021Y625625D03*
X943000Y659202D03*
X936170Y651701D03*
X943000Y663602D03*
X936900Y709902D03*
X968600Y108702D03*
X963900Y253002D03*
X971500Y313102D03*
X960400Y460002D03*
X964900D03*
X961900Y495002D03*
X963200Y532702D03*
X986500Y296602D03*
X996700Y112802D03*
X1002900Y99302D03*
X997700Y500802D03*
X1009600Y506602D03*
X1004000Y523202D03*
X1006800Y529702D03*
X1012300Y526346D03*
X1003500Y765102D03*
X1016100Y308302D03*
X1025000Y512902D03*
X1019200Y509902D03*
X1016284Y525994D03*
X1022000Y523202D03*
X1030400Y677902D03*
X1025300Y673702D03*
X1028800Y703202D03*
X1041000Y99902D03*
X1039400Y93802D03*
X1044400Y299202D03*
X1048700Y513002D03*
X1043971Y508748D03*
X1042900Y512602D03*
X1041900Y505002D03*
X1047800Y523502D03*
X1051100Y656002D03*
X1044400Y661302D03*
X1039100Y684902D03*
X1048300Y703202D03*
X1041800D03*
X1035300D03*
X1038200Y724202D03*
X1058100Y272902D03*
X1067500Y273002D03*
X1074700Y289302D03*
X1067500Y480302D03*
X1075000Y491102D03*
X1063900Y640002D03*
X1071100Y707602D03*
X1066500Y712202D03*
X1066600Y720202D03*
X1082600Y516202D03*
X1083600Y660802D03*
Y654302D03*
X1075700Y660802D03*
Y654302D03*
Y667302D03*
X1083600D03*
X1087800Y701302D03*
Y694802D03*
X1075700Y703102D03*
X1087800Y707802D03*
X1097800Y645002D03*
X1113800Y695402D03*
Y701902D03*
X1118800Y639102D03*
Y646202D03*
Y653302D03*
X1129600Y729302D03*
X1141000Y630602D03*
Y637702D03*
Y623502D03*
X1157900Y630602D03*
X1176600Y636002D03*
X1171700D03*
X1156800Y663202D03*
X1170300Y667802D03*
X1175200D03*
X1195900Y708102D03*
X1188984Y734473D03*
X1181400Y743102D03*
X1188900Y758502D03*
X1181400Y767102D03*
X1243800Y634600D03*
X1256800Y628100D03*
X1250300D03*
Y634600D03*
X1256800D03*
X1243800Y628100D03*
X1256700Y685102D03*
X1250200D03*
X1243700D03*
X1256700Y691602D03*
X1250200D03*
X1243700D03*
X1256700Y698102D03*
X1250200D03*
X1243700D03*
X1256700Y704602D03*
X1250200D03*
X1243700D03*
X1263300Y628100D03*
X1269800D03*
X1263300Y634600D03*
X1269800D03*
X1269700Y685102D03*
X1263200D03*
X1269700Y691602D03*
X1263200D03*
X1314600Y689202D03*
X1307900Y689102D03*
X1301400D03*
Y695602D03*
X1314600Y695702D03*
X1307900Y695602D03*
X1301400Y702102D03*
X1314600Y702202D03*
X1307900Y702102D03*
X1314600Y708702D03*
X1307900Y708602D03*
X1301400D03*
X1314600Y715202D03*
X1308100D03*
X1301600D03*
X1321100Y689202D03*
X1327600D03*
Y695702D03*
X1321100D03*
Y702202D03*
X1327600D03*
Y708702D03*
X1321100D03*
Y715202D03*
X1327600D03*
X1360200Y680502D03*
X1371000Y665702D03*
X1370900Y674402D03*
X1362500Y695602D03*
G54D21*
X245700Y135002D03*
Y390002D03*
Y640002D03*
X315700Y135002D03*
Y390002D03*
Y640002D03*
X464500Y135102D03*
Y392002D03*
Y640502D03*
X534500Y135102D03*
Y392002D03*
Y640502D03*
G54D30*
X626900Y137002D03*
Y187002D03*
X627300Y342802D03*
Y392802D03*
X626900Y548002D03*
Y598002D03*
X646900Y137002D03*
X636900D03*
Y187002D03*
X646900D03*
X647300Y342802D03*
X637300D03*
Y392802D03*
X647300D03*
X646900Y548002D03*
X636900D03*
Y598002D03*
X646900D03*
G54D40*
X1115200Y105802D03*
Y148902D03*
Y488202D03*
Y531402D03*
X1132939Y105802D03*
Y148902D03*
Y488202D03*
Y531402D03*
X1145200Y105802D03*
Y148902D03*
Y488202D03*
Y531402D03*
X1175200Y105802D03*
X1162939D03*
X1175200Y148902D03*
X1162939D03*
X1175200Y488202D03*
X1162939D03*
X1175200Y531402D03*
X1162939D03*
X1192939Y105802D03*
Y148902D03*
Y488202D03*
Y531402D03*
X1278200Y105002D03*
X1277900Y156702D03*
X1278200Y487402D03*
X1277900Y539202D03*
X1295939Y105002D03*
X1295639Y156702D03*
X1295939Y487402D03*
X1295639Y539202D03*
X1308200Y105002D03*
X1307900Y156702D03*
X1308200Y487402D03*
X1307900Y539202D03*
X1325939Y105002D03*
X1338200D03*
X1325639Y156702D03*
X1337900D03*
X1325939Y487402D03*
X1338200D03*
X1325639Y539202D03*
X1337900D03*
X1355939Y105002D03*
X1355639Y156702D03*
X1355939Y487402D03*
X1355639Y539202D03*
G54D22*
X270400Y29202D03*
Y41800D03*
Y284202D03*
Y296800D03*
Y533103D03*
Y545702D03*
G54D31*
X666535Y188957D03*
Y195650D03*
X665500Y394455D03*
Y401148D03*
X672900Y188954D03*
Y195646D03*
X671900Y394409D03*
Y401102D03*
G54D13*
X79900Y51002D03*
Y213202D03*
X80400Y407902D03*
X79900Y629502D03*
G54D23*
X391900Y84664D03*
Y232302D03*
Y340164D03*
Y487802D03*
Y589664D03*
Y737302D03*
G54D32*
X650517Y743553D03*
X879258D03*
G54D14*
X84079Y38800D03*
Y201000D03*
X84579Y395700D03*
X84079Y617300D03*
X144079Y38800D03*
Y201000D03*
X144579Y395700D03*
X144079Y617300D03*
X311400Y13002D03*
X312200Y267802D03*
X311800Y518002D03*
X351400Y13002D03*
X352200Y267802D03*
X351800Y518002D03*
G54D41*
X1135400Y130002D03*
Y257502D03*
X1134900Y385002D03*
X1135400Y512402D03*
X1174770Y130002D03*
Y257502D03*
X1174270Y385002D03*
X1174770Y512402D03*
X1275700Y130002D03*
Y257502D03*
Y385002D03*
Y512402D03*
X1315070Y130002D03*
Y257502D03*
Y385002D03*
Y512402D03*
G54D15*
X94900Y111002D03*
Y273202D03*
X95400Y467902D03*
X94900Y689502D03*
G54D42*
X1211259Y749401D03*
G54D24*
X470900Y201302D03*
Y457302D03*
Y706302D03*
G54D33*
X659769Y743553D03*
X870399Y749065D03*
X940852Y743553D03*
X1044006Y749222D03*
G54D16*
X134900Y111002D03*
Y273202D03*
X135400Y467902D03*
X134900Y689502D03*
G54D43*
X1211259Y767117D03*
G54D25*
G01X614500Y48000D02*
X640500D01*
G01X613000Y105000D02*
Y87500D01*
G01X613500Y253500D02*
X639500D01*
G01X613500Y310500D02*
Y293000D01*
G01Y459000D02*
X639500D01*
G01X613000Y516000D02*
Y498500D01*
G01X631000Y105000D02*
Y87500D01*
G01X631500Y310500D02*
Y293000D01*
G01X631000Y516000D02*
Y498500D01*
G01X710000Y48000D02*
X736000D01*
G01X709500Y103500D02*
Y86000D01*
G01X710500Y253500D02*
X736500D01*
G01X709500Y310500D02*
Y293000D01*
G01Y459000D02*
X735500D01*
G01X709000Y516000D02*
Y498500D01*
G01X727500Y103500D02*
Y86000D01*
G01Y310500D02*
Y293000D01*
G01X727000Y516000D02*
Y498500D01*
G01X753000Y130000D02*
X779000D01*
G01X752500Y213500D02*
X778500D01*
G01X752500Y335000D02*
X778500D01*
G01X752900Y418900D02*
X778900D01*
G01X752500Y541000D02*
X778500D01*
G01X806500Y47500D02*
X832500D01*
G01X805500Y105000D02*
Y87500D01*
G01X806500Y253500D02*
X832500D01*
G01X805900Y310500D02*
Y293000D01*
G01X806500Y459000D02*
X832500D01*
G01X805500Y516000D02*
Y498500D01*
G01X823500Y105000D02*
Y87500D01*
G01Y310500D02*
Y293000D01*
G01Y516000D02*
Y498500D01*
G01X903000Y47500D02*
X929000D01*
G01X902700Y104600D02*
Y87100D01*
G01X902500Y253500D02*
X928500D01*
G01X902500Y310500D02*
Y293000D01*
G01X903000Y459000D02*
X929000D01*
G01X902000Y516000D02*
Y498500D01*
G01X920000Y104500D02*
Y87000D01*
G01X920500Y310500D02*
Y293000D01*
G01X920000Y516000D02*
Y498500D01*
X470900Y221802D03*
Y477802D03*
Y726802D03*
G54D34*
X676939Y150752D03*
Y173252D03*
Y158252D03*
Y165752D03*
X677339Y356552D03*
Y364052D03*
Y371552D03*
Y379052D03*
X676939Y569252D03*
Y561752D03*
Y576752D03*
Y584252D03*
G54D35*
X718300Y764002D03*
X725780D03*
G54D26*
X510700Y694702D03*
X550700D03*
X1139900Y604202D03*
X1149900D03*
X1159900D03*
X1169900D03*
X1277100Y724102D03*
Y704102D03*
G54D44*
X1306900Y646802D03*
X1341900D03*
G54D17*
X149900Y61002D03*
Y223202D03*
X150400Y417902D03*
X149900Y639502D03*
G54D45*
X1340600Y291745D03*
Y299225D03*
Y307745D03*
Y315225D03*
Y323745D03*
Y331225D03*
Y339745D03*
Y347225D03*
X1365655Y291745D03*
Y299225D03*
Y307745D03*
Y315225D03*
Y323745D03*
Y331225D03*
Y339745D03*
Y347225D03*
G54D18*
X179900Y43002D03*
Y295202D03*
X180000Y545202D03*
X219900Y199002D03*
Y445902D03*
X224900Y682102D03*
X607900Y709002D03*
X617900D03*
X636000Y709902D03*
Y719902D03*
X814200Y769302D03*
Y779302D03*
X842300Y778902D03*
X852300D03*
X888900Y716002D03*
X898900D03*
X994400Y121502D03*
X984400D03*
X994400Y327102D03*
X984400D03*
X994400Y532702D03*
X984400D03*
X1107600Y638802D03*
X1137800Y774102D03*
X1168000Y779902D03*
X1210000Y80000D03*
X1220000Y240000D03*
X1200000Y440000D03*
Y450000D03*
X1212000Y633002D03*
Y623002D03*
Y648402D03*
Y658402D03*
X1237100Y724202D03*
X1252900Y586002D03*
X1247100Y724202D03*
X1262900Y586002D03*
X1340000Y200000D03*
Y440000D03*
Y450000D03*
X1350000Y80000D03*
X1360000Y230000D03*
X1356900Y586002D03*
X1366900D03*
G54D36*
X974200Y73802D03*
Y63802D03*
Y269402D03*
Y279402D03*
Y475102D03*
Y485102D03*
X994200Y73802D03*
X984200Y63802D03*
X994200D03*
X984200Y73802D03*
Y269402D03*
X994200D03*
Y279402D03*
X984200D03*
Y475102D03*
X994200D03*
Y485102D03*
X1004200Y63802D03*
X1014200D03*
X1004200Y269402D03*
X1014200D03*
X1004200Y475102D03*
X1014200D03*
X1024200Y63802D03*
Y73802D03*
X1034200D03*
Y63802D03*
X1024200Y269402D03*
X1034200D03*
X1024200Y279402D03*
X1034200D03*
X1024200Y475102D03*
X1034200D03*
X1024200Y485102D03*
X1034200D03*
X1044200Y63802D03*
Y73802D03*
Y269402D03*
Y475102D03*
G54D27*
X575000Y72802D03*
Y278402D03*
Y484002D03*
X755862Y72802D03*
Y278402D03*
Y484002D03*
X772400Y72802D03*
Y278402D03*
Y484002D03*
X953262Y72802D03*
Y278402D03*
Y484002D03*
G54D46*
X1338410Y690087D03*
X1349631Y692646D03*
Y687527D03*
X1351875Y690087D03*
X1347387D03*
X1342898D03*
X1340654Y687527D03*
Y692646D03*
X1345142D03*
Y687527D03*
G54D28*
X600400Y90802D03*
Y296402D03*
Y502102D03*
X621800Y90802D03*
Y296402D03*
Y502102D03*
X643300Y90802D03*
Y296402D03*
Y502102D03*
X696800Y90802D03*
Y296402D03*
Y502102D03*
X718200Y90802D03*
Y296402D03*
Y502102D03*
X739700Y90802D03*
Y296402D03*
Y502102D03*
X793100Y90802D03*
Y296402D03*
Y502102D03*
X814500Y90802D03*
Y296402D03*
Y502102D03*
X836000Y90802D03*
Y296402D03*
Y502102D03*
X889500Y90802D03*
Y296402D03*
Y502102D03*
X910900Y90802D03*
Y296402D03*
Y502102D03*
X932400Y90802D03*
Y296402D03*
Y502102D03*
G54D37*
X966300Y97702D03*
X956300D03*
X966300Y303402D03*
X956300D03*
X966400Y512202D03*
X956400D03*
G54D19*
X182000Y105202D03*
Y360202D03*
Y610202D03*
G54D47*
G01X1174633Y733703D02*
Y735223D01*
G01X1173550Y734400D02*
X1175717D01*
G01X1176300Y739500D02*
X1171300D01*
X1172300Y738740D01*
G01X1176300D02*
Y740260D01*
G01X1175550Y743207D02*
X1175967Y743587D01*
X1176217Y744030D01*
X1176300Y744600D01*
X1176133Y745170D01*
X1175800Y745613D01*
X1175217Y745930D01*
X1174550Y745993D01*
X1173883Y745867D01*
X1173467Y745550D01*
X1173133Y745107D01*
X1173050Y744663D01*
X1173133Y744220D01*
X1173467Y743650D01*
X1171300Y743840D01*
Y745550D01*
G01Y748117D02*
X1176300Y749700D01*
X1171300Y751283D01*
G01X1177967Y752900D02*
Y756700D01*
G01X1171300Y759140D02*
Y760660D01*
G01Y759900D02*
X1176300D01*
G01Y759140D02*
Y760660D01*
G01Y763543D02*
X1171300D01*
X1176300Y766457D01*
X1171300D01*
G01X1377953Y0D02*
Y787402D01*
X0D01*
Y0D01*
X1377953D01*
G01X943553Y743545D02*
G03I-2701J0D01*
G01X1046702Y749446D02*
G03I-2701J0D01*
G54D38*
X976300Y97702D03*
Y303402D03*
X976400Y512202D03*
G54D29*
X604400Y223702D03*
X613600D03*
X604400Y429302D03*
X619300Y18102D03*
X629100D03*
X614200Y429302D03*
X653600Y223702D03*
X654200Y429302D03*
X669100Y18102D03*
X663400Y223702D03*
Y429302D03*
X678300Y18102D03*
X765600Y142202D03*
X765700Y153702D03*
Y193702D03*
X765600Y201202D03*
Y347902D03*
X765700Y359302D03*
Y399302D03*
X765600Y406902D03*
Y553502D03*
X765700Y564902D03*
Y604902D03*
X765600Y612502D03*
G54D39*
X1025200Y83702D03*
X1018507D03*
X1025200Y289302D03*
X1018507D03*
X1025593Y494902D03*
X1018900D03*
M02*
