M48
INCH
T01C.008
T02C.02
T03C.031
T04C.032
T05C.033071
T06C.036
T07C.04
T08C.042
T09C.046063
T10C.05
T11C.051
T12C.052
T13C.058
T14C.066
T15C.08
T16C.081102
T17C.083
T18C.08622
T19C.105
T20C.18
T21C.05
T22C.066929
T23C.070866
T24C.21
;LEADER: 12 
;HEADER: 
;CODE  : ASCII 
;FILE  : solutionstida01606_powercard_rev17-1-4.drl for  ... layers TOP and BOTTOM
;DESIGN: solutionstida01606_powercard_rev17.brd
;T01 Holesize 1. = 8.000000 Tolerance = +0.000000/-0.000000 PLATED MILS Quantity = 10
;T02 Holesize 2. = 20.000000 Tolerance = +0.000000/-0.000000 PLATED MILS Quantity = 521
;T03 Holesize 3. = 31.000000 Tolerance = +0.000000/-0.000000 PLATED MILS Quantity = 9
;T04 Holesize 4. = 32.000000 Tolerance = +0.000000/-0.000000 PLATED MILS Quantity = 12
;T05 Holesize 5. = 33.071000 Tolerance = +0.000000/-0.000000 PLATED MILS Quantity = 2
;T06 Holesize 6. = 36.000000 Tolerance = +0.000000/-0.000000 PLATED MILS Quantity = 8
;T07 Holesize 7. = 40.000000 Tolerance = +0.000000/-0.000000 PLATED MILS Quantity = 89
;T08 Holesize 8. = 42.000000 Tolerance = +0.000000/-0.000000 PLATED MILS Quantity = 8
;T09 Holesize 9. = 46.063000 Tolerance = +0.000000/-0.000000 PLATED MILS Quantity = 8
;T10 Holesize 10. = 50.000000 Tolerance = +0.000000/-0.000000 PLATED MILS Quantity = 6
;T11 Holesize 11. = 51.000000 Tolerance = +0.000000/-0.000000 PLATED MILS Quantity = 18
;T12 Holesize 12. = 52.000000 Tolerance = +0.000000/-0.000000 PLATED MILS Quantity = 2
;T13 Holesize 13. = 58.000000 Tolerance = +0.000000/-0.000000 PLATED MILS Quantity = 30
;T14 Holesize 14. = 66.000000 Tolerance = +0.000000/-0.000000 PLATED MILS Quantity = 36
;T15 Holesize 15. = 80.000000 Tolerance = +0.000000/-0.000000 PLATED MILS Quantity = 24
;T16 Holesize 16. = 81.102000 Tolerance = +0.000000/-0.000000 PLATED MILS Quantity = 4
;T17 Holesize 17. = 83.000000 Tolerance = +0.000000/-0.000000 PLATED MILS Quantity = 16
;T18 Holesize 18. = 86.220000 Tolerance = +0.000000/-0.000000 PLATED MILS Quantity = 4
;T19 Holesize 19. = 105.000000 Tolerance = +0.000000/-0.000000 PLATED MILS Quantity = 12
;T20 Holesize 20. = 180.000000 Tolerance = +0.000000/-0.000000 PLATED MILS Quantity = 6
;T21 Holesize 21. = 50.000000 Tolerance = +0.000000/-0.000000 NON_PLATED MILS Quantity = 4
;T22 Holesize 22. = 66.929000 Tolerance = +0.000000/-0.000000 NON_PLATED MILS Quantity = 1
;T23 Holesize 23. = 70.866000 Tolerance = +0.000000/-0.000000 NON_PLATED MILS Quantity = 1
;T24 Holesize 24. = 210.000000 Tolerance = +0.000000/-0.000000 NON_PLATED MILS Quantity = 9
%
G90
T01
X1345142Y0687528
X1345142Y0692646
X1340654Y0692646
X1340654Y0687528
X1338410Y0690087
R03X0004488
X1349631Y0687528
X1349631Y0692646
T02
X0883970Y0651300
X0912800Y0631500
X0936170Y0651701
X0700941Y0696800
X0696500Y0696500
X1370900Y0674402
X1371000Y0665702
X1301600Y0715202
R02X0006500
X1362500Y0695602
X1327600Y0715202
X1321100Y0715202
X1301400Y0708602
X1307900Y0708602
X1314600Y0708702
R02X0006500
X1307900Y0702102
X1314600Y0702202
X1301400Y0702102
X1327600Y0702202
X1321100Y0702202
X1307900Y0695602
X1314600Y0695702
X1301400Y0695602
X1321100Y0695702
X1327600Y0695702
X1301400Y0689102
X1307900Y0689102
X1314600Y0689202
X1327600Y0689202
X1321100Y0689202
X1243700Y0704602
R02X0006500
X1243700Y0698102
R02X0006500
X1243700Y0691602
R04X0006500
X1243700Y0685102
R04X0006500
X1188900Y0758502
X1181400Y0767102
X1181400Y0743102
X1188984Y0734473
X1195900Y0708102
X1175200Y0667802
X1170300Y0667802
X1171700Y0636002
X1176600Y0636002
X0986500Y0296602
X1002900Y0099302
X1141000Y0623502
X1074700Y0289302
X1082600Y0516202
X1141000Y0637702
X1141000Y0630602
X1113800Y0695402
X1113800Y0701902
X1087800Y0694802
X1087800Y0707802
X1087800Y0701302
X1097800Y0645002
X1063900Y0640002
X1038200Y0724202
X1039100Y0684902
X1051100Y0656002
X1044400Y0661302
X1025300Y0673702
X1030400Y0677902
X0938021Y0625625
X0921400Y0686102
X0921300Y0679802
X0926900Y0678102
X0924996Y0625625
X0918640Y0625625
X0893100Y0678202
X0909800Y0645102
X0879000Y0624802
X0857200Y0720402
X0863100Y0678602
X0867000Y0628402
X0823700Y0724602
X0807700Y0725402
X0805200Y0675802
X0827900Y0677102
X0808100Y0667202
X0801600Y0667202
X0809700Y0646102
X0781800Y0774902
X0791300Y0782302
X0782000Y0724202
X0733200Y0762302
X0738100Y0725102
X0744700Y0676302
X0749000Y0628702
X0719300Y0742402
X0697200Y0760502
X0709700Y0724802
X0694000Y0724802
X0707136Y0695374
X0687800Y0761502
X0676800Y0762102
X0675100Y0724802
X0684600Y0724802
X0680150Y0693188
X0683600Y0667702
X0690100Y0667702
X0673301Y0646100
X0679500Y0628802
X0690900Y0574502
X0684900Y0623402
X0655000Y0672400
X0642500Y0681502
X0629500Y0684453
X0643421Y0630550
X0380900Y0540902
X0401800Y0293702
X0363200Y0539043
X0380900Y0290902
X0363200Y0289202
X0404100Y0558102
X0583900Y0684002
X0576800Y0684002
X0598100Y0684002
X0591000Y0684002
X0605193Y0683913
X0401800Y0543702
X0518900Y0349002
X0498900Y0299302
X0596900Y0370002
X0692900Y0369702
X0498900Y0313502
X0498900Y0306402
X0498900Y0224702
X0498900Y0217602
X0692900Y0163502
X0404100Y0308102
X0491700Y0546002
X0498900Y0496802
X0491700Y0538902
X0498900Y0485702
X0498900Y0491002
X0498900Y0231802
X0404100Y0053102
X0401900Y0038721
X0363200Y0034654
X0381100Y0034654
X0194000Y0040202
X0150000Y0758402
X0197200Y0023102
X0146000Y0754402
X0201800Y0019502
X0194000Y0545202
X0196200Y0528202
X0201800Y0524502
X0101100Y0529002
X0136000Y0763902
X0132000Y0759902
X0069900Y0764302
X0064000Y0757202
X0201800Y0274502
X0194000Y0295202
X0142500Y0760902
X0197200Y0278102
X0109600Y0250602
X0125400Y0250602
X0138250Y0756652
X1041900Y0505002
X0752900Y0643902
X0797600Y0643902
X0682400Y0200202
X0681500Y0761502
X0996700Y0112802
X0809600Y0476002
X0906000Y0476302
X0669863Y0624289
X0687400Y0710000
X0719200Y0696802
X0587200Y0712102
X0724300Y0696802
X0582800Y0712102
X1012300Y0526346
X0906000Y0270002
X0809600Y0270002
X0723400Y0626420
X0045600Y0512402
X1009600Y0506602
X0728600Y0626214
X0020500Y0512402
X0961900Y0495002
X1006800Y0529702
X0964900Y0460002
X0705300Y0626202
X0045100Y0315702
X1004000Y0523202
X0700100Y0626202
X0020116Y0315933
X0706800Y0764502
X0706800Y0709902
X1157900Y0630602
X1066600Y0720202
X1156800Y0663202
X0196231Y0108802
X0195600Y0101502
X0210300Y0109002
X0709800Y0761402
X0868500Y0690502
X0867100Y0644802
X0758600Y0639702
X0837300Y0696302
X0606100Y0696402
X0842400Y0696302
X0606100Y0700802
X0206000Y0501902
X0841500Y0625702
X0180900Y0501902
X0846700Y0625702
X1042900Y0512602
X1044400Y0299202
X1043971Y0508748
X1039400Y0093802
X1048700Y0513002
X0572900Y0567002
X0701900Y0554002
X0943000Y0659202
X0706100Y0595402
X0904964Y0625137
X0182076Y0100824
X0258200Y0089302
X0227700Y0089302
X0246200Y0089302
X0252200Y0089302
X0569900Y0570002
X0943000Y0663602
X0697900Y0554002
X0900300Y0625102
X0710500Y0595402
X0681900Y0549002
X0569900Y0560002
X0876900Y0658702
X0681900Y0553002
X0572900Y0563002
X0876900Y0663102
X0703900Y0767402
X0871400Y0682802
X0731700Y0710402
X0882000Y0691502
X0810557Y0745200
X0082500Y0354902
X0931500Y0689702
X0718800Y0708702
X1047800Y0523502
X0910000Y0665002
X0931374Y0625626
X0906000Y0063802
X0809600Y0064202
X0184804Y0019000
X0826200Y0716902
X0775300Y0713402
X0189100Y0537102
X0205900Y0545402
X0205900Y0295402
X0205700Y0040402
X0828108Y0713386
X0789600Y0713402
X0117900Y0537002
X0252200Y0344302
X0246200Y0344302
X0258200Y0344302
X0182000Y0355802
X0227700Y0344302
X1243800Y0628100
X1256800Y0634600
X1269800Y0634600
X1263300Y0634600
X1269800Y0628100
X1250300Y0634600
X1263300Y0628100
X1250300Y0628100
X1256800Y0628100
X1243800Y0634600
X0134900Y0562302
X0104900Y0349502
R02Y-0007100
X1129600Y0729302
X0910900Y0733602
X0134900Y0548102
X0134900Y0555202
X0903800Y0733602
X0918000Y0733602
X1360200Y0680502
X1075000Y0491102
X1067500Y0273002
X0104400Y0534202
X0846000Y0725702
X0658900Y0681502
X0787500Y0779002
X0225100Y0270702
X0219400Y0295202
X0676000Y0669402
X0971500Y0313102
X0219400Y0040202
X0794100Y0668902
X0968600Y0108702
X0670500Y0663902
X0963200Y0532702
X1035300Y0703202
X1028800Y0703202
X1041800Y0703202
X1048300Y0703202
X0219400Y0545202
X0602000Y0720602
X0616200Y0720602
X0609100Y0720602
X0124600Y0513002
X0132800Y0243902
X0225100Y0539602
X0146900Y0513002
X0225100Y0289602
X0144900Y0264002
X0225100Y0034602
X0123000Y0080000
X0922500Y0693702
X1118800Y0653302
R02Y-0007100
X1041000Y0099902
X1067500Y0480302
X1058100Y0272902
X0837900Y0725502
X0181000Y0283802
X0103900Y0288102
X0669261Y0168106
X0744400Y0623902
X0830400Y0619102
X0667535Y0172106
X0178290Y0630050
X0178290Y0643050
X0178290Y0649550
X0178290Y0636550
X0190900Y0594500
X0182076Y0614576
X0187106Y0620685
X0226643Y0587654
X0220945Y0581955
X0310600Y0528702
X0302400Y0546902
X0302400Y0553502
X0302400Y0540302
X0273900Y0528702
X0262100Y0534302
X0248100Y0567602
X0254600Y0578502
X0253800Y0570502
X0249300Y0558602
X0238400Y0561402
X0223140Y0645500
X0219700Y0640002
X0223100Y0634200
X0177200Y0398900
X0177200Y0383000
X0177200Y0389100
X0220945Y0331955
X0190922Y0344479
X0182076Y0364576
X0226643Y0337654
X0187106Y0370686
X0177200Y0394200
X0309900Y0278402
X0302400Y0303502
R02Y-0006600
X0262100Y0284302
X0273900Y0278702
X0248100Y0317602
X0253800Y0320502
X0254600Y0328502
X0249400Y0308502
X0238400Y0311402
X0225100Y0388600
X0225700Y0393200
X0225900Y0397700
X0225900Y0383200
X0046600Y0672402
X0047700Y0255302
X0048200Y0452002
X0225700Y0127500
X0225800Y0142700
X0225200Y0137900
X0225100Y0132400
X0177100Y0135600
X0177100Y0143200
X0177000Y0150900
X0177200Y0128000
X0226643Y0082654
X0187106Y0115685
X0190922Y0089478
X0182076Y0109576
X0220945Y0076955
X0310300Y0024302
X0302450Y0041902
X0302911Y0035302
X0302400Y0048502
X0254600Y0073502
X0253800Y0065502
X0248100Y0062602
X0262100Y0029302
X0273900Y0023702
X0249300Y0053602
X0238400Y0056402
X0658850Y0627950
X0691800Y0652000
X0638950Y0647718
X0616900Y0063802
X0616900Y0477202
X0616900Y0270302
X0949000Y0612000
X0775900Y0760803
X0997700Y0500802
X1022000Y0523202
X1019200Y0509902
X1016100Y0308302
X1016284Y0525994
X1025000Y0512902
X0943000Y0612000
X0766000Y0763502
X0212900Y0682302
X0208400Y0445902
X0758500Y0267402
X0209600Y0199002
X0851500Y0761302
X0829500Y0761302
X1066500Y0712202
X1071100Y0707602
X1075700Y0703102
X0738100Y0761302
X1003500Y0765102
X1075700Y0654302
X1075700Y0660802
X1083600Y0667302
X1075700Y0667302
X1083600Y0654302
X1083600Y0660802
X0715700Y0162202
X0491900Y0159002
X0505900Y0159002
X0491900Y0247802
X0407400Y0314402
X0524600Y0577702
X0407500Y0564502
X0715700Y0157202
X0491900Y0333002
X0516900Y0358002
X0715700Y0367802
X0407300Y0059302
X0715700Y0570302
X0715700Y0575302
X0806148Y0745105
X0278600Y0294602
X0280900Y0300702
X0936900Y0709902
X0762200Y0772102
X0196231Y0613802
X0195600Y0606502
X0210300Y0614002
X0690800Y0764602
X0960400Y0460002
X0670900Y0512002
X0684500Y0764602
X0685600Y0204002
X0963900Y0253002
X0636900Y0475102
X0713300Y0476302
X0713300Y0270802
X0636900Y0270202
X0712900Y0764002
X0636900Y0063802
X0713300Y0063802
X0733300Y0064302
X0733300Y0269702
X0733300Y0475002
X0278600Y0039602
X0280900Y0045702
X0196231Y0363802
X0246200Y0594302
X0227700Y0594302
X0252200Y0594302
X0182000Y0605802
X0258200Y0594302
X0278600Y0544602
X0280700Y0550002
X0210300Y0364002
X0194500Y0356302
X0668000Y0378000
X0669727Y0374000
X0098000Y0169370
X0825800Y0763902
X0087800Y0765902
X0816900Y0760803
X0814611Y0744905
X0082500Y0549502
X0823300Y0625702
X0211900Y0252002
X0818100Y0625702
X0209200Y0256602
X0805200Y0692402
X0832300Y0696202
X0851796Y0664702
X0801500Y0709402
X0326000Y0019902
X0738500Y0267402
T03
X0976300Y0097702
R02X-0010000
X0976300Y0303402
R02X-0010000
X0976400Y0512202
R02X-0010000
T04
X0676939Y0173252
R03Y-0007500
X0677339Y0379052
R03Y-0007500
X0676939Y0584252
R03Y-0007500
T05
X0650517Y0743553
X0879258Y0743553
T06
X0510700Y0694702
X0550700Y0694702
X1169900Y0604202
R03X-0010000
X1277100Y0724102
X1277100Y0704102
T07
X0179900Y0043002
X0219900Y0199002
X0179900Y0295202
X0219900Y0445902
X0180000Y0545202
X0224900Y0682102
X0470900Y0706302
X0470900Y0726802
X0470900Y0457302
X0470900Y0477802
X0470900Y0201302
X0470900Y0221802
X0636000Y0709902
X0636000Y0719902
X0617900Y0709002
X0607900Y0709002
X0814200Y0769302
X0814200Y0779302
X0842300Y0778902
X0852300Y0778902
X0898900Y0716002
X0888900Y0716002
X0974200Y0063802
X0974200Y0073802
X1034200Y0063802
X0984200Y0073802
X0994200Y0063802
X0984200Y0063802
X0994200Y0073802
X1034200Y0073802
X1024200Y0073802
X1014200Y0063802
X1004200Y0063802
X1044200Y0073802
X1044200Y0063802
X1024200Y0063802
X0994400Y0121502
X0984400Y0121502
X0974200Y0279402
X0974200Y0269402
X1034200Y0269402
X1034200Y0279402
X1024200Y0279402
X1014200Y0269402
X1004200Y0269402
X1044200Y0269402
X0984200Y0279402
X0994200Y0269402
X0984200Y0269402
X0994200Y0279402
X1024200Y0269402
X0994400Y0327102
X0984400Y0327102
X0974200Y0485102
X0974200Y0475102
X1034200Y0475102
X1034200Y0485102
X1024200Y0485102
X1014200Y0475102
X1004200Y0475102
X1044200Y0475102
X0994200Y0475102
X0984200Y0475102
X0994200Y0485102
X1024200Y0475102
X0994400Y0532702
X0984400Y0532702
X1137800Y0774102
X1107600Y0638802
X1210000Y0080000
X1220000Y0240000
X1200000Y0450000
X1200000Y0440000
X1262900Y0586002
X1252900Y0586002
X1212000Y0633002
X1212000Y0623002
X1212000Y0648402
X1212000Y0658402
X1247100Y0724202
X1237100Y0724202
X1168000Y0779902
X1340000Y0450000
X1340000Y0440000
X1360000Y0230000
X1340000Y0200000
X1350000Y0080000
X1366900Y0586002
X1356900Y0586002
T08
X0144079Y0617300
X0084079Y0617300
X0144579Y0395700
X0084579Y0395700
X0144079Y0201000
X0084079Y0201000
X0144079Y0038800
X0084079Y0038800
T09
X0134900Y0689502
X0094900Y0689502
X0135400Y0467902
X0095400Y0467902
X0134900Y0273202
X0094900Y0273202
X0134900Y0111002
X0094900Y0111002
T10
X0391900Y0084664
X0391900Y0232302
X0391900Y0340164
X0391900Y0487802
X0391900Y0589664
X0391900Y0737302
T11
X0646900Y0137002
X0636900Y0137002
X0626900Y0137002
X0626900Y0187002
X0636900Y0187002
X0646900Y0187002
X0647300Y0342802
X0637300Y0342802
X0627300Y0342802
X0627300Y0392802
X0637300Y0392802
X0647300Y0392802
X0646900Y0548002
X0636900Y0548002
X0626900Y0548002
X0626900Y0598002
X0636900Y0598002
X0646900Y0598002
T12
X1341900Y0646802
X1306900Y0646802
T13
X0311800Y0518002
X0351800Y0518002
X0312200Y0267802
X0352200Y0267802
X0311400Y0013002
X0351400Y0013002
X0619300Y0018102
X0678300Y0018102
X0629100Y0018102
X0669100Y0018102
X0604400Y0223702
X0663400Y0223702
X0613600Y0223702
X0653600Y0223702
X0604400Y0429302
X0663400Y0429302
X0614200Y0429302
X0654200Y0429302
X0765600Y0142202
X0765600Y0201202
X0765700Y0153702
X0765700Y0193702
X0765600Y0347902
X0765600Y0406902
X0765700Y0359302
X0765700Y0399302
X0765600Y0553502
X0765600Y0612502
X0765700Y0564902
X0765700Y0604902
T14
X0600400Y0090802
X0621800Y0090802
X0643300Y0090802
X0600400Y0296402
X0621800Y0296402
X0643300Y0296402
X0600400Y0502102
X0621800Y0502102
X0643300Y0502102
X0696800Y0502102
X0718200Y0502102
X0739700Y0502102
X0696800Y0296402
X0718200Y0296402
X0739700Y0296402
X0696800Y0090802
X0718200Y0090802
X0739700Y0090802
X0793100Y0090802
X0814500Y0090802
X0836000Y0090802
X0793100Y0296402
X0814500Y0296402
X0836000Y0296402
X0793100Y0502102
X0814500Y0502102
X0836000Y0502102
X0889500Y0502102
X0910900Y0502102
X0932400Y0502102
X0889500Y0296402
X0910900Y0296402
X0932400Y0296402
X0889500Y0090802
X0910900Y0090802
X0932400Y0090802
T15
X0016800Y0081502
X0041800Y0081502
X0016800Y0106502
X0041800Y0106502
X0041800Y0225702
X0016800Y0225702
X0041800Y0200702
X0016800Y0200702
X0042300Y0420402
X0017300Y0420402
X0042300Y0395402
X0017300Y0395402
X0041800Y0642002
X0016800Y0642002
X0041800Y0617002
X0016800Y0617002
X1132300Y0041102
X1132300Y0016102
X1107300Y0041102
X1107300Y0016102
X1270300Y0016002
X1245300Y0016002
X1270300Y0041002
X1245300Y0041002
T16
X0149900Y0639502
X0150400Y0417902
X0149900Y0223202
X0149900Y0061002
T17
X1174770Y0130002
X1135400Y0130002
X1174770Y0257502
X1135400Y0257502
X1174270Y0385002
X1134900Y0385002
X1174770Y0512402
X1135400Y0512402
X1275700Y0512402
X1315070Y0512402
X1275700Y0385002
X1315070Y0385002
X1275700Y0257502
X1315070Y0257502
X1275700Y0130002
X1315070Y0130002
T18
X0079900Y0629502
X0080400Y0407902
X0079900Y0213202
X0079900Y0051002
T19
X0755862Y0484002
X0575000Y0484002
X0755862Y0278402
X0575000Y0278402
X0755862Y0072802
X0575000Y0072802
X0953262Y0484002
X0772400Y0484002
X0953262Y0278402
X0772400Y0278402
X0953262Y0072802
X0772400Y0072802
T20
X0029300Y0094002
X0029300Y0213202
X0029800Y0407902
X0029300Y0629502
X1119800Y0028602
X1257800Y0028502
T21
X0659769Y0743553
X0870399Y0749065
X0940852Y0743553
X1044006Y0749222
T22
X1211259Y0767117
T23
X1211259Y0749401
T24
X0021700Y0020502
X0023300Y0766002
X0145100Y0342402
X0584500Y0021502
X0584500Y0766002
X1072100Y0766002
X1072100Y0102602
X1361500Y0016902
X1363000Y0771402
M30
