G04 ================== begin FILE IDENTIFICATION RECORD ==================*
G04 Layout Name:  solutionstida01606_powercard_rev17.brd*
G04 Film Name:    TOP*
G04 File Format:  Gerber RS274X*
G04 File Origin:  Cadence Allegro -unreleased*
G04 Origin Date:  Fri Aug 27 11:16:48 2021*
G04 *
G04 Layer:  BOARD GEOMETRY/OUTLINE*
G04 Layer:  ETCH/TOP*
G04 Layer:  PIN/TOP*
G04 Layer:  VIA CLASS/TOP*
G04 *
G04 Offset:    (0.000 0.000)*
G04 Mirror:    No*
G04 Mode:      Positive*
G04 Rotation:  0*
G04 FullContactRelief:  No*
G04 UndefLineWidth:     8.000*
G04 ================== end FILE IDENTIFICATION RECORD ====================*
%FSLAX25Y25*MOIN*%
%IR0*IPPOS*OFA0.00000B0.00000*MIA0B0*SFA1.00000B1.00000*%
%ADD48O,.075X.1*%
%ADD12C,.1*%
%ADD11C,.3*%
%ADD62C,.103*%
%ADD47C,.13*%
%ADD10C,.22*%
%ADD44C,.15*%
%ADD51R,.023622X.111024*%
%ADD25C,.121654*%
%ADD16C,.129528*%
%ADD17R,.124016X.057087*%
%ADD73R,.023622X.009842*%
%AMMACRO29*
4,1,40,-.011811,-.03248,
-.011811,.03248,
-.011765,.032993,
-.011631,.033491,
-.011413,.033958,
-.011116,.03438,
-.010751,.034744,
-.010329,.035039,
-.009861,.035256,
-.009363,.035389,
-.008858,.035433,
.008858,.035433,
.009371,.035387,
.009869,.035253,
.010336,.035035,
.010758,.034738,
.011122,.034373,
.011417,.033951,
.011634,.033483,
.011767,.032985,
.011811,.03248,
.011811,-.03248,
.011765,-.032993,
.011631,-.033491,
.011413,-.033958,
.011116,-.03438,
.010751,-.034744,
.010329,-.035039,
.009861,-.035256,
.009363,-.035389,
.008858,-.035433,
-.008858,-.035433,
-.009371,-.035387,
-.009869,-.035253,
-.010336,-.035035,
-.010758,-.034738,
-.011122,-.034373,
-.011417,-.033951,
-.011634,-.033483,
-.011767,-.032985,
-.011811,-.03248,
0.0*
%
%ADD29MACRO29*%
%AMMACRO35*
4,1,44,-.018012,.011614,
.018012,.011614,
.01902,.011526,
.019998,.011264,
.020915,.010836,
.021745,.010256,
.02246,.00954,
.023041,.008711,
.023469,.007793,
.023731,.006816,
.023819,.005807,
.023819,.005807,
.023819,-.005807,
.023731,-.006815,
.023469,-.007793,
.023041,-.00871,
.022461,-.00954,
.021745,-.010255,
.020916,-.010836,
.019998,-.011264,
.019021,-.011526,
.018012,-.011614,
.018012,-.011614,
-.018012,-.011614,
-.01902,-.011526,
-.019998,-.011264,
-.020915,-.010836,
-.021745,-.010256,
-.02246,-.00954,
-.023041,-.008711,
-.023469,-.007793,
-.023731,-.006816,
-.023819,-.005807,
-.023819,-.005807,
-.023819,.005807,
-.023731,.006815,
-.023469,.007793,
-.023041,.00871,
-.022461,.00954,
-.021745,.010255,
-.020916,.010836,
-.019998,.011264,
-.019021,.011526,
-.018012,.011614,
-.018012,.011614,
0.0*
%
%ADD35MACRO35*%
%ADD66R,.094488X.110236*%
%AMMACRO61*
4,1,40,-.041732,-.06378,
-.041732,.06378,
-.041569,.065596,
-.041093,.067355,
-.040319,.069006,
-.039269,.070496,
-.037977,.071782,
-.036482,.072824,
-.034828,.073591,
-.033066,.074058,
-.031299,.074213,
.031299,.074213,
.033115,.07405,
.034874,.073574,
.036525,.0728,
.038015,.07175,
.039301,.070458,
.040343,.068963,
.04111,.067309,
.041577,.065547,
.041732,.06378,
.041732,-.06378,
.041569,-.065596,
.041093,-.067355,
.040319,-.069006,
.039269,-.070496,
.037977,-.071782,
.036482,-.072824,
.034828,-.073591,
.033066,-.074058,
.031299,-.074213,
-.031299,-.074213,
-.033115,-.07405,
-.034874,-.073574,
-.036525,-.0728,
-.038015,-.07175,
-.039301,-.070458,
-.040343,-.068963,
-.04111,-.067309,
-.041577,-.065547,
-.041732,-.06378,
0.0*
%
%ADD61MACRO61*%
%ADD72R,.177165X.070866*%
%ADD74R,.009842X.029528*%
%AMMACRO32*
4,1,44,.016339,.009256,
.016339,-.009256,
.016208,-.010759,
.015817,-.012217,
.015179,-.013584,
.014314,-.01482,
.013247,-.015887,
.012011,-.016753,
.010644,-.017391,
.009186,-.017781,
.007683,-.017913,
.007677,-.017913,
-.007677,-.017913,
-.00918,-.017782,
-.010638,-.017393,
-.012006,-.016756,
-.013243,-.015891,
-.01431,-.014825,
-.015177,-.013589,
-.015815,-.012222,
-.016207,-.010765,
-.016339,-.009262,
-.016339,-.009256,
-.016339,.009256,
-.016208,.010759,
-.015817,.012217,
-.015179,.013584,
-.014314,.01482,
-.013247,.015887,
-.012011,.016753,
-.010644,.017391,
-.009186,.017781,
-.007683,.017913,
-.007677,.017913,
.007677,.017913,
.00918,.017782,
.010638,.017393,
.012006,.016756,
.013243,.015891,
.01431,.014825,
.015177,.013589,
.015815,.012222,
.016207,.010765,
.016339,.009262,
.016339,.009256,
0.0*
%
%ADD32MACRO32*%
%ADD70R,.16X.2*%
%ADD30R,.04X.02*%
%ADD56R,.025X.05*%
%ADD27R,.0505X.02*%
%ADD59R,.062X.022*%
%ADD54O,.091X.051*%
%ADD33O,.395X.21*%
%ADD31R,.116X.217*%
%ADD50R,.046X.014*%
%ADD49R,.022X.058*%
%ADD36R,.055X.045*%
%ADD43C,.06*%
%ADD37R,.045X.055*%
%ADD26C,.08*%
%ADD14C,.035*%
%ADD53C,.050004*%
%ADD38R,.092X.056*%
%ADD57C,.055*%
%ADD19C,.065*%
%ADD42R,.06X.06*%
%ADD41R,.07X.07*%
%ADD52C,.053071*%
%ADD58R,.055X.055*%
%ADD13R,.05906X.05118*%
%ADD68C,.07087*%
%ADD28R,.05118X.05906*%
%ADD22R,.03937X.043307*%
%ADD18R,.043307X.03937*%
%ADD69C,.066933*%
%ADD20C,.069291*%
%AMMACRO63*
4,1,36,0.0,-.044488,
-.007726,-.043811,
-.015217,-.041803,
-.022246,-.038525,
-.028598,-.034076,
-.034081,-.028592,
-.038529,-.022238,
-.041806,-.015209,
-.043813,-.007718,
-.044488,0.0,
-.043811,.007726,
-.041803,.015217,
-.038525,.022246,
-.034076,.028598,
-.028592,.034081,
-.022238,.038529,
-.015209,.041806,
-.007718,.043813,
0.0,.044488,
.007726,.043811,
.015217,.041803,
.022246,.038525,
.028598,.034076,
.034081,.028592,
.038529,.022238,
.041806,.015209,
.043813,.007718,
.044488,0.0,
.043811,-.007726,
.041803,-.015217,
.038525,-.022246,
.034076,-.028598,
.028592,-.034081,
.022238,-.038529,
.015209,-.041806,
.007718,-.043813,
0.0,-.044488,
0.0*
%
%ADD63MACRO63*%
%ADD71C,.019685*%
%ADD76R,.019685X.025811*%
%ADD15R,.035433X.057087*%
%ADD75R,.025811X.019685*%
%ADD39R,.07874X.047244*%
%ADD55R,.07087X.06299*%
%ADD34R,.047244X.07874*%
%ADD24R,.069291X.069291*%
%ADD46R,.06299X.07087*%
%ADD45R,.03937X.07874*%
%ADD40R,.047638X.022835*%
%ADD23R,.059055X.059055*%
%ADD65R,.029528X.026772*%
%AMMACRO64*
4,1,44,-.009256,.016339,
.009256,.016339,
.010759,.016208,
.012217,.015817,
.013584,.015179,
.01482,.014314,
.015887,.013247,
.016753,.012011,
.017391,.010644,
.017781,.009186,
.017913,.007683,
.017913,.007677,
.017913,-.007677,
.017782,-.00918,
.017393,-.010638,
.016756,-.012006,
.015891,-.013243,
.014825,-.01431,
.013589,-.015177,
.012222,-.015815,
.010765,-.016207,
.009262,-.016339,
.009256,-.016339,
-.009256,-.016339,
-.010759,-.016208,
-.012217,-.015817,
-.013584,-.015179,
-.01482,-.014314,
-.015887,-.013247,
-.016753,-.012011,
-.017391,-.010644,
-.017781,-.009186,
-.017913,-.007683,
-.017913,-.007677,
-.017913,.007677,
-.017782,.00918,
-.017393,.010638,
-.016756,.012006,
-.015891,.013243,
-.014825,.01431,
-.013589,.015177,
-.012222,.015815,
-.010765,.016207,
-.009262,.016339,
-.009256,.016339,
0.0*
%
%ADD64MACRO64*%
%AMMACRO60*
4,1,40,.041732,.06378,
.041732,-.06378,
.041569,-.065596,
.041093,-.067355,
.040319,-.069006,
.039269,-.070496,
.037977,-.071782,
.036482,-.072824,
.034828,-.073591,
.033066,-.074058,
.031299,-.074213,
-.031299,-.074213,
-.033115,-.07405,
-.034874,-.073574,
-.036525,-.0728,
-.038015,-.07175,
-.039301,-.070458,
-.040343,-.068963,
-.04111,-.067309,
-.041577,-.065547,
-.041732,-.06378,
-.041732,.06378,
-.041569,.065596,
-.041093,.067355,
-.040319,.069006,
-.039269,.070496,
-.037977,.071782,
-.036482,.072824,
-.034828,.073591,
-.033066,.074058,
-.031299,.074213,
.031299,.074213,
.033115,.07405,
.034874,.073574,
.036525,.0728,
.038015,.07175,
.039301,.070458,
.040343,.068963,
.04111,.067309,
.041577,.065547,
.041732,.06378,
0.0*
%
%ADD60MACRO60*%
%ADD67R,.025984X.026772*%
%ADD21R,.086614X.084646*%
%ADD77C,.005*%
%ADD78C,.01*%
%ADD79C,.02*%
%ADD80C,.03*%
%ADD81C,.05*%
%ADD82C,.015*%
%ADD83C,.008*%
G75*
%LPD*%
G75*
G36*
G01X10400Y116202D02*
X43200D01*
X88100Y71302D01*
Y36600D01*
X84300Y32800D01*
X44102D01*
X7500Y69402D01*
Y113302D01*
X10400Y116202D01*
G37*
G36*
G01X4000Y190902D02*
Y236402D01*
X6000Y238402D01*
X84000D01*
X90000Y232402D01*
Y192902D01*
X86000Y188902D01*
X6000D01*
X4000Y190902D01*
G37*
G36*
G01Y384302D02*
Y436402D01*
X5300Y437702D01*
X80800D01*
X90000Y428502D01*
Y391702D01*
X81000Y382702D01*
Y382302D01*
X6000D01*
X4000Y384302D01*
G37*
G36*
G01X88100Y608300D02*
X86501Y606701D01*
X86499D01*
X79200Y599402D01*
X6000D01*
X4000Y601402D01*
Y658902D01*
X7000Y661902D01*
X78400D01*
X88100Y652202D01*
Y608300D01*
G37*
G36*
G01X141800Y231102D02*
X160800D01*
X161800Y230102D01*
Y199602D01*
X192800Y168602D01*
Y124102D01*
X192300Y123602D01*
X172300D01*
X170300Y125602D01*
Y153602D01*
X139300Y184602D01*
Y228602D01*
X141800Y231102D01*
G37*
G36*
G01X192800Y654400D02*
X193700Y653500D01*
Y628100D01*
X191700Y626100D01*
X161200D01*
X148400Y613300D01*
X142400D01*
X140100Y615600D01*
Y651100D01*
X143400Y654400D01*
X192800D01*
G37*
G36*
G01X140600Y394000D02*
Y422100D01*
X142502Y424002D01*
X156500D01*
X179700Y400802D01*
X192800D01*
Y379202D01*
X192700Y379102D01*
X155498D01*
X140600Y394000D01*
G37*
G36*
G01X205100Y37902D02*
X205600Y37402D01*
Y17402D01*
X203600Y15402D01*
X194100D01*
X193100Y16402D01*
Y22902D01*
X194600Y24402D01*
X198600D01*
X200100Y25902D01*
Y37402D01*
X200600Y37902D01*
X205100D01*
G37*
G36*
G01X199000Y279802D02*
X200200Y281002D01*
Y292502D01*
X200700Y293002D01*
X205200D01*
X205700Y292502D01*
Y272502D01*
X203700Y270502D01*
X194200D01*
X193200Y271502D01*
Y278002D01*
X195000Y279802D01*
X199000D01*
G37*
G36*
G01X200400Y541402D02*
X201200Y542202D01*
X205700D01*
X205800Y542102D01*
Y522902D01*
X205200Y522302D01*
X195300D01*
X193800Y523802D01*
Y529502D01*
X194700Y530402D01*
X199100D01*
X200400Y531702D01*
Y541402D01*
G37*
G36*
G01X208200Y24602D02*
X207700Y25102D01*
Y37102D01*
X209700Y39102D01*
Y49902D01*
X210200Y50402D01*
X213200D01*
X213700Y49902D01*
Y30902D01*
X214800Y29802D01*
X221800D01*
X222700Y28902D01*
Y25202D01*
X222100Y24602D01*
X208200D01*
G37*
G36*
G01X218300Y43202D02*
X226800D01*
X228300Y41702D01*
Y33202D01*
X227300Y32202D01*
X217300D01*
X216800Y32702D01*
Y41702D01*
X218300Y43202D01*
G37*
G36*
G01X213700Y86702D02*
X211900Y84902D01*
X209900D01*
X209700Y85102D01*
Y91502D01*
X210200Y92002D01*
X259900D01*
X260500Y91402D01*
Y79502D01*
X259500Y78502D01*
X236400D01*
X228200Y86702D01*
X213700D01*
G37*
G36*
G01X213100Y124002D02*
X213000Y124102D01*
Y145902D01*
X213100Y146002D01*
X258900D01*
X265500Y139402D01*
Y130702D01*
X258800Y124002D01*
X213100D01*
G37*
G36*
G01X208200Y279602D02*
X207700Y280102D01*
Y292102D01*
X209700Y294102D01*
Y304902D01*
X210200Y305402D01*
X213200D01*
X213700Y304902D01*
Y285902D01*
X214800Y284802D01*
X221800D01*
X222700Y283902D01*
Y280202D01*
X222100Y279602D01*
X208200D01*
G37*
G36*
G01X218300Y297902D02*
X226800D01*
X228300Y296402D01*
Y287902D01*
X227300Y286902D01*
X217300D01*
X216800Y287402D01*
Y296402D01*
X218300Y297902D01*
G37*
G36*
G01X209600Y346602D02*
X210000Y347002D01*
X259500D01*
X261200Y345302D01*
Y333602D01*
X261000Y333402D01*
X236300D01*
X228800Y340902D01*
X210100D01*
X209600Y341402D01*
Y346602D01*
G37*
G36*
G01X213100Y379102D02*
X213000Y379202D01*
Y401002D01*
X213100Y401102D01*
X258900D01*
X265500Y394502D01*
Y385802D01*
X258800Y379102D01*
X213100D01*
G37*
G36*
G01X209700Y555902D02*
X209800Y556002D01*
X212300D01*
X212600Y555702D01*
Y538302D01*
X216300Y534602D01*
X223000D01*
X223900Y533702D01*
Y529702D01*
X223500Y529302D01*
X208300D01*
X207900Y529702D01*
Y542002D01*
X209700Y543802D01*
Y555902D01*
G37*
G36*
G01X218700Y547902D02*
X227200D01*
X228700Y546402D01*
Y537902D01*
X227700Y536902D01*
X217700D01*
X217200Y537402D01*
Y546402D01*
X218700Y547902D01*
G37*
G36*
G01X209700Y597502D02*
X210100Y597902D01*
X259600D01*
X261300Y596202D01*
Y584502D01*
X261100Y584302D01*
X236400D01*
X228900Y591802D01*
X210200D01*
X209700Y592302D01*
Y597502D01*
G37*
G36*
G01X213001Y629001D02*
X213000Y629002D01*
Y652800D01*
X214500Y654300D01*
X260800D01*
X265500Y649600D01*
Y630000D01*
X260000Y624500D01*
X214700D01*
X213001Y626199D01*
Y629001D01*
G37*
G36*
G01X261100Y63602D02*
X256400Y58902D01*
Y49602D01*
X256100Y49302D01*
X234900D01*
X234300Y49902D01*
Y61802D01*
X236300Y63802D01*
X243000D01*
X243600Y64402D01*
Y74002D01*
X245200Y75602D01*
X261000D01*
X261100Y75502D01*
Y63602D01*
G37*
G36*
G01X235600Y318002D02*
X236300Y318702D01*
X243200D01*
X244300Y319802D01*
Y328502D01*
X246200Y330402D01*
X261100D01*
X261200Y330302D01*
Y317602D01*
X256400Y312802D01*
Y304602D01*
X256300Y304502D01*
X236400D01*
X235600Y305302D01*
Y318002D01*
G37*
G36*
G01Y568002D02*
X236300Y568702D01*
X243200D01*
X244300Y569802D01*
Y578502D01*
X246200Y580402D01*
X261100D01*
X261200Y580302D01*
Y567602D01*
X256400Y562802D01*
Y554602D01*
X256300Y554502D01*
X236400D01*
X235600Y555302D01*
Y568002D01*
G37*
G36*
G01X279000Y25202D02*
Y35902D01*
X278900D01*
X277000Y37802D01*
X263800D01*
X263500Y38102D01*
Y39902D01*
X263800Y40202D01*
X270400D01*
X271900Y41702D01*
X275900D01*
X279000Y44802D01*
Y59502D01*
X280000Y60502D01*
X289000D01*
X290000Y59502D01*
Y25202D01*
X289000Y24202D01*
X280000D01*
X279000Y25202D01*
G37*
G36*
G01X263400Y41902D02*
Y57802D01*
X265100Y59502D01*
X275300D01*
X275400Y59402D01*
Y49102D01*
X267900Y41602D01*
X263700D01*
X263400Y41902D01*
G37*
G36*
G01X263700Y83202D02*
X270800D01*
X272100Y81902D01*
Y67602D01*
X272600Y67102D01*
X276600D01*
X277100Y66602D01*
Y62602D01*
X276600Y62102D01*
X263600D01*
X263100Y62602D01*
Y82602D01*
X263700Y83202D01*
G37*
G36*
G01X279000Y280102D02*
Y290802D01*
X278900D01*
X277000Y292702D01*
X263800D01*
X263500Y293002D01*
Y294802D01*
X263800Y295102D01*
X270400D01*
X271900Y296602D01*
X275900D01*
X279000Y299702D01*
Y314402D01*
X280000Y315402D01*
X289000D01*
X290000Y314402D01*
Y280102D01*
X289000Y279102D01*
X280000D01*
X279000Y280102D01*
G37*
G36*
G01X275300Y315102D02*
X275400Y315002D01*
Y304002D01*
X267900Y296502D01*
X263800D01*
X263400Y296902D01*
Y313402D01*
X265100Y315102D01*
X275300D01*
G37*
G36*
G01X263700Y338202D02*
X270800D01*
X272100Y336902D01*
Y322602D01*
X272600Y322102D01*
X276600D01*
X277100Y321602D01*
Y317602D01*
X276600Y317102D01*
X263600D01*
X263100Y317602D01*
Y337602D01*
X263700Y338202D01*
G37*
G36*
G01X279000Y530102D02*
Y540802D01*
X278900D01*
X277000Y542702D01*
X263800D01*
X263500Y543002D01*
Y544802D01*
X263800Y545102D01*
X270400D01*
X271900Y546602D01*
X275900D01*
X279000Y549702D01*
Y564402D01*
X280000Y565402D01*
X289000D01*
X290000Y564402D01*
Y530102D01*
X289000Y529102D01*
X280000D01*
X279000Y530102D01*
G37*
G36*
G01X275300Y564202D02*
X275400Y564102D01*
Y553102D01*
X268800Y546502D01*
X263700D01*
X263400Y546802D01*
Y562502D01*
X265100Y564202D01*
X275300D01*
G37*
G36*
G01X264400Y588102D02*
X271500D01*
X272800Y586802D01*
Y572502D01*
X273300Y572002D01*
X277300D01*
X277800Y571502D01*
Y567502D01*
X277300Y567002D01*
X264300D01*
X263800Y567502D01*
Y587502D01*
X264400Y588102D01*
G37*
G36*
G01X294300Y33302D02*
X293800Y33802D01*
Y50102D01*
X294300Y50602D01*
X303300D01*
X304600Y49302D01*
Y46102D01*
X305600Y45102D01*
X313700D01*
X313900Y44902D01*
Y39302D01*
X313700Y39102D01*
X306000D01*
X304900Y38002D01*
Y34502D01*
X303700Y33302D01*
X294300D01*
G37*
G36*
G01X484200Y114602D02*
X477600Y108002D01*
X424100D01*
X397200Y81102D01*
X300200D01*
X295200Y86102D01*
Y138602D01*
X302200Y145602D01*
X478200D01*
X484200Y139602D01*
Y114602D01*
G37*
G36*
G01X294300Y288302D02*
X293800Y288802D01*
Y305102D01*
X294300Y305602D01*
X303300D01*
X304600Y304302D01*
Y301102D01*
X305600Y300102D01*
X313700D01*
X313900Y299902D01*
Y294302D01*
X313700Y294102D01*
X306000D01*
X304900Y293002D01*
Y289502D01*
X303700Y288302D01*
X294300D01*
G37*
G36*
G01X484200Y371502D02*
X477600Y364902D01*
X424100D01*
X397200Y338002D01*
X300200D01*
X295200Y343002D01*
Y395502D01*
X302200Y402502D01*
X478200D01*
X484200Y396502D01*
Y371502D01*
G37*
G36*
G01X294200Y538302D02*
X293700Y538802D01*
Y555102D01*
X294200Y555602D01*
X303200D01*
X304500Y554302D01*
Y551102D01*
X305500Y550102D01*
X313600D01*
X313800Y549902D01*
Y544302D01*
X313600Y544102D01*
X305900D01*
X304800Y543002D01*
Y539502D01*
X303600Y538302D01*
X294200D01*
G37*
G36*
G01X484200Y620002D02*
X477600Y613402D01*
X424100D01*
X397200Y586502D01*
X300200D01*
X295200Y591502D01*
Y644002D01*
X302200Y651002D01*
X478200D01*
X484200Y645002D01*
Y620002D01*
G37*
G36*
G01X474100Y220702D02*
X472100Y218702D01*
X467600D01*
X462100Y224202D01*
X388600D01*
X386600Y226202D01*
Y236202D01*
X389100Y238702D01*
X472100D01*
X474100Y236702D01*
Y220702D01*
G37*
G36*
G01X474900Y476702D02*
X472900Y474702D01*
X468400D01*
X462900Y480202D01*
X389400D01*
X387400Y482202D01*
Y492202D01*
X389900Y494702D01*
X472900D01*
X474900Y492702D01*
Y476702D01*
G37*
G36*
G01X474800Y725802D02*
X472800Y723802D01*
X468300D01*
X462800Y729302D01*
X389300D01*
X387300Y731302D01*
Y741302D01*
X389800Y743802D01*
X472800D01*
X474800Y741802D01*
Y725802D01*
G37*
G36*
G01X514800Y144702D02*
X570050Y199952D01*
X649750D01*
X653100Y196602D01*
Y179602D01*
X647700Y174202D01*
X625600D01*
X574900Y123502D01*
X517400D01*
X514800Y126102D01*
Y144702D01*
G37*
G36*
G01Y402002D02*
X519300Y406502D01*
X645900D01*
X651100Y401302D01*
Y386102D01*
X646300Y381302D01*
X585300D01*
X581100Y377102D01*
X519000D01*
X514800Y381302D01*
Y402002D01*
G37*
G36*
G01Y648002D02*
X517800Y651002D01*
X600400D01*
X650700Y600702D01*
Y595202D01*
X647200Y591702D01*
X607100D01*
X585700Y613102D01*
X519400D01*
X514800Y617702D01*
Y648002D01*
G37*
G36*
G01X600400Y99502D02*
X606900D01*
X609400Y97002D01*
Y67002D01*
X608900Y66502D01*
X604900D01*
X598900Y72502D01*
Y98002D01*
X600400Y99502D01*
G37*
G36*
G01Y305102D02*
X606900D01*
X609400Y302602D01*
Y272602D01*
X608900Y272102D01*
X604900D01*
X598900Y278102D01*
Y303602D01*
X600400Y305102D01*
G37*
G36*
G01Y510702D02*
X606900D01*
X609400Y508202D01*
Y478202D01*
X608900Y477702D01*
X604900D01*
X598900Y483702D01*
Y509202D01*
X600400Y510702D01*
G37*
G36*
G01X620000Y86002D02*
X617000Y89002D01*
Y140002D01*
X619000Y142002D01*
X649500D01*
X667500Y124002D01*
X817000D01*
X819000Y122002D01*
Y88502D01*
X816500Y86002D01*
X812500D01*
X809500Y89002D01*
Y109002D01*
X806000Y112502D01*
X749000D01*
X747000Y110502D01*
Y88002D01*
X745000Y86002D01*
X737500D01*
X735000Y88502D01*
Y110502D01*
X733000Y112502D01*
X630000D01*
X627000Y109502D01*
Y89002D01*
X624000Y86002D01*
X620000D01*
G37*
G36*
G01X620300Y291902D02*
X617300Y294902D01*
Y345902D01*
X619300Y347902D01*
X649800D01*
X667800Y329902D01*
X817300D01*
X819300Y327902D01*
Y294402D01*
X816800Y291902D01*
X812800D01*
X809800Y294902D01*
Y314902D01*
X806300Y318402D01*
X749300D01*
X747300Y316402D01*
Y293902D01*
X745300Y291902D01*
X737800D01*
X735300Y294402D01*
Y316402D01*
X733300Y318402D01*
X630300D01*
X627300Y315402D01*
Y294902D01*
X624300Y291902D01*
X620300D01*
G37*
G36*
G01X619700Y497402D02*
X616700Y500402D01*
Y551402D01*
X618700Y553402D01*
X649200D01*
X667200Y535402D01*
X816700D01*
X818700Y533402D01*
Y499902D01*
X816200Y497402D01*
X812200D01*
X809200Y500402D01*
Y520402D01*
X805700Y523902D01*
X748700D01*
X746700Y521902D01*
Y499402D01*
X744700Y497402D01*
X737200D01*
X734700Y499902D01*
Y521902D01*
X732700Y523902D01*
X629700D01*
X626700Y520902D01*
Y500402D01*
X623700Y497402D01*
X619700D01*
G37*
G36*
G01X653200Y67902D02*
X638600Y82502D01*
Y98202D01*
X641600Y101202D01*
X668600D01*
X677100Y92702D01*
Y58702D01*
X692902Y42900D01*
X1071298D01*
X1085100Y56702D01*
Y208702D01*
X1076600Y217202D01*
X649900D01*
X646600Y220502D01*
Y286202D01*
X638600Y294202D01*
Y298702D01*
X641100Y301202D01*
X674800D01*
X676600Y299402D01*
Y265202D01*
X693100Y248702D01*
X1074100D01*
X1085100Y259702D01*
Y413202D01*
X1075402Y422900D01*
X653700D01*
X653699Y422901D01*
X649901D01*
X646600Y426202D01*
Y492102D01*
X638600Y500102D01*
Y504102D01*
X641400Y506902D01*
X674200D01*
X679100Y502002D01*
Y460202D01*
X689600Y449702D01*
X1076100D01*
X1095600Y469202D01*
Y486602D01*
X1095500Y486702D01*
Y516202D01*
X1099000Y519702D01*
X1136800D01*
X1141600Y514902D01*
Y6802D01*
X1137700Y2902D01*
X669500D01*
X653200Y19202D01*
Y67902D01*
G37*
G36*
G01X661100Y679202D02*
X660700Y678802D01*
X652600D01*
X651000Y680402D01*
Y688702D01*
X648200Y691502D01*
X641600D01*
X641100Y692002D01*
Y693902D01*
X641600Y694402D01*
X653300D01*
X654900Y692802D01*
Y685402D01*
X656200Y684102D01*
X660500D01*
X661100Y683502D01*
Y679202D01*
G37*
G36*
G01X671800Y152002D02*
X673300Y153502D01*
X713800D01*
X714300Y153002D01*
Y148002D01*
X712300Y146002D01*
X673800D01*
X671800Y148002D01*
Y152002D01*
G37*
G36*
G01X673000Y156802D02*
Y159802D01*
X673500Y160302D01*
X686500D01*
X693600Y167402D01*
X703300D01*
X704200Y166502D01*
Y157002D01*
X703500Y156302D01*
X673500D01*
X673000Y156802D01*
G37*
G36*
G01X672700Y357602D02*
X674100Y359002D01*
X711100D01*
X712600Y357502D01*
Y351502D01*
X710400Y349302D01*
X676600D01*
X672700Y353202D01*
Y357602D01*
G37*
G36*
G01X673800Y363202D02*
Y365302D01*
X674600Y366102D01*
X683000D01*
X689300Y372402D01*
X703000D01*
X704100Y371302D01*
Y364202D01*
X702400Y362502D01*
X674500D01*
X673800Y363202D01*
G37*
G36*
G01X672300Y562802D02*
X673800Y564302D01*
X714300D01*
X714800Y563802D01*
Y559702D01*
X714300Y559202D01*
X673800D01*
X672300Y560702D01*
Y562802D01*
G37*
G36*
G01X673000Y567702D02*
Y570702D01*
X673500Y571202D01*
X686000D01*
X691000Y576202D01*
X703000D01*
X703600Y575602D01*
Y567602D01*
X703200Y567202D01*
X673500D01*
X673000Y567702D01*
G37*
G36*
G01X672800Y658502D02*
X711200D01*
X713000Y656702D01*
Y648002D01*
X712500Y647502D01*
X710500D01*
X710000Y648002D01*
Y654002D01*
X709500Y654502D01*
X673037D01*
X672400Y655139D01*
Y658102D01*
X672800Y658502D01*
G37*
G36*
G01X696800Y99502D02*
X703300D01*
X705800Y97002D01*
Y67002D01*
X705300Y66502D01*
X701300D01*
X695300Y72502D01*
Y98002D01*
X696800Y99502D01*
G37*
G36*
G01X716700Y155602D02*
X707100D01*
X706800Y155902D01*
Y166302D01*
X707800Y167302D01*
X715800D01*
X717500Y165602D01*
Y156402D01*
X716700Y155602D01*
G37*
G36*
G01X696800Y305102D02*
X703300D01*
X705800Y302602D01*
Y272602D01*
X705300Y272102D01*
X701300D01*
X695300Y278102D01*
Y303602D01*
X696800Y305102D01*
G37*
G36*
G01X706800Y372402D02*
X716200D01*
X717500Y371102D01*
Y362302D01*
X716500Y361302D01*
X707000D01*
X706000Y362302D01*
Y371602D01*
X706800Y372402D01*
G37*
G36*
G01X696800Y510702D02*
X703300D01*
X705800Y508202D01*
Y478202D01*
X705300Y477702D01*
X701300D01*
X695300Y483702D01*
Y509202D01*
X696800Y510702D01*
G37*
G36*
G01X706500Y577502D02*
X716400D01*
X717400Y576502D01*
Y567902D01*
X716400Y566902D01*
X706900D01*
X705900Y567902D01*
Y576902D01*
X706500Y577502D01*
G37*
G36*
G01X793100Y99502D02*
X799600D01*
X802100Y97002D01*
Y67002D01*
X801600Y66502D01*
X797600D01*
X791600Y72502D01*
Y98002D01*
X793100Y99502D01*
G37*
G36*
G01Y305102D02*
X799600D01*
X802100Y302602D01*
Y272602D01*
X801600Y272102D01*
X797600D01*
X791600Y278102D01*
Y303602D01*
X793100Y305102D01*
G37*
G36*
G01Y510702D02*
X799600D01*
X802100Y508202D01*
Y478202D01*
X801600Y477702D01*
X797600D01*
X791600Y483702D01*
Y509202D01*
X793100Y510702D01*
G37*
G36*
G01X830900Y646802D02*
X828300D01*
X828100Y647002D01*
Y654902D01*
X827900Y655102D01*
X791300D01*
X791000Y655402D01*
Y657402D01*
X791700Y658102D01*
X829900D01*
X831100Y656902D01*
Y647002D01*
X830900Y646802D01*
G37*
G36*
G01X834300Y85702D02*
X831300Y88702D01*
Y121202D01*
X833800Y123702D01*
X935300D01*
X940300Y118702D01*
Y87702D01*
X938300Y85702D01*
X930300D01*
X927300Y88702D01*
Y109202D01*
X924300Y112202D01*
X844300D01*
X840800Y108702D01*
Y88702D01*
X837800Y85702D01*
X834300D01*
G37*
G36*
G01X834100Y291302D02*
X831100Y294302D01*
Y326802D01*
X833600Y329302D01*
X935100D01*
X940100Y324302D01*
Y293302D01*
X938100Y291302D01*
X930100D01*
X927100Y294302D01*
Y314802D01*
X924100Y317802D01*
X844100D01*
X840600Y314302D01*
Y294302D01*
X837600Y291302D01*
X834100D01*
G37*
G36*
G01X833600Y494902D02*
X830600Y497902D01*
Y530402D01*
X833100Y532902D01*
X934600D01*
X939600Y527902D01*
Y496902D01*
X937600Y494902D01*
X929600D01*
X926600Y497902D01*
Y518402D01*
X923600Y521402D01*
X843600D01*
X840100Y517902D01*
Y497902D01*
X837100Y494902D01*
X833600D01*
G37*
G36*
G01X889500Y99502D02*
X896000D01*
X898500Y97002D01*
Y67002D01*
X898000Y66502D01*
X894000D01*
X888000Y72502D01*
Y98002D01*
X889500Y99502D01*
G37*
G36*
G01X889900Y300402D02*
X896400D01*
X898900Y297902D01*
Y267902D01*
X898400Y267402D01*
X894400D01*
X888400Y273402D01*
Y298902D01*
X889900Y300402D01*
G37*
G36*
G01X889500Y510702D02*
X896000D01*
X898500Y508202D01*
Y478202D01*
X898000Y477702D01*
X894000D01*
X888000Y483702D01*
Y509202D01*
X889500Y510702D01*
G37*
G36*
G01X903900Y677402D02*
Y695602D01*
X904900Y696602D01*
X912500D01*
X913000Y696102D01*
Y691502D01*
X912400Y690902D01*
Y676402D01*
X911400Y675402D01*
Y666402D01*
X910900Y665902D01*
X908900D01*
X908400Y666402D01*
Y672902D01*
X903900Y677402D01*
G37*
G36*
G01X1050500Y672602D02*
X1054600Y668502D01*
Y655502D01*
X1052300Y653202D01*
X1036900D01*
X1014600Y675502D01*
Y679302D01*
X1015800Y680502D01*
X1023200D01*
X1026000Y683302D01*
Y689902D01*
X1026600Y690502D01*
X1034600D01*
X1037000Y692902D01*
X1040900D01*
X1050500Y683302D01*
Y672602D01*
G37*
G36*
G01X1047000Y695202D02*
X1018400D01*
X1016700Y696902D01*
Y703802D01*
X1020900Y708002D01*
X1062400D01*
X1069400Y701002D01*
Y682302D01*
X1067600Y680502D01*
X1060900D01*
X1059400Y679002D01*
Y670502D01*
X1058900Y670002D01*
X1055900D01*
X1055400Y670502D01*
Y687002D01*
X1047100Y695302D01*
X1047000Y695202D01*
G37*
G36*
G01X1059950Y668052D02*
X1061650D01*
X1064500Y670902D01*
Y676702D01*
X1064700Y676902D01*
X1069400D01*
X1069800Y676502D01*
Y670702D01*
X1071100Y669402D01*
X1099100D01*
X1118200Y688502D01*
X1136900D01*
X1138900Y686502D01*
Y666502D01*
X1138800Y666402D01*
X1118600D01*
X1104600Y652402D01*
X1060800D01*
X1058900Y654302D01*
Y667002D01*
X1059950Y668052D01*
G37*
G36*
G01X1136900Y692502D02*
X1103400D01*
X1100500Y689602D01*
Y682602D01*
X1099400Y681502D01*
X1087700D01*
X1085000Y684202D01*
Y712901D01*
X1087900Y715802D01*
X1099500D01*
X1100900Y714402D01*
Y706002D01*
X1103400Y703502D01*
X1136400D01*
X1138900Y701002D01*
Y694502D01*
X1136900Y692502D01*
G37*
G36*
G01X1106800Y709402D02*
Y723402D01*
X1102800Y727402D01*
X1090800D01*
X1089300Y728902D01*
Y742402D01*
X1090300Y743402D01*
X1119300D01*
X1120800Y741902D01*
Y721902D01*
X1123800Y718902D01*
X1136800D01*
X1138800Y716902D01*
Y708902D01*
X1137300Y707402D01*
X1108800D01*
X1106800Y709402D01*
G37*
G36*
G01X1172500Y124902D02*
X1169000Y128402D01*
Y513902D01*
X1172700Y517602D01*
X1207300D01*
X1210500Y514402D01*
Y128902D01*
X1206500Y124902D01*
X1172500D01*
G37*
G36*
G01X1170000Y627702D02*
X1169000Y628702D01*
Y637602D01*
X1171200Y639802D01*
X1181100D01*
X1183600Y637302D01*
Y624802D01*
X1183100Y624302D01*
X1180100D01*
X1176700Y627702D01*
X1170000D01*
G37*
G36*
G01X1168400Y659302D02*
X1167700Y660002D01*
Y670302D01*
X1168700Y671302D01*
X1181200D01*
X1183700Y668802D01*
Y656302D01*
X1183200Y655802D01*
X1180200D01*
X1176700Y659302D01*
X1168400D01*
G37*
G36*
G01X1165400Y783802D02*
X1236400D01*
X1240600Y779602D01*
Y721202D01*
X1239100Y719702D01*
X1228600D01*
X1224600Y723702D01*
Y773702D01*
X1221900Y776402D01*
X1166100D01*
X1164000Y778502D01*
Y782402D01*
X1165400Y783802D01*
G37*
G36*
G01X1186800Y637402D02*
X1204800D01*
Y618902D01*
X1186800D01*
Y637402D01*
G37*
G36*
G01X1186900Y669002D02*
X1204900D01*
Y650502D01*
X1186900D01*
Y669002D01*
G37*
G36*
G01X1314800Y676502D02*
Y620002D01*
X1311300Y616502D01*
X1241800D01*
X1230300Y628002D01*
X1210300D01*
X1208300Y630002D01*
Y650502D01*
X1210300Y652502D01*
X1291400D01*
X1297300Y658402D01*
Y675602D01*
X1299200Y677502D01*
X1313800D01*
X1314800Y676502D01*
G37*
G36*
G01X1221300Y664902D02*
Y695602D01*
X1234200Y708502D01*
X1292100D01*
X1307700Y724102D01*
X1335000D01*
X1340000Y719102D01*
Y699602D01*
X1341000Y698602D01*
Y694102D01*
X1341500Y693602D01*
X1353500D01*
X1354500Y694602D01*
Y699602D01*
X1355500Y700602D01*
X1363800D01*
X1365000Y699402D01*
Y689802D01*
X1363800Y688602D01*
X1354500D01*
X1354000Y688102D01*
Y687102D01*
X1353500Y686602D01*
X1314300D01*
X1308300Y680602D01*
X1295800D01*
X1291300Y676102D01*
Y666102D01*
X1288800Y663602D01*
X1222600D01*
X1221300Y664902D01*
G37*
G36*
G01X1276800Y902D02*
X1239300D01*
X1236300Y3902D01*
Y512102D01*
X1241700Y517502D01*
X1277900D01*
X1280800Y514602D01*
Y4902D01*
X1276800Y902D01*
G37*
G36*
G01X1341600Y746802D02*
X1351500Y736902D01*
Y695802D01*
X1350500D01*
Y701302D01*
X1350000Y701802D01*
X1348000D01*
X1347500Y701302D01*
Y696302D01*
X1347000Y695802D01*
X1343000D01*
X1342700Y696102D01*
Y699402D01*
X1342500Y699602D01*
Y725302D01*
X1335700Y732102D01*
X1297500D01*
X1285100Y719702D01*
X1245200D01*
X1243600Y721302D01*
Y744102D01*
X1246300Y746802D01*
X1341600D01*
G37*
G36*
G01X1313100Y124802D02*
X1309600Y128302D01*
Y514302D01*
X1312800Y517502D01*
X1347800D01*
X1351100Y514202D01*
Y128802D01*
X1347100Y124802D01*
X1313100D01*
G37*
G36*
G01X1343300Y683602D02*
Y663002D01*
X1349900Y656402D01*
Y636302D01*
X1349100Y635502D01*
X1330400D01*
X1325700Y640202D01*
Y681902D01*
X1327900Y684102D01*
X1342800D01*
X1343300Y683602D01*
G37*
G54D10*
X21700Y20502D03*
X23300Y766002D03*
X145100Y342402D03*
X584500Y21502D03*
Y766002D03*
X1072100Y102602D03*
Y766002D03*
X1361500Y16902D03*
X1363000Y771402D03*
G54D20*
X94900Y111002D03*
Y273202D03*
X95400Y467902D03*
X94900Y689502D03*
G54D11*
X29300Y94002D03*
Y213202D03*
X29800Y407902D03*
X29300Y629502D03*
X1119800Y28602D03*
X1257800Y28502D03*
G54D21*
X94839Y148002D03*
X94800Y310202D03*
Y504902D03*
Y726502D03*
X112161Y148002D03*
X112123Y310202D03*
Y504902D03*
Y726502D03*
G54D30*
X189075Y108942D03*
Y101462D03*
Y363942D03*
Y356462D03*
Y613942D03*
Y606462D03*
G54D12*
X16800Y81502D03*
Y106502D03*
Y200702D03*
Y225702D03*
X17300Y395402D03*
Y420402D03*
X16800Y617002D03*
Y642002D03*
X41800Y81502D03*
Y106502D03*
Y200702D03*
Y225702D03*
X42300Y395402D03*
Y420402D03*
X41800Y617002D03*
Y642002D03*
X1107300Y16102D03*
Y41102D03*
X1132300Y16102D03*
Y41102D03*
X1245300Y16002D03*
Y41002D03*
X1270300Y16002D03*
Y41002D03*
G54D40*
X396682Y46202D03*
Y42461D03*
Y38721D03*
X386800D03*
Y42461D03*
Y46202D03*
X396800Y293721D03*
X386918D03*
X396800Y301202D03*
Y297461D03*
X386918D03*
Y301202D03*
X396682Y551202D03*
Y547461D03*
Y543721D03*
X386800D03*
Y547461D03*
Y551202D03*
G54D22*
X83800Y165648D03*
Y158955D03*
X195400Y28409D03*
Y35102D03*
X199900Y108802D03*
Y115495D03*
X195400Y290102D03*
Y283409D03*
X199900Y370495D03*
Y363802D03*
X195400Y533409D03*
Y540102D03*
X199900Y613802D03*
Y620495D03*
X219400Y27709D03*
Y34402D03*
X220900Y82409D03*
Y89102D03*
X206400Y108802D03*
Y115495D03*
X219600Y282409D03*
Y289102D03*
X220900Y337209D03*
Y343902D03*
X206400Y370495D03*
Y363802D03*
X219700Y532409D03*
Y539102D03*
X220900Y587209D03*
Y593902D03*
X206400Y613802D03*
Y620495D03*
X238400Y80602D03*
Y73909D03*
Y335602D03*
Y328909D03*
Y578909D03*
Y585602D03*
X273900Y32802D03*
Y39495D03*
X273400Y63995D03*
Y57302D03*
X273900Y287802D03*
Y294495D03*
X273400Y312909D03*
Y319602D03*
X273900Y537409D03*
Y544102D03*
X273400Y568702D03*
Y562009D03*
X363200Y37909D03*
Y44602D03*
Y293402D03*
Y300095D03*
Y542909D03*
Y549602D03*
X639000Y659500D03*
Y652807D03*
X629500Y694402D03*
Y687709D03*
X635800Y687609D03*
Y694302D03*
X662377Y639850D03*
X669150D03*
X662377Y646543D03*
X669150D03*
X685900Y633402D03*
Y640095D03*
X679500D03*
Y633402D03*
X675900Y657402D03*
X683600Y656602D03*
X675900Y664095D03*
X683600Y663295D03*
X690200Y151209D03*
X708800D03*
X690200Y157902D03*
X708800D03*
X690200Y363502D03*
Y356809D03*
X709000D03*
Y363502D03*
X690700Y569002D03*
Y562309D03*
X708900Y562409D03*
Y569102D03*
X690100Y656602D03*
Y663295D03*
X742600Y633009D03*
Y639702D03*
X749000D03*
Y633009D03*
X738200Y681102D03*
X744700D03*
X738200Y687795D03*
X744700D03*
X770100Y713209D03*
Y719902D03*
X786500Y766809D03*
Y773502D03*
X803800Y630009D03*
Y636702D03*
X808000Y655709D03*
X801500D03*
X794000Y655909D03*
X803700Y642809D03*
Y649502D03*
X811700Y680602D03*
X805200D03*
X808000Y662402D03*
X801500D03*
X794000Y662602D03*
X811700Y687295D03*
X805200D03*
X794800Y713209D03*
Y719902D03*
X841900Y713309D03*
Y720002D03*
X851300Y713309D03*
Y720002D03*
X832900Y713209D03*
Y719902D03*
X860700Y632509D03*
Y639202D03*
X867100D03*
Y632509D03*
X856700Y684102D03*
Y690795D03*
X863100Y690402D03*
Y683709D03*
X879000Y636702D03*
Y630009D03*
X885500D03*
Y636702D03*
X888500Y650809D03*
Y657502D03*
Y670895D03*
Y664202D03*
X882000D03*
Y670895D03*
Y678202D03*
X888500D03*
X882000Y684895D03*
X888500D03*
X918690Y636524D03*
Y629831D03*
X925046D03*
Y636524D03*
X931374D03*
Y629831D03*
X931500Y651702D03*
Y658395D03*
Y671395D03*
Y664702D03*
Y678002D03*
Y684695D03*
X938070Y636524D03*
Y629831D03*
X938000Y664702D03*
Y671395D03*
X937900Y678002D03*
Y684695D03*
X971900Y327102D03*
Y320409D03*
X996900Y310602D03*
Y317295D03*
X997100Y516202D03*
Y522895D03*
X1022300Y697402D03*
Y690709D03*
X1039000Y697702D03*
Y691009D03*
X1068700Y639609D03*
Y646302D03*
X1093000Y638702D03*
Y645395D03*
X1120400Y685909D03*
Y692602D03*
Y709802D03*
Y703109D03*
X1172800Y629802D03*
Y623109D03*
X1171400Y654709D03*
Y661402D03*
X1302500Y675402D03*
Y682095D03*
G54D13*
X13700Y259702D03*
Y267182D03*
Y275702D03*
Y283182D03*
Y291702D03*
Y299182D03*
Y307702D03*
Y315182D03*
X14200Y456402D03*
Y463882D03*
Y472402D03*
Y479882D03*
Y488402D03*
Y495882D03*
Y504402D03*
Y511882D03*
X13400Y672102D03*
Y679582D03*
Y688102D03*
Y695582D03*
Y704102D03*
Y711582D03*
Y720102D03*
Y727582D03*
X38700Y259702D03*
Y267182D03*
Y275702D03*
Y283182D03*
Y291702D03*
Y299182D03*
Y307702D03*
Y315182D03*
X39200Y456402D03*
Y472402D03*
Y463882D03*
Y479882D03*
Y488402D03*
Y495882D03*
Y504402D03*
Y511882D03*
X38700Y672402D03*
Y679882D03*
Y688402D03*
Y695882D03*
Y704402D03*
Y711882D03*
Y720402D03*
Y727882D03*
X179400Y199002D03*
Y206482D03*
Y214002D03*
Y221482D03*
Y229002D03*
Y236482D03*
Y244002D03*
Y251482D03*
X174600Y445902D03*
Y453382D03*
Y461902D03*
Y469382D03*
Y477902D03*
Y485382D03*
Y493902D03*
Y501382D03*
X179000Y682302D03*
Y689782D03*
Y698302D03*
Y705782D03*
Y714302D03*
Y721782D03*
Y730302D03*
Y737782D03*
X202400Y199002D03*
Y206482D03*
Y214002D03*
Y221482D03*
Y229002D03*
Y236482D03*
Y244002D03*
Y251482D03*
X199600Y445902D03*
Y453382D03*
Y461902D03*
Y469382D03*
Y477902D03*
Y485382D03*
Y493902D03*
Y501382D03*
X204100Y682302D03*
Y689782D03*
Y698302D03*
Y705782D03*
Y714302D03*
Y721782D03*
Y730302D03*
Y737782D03*
X709800Y633121D03*
Y640602D03*
X705200Y681560D03*
Y689040D03*
X693900Y710521D03*
Y718002D03*
X718700Y633221D03*
Y640702D03*
X714500Y682102D03*
Y689582D03*
X827900Y632621D03*
Y640102D03*
X832600Y681602D03*
Y689082D03*
X836800Y632721D03*
Y640202D03*
X1164000Y623121D03*
Y630602D03*
X1162600Y654821D03*
Y662302D03*
X1195900Y700182D03*
Y692702D03*
G54D31*
X187000Y135002D03*
Y390002D03*
X187900Y640002D03*
X218800Y135002D03*
Y390002D03*
X219700Y640002D03*
G54D23*
X120913Y148002D03*
X121500Y310202D03*
X120827Y504902D03*
Y726502D03*
X135087Y148002D03*
X135673Y310202D03*
X135000Y504902D03*
Y726502D03*
G54D41*
X391900Y84664D03*
Y232302D03*
Y340164D03*
Y487802D03*
Y589664D03*
Y737302D03*
G54D14*
X20116Y315933D03*
X20500Y512402D03*
X47700Y255302D03*
X45100Y315702D03*
X48200Y452002D03*
X45600Y512402D03*
X46600Y672402D03*
X64000Y757202D03*
X69900Y764302D03*
X98000Y169370D03*
X82500Y354902D03*
X101100Y529002D03*
X82500Y549502D03*
X87800Y765902D03*
X109600Y250602D03*
X103900Y288102D03*
X104900Y335302D03*
Y342402D03*
Y349502D03*
X104400Y534202D03*
X117900Y537002D03*
X123000Y80000D03*
X132800Y243902D03*
X125400Y250602D03*
X124600Y513002D03*
X134900Y555202D03*
Y548102D03*
Y562302D03*
X138250Y756652D03*
X132000Y759902D03*
X136000Y763902D03*
X144900Y264002D03*
X146900Y513002D03*
X142500Y760902D03*
X146000Y754402D03*
X150000Y758402D03*
X182076Y109576D03*
Y100824D03*
X177200Y128000D03*
X177000Y150900D03*
X177100Y143200D03*
Y135600D03*
X181000Y283802D03*
X182000Y355802D03*
X182076Y364576D03*
X177200Y394200D03*
Y389100D03*
Y383000D03*
Y398900D03*
X180900Y501902D03*
X182000Y605802D03*
X182076Y614576D03*
X178290Y636550D03*
Y630050D03*
Y649550D03*
Y643050D03*
X184804Y19000D03*
X201800Y19502D03*
X197200Y23102D03*
X194000Y40202D03*
X190922Y89478D03*
X195600Y101502D03*
X196232Y108802D03*
X187106Y115685D03*
X201800Y274502D03*
X197200Y278102D03*
X194000Y295202D03*
X194500Y356302D03*
X190922Y344478D03*
X196232Y363802D03*
X187106Y370686D03*
X189100Y537102D03*
X201800Y524502D03*
X196200Y528202D03*
X194000Y545202D03*
X190900Y594500D03*
X195600Y606502D03*
X196232Y613802D03*
X187106Y620685D03*
X219400Y40202D03*
X205700Y40402D03*
X220945Y76955D03*
X210300Y109002D03*
X209600Y199002D03*
X211900Y252002D03*
X209200Y256602D03*
X219400Y295202D03*
X205900Y295402D03*
X220945Y331955D03*
X210300Y364002D03*
X208400Y445902D03*
X206000Y501902D03*
X219400Y545202D03*
X205900Y545402D03*
X220945Y581955D03*
X210300Y614002D03*
X223100Y634200D03*
X219700Y640002D03*
X223140Y645500D03*
X212900Y682302D03*
X225100Y34602D03*
X238400Y56402D03*
X226643Y82654D03*
X227700Y89302D03*
X225100Y132400D03*
X225700Y127500D03*
X225200Y137900D03*
X225800Y142700D03*
X225100Y270702D03*
Y289602D03*
X238400Y311402D03*
X226643Y337654D03*
X227700Y344302D03*
X225900Y383200D03*
X225700Y393200D03*
X225100Y388600D03*
X225900Y397700D03*
X225100Y539602D03*
X238400Y561402D03*
X227700Y594302D03*
X226643Y587654D03*
X262100Y29302D03*
X249300Y53602D03*
X248100Y62602D03*
X253800Y65502D03*
X254600Y73502D03*
X252200Y89302D03*
X246200D03*
X258200D03*
X262100Y284302D03*
X249400Y308502D03*
X254600Y328502D03*
X253800Y320502D03*
X248100Y317602D03*
X258200Y344302D03*
X246200D03*
X252200D03*
X262100Y534302D03*
X249300Y558602D03*
X253800Y570502D03*
X254600Y578502D03*
X248100Y567602D03*
X258200Y594302D03*
X252200D03*
X246200D03*
X273900Y23702D03*
X280900Y45702D03*
X278600Y39602D03*
Y294602D03*
X273900Y278702D03*
X280900Y300702D03*
X273900Y528702D03*
X280700Y550002D03*
X278600Y544602D03*
X302400Y48502D03*
X302911Y35302D03*
X302450Y41902D03*
X302400Y290302D03*
Y296902D03*
Y303502D03*
Y540302D03*
Y553502D03*
Y546902D03*
X310300Y24302D03*
X309900Y278402D03*
X310600Y528702D03*
X326000Y19902D03*
X363200Y34654D03*
Y289202D03*
Y539043D03*
X381100Y34654D03*
X380900Y290902D03*
Y540902D03*
X401900Y38721D03*
X404100Y53102D03*
X401800Y293702D03*
X404100Y308102D03*
X401800Y543702D03*
X404100Y558102D03*
X407300Y59302D03*
X407400Y314402D03*
X407500Y564502D03*
X505900Y159002D03*
X491900D03*
X498900Y231802D03*
Y217602D03*
Y224702D03*
X491900Y247802D03*
X498900Y306402D03*
Y313502D03*
Y299302D03*
X491900Y333002D03*
X498900Y491002D03*
Y485702D03*
Y496802D03*
X491700Y538902D03*
Y546002D03*
X518900Y349002D03*
X516900Y358002D03*
X524600Y577702D03*
X572900Y563002D03*
X569900Y560002D03*
Y570002D03*
X572900Y567002D03*
X576800Y684002D03*
X583900D03*
X582800Y712102D03*
X587200D03*
X596900Y370002D03*
X606100Y700802D03*
Y696402D03*
X605193Y683913D03*
X591000Y684002D03*
X598100D03*
X602000Y720602D03*
X616900Y63802D03*
Y270302D03*
Y477202D03*
X609100Y720602D03*
X616200D03*
X636900Y63802D03*
Y270202D03*
Y475102D03*
X643421Y630550D03*
X638950Y647718D03*
X629500Y684454D03*
X642500Y681502D03*
X667535Y172106D03*
X669261Y168106D03*
X669727Y374000D03*
X668000Y378000D03*
X658850Y627950D03*
X655000Y672400D03*
X658900Y681502D03*
X685600Y204002D03*
X682400Y200202D03*
X670900Y512002D03*
X681900Y553002D03*
Y549002D03*
X669863Y624289D03*
X684900Y623402D03*
X679500Y628802D03*
X673301Y646100D03*
X670500Y663902D03*
X676000Y669402D03*
X683600Y667702D03*
X680150Y693188D03*
X687400Y710000D03*
X684600Y724802D03*
X675100D03*
X681500Y761502D03*
X676800Y762102D03*
X687800Y761502D03*
X684500Y764602D03*
X692900Y163502D03*
Y369702D03*
X697900Y554002D03*
X701900D03*
X690900Y574502D03*
X706100Y595402D03*
X700100Y626202D03*
X705300D03*
X691800Y652000D03*
X690100Y667702D03*
X707136Y695374D03*
X696500Y696500D03*
X700941Y696800D03*
X706800Y709902D03*
X694000Y724802D03*
X709700D03*
X709800Y761402D03*
X697200Y760502D03*
X690800Y764602D03*
X703900Y767402D03*
X706800Y764502D03*
X713300Y63802D03*
X715700Y157202D03*
Y162202D03*
X713300Y270802D03*
X715700Y367802D03*
X713300Y476302D03*
X715700Y575302D03*
Y570302D03*
X710500Y595402D03*
X728600Y626214D03*
X723400Y626420D03*
X724300Y696802D03*
X719200D03*
X718800Y708702D03*
X719300Y742402D03*
X712900Y764002D03*
X733300Y64302D03*
X738500Y267402D03*
X733300Y269702D03*
Y475002D03*
X744400Y623902D03*
X749000Y628702D03*
X744700Y676302D03*
X731700Y710402D03*
X738100Y725102D03*
Y761302D03*
X733200Y762302D03*
X758500Y267402D03*
X758600Y639702D03*
X752900Y643902D03*
X762200Y772102D03*
X766000Y763502D03*
X789600Y713402D03*
X775300D03*
X782000Y724202D03*
X775900Y760803D03*
X787500Y779002D03*
X791300Y782302D03*
X781800Y774902D03*
X809600Y64202D03*
Y270002D03*
Y476002D03*
X797600Y643902D03*
X809700Y646102D03*
X794100Y668902D03*
X801600Y667202D03*
X808100D03*
X805200Y675802D03*
Y692402D03*
X801500Y709402D03*
X807700Y725402D03*
X806148Y745105D03*
X810557Y745200D03*
X830400Y619102D03*
X818100Y625702D03*
X823300D03*
X827900Y677102D03*
X828108Y713386D03*
X826200Y716902D03*
X823700Y724602D03*
X814611Y744905D03*
X816900Y760803D03*
X829500Y761302D03*
X825800Y763902D03*
X846700Y625702D03*
X841500D03*
X851796Y664702D03*
X832300Y696202D03*
X842400Y696302D03*
X837300D03*
X837900Y725502D03*
X846000Y725702D03*
X851500Y761302D03*
X867000Y628402D03*
X867100Y644802D03*
X863100Y678602D03*
X871400Y682802D03*
X868500Y690502D03*
X857200Y720402D03*
X879000Y624802D03*
X876900Y658702D03*
X883970Y651300D03*
X876900Y663102D03*
X882000Y691502D03*
X906000Y63802D03*
Y270002D03*
Y476302D03*
X900300Y625102D03*
X904964Y625137D03*
X912800Y631500D03*
X909800Y645102D03*
X910000Y665002D03*
X893100Y678202D03*
X903800Y733602D03*
X910900D03*
X931374Y625626D03*
X918640Y625625D03*
X924996D03*
X926900Y678102D03*
X921300Y679802D03*
X922500Y693702D03*
X931500Y689702D03*
X921400Y686102D03*
X918000Y733602D03*
X943000Y612000D03*
X949000D03*
X938021Y625625D03*
X943000Y659202D03*
X936170Y651701D03*
X943000Y663602D03*
X936900Y709902D03*
X968600Y108702D03*
X963900Y253002D03*
X971500Y313102D03*
X960400Y460002D03*
X964900D03*
X961900Y495002D03*
X963200Y532702D03*
X986500Y296602D03*
X996700Y112802D03*
X1002900Y99302D03*
X997700Y500802D03*
X1009600Y506602D03*
X1004000Y523202D03*
X1006800Y529702D03*
X1012300Y526346D03*
X1003500Y765102D03*
X1016100Y308302D03*
X1025000Y512902D03*
X1019200Y509902D03*
X1016284Y525994D03*
X1022000Y523202D03*
X1030400Y677902D03*
X1025300Y673702D03*
X1028800Y703202D03*
X1041000Y99902D03*
X1039400Y93802D03*
X1044400Y299202D03*
X1048700Y513002D03*
X1043971Y508748D03*
X1042900Y512602D03*
X1041900Y505002D03*
X1047800Y523502D03*
X1051100Y656002D03*
X1044400Y661302D03*
X1039100Y684902D03*
X1048300Y703202D03*
X1041800D03*
X1035300D03*
X1038200Y724202D03*
X1058100Y272902D03*
X1067500Y273002D03*
X1074700Y289302D03*
X1067500Y480302D03*
X1075000Y491102D03*
X1063900Y640002D03*
X1071100Y707602D03*
X1066500Y712202D03*
X1066600Y720202D03*
X1082600Y516202D03*
X1083600Y660802D03*
Y654302D03*
X1075700Y660802D03*
Y654302D03*
Y667302D03*
X1083600D03*
X1087800Y701302D03*
Y694802D03*
X1075700Y703102D03*
X1087800Y707802D03*
X1097800Y645002D03*
X1113800Y695402D03*
Y701902D03*
X1118800Y639102D03*
Y646202D03*
Y653302D03*
X1129600Y729302D03*
X1141000Y630602D03*
Y637702D03*
Y623502D03*
X1157900Y630602D03*
X1176600Y636002D03*
X1171700D03*
X1156800Y663202D03*
X1170300Y667802D03*
X1175200D03*
X1195900Y708102D03*
X1188984Y734473D03*
X1181400Y743102D03*
X1188900Y758502D03*
X1181400Y767102D03*
X1243800Y634600D03*
X1256800Y628100D03*
X1250300D03*
Y634600D03*
X1256800D03*
X1243800Y628100D03*
X1256700Y685102D03*
X1250200D03*
X1243700D03*
X1256700Y691602D03*
X1250200D03*
X1243700D03*
X1256700Y698102D03*
X1250200D03*
X1243700D03*
X1256700Y704602D03*
X1250200D03*
X1243700D03*
X1263300Y628100D03*
X1269800D03*
X1263300Y634600D03*
X1269800D03*
X1269700Y685102D03*
X1263200D03*
X1269700Y691602D03*
X1263200D03*
X1314600Y689202D03*
X1307900Y689102D03*
X1301400D03*
Y695602D03*
X1314600Y695702D03*
X1307900Y695602D03*
X1301400Y702102D03*
X1314600Y702202D03*
X1307900Y702102D03*
X1314600Y708702D03*
X1307900Y708602D03*
X1301400D03*
X1314600Y715202D03*
X1308100D03*
X1301600D03*
X1321100Y689202D03*
X1327600D03*
Y695702D03*
X1321100D03*
Y702202D03*
X1327600D03*
Y708702D03*
X1321100D03*
Y715202D03*
X1327600D03*
X1360200Y680502D03*
X1371000Y665702D03*
X1370900Y674402D03*
X1362500Y695602D03*
G54D50*
X643900Y687084D03*
Y689643D03*
Y692202D03*
X651500D03*
Y687084D03*
G54D32*
X238400Y61796D03*
Y67702D03*
Y316796D03*
Y322702D03*
Y566796D03*
Y572702D03*
X1022300Y678696D03*
Y684602D03*
G54D60*
X1095800Y661933D03*
Y688902D03*
X1238700Y643733D03*
Y670702D03*
X1274000Y643633D03*
Y670602D03*
G54D24*
X134900Y111002D03*
Y273202D03*
X135400Y467902D03*
X134900Y689502D03*
G54D15*
X56945Y165614D03*
X66000D03*
X75055D03*
X63945Y334414D03*
X73000D03*
X63945Y529014D03*
X73000D03*
X63945Y750714D03*
X73000D03*
X82055Y334414D03*
Y529014D03*
Y750714D03*
X1048345Y673590D03*
X1066455D03*
X1057400D03*
G54D42*
X470900Y201302D03*
Y457302D03*
Y706302D03*
G54D33*
X245700Y135002D03*
Y390002D03*
Y640002D03*
X315700Y135002D03*
Y390002D03*
Y640002D03*
X464500Y135102D03*
Y392002D03*
Y640502D03*
X534500Y135102D03*
Y392002D03*
Y640502D03*
G54D51*
X668824Y734104D03*
X665675D03*
X668824Y753002D03*
X665675D03*
X678273Y734104D03*
X675124D03*
X671974D03*
X687722D03*
X684573D03*
X681423D03*
X675124Y753002D03*
X671974D03*
X687722D03*
X684573D03*
X681423D03*
X678273D03*
X706620Y734104D03*
X703470D03*
X700320D03*
X697171D03*
X694021D03*
X690872D03*
X706620Y753002D03*
X703470D03*
X700320D03*
X697171D03*
X694021D03*
X690872D03*
X728667Y734104D03*
X725517D03*
X722368D03*
X719218D03*
X716069D03*
X712919D03*
X709769D03*
X728667Y753002D03*
X725517D03*
X722368D03*
X719218D03*
X716069D03*
X712919D03*
X709769D03*
X747565Y734104D03*
X744415D03*
X741265D03*
X738116D03*
X734966D03*
X731816D03*
X747565Y753002D03*
X744415D03*
X741265D03*
X738116D03*
X734966D03*
X731816D03*
X769612Y734104D03*
X766462D03*
X750714D03*
X769612Y753002D03*
X766462D03*
X750714D03*
X788510Y734104D03*
X785360D03*
X782210D03*
X779061D03*
X775911D03*
X772761D03*
X788510Y753002D03*
X785360D03*
X782210D03*
X779061D03*
X775911D03*
X772761D03*
X810557Y734104D03*
X807407D03*
X804257D03*
X801108D03*
X797958D03*
X794809D03*
X791659D03*
X810557Y753002D03*
X807407D03*
X804257D03*
X801108D03*
X797958D03*
X794809D03*
X791659D03*
X829454Y734104D03*
X826305D03*
X823155D03*
X820006D03*
X816856D03*
X813706D03*
X829454Y753002D03*
X826305D03*
X823155D03*
X820006D03*
X816856D03*
X813706D03*
X832604Y734104D03*
X851502D03*
X848352D03*
X845202D03*
X842053D03*
X838903D03*
X835754D03*
X851502Y753002D03*
X848352D03*
X845202D03*
X842053D03*
X838903D03*
X835754D03*
X832604D03*
X864100Y734104D03*
X860950D03*
X857801D03*
X854651D03*
X864100Y753002D03*
X860950D03*
X857801D03*
X854651D03*
X946754Y734104D03*
X949903D03*
X946754Y753002D03*
X949903D03*
X953053Y734104D03*
X956202D03*
X959352D03*
X962502D03*
X965651D03*
X968801D03*
X971950D03*
X953053Y753002D03*
X956202D03*
X959352D03*
X962502D03*
X965651D03*
X968801D03*
X971950D03*
X975100Y734104D03*
X978254D03*
X981403D03*
X984553D03*
X987702D03*
X990852D03*
X975100Y753002D03*
X978254D03*
X981403D03*
X984553D03*
X987702D03*
X990852D03*
X994002Y734104D03*
X997151D03*
X1000301D03*
X1003450D03*
X1006600D03*
X1009754D03*
X1012903D03*
X994002Y753002D03*
X997151D03*
X1000301D03*
X1003450D03*
X1006600D03*
X1009754D03*
X1012903D03*
X1028651Y734104D03*
X1031801D03*
X1016053D03*
X1019202D03*
X1022352D03*
X1025502D03*
Y753002D03*
X1028651D03*
X1031801D03*
X1016053D03*
X1019202D03*
X1022352D03*
X1034950Y734104D03*
X1038100D03*
X1034950Y753002D03*
X1038100D03*
G54D34*
X254002Y53502D03*
Y308502D03*
Y558502D03*
X266600Y53502D03*
X284502Y294002D03*
X266600Y308502D03*
Y558502D03*
X284502Y544002D03*
X298298Y39002D03*
X285700D03*
X297100Y294002D03*
Y544002D03*
X1334700Y718402D03*
X1347298D03*
G54D52*
X650517Y743553D03*
X879258D03*
G54D43*
G01X614500Y48000D02*
X640500D01*
G01X613000Y105000D02*
Y87500D01*
G01X613500Y253500D02*
X639500D01*
G01X613500Y310500D02*
Y293000D01*
G01Y459000D02*
X639500D01*
G01X613000Y516000D02*
Y498500D01*
G01X631000Y105000D02*
Y87500D01*
G01X631500Y310500D02*
Y293000D01*
G01X631000Y516000D02*
Y498500D01*
G01X710000Y48000D02*
X736000D01*
G01X709500Y103500D02*
Y86000D01*
G01X710500Y253500D02*
X736500D01*
G01X709500Y310500D02*
Y293000D01*
G01Y459000D02*
X735500D01*
G01X709000Y516000D02*
Y498500D01*
G01X727500Y103500D02*
Y86000D01*
G01Y310500D02*
Y293000D01*
G01X727000Y516000D02*
Y498500D01*
G01X753000Y130000D02*
X779000D01*
G01X752500Y213500D02*
X778500D01*
G01X752500Y335000D02*
X778500D01*
G01X752900Y418900D02*
X778900D01*
G01X752500Y541000D02*
X778500D01*
G01X806500Y47500D02*
X832500D01*
G01X805500Y105000D02*
Y87500D01*
G01X806500Y253500D02*
X832500D01*
G01X805900Y310500D02*
Y293000D01*
G01X806500Y459000D02*
X832500D01*
G01X805500Y516000D02*
Y498500D01*
G01X823500Y105000D02*
Y87500D01*
G01Y310500D02*
Y293000D01*
G01Y516000D02*
Y498500D01*
G01X903000Y47500D02*
X929000D01*
G01X902700Y104600D02*
Y87100D01*
G01X902500Y253500D02*
X928500D01*
G01X902500Y310500D02*
Y293000D01*
G01X903000Y459000D02*
X929000D01*
G01X902000Y516000D02*
Y498500D01*
G01X920000Y104500D02*
Y87000D01*
G01X920500Y310500D02*
Y293000D01*
G01X920000Y516000D02*
Y498500D01*
X470900Y221802D03*
Y477802D03*
Y726802D03*
X510700Y694702D03*
X550700D03*
X974200Y73802D03*
Y63802D03*
Y269402D03*
Y279402D03*
Y475102D03*
Y485102D03*
X994200Y73802D03*
X984200Y63802D03*
X994200D03*
X984200Y73802D03*
Y269402D03*
X994200D03*
Y279402D03*
X984200D03*
Y475102D03*
X994200D03*
Y485102D03*
X1004200Y63802D03*
X1014200D03*
X1004200Y269402D03*
X1014200D03*
X1004200Y475102D03*
X1014200D03*
X1024200Y63802D03*
Y73802D03*
X1034200D03*
Y63802D03*
X1024200Y269402D03*
X1034200D03*
X1024200Y279402D03*
X1034200D03*
X1024200Y475102D03*
X1034200D03*
X1024200Y485102D03*
X1034200D03*
X1044200Y63802D03*
Y73802D03*
Y269402D03*
Y475102D03*
X1139900Y604202D03*
X1149900D03*
X1159900D03*
X1169900D03*
X1212000Y633002D03*
Y623002D03*
Y648402D03*
Y658402D03*
X1277100Y724102D03*
Y704102D03*
G54D70*
X1306900Y646802D03*
X1341900D03*
G54D61*
X1095900Y708402D03*
Y735370D03*
G54D16*
X79900Y51002D03*
Y213202D03*
X80400Y407902D03*
X79900Y629502D03*
G54D25*
X149900Y61002D03*
Y223202D03*
X150400Y417902D03*
X149900Y639502D03*
G54D80*
G01X13700Y259702D02*
Y236502D01*
G01Y275702D02*
Y267182D01*
G01Y291702D02*
Y283182D01*
G01Y307702D02*
Y299182D01*
G01X14200Y456402D02*
Y436102D01*
G01Y472402D02*
Y463882D01*
G01Y504402D02*
Y495882D01*
G01Y488402D02*
Y479882D01*
G01X13400Y672102D02*
Y659802D01*
G01Y688102D02*
Y679582D01*
G01Y704102D02*
Y695582D01*
G01Y720102D02*
Y711582D01*
G01X38700Y267182D02*
Y275702D01*
G01Y259702D02*
X39094D01*
X43494Y255302D01*
X47700D01*
G01X38700Y291702D02*
Y283182D01*
G01Y307702D02*
Y299182D01*
G01X39200Y456402D02*
X39594D01*
X43994Y452002D01*
X48200D01*
G01X39200Y472402D02*
Y463882D01*
G01Y488402D02*
Y479882D01*
G01Y504402D02*
Y495882D01*
G01X38700Y688402D02*
Y679882D01*
G01Y672402D02*
X46600D01*
G01X38700Y704402D02*
Y695882D01*
G01Y720402D02*
Y711882D01*
G01X109500Y183902D02*
X63500D01*
X56945Y177347D01*
Y165614D01*
G01X109600Y250602D02*
X103300D01*
X57000Y296902D01*
Y322614D01*
X63945Y329559D01*
Y334414D01*
G01X66000Y165614D02*
Y156402D01*
G01X75055Y165614D02*
X79797D01*
X79832Y165648D01*
X83800D01*
G01X66000Y167008D02*
Y165614D01*
G01X73000Y334414D02*
Y325902D01*
G01X69900Y343602D02*
X67090D01*
X63945Y340457D01*
Y334414D01*
G01X76593Y343602D02*
X79055D01*
X82055Y340602D01*
Y334414D01*
G01X76593Y343602D02*
X76200Y343995D01*
Y350202D01*
G01X73000Y529014D02*
Y520302D01*
G01X76593Y538002D02*
X78800D01*
X82055Y534747D01*
Y529014D01*
G01X76200Y544402D02*
Y538395D01*
X76593Y538002D01*
G01X69900D02*
X66800D01*
X63945Y535147D01*
Y529014D01*
G01X73000Y750714D02*
Y740702D01*
G01X76200Y765902D02*
Y759995D01*
X76593Y759602D01*
G01X82055Y750714D02*
Y754336D01*
X76790Y759602D01*
X76593D01*
G01X69900D02*
X66400D01*
X64000Y757202D01*
G01D02*
Y753402D01*
X63945Y753347D01*
Y750714D01*
G01X69900Y759602D02*
Y764302D01*
G01X90954Y165702D02*
X83854D01*
X83800Y165648D01*
G01Y158955D02*
X101354D01*
X109500Y167102D01*
Y183902D01*
G01D02*
X109600Y184002D01*
Y250602D01*
G01X125400D02*
X109600D01*
G01X315700Y135002D02*
Y172602D01*
X304400Y183902D01*
X194894D01*
X179794Y199002D01*
X179400D01*
G01X315700Y390002D02*
Y428102D01*
X308550Y435252D01*
X180691D01*
X174600Y441343D01*
Y445902D01*
G01Y461902D02*
Y453382D01*
G01Y477902D02*
Y469382D01*
G01Y493902D02*
Y485382D01*
G01X179000Y682302D02*
Y674902D01*
X189600Y664302D01*
X311200D01*
X315700Y659802D01*
Y640002D01*
G01X179000Y689782D02*
Y698302D01*
G01Y705782D02*
Y714302D01*
G01Y730302D02*
Y721782D01*
G01X187000Y135002D02*
X196600D01*
X199900Y131702D01*
Y115495D01*
G01X209600Y199002D02*
X202400D01*
G01X199900Y370495D02*
Y384902D01*
X194800Y390002D01*
X187000D01*
G01X199600Y453382D02*
Y461902D01*
G01Y445902D02*
X208400D01*
G01X199600Y469382D02*
Y477902D01*
G01Y493902D02*
Y485382D01*
G01X206400Y115495D02*
Y130402D01*
X211000Y135002D01*
X218800D01*
G01X206400Y370495D02*
Y385402D01*
X211000Y390002D01*
X218800D01*
G01X204100Y689782D02*
Y698302D01*
G01Y714302D02*
Y705782D01*
G01Y730302D02*
Y721782D01*
G01X238400Y61796D02*
Y56402D01*
G01Y73909D02*
Y67702D01*
G01X254002Y53502D02*
X249400D01*
X249300Y53602D01*
G01X248400Y67502D02*
Y62902D01*
X248100Y62602D01*
G01X258920Y65502D02*
X253800D01*
G01X258907Y73502D02*
X254600D01*
G01X299800Y27502D02*
X306700D01*
X309300Y30102D01*
G01X299800Y56502D02*
X306900D01*
X309300Y54102D01*
G01X298900Y282502D02*
X306700D01*
X309300Y285102D01*
G01X298900Y311502D02*
X306900D01*
X309300Y309102D01*
G01X298900Y532502D02*
X306600D01*
X309200Y535102D01*
G01X298900Y561502D02*
X306800D01*
X309200Y559102D01*
G01X326500Y160402D02*
X326000Y160902D01*
G01X383700Y51802D02*
X381400Y54102D01*
X353800D01*
G01X399493Y59302D02*
X407300D01*
G01X404100Y53102D02*
X399493D01*
G01X399100Y314302D02*
X403550D01*
X403650Y314402D01*
X407400D01*
G01X399100Y308102D02*
X404100D01*
G01X399493Y558102D02*
X404100D01*
G01X399493Y564302D02*
X407300D01*
X407500Y564502D01*
G01X616900Y263102D02*
X605000D01*
X593200Y274902D01*
Y286002D01*
G01X616900Y468702D02*
X602900D01*
X593200Y478402D01*
Y491002D01*
G01X616900Y263102D02*
Y270302D01*
G01Y468702D02*
Y477202D01*
G01X636900Y263102D02*
Y270202D01*
G01Y468702D02*
Y475102D01*
G01X713300Y263102D02*
X698600D01*
X689200Y272502D01*
Y286002D01*
G01X713300Y468702D02*
X709332D01*
X709232Y468802D01*
X699100D01*
X689200Y478702D01*
Y491002D01*
G01X713300Y263102D02*
Y270802D01*
G01Y468702D02*
Y476302D01*
G01X738500Y262102D02*
Y267402D01*
G01X733300Y263102D02*
Y269702D01*
G01Y468702D02*
Y475002D01*
G01X758500Y262102D02*
Y267402D01*
G01X809600Y263102D02*
X805632D01*
X805232Y262702D01*
X796100D01*
X785200Y273602D01*
Y286002D01*
G01X809600Y468702D02*
X794200D01*
X785200Y477702D01*
Y491002D01*
G01X809600Y263102D02*
Y270002D01*
G01Y468702D02*
Y476002D01*
G01X906000Y263102D02*
X890400D01*
X882200Y271302D01*
Y286002D01*
G01X906000Y468702D02*
X892100D01*
X882200Y478602D01*
Y491002D01*
G01X888500Y650809D02*
X884461D01*
X883970Y651300D01*
G01X906000Y263102D02*
Y270002D01*
G01Y468702D02*
Y476302D01*
G01X912800Y631500D02*
Y636395D01*
X912593Y636602D01*
G01X931500Y651702D02*
X936169D01*
X936170Y651701D01*
G01D02*
X941898D01*
X944200Y649399D01*
Y638686D01*
X942038Y636524D01*
X938070D01*
G01X956300Y97702D02*
Y92952D01*
X960850Y88402D01*
X969707D01*
G01X984200Y63802D02*
Y56302D01*
G01X974200Y63802D02*
Y56302D01*
G01X976400Y88402D02*
Y92852D01*
X976300Y92952D01*
Y97702D01*
G01X984200Y73802D02*
Y81302D01*
G01X974200Y73802D02*
Y81302D01*
G01X984200Y269402D02*
Y261902D01*
G01X974200Y269402D02*
Y261902D01*
G01X984200Y286902D02*
Y279402D01*
G01X974200Y286902D02*
Y279402D01*
G01X990493Y316602D02*
Y310502D01*
G01X983800Y316602D02*
Y321502D01*
X984400Y322102D01*
Y327102D01*
G01X996900Y317295D02*
Y324602D01*
X994400Y327102D01*
G01X984200Y467602D02*
Y475102D01*
G01X974200Y467602D02*
Y475102D01*
G01Y492602D02*
Y485102D01*
G01X1004200Y63802D02*
Y56302D01*
G01X994200Y63802D02*
Y56302D01*
G01Y73802D02*
Y81302D01*
G01Y269402D02*
Y261902D01*
G01X1004200Y269402D02*
Y261902D01*
G01X994200Y286902D02*
Y279402D01*
G01Y467602D02*
Y475102D01*
G01X1004200Y467602D02*
Y475102D01*
G01X994200Y492602D02*
Y485102D01*
G01X1024200Y63802D02*
Y56302D01*
G01X1014200Y63802D02*
Y56302D01*
G01X1034200Y63802D02*
Y56302D01*
G01X1024200Y73802D02*
Y81302D01*
G01X1034200Y73802D02*
Y81302D01*
G01X1024200Y269402D02*
Y261902D01*
G01X1014200Y269402D02*
Y261902D01*
G01X1034200Y269402D02*
Y261902D01*
G01X1024200Y286902D02*
Y279402D01*
G01X1034200Y286902D02*
Y279402D01*
G01X1024200Y467602D02*
Y475102D01*
G01X1014200Y467602D02*
Y475102D01*
G01X1034200Y467602D02*
Y475102D01*
G01Y492602D02*
Y485102D01*
G01X1022300Y690709D02*
Y684602D01*
G01X1044200Y63802D02*
Y56302D01*
G01Y73802D02*
Y81302D01*
G01Y269402D02*
Y261902D01*
G01Y467602D02*
Y475102D01*
G01Y492602D02*
X1069750D01*
X1071250Y491102D01*
X1075000D01*
G01X1046493Y500002D02*
X1053400D01*
X1056400Y503002D01*
Y512702D01*
X1059900Y516202D01*
X1082600D01*
G01X1068700Y646302D02*
Y653902D01*
G01X1134408Y698106D02*
X1144502D01*
X1149106Y693502D01*
Y661402D01*
G01X1124893Y736702D02*
X1125090D01*
X1128473Y733319D01*
Y733122D01*
X1129600Y731995D01*
Y729302D01*
G01X1143493Y668502D02*
Y661695D01*
X1143200Y661402D01*
G01X1164000Y623121D02*
X1172787D01*
X1172800Y623109D01*
G01X1181600Y620602D02*
X1178124D01*
X1178024Y620702D01*
X1177700D01*
X1175293Y623109D01*
X1172800D01*
G01X1162600Y654821D02*
X1171287D01*
X1171400Y654709D01*
G01X1181700Y652202D02*
X1177900D01*
X1175393Y654709D01*
X1171400D01*
G01X1195900Y692702D02*
Y682902D01*
X1192108Y679109D01*
X1182400D01*
G01X1195900Y700182D02*
Y708102D01*
G01X1188984Y734473D02*
Y742936D01*
X1188818Y743102D01*
G01X1181400D02*
X1188818D01*
G01X1188900Y758502D02*
Y767036D01*
X1188818Y767117D01*
G01X1181400Y767102D02*
X1188802D01*
X1188818Y767117D01*
G01X1203450Y620602D02*
X1209600D01*
X1212000Y623002D01*
G01Y658402D02*
X1208200Y662202D01*
X1203550D01*
G01X1364880Y665702D02*
X1371000D01*
G01X1364780Y674402D02*
X1370900D01*
G54D71*
X1338410Y690087D03*
X1349631Y692646D03*
Y687527D03*
X1351875Y690087D03*
X1347387D03*
X1342898D03*
X1340654Y687527D03*
Y692646D03*
X1345142D03*
Y687527D03*
G54D53*
X659769Y743553D03*
X870399Y749065D03*
X940852Y743553D03*
X1044006Y749222D03*
G54D26*
X179900Y43002D03*
Y295202D03*
X180000Y545202D03*
X219900Y199002D03*
Y445902D03*
X224900Y682102D03*
X311400Y13002D03*
X312200Y267802D03*
X311800Y518002D03*
X351400Y13002D03*
X352200Y267802D03*
X351800Y518002D03*
X600400Y90802D03*
Y296402D03*
Y502102D03*
X607900Y709002D03*
X621800Y90802D03*
Y296402D03*
Y502102D03*
X617900Y709002D03*
X643300Y90802D03*
Y296402D03*
Y502102D03*
X636000Y709902D03*
Y719902D03*
X696800Y90802D03*
Y296402D03*
Y502102D03*
X718200Y90802D03*
Y296402D03*
Y502102D03*
X739700Y90802D03*
Y296402D03*
Y502102D03*
X793100Y90802D03*
Y296402D03*
Y502102D03*
X814500Y90802D03*
Y296402D03*
Y502102D03*
X814200Y769302D03*
Y779302D03*
X836000Y90802D03*
Y296402D03*
Y502102D03*
X842300Y778902D03*
X852300D03*
X889500Y90802D03*
Y296402D03*
Y502102D03*
X888900Y716002D03*
X910900Y90802D03*
Y296402D03*
Y502102D03*
X898900Y716002D03*
X932400Y90802D03*
Y296402D03*
Y502102D03*
X994400Y121502D03*
X984400D03*
X994400Y327102D03*
X984400D03*
X994400Y532702D03*
X984400D03*
X1107600Y638802D03*
X1137800Y774102D03*
X1168000Y779902D03*
X1210000Y80000D03*
X1220000Y240000D03*
X1200000Y440000D03*
Y450000D03*
X1237100Y724202D03*
X1252900Y586002D03*
X1247100Y724202D03*
X1262900Y586002D03*
X1340000Y200000D03*
Y440000D03*
Y450000D03*
X1350000Y80000D03*
X1360000Y230000D03*
X1356900Y586002D03*
X1366900D03*
G54D35*
X256000Y35221D03*
Y42702D03*
Y290221D03*
Y297702D03*
Y540221D03*
Y547702D03*
X265882Y42702D03*
Y38961D03*
Y35221D03*
Y293961D03*
Y290221D03*
Y297702D03*
Y547702D03*
Y543961D03*
Y540221D03*
G54D17*
X66000Y141402D03*
X73000Y310202D03*
Y504802D03*
Y726502D03*
X1057400Y697802D03*
G54D44*
X575000Y72802D03*
Y278402D03*
Y484002D03*
X755862Y72802D03*
Y278402D03*
Y484002D03*
X772400Y72802D03*
Y278402D03*
Y484002D03*
X953262Y72802D03*
Y278402D03*
Y484002D03*
G54D62*
X1135400Y130002D03*
Y257502D03*
X1134900Y385002D03*
X1135400Y512402D03*
X1174770Y130002D03*
Y257502D03*
X1174270Y385002D03*
X1174770Y512402D03*
X1275700Y130002D03*
Y257502D03*
Y385002D03*
Y512402D03*
X1315070Y130002D03*
Y257502D03*
Y385002D03*
Y512402D03*
G54D81*
G01X66000Y141402D02*
X78100D01*
X84700Y148002D01*
X94839D01*
G01X66000Y156402D02*
Y141402D01*
G01X73000Y325902D02*
Y310202D01*
G01D02*
X94800D01*
G01X73000Y520302D02*
Y504802D01*
G01D02*
X87369D01*
X87469Y504902D01*
X94800D01*
G01X73000Y726502D02*
X94800D01*
G01X73000Y740702D02*
Y726502D01*
G01X94839Y148002D02*
Y117528D01*
X94900Y117466D01*
Y111002D01*
G01Y273202D02*
Y302869D01*
X94800Y302969D01*
Y310202D01*
G01X95400Y467902D02*
Y497069D01*
X94800Y497669D01*
Y504902D01*
G01Y726502D02*
Y696066D01*
X94900Y695966D01*
Y689502D01*
G01X112161Y148002D02*
X120913D01*
G01X112123Y310202D02*
X121500D01*
G01X112123Y504902D02*
X120827D01*
G01X112123Y726502D02*
X120827D01*
G01X135087Y148002D02*
Y117653D01*
X134900Y117466D01*
Y111002D01*
G01Y273202D02*
Y303476D01*
X135673Y304249D01*
Y310202D01*
G01X135400Y467902D02*
Y498549D01*
X135000Y498949D01*
Y504902D01*
G01Y726502D02*
Y696066D01*
X134900Y695966D01*
Y689502D01*
G01X144900Y264002D02*
X218400D01*
X225100Y270702D01*
G01X179400Y206482D02*
Y214002D01*
G01Y229002D02*
Y221482D01*
G01Y244002D02*
Y236482D01*
G01X202400Y214002D02*
Y206482D01*
G01Y229002D02*
Y221482D01*
G01Y244002D02*
Y236482D01*
G01X212900Y682302D02*
X204100D01*
G01X498900Y313502D02*
Y329002D01*
X518900Y349002D01*
G01X491900Y333002D02*
X516900Y358002D01*
G01X1044200Y286902D02*
X1053600D01*
X1067500Y273002D01*
G01X1136800Y668502D02*
Y655202D01*
X1150200Y641802D01*
Y623902D01*
X1169900Y604202D01*
G54D45*
X606900Y70502D03*
Y276102D03*
Y481702D03*
X626900Y70302D03*
X616900Y57502D03*
X626900Y275902D03*
X616900Y263102D03*
Y468702D03*
X626900Y481502D03*
X636900Y57502D03*
Y263102D03*
Y468702D03*
X703300Y70502D03*
Y276102D03*
Y481702D03*
X723300Y70302D03*
X713300Y57502D03*
X723300Y275902D03*
X713300Y263102D03*
Y468702D03*
X723300Y481502D03*
X733300Y57502D03*
Y263102D03*
Y468702D03*
X799600Y70502D03*
X809600Y57502D03*
X799600Y276102D03*
X809600Y263102D03*
Y468702D03*
X799600Y481702D03*
X819600Y70302D03*
X829600Y57502D03*
X819600Y275902D03*
X829600Y263102D03*
Y468702D03*
X819600Y481502D03*
X896000Y70502D03*
X906000Y57502D03*
X896000Y276102D03*
X906000Y263102D03*
Y468702D03*
X896000Y481702D03*
X916000Y70302D03*
X926000Y57502D03*
X916000Y275902D03*
X926000Y263102D03*
Y468702D03*
X916000Y481502D03*
X974200Y56302D03*
Y81302D03*
Y261902D03*
Y286902D03*
Y467602D03*
Y492602D03*
X994200Y56302D03*
X984200D03*
X994200Y81302D03*
X984200D03*
X994200Y261902D03*
X984200D03*
X994200Y286902D03*
X984200D03*
X994200Y467602D03*
X984200D03*
X994200Y492602D03*
X984200D03*
X1014200Y56302D03*
X1004200D03*
X1014200Y81302D03*
X1004200D03*
X1014200Y261902D03*
X1004200D03*
X1014200Y286902D03*
X1004200D03*
X1014200Y467602D03*
X1004200D03*
X1014200Y492602D03*
X1004200D03*
X1034200Y56302D03*
X1024200D03*
X1034200Y81302D03*
X1024200D03*
X1034200Y261902D03*
X1024200D03*
X1034200Y286902D03*
X1024200D03*
X1034200Y467602D03*
X1024200D03*
X1034200Y492602D03*
X1024200D03*
X1044200Y56302D03*
Y81302D03*
Y261902D03*
Y286902D03*
Y467602D03*
Y492602D03*
G54D63*
X1134408Y684090D03*
Y698106D03*
Y712121D03*
X1182400Y679109D03*
Y717102D03*
G54D18*
X76200Y350202D03*
X76593Y343602D03*
X69900D03*
X76593Y538002D03*
X69900D03*
X76200Y544402D03*
X76593Y759602D03*
X69900D03*
X76200Y765902D03*
X97646Y165702D03*
X90954D03*
X82893Y350202D03*
Y544402D03*
Y765902D03*
X200200Y99502D03*
X199807Y354502D03*
X200200Y604502D03*
X203300Y35502D03*
X209993D03*
X206893Y99502D03*
X203500Y290502D03*
X210193D03*
X206500Y354502D03*
X203600Y540202D03*
X210293D03*
X206893Y604502D03*
X258907Y80502D03*
Y73502D03*
Y335502D03*
Y328502D03*
X259300Y578502D03*
Y585502D03*
X265600Y80502D03*
Y73502D03*
Y335502D03*
Y328502D03*
X265993Y578502D03*
Y585502D03*
X295993Y48502D03*
X289300D03*
X295600Y303502D03*
X288907D03*
X295600Y553502D03*
X288907D03*
X399493Y32602D03*
X392800D03*
X399493Y53102D03*
X392800D03*
Y59302D03*
X399493D03*
X399100Y287602D03*
X392407D03*
X399100Y308102D03*
X392407D03*
Y314302D03*
X399100D03*
X399493Y537602D03*
X392800D03*
X399493Y558102D03*
X392800D03*
Y564302D03*
X399493D03*
X647857Y628000D03*
X645457Y653300D03*
Y659433D03*
X647500Y681502D03*
X662457Y633000D03*
X669150D03*
X654550Y628000D03*
X652150Y653300D03*
Y659433D03*
X654193Y681502D03*
X682046Y680100D03*
X675354D03*
Y687300D03*
X682046D03*
X693807Y585702D03*
X700500D03*
X693854Y591902D03*
X700546D03*
X695200Y641302D03*
X701893D03*
X690554Y680700D03*
X697246D03*
X727300Y641302D03*
X729393Y681402D03*
X722700D03*
X733993Y641302D03*
X795300Y766902D03*
X801993D03*
X796000Y782502D03*
X802693D03*
X830007Y624802D03*
X812907Y640802D03*
X819600D03*
X818500Y680802D03*
X825193D03*
Y687302D03*
X818500D03*
Y693802D03*
X825193D03*
X836700Y624802D03*
X852093Y640802D03*
X845400D03*
X847493Y680902D03*
X840800D03*
X892900Y636602D03*
Y630302D03*
X899593Y636602D03*
Y630302D03*
X912593Y636602D03*
X905900D03*
X910000Y679802D03*
X910100Y686102D03*
X910600Y693702D03*
X931228Y643900D03*
X916693Y679802D03*
X916793Y686102D03*
X917293Y693702D03*
X937921Y643900D03*
X969707Y88402D03*
X968207Y121502D03*
X969707Y502902D03*
X968207Y532702D03*
X976400Y88402D03*
X983800Y111302D03*
X990493D03*
X983800Y104902D03*
X990493D03*
X974900Y121502D03*
X990593Y303402D03*
X983900D03*
X983800Y310502D03*
X990493D03*
X983800Y316602D03*
X990493D03*
X983800Y516102D03*
X990493D03*
X976400Y502902D03*
X983800Y522502D03*
X990493D03*
X974900Y532702D03*
X996600Y104902D03*
X1003293D03*
X1046493Y500002D03*
X1039800D03*
X1118200Y736702D03*
X1124893D03*
X1136800Y668502D03*
X1143493D03*
G54D36*
X248400Y67502D03*
Y81302D03*
Y321602D03*
Y335402D03*
Y571602D03*
Y585402D03*
G54D54*
X676939Y150752D03*
Y173252D03*
Y158252D03*
Y165752D03*
X677339Y356552D03*
Y364052D03*
Y371552D03*
Y379052D03*
X676939Y569252D03*
Y561752D03*
Y576752D03*
Y584252D03*
G54D27*
X182000Y105202D03*
Y360202D03*
Y610202D03*
G54D72*
X1345142Y690087D03*
G54D82*
G01X13700Y315182D02*
X14451Y315933D01*
X20116D01*
G01X14200Y511882D02*
X14720Y512402D01*
X20500D01*
G01X582800Y712102D02*
Y706602D01*
X581000Y704802D01*
X564700D01*
X553000Y716502D01*
Y750902D01*
X526500Y777402D01*
X57800D01*
X25000Y744602D01*
Y732302D01*
X20280Y727582D01*
X13400D01*
G01X38700Y315182D02*
X39220Y315702D01*
X45100D01*
G01X39200Y511882D02*
X39720Y512402D01*
X45600D01*
G01X38700Y727882D02*
X31420D01*
X27000Y732302D01*
Y743402D01*
X59000Y775402D01*
X525300D01*
X550900Y749802D01*
Y715602D01*
X563700Y702802D01*
X582300D01*
X587200Y707702D01*
Y712102D01*
G01X97646Y165702D02*
Y168948D01*
X98000Y169302D01*
Y169370D01*
G01X82893Y350202D02*
X82500Y350595D01*
Y354902D01*
G01X82893Y544402D02*
X82500Y544795D01*
Y549502D01*
G01X82893Y765902D02*
X87800D01*
G01X195400Y533409D02*
X108193D01*
X107400Y534202D01*
X104400D01*
G01X189100Y537102D02*
X186100D01*
X186000Y537002D01*
X117900D01*
G01X191798Y528202D02*
X196200D01*
G01X209200Y256602D02*
X192400D01*
X187280Y251482D01*
X179400D01*
G01X195400Y283409D02*
X192182D01*
X191788Y283802D01*
X181000D01*
G01X606100Y700802D02*
X562800D01*
X548900Y714702D01*
Y748973D01*
X524472Y773402D01*
X198300D01*
X190500Y765602D01*
Y745079D01*
X183203Y737782D01*
X179000D01*
G01X200900Y88470D02*
Y95583D01*
X200200Y96283D01*
Y99502D01*
G01X195600Y101502D02*
X192365D01*
X192325Y101462D01*
X189075D01*
G01X199900Y108802D02*
Y99802D01*
X200200Y99502D01*
G01X199900Y108802D02*
X196232D01*
G01D02*
X193782D01*
X193642Y108942D01*
X189075D01*
G01X200900Y301502D02*
Y295799D01*
X195400Y290298D01*
Y290102D01*
G01X194000Y295202D02*
X194400Y295602D01*
X194793D01*
X195900Y296708D01*
Y301502D01*
G01X199807Y354502D02*
Y360293D01*
X199900Y360386D01*
Y363802D01*
G01X200900Y343470D02*
Y350190D01*
X199807Y351283D01*
Y354502D01*
G01X194500Y356302D02*
X194340Y356462D01*
X189075D01*
G01X196232Y363802D02*
X199900D01*
G01X189075Y363942D02*
X193642D01*
X193782Y363802D01*
X196232D01*
G01X200900Y552433D02*
Y545798D01*
X195400Y540298D01*
Y540102D01*
G01X194000Y545202D02*
X195900Y547102D01*
Y552433D01*
G01X200900Y594402D02*
Y600583D01*
X200200Y601283D01*
Y604502D01*
G01X189075Y606462D02*
X193110D01*
X193150Y606502D01*
X195600D01*
G01X199900Y613802D02*
Y608020D01*
X200200Y607720D01*
Y604502D01*
G01X199900Y613802D02*
X196232D01*
G01D02*
X193782D01*
X193642Y613942D01*
X189075D01*
G01X199900Y620495D02*
Y635052D01*
X194950Y640002D01*
X187900D01*
G01X606100Y696402D02*
X603979Y698523D01*
X561979D01*
X546900Y713602D01*
Y747802D01*
X523300Y771402D01*
X199500D01*
X192700Y764602D01*
Y744979D01*
X199897Y737782D01*
X204100D01*
G01X205900Y88470D02*
Y95290D01*
X206893Y96283D01*
Y99502D01*
G01X206400Y108802D02*
Y104744D01*
X206893Y104251D01*
Y99502D01*
G01X210300Y109002D02*
X210200Y108902D01*
X209718D01*
X209619Y108802D01*
X206400D01*
G01X211900Y252002D02*
X202920D01*
X202400Y251482D01*
G01X205900Y301502D02*
Y295402D01*
G01X206500Y354502D02*
Y360286D01*
X206400Y360386D01*
Y363802D01*
G01X205900Y343470D02*
Y350683D01*
X206500Y351283D01*
Y354502D01*
G01X220900Y343902D02*
X224850D01*
X225250Y344302D01*
X227700D01*
G01X210300Y364002D02*
X210100Y363802D01*
X206400D01*
G01X205900Y545402D02*
Y552433D01*
G01X220900Y593902D02*
X224119D01*
X224519Y594302D01*
X227700D01*
G01X205900Y594402D02*
Y600290D01*
X206893Y601283D01*
Y604502D01*
G01X206400Y613802D02*
Y608213D01*
X206893Y607720D01*
Y604502D01*
G01X210300Y614002D02*
X209818D01*
X209619Y613802D01*
X206400D01*
G01X219700Y640002D02*
X211000D01*
X206400Y635402D01*
Y620495D01*
G01X238400Y328909D02*
Y322702D01*
G01Y578909D02*
Y572702D01*
G01X265882Y35221D02*
X262080D01*
X261000Y36302D01*
Y44928D01*
X254002Y51927D01*
G01D02*
Y53502D01*
G01X265882Y290221D02*
X262400D01*
X260900Y291721D01*
Y300028D01*
X254002Y306927D01*
G01D02*
Y308502D01*
G01X246200Y344302D02*
X252200D01*
G01X254002Y558502D02*
Y556927D01*
G01D02*
X261100Y549828D01*
Y541602D01*
X262480Y540221D01*
X265882D01*
G01X273900Y32802D02*
Y23702D01*
G01X265882Y35221D02*
X271480D01*
X273900Y32802D01*
G01X265882Y290221D02*
X271480D01*
X273900Y287802D01*
G01Y537409D02*
Y528702D01*
G01X373300Y47202D02*
X365800D01*
X363200Y44602D01*
G01Y37909D02*
Y34654D01*
G01X373300Y34603D02*
X381050D01*
X381100Y34654D01*
G01X386918Y297461D02*
X380713D01*
X374875Y303300D01*
X373300D01*
G01X399493Y32602D02*
X405068D01*
X406568Y34102D01*
Y40534D01*
X404640Y42461D01*
X396682D01*
G01X392800Y53102D02*
Y49883D01*
X391900Y48983D01*
Y43930D01*
G01D02*
X390432Y42461D01*
X386800D01*
G01X392800Y32602D02*
X391900Y33502D01*
Y43930D01*
G01X396682Y38721D02*
X401900D01*
G01X399493Y53102D02*
Y49013D01*
X396682Y46202D01*
G01X392800Y59302D02*
Y53102D01*
G01X392407Y287602D02*
Y296414D01*
X391360Y297461D01*
G01X399100Y287602D02*
X406100D01*
X407200Y288702D01*
Y296302D01*
X406040Y297461D01*
X396800D01*
G01Y293721D02*
X401780D01*
X401800Y293702D01*
G01X392407Y308102D02*
Y304883D01*
X392421Y304870D01*
Y298522D01*
X391360Y297461D01*
G01D02*
X386918D01*
G01X399100Y308102D02*
Y303502D01*
X396800Y301202D01*
G01X643421Y630550D02*
X645650D01*
X647857Y628343D01*
Y628000D01*
G01X639000Y652807D02*
Y647768D01*
X638950Y647718D01*
G01X658850Y627950D02*
X658015D01*
X657965Y628000D01*
X654550D01*
G01X682046Y687300D02*
Y691292D01*
X680150Y693188D01*
G01X690100Y656602D02*
Y653500D01*
X691600Y652000D01*
X691800D01*
G01X690554Y680700D02*
Y679398D01*
X696500Y673452D01*
Y669702D01*
G01X697246Y680700D02*
X698000Y679946D01*
Y677400D01*
X701500Y673900D01*
Y669702D01*
G01X706500D02*
Y680260D01*
X705200Y681560D01*
G01Y689040D02*
Y693438D01*
X707136Y695374D01*
G01X696500Y696500D02*
Y693143D01*
X696740Y692903D01*
Y688700D01*
G01X789793Y713209D02*
X789600Y713402D01*
G01X805200Y687295D02*
Y692402D01*
G01X832300Y696202D02*
X826502Y702000D01*
X820202D01*
X812800Y709402D01*
X801500D01*
G01X828108Y713378D02*
Y713386D01*
G01X842400Y696302D02*
Y690202D01*
X841200Y689002D01*
G01X837300Y696302D02*
Y685908D01*
X832994Y681602D01*
X832600D01*
G01X931374Y629831D02*
Y625626D01*
G01X918690Y629831D02*
Y625675D01*
X918640Y625625D01*
G01X925046Y629831D02*
Y625675D01*
X924996Y625625D01*
G01X938070Y629831D02*
Y625674D01*
X938021Y625625D01*
G01X1164000Y630602D02*
X1157900D01*
G01X1156800Y663202D02*
X1161700D01*
X1162600Y662302D01*
G54D64*
X1149106Y661402D03*
X1143200D03*
G54D46*
X604224Y80002D03*
X593200D03*
X604224Y286002D03*
X593200D03*
X604224Y491002D03*
X593200D03*
X689200Y80002D03*
Y286002D03*
Y491002D03*
X700224Y80002D03*
Y286002D03*
Y491002D03*
X785200Y80002D03*
Y286002D03*
Y491002D03*
X796224Y80002D03*
Y286002D03*
Y491002D03*
X882200Y80002D03*
X893224D03*
X882200Y286002D03*
X893224D03*
X882200Y491002D03*
X893224D03*
X1051200Y663002D03*
X1062224D03*
G54D55*
X699700Y150578D03*
Y161602D03*
X699400Y355978D03*
Y367002D03*
X699700Y572802D03*
Y561778D03*
X1030300Y686678D03*
Y697702D03*
G54D28*
X203000Y27902D03*
X202900Y282702D03*
X203000Y532702D03*
X210480Y27902D03*
X210380Y282702D03*
X210480Y532702D03*
X258920Y65502D03*
Y320502D03*
Y570502D03*
X266400Y65502D03*
Y320502D03*
Y570502D03*
X689260Y688700D03*
X700680Y633502D03*
X693200D03*
X696740Y688700D03*
X727700Y632302D03*
X723100Y689502D03*
X730580D03*
X735180Y632302D03*
X811820Y633002D03*
X801880Y775302D03*
X794400D03*
X819300Y633002D03*
X845500D03*
X852980D03*
X841200Y689002D03*
X848680D03*
X1077600Y631502D03*
X1085080D03*
X1338100Y707202D03*
X1357400Y665702D03*
X1357300Y674402D03*
X1345580Y707202D03*
X1364880Y665702D03*
X1364780Y674402D03*
G54D19*
X84079Y38800D03*
Y201000D03*
X84579Y395700D03*
X84079Y617300D03*
X144079Y38800D03*
Y201000D03*
X144579Y395700D03*
X144079Y617300D03*
G54D37*
X299800Y27502D03*
X286000D03*
X299800Y56502D03*
X286000D03*
X298900Y282502D03*
X285100D03*
X298900Y311502D03*
X285100D03*
X298900Y532502D03*
X285100D03*
X298900Y561502D03*
X285100D03*
G54D73*
X1333725Y687134D03*
Y689102D03*
Y691071D03*
Y693039D03*
X1356560D03*
Y691071D03*
Y689102D03*
Y687134D03*
G54D83*
G01X1377953Y0D02*
Y787402D01*
X0D01*
Y0D01*
X1377953D01*
G54D65*
X1181600Y620602D03*
Y625602D03*
Y630602D03*
Y635602D03*
X1181700Y652202D03*
Y657202D03*
Y662202D03*
Y667202D03*
G54D38*
X309300Y30102D03*
Y42102D03*
Y54102D03*
Y285102D03*
Y297102D03*
Y309102D03*
X309200Y535102D03*
Y547102D03*
Y559102D03*
X353800Y30102D03*
Y42102D03*
Y54102D03*
Y285102D03*
Y309102D03*
Y297102D03*
X353700Y535102D03*
Y559102D03*
Y547102D03*
G54D56*
X696500Y650202D03*
X701500D03*
X706500D03*
X701500Y669702D03*
X696500D03*
X706500D03*
X711500Y650202D03*
X716500D03*
X721500D03*
X726500D03*
X716500Y669702D03*
X711500D03*
X721500D03*
X726500D03*
X814600Y649702D03*
X819600D03*
X824600D03*
X829600D03*
X819600Y669202D03*
X814600D03*
X824600D03*
X829600D03*
X834600Y649702D03*
X839600D03*
X844600D03*
X834600Y669202D03*
X839600D03*
X844600D03*
X904900Y649702D03*
X909900D03*
X899900D03*
X894900D03*
X909900Y669202D03*
X904900D03*
X899900D03*
X894900D03*
X919900Y649702D03*
X924900D03*
X914900D03*
X924900Y669202D03*
X919900D03*
X914900D03*
G54D74*
X1335300Y697272D03*
X1337268D03*
Y682902D03*
X1335300D03*
X1339237Y697272D03*
X1341206D03*
X1343174D03*
X1345142D03*
X1347111D03*
X1349080D03*
X1351048D03*
X1353017D03*
X1354985D03*
Y682902D03*
X1353017D03*
X1351048D03*
X1349080D03*
X1347111D03*
X1345142D03*
X1343174D03*
X1341206D03*
X1339237D03*
G54D29*
X200900Y46502D03*
X195900D03*
Y88470D03*
X200900D03*
Y301502D03*
X195900D03*
Y343470D03*
X200900D03*
Y552433D03*
X195900D03*
Y594402D03*
X200900D03*
X210900Y46502D03*
X205900D03*
Y88470D03*
X210900D03*
Y301502D03*
X205900D03*
Y343470D03*
X210900D03*
Y552433D03*
X205900D03*
Y594402D03*
X210900D03*
G54D47*
X604400Y223702D03*
X613600D03*
X604400Y429302D03*
X619300Y18102D03*
X629100D03*
X614200Y429302D03*
X653600Y223702D03*
X654200Y429302D03*
X669100Y18102D03*
X663400Y223702D03*
Y429302D03*
X678300Y18102D03*
X765600Y142202D03*
X765700Y153702D03*
Y193702D03*
X765600Y201202D03*
Y347902D03*
X765700Y359302D03*
Y399302D03*
X765600Y406902D03*
Y553502D03*
X765700Y564902D03*
Y604902D03*
X765600Y612502D03*
G54D39*
X373300Y34603D03*
Y47202D03*
Y290702D03*
Y303300D03*
Y539603D03*
Y552202D03*
G54D75*
X1346453Y675702D03*
X1342100D03*
X1367900Y685702D03*
X1372253D03*
G54D57*
X966300Y97702D03*
X956300D03*
X966300Y303402D03*
X956300D03*
X966400Y512202D03*
X956400D03*
G54D66*
X1188818Y743102D03*
Y767117D03*
X1233700Y743102D03*
Y767117D03*
G54D48*
X626900Y137002D03*
Y187002D03*
X627300Y342802D03*
Y392802D03*
X626900Y548002D03*
Y598002D03*
X646900Y137002D03*
X636900D03*
Y187002D03*
X646900D03*
X647300Y342802D03*
X637300D03*
Y392802D03*
X647300D03*
X646900Y548002D03*
X636900D03*
Y598002D03*
X646900D03*
G54D67*
X1203450Y635602D03*
Y630602D03*
Y625602D03*
Y620602D03*
X1203550Y657202D03*
Y652202D03*
Y667202D03*
Y662202D03*
G54D76*
X1362500Y689954D03*
Y685602D03*
G54D58*
X976300Y97702D03*
Y303402D03*
X976400Y512202D03*
G54D49*
X647260Y637013D03*
Y646413D03*
X654740Y637013D03*
X651000Y646413D03*
X654740D03*
G54D77*
G01X819300Y637533D02*
Y637783D01*
X819600Y638083D01*
G01X882000Y678202D02*
Y670895D01*
G01D02*
X888500D01*
G01X893100Y678202D02*
X888500D01*
G54D68*
X1211259Y749401D03*
G54D59*
X1075700Y638921D03*
Y646402D03*
X1084900Y638921D03*
Y646402D03*
Y642661D03*
G54D78*
G01X174600Y501382D02*
X175120Y501902D01*
X180900D01*
G01X199600Y501382D02*
X205480D01*
X206000Y501902D01*
G01X629500Y694402D02*
Y694598D01*
X623700Y700398D01*
Y750202D01*
X645300Y771802D01*
X689300D01*
X694021Y767080D01*
Y753002D01*
G01X654740Y646413D02*
Y642940D01*
X653200Y641400D01*
X648900D01*
X647260Y639760D01*
Y637013D01*
G01X643900Y687084D02*
X639294D01*
X638768Y687609D01*
X635800D01*
G01X629500Y687709D02*
Y684454D01*
G01X647500Y681502D02*
Y687898D01*
X645755Y689643D01*
X643900D01*
G01X647500Y681502D02*
X642500D01*
G01X681423Y734104D02*
Y724924D01*
X670500Y714002D01*
X640100D01*
X636000Y709902D01*
G01Y719902D02*
X640200Y715702D01*
X670000D01*
X678273Y723975D01*
Y734104D01*
G01X676939Y173252D02*
X670881D01*
X669735Y172106D01*
X667535D01*
G01X668000Y378000D02*
X670200D01*
X671252Y379052D01*
X677339D01*
G01X693854Y591902D02*
X687298D01*
X682700Y596500D01*
X670500D01*
X667300Y593300D01*
Y580841D01*
X671389Y576752D01*
X676939D01*
G01X679500Y640095D02*
Y646200D01*
X667100Y658600D01*
Y696100D01*
X687722Y716722D01*
Y734104D01*
G01X652150Y659433D02*
Y669550D01*
X655000Y672400D01*
G01X669261Y168106D02*
X671367Y166000D01*
X676691D01*
X676939Y165752D01*
G01X669727Y374000D02*
Y373614D01*
X671789Y371552D01*
X677339D01*
G01X676950Y364052D02*
X677339D01*
G01X676939Y584252D02*
X670000D01*
X669000Y585252D01*
Y592700D01*
X671300Y595000D01*
X681343D01*
X690642Y585702D01*
X693807D01*
G01X685900Y633402D02*
X689541D01*
X689641Y633502D01*
X693200D01*
G01X679500Y640095D02*
X685900D01*
G01X669150Y646543D02*
X672858D01*
X673301Y646100D01*
G01X684573Y734104D02*
Y727029D01*
X684600Y727002D01*
Y724802D01*
G01X675124Y734104D02*
Y727025D01*
X675100Y727002D01*
Y724802D01*
G01X684573Y753002D02*
Y762329D01*
X684500Y762402D01*
Y764602D01*
G01X681500Y761502D02*
X681423Y761424D01*
Y753002D01*
G01X678273D02*
Y760628D01*
X676800Y762102D01*
G01X687722Y753002D02*
Y761424D01*
X687800Y761502D01*
G01X693200Y633502D02*
Y639302D01*
X695200Y641302D01*
G01X700680Y633502D02*
Y640089D01*
X701893Y641302D01*
G01X700680Y633502D02*
Y629532D01*
X700100Y628952D01*
Y626202D01*
G01X705300D02*
Y636496D01*
X709406Y640602D01*
X709800D01*
G01X696500Y650202D02*
Y645570D01*
X695200Y644270D01*
Y641302D01*
G01X701500Y650202D02*
Y644663D01*
X701893Y644270D01*
Y641302D01*
G01X709800Y640602D02*
Y645652D01*
X706500Y648952D01*
Y650202D01*
G01X700941Y696800D02*
Y685425D01*
X704806Y681560D01*
X705200D01*
G01X718800Y708702D02*
X703470Y724032D01*
Y734104D01*
G01X738200Y687795D02*
Y690960D01*
X729458Y699702D01*
X717000D01*
X706800Y709902D01*
G01X690872Y734104D02*
Y721030D01*
X693900Y718002D01*
G01X752900Y643902D02*
X755100Y646102D01*
Y683502D01*
X736600Y702002D01*
X719200D01*
X697171Y724031D01*
Y734104D01*
G01X694021D02*
Y727023D01*
X694000Y727002D01*
Y724802D01*
G01X690872Y753002D02*
Y762330D01*
X690800Y762402D01*
Y764602D01*
G01X706620Y753002D02*
Y761571D01*
X706800Y761752D01*
Y764502D01*
G01X697171Y753002D02*
Y760472D01*
X697200Y760502D01*
G01X716069Y753002D02*
Y765033D01*
X713700Y767402D01*
X703900D01*
G01X727300Y641302D02*
Y636655D01*
X727700Y636255D01*
Y632302D01*
G01D02*
Y627114D01*
X728600Y626214D01*
G01X723400Y626420D02*
Y636396D01*
X719094Y640702D01*
X718700D01*
G01X709800Y633121D02*
X714647D01*
X714747Y633221D01*
X718700D01*
G01X726500Y650202D02*
Y648952D01*
X728457Y646994D01*
Y646640D01*
X733796Y641302D01*
X733993D01*
G01X721500Y650202D02*
Y646702D01*
X723254Y644948D01*
X723457D01*
X727103Y641302D01*
X727300D01*
G01X716500Y650202D02*
Y646461D01*
X718700Y644261D01*
Y640702D01*
G01X726500Y669702D02*
Y678706D01*
X729196Y681402D01*
X729393D01*
G01X722700D02*
Y678433D01*
X721500Y677233D01*
Y669702D01*
G01X716500D02*
Y676543D01*
X714500Y678543D01*
Y682102D01*
G01X723100Y689502D02*
Y689896D01*
G01X724300Y696802D02*
Y690702D01*
X723100Y689502D01*
G01X722700Y681402D02*
Y685149D01*
X723100Y685549D01*
Y689502D01*
G01X714500Y682102D02*
X714894D01*
X718160Y685368D01*
Y685762D01*
X719200Y686802D01*
Y696802D01*
G01X731700Y710402D02*
X722368Y719734D01*
Y734104D01*
G01X758600Y639702D02*
Y684502D01*
X737800Y705302D01*
X728900D01*
X716069Y718133D01*
Y734104D01*
G01X712919D02*
Y719161D01*
X728479Y703602D01*
X737300D01*
X756800Y684102D01*
Y643502D01*
X753000Y639702D01*
X749000D01*
G01X709769Y734104D02*
Y727071D01*
X709700Y727002D01*
Y724802D01*
G01X719300Y742402D02*
Y734186D01*
X719218Y734104D01*
G01X712919Y753002D02*
Y761783D01*
X712900Y761802D01*
Y764002D01*
G01X762200Y772102D02*
X734100D01*
X728667Y766668D01*
Y753002D01*
G01X709769D02*
Y761371D01*
X709800Y761402D01*
G01X722368Y753002D02*
Y745469D01*
X719300Y742402D01*
G01X733993Y641302D02*
Y637442D01*
X735180Y636255D01*
Y632302D01*
G01X749000Y633009D02*
Y628702D01*
G01X742600Y639702D02*
X749000D01*
G01X744700Y681102D02*
Y676302D01*
G01X730580Y689502D02*
Y688918D01*
G01D02*
Y682589D01*
X729393Y681402D01*
G01X730580Y688918D02*
X738200Y681298D01*
Y681102D01*
G01X744700Y687795D02*
X738200D01*
G01X1004000Y523202D02*
Y542102D01*
X951000Y595102D01*
X807965D01*
X766700Y636366D01*
Y683302D01*
X741265Y708736D01*
Y734104D01*
G01X1006800Y529702D02*
Y541602D01*
X951800Y596602D01*
X808586D01*
X768200Y636988D01*
Y684002D01*
X744415Y707787D01*
Y734104D01*
G01X1009600Y506602D02*
Y509352D01*
X1009550Y509402D01*
Y541052D01*
X952500Y598102D01*
X809207D01*
X769700Y637609D01*
Y684702D01*
X753591Y700810D01*
X753557D01*
X747565Y706803D01*
Y734104D01*
G01X738116D02*
Y727317D01*
X738100Y727302D01*
Y725102D01*
G01Y761302D02*
Y759569D01*
X738116Y759553D01*
Y753002D01*
G01X766000Y763502D02*
X745214D01*
X741265Y759553D01*
Y753002D01*
G01X744415D02*
Y746450D01*
X747864Y743002D01*
X749963D01*
X754800Y738165D01*
Y703810D01*
X754941D01*
X772700Y686052D01*
Y638852D01*
X810450Y601102D01*
X953900D01*
X1016284Y538717D01*
Y525994D01*
G01X747565Y753002D02*
Y748005D01*
X756300Y739269D01*
Y704573D01*
X774200Y686673D01*
Y639602D01*
X811200Y602602D01*
X954600D01*
X1019200Y538002D01*
Y509902D01*
G01X734966Y753002D02*
Y760535D01*
X733200Y762302D01*
G01X750714Y753002D02*
Y748631D01*
X757800Y741546D01*
Y705195D01*
X775700Y687295D01*
Y640302D01*
X811900Y604102D01*
X955500D01*
X1022000Y537602D01*
Y523202D01*
G01X997700Y500802D02*
X1000600D01*
X1002000Y502202D01*
X1020700D01*
X1029300Y510802D01*
Y537602D01*
X952152Y614750D01*
X941861D01*
X932812Y605702D01*
X812600D01*
X777200Y641102D01*
Y687916D01*
X759300Y705816D01*
Y741469D01*
X766462Y748631D01*
Y753002D01*
G01X984200Y475102D02*
Y481802D01*
X985500Y483102D01*
X988600D01*
X989600Y484102D01*
Y496302D01*
X991350Y498052D01*
X1000350D01*
X1003000Y500702D01*
X1022000D01*
X1030800Y509502D01*
Y538223D01*
X952773Y616250D01*
X940550D01*
X931502Y607202D01*
X813300D01*
X778700Y641802D01*
Y688537D01*
X760900Y706337D01*
Y738902D01*
X769612Y747613D01*
Y753002D01*
G01X772761D02*
Y746450D01*
X770013Y743702D01*
X767900D01*
X762400Y738202D01*
Y706959D01*
X780200Y689159D01*
Y642602D01*
X814100Y608702D01*
X930602D01*
X939650Y617750D01*
X953394D01*
X1032300Y538844D01*
Y508502D01*
X1022700Y498902D01*
X1010900D01*
X1008900Y496902D01*
Y482002D01*
X1007300Y480402D01*
X995500D01*
X994200Y479102D01*
Y475102D01*
G01X1012300Y526346D02*
Y540502D01*
X953200Y599602D01*
X809829D01*
X771200Y638230D01*
Y685402D01*
X754291Y702310D01*
X754179D01*
X750714Y705775D01*
Y734104D01*
G01X1066600Y720202D02*
X922300D01*
X917700Y724802D01*
X886300D01*
X867100Y744002D01*
X824600D01*
X822754Y742155D01*
X770654D01*
X769612Y741113D01*
Y734104D01*
G01X770100Y719902D02*
Y723915D01*
X766462Y727553D01*
Y734104D01*
G01X772761D02*
Y724419D01*
X781700Y715480D01*
Y643302D01*
X814800Y610202D01*
X929902D01*
X938950Y619250D01*
X954252D01*
X1033800Y539702D01*
Y507139D01*
X1024200Y497539D01*
Y492602D01*
G01X1034200D02*
Y504702D01*
X1035300Y505802D01*
Y540402D01*
X954952Y620750D01*
X938250D01*
X929202Y611702D01*
X815500D01*
X783200Y644002D01*
Y716102D01*
X775911Y723391D01*
Y734104D01*
G01X770100Y713209D02*
X775107D01*
X775300Y713402D01*
G01X794800Y713209D02*
X789793D01*
G01X782000Y724202D02*
X779061Y727141D01*
Y734104D01*
G01X775911Y753002D02*
Y760792D01*
X775900Y760803D01*
G01X795300Y766902D02*
X789562D01*
X789469Y766809D01*
X786500D01*
G01X794400Y775302D02*
X791200D01*
X787500Y779002D01*
G01X781800Y774902D02*
X783200Y773502D01*
X786500D01*
G01X803800Y630009D02*
X808827D01*
X811820Y633002D01*
G01X803800Y636702D02*
Y642709D01*
X803700Y642809D01*
G01D02*
X798693D01*
X797600Y643902D01*
G01X809700Y646102D02*
X808144Y647657D01*
Y648026D01*
X806669Y649502D01*
X803700D01*
G01X801500Y662402D02*
X808000D01*
G01D02*
X826300D01*
X829600Y665702D01*
Y669202D01*
G01X1039800Y500002D02*
X1037200Y502602D01*
Y540702D01*
X951500Y626402D01*
Y677902D01*
X925600Y703802D01*
X824859D01*
X801108Y727553D01*
Y734104D01*
G01X1041900Y505002D02*
X1044900D01*
X1051700Y511802D01*
Y538702D01*
X959000Y631402D01*
Y681380D01*
X917079Y723302D01*
X885600D01*
X866400Y742502D01*
X825400D01*
X823554Y740655D01*
X805812D01*
X804257Y739101D01*
Y734104D01*
G01X807407D02*
Y725694D01*
X807700Y725402D01*
G01X794809Y753002D02*
Y763442D01*
X795300Y763933D01*
Y766902D01*
G01X806148Y745105D02*
Y745191D01*
X807407Y746450D01*
Y753002D01*
G01X801880Y775302D02*
X808200D01*
X814200Y769302D01*
G01X802693Y782502D02*
X811000D01*
X814200Y779302D01*
G01X796000Y782502D02*
X791500D01*
X791300Y782302D01*
G01X827900Y632621D02*
X832747D01*
X832847Y632721D01*
X836800D01*
G01X819600Y638083D02*
Y640802D01*
G01X819300Y637533D02*
X819600Y637833D01*
Y638083D01*
G01X819300Y633002D02*
Y637533D01*
G01Y633002D02*
Y626902D01*
X818100Y625702D01*
G01X823300D02*
Y635896D01*
X827506Y640102D01*
X827900D01*
G01X830007Y624802D02*
Y619495D01*
X830400Y619102D01*
G01X811820Y633002D02*
Y636746D01*
X812907Y637833D01*
Y640802D01*
G01X819600Y649702D02*
Y640802D01*
G01Y651702D02*
Y649702D01*
G01X824600D02*
Y643402D01*
X827900Y640102D01*
G01X814600Y649702D02*
Y645463D01*
X812907Y643770D01*
Y640802D01*
G01X814600Y651702D02*
Y649702D01*
G01X819600Y669202D02*
Y664902D01*
X818600Y663902D01*
X815600D01*
X814600Y664902D01*
Y669202D01*
G01D02*
Y677505D01*
X811700Y680405D01*
Y680602D01*
G01X824600Y669202D02*
Y674898D01*
X818697Y680802D01*
X818500D01*
G01X827900Y677102D02*
X829600Y675402D01*
Y669202D01*
G01X825193Y680802D02*
Y679809D01*
X827900Y677102D01*
G01X818500Y687302D02*
Y680802D01*
G01Y693802D02*
Y687302D01*
G01X825193D02*
Y680802D01*
G01X832900Y713209D02*
X828286D01*
X828108Y713386D01*
G01X826200Y716902D02*
Y721149D01*
X832604Y727553D01*
Y734104D01*
G01X1048700Y513002D02*
Y517902D01*
X1043963Y522639D01*
Y541439D01*
X956000Y629402D01*
Y680002D01*
X927300Y708702D01*
X828904D01*
X816856Y720749D01*
Y734104D01*
G01X1043971Y508748D02*
X1045915Y510692D01*
Y516286D01*
X1040500Y521702D01*
Y542402D01*
X954500Y628402D01*
Y679302D01*
X927000Y706802D01*
X828600D01*
X813706Y721695D01*
Y734104D01*
G01X1042900Y512602D02*
X1038900Y516602D01*
Y541502D01*
X953000Y627402D01*
Y678602D01*
X926300Y705302D01*
X827800D01*
X810557Y722545D01*
Y734104D01*
G01X826305D02*
Y740002D01*
X827305Y741002D01*
X865700D01*
X884900Y721802D01*
X916400D01*
X957500Y680702D01*
Y630402D01*
X1045855Y542046D01*
Y525446D01*
X1047800Y523502D01*
G01X814611Y744905D02*
X813706Y745810D01*
Y753002D01*
G01X816856D02*
Y760759D01*
X816900Y760803D01*
G01X825800Y763902D02*
X821800D01*
X820006Y762107D01*
Y753002D01*
G01X829454D02*
Y761256D01*
X829500Y761302D01*
G01X810557Y745200D02*
Y753002D01*
G01X836700Y628270D02*
Y629062D01*
X836800Y629162D01*
G01X845500Y633002D02*
Y637733D01*
X845400Y637833D01*
Y640802D01*
G01X845500Y633002D02*
Y626902D01*
X846700Y625702D01*
G01X836800Y640202D02*
X837194D01*
X840460Y636935D01*
Y636541D01*
X841500Y635502D01*
Y625702D01*
G01X844600Y649702D02*
Y648202D01*
X845600Y647202D01*
Y647098D01*
X851896Y640802D01*
X852093D01*
G01X845400D02*
X845203D01*
X839600Y646405D01*
Y649702D01*
G01X834600D02*
Y642402D01*
X836800Y640202D01*
G01X844600Y669202D02*
Y675040D01*
X847493Y677933D01*
Y680902D01*
G01X839600Y669202D02*
Y676733D01*
X840800Y677933D01*
Y680902D01*
G01X834600Y669202D02*
Y676043D01*
X832600Y678043D01*
Y681602D01*
G01X832300Y696202D02*
Y692941D01*
X832600Y692641D01*
Y689082D01*
G01X847493Y680902D02*
Y687814D01*
X848680Y689002D01*
G01D02*
Y688608D01*
X853186Y684102D01*
X856700D01*
G01X840800Y680902D02*
Y684649D01*
X841200Y685049D01*
Y689002D01*
G01X832900Y719902D02*
Y724699D01*
X835754Y727553D01*
Y734104D01*
G01X841900Y720002D02*
Y727400D01*
X842053Y727553D01*
Y734104D01*
G01X832900Y713209D02*
X838832D01*
X838932Y713309D01*
X841900D01*
G01D02*
X851300D01*
G01Y720002D02*
Y724605D01*
X848352Y727553D01*
Y734104D01*
G01X838903D02*
Y726505D01*
X837900Y725502D01*
G01X845202Y734104D02*
Y726499D01*
X846000Y725702D01*
G01X845202Y753002D02*
Y767299D01*
X842300Y770202D01*
Y778902D01*
G01X848352Y753002D02*
Y767754D01*
X852300Y771702D01*
Y778902D01*
G01X860700Y632509D02*
X857032D01*
X856539Y633002D01*
X852980D01*
G01X852093Y640802D02*
Y633889D01*
X852980Y633002D01*
G01X867100Y632509D02*
Y628502D01*
X867000Y628402D01*
G01X867100Y639202D02*
Y644802D01*
G01Y639202D02*
X860700D01*
G01X863100Y690402D02*
X868400D01*
X868500Y690502D01*
G01X856700Y690795D02*
X859739D01*
X860132Y690402D01*
X863100D01*
G01X857200Y720402D02*
Y722702D01*
X851502Y728400D01*
Y734104D01*
G01Y753002D02*
Y761300D01*
X851500Y761302D01*
G01X885500Y630009D02*
X889442D01*
X889735Y630302D01*
X892900D01*
G01X871400Y682802D02*
Y656502D01*
X879000Y648902D01*
Y636702D01*
G01X885500D02*
X879000D01*
G01Y630009D02*
Y624802D01*
G01X876900Y658702D02*
X884332D01*
X885532Y657502D01*
X888500D01*
G01D02*
X899200D01*
X904900Y663202D01*
Y669202D01*
G01X894900D02*
X890193D01*
X888500Y670895D01*
G01Y664202D02*
X882000D01*
G01D02*
X878000D01*
X876900Y663102D01*
G01X888500Y664202D02*
X896150D01*
X899900Y667952D01*
Y669202D01*
G01X882000Y684895D02*
X888500D01*
G01X882000Y691502D02*
Y684895D01*
G01X892900Y636602D02*
Y630302D01*
G01X894900Y649702D02*
Y641570D01*
X892900Y639570D01*
Y636602D01*
G01X899593Y630302D02*
Y625809D01*
X900300Y625102D01*
G01X899593Y636602D02*
Y630302D01*
G01X899900Y649702D02*
Y648202D01*
X899593Y647895D01*
Y636602D01*
G01X905900D02*
Y628823D01*
X904964Y627887D01*
Y625137D01*
G01X904900Y649702D02*
Y648202D01*
X905900Y647202D01*
Y636602D01*
G01X909900Y649702D02*
Y647952D01*
X909800Y647852D01*
Y645102D01*
G01X924900Y649702D02*
Y655202D01*
X923900Y656202D01*
X920900D01*
X919900Y655202D01*
Y649702D01*
G01X931500Y658395D02*
X934468D01*
X935276Y659202D01*
X943000D01*
G01X914900Y669202D02*
Y663202D01*
X919707Y658395D01*
X931500D01*
G01Y671395D02*
X938000D01*
G01X931500D02*
X927093D01*
X924900Y669202D01*
G01X931500Y664702D02*
X938000D01*
G01X919900Y669202D02*
Y666002D01*
X921200Y664702D01*
X931500D01*
G01X926900Y678102D02*
X931400D01*
X931500Y678002D01*
G01X917293Y693702D02*
X922500D01*
G01X931500Y684695D02*
X937900D01*
G01X931500D02*
Y689702D01*
G01X916693Y679802D02*
X921300D01*
G01X921400Y686102D02*
X916793D01*
G01X943000Y612000D02*
X947200Y607800D01*
X954102D01*
X1025000Y536902D01*
Y512902D01*
G01X949000Y612000D02*
X952552D01*
X1027800Y536752D01*
Y511702D01*
X1019900Y503802D01*
X987300D01*
X984200Y500702D01*
Y492602D01*
G01X938000Y671395D02*
Y674736D01*
X937900Y674836D01*
Y678002D01*
G01X938000Y664702D02*
X941900D01*
X943000Y663602D01*
G01X936900Y709902D02*
X960500Y686302D01*
Y632402D01*
X977300Y615602D01*
X1148500D01*
X1159900Y604202D01*
G01X996900Y310602D02*
Y302002D01*
X988700Y293802D01*
X972400D01*
X967900Y289302D01*
Y274502D01*
X963900Y270502D01*
Y253002D01*
G01X997100Y516202D02*
Y516005D01*
X979597Y498502D01*
X972780D01*
X965900Y491621D01*
Y465502D01*
X960400Y460002D01*
G01X994200Y269402D02*
X999100Y274302D01*
Y291302D01*
X1016100Y308302D01*
G01X1003500Y765102D02*
Y759602D01*
X1003450Y759553D01*
Y753002D01*
G01X1038100D02*
Y762502D01*
X1035500Y765102D01*
X1003500D01*
G01X1024200Y475102D02*
X1029500Y480402D01*
X1037500D01*
X1039800Y482702D01*
Y500002D01*
G01X1024200Y492602D02*
Y485102D01*
G01X1034000Y492402D02*
X1034200Y492602D01*
G01X1038100Y734104D02*
Y726502D01*
X1038200Y726402D01*
Y724202D01*
G01X1245300Y41002D02*
X1257800Y28502D01*
G01X1245300Y16002D02*
X1257800Y28502D01*
G01X1270300Y41002D02*
X1257800Y28502D01*
G01X1270300Y16002D02*
X1257800Y28502D01*
G01X1349080Y682902D02*
Y680425D01*
X1351300Y678205D01*
Y668243D01*
X1353841Y665702D01*
X1357400D01*
G01X1345142Y682902D02*
Y678996D01*
X1346453Y677686D01*
Y675702D01*
G01X1351048Y682902D02*
Y681048D01*
X1357300Y674796D01*
G01X1356560Y687134D02*
X1358984D01*
X1360516Y685602D01*
X1362500D01*
G01X1341206Y697272D02*
X1339237D01*
G01X1349631Y692646D02*
X1349080Y693197D01*
G01X1351875Y690087D02*
Y692071D01*
X1353017Y693213D01*
G01X1347111Y682902D02*
Y686690D01*
G01X1349080Y693197D02*
Y697272D01*
G01X1353017Y693213D02*
Y697272D01*
G01X1347111Y686690D02*
X1347127Y686706D01*
Y688102D01*
X1345142Y690087D01*
G01X1367900Y685702D02*
X1364584D01*
X1364484Y685602D01*
X1362500D01*
G54D69*
X1211259Y767117D03*
G54D79*
G01X101100Y529002D02*
Y547102D01*
X92100Y556102D01*
X72900D01*
X69900Y553102D01*
Y538002D01*
G01X101100Y529002D02*
X190998D01*
X191798Y528202D01*
G01X182000Y105202D02*
Y109500D01*
X182076Y109576D01*
G01X182000Y360202D02*
Y364500D01*
X182076Y364576D01*
G01X182000Y610202D02*
Y614500D01*
X182076Y614576D01*
G01X184804Y19000D02*
Y23504D01*
X189708Y28409D01*
X195400D01*
G01X200900Y46502D02*
Y40799D01*
X195400Y35299D01*
Y35102D01*
G01X195900Y46502D02*
X194000Y44602D01*
Y40202D01*
G01X195900Y88470D02*
X191930D01*
X190922Y89478D01*
G01X187000Y135002D02*
Y118491D01*
X187106Y118385D01*
Y115685D01*
G01X195900Y343470D02*
X191930D01*
X190922Y344478D01*
G01X187000Y390002D02*
Y373492D01*
X187106Y373386D01*
Y370686D01*
G01X195900Y594402D02*
X190998D01*
X190900Y594500D01*
G01X187900Y640002D02*
Y627652D01*
X187106Y626858D01*
G01D02*
Y620685D01*
G01X203500Y30748D02*
Y30945D01*
G01X205700Y40402D02*
Y46302D01*
X205900Y46502D01*
G01X220900Y82409D02*
Y77000D01*
X220945Y76955D01*
G01X220900Y82409D02*
X226398D01*
X226643Y82654D01*
G01X220900Y337209D02*
Y332000D01*
X220945Y331955D01*
G01X220900Y337209D02*
X226198D01*
X226643Y337654D01*
G01X220900Y587209D02*
X226198D01*
X226643Y587654D01*
G01X220900Y587209D02*
Y582000D01*
X220945Y581955D01*
G01X386800Y38721D02*
Y33902D01*
X383000Y30102D01*
X353800D01*
G01X363200Y44602D02*
X356300D01*
X353800Y42102D01*
G01X386800Y46202D02*
Y48843D01*
X383842Y51802D01*
X383700D01*
G01X386918Y293721D02*
Y290544D01*
X381476Y285102D01*
X353800D01*
G01X363200Y293402D02*
Y289202D01*
G01X386918Y301202D02*
Y304184D01*
X382000Y309102D01*
X353800D01*
G01X363200Y300095D02*
X356793D01*
X353800Y297102D01*
G01X373300Y303300D02*
X366405D01*
X363200Y300095D01*
G01X386800Y543721D02*
Y539002D01*
X382900Y535102D01*
X353700D01*
G01X363200Y549602D02*
X356200D01*
X353700Y547102D01*
G01X373300Y552202D02*
X365800D01*
X363200Y549602D01*
G01Y542909D02*
Y539043D01*
G01X353700Y559102D02*
X381542D01*
X386800Y553843D01*
Y551202D01*
G01Y42461D02*
X379615D01*
X374875Y47202D01*
X373300D01*
G01Y290702D02*
X380700D01*
X380900Y290902D01*
G01X386800Y547461D02*
X379615D01*
X374875Y552202D01*
X373300D01*
G01X380900Y540902D02*
X380800Y541002D01*
X374698D01*
X373300Y539603D01*
G01X392407Y314302D02*
Y308102D01*
G01X392800Y537602D02*
Y541070D01*
X391800Y542070D01*
Y546602D01*
X391000Y547402D01*
G01X396682Y547461D02*
X404440D01*
X406900Y545002D01*
Y540202D01*
X404300Y537602D01*
X399493D01*
G01X391000Y547402D02*
X390940Y547461D01*
X386800D01*
G01X391000Y547402D02*
X391700Y548102D01*
Y553533D01*
X392800Y554633D01*
Y558102D01*
G01Y564302D02*
Y558102D01*
G01X399493D02*
X399500Y558095D01*
Y553002D01*
X397700Y551202D01*
X396682D01*
G01X401800Y543702D02*
X401780Y543721D01*
X396682D01*
G01X616900Y57502D02*
X600800D01*
X593200Y65102D01*
Y80002D01*
G01X616900Y57502D02*
Y63802D01*
G01X636900Y57502D02*
Y63802D01*
G01X645457Y659433D02*
X639067D01*
X639000Y659500D01*
G01X645457Y659433D02*
Y653300D01*
G01X647260Y646413D02*
Y651497D01*
X645457Y653300D01*
G01X629500Y694402D02*
X629600Y694302D01*
X635800D01*
G01X654740Y637013D02*
Y628190D01*
X654550Y628000D01*
G01X662457Y633000D02*
Y625743D01*
X669500Y618700D01*
X721991D01*
X725493Y622202D01*
X740000D01*
X741700Y623902D01*
X744400D01*
G01X662377Y639850D02*
X669150D01*
G01X651000Y646413D02*
Y652150D01*
X652150Y653300D01*
G01D02*
Y659433D01*
G01X654740Y646413D02*
X662247D01*
X662377Y646543D01*
G01X713300Y57502D02*
X702400D01*
X689200Y70702D01*
Y80002D01*
G01X718700Y633221D02*
Y625100D01*
X716100Y622500D01*
X690398D01*
X686246Y626652D01*
X682252D01*
X679800Y624200D01*
X672652D01*
X672563Y624289D01*
X669863D01*
G01X669150Y639850D02*
Y633000D01*
G01X669863Y624289D02*
Y632287D01*
X669150Y633000D01*
G01X679500Y633402D02*
Y628802D01*
G01X675900Y664095D02*
Y669302D01*
X676000Y669402D01*
G01X675900Y664095D02*
X670693D01*
X670500Y663902D01*
G01X683600Y663295D02*
X690100D01*
G01X683600D02*
Y667702D01*
G01X689260Y688700D02*
Y687116D01*
X682243Y680100D01*
X682046D01*
G01X675354Y687300D02*
Y680100D01*
G01X690554Y680700D02*
Y687406D01*
X689260Y688700D01*
G01X687400Y710000D02*
X687800Y710400D01*
X693779D01*
X693900Y710521D01*
G01X698600Y579502D02*
X699700Y578402D01*
Y572802D01*
G01X700500Y585702D02*
X704165D01*
X710500Y592036D01*
Y595402D01*
G01X700546Y591902D02*
X702600D01*
X706100Y595402D01*
G01X690100Y663295D02*
Y667702D01*
G01X711500Y669702D02*
Y666102D01*
X708693Y663295D01*
X690100D01*
G01X697246Y680700D02*
Y688194D01*
X696740Y688700D01*
G01X714500Y689582D02*
Y695702D01*
X699680Y710521D01*
X693900D01*
G01X713300Y57502D02*
Y63802D01*
G01X733300Y57502D02*
Y64302D01*
G01X742600Y633009D02*
X735887D01*
X735180Y632302D01*
G01X809600Y57502D02*
X793000D01*
X785200Y65302D01*
Y80002D01*
G01X791196Y656106D02*
X786700Y660602D01*
Y691402D01*
X794600Y699302D01*
X820999D01*
X825193Y695107D01*
Y693802D01*
G01X809600Y57502D02*
Y64202D01*
G01X794000Y655909D02*
Y656106D01*
X791196D01*
G01X794000Y662602D02*
Y668802D01*
X794100Y668902D01*
G01X801500Y662402D02*
Y667102D01*
X801600Y667202D01*
G01X808000Y662402D02*
Y667102D01*
X808100Y667202D01*
G01X805200Y680602D02*
Y675802D01*
G01Y687295D02*
X811700D01*
G01X794809Y734104D02*
Y723576D01*
X794800Y723567D01*
Y719902D01*
G01X801880Y775302D02*
Y770483D01*
X801993Y770370D01*
Y766902D01*
G01X823700Y724602D02*
X826600D01*
X829454Y727456D01*
Y734104D01*
G01X836700Y628270D02*
Y624802D01*
G01X836800Y629162D02*
Y628370D01*
X836700Y628270D01*
G01X836800Y632721D02*
Y629162D01*
G01X851796Y664702D02*
X873100Y643398D01*
Y625702D01*
X868200Y620802D01*
X840897D01*
X836897Y624802D01*
X836700D01*
G01X863100Y683709D02*
Y678602D01*
G01X906000Y57502D02*
X888500D01*
X882200Y63802D01*
Y80002D01*
G01X906000Y57502D02*
Y63802D01*
G01X910000Y665002D02*
Y668302D01*
G01D02*
X909500Y668802D01*
X909900Y669202D01*
G01X918690Y636524D02*
Y641912D01*
X914900Y645702D01*
Y649702D01*
G01X925046Y636524D02*
X931374D01*
G01X918690D02*
X925046D01*
G01X931228Y643900D02*
X926702D01*
X924900Y645702D01*
Y649702D01*
G01X937921Y643900D02*
Y636673D01*
X938070Y636524D01*
G01X968207Y121502D02*
Y118033D01*
X968600Y117640D01*
Y108702D01*
G01X983800Y104902D02*
X973500D01*
X966300Y97702D01*
G01Y303402D02*
X972000Y309102D01*
X978600D01*
X980000Y310502D01*
X983800D01*
G01X971900Y320409D02*
Y316743D01*
X971500Y316343D01*
Y313102D01*
G01X971900Y327102D02*
X984400D01*
G01X966400Y512202D02*
X973100Y518902D01*
X978900D01*
X981700Y516102D01*
X983800D01*
G01X956400Y512202D02*
Y506902D01*
X960400Y502902D01*
X969707D01*
G01X968207Y532702D02*
X963200D01*
G01X984400Y121502D02*
Y115370D01*
X983800Y114770D01*
Y111302D01*
G01X990493D02*
Y104902D01*
G01X996600D02*
X990493D01*
G01X974900Y121502D02*
X984400D01*
G01X996900Y310602D02*
X990593D01*
X990493Y310502D01*
G01X983900Y303402D02*
X976300D01*
G01X990593D02*
Y299895D01*
X987300Y296602D01*
X986500D01*
G01X990493Y522502D02*
Y516102D01*
G01X997100Y516202D02*
X990593D01*
X990493Y516102D01*
G01X976400Y502902D02*
Y512202D01*
G01X974900Y532702D02*
X984400D01*
G01X983800Y522502D02*
Y527602D01*
X984400Y528202D01*
Y532702D01*
G01X996700Y112802D02*
Y109552D01*
X996600Y109452D01*
Y104902D01*
G01X1003293D02*
Y99695D01*
X1002900Y99302D01*
G01X994400Y532702D02*
Y529260D01*
X997100Y526560D01*
Y522895D01*
G01X1063900Y640002D02*
X1068307D01*
X1068700Y639609D01*
G01X1084900Y642661D02*
X1071753D01*
X1068700Y639609D01*
G01Y646302D02*
X1075600D01*
X1075700Y646402D01*
G01X1093000Y638702D02*
X1103000D01*
X1103100Y638802D01*
X1107600D01*
G01X1084900Y638921D02*
X1092780D01*
X1093000Y638702D01*
G01X1077600Y631502D02*
Y637021D01*
X1075700Y638921D01*
G01X1084900Y646402D02*
X1075700D01*
G01X1086000Y645748D02*
Y652402D01*
G01X1084900Y642661D02*
X1090267D01*
X1093000Y645395D01*
G01D02*
X1093393Y645002D01*
X1097800D01*
G01X1357300Y674796D02*
Y677602D01*
X1360200Y680502D01*
G01X1357300Y674402D02*
Y674796D01*
G01X1360200Y680502D02*
X1370400D01*
X1372253Y682354D01*
Y685702D01*
M02*
