M48
;Layer_Color=9474304
;FILE_FORMAT=2:5
INCH
;TYPE=PLATED
T19F00S00C0.06299
T20F00S00C0.07087
;TYPE=NON_PLATED
T27F00S00C0.02000
%
G90
G05
T19
X0656011Y0288500G85X0671365
X0585145Y0288500G85X0600499
X0656011Y0545400G85X0671365
X0585145Y0545400G85X0600499
X0656011Y0793900G85X0671365
X0585145Y0793900G85X0600499
T20
X0380334Y0288400G85X0367735
X0452775Y0288400G85X0440176
X0452775Y0543400G85X0440176
X0380334Y0543400G85X0367735
X0380334Y0793400G85X0367735
X0452775Y0793400G85X0440176
T27
X0934255Y0204400G85X0962255
X0953733Y0237787G85Y0250787
X1028611Y0237787G85Y0250787
X1050111Y0237787G85Y0250787
X1030255Y0204400G85X1058255
X0932233Y0237787G85Y0250787
X0857355Y0237787G85Y0250787
X0835855Y0237787G85Y0250787
X0837255Y0204400G85X0865255
X0900755Y0287187G85X0887755
X0760977Y0237787G85Y0250787
X0739477Y0237787G85Y0250787
X0741577Y0203794G85X0769577
X0741577Y0409400G85X0769577
X0760977Y0443394G85Y0456394
X0739477Y0443394G85Y0456394
X0835855Y0443394G85Y0456394
X0857355Y0443394G85Y0456394
X0837955Y0409400G85X0865955
X0887454Y0363400G85X0900454
X0932233Y0443394G85Y0456394
X0953733Y0443394G85Y0456394
X0934255Y0409400G85X0962255
X1030633Y0409400G85X1058633
X1050111Y0443394G85Y0456394
X1028611Y0443394G85Y0456394
X1030711Y0615006G85X1058711
X0934333Y0615006G85X0962333
X0837955Y0615006G85X0865955
X0887454Y0568400G85X0900454
X0900755Y0492794G85X0887755
X0741577Y0615006G85X0769577
X0760977Y0649000G85Y0662000
X0739477Y0649000G85Y0662000
X0835855Y0649000G85Y0662000
X0857355Y0649000G85Y0662000
X0932233Y0649000G85Y0662000
X0900755Y0698400G85X0887755
X0953733Y0649000G85Y0662000
X1028611Y0649000G85Y0662000
X1050111Y0649000G85Y0662000
M30
