M48
;Layer_Color=9474304
;FILE_FORMAT=2:5
INCH
;TYPE=PLATED
T1F00S00C0.00787
T2F00S00C0.01200
T3F00S00C0.01600
T4F00S00C0.02800
T5F00S00C0.03150
T6F00S00C0.03307
T7F00S00C0.03346
T8F00S00C0.03543
T9F00S00C0.04000
T10F00S00C0.04016
T11F00S00C0.04094
T12F00S00C0.04291
T13F00S00C0.04331
T14F00S00C0.04331
T15F00S00C0.04528
T16F00S00C0.04724
T17F00S00C0.05118
T18F00S00C0.06200
T21F00S00C0.07283
T22F00S00C0.07795
T23F00S00C0.07874
T24F00S00C0.08110
T25F00S00C0.10512
T26F00S00C0.13386
;TYPE=NON_PLATED
T28F00S00C0.05000
T29F00S00C0.06299
T30F00S00C0.07087
T31F00S00C0.12992
%
T01
X1469030Y0840956
X1473518
X1478006
X1480250Y0843515
X1475762
X1471274
X1466786
X1469030Y0846074
X1473518
X1478006
T02
X1125055Y0266200
X1169355Y0253300
X1167755Y0247287
X0338695Y0262451
X0324705Y0262250
X0323945Y0254910
X0319155Y0242900
X0334200Y0193855
X0312255Y0184112
X0309311Y0437250
X0232255Y0441599
X0235855Y0404000
X0253755
X0334200Y0448855
X0813955Y0357400
X0810755Y0353600
X1092255Y0406400
X1144455Y0461700
X1172755Y0452600
X1093255Y0613400
X1088737Y0613435
X0796255Y0530400
X0793255Y0527400
X0338695Y0517451
X0324705Y0517250
X0323945Y0509910
X0319155Y0497900
X0246255Y0690400
X0232755Y0687600
X0229455Y0682400
X0317425Y0690524
X0334200Y0698855
X0319155Y0747900
X0323945Y0759910
X0324705Y0767250
X0338695Y0767451
X0828429Y0779600
X0833629
X0851796
X0856996
X0838855Y0748800
X0834455
X0946455Y0779100
X0951655
X0969855
X0975055
X1028655Y0778500
X1033055
X1071230Y0761400
X1079855Y0763700
X1090255Y0648400
X1127255Y0653400
X1137955Y0660000
X1147255Y0663800
X1153355Y0666300
X1150255Y0676600
X1144555Y0679400
X1140455
X1135155Y0683100
X1132355Y0676600
X1176153Y0676900
X1176255Y0666400
X1171255Y0666000
X1172255Y0662400
X1170255Y0658400
X1286055Y0784000
X1285785Y0815822
X1194955Y0873600
X1166595Y0877640
X1131809Y0918534
X1059855Y0843100
X1071352Y0817000
Y0812600
X1005299Y0812100
Y0816500
X0999755Y0836200
X0996835Y0843920
X1010325Y0844900
X0970755Y0849700
X0965655
X0956418Y0866854
X0954555Y0870300
X0952055Y0878000
X0966255Y0878900
X0974395Y0879114
X0979841Y0914800
X0957794
X0954555Y0916700
X0945235Y0913980
X0943655Y0898300
X0939355Y0898600
X0995455Y0798200
X0925955Y0797300
X0886955Y0793100
X0881255Y0797300
X0852696Y0850200
X0847596
X0847155Y0862100
X0835155Y0863300
X0838052Y0878293
X0822304
X0812855
X0803406
X0805150Y0915500
X0809802Y0914954
X0812855Y0918000
X0816101Y0914954
X0819154Y0918000
X0825553Y0914000
X0834955Y0917400
X0838155Y0914800
X0841254Y0917401
X0832255Y0920800
X0861555Y0915787
X0866455Y0914800
X0894355Y0916900
X0890555Y0925500
X0904293Y0914000
X0910355Y0877600
X0903609Y0866854
X0917972
X0936055Y0878800
X0935786Y0899400
X0866495Y0878500
X0860055Y0863800
X0847655Y0895900
X0734455Y0854200
Y0849800
X0715569Y0865586
X0711169
X0261355Y0913000
X0257955Y0909700
X0250555Y0912700
X0253855Y0916000
X0247755Y0920000
X0244455Y0916700
T03
X1096855Y0262100
X1131254Y0252736
X0844055Y0310687
X0532455Y0206500
X0530195Y0192160
X0509255Y0189300
X0491555Y0187600
X0430755Y0188700
Y0195300
Y0201900
X0409255Y0199100
X0406955Y0193000
X0402255Y0177100
X0390455Y0182700
X0377655Y0207000
X0376455Y0216000
X0382105Y0218900
X0382955Y0226900
X0380555Y0242700
X0374555
X0386555
X0356055
X0354898Y0236054
X0349200Y0230355
X0347755Y0193698
X0353454Y0188000
X0366755Y0209800
X0322355Y0193600
X0325555Y0176500
X0330155Y0172900
X0438614Y0177700
X0356855Y0281900
Y0287900
Y0293900
X0306545Y0292600
Y0286600
Y0280400
Y0298600
X0310331Y0262976
Y0254224
X0226305Y0322750
X0176055Y0408700
X0337527Y0410005
X0340255Y0405400
X0330155Y0427900
X0325555Y0431500
X0322355Y0448600
X0347755Y0448698
X0353454Y0443000
X0366755Y0464800
X0377655Y0462000
X0390455Y0437700
X0402255Y0432100
X0406955Y0448000
X0409255Y0454100
X0430755Y0456900
Y0450300
Y0443700
X0438255Y0431889
X0337905Y0352400
X0491555Y0442600
X0509255Y0444300
X0530195Y0447160
X0532455Y0461500
X0627255Y0459850
Y0452750
Y0466950
Y0385200
Y0378100
Y0371000
X0844055Y0315687
X1114855Y0450000
X1099855Y0466500
X1186455Y0426300
X1195855Y0426400
X0844055Y0521294
X0386555Y0497700
X0380555
X0374555
X0356055
X0354898Y0491054
X0349200Y0485355
X0382955Y0481900
X0382105Y0473900
X0376455Y0471000
X0356855Y0536900
Y0542900
Y0548900
X0336746Y0599300
X0306545Y0554700
Y0548700
Y0542700
Y0536900
X0310331Y0517976
Y0509224
X0233255Y0502900
Y0495800
Y0488700
X0210805Y0508350
X0173401Y0469100
X0176555Y0605400
X0148346Y0469100
X0148846Y0665800
X0173901
X0210805Y0702950
X0263255Y0701500
Y0708600
Y0715700
X0310331Y0759224
Y0767976
X0309246Y0655300
X0334301
X0330155Y0677900
X0324655Y0682400
X0322355Y0698600
X0347755Y0698698
X0353454Y0693000
X0366755Y0714800
X0377655Y0712000
X0376455Y0721000
X0382105Y0723900
X0382955Y0731900
X0380555Y0747700
X0386555
X0374555
X0356055
X0354898Y0741054
X0349200Y0735355
X0390455Y0687700
X0402255Y0682100
X0406955Y0698000
X0409255Y0704100
X0430755Y0706900
Y0700300
Y0693700
X0438945Y0682100
X0491555Y0692600
X0509255Y0694300
X0530195Y0697160
X0532455Y0711500
X0620055Y0706500
Y0699400
Y0692300
X0627255Y0657600
Y0650500
Y0643400
X0698255Y0713400
X0701255Y0716400
Y0720400
X0698255Y0723400
X0810255Y0706394
Y0702406
X0826261Y0707400
X0830249
X0844055Y0723700
Y0728700
X0819063Y0780860
X0813255Y0776812
X0872794Y0777339
X0799255Y0665400
X0958703Y0772588
X1007306Y0779277
X1091588Y0686133
X1203368Y0644587
X1195855Y0633700
X1269355Y0776900
X1429955Y0842300
Y0848800
Y0855300
X1436455
X1442955
X1449455
Y0848800
X1442955
X1436455
Y0842300
X1442955
X1449455
X1455955
Y0848800
Y0855300
Y0861800
X1449455
X1442955
X1436455
X1429955
Y0868300
X1436455
X1442955
X1449455
X1455955
X1490855Y0849200
X1488555Y0833900
X1499255Y0827800
X1499355Y0819100
X1398055Y0838500
X1391555
X1385055
X1378555
X1372055
Y0845000
X1378555
X1385055
X1391555
X1398055
X1385055Y0851500
X1378555
X1372055
Y0858000
X1378555
X1385055
X1324255Y0861500
X1317255Y0887900
X1309725Y0896500
X1317255Y0911916
X1309725Y0920516
X1303555Y0821200
X1298655
X1300080Y0789425
X1304980
X1269355Y0791100
Y0784000
X1372055Y0781500
Y0788000
X1378555
X1385055
X1391555
X1398055
Y0781500
X1391555
X1385055
X1378555
X1247155Y0792500
Y0799600
Y0806700
X1226131Y0798454
X1211955Y0807700
Y0814200
Y0820700
X1204055
Y0814200
Y0807700
X1192201Y0793454
X1179455Y0809400
X1172755Y0814700
X1167455Y0838373
X1158755Y0831330
X1153655Y0827100
X1157155Y0856600
X1163655
X1170155
X1176655
X1199459Y0861096
X1204055Y0856500
X1216155Y0854700
Y0861200
Y0848200
X1242155Y0848800
Y0855300
X1194863Y0865692
X1065255Y0863300
X1050855Y0847100
X1049773Y0839517
X1049673Y0833217
X1055255Y0831500
X1021425Y0831601
X0991425Y0832020
X0983655Y0818100
X0956255Y0830500
X0960955Y0848530
X0985555Y0873800
X1032155Y0887000
X1039255
X1046355
X1043176Y0798589
X1038176
X1045105Y0789977
X1064425Y0805101
X1012225Y0804700
X0995376Y0781801
X0938055Y0799500
X0936468Y0820667
X0929968
X0922402Y0822346
X0933525Y0829200
Y0845200
X0929855Y0862800
X0919155Y0928400
X0919655Y0935700
X0910188Y0927000
X0873055Y0829700
X0838196Y0831000
X0842896Y0849030
X0815466Y0845700
Y0829700
X0818409Y0821167
X0811909
X0804343Y0822846
X0798843Y0817346
X0787235Y0834955
X0807817Y0782250
X0877355Y0782100
X0770835Y0834955
X0757855Y0836455
X0733555Y0837400
X0726455
X0719355
X0712255
X0705155
X0730355Y0874000
X0737455
X0744555
X0341216Y0835700
X0356855Y0798900
Y0792900
Y0786900
X0306545Y0785600
Y0791100
Y0797100
Y0802950
X0174955Y0825800
X0192300Y0910645
X0198206Y0917750
X0216155Y0919300
T04
X1102548Y0217293
X1102548Y0227293
X1112548
X1112548Y0217293
X1122548
Y0227293
X1132548Y0217293
X1142548
X1152548Y0217293
X1152548Y0227293
X1162548
Y0217293
X1172548Y0217293
Y0227293
X1034359Y0217293
X0937981
X0861603Y0217293
X0841603
X0765225
X0745225Y0217293
X0634255Y0312400
X0620255
X0535655Y0212700
X0258932Y0199831
X0261155Y0397300
X0273255Y0417400
X0353454Y0424198
X0535755Y0467800
X0620255Y0401200
X0745225Y0422899
X0765225Y0422899
X0841603Y0422899
X0861603Y0422899
X0821255Y0316910
X0937981Y0422899
X1034359
X1102548Y0422899
Y0432899
X1112548Y0432899
X1112548Y0422899
X1122548
X1122548Y0432899
X1132548Y0422899
X1142548
X1152548
Y0432899
X1162548
Y0422899
X1172548
X1203055Y0442700
X0821255Y0523148
X0725255Y0523400
X0645255Y0511400
X0647255Y0502400
X0620255Y0486400
X0275255Y0666400
X0252955
X0535855Y0717900
X0652955Y0731100
X0745225Y0628506
X0765225Y0628506
X0841603
X0861603
X0819255Y0727969
X0937981Y0628506
X1034359Y0628506
X1102548Y0628506
Y0638506
X1122548
X1122548Y0628506
X1112548
X1132548
X1142548
X1152548
X1162548
X1172548
X1162548Y0638506
X1152548Y0638506
X1210955Y0669600
X1257934Y0882779
T05
X0796843Y0171587
X0805225Y0304150
Y0311650
X0894000Y0307802
X0757473Y0171587
X0742572Y0377193
X0781943
X0805225Y0326650
Y0319150
X0894000Y0347172
Y0513409
Y0552779
X0805691Y0532544
Y0525044
Y0517544
Y0510044
X0781943Y0582799
X0742572
X0805255Y0715150
Y0722650
Y0730150
Y0737650
X0894000Y0719015
Y0758385
T06
X1007637Y0896714
X0778897
T07
X0639670Y0848110
X0679040
T08
X1094609Y0251194
X1104609
X1084609
X0479153Y0166400
X0439783
X0440570Y0421291
X0479940
X1084609Y0456800
X1094609
X1104609
X0440170Y0671400
X0479540
X1084716Y0665601
X1094716
X1104716
X1405455Y0857857
Y0877543
T09
X1081255Y0208400
X0894255
X0703255
X0308255Y0196455
Y0448600
X0348255Y0352400
X0703255Y0413400
X0894255
X1081255
Y0619400
X0894255
X0703322
X0348255Y0599300
X0308334Y0698600
X1266155Y0927500
X1296355Y0933300
X1235955Y0792200
X0353231Y0835526
T10
X1268255Y0757618
X1278255
X1288255
X1298255
T11
X1381255Y0739400
X1391255
X1485255
X1495255
T12
X0223255Y0264400
X0263255
Y0426600
X0223255
X0223755Y0621300
X0263755
X0263255Y0842900
X0223255
T13
X0806685Y0171587
X0893954Y0295639
X0747630Y0171587
X0732730Y0377193
X0791785
X0893954Y0354694
Y0501246
Y0560301
X0791785Y0582799
X0732730
X0893954Y0706852
Y0765907
T14
X0599255Y0355557
Y0375243
Y0611557
Y0631243
Y0860557
Y0880243
T15
X1112755Y0274921
X1122755
Y0480527
X1112755
Y0686133
X1122755
X1340355Y0776400
Y0786400
Y0801800
Y0811800
X1365455Y0877600
X1375455
X1027255Y0869400
X1017255
X0980625Y0932300
X0970625
X0942588Y0932700
Y0922700
X0764355Y0873300
Y0863300
X0746255Y0862400
X0736255
T16
X0520255Y0238081
Y0385719
Y0493581
Y0641219
Y0743081
Y0890719
T17
X0755225Y0290400
X0765225
X0775225
Y0340400
X0765225
X0755225
X0755691Y0496294
X0765691
X0775691
Y0546294
X0765691
X0755691
X0755255Y0701400
X0765255
X0775255
Y0751400
X0765255
X0755255
T18
X0942981Y0244293
X0964481
X1017859
X1039359
X1060859
X0921481
X0868103
X0846603
X0825103
X0771725
X0750225
X0728725
Y0449899
X0750225
X0771725
X0825103
X0846603
X0868103
X0921481
X0942981
X0964481
X1017859
X1039359
X1060859
X0771725Y0655506
X0750225
X0728725
X0825103
X0846603
X0868103
X0921481
X0942981
X0964481
X1017859
X1039359
X1060859
T21
X1259710Y0170445
Y0193555
X1374555Y0193510
X1397665
Y0170400
X1374555
X1236600Y0170445
Y0193555
X0169210Y0235846
Y0258956
X0146100
Y0235846
X0146100Y0355045
Y0378156
X0169211
Y0355045
X0169710Y0549746
Y0572856
X0146600
Y0549746
X0146100Y0771345
X0169211
Y0794456
X0146100
T22
X0278255Y0214400
Y0376600
X0278755Y0571300
X0278255Y0792900
T23
X1443410Y0283400
X1404040
X1303125
X1263755
Y0410900
X1303125
X1404040
X1443410
Y0538400
X1404040
X1302625
X1263255
X1263755Y0665848
X1303125
X1404040
X1443410
T24
X0208255Y0204400
Y0366600
X0208755Y0561300
X0208255Y0782900
T25
X1081603Y0226282
X0900737
X0884188
X0703322
Y0431889
X0884188
X0900737
X1081603
X0703322Y0637495
X0884188
X0900737
X1081603
T26
X1485572Y0174900
X1200402Y0256000
X0712856Y0174900
X0150094Y0173900
X0273449Y0495800
X1485072Y0919400
X1200403
X0712855
X0151624Y0919401
T28
X1172400Y0902620
X1069251Y0896714
X0998385Y0902619
X0788148Y0896714
T29
X1339596Y0920516
T30
X1339596Y0902799
T31
X1386110Y0181955
X1248155Y0182000
X0157655Y0247401
X0157656Y0366600
X0158155Y0561301
X0157656Y0782900
M30
