G04*
G04 #@! TF.GenerationSoftware,Altium Limited,Altium Designer,18.1.9 (240)*
G04*
G04 Layer_Color=16711935*
%FSAX25Y25*%
%MOIN*%
G70*
G01*
G75*
%ADD11C,0.00700*%
%ADD15C,0.00500*%
%ADD20C,0.01000*%
%ADD24C,0.00600*%
%ADD27C,0.00800*%
G36*
X1973050Y0227525D02*
Y0227425D01*
Y0227325D01*
Y0227225D01*
X1972950D01*
Y0227125D01*
Y0227025D01*
Y0226925D01*
Y0226825D01*
Y0226725D01*
X1972850D01*
Y0226625D01*
Y0226525D01*
Y0226425D01*
Y0226325D01*
Y0226225D01*
X1972750D01*
Y0226125D01*
Y0226025D01*
Y0225925D01*
Y0225825D01*
Y0225725D01*
X1972650D01*
Y0225625D01*
Y0225525D01*
Y0225425D01*
Y0225325D01*
X1970250D01*
Y0225425D01*
Y0225525D01*
X1970350D01*
Y0225625D01*
Y0225725D01*
Y0225825D01*
Y0225925D01*
Y0226025D01*
X1970450D01*
Y0226125D01*
Y0226225D01*
Y0226325D01*
Y0226425D01*
Y0226525D01*
X1970550D01*
Y0226625D01*
Y0226725D01*
Y0226825D01*
Y0226925D01*
Y0227025D01*
X1970650D01*
Y0227125D01*
Y0227225D01*
Y0227325D01*
Y0227425D01*
Y0227525D01*
X1970750D01*
Y0227625D01*
X1973050D01*
Y0227525D01*
D02*
G37*
G36*
X1992250Y0224225D02*
Y0224125D01*
Y0224025D01*
X1992350D01*
Y0223925D01*
Y0223825D01*
Y0223725D01*
X1992450D01*
Y0223625D01*
Y0223525D01*
Y0223425D01*
X1992550D01*
Y0223325D01*
Y0223225D01*
Y0223125D01*
X1992650D01*
Y0223025D01*
Y0222925D01*
Y0222825D01*
X1992750D01*
Y0222725D01*
Y0222625D01*
Y0222525D01*
X1992850D01*
Y0222425D01*
X1992750D01*
Y0222325D01*
X1992550D01*
Y0222425D01*
Y0222525D01*
X1992450D01*
Y0222625D01*
X1992350D01*
Y0222725D01*
X1992250D01*
Y0222825D01*
X1992050D01*
Y0222925D01*
X1991950D01*
Y0223025D01*
X1991650D01*
Y0223125D01*
X1991250D01*
Y0223225D01*
X1989150D01*
Y0223125D01*
X1989050D01*
Y0223025D01*
Y0222925D01*
X1988950D01*
Y0222825D01*
Y0222725D01*
Y0222625D01*
Y0222525D01*
Y0222425D01*
Y0222325D01*
Y0222225D01*
Y0222125D01*
Y0222025D01*
Y0221925D01*
Y0221825D01*
Y0221725D01*
Y0221625D01*
Y0221525D01*
Y0221425D01*
Y0221325D01*
Y0221225D01*
Y0221125D01*
Y0221025D01*
Y0220925D01*
Y0220825D01*
Y0220725D01*
Y0220625D01*
Y0220525D01*
Y0220425D01*
Y0220325D01*
Y0220225D01*
Y0220125D01*
Y0220025D01*
Y0219925D01*
Y0219825D01*
Y0219725D01*
Y0219625D01*
Y0219525D01*
Y0219425D01*
Y0219325D01*
Y0219225D01*
Y0219125D01*
Y0219025D01*
Y0218925D01*
Y0218825D01*
Y0218725D01*
Y0218625D01*
Y0218525D01*
Y0218425D01*
Y0218325D01*
Y0218225D01*
Y0218125D01*
Y0218025D01*
Y0217925D01*
Y0217825D01*
Y0217725D01*
Y0217625D01*
Y0217525D01*
Y0217425D01*
Y0217325D01*
Y0217225D01*
Y0217125D01*
Y0217025D01*
Y0216925D01*
Y0216825D01*
Y0216725D01*
Y0216625D01*
Y0216525D01*
Y0216425D01*
Y0216325D01*
Y0216225D01*
Y0216125D01*
Y0216025D01*
Y0215925D01*
Y0215825D01*
Y0215725D01*
Y0215625D01*
Y0215525D01*
Y0215425D01*
Y0215325D01*
Y0215225D01*
Y0215125D01*
Y0215025D01*
X1989050D01*
Y0214925D01*
Y0214825D01*
Y0214725D01*
X1989150D01*
Y0214625D01*
X1989250D01*
Y0214525D01*
X1989350D01*
Y0214425D01*
X1989550D01*
Y0214325D01*
X1989750D01*
Y0214225D01*
Y0214125D01*
Y0214025D01*
X1986350D01*
Y0214125D01*
Y0214225D01*
Y0214325D01*
X1986550D01*
Y0214425D01*
X1986750D01*
Y0214525D01*
X1986850D01*
Y0214625D01*
X1986950D01*
Y0214725D01*
X1987050D01*
Y0214825D01*
Y0214925D01*
Y0215025D01*
Y0215125D01*
X1987150D01*
Y0215225D01*
Y0215325D01*
Y0215425D01*
Y0215525D01*
Y0215625D01*
Y0215725D01*
Y0215825D01*
Y0215925D01*
Y0216025D01*
Y0216125D01*
Y0216225D01*
Y0216325D01*
Y0216425D01*
Y0216525D01*
Y0216625D01*
Y0216725D01*
Y0216825D01*
Y0216925D01*
Y0217025D01*
Y0217125D01*
Y0217225D01*
Y0217325D01*
Y0217425D01*
Y0217525D01*
Y0217625D01*
Y0217725D01*
Y0217825D01*
Y0217925D01*
Y0218025D01*
Y0218125D01*
Y0218225D01*
Y0218325D01*
Y0218425D01*
Y0218525D01*
Y0218625D01*
Y0218725D01*
Y0218825D01*
Y0218925D01*
Y0219025D01*
Y0219125D01*
Y0219225D01*
Y0219325D01*
Y0219425D01*
Y0219525D01*
Y0219625D01*
Y0219725D01*
Y0219825D01*
Y0219925D01*
Y0220025D01*
Y0220125D01*
Y0220225D01*
Y0220325D01*
Y0220425D01*
Y0220525D01*
Y0220625D01*
Y0220725D01*
Y0220825D01*
Y0220925D01*
Y0221025D01*
Y0221125D01*
Y0221225D01*
Y0221325D01*
Y0221425D01*
Y0221525D01*
Y0221625D01*
Y0221725D01*
Y0221825D01*
Y0221925D01*
Y0222025D01*
Y0222125D01*
Y0222225D01*
Y0222325D01*
Y0222425D01*
Y0222525D01*
Y0222625D01*
Y0222725D01*
Y0222825D01*
X1987050D01*
Y0222925D01*
Y0223025D01*
Y0223125D01*
X1986850D01*
Y0223225D01*
X1984850D01*
Y0223125D01*
X1984450D01*
Y0223025D01*
X1984150D01*
Y0222925D01*
X1984050D01*
Y0222825D01*
X1983850D01*
Y0222725D01*
X1983750D01*
Y0222625D01*
X1983650D01*
Y0222525D01*
X1983550D01*
Y0222425D01*
X1983450D01*
Y0222325D01*
X1983350D01*
Y0222425D01*
X1983250D01*
Y0222525D01*
Y0222625D01*
Y0222725D01*
X1983350D01*
Y0222825D01*
Y0222925D01*
X1983450D01*
Y0223025D01*
Y0223125D01*
Y0223225D01*
X1983550D01*
Y0223325D01*
Y0223425D01*
Y0223525D01*
X1983650D01*
Y0223625D01*
Y0223725D01*
Y0223825D01*
X1983750D01*
Y0223925D01*
Y0224025D01*
Y0224125D01*
X1983850D01*
Y0224225D01*
Y0224325D01*
X1992250D01*
Y0224225D01*
D02*
G37*
G36*
X1997150Y0221825D02*
Y0221725D01*
X1997250D01*
Y0221625D01*
Y0221525D01*
X1997350D01*
Y0221425D01*
Y0221325D01*
Y0221225D01*
X1997450D01*
Y0221125D01*
Y0221025D01*
Y0220925D01*
X1997550D01*
Y0220825D01*
Y0220725D01*
Y0220625D01*
X1997650D01*
Y0220525D01*
Y0220425D01*
X1997750D01*
Y0220325D01*
Y0220225D01*
Y0220125D01*
Y0220025D01*
X1997450D01*
Y0220125D01*
X1997350D01*
Y0220225D01*
X1997250D01*
Y0220325D01*
X1997150D01*
Y0220425D01*
X1997050D01*
Y0220525D01*
X1996950D01*
Y0220625D01*
X1996750D01*
Y0220725D01*
X1996550D01*
Y0220825D01*
X1996250D01*
Y0220925D01*
X1993650D01*
Y0220825D01*
X1993550D01*
Y0220725D01*
X1993450D01*
Y0220625D01*
Y0220525D01*
Y0220425D01*
Y0220325D01*
Y0220225D01*
Y0220125D01*
Y0220025D01*
Y0219925D01*
Y0219825D01*
Y0219725D01*
Y0219625D01*
Y0219525D01*
Y0219425D01*
Y0219325D01*
Y0219225D01*
Y0219125D01*
Y0219025D01*
Y0218925D01*
Y0218825D01*
Y0218725D01*
Y0218625D01*
X1996050D01*
Y0218725D01*
X1996250D01*
Y0218825D01*
X1996350D01*
Y0218925D01*
Y0219025D01*
X1996450D01*
Y0219125D01*
Y0219225D01*
X1996750D01*
Y0219125D01*
Y0219025D01*
Y0218925D01*
Y0218825D01*
Y0218725D01*
Y0218625D01*
Y0218525D01*
Y0218425D01*
Y0218325D01*
Y0218225D01*
Y0218125D01*
Y0218025D01*
Y0217925D01*
Y0217825D01*
Y0217725D01*
Y0217625D01*
Y0217525D01*
Y0217425D01*
Y0217325D01*
Y0217225D01*
Y0217125D01*
Y0217025D01*
X1996450D01*
Y0217125D01*
Y0217225D01*
Y0217325D01*
X1996350D01*
Y0217425D01*
X1996250D01*
Y0217525D01*
X1996150D01*
Y0217625D01*
X1995850D01*
Y0217725D01*
X1993450D01*
Y0217625D01*
Y0217525D01*
Y0217425D01*
Y0217325D01*
Y0217225D01*
Y0217125D01*
Y0217025D01*
Y0216925D01*
Y0216825D01*
Y0216725D01*
Y0216625D01*
Y0216525D01*
Y0216425D01*
Y0216325D01*
Y0216225D01*
Y0216125D01*
Y0216025D01*
Y0215925D01*
Y0215825D01*
Y0215725D01*
Y0215625D01*
Y0215525D01*
Y0215425D01*
Y0215325D01*
Y0215225D01*
X1993550D01*
Y0215125D01*
Y0215025D01*
X1993850D01*
Y0214925D01*
X1995950D01*
Y0215025D01*
X1996650D01*
Y0215125D01*
X1996950D01*
Y0215225D01*
X1997150D01*
Y0215325D01*
X1997250D01*
Y0215425D01*
X1997450D01*
Y0215525D01*
X1997550D01*
Y0215625D01*
X1997650D01*
Y0215725D01*
X1997750D01*
Y0215825D01*
X1997850D01*
Y0215925D01*
X1997950D01*
Y0216025D01*
X1998050D01*
Y0215925D01*
X1998150D01*
Y0215825D01*
Y0215725D01*
X1998050D01*
Y0215625D01*
Y0215525D01*
Y0215425D01*
X1997950D01*
Y0215325D01*
Y0215225D01*
X1997850D01*
Y0215125D01*
Y0215025D01*
Y0214925D01*
X1997750D01*
Y0214825D01*
Y0214725D01*
X1997650D01*
Y0214625D01*
Y0214525D01*
Y0214425D01*
X1997550D01*
Y0214325D01*
Y0214225D01*
X1997450D01*
Y0214125D01*
Y0214025D01*
X1990950D01*
Y0214125D01*
Y0214225D01*
Y0214325D01*
X1991250D01*
Y0214425D01*
X1991450D01*
Y0214525D01*
X1991550D01*
Y0214625D01*
X1991650D01*
Y0214725D01*
Y0214825D01*
X1991750D01*
Y0214925D01*
Y0215025D01*
Y0215125D01*
Y0215225D01*
Y0215325D01*
Y0215425D01*
Y0215525D01*
Y0215625D01*
Y0215725D01*
Y0215825D01*
Y0215925D01*
Y0216025D01*
Y0216125D01*
Y0216225D01*
Y0216325D01*
Y0216425D01*
Y0216525D01*
Y0216625D01*
Y0216725D01*
Y0216825D01*
Y0216925D01*
Y0217025D01*
Y0217125D01*
Y0217225D01*
Y0217325D01*
Y0217425D01*
Y0217525D01*
Y0217625D01*
Y0217725D01*
Y0217825D01*
Y0217925D01*
Y0218025D01*
Y0218125D01*
Y0218225D01*
Y0218325D01*
Y0218425D01*
Y0218525D01*
Y0218625D01*
Y0218725D01*
Y0218825D01*
Y0218925D01*
Y0219025D01*
Y0219125D01*
Y0219225D01*
Y0219325D01*
Y0219425D01*
Y0219525D01*
Y0219625D01*
Y0219725D01*
Y0219825D01*
Y0219925D01*
Y0220025D01*
Y0220125D01*
Y0220225D01*
Y0220325D01*
Y0220425D01*
Y0220525D01*
Y0220625D01*
Y0220725D01*
Y0220825D01*
Y0220925D01*
Y0221025D01*
Y0221125D01*
X1991650D01*
Y0221225D01*
Y0221325D01*
X1991550D01*
Y0221425D01*
X1991450D01*
Y0221525D01*
X1991150D01*
Y0221625D01*
X1990950D01*
Y0221725D01*
Y0221825D01*
Y0221925D01*
X1997150D01*
Y0221825D01*
D02*
G37*
G36*
X2017650Y0221925D02*
X2018050D01*
Y0221825D01*
X2018350D01*
Y0221725D01*
X2018550D01*
Y0221625D01*
X2018750D01*
Y0221525D01*
X2018850D01*
Y0221625D01*
X2018950D01*
Y0221725D01*
Y0221825D01*
Y0221925D01*
X2019350D01*
Y0221825D01*
X2019450D01*
Y0221725D01*
Y0221625D01*
Y0221525D01*
Y0221425D01*
X2019550D01*
Y0221325D01*
Y0221225D01*
Y0221125D01*
X2019650D01*
Y0221025D01*
Y0220925D01*
Y0220825D01*
Y0220725D01*
X2019750D01*
Y0220625D01*
Y0220525D01*
Y0220425D01*
X2019850D01*
Y0220325D01*
Y0220225D01*
Y0220125D01*
Y0220025D01*
X2019950D01*
Y0219925D01*
Y0219825D01*
X2019850D01*
Y0219725D01*
X2019650D01*
Y0219825D01*
X2019550D01*
Y0219925D01*
X2019450D01*
Y0220025D01*
X2019350D01*
Y0220125D01*
X2019250D01*
Y0220225D01*
X2019150D01*
Y0220325D01*
X2019050D01*
Y0220425D01*
X2018850D01*
Y0220525D01*
X2018750D01*
Y0220625D01*
X2018550D01*
Y0220725D01*
X2018250D01*
Y0220825D01*
X2017950D01*
Y0220925D01*
X2017550D01*
Y0221025D01*
X2016650D01*
Y0220925D01*
X2016250D01*
Y0220825D01*
X2016050D01*
Y0220725D01*
X2015850D01*
Y0220625D01*
X2015750D01*
Y0220525D01*
Y0220425D01*
X2015650D01*
Y0220325D01*
Y0220225D01*
Y0220125D01*
Y0220025D01*
Y0219925D01*
Y0219825D01*
Y0219725D01*
Y0219625D01*
X2015750D01*
Y0219525D01*
X2015850D01*
Y0219425D01*
X2015950D01*
Y0219325D01*
X2016250D01*
Y0219225D01*
X2016550D01*
Y0219125D01*
X2016950D01*
Y0219025D01*
X2017350D01*
Y0218925D01*
X2017850D01*
Y0218825D01*
X2018250D01*
Y0218725D01*
X2018650D01*
Y0218625D01*
X2018950D01*
Y0218525D01*
X2019150D01*
Y0218425D01*
X2019350D01*
Y0218325D01*
X2019550D01*
Y0218225D01*
X2019750D01*
Y0218125D01*
X2019850D01*
Y0218025D01*
X2019950D01*
Y0217925D01*
X2020050D01*
Y0217825D01*
X2020150D01*
Y0217725D01*
Y0217625D01*
X2020250D01*
Y0217525D01*
Y0217425D01*
X2020350D01*
Y0217325D01*
Y0217225D01*
Y0217125D01*
X2020450D01*
Y0217025D01*
Y0216925D01*
Y0216825D01*
Y0216725D01*
Y0216625D01*
Y0216525D01*
Y0216425D01*
Y0216325D01*
Y0216225D01*
Y0216125D01*
Y0216025D01*
Y0215925D01*
Y0215825D01*
Y0215725D01*
X2020350D01*
Y0215625D01*
Y0215525D01*
Y0215425D01*
X2020250D01*
Y0215325D01*
Y0215225D01*
X2020150D01*
Y0215125D01*
Y0215025D01*
X2020050D01*
Y0214925D01*
X2019950D01*
Y0214825D01*
X2019850D01*
Y0214725D01*
X2019750D01*
Y0214625D01*
X2019650D01*
Y0214525D01*
X2019550D01*
Y0214425D01*
X2019350D01*
Y0214325D01*
X2019150D01*
Y0214225D01*
X2018950D01*
Y0214125D01*
X2018650D01*
Y0214025D01*
X2018250D01*
Y0213925D01*
X2016450D01*
Y0214025D01*
X2016050D01*
Y0214125D01*
X2015750D01*
Y0214225D01*
X2015550D01*
Y0214325D01*
X2015350D01*
Y0214425D01*
X2015150D01*
Y0214325D01*
X2015050D01*
Y0214225D01*
Y0214125D01*
Y0214025D01*
X2014550D01*
Y0214125D01*
Y0214225D01*
Y0214325D01*
Y0214425D01*
X2014450D01*
Y0214525D01*
Y0214625D01*
Y0214725D01*
X2014350D01*
Y0214825D01*
Y0214925D01*
Y0215025D01*
Y0215125D01*
X2014250D01*
Y0215225D01*
Y0215325D01*
Y0215425D01*
Y0215525D01*
X2014150D01*
Y0215625D01*
Y0215725D01*
Y0215825D01*
Y0215925D01*
X2014050D01*
Y0216025D01*
Y0216125D01*
Y0216225D01*
X2013950D01*
Y0216325D01*
Y0216425D01*
X2014050D01*
Y0216525D01*
X2014250D01*
Y0216425D01*
X2014350D01*
Y0216325D01*
X2014450D01*
Y0216225D01*
X2014550D01*
Y0216125D01*
X2014650D01*
Y0216025D01*
X2014750D01*
Y0215925D01*
X2014850D01*
Y0215825D01*
X2014950D01*
Y0215725D01*
X2015050D01*
Y0215625D01*
X2015150D01*
Y0215525D01*
X2015350D01*
Y0215425D01*
X2015550D01*
Y0215325D01*
X2015650D01*
Y0215225D01*
X2015950D01*
Y0215125D01*
X2016150D01*
Y0215025D01*
X2016550D01*
Y0214925D01*
X2017950D01*
Y0215025D01*
X2018250D01*
Y0215125D01*
X2018450D01*
Y0215225D01*
X2018550D01*
Y0215325D01*
X2018650D01*
Y0215425D01*
X2018750D01*
Y0215525D01*
X2018850D01*
Y0215625D01*
Y0215725D01*
Y0215825D01*
X2018950D01*
Y0215925D01*
Y0216025D01*
Y0216125D01*
Y0216225D01*
Y0216325D01*
X2018850D01*
Y0216425D01*
Y0216525D01*
Y0216625D01*
X2018750D01*
Y0216725D01*
X2018650D01*
Y0216825D01*
X2018550D01*
Y0216925D01*
X2018350D01*
Y0217025D01*
X2018050D01*
Y0217125D01*
X2017650D01*
Y0217225D01*
X2017250D01*
Y0217325D01*
X2016750D01*
Y0217425D01*
X2016350D01*
Y0217525D01*
X2015950D01*
Y0217625D01*
X2015650D01*
Y0217725D01*
X2015450D01*
Y0217825D01*
X2015250D01*
Y0217925D01*
X2015050D01*
Y0218025D01*
X2014950D01*
Y0218125D01*
X2014850D01*
Y0218225D01*
X2014650D01*
Y0218325D01*
Y0218425D01*
X2014550D01*
Y0218525D01*
X2014450D01*
Y0218625D01*
Y0218725D01*
X2014350D01*
Y0218825D01*
Y0218925D01*
X2014250D01*
Y0219025D01*
Y0219125D01*
Y0219225D01*
Y0219325D01*
X2014150D01*
Y0219425D01*
Y0219525D01*
Y0219625D01*
Y0219725D01*
Y0219825D01*
Y0219925D01*
Y0220025D01*
Y0220125D01*
X2014250D01*
Y0220225D01*
Y0220325D01*
Y0220425D01*
Y0220525D01*
X2014350D01*
Y0220625D01*
Y0220725D01*
X2014450D01*
Y0220825D01*
Y0220925D01*
X2014550D01*
Y0221025D01*
X2014650D01*
Y0221125D01*
X2014750D01*
Y0221225D01*
X2014850D01*
Y0221325D01*
X2014950D01*
Y0221425D01*
X2015050D01*
Y0221525D01*
X2015150D01*
Y0221625D01*
X2015350D01*
Y0221725D01*
X2015550D01*
Y0221825D01*
X2015850D01*
Y0221925D01*
X2016350D01*
Y0222025D01*
X2017650D01*
Y0221925D01*
D02*
G37*
G36*
X2010850Y0221825D02*
Y0221725D01*
X2010950D01*
Y0221625D01*
Y0221525D01*
Y0221425D01*
X2011050D01*
Y0221325D01*
Y0221225D01*
Y0221125D01*
X2011150D01*
Y0221025D01*
Y0220925D01*
X2011250D01*
Y0220825D01*
Y0220725D01*
Y0220625D01*
X2011350D01*
Y0220525D01*
Y0220425D01*
X2011450D01*
Y0220325D01*
Y0220225D01*
Y0220125D01*
X2011550D01*
Y0220025D01*
Y0219925D01*
Y0219825D01*
X2011650D01*
Y0219725D01*
Y0219625D01*
X2011750D01*
Y0219525D01*
Y0219425D01*
Y0219325D01*
X2011850D01*
Y0219225D01*
Y0219125D01*
Y0219025D01*
X2011950D01*
Y0218925D01*
Y0218825D01*
X2012050D01*
Y0218725D01*
Y0218625D01*
Y0218525D01*
X2012150D01*
Y0218425D01*
Y0218325D01*
X2012250D01*
Y0218225D01*
Y0218125D01*
Y0218025D01*
X2012350D01*
Y0217925D01*
Y0217825D01*
Y0217725D01*
X2012450D01*
Y0217625D01*
Y0217525D01*
X2012550D01*
Y0217425D01*
Y0217325D01*
Y0217225D01*
X2012650D01*
Y0217125D01*
Y0217025D01*
Y0216925D01*
X2012750D01*
Y0216825D01*
Y0216725D01*
X2012850D01*
Y0216625D01*
Y0216525D01*
Y0216425D01*
X2012950D01*
Y0216325D01*
Y0216225D01*
X2013050D01*
Y0216125D01*
Y0216025D01*
Y0215925D01*
X2013150D01*
Y0215825D01*
Y0215725D01*
Y0215625D01*
X2013250D01*
Y0215525D01*
Y0215425D01*
X2013350D01*
Y0215325D01*
Y0215225D01*
Y0215125D01*
X2013450D01*
Y0215025D01*
Y0214925D01*
X2013550D01*
Y0214825D01*
X2013650D01*
Y0214725D01*
X2013750D01*
Y0214625D01*
X2013850D01*
Y0214525D01*
X2013950D01*
Y0214425D01*
X2014150D01*
Y0214325D01*
X2014250D01*
Y0214225D01*
Y0214125D01*
Y0214025D01*
X2010950D01*
Y0214125D01*
Y0214225D01*
Y0214325D01*
X2011250D01*
Y0214425D01*
X2011350D01*
Y0214525D01*
X2011450D01*
Y0214625D01*
X2011550D01*
Y0214725D01*
Y0214825D01*
Y0214925D01*
Y0215025D01*
Y0215125D01*
X2011450D01*
Y0215225D01*
Y0215325D01*
Y0215425D01*
X2011350D01*
Y0215525D01*
Y0215625D01*
X2011250D01*
Y0215725D01*
Y0215825D01*
Y0215925D01*
X2011150D01*
Y0216025D01*
Y0216125D01*
Y0216225D01*
X2007850D01*
Y0216125D01*
Y0216025D01*
Y0215925D01*
X2007750D01*
Y0215825D01*
Y0215725D01*
X2007650D01*
Y0215625D01*
Y0215525D01*
Y0215425D01*
X2007550D01*
Y0215325D01*
Y0215225D01*
Y0215125D01*
X2007450D01*
Y0215025D01*
Y0214925D01*
Y0214825D01*
Y0214725D01*
Y0214625D01*
Y0214525D01*
X2007550D01*
Y0214425D01*
X2007750D01*
Y0214325D01*
X2008050D01*
Y0214225D01*
Y0214125D01*
Y0214025D01*
X2002650D01*
Y0214125D01*
Y0214225D01*
Y0214325D01*
X2002950D01*
Y0214425D01*
X2003150D01*
Y0214525D01*
X2003250D01*
Y0214625D01*
X2003350D01*
Y0214725D01*
Y0214825D01*
Y0214925D01*
Y0215025D01*
X2003250D01*
Y0215125D01*
Y0215225D01*
X2003150D01*
Y0215325D01*
X2003050D01*
Y0215425D01*
X2002950D01*
Y0215525D01*
Y0215625D01*
X2002850D01*
Y0215725D01*
X2002750D01*
Y0215825D01*
Y0215925D01*
X2002650D01*
Y0216025D01*
X2002550D01*
Y0216125D01*
Y0216225D01*
X2002450D01*
Y0216325D01*
X2002350D01*
Y0216425D01*
Y0216525D01*
X2002250D01*
Y0216625D01*
X2002150D01*
Y0216725D01*
X2002050D01*
Y0216825D01*
Y0216925D01*
X2001950D01*
Y0217025D01*
X2001850D01*
Y0217125D01*
Y0217225D01*
X2001750D01*
Y0217125D01*
X2001650D01*
Y0217025D01*
Y0216925D01*
X2001550D01*
Y0216825D01*
Y0216725D01*
X2001450D01*
Y0216625D01*
X2001350D01*
Y0216525D01*
Y0216425D01*
X2001250D01*
Y0216325D01*
X2001150D01*
Y0216225D01*
Y0216125D01*
X2001050D01*
Y0216025D01*
X2000950D01*
Y0215925D01*
Y0215825D01*
X2000850D01*
Y0215725D01*
X2000750D01*
Y0215625D01*
Y0215525D01*
X2000650D01*
Y0215425D01*
Y0215325D01*
X2000550D01*
Y0215225D01*
X2000450D01*
Y0215125D01*
Y0215025D01*
X2000350D01*
Y0214925D01*
Y0214825D01*
Y0214725D01*
Y0214625D01*
Y0214525D01*
X2000450D01*
Y0214425D01*
X2000650D01*
Y0214325D01*
X2000950D01*
Y0214225D01*
Y0214125D01*
Y0214025D01*
X1997950D01*
Y0214125D01*
Y0214225D01*
Y0214325D01*
X1998150D01*
Y0214425D01*
X1998450D01*
Y0214525D01*
X1998650D01*
Y0214625D01*
X1998750D01*
Y0214725D01*
X1998850D01*
Y0214825D01*
X1998950D01*
Y0214925D01*
X1999050D01*
Y0215025D01*
X1999150D01*
Y0215125D01*
X1999250D01*
Y0215225D01*
X1999350D01*
Y0215325D01*
Y0215425D01*
X1999450D01*
Y0215525D01*
X1999550D01*
Y0215625D01*
Y0215725D01*
X1999650D01*
Y0215825D01*
X1999750D01*
Y0215925D01*
X1999850D01*
Y0216025D01*
Y0216125D01*
X1999950D01*
Y0216225D01*
X2000050D01*
Y0216325D01*
Y0216425D01*
X2000150D01*
Y0216525D01*
X2000250D01*
Y0216625D01*
X2000350D01*
Y0216725D01*
Y0216825D01*
X2000450D01*
Y0216925D01*
X2000550D01*
Y0217025D01*
Y0217125D01*
X2000650D01*
Y0217225D01*
X2000750D01*
Y0217325D01*
Y0217425D01*
X2000850D01*
Y0217525D01*
X2000950D01*
Y0217625D01*
X2001050D01*
Y0217725D01*
Y0217825D01*
X2001150D01*
Y0217925D01*
Y0218025D01*
Y0218125D01*
X2001050D01*
Y0218225D01*
X2000950D01*
Y0218325D01*
Y0218425D01*
X2000850D01*
Y0218525D01*
X2000750D01*
Y0218625D01*
X2000650D01*
Y0218725D01*
Y0218825D01*
X2000550D01*
Y0218925D01*
X2000450D01*
Y0219025D01*
Y0219125D01*
X2000350D01*
Y0219225D01*
X2000250D01*
Y0219325D01*
Y0219425D01*
X2000150D01*
Y0219525D01*
X2000050D01*
Y0219625D01*
X1999950D01*
Y0219725D01*
Y0219825D01*
X1999850D01*
Y0219925D01*
X1999750D01*
Y0220025D01*
Y0220125D01*
X1999650D01*
Y0220225D01*
X1999550D01*
Y0220325D01*
X1999450D01*
Y0220425D01*
Y0220525D01*
X1999350D01*
Y0220625D01*
X1999250D01*
Y0220725D01*
Y0220825D01*
X1999150D01*
Y0220925D01*
X1999050D01*
Y0221025D01*
X1998950D01*
Y0221125D01*
X1998850D01*
Y0221225D01*
X1998750D01*
Y0221325D01*
X1998650D01*
Y0221425D01*
X1998450D01*
Y0221525D01*
X1998250D01*
Y0221625D01*
X1998050D01*
Y0221725D01*
Y0221825D01*
Y0221925D01*
X2001750D01*
Y0221825D01*
Y0221725D01*
Y0221625D01*
X2001550D01*
Y0221525D01*
X2001350D01*
Y0221425D01*
X2001250D01*
Y0221325D01*
Y0221225D01*
X2001150D01*
Y0221125D01*
Y0221025D01*
X2001250D01*
Y0220925D01*
Y0220825D01*
X2001350D01*
Y0220725D01*
Y0220625D01*
X2001450D01*
Y0220525D01*
Y0220425D01*
X2001550D01*
Y0220325D01*
X2001650D01*
Y0220225D01*
Y0220125D01*
X2001750D01*
Y0220025D01*
X2001850D01*
Y0219925D01*
Y0219825D01*
X2001950D01*
Y0219725D01*
X2002050D01*
Y0219625D01*
Y0219525D01*
X2002150D01*
Y0219425D01*
X2002250D01*
Y0219325D01*
Y0219225D01*
X2002350D01*
Y0219125D01*
X2002450D01*
Y0219025D01*
X2002550D01*
Y0219125D01*
X2002650D01*
Y0219225D01*
Y0219325D01*
X2002750D01*
Y0219425D01*
X2002850D01*
Y0219525D01*
Y0219625D01*
X2002950D01*
Y0219725D01*
X2003050D01*
Y0219825D01*
Y0219925D01*
X2003150D01*
Y0220025D01*
X2003250D01*
Y0220125D01*
Y0220225D01*
X2003350D01*
Y0220325D01*
X2003450D01*
Y0220425D01*
Y0220525D01*
X2003550D01*
Y0220625D01*
X2003650D01*
Y0220725D01*
Y0220825D01*
X2003750D01*
Y0220925D01*
X2003850D01*
Y0221025D01*
Y0221125D01*
Y0221225D01*
Y0221325D01*
Y0221425D01*
X2003750D01*
Y0221525D01*
X2003550D01*
Y0221625D01*
X2003250D01*
Y0221725D01*
Y0221825D01*
Y0221925D01*
X2006050D01*
Y0221825D01*
Y0221725D01*
Y0221625D01*
X2005950D01*
Y0221525D01*
X2005650D01*
Y0221425D01*
X2005450D01*
Y0221325D01*
X2005350D01*
Y0221225D01*
X2005250D01*
Y0221125D01*
X2005150D01*
Y0221025D01*
X2005050D01*
Y0220925D01*
X2004950D01*
Y0220825D01*
X2004850D01*
Y0220725D01*
X2004750D01*
Y0220625D01*
Y0220525D01*
X2004650D01*
Y0220425D01*
X2004550D01*
Y0220325D01*
Y0220225D01*
X2004450D01*
Y0220125D01*
X2004350D01*
Y0220025D01*
X2004250D01*
Y0219925D01*
Y0219825D01*
X2004150D01*
Y0219725D01*
X2004050D01*
Y0219625D01*
Y0219525D01*
X2003950D01*
Y0219425D01*
X2003850D01*
Y0219325D01*
Y0219225D01*
X2003750D01*
Y0219125D01*
X2003650D01*
Y0219025D01*
X2003550D01*
Y0218925D01*
Y0218825D01*
X2003450D01*
Y0218725D01*
X2003350D01*
Y0218625D01*
Y0218525D01*
X2003250D01*
Y0218425D01*
X2003150D01*
Y0218325D01*
X2003050D01*
Y0218225D01*
X2003150D01*
Y0218125D01*
Y0218025D01*
X2003250D01*
Y0217925D01*
X2003350D01*
Y0217825D01*
Y0217725D01*
X2003450D01*
Y0217625D01*
X2003550D01*
Y0217525D01*
X2003650D01*
Y0217425D01*
Y0217325D01*
X2003750D01*
Y0217225D01*
X2003850D01*
Y0217125D01*
Y0217025D01*
X2003950D01*
Y0216925D01*
X2004050D01*
Y0216825D01*
X2004150D01*
Y0216725D01*
Y0216625D01*
X2004250D01*
Y0216525D01*
X2004350D01*
Y0216425D01*
Y0216325D01*
X2004450D01*
Y0216225D01*
X2004550D01*
Y0216125D01*
Y0216025D01*
X2004650D01*
Y0215925D01*
X2004750D01*
Y0215825D01*
X2004850D01*
Y0215725D01*
Y0215625D01*
X2004950D01*
Y0215525D01*
X2005050D01*
Y0215425D01*
Y0215325D01*
X2005150D01*
Y0215225D01*
X2005250D01*
Y0215125D01*
X2005350D01*
Y0215025D01*
Y0214925D01*
X2005450D01*
Y0214825D01*
X2005550D01*
Y0214725D01*
X2005650D01*
Y0214625D01*
X2005750D01*
Y0214525D01*
X2005950D01*
Y0214625D01*
X2006050D01*
Y0214725D01*
X2006150D01*
Y0214825D01*
Y0214925D01*
X2006250D01*
Y0215025D01*
X2006350D01*
Y0215125D01*
Y0215225D01*
X2006450D01*
Y0215325D01*
Y0215425D01*
X2006550D01*
Y0215525D01*
Y0215625D01*
X2006650D01*
Y0215725D01*
Y0215825D01*
Y0215925D01*
X2006750D01*
Y0216025D01*
Y0216125D01*
Y0216225D01*
X2006850D01*
Y0216325D01*
Y0216425D01*
X2006950D01*
Y0216525D01*
Y0216625D01*
Y0216725D01*
X2007050D01*
Y0216825D01*
Y0216925D01*
X2007150D01*
Y0217025D01*
Y0217125D01*
Y0217225D01*
X2007250D01*
Y0217325D01*
Y0217425D01*
X2007350D01*
Y0217525D01*
Y0217625D01*
Y0217725D01*
X2007450D01*
Y0217825D01*
Y0217925D01*
X2007550D01*
Y0218025D01*
Y0218125D01*
Y0218225D01*
X2007650D01*
Y0218325D01*
Y0218425D01*
Y0218525D01*
X2007750D01*
Y0218625D01*
Y0218725D01*
X2007850D01*
Y0218825D01*
Y0218925D01*
Y0219025D01*
X2007950D01*
Y0219125D01*
Y0219225D01*
X2008050D01*
Y0219325D01*
Y0219425D01*
Y0219525D01*
X2008150D01*
Y0219625D01*
Y0219725D01*
X2008250D01*
Y0219825D01*
Y0219925D01*
Y0220025D01*
X2008350D01*
Y0220125D01*
Y0220225D01*
X2008450D01*
Y0220325D01*
Y0220425D01*
Y0220525D01*
X2008550D01*
Y0220625D01*
Y0220725D01*
X2008650D01*
Y0220825D01*
Y0220925D01*
Y0221025D01*
X2008750D01*
Y0221125D01*
Y0221225D01*
Y0221325D01*
X2008850D01*
Y0221425D01*
Y0221525D01*
X2008950D01*
Y0221625D01*
Y0221725D01*
Y0221825D01*
X2009050D01*
Y0221925D01*
X2010850D01*
Y0221825D01*
D02*
G37*
G36*
X1972450Y0224225D02*
Y0224125D01*
X1972350D01*
Y0224025D01*
Y0223925D01*
Y0223825D01*
Y0223725D01*
Y0223625D01*
X1972250D01*
Y0223525D01*
Y0223425D01*
Y0223325D01*
Y0223225D01*
Y0223125D01*
X1972150D01*
Y0223025D01*
Y0222925D01*
Y0222825D01*
Y0222725D01*
Y0222625D01*
X1972050D01*
Y0222525D01*
Y0222425D01*
Y0222325D01*
Y0222225D01*
Y0222125D01*
X1971950D01*
Y0222025D01*
Y0221925D01*
Y0221825D01*
Y0221725D01*
Y0221625D01*
X1971850D01*
Y0221525D01*
Y0221425D01*
Y0221325D01*
Y0221225D01*
Y0221125D01*
X1971750D01*
Y0221025D01*
Y0220925D01*
Y0220825D01*
Y0220725D01*
Y0220625D01*
X1971650D01*
Y0220525D01*
Y0220425D01*
Y0220325D01*
Y0220225D01*
Y0220125D01*
X1971550D01*
Y0220025D01*
Y0219925D01*
Y0219825D01*
Y0219725D01*
Y0219625D01*
X1971450D01*
Y0219525D01*
Y0219425D01*
Y0219325D01*
Y0219225D01*
Y0219125D01*
X1971350D01*
Y0219025D01*
Y0218925D01*
Y0218825D01*
Y0218725D01*
Y0218625D01*
X1971250D01*
Y0218525D01*
Y0218425D01*
Y0218325D01*
Y0218225D01*
Y0218125D01*
X1971150D01*
Y0218025D01*
Y0217925D01*
Y0217825D01*
Y0217725D01*
Y0217625D01*
X1971050D01*
Y0217525D01*
Y0217425D01*
Y0217325D01*
Y0217225D01*
Y0217125D01*
X1970950D01*
Y0217025D01*
Y0216925D01*
Y0216825D01*
Y0216725D01*
Y0216625D01*
X1970850D01*
Y0216525D01*
Y0216425D01*
Y0216325D01*
Y0216225D01*
Y0216125D01*
X1970750D01*
Y0216025D01*
Y0215925D01*
Y0215825D01*
Y0215725D01*
Y0215625D01*
X1970650D01*
Y0215525D01*
Y0215425D01*
Y0215325D01*
Y0215225D01*
Y0215125D01*
X1970550D01*
Y0215025D01*
Y0214925D01*
Y0214825D01*
Y0214725D01*
Y0214625D01*
X1970450D01*
Y0214525D01*
Y0214425D01*
Y0214325D01*
Y0214225D01*
Y0214125D01*
X1968050D01*
Y0214225D01*
Y0214325D01*
Y0214425D01*
X1968150D01*
Y0214525D01*
Y0214625D01*
Y0214725D01*
Y0214825D01*
Y0214925D01*
X1968250D01*
Y0215025D01*
Y0215125D01*
Y0215225D01*
Y0215325D01*
Y0215425D01*
X1968350D01*
Y0215525D01*
Y0215625D01*
Y0215725D01*
Y0215825D01*
Y0215925D01*
X1968450D01*
Y0216025D01*
Y0216125D01*
Y0216225D01*
Y0216325D01*
Y0216425D01*
X1968550D01*
Y0216525D01*
Y0216625D01*
Y0216725D01*
Y0216825D01*
Y0216925D01*
X1968650D01*
Y0217025D01*
Y0217125D01*
Y0217225D01*
Y0217325D01*
Y0217425D01*
X1968750D01*
Y0217525D01*
Y0217625D01*
Y0217725D01*
Y0217825D01*
Y0217925D01*
X1968850D01*
Y0218025D01*
Y0218125D01*
Y0218225D01*
Y0218325D01*
Y0218425D01*
X1968950D01*
Y0218525D01*
Y0218625D01*
Y0218725D01*
Y0218825D01*
Y0218925D01*
X1969050D01*
Y0219025D01*
Y0219125D01*
Y0219225D01*
Y0219325D01*
Y0219425D01*
X1969150D01*
Y0219525D01*
Y0219625D01*
Y0219725D01*
Y0219825D01*
Y0219925D01*
X1969250D01*
Y0220025D01*
Y0220125D01*
Y0220225D01*
Y0220325D01*
Y0220425D01*
X1969350D01*
Y0220525D01*
Y0220625D01*
Y0220725D01*
Y0220825D01*
Y0220925D01*
X1969450D01*
Y0221025D01*
Y0221125D01*
Y0221225D01*
Y0221325D01*
Y0221425D01*
X1969550D01*
Y0221525D01*
Y0221625D01*
Y0221725D01*
Y0221825D01*
Y0221925D01*
X1969650D01*
Y0222025D01*
Y0222125D01*
Y0222225D01*
Y0222325D01*
Y0222425D01*
X1969750D01*
Y0222525D01*
Y0222625D01*
Y0222725D01*
Y0222825D01*
Y0222925D01*
X1969850D01*
Y0223025D01*
Y0223125D01*
Y0223225D01*
Y0223325D01*
Y0223425D01*
X1969950D01*
Y0223525D01*
Y0223625D01*
Y0223725D01*
Y0223825D01*
Y0223925D01*
X1970050D01*
Y0224025D01*
Y0224125D01*
Y0224225D01*
Y0224325D01*
X1972450D01*
Y0224225D01*
D02*
G37*
G36*
X2046250Y0209825D02*
Y0209725D01*
X2046350D01*
Y0209625D01*
Y0209525D01*
X2046450D01*
Y0209425D01*
Y0209325D01*
Y0209225D01*
X2046550D01*
Y0209125D01*
Y0209025D01*
Y0208925D01*
X2046650D01*
Y0208825D01*
Y0208725D01*
X2046750D01*
Y0208625D01*
Y0208525D01*
Y0208425D01*
X2046850D01*
Y0208325D01*
Y0208225D01*
Y0208125D01*
X2046750D01*
Y0208025D01*
X2046650D01*
Y0208125D01*
X2046550D01*
Y0208225D01*
X2046450D01*
Y0208325D01*
X2046250D01*
Y0208425D01*
X2046150D01*
Y0208525D01*
X2046050D01*
Y0208625D01*
X2045950D01*
Y0208725D01*
X2045750D01*
Y0208825D01*
X2045450D01*
Y0208925D01*
X2045050D01*
Y0209025D01*
X2042950D01*
Y0208925D01*
X2042650D01*
Y0208825D01*
Y0208725D01*
X2042550D01*
Y0208625D01*
Y0208525D01*
Y0208425D01*
Y0208325D01*
Y0208225D01*
Y0208125D01*
Y0208025D01*
Y0207925D01*
Y0207825D01*
Y0207725D01*
Y0207625D01*
Y0207525D01*
Y0207425D01*
Y0207325D01*
Y0207225D01*
Y0207125D01*
Y0207025D01*
Y0206925D01*
Y0206825D01*
Y0206725D01*
Y0206625D01*
X2044950D01*
Y0206725D01*
X2045250D01*
Y0206825D01*
X2045350D01*
Y0206925D01*
X2045450D01*
Y0207025D01*
Y0207125D01*
X2045550D01*
Y0207225D01*
Y0207325D01*
X2045850D01*
Y0207225D01*
Y0207125D01*
Y0207025D01*
Y0206925D01*
Y0206825D01*
Y0206725D01*
Y0206625D01*
Y0206525D01*
Y0206425D01*
Y0206325D01*
Y0206225D01*
Y0206125D01*
Y0206025D01*
Y0205925D01*
Y0205825D01*
Y0205725D01*
Y0205625D01*
Y0205525D01*
Y0205425D01*
Y0205325D01*
Y0205225D01*
Y0205125D01*
X2045550D01*
Y0205225D01*
Y0205325D01*
X2045450D01*
Y0205425D01*
Y0205525D01*
X2045350D01*
Y0205625D01*
X2045050D01*
Y0205725D01*
X2042550D01*
Y0205625D01*
Y0205525D01*
Y0205425D01*
Y0205325D01*
Y0205225D01*
Y0205125D01*
Y0205025D01*
Y0204925D01*
Y0204825D01*
Y0204725D01*
Y0204625D01*
Y0204525D01*
Y0204425D01*
Y0204325D01*
Y0204225D01*
Y0204125D01*
Y0204025D01*
Y0203925D01*
Y0203825D01*
Y0203725D01*
Y0203625D01*
Y0203525D01*
Y0203425D01*
Y0203325D01*
Y0203225D01*
X2042650D01*
Y0203125D01*
Y0203025D01*
X2045550D01*
Y0203125D01*
X2045950D01*
Y0203225D01*
X2046150D01*
Y0203325D01*
X2046350D01*
Y0203425D01*
X2046450D01*
Y0203525D01*
X2046550D01*
Y0203625D01*
X2046650D01*
Y0203725D01*
X2046750D01*
Y0203825D01*
X2046850D01*
Y0203925D01*
X2046950D01*
Y0204025D01*
X2047150D01*
Y0203925D01*
X2047250D01*
Y0203825D01*
Y0203725D01*
X2047150D01*
Y0203625D01*
Y0203525D01*
X2047050D01*
Y0203425D01*
Y0203325D01*
Y0203225D01*
X2046950D01*
Y0203125D01*
Y0203025D01*
X2046850D01*
Y0202925D01*
Y0202825D01*
Y0202725D01*
X2046750D01*
Y0202625D01*
Y0202525D01*
X2046650D01*
Y0202425D01*
Y0202325D01*
Y0202225D01*
X2046550D01*
Y0202125D01*
Y0202025D01*
X2040050D01*
Y0202125D01*
Y0202225D01*
Y0202325D01*
X2040250D01*
Y0202425D01*
X2040450D01*
Y0202525D01*
X2040650D01*
Y0202625D01*
X2040750D01*
Y0202725D01*
Y0202825D01*
Y0202925D01*
X2040850D01*
Y0203025D01*
Y0203125D01*
Y0203225D01*
Y0203325D01*
Y0203425D01*
Y0203525D01*
Y0203625D01*
Y0203725D01*
Y0203825D01*
Y0203925D01*
Y0204025D01*
Y0204125D01*
Y0204225D01*
Y0204325D01*
Y0204425D01*
Y0204525D01*
Y0204625D01*
Y0204725D01*
Y0204825D01*
Y0204925D01*
Y0205025D01*
Y0205125D01*
Y0205225D01*
Y0205325D01*
Y0205425D01*
Y0205525D01*
Y0205625D01*
Y0205725D01*
Y0205825D01*
Y0205925D01*
Y0206025D01*
Y0206125D01*
Y0206225D01*
Y0206325D01*
Y0206425D01*
Y0206525D01*
Y0206625D01*
Y0206725D01*
Y0206825D01*
Y0206925D01*
Y0207025D01*
Y0207125D01*
Y0207225D01*
Y0207325D01*
Y0207425D01*
Y0207525D01*
Y0207625D01*
Y0207725D01*
Y0207825D01*
Y0207925D01*
Y0208025D01*
Y0208125D01*
Y0208225D01*
Y0208325D01*
Y0208425D01*
Y0208525D01*
Y0208625D01*
Y0208725D01*
Y0208825D01*
Y0208925D01*
Y0209025D01*
Y0209125D01*
X2040750D01*
Y0209225D01*
Y0209325D01*
X2040650D01*
Y0209425D01*
X2040550D01*
Y0209525D01*
X2040350D01*
Y0209625D01*
X2040050D01*
Y0209725D01*
Y0209825D01*
Y0209925D01*
X2046250D01*
Y0209825D01*
D02*
G37*
G36*
X2067150Y0209925D02*
X2067550D01*
Y0209825D01*
X2067750D01*
Y0209725D01*
X2067950D01*
Y0209625D01*
X2068250D01*
Y0209725D01*
Y0209825D01*
X2068350D01*
Y0209925D01*
X2068750D01*
Y0209825D01*
Y0209725D01*
Y0209625D01*
X2068850D01*
Y0209525D01*
Y0209425D01*
Y0209325D01*
Y0209225D01*
X2068950D01*
Y0209125D01*
Y0209025D01*
Y0208925D01*
X2069050D01*
Y0208825D01*
Y0208725D01*
Y0208625D01*
Y0208525D01*
X2069150D01*
Y0208425D01*
Y0208325D01*
Y0208225D01*
X2069250D01*
Y0208125D01*
Y0208025D01*
Y0207925D01*
Y0207825D01*
X2068950D01*
Y0207925D01*
X2068850D01*
Y0208025D01*
X2068750D01*
Y0208125D01*
X2068650D01*
Y0208225D01*
X2068550D01*
Y0208325D01*
X2068350D01*
Y0208425D01*
X2068250D01*
Y0208525D01*
X2068050D01*
Y0208625D01*
X2067950D01*
Y0208725D01*
X2067650D01*
Y0208825D01*
X2067450D01*
Y0208925D01*
X2067050D01*
Y0209025D01*
X2065750D01*
Y0208925D01*
X2065450D01*
Y0208825D01*
X2065250D01*
Y0208725D01*
X2065150D01*
Y0208625D01*
X2065050D01*
Y0208525D01*
Y0208425D01*
X2064950D01*
Y0208325D01*
Y0208225D01*
Y0208125D01*
Y0208025D01*
Y0207925D01*
Y0207825D01*
Y0207725D01*
X2065050D01*
Y0207625D01*
X2065150D01*
Y0207525D01*
X2065250D01*
Y0207425D01*
X2065350D01*
Y0207325D01*
X2065650D01*
Y0207225D01*
X2065950D01*
Y0207125D01*
X2066450D01*
Y0207025D01*
X2066850D01*
Y0206925D01*
X2067350D01*
Y0206825D01*
X2067750D01*
Y0206725D01*
X2068050D01*
Y0206625D01*
X2068350D01*
Y0206525D01*
X2068550D01*
Y0206425D01*
X2068750D01*
Y0206325D01*
X2068950D01*
Y0206225D01*
X2069050D01*
Y0206125D01*
X2069150D01*
Y0206025D01*
X2069250D01*
Y0205925D01*
X2069350D01*
Y0205825D01*
X2069450D01*
Y0205725D01*
X2069550D01*
Y0205625D01*
Y0205525D01*
X2069650D01*
Y0205425D01*
Y0205325D01*
X2069750D01*
Y0205225D01*
Y0205125D01*
Y0205025D01*
Y0204925D01*
Y0204825D01*
Y0204725D01*
Y0204625D01*
X2069850D01*
Y0204525D01*
Y0204425D01*
Y0204325D01*
Y0204225D01*
X2069750D01*
Y0204125D01*
Y0204025D01*
Y0203925D01*
Y0203825D01*
Y0203725D01*
Y0203625D01*
X2069650D01*
Y0203525D01*
Y0203425D01*
X2069550D01*
Y0203325D01*
Y0203225D01*
X2069450D01*
Y0203125D01*
Y0203025D01*
X2069350D01*
Y0202925D01*
X2069250D01*
Y0202825D01*
X2069150D01*
Y0202725D01*
X2069050D01*
Y0202625D01*
X2068950D01*
Y0202525D01*
X2068750D01*
Y0202425D01*
X2068650D01*
Y0202325D01*
X2068450D01*
Y0202225D01*
X2068150D01*
Y0202125D01*
X2067850D01*
Y0202025D01*
X2067350D01*
Y0201925D01*
X2065950D01*
Y0202025D01*
X2065450D01*
Y0202125D01*
X2065150D01*
Y0202225D01*
X2064950D01*
Y0202325D01*
X2064750D01*
Y0202425D01*
X2064450D01*
Y0202325D01*
X2064350D01*
Y0202225D01*
Y0202125D01*
Y0202025D01*
X2063950D01*
Y0202125D01*
X2063850D01*
Y0202225D01*
Y0202325D01*
Y0202425D01*
Y0202525D01*
X2063750D01*
Y0202625D01*
Y0202725D01*
Y0202825D01*
Y0202925D01*
X2063650D01*
Y0203025D01*
Y0203125D01*
Y0203225D01*
X2063550D01*
Y0203325D01*
Y0203425D01*
Y0203525D01*
Y0203625D01*
X2063450D01*
Y0203725D01*
Y0203825D01*
Y0203925D01*
Y0204025D01*
X2063350D01*
Y0204125D01*
Y0204225D01*
Y0204325D01*
Y0204425D01*
Y0204525D01*
X2063550D01*
Y0204425D01*
X2063650D01*
Y0204325D01*
X2063750D01*
Y0204225D01*
X2063850D01*
Y0204125D01*
X2063950D01*
Y0204025D01*
X2064050D01*
Y0203925D01*
X2064150D01*
Y0203825D01*
X2064350D01*
Y0203725D01*
X2064450D01*
Y0203625D01*
X2064550D01*
Y0203525D01*
X2064750D01*
Y0203425D01*
X2064850D01*
Y0203325D01*
X2065050D01*
Y0203225D01*
X2065350D01*
Y0203125D01*
X2065650D01*
Y0203025D01*
X2066050D01*
Y0202925D01*
X2067150D01*
Y0203025D01*
X2067450D01*
Y0203125D01*
X2067750D01*
Y0203225D01*
X2067850D01*
Y0203325D01*
X2067950D01*
Y0203425D01*
X2068050D01*
Y0203525D01*
X2068150D01*
Y0203625D01*
Y0203725D01*
X2068250D01*
Y0203825D01*
Y0203925D01*
Y0204025D01*
Y0204125D01*
Y0204225D01*
Y0204325D01*
Y0204425D01*
Y0204525D01*
X2068150D01*
Y0204625D01*
X2068050D01*
Y0204725D01*
Y0204825D01*
X2067850D01*
Y0204925D01*
X2067750D01*
Y0205025D01*
X2067450D01*
Y0205125D01*
X2067150D01*
Y0205225D01*
X2066750D01*
Y0205325D01*
X2066250D01*
Y0205425D01*
X2065850D01*
Y0205525D01*
X2065450D01*
Y0205625D01*
X2065050D01*
Y0205725D01*
X2064850D01*
Y0205825D01*
X2064650D01*
Y0205925D01*
X2064450D01*
Y0206025D01*
X2064350D01*
Y0206125D01*
X2064150D01*
Y0206225D01*
X2064050D01*
Y0206325D01*
X2063950D01*
Y0206425D01*
X2063850D01*
Y0206525D01*
Y0206625D01*
X2063750D01*
Y0206725D01*
X2063650D01*
Y0206825D01*
Y0206925D01*
Y0207025D01*
X2063550D01*
Y0207125D01*
Y0207225D01*
Y0207325D01*
Y0207425D01*
Y0207525D01*
Y0207625D01*
Y0207725D01*
Y0207825D01*
Y0207925D01*
Y0208025D01*
Y0208125D01*
Y0208225D01*
Y0208325D01*
Y0208425D01*
X2063650D01*
Y0208525D01*
Y0208625D01*
Y0208725D01*
X2063750D01*
Y0208825D01*
Y0208925D01*
X2063850D01*
Y0209025D01*
X2063950D01*
Y0209125D01*
X2064050D01*
Y0209225D01*
Y0209325D01*
X2064150D01*
Y0209425D01*
X2064350D01*
Y0209525D01*
X2064450D01*
Y0209625D01*
X2064650D01*
Y0209725D01*
X2064850D01*
Y0209825D01*
X2065050D01*
Y0209925D01*
X2065450D01*
Y0210025D01*
X2067150D01*
Y0209925D01*
D02*
G37*
G36*
X2062450Y0209825D02*
X2062550D01*
Y0209725D01*
Y0209625D01*
Y0209525D01*
X2062650D01*
Y0209425D01*
Y0209325D01*
Y0209225D01*
X2062750D01*
Y0209125D01*
Y0209025D01*
Y0208925D01*
X2062850D01*
Y0208825D01*
Y0208725D01*
Y0208625D01*
Y0208525D01*
X2062950D01*
Y0208425D01*
Y0208325D01*
Y0208225D01*
X2063050D01*
Y0208125D01*
Y0208025D01*
Y0207925D01*
Y0207825D01*
X2062750D01*
Y0207925D01*
Y0208025D01*
X2062650D01*
Y0208125D01*
X2062550D01*
Y0208225D01*
X2062450D01*
Y0208325D01*
X2062350D01*
Y0208425D01*
X2062250D01*
Y0208525D01*
X2062150D01*
Y0208625D01*
X2062050D01*
Y0208725D01*
X2061950D01*
Y0208825D01*
X2061650D01*
Y0208925D01*
X2061250D01*
Y0209025D01*
X2060350D01*
Y0208925D01*
X2060250D01*
Y0208825D01*
X2060150D01*
Y0208725D01*
Y0208625D01*
Y0208525D01*
Y0208425D01*
Y0208325D01*
Y0208225D01*
Y0208125D01*
Y0208025D01*
Y0207925D01*
Y0207825D01*
Y0207725D01*
Y0207625D01*
Y0207525D01*
Y0207425D01*
Y0207325D01*
Y0207225D01*
Y0207125D01*
Y0207025D01*
Y0206925D01*
Y0206825D01*
Y0206725D01*
Y0206625D01*
Y0206525D01*
Y0206425D01*
Y0206325D01*
Y0206225D01*
Y0206125D01*
Y0206025D01*
Y0205925D01*
Y0205825D01*
Y0205725D01*
Y0205625D01*
Y0205525D01*
Y0205425D01*
Y0205325D01*
Y0205225D01*
Y0205125D01*
Y0205025D01*
Y0204925D01*
Y0204825D01*
Y0204725D01*
Y0204625D01*
Y0204525D01*
Y0204425D01*
Y0204325D01*
Y0204225D01*
Y0204125D01*
Y0204025D01*
Y0203925D01*
Y0203825D01*
Y0203725D01*
Y0203625D01*
Y0203525D01*
Y0203425D01*
Y0203325D01*
Y0203225D01*
Y0203125D01*
Y0203025D01*
Y0202925D01*
Y0202825D01*
X2060250D01*
Y0202725D01*
Y0202625D01*
X2060350D01*
Y0202525D01*
X2060550D01*
Y0202425D01*
X2060850D01*
Y0202325D01*
X2060950D01*
Y0202225D01*
Y0202125D01*
Y0202025D01*
X2057650D01*
Y0202125D01*
Y0202225D01*
Y0202325D01*
X2057750D01*
Y0202425D01*
X2058050D01*
Y0202525D01*
X2058250D01*
Y0202625D01*
X2058350D01*
Y0202725D01*
Y0202825D01*
X2058450D01*
Y0202925D01*
Y0203025D01*
Y0203125D01*
Y0203225D01*
Y0203325D01*
Y0203425D01*
Y0203525D01*
Y0203625D01*
Y0203725D01*
Y0203825D01*
Y0203925D01*
Y0204025D01*
Y0204125D01*
Y0204225D01*
Y0204325D01*
Y0204425D01*
Y0204525D01*
Y0204625D01*
Y0204725D01*
Y0204825D01*
Y0204925D01*
Y0205025D01*
Y0205125D01*
Y0205225D01*
Y0205325D01*
Y0205425D01*
Y0205525D01*
Y0205625D01*
Y0205725D01*
Y0205825D01*
Y0205925D01*
Y0206025D01*
Y0206125D01*
Y0206225D01*
Y0206325D01*
Y0206425D01*
Y0206525D01*
Y0206625D01*
Y0206725D01*
Y0206825D01*
Y0206925D01*
Y0207025D01*
Y0207125D01*
Y0207225D01*
Y0207325D01*
Y0207425D01*
Y0207525D01*
Y0207625D01*
Y0207725D01*
Y0207825D01*
Y0207925D01*
Y0208025D01*
Y0208125D01*
Y0208225D01*
Y0208325D01*
Y0208425D01*
Y0208525D01*
Y0208625D01*
Y0208725D01*
Y0208825D01*
X2058350D01*
Y0208925D01*
X2058250D01*
Y0209025D01*
X2057350D01*
Y0208925D01*
X2056950D01*
Y0208825D01*
X2056750D01*
Y0208725D01*
X2056550D01*
Y0208625D01*
X2056450D01*
Y0208525D01*
X2056350D01*
Y0208425D01*
X2056250D01*
Y0208325D01*
X2056150D01*
Y0208225D01*
Y0208125D01*
X2056050D01*
Y0208025D01*
X2055950D01*
Y0207925D01*
X2055850D01*
Y0207825D01*
X2055650D01*
Y0207925D01*
X2055550D01*
Y0208025D01*
X2055650D01*
Y0208125D01*
Y0208225D01*
Y0208325D01*
X2055750D01*
Y0208425D01*
Y0208525D01*
Y0208625D01*
Y0208725D01*
X2055850D01*
Y0208825D01*
Y0208925D01*
Y0209025D01*
X2055950D01*
Y0209125D01*
Y0209225D01*
Y0209325D01*
X2056050D01*
Y0209425D01*
Y0209525D01*
Y0209625D01*
X2056150D01*
Y0209725D01*
Y0209825D01*
Y0209925D01*
X2062450D01*
Y0209825D01*
D02*
G37*
G36*
X2012050D02*
Y0209725D01*
Y0209625D01*
X2012150D01*
Y0209525D01*
Y0209425D01*
Y0209325D01*
Y0209225D01*
X2012250D01*
Y0209125D01*
Y0209025D01*
Y0208925D01*
X2012350D01*
Y0208825D01*
Y0208725D01*
Y0208625D01*
X2012450D01*
Y0208525D01*
Y0208425D01*
Y0208325D01*
X2012550D01*
Y0208225D01*
Y0208125D01*
Y0208025D01*
Y0207925D01*
Y0207825D01*
X2012350D01*
Y0207925D01*
X2012250D01*
Y0208025D01*
X2012150D01*
Y0208125D01*
X2012050D01*
Y0208225D01*
X2011950D01*
Y0208325D01*
X2011850D01*
Y0208425D01*
X2011750D01*
Y0208525D01*
X2011650D01*
Y0208625D01*
X2011550D01*
Y0208725D01*
X2011450D01*
Y0208825D01*
X2011150D01*
Y0208925D01*
X2010750D01*
Y0209025D01*
X2009850D01*
Y0208925D01*
X2009750D01*
Y0208825D01*
X2009650D01*
Y0208725D01*
Y0208625D01*
Y0208525D01*
Y0208425D01*
Y0208325D01*
Y0208225D01*
Y0208125D01*
Y0208025D01*
Y0207925D01*
Y0207825D01*
Y0207725D01*
Y0207625D01*
Y0207525D01*
Y0207425D01*
Y0207325D01*
Y0207225D01*
Y0207125D01*
Y0207025D01*
Y0206925D01*
Y0206825D01*
Y0206725D01*
Y0206625D01*
Y0206525D01*
Y0206425D01*
Y0206325D01*
Y0206225D01*
Y0206125D01*
Y0206025D01*
Y0205925D01*
Y0205825D01*
Y0205725D01*
Y0205625D01*
Y0205525D01*
Y0205425D01*
Y0205325D01*
Y0205225D01*
Y0205125D01*
Y0205025D01*
Y0204925D01*
Y0204825D01*
Y0204725D01*
Y0204625D01*
Y0204525D01*
Y0204425D01*
Y0204325D01*
Y0204225D01*
Y0204125D01*
Y0204025D01*
Y0203925D01*
Y0203825D01*
Y0203725D01*
Y0203625D01*
Y0203525D01*
Y0203425D01*
Y0203325D01*
Y0203225D01*
Y0203125D01*
Y0203025D01*
Y0202925D01*
X2009750D01*
Y0202825D01*
Y0202725D01*
Y0202625D01*
X2009850D01*
Y0202525D01*
X2010050D01*
Y0202425D01*
X2010350D01*
Y0202325D01*
X2010550D01*
Y0202225D01*
Y0202125D01*
Y0202025D01*
X2007150D01*
Y0202125D01*
Y0202225D01*
Y0202325D01*
X2007250D01*
Y0202425D01*
X2007550D01*
Y0202525D01*
X2007750D01*
Y0202625D01*
X2007850D01*
Y0202725D01*
Y0202825D01*
X2007950D01*
Y0202925D01*
Y0203025D01*
Y0203125D01*
Y0203225D01*
Y0203325D01*
Y0203425D01*
Y0203525D01*
Y0203625D01*
Y0203725D01*
Y0203825D01*
Y0203925D01*
Y0204025D01*
Y0204125D01*
Y0204225D01*
Y0204325D01*
Y0204425D01*
Y0204525D01*
Y0204625D01*
Y0204725D01*
Y0204825D01*
Y0204925D01*
Y0205025D01*
Y0205125D01*
Y0205225D01*
Y0205325D01*
Y0205425D01*
Y0205525D01*
Y0205625D01*
Y0205725D01*
Y0205825D01*
Y0205925D01*
Y0206025D01*
Y0206125D01*
Y0206225D01*
Y0206325D01*
Y0206425D01*
Y0206525D01*
Y0206625D01*
Y0206725D01*
Y0206825D01*
Y0206925D01*
Y0207025D01*
Y0207125D01*
Y0207225D01*
Y0207325D01*
Y0207425D01*
Y0207525D01*
Y0207625D01*
Y0207725D01*
Y0207825D01*
Y0207925D01*
Y0208025D01*
Y0208125D01*
Y0208225D01*
Y0208325D01*
Y0208425D01*
Y0208525D01*
Y0208625D01*
Y0208725D01*
Y0208825D01*
Y0208925D01*
X2007750D01*
Y0209025D01*
X2006850D01*
Y0208925D01*
X2006450D01*
Y0208825D01*
X2006250D01*
Y0208725D01*
X2006150D01*
Y0208625D01*
X2005950D01*
Y0208525D01*
X2005850D01*
Y0208425D01*
X2005750D01*
Y0208325D01*
Y0208225D01*
X2005650D01*
Y0208125D01*
X2005550D01*
Y0208025D01*
X2005450D01*
Y0207925D01*
X2005350D01*
Y0207825D01*
X2005150D01*
Y0207925D01*
X2005050D01*
Y0208025D01*
X2005150D01*
Y0208125D01*
Y0208225D01*
Y0208325D01*
X2005250D01*
Y0208425D01*
Y0208525D01*
Y0208625D01*
X2005350D01*
Y0208725D01*
Y0208825D01*
Y0208925D01*
X2005450D01*
Y0209025D01*
Y0209125D01*
Y0209225D01*
Y0209325D01*
X2005550D01*
Y0209425D01*
Y0209525D01*
Y0209625D01*
X2005650D01*
Y0209725D01*
Y0209825D01*
Y0209925D01*
X2012050D01*
Y0209825D01*
D02*
G37*
G36*
X2002650Y0209925D02*
X2002950D01*
Y0209825D01*
X2003150D01*
Y0209725D01*
X2003350D01*
Y0209625D01*
X2003650D01*
Y0209725D01*
X2003750D01*
Y0209825D01*
Y0209925D01*
X2004150D01*
Y0209825D01*
Y0209725D01*
X2004250D01*
Y0209625D01*
Y0209525D01*
Y0209425D01*
X2004350D01*
Y0209325D01*
Y0209225D01*
Y0209125D01*
X2004450D01*
Y0209025D01*
Y0208925D01*
Y0208825D01*
Y0208725D01*
X2004550D01*
Y0208625D01*
Y0208525D01*
Y0208425D01*
X2004650D01*
Y0208325D01*
Y0208225D01*
Y0208125D01*
Y0208025D01*
X2004750D01*
Y0207925D01*
X2004650D01*
Y0207825D01*
X2004450D01*
Y0207925D01*
X2004350D01*
Y0208025D01*
X2004250D01*
Y0208125D01*
X2004050D01*
Y0208225D01*
X2003950D01*
Y0208325D01*
X2003850D01*
Y0208425D01*
X2003750D01*
Y0208525D01*
X2003550D01*
Y0208625D01*
X2003350D01*
Y0208725D01*
X2003150D01*
Y0208825D01*
X2002850D01*
Y0208925D01*
X2002550D01*
Y0209025D01*
X2001250D01*
Y0208925D01*
X2000950D01*
Y0208825D01*
X2000750D01*
Y0208725D01*
X2000650D01*
Y0208625D01*
X2000550D01*
Y0208525D01*
X2000450D01*
Y0208425D01*
Y0208325D01*
Y0208225D01*
X2000350D01*
Y0208125D01*
Y0208025D01*
Y0207925D01*
X2000450D01*
Y0207825D01*
Y0207725D01*
Y0207625D01*
X2000550D01*
Y0207525D01*
X2000650D01*
Y0207425D01*
X2000850D01*
Y0207325D01*
X2001050D01*
Y0207225D01*
X2001450D01*
Y0207125D01*
X2001850D01*
Y0207025D01*
X2002350D01*
Y0206925D01*
X2002750D01*
Y0206825D01*
X2003150D01*
Y0206725D01*
X2003550D01*
Y0206625D01*
X2003850D01*
Y0206525D01*
X2004050D01*
Y0206425D01*
X2004250D01*
Y0206325D01*
X2004350D01*
Y0206225D01*
X2004550D01*
Y0206125D01*
X2004650D01*
Y0206025D01*
X2004750D01*
Y0205925D01*
X2004850D01*
Y0205825D01*
X2004950D01*
Y0205725D01*
Y0205625D01*
X2005050D01*
Y0205525D01*
Y0205425D01*
X2005150D01*
Y0205325D01*
Y0205225D01*
Y0205125D01*
X2005250D01*
Y0205025D01*
Y0204925D01*
Y0204825D01*
Y0204725D01*
Y0204625D01*
Y0204525D01*
Y0204425D01*
Y0204325D01*
Y0204225D01*
Y0204125D01*
Y0204025D01*
Y0203925D01*
Y0203825D01*
X2005150D01*
Y0203725D01*
Y0203625D01*
Y0203525D01*
X2005050D01*
Y0203425D01*
Y0203325D01*
X2004950D01*
Y0203225D01*
Y0203125D01*
X2004850D01*
Y0203025D01*
X2004750D01*
Y0202925D01*
Y0202825D01*
X2004650D01*
Y0202725D01*
X2004550D01*
Y0202625D01*
X2004350D01*
Y0202525D01*
X2004250D01*
Y0202425D01*
X2004050D01*
Y0202325D01*
X2003850D01*
Y0202225D01*
X2003650D01*
Y0202125D01*
X2003350D01*
Y0202025D01*
X2002850D01*
Y0201925D01*
X2001450D01*
Y0202025D01*
X2000950D01*
Y0202125D01*
X2000650D01*
Y0202225D01*
X2000350D01*
Y0202325D01*
X2000150D01*
Y0202425D01*
X1999950D01*
Y0202325D01*
X1999850D01*
Y0202225D01*
Y0202125D01*
X1999750D01*
Y0202025D01*
X1999350D01*
Y0202125D01*
Y0202225D01*
Y0202325D01*
X1999250D01*
Y0202425D01*
Y0202525D01*
Y0202625D01*
Y0202725D01*
X1999150D01*
Y0202825D01*
Y0202925D01*
Y0203025D01*
Y0203125D01*
X1999050D01*
Y0203225D01*
Y0203325D01*
Y0203425D01*
X1998950D01*
Y0203525D01*
Y0203625D01*
Y0203725D01*
Y0203825D01*
X1998850D01*
Y0203925D01*
Y0204025D01*
Y0204125D01*
Y0204225D01*
X1998750D01*
Y0204325D01*
Y0204425D01*
X1998850D01*
Y0204525D01*
X1999050D01*
Y0204425D01*
X1999150D01*
Y0204325D01*
X1999250D01*
Y0204225D01*
X1999350D01*
Y0204125D01*
X1999450D01*
Y0204025D01*
X1999550D01*
Y0203925D01*
X1999650D01*
Y0203825D01*
X1999750D01*
Y0203725D01*
X1999850D01*
Y0203625D01*
X2000050D01*
Y0203525D01*
X2000150D01*
Y0203425D01*
X2000350D01*
Y0203325D01*
X2000550D01*
Y0203225D01*
X2000750D01*
Y0203125D01*
X2001050D01*
Y0203025D01*
X2001550D01*
Y0202925D01*
X2002550D01*
Y0203025D01*
X2002950D01*
Y0203125D01*
X2003150D01*
Y0203225D01*
X2003350D01*
Y0203325D01*
X2003450D01*
Y0203425D01*
X2003550D01*
Y0203525D01*
Y0203625D01*
X2003650D01*
Y0203725D01*
Y0203825D01*
Y0203925D01*
X2003750D01*
Y0204025D01*
Y0204125D01*
Y0204225D01*
Y0204325D01*
X2003650D01*
Y0204425D01*
Y0204525D01*
Y0204625D01*
X2003550D01*
Y0204725D01*
X2003450D01*
Y0204825D01*
X2003350D01*
Y0204925D01*
X2003150D01*
Y0205025D01*
X2002950D01*
Y0205125D01*
X2002650D01*
Y0205225D01*
X2002150D01*
Y0205325D01*
X2001750D01*
Y0205425D01*
X2001350D01*
Y0205525D01*
X2000850D01*
Y0205625D01*
X2000550D01*
Y0205725D01*
X2000250D01*
Y0205825D01*
X2000050D01*
Y0205925D01*
X1999950D01*
Y0206025D01*
X1999750D01*
Y0206125D01*
X1999650D01*
Y0206225D01*
X1999550D01*
Y0206325D01*
X1999450D01*
Y0206425D01*
X1999350D01*
Y0206525D01*
X1999250D01*
Y0206625D01*
Y0206725D01*
X1999150D01*
Y0206825D01*
Y0206925D01*
X1999050D01*
Y0207025D01*
Y0207125D01*
Y0207225D01*
X1998950D01*
Y0207325D01*
Y0207425D01*
Y0207525D01*
Y0207625D01*
Y0207725D01*
Y0207825D01*
Y0207925D01*
Y0208025D01*
Y0208125D01*
Y0208225D01*
X1999050D01*
Y0208325D01*
Y0208425D01*
Y0208525D01*
Y0208625D01*
X1999150D01*
Y0208725D01*
Y0208825D01*
X1999250D01*
Y0208925D01*
X1999350D01*
Y0209025D01*
Y0209125D01*
X1999450D01*
Y0209225D01*
X1999550D01*
Y0209325D01*
X1999650D01*
Y0209425D01*
X1999750D01*
Y0209525D01*
X1999950D01*
Y0209625D01*
X2000050D01*
Y0209725D01*
X2000250D01*
Y0209825D01*
X2000550D01*
Y0209925D01*
X2000850D01*
Y0210025D01*
X2002650D01*
Y0209925D01*
D02*
G37*
G36*
X1998450Y0209825D02*
Y0209725D01*
Y0209625D01*
X1998250D01*
Y0209525D01*
X1998150D01*
Y0209425D01*
X1998050D01*
Y0209325D01*
X1997950D01*
Y0209225D01*
X1997850D01*
Y0209125D01*
Y0209025D01*
Y0208925D01*
Y0208825D01*
X1997750D01*
Y0208725D01*
Y0208625D01*
Y0208525D01*
Y0208425D01*
Y0208325D01*
Y0208225D01*
Y0208125D01*
Y0208025D01*
Y0207925D01*
Y0207825D01*
Y0207725D01*
Y0207625D01*
Y0207525D01*
Y0207425D01*
Y0207325D01*
Y0207225D01*
Y0207125D01*
Y0207025D01*
Y0206925D01*
Y0206825D01*
Y0206725D01*
Y0206625D01*
Y0206525D01*
Y0206425D01*
Y0206325D01*
Y0206225D01*
Y0206125D01*
Y0206025D01*
Y0205925D01*
Y0205825D01*
Y0205725D01*
Y0205625D01*
Y0205525D01*
Y0205425D01*
Y0205325D01*
Y0205225D01*
Y0205125D01*
Y0205025D01*
Y0204925D01*
Y0204825D01*
Y0204725D01*
Y0204625D01*
Y0204525D01*
Y0204425D01*
Y0204325D01*
Y0204225D01*
Y0204125D01*
Y0204025D01*
Y0203925D01*
Y0203825D01*
Y0203725D01*
Y0203625D01*
Y0203525D01*
Y0203425D01*
Y0203325D01*
Y0203225D01*
Y0203125D01*
Y0203025D01*
Y0202925D01*
Y0202825D01*
Y0202725D01*
Y0202625D01*
Y0202525D01*
Y0202425D01*
Y0202325D01*
Y0202225D01*
Y0202125D01*
Y0202025D01*
Y0201925D01*
X1997450D01*
Y0202025D01*
X1997350D01*
Y0202125D01*
Y0202225D01*
X1997250D01*
Y0202325D01*
X1997150D01*
Y0202425D01*
X1997050D01*
Y0202525D01*
X1996950D01*
Y0202625D01*
X1996850D01*
Y0202725D01*
X1996750D01*
Y0202825D01*
X1996650D01*
Y0202925D01*
Y0203025D01*
X1996550D01*
Y0203125D01*
X1996450D01*
Y0203225D01*
X1996350D01*
Y0203325D01*
X1996250D01*
Y0203425D01*
X1996150D01*
Y0203525D01*
X1996050D01*
Y0203625D01*
X1995950D01*
Y0203725D01*
Y0203825D01*
X1995850D01*
Y0203925D01*
X1995750D01*
Y0204025D01*
X1995650D01*
Y0204125D01*
X1995550D01*
Y0204225D01*
X1995450D01*
Y0204325D01*
X1995350D01*
Y0204425D01*
X1995250D01*
Y0204525D01*
Y0204625D01*
X1995150D01*
Y0204725D01*
X1995050D01*
Y0204825D01*
X1994950D01*
Y0204925D01*
X1994850D01*
Y0205025D01*
X1994750D01*
Y0205125D01*
X1994650D01*
Y0205225D01*
X1994550D01*
Y0205325D01*
Y0205425D01*
X1994450D01*
Y0205525D01*
X1994350D01*
Y0205625D01*
X1994250D01*
Y0205725D01*
X1994150D01*
Y0205825D01*
X1994050D01*
Y0205925D01*
X1993950D01*
Y0206025D01*
X1993850D01*
Y0206125D01*
Y0206225D01*
X1993750D01*
Y0206325D01*
X1993650D01*
Y0206425D01*
X1993550D01*
Y0206525D01*
X1993450D01*
Y0206625D01*
X1993350D01*
Y0206725D01*
X1993250D01*
Y0206825D01*
X1993150D01*
Y0206925D01*
Y0207025D01*
X1993050D01*
Y0207125D01*
X1992950D01*
Y0207225D01*
X1992850D01*
Y0207325D01*
X1992750D01*
Y0207425D01*
X1992650D01*
Y0207525D01*
X1992550D01*
Y0207625D01*
X1992450D01*
Y0207725D01*
X1992350D01*
Y0207825D01*
Y0207925D01*
X1992250D01*
Y0207825D01*
Y0207725D01*
Y0207625D01*
Y0207525D01*
Y0207425D01*
Y0207325D01*
Y0207225D01*
Y0207125D01*
Y0207025D01*
Y0206925D01*
Y0206825D01*
Y0206725D01*
Y0206625D01*
Y0206525D01*
Y0206425D01*
Y0206325D01*
Y0206225D01*
Y0206125D01*
Y0206025D01*
Y0205925D01*
Y0205825D01*
Y0205725D01*
Y0205625D01*
Y0205525D01*
Y0205425D01*
Y0205325D01*
Y0205225D01*
Y0205125D01*
Y0205025D01*
Y0204925D01*
Y0204825D01*
Y0204725D01*
Y0204625D01*
Y0204525D01*
Y0204425D01*
Y0204325D01*
Y0204225D01*
Y0204125D01*
Y0204025D01*
Y0203925D01*
Y0203825D01*
Y0203725D01*
Y0203625D01*
Y0203525D01*
Y0203425D01*
Y0203325D01*
Y0203225D01*
Y0203125D01*
Y0203025D01*
X1992350D01*
Y0202925D01*
Y0202825D01*
Y0202725D01*
X1992450D01*
Y0202625D01*
X1992550D01*
Y0202525D01*
X1992750D01*
Y0202425D01*
X1992950D01*
Y0202325D01*
X1993050D01*
Y0202225D01*
Y0202125D01*
Y0202025D01*
X1990450D01*
Y0202125D01*
Y0202225D01*
Y0202325D01*
X1990550D01*
Y0202425D01*
X1990850D01*
Y0202525D01*
X1990950D01*
Y0202625D01*
X1991050D01*
Y0202725D01*
Y0202825D01*
X1991150D01*
Y0202925D01*
Y0203025D01*
Y0203125D01*
Y0203225D01*
Y0203325D01*
Y0203425D01*
Y0203525D01*
Y0203625D01*
Y0203725D01*
Y0203825D01*
Y0203925D01*
Y0204025D01*
Y0204125D01*
Y0204225D01*
Y0204325D01*
Y0204425D01*
Y0204525D01*
Y0204625D01*
Y0204725D01*
Y0204825D01*
Y0204925D01*
Y0205025D01*
Y0205125D01*
Y0205225D01*
Y0205325D01*
Y0205425D01*
Y0205525D01*
Y0205625D01*
Y0205725D01*
Y0205825D01*
Y0205925D01*
Y0206025D01*
Y0206125D01*
Y0206225D01*
Y0206325D01*
Y0206425D01*
Y0206525D01*
Y0206625D01*
Y0206725D01*
Y0206825D01*
Y0206925D01*
Y0207025D01*
Y0207125D01*
Y0207225D01*
Y0207325D01*
Y0207425D01*
Y0207525D01*
Y0207625D01*
Y0207725D01*
Y0207825D01*
Y0207925D01*
Y0208025D01*
Y0208125D01*
Y0208225D01*
Y0208325D01*
Y0208425D01*
Y0208525D01*
Y0208625D01*
Y0208725D01*
Y0208825D01*
Y0208925D01*
Y0209025D01*
Y0209125D01*
X1991050D01*
Y0209225D01*
Y0209325D01*
X1990950D01*
Y0209425D01*
X1990850D01*
Y0209525D01*
X1990650D01*
Y0209625D01*
X1990450D01*
Y0209725D01*
Y0209825D01*
Y0209925D01*
X1992850D01*
Y0209825D01*
X1992950D01*
Y0209725D01*
Y0209625D01*
X1993050D01*
Y0209525D01*
X1993150D01*
Y0209425D01*
X1993250D01*
Y0209325D01*
X1993350D01*
Y0209225D01*
X1993450D01*
Y0209125D01*
X1993550D01*
Y0209025D01*
X1993650D01*
Y0208925D01*
Y0208825D01*
X1993750D01*
Y0208725D01*
X1993850D01*
Y0208625D01*
X1993950D01*
Y0208525D01*
X1994050D01*
Y0208425D01*
X1994150D01*
Y0208325D01*
X1994250D01*
Y0208225D01*
X1994350D01*
Y0208125D01*
X1994450D01*
Y0208025D01*
Y0207925D01*
X1994550D01*
Y0207825D01*
X1994650D01*
Y0207725D01*
X1994750D01*
Y0207625D01*
X1994850D01*
Y0207525D01*
X1994950D01*
Y0207425D01*
X1995050D01*
Y0207325D01*
X1995150D01*
Y0207225D01*
Y0207125D01*
X1995250D01*
Y0207025D01*
X1995350D01*
Y0206925D01*
X1995450D01*
Y0206825D01*
X1995550D01*
Y0206725D01*
X1995650D01*
Y0206625D01*
X1995750D01*
Y0206525D01*
X1995850D01*
Y0206425D01*
Y0206325D01*
X1995950D01*
Y0206225D01*
X1996050D01*
Y0206125D01*
X1996150D01*
Y0206025D01*
X1996250D01*
Y0205925D01*
X1996350D01*
Y0205825D01*
X1996450D01*
Y0205725D01*
X1996550D01*
Y0205625D01*
Y0205525D01*
X1996750D01*
Y0205625D01*
Y0205725D01*
Y0205825D01*
Y0205925D01*
Y0206025D01*
Y0206125D01*
Y0206225D01*
Y0206325D01*
Y0206425D01*
Y0206525D01*
Y0206625D01*
Y0206725D01*
Y0206825D01*
Y0206925D01*
Y0207025D01*
Y0207125D01*
Y0207225D01*
Y0207325D01*
Y0207425D01*
Y0207525D01*
Y0207625D01*
Y0207725D01*
Y0207825D01*
Y0207925D01*
Y0208025D01*
Y0208125D01*
Y0208225D01*
Y0208325D01*
Y0208425D01*
Y0208525D01*
Y0208625D01*
Y0208725D01*
Y0208825D01*
Y0208925D01*
Y0209025D01*
X1996650D01*
Y0209125D01*
Y0209225D01*
Y0209325D01*
X1996550D01*
Y0209425D01*
X1996450D01*
Y0209525D01*
X1996250D01*
Y0209625D01*
X1996050D01*
Y0209725D01*
Y0209825D01*
Y0209925D01*
X1998450D01*
Y0209825D01*
D02*
G37*
G36*
X2055450D02*
Y0209725D01*
Y0209625D01*
X2055250D01*
Y0209525D01*
X2055150D01*
Y0209425D01*
X2055050D01*
Y0209325D01*
X2054950D01*
Y0209225D01*
X2054850D01*
Y0209125D01*
Y0209025D01*
Y0208925D01*
Y0208825D01*
Y0208725D01*
X2054750D01*
Y0208625D01*
Y0208525D01*
Y0208425D01*
Y0208325D01*
Y0208225D01*
Y0208125D01*
Y0208025D01*
Y0207925D01*
Y0207825D01*
Y0207725D01*
Y0207625D01*
Y0207525D01*
Y0207425D01*
Y0207325D01*
Y0207225D01*
Y0207125D01*
Y0207025D01*
Y0206925D01*
Y0206825D01*
Y0206725D01*
Y0206625D01*
Y0206525D01*
Y0206425D01*
Y0206325D01*
Y0206225D01*
Y0206125D01*
Y0206025D01*
Y0205925D01*
Y0205825D01*
Y0205725D01*
Y0205625D01*
Y0205525D01*
Y0205425D01*
Y0205325D01*
Y0205225D01*
Y0205125D01*
Y0205025D01*
Y0204925D01*
Y0204825D01*
Y0204725D01*
Y0204625D01*
Y0204525D01*
Y0204425D01*
Y0204325D01*
Y0204225D01*
Y0204125D01*
Y0204025D01*
Y0203925D01*
Y0203825D01*
Y0203725D01*
Y0203625D01*
Y0203525D01*
Y0203425D01*
Y0203325D01*
Y0203225D01*
Y0203125D01*
Y0203025D01*
Y0202925D01*
Y0202825D01*
Y0202725D01*
Y0202625D01*
Y0202525D01*
Y0202425D01*
Y0202325D01*
Y0202225D01*
Y0202125D01*
Y0202025D01*
Y0201925D01*
X2054450D01*
Y0202025D01*
X2054350D01*
Y0202125D01*
Y0202225D01*
X2054250D01*
Y0202325D01*
X2054150D01*
Y0202425D01*
X2054050D01*
Y0202525D01*
X2053950D01*
Y0202625D01*
X2053850D01*
Y0202725D01*
X2053750D01*
Y0202825D01*
X2053650D01*
Y0202925D01*
Y0203025D01*
X2053550D01*
Y0203125D01*
X2053450D01*
Y0203225D01*
X2053350D01*
Y0203325D01*
X2053250D01*
Y0203425D01*
X2053150D01*
Y0203525D01*
X2053050D01*
Y0203625D01*
X2052950D01*
Y0203725D01*
Y0203825D01*
X2052850D01*
Y0203925D01*
X2052750D01*
Y0204025D01*
X2052650D01*
Y0204125D01*
X2052550D01*
Y0204225D01*
X2052450D01*
Y0204325D01*
X2052350D01*
Y0204425D01*
X2052250D01*
Y0204525D01*
Y0204625D01*
X2052150D01*
Y0204725D01*
X2052050D01*
Y0204825D01*
X2051950D01*
Y0204925D01*
X2051850D01*
Y0205025D01*
X2051750D01*
Y0205125D01*
X2051650D01*
Y0205225D01*
X2051550D01*
Y0205325D01*
Y0205425D01*
X2051450D01*
Y0205525D01*
X2051350D01*
Y0205625D01*
X2051250D01*
Y0205725D01*
X2051150D01*
Y0205825D01*
X2051050D01*
Y0205925D01*
X2050950D01*
Y0206025D01*
X2050850D01*
Y0206125D01*
Y0206225D01*
X2050750D01*
Y0206325D01*
X2050650D01*
Y0206425D01*
X2050550D01*
Y0206525D01*
X2050450D01*
Y0206625D01*
X2050350D01*
Y0206725D01*
X2050250D01*
Y0206825D01*
X2050150D01*
Y0206925D01*
Y0207025D01*
X2050050D01*
Y0207125D01*
X2049950D01*
Y0207225D01*
X2049850D01*
Y0207325D01*
X2049750D01*
Y0207425D01*
X2049650D01*
Y0207525D01*
X2049550D01*
Y0207625D01*
X2049450D01*
Y0207725D01*
Y0207825D01*
X2049350D01*
Y0207925D01*
X2049250D01*
Y0207825D01*
Y0207725D01*
Y0207625D01*
Y0207525D01*
Y0207425D01*
Y0207325D01*
Y0207225D01*
Y0207125D01*
Y0207025D01*
Y0206925D01*
Y0206825D01*
Y0206725D01*
Y0206625D01*
Y0206525D01*
Y0206425D01*
Y0206325D01*
Y0206225D01*
Y0206125D01*
Y0206025D01*
Y0205925D01*
Y0205825D01*
Y0205725D01*
Y0205625D01*
Y0205525D01*
Y0205425D01*
Y0205325D01*
Y0205225D01*
Y0205125D01*
Y0205025D01*
Y0204925D01*
Y0204825D01*
Y0204725D01*
Y0204625D01*
Y0204525D01*
Y0204425D01*
Y0204325D01*
Y0204225D01*
Y0204125D01*
Y0204025D01*
Y0203925D01*
Y0203825D01*
Y0203725D01*
Y0203625D01*
Y0203525D01*
Y0203425D01*
Y0203325D01*
Y0203225D01*
Y0203125D01*
Y0203025D01*
X2049350D01*
Y0202925D01*
Y0202825D01*
Y0202725D01*
X2049450D01*
Y0202625D01*
X2049550D01*
Y0202525D01*
X2049750D01*
Y0202425D01*
X2049950D01*
Y0202325D01*
X2050050D01*
Y0202225D01*
Y0202125D01*
Y0202025D01*
X2047450D01*
Y0202125D01*
Y0202225D01*
Y0202325D01*
X2047550D01*
Y0202425D01*
X2047850D01*
Y0202525D01*
X2047950D01*
Y0202625D01*
X2048050D01*
Y0202725D01*
Y0202825D01*
X2048150D01*
Y0202925D01*
Y0203025D01*
Y0203125D01*
Y0203225D01*
Y0203325D01*
X2048250D01*
Y0203425D01*
Y0203525D01*
Y0203625D01*
Y0203725D01*
Y0203825D01*
Y0203925D01*
Y0204025D01*
Y0204125D01*
Y0204225D01*
Y0204325D01*
Y0204425D01*
Y0204525D01*
Y0204625D01*
Y0204725D01*
Y0204825D01*
Y0204925D01*
Y0205025D01*
Y0205125D01*
Y0205225D01*
Y0205325D01*
Y0205425D01*
Y0205525D01*
Y0205625D01*
Y0205725D01*
Y0205825D01*
Y0205925D01*
Y0206025D01*
Y0206125D01*
Y0206225D01*
Y0206325D01*
Y0206425D01*
Y0206525D01*
Y0206625D01*
Y0206725D01*
Y0206825D01*
Y0206925D01*
Y0207025D01*
Y0207125D01*
Y0207225D01*
Y0207325D01*
Y0207425D01*
Y0207525D01*
Y0207625D01*
Y0207725D01*
Y0207825D01*
Y0207925D01*
Y0208025D01*
Y0208125D01*
Y0208225D01*
Y0208325D01*
Y0208425D01*
Y0208525D01*
Y0208625D01*
Y0208725D01*
X2048150D01*
Y0208825D01*
Y0208925D01*
Y0209025D01*
Y0209125D01*
X2048050D01*
Y0209225D01*
Y0209325D01*
X2047950D01*
Y0209425D01*
X2047850D01*
Y0209525D01*
X2047650D01*
Y0209625D01*
X2047450D01*
Y0209725D01*
Y0209825D01*
Y0209925D01*
X2049850D01*
Y0209825D01*
X2049950D01*
Y0209725D01*
X2050050D01*
Y0209625D01*
Y0209525D01*
X2050150D01*
Y0209425D01*
X2050250D01*
Y0209325D01*
X2050350D01*
Y0209225D01*
X2050450D01*
Y0209125D01*
X2050550D01*
Y0209025D01*
X2050650D01*
Y0208925D01*
X2050750D01*
Y0208825D01*
Y0208725D01*
X2050850D01*
Y0208625D01*
X2050950D01*
Y0208525D01*
X2051050D01*
Y0208425D01*
X2051150D01*
Y0208325D01*
X2051250D01*
Y0208225D01*
X2051350D01*
Y0208125D01*
X2051450D01*
Y0208025D01*
Y0207925D01*
X2051550D01*
Y0207825D01*
X2051650D01*
Y0207725D01*
X2051750D01*
Y0207625D01*
X2051850D01*
Y0207525D01*
X2051950D01*
Y0207425D01*
X2052050D01*
Y0207325D01*
X2052150D01*
Y0207225D01*
Y0207125D01*
X2052250D01*
Y0207025D01*
X2052350D01*
Y0206925D01*
X2052450D01*
Y0206825D01*
X2052550D01*
Y0206725D01*
X2052650D01*
Y0206625D01*
X2052750D01*
Y0206525D01*
X2052850D01*
Y0206425D01*
Y0206325D01*
X2052950D01*
Y0206225D01*
X2053050D01*
Y0206125D01*
X2053150D01*
Y0206025D01*
X2053250D01*
Y0205925D01*
X2053350D01*
Y0205825D01*
X2053450D01*
Y0205725D01*
X2053550D01*
Y0205625D01*
Y0205525D01*
X2053650D01*
Y0205425D01*
X2053750D01*
Y0205525D01*
Y0205625D01*
Y0205725D01*
Y0205825D01*
Y0205925D01*
Y0206025D01*
Y0206125D01*
Y0206225D01*
Y0206325D01*
Y0206425D01*
Y0206525D01*
Y0206625D01*
Y0206725D01*
Y0206825D01*
Y0206925D01*
Y0207025D01*
Y0207125D01*
Y0207225D01*
Y0207325D01*
Y0207425D01*
Y0207525D01*
Y0207625D01*
Y0207725D01*
Y0207825D01*
Y0207925D01*
Y0208025D01*
Y0208125D01*
Y0208225D01*
Y0208325D01*
Y0208425D01*
Y0208525D01*
Y0208625D01*
Y0208725D01*
Y0208825D01*
Y0208925D01*
Y0209025D01*
Y0209125D01*
X2053650D01*
Y0209225D01*
Y0209325D01*
X2053550D01*
Y0209425D01*
X2053450D01*
Y0209525D01*
X2053250D01*
Y0209625D01*
X2053050D01*
Y0209725D01*
Y0209825D01*
Y0209925D01*
X2055450D01*
Y0209825D01*
D02*
G37*
G36*
X2039450D02*
Y0209725D01*
Y0209625D01*
X2039250D01*
Y0209525D01*
X2039050D01*
Y0209425D01*
X2038950D01*
Y0209325D01*
X2038850D01*
Y0209225D01*
X2038750D01*
Y0209125D01*
Y0209025D01*
Y0208925D01*
Y0208825D01*
Y0208725D01*
Y0208625D01*
Y0208525D01*
Y0208425D01*
Y0208325D01*
Y0208225D01*
Y0208125D01*
Y0208025D01*
Y0207925D01*
Y0207825D01*
Y0207725D01*
Y0207625D01*
Y0207525D01*
Y0207425D01*
Y0207325D01*
Y0207225D01*
Y0207125D01*
Y0207025D01*
Y0206925D01*
Y0206825D01*
Y0206725D01*
Y0206625D01*
Y0206525D01*
Y0206425D01*
Y0206325D01*
Y0206225D01*
Y0206125D01*
Y0206025D01*
Y0205925D01*
Y0205825D01*
Y0205725D01*
Y0205625D01*
Y0205525D01*
Y0205425D01*
Y0205325D01*
Y0205225D01*
Y0205125D01*
Y0205025D01*
Y0204925D01*
Y0204825D01*
Y0204725D01*
Y0204625D01*
Y0204525D01*
Y0204425D01*
Y0204325D01*
Y0204225D01*
Y0204125D01*
Y0204025D01*
Y0203925D01*
Y0203825D01*
Y0203725D01*
Y0203625D01*
Y0203525D01*
Y0203425D01*
Y0203325D01*
Y0203225D01*
Y0203125D01*
Y0203025D01*
Y0202925D01*
Y0202825D01*
X2038850D01*
Y0202725D01*
Y0202625D01*
X2038950D01*
Y0202525D01*
X2039050D01*
Y0202425D01*
X2039350D01*
Y0202325D01*
X2039450D01*
Y0202225D01*
Y0202125D01*
Y0202025D01*
X2036250D01*
Y0202125D01*
Y0202225D01*
Y0202325D01*
X2036350D01*
Y0202425D01*
X2036550D01*
Y0202525D01*
X2036750D01*
Y0202625D01*
X2036850D01*
Y0202725D01*
Y0202825D01*
X2036950D01*
Y0202925D01*
Y0203025D01*
Y0203125D01*
Y0203225D01*
Y0203325D01*
Y0203425D01*
Y0203525D01*
Y0203625D01*
Y0203725D01*
Y0203825D01*
Y0203925D01*
Y0204025D01*
Y0204125D01*
Y0204225D01*
Y0204325D01*
Y0204425D01*
Y0204525D01*
Y0204625D01*
Y0204725D01*
Y0204825D01*
Y0204925D01*
Y0205025D01*
Y0205125D01*
Y0205225D01*
Y0205325D01*
Y0205425D01*
Y0205525D01*
Y0205625D01*
Y0205725D01*
Y0205825D01*
Y0205925D01*
Y0206025D01*
Y0206125D01*
Y0206225D01*
Y0206325D01*
Y0206425D01*
Y0206525D01*
Y0206625D01*
Y0206725D01*
Y0206825D01*
Y0206925D01*
Y0207025D01*
Y0207125D01*
Y0207225D01*
Y0207325D01*
Y0207425D01*
Y0207525D01*
Y0207625D01*
Y0207725D01*
Y0207825D01*
Y0207925D01*
Y0208025D01*
Y0208125D01*
X2036850D01*
Y0208025D01*
Y0207925D01*
Y0207825D01*
X2036750D01*
Y0207725D01*
Y0207625D01*
X2036650D01*
Y0207525D01*
Y0207425D01*
X2036550D01*
Y0207325D01*
Y0207225D01*
Y0207125D01*
X2036450D01*
Y0207025D01*
Y0206925D01*
X2036350D01*
Y0206825D01*
Y0206725D01*
X2036250D01*
Y0206625D01*
Y0206525D01*
Y0206425D01*
X2036150D01*
Y0206325D01*
Y0206225D01*
X2036050D01*
Y0206125D01*
Y0206025D01*
X2035950D01*
Y0205925D01*
Y0205825D01*
X2035850D01*
Y0205725D01*
Y0205625D01*
Y0205525D01*
X2035750D01*
Y0205425D01*
Y0205325D01*
X2035650D01*
Y0205225D01*
Y0205125D01*
X2035550D01*
Y0205025D01*
Y0204925D01*
Y0204825D01*
X2035450D01*
Y0204725D01*
Y0204625D01*
X2035350D01*
Y0204525D01*
Y0204425D01*
X2035250D01*
Y0204325D01*
Y0204225D01*
Y0204125D01*
X2035150D01*
Y0204025D01*
Y0203925D01*
X2035050D01*
Y0203825D01*
Y0203725D01*
X2034950D01*
Y0203625D01*
Y0203525D01*
X2034850D01*
Y0203425D01*
Y0203325D01*
Y0203225D01*
X2034750D01*
Y0203125D01*
Y0203025D01*
X2034650D01*
Y0202925D01*
Y0202825D01*
X2034550D01*
Y0202725D01*
Y0202625D01*
Y0202525D01*
X2034450D01*
Y0202425D01*
Y0202325D01*
X2034350D01*
Y0202225D01*
Y0202125D01*
X2034250D01*
Y0202025D01*
Y0201925D01*
X2033950D01*
Y0202025D01*
Y0202125D01*
X2033850D01*
Y0202225D01*
Y0202325D01*
X2033750D01*
Y0202425D01*
Y0202525D01*
Y0202625D01*
X2033650D01*
Y0202725D01*
Y0202825D01*
X2033550D01*
Y0202925D01*
Y0203025D01*
X2033450D01*
Y0203125D01*
Y0203225D01*
X2033350D01*
Y0203325D01*
Y0203425D01*
Y0203525D01*
X2033250D01*
Y0203625D01*
Y0203725D01*
X2033150D01*
Y0203825D01*
Y0203925D01*
X2033050D01*
Y0204025D01*
Y0204125D01*
X2032950D01*
Y0204225D01*
Y0204325D01*
Y0204425D01*
X2032850D01*
Y0204525D01*
Y0204625D01*
X2032750D01*
Y0204725D01*
Y0204825D01*
X2032650D01*
Y0204925D01*
Y0205025D01*
X2032550D01*
Y0205125D01*
Y0205225D01*
Y0205325D01*
X2032450D01*
Y0205425D01*
Y0205525D01*
X2032350D01*
Y0205625D01*
Y0205725D01*
X2032250D01*
Y0205825D01*
Y0205925D01*
X2032150D01*
Y0206025D01*
Y0206125D01*
Y0206225D01*
X2032050D01*
Y0206325D01*
Y0206425D01*
X2031950D01*
Y0206525D01*
Y0206625D01*
X2031850D01*
Y0206725D01*
Y0206825D01*
X2031750D01*
Y0206925D01*
Y0207025D01*
X2031650D01*
Y0207125D01*
Y0207225D01*
Y0207325D01*
X2031550D01*
Y0207425D01*
Y0207525D01*
X2031450D01*
Y0207625D01*
Y0207725D01*
X2031350D01*
Y0207825D01*
Y0207925D01*
X2031250D01*
Y0208025D01*
Y0208125D01*
X2031150D01*
Y0208025D01*
Y0207925D01*
Y0207825D01*
Y0207725D01*
Y0207625D01*
Y0207525D01*
Y0207425D01*
Y0207325D01*
Y0207225D01*
Y0207125D01*
Y0207025D01*
Y0206925D01*
Y0206825D01*
Y0206725D01*
Y0206625D01*
Y0206525D01*
Y0206425D01*
Y0206325D01*
Y0206225D01*
Y0206125D01*
Y0206025D01*
Y0205925D01*
Y0205825D01*
Y0205725D01*
Y0205625D01*
Y0205525D01*
Y0205425D01*
Y0205325D01*
Y0205225D01*
Y0205125D01*
Y0205025D01*
Y0204925D01*
Y0204825D01*
Y0204725D01*
Y0204625D01*
Y0204525D01*
Y0204425D01*
Y0204325D01*
Y0204225D01*
Y0204125D01*
Y0204025D01*
Y0203925D01*
Y0203825D01*
Y0203725D01*
Y0203625D01*
Y0203525D01*
Y0203425D01*
Y0203325D01*
Y0203225D01*
Y0203125D01*
Y0203025D01*
X2031250D01*
Y0202925D01*
Y0202825D01*
Y0202725D01*
X2031350D01*
Y0202625D01*
X2031450D01*
Y0202525D01*
X2031550D01*
Y0202425D01*
X2031850D01*
Y0202325D01*
X2031950D01*
Y0202225D01*
Y0202125D01*
Y0202025D01*
X2029450D01*
Y0202125D01*
Y0202225D01*
Y0202325D01*
Y0202425D01*
X2029750D01*
Y0202525D01*
X2029850D01*
Y0202625D01*
X2029950D01*
Y0202725D01*
X2030050D01*
Y0202825D01*
Y0202925D01*
X2030150D01*
Y0203025D01*
Y0203125D01*
Y0203225D01*
Y0203325D01*
Y0203425D01*
Y0203525D01*
Y0203625D01*
Y0203725D01*
Y0203825D01*
Y0203925D01*
Y0204025D01*
Y0204125D01*
Y0204225D01*
Y0204325D01*
Y0204425D01*
Y0204525D01*
Y0204625D01*
Y0204725D01*
Y0204825D01*
Y0204925D01*
Y0205025D01*
Y0205125D01*
Y0205225D01*
Y0205325D01*
Y0205425D01*
Y0205525D01*
Y0205625D01*
Y0205725D01*
Y0205825D01*
Y0205925D01*
Y0206025D01*
Y0206125D01*
Y0206225D01*
Y0206325D01*
Y0206425D01*
Y0206525D01*
Y0206625D01*
Y0206725D01*
Y0206825D01*
Y0206925D01*
Y0207025D01*
Y0207125D01*
Y0207225D01*
Y0207325D01*
Y0207425D01*
Y0207525D01*
Y0207625D01*
Y0207725D01*
Y0207825D01*
Y0207925D01*
Y0208025D01*
Y0208125D01*
Y0208225D01*
Y0208325D01*
Y0208425D01*
Y0208525D01*
Y0208625D01*
Y0208725D01*
Y0208825D01*
Y0208925D01*
Y0209025D01*
Y0209125D01*
Y0209225D01*
X2030050D01*
Y0209325D01*
X2029950D01*
Y0209425D01*
X2029850D01*
Y0209525D01*
X2029650D01*
Y0209625D01*
X2029450D01*
Y0209725D01*
Y0209825D01*
Y0209925D01*
X2032250D01*
Y0209825D01*
X2032350D01*
Y0209725D01*
Y0209625D01*
X2032450D01*
Y0209525D01*
Y0209425D01*
X2032550D01*
Y0209325D01*
Y0209225D01*
Y0209125D01*
X2032650D01*
Y0209025D01*
Y0208925D01*
X2032750D01*
Y0208825D01*
Y0208725D01*
X2032850D01*
Y0208625D01*
Y0208525D01*
X2032950D01*
Y0208425D01*
Y0208325D01*
Y0208225D01*
X2033050D01*
Y0208125D01*
Y0208025D01*
X2033150D01*
Y0207925D01*
Y0207825D01*
X2033250D01*
Y0207725D01*
Y0207625D01*
X2033350D01*
Y0207525D01*
Y0207425D01*
Y0207325D01*
X2033450D01*
Y0207225D01*
Y0207125D01*
X2033550D01*
Y0207025D01*
Y0206925D01*
X2033650D01*
Y0206825D01*
Y0206725D01*
X2033750D01*
Y0206625D01*
Y0206525D01*
Y0206425D01*
X2033850D01*
Y0206325D01*
Y0206225D01*
X2033950D01*
Y0206125D01*
Y0206025D01*
X2034050D01*
Y0205925D01*
Y0205825D01*
X2034150D01*
Y0205725D01*
Y0205625D01*
Y0205525D01*
X2034250D01*
Y0205425D01*
Y0205325D01*
X2034350D01*
Y0205225D01*
Y0205125D01*
X2034450D01*
Y0205025D01*
Y0204925D01*
X2034550D01*
Y0205025D01*
X2034650D01*
Y0205125D01*
Y0205225D01*
Y0205325D01*
X2034750D01*
Y0205425D01*
Y0205525D01*
X2034850D01*
Y0205625D01*
Y0205725D01*
X2034950D01*
Y0205825D01*
Y0205925D01*
Y0206025D01*
X2035050D01*
Y0206125D01*
Y0206225D01*
X2035150D01*
Y0206325D01*
Y0206425D01*
X2035250D01*
Y0206525D01*
Y0206625D01*
Y0206725D01*
X2035350D01*
Y0206825D01*
Y0206925D01*
X2035450D01*
Y0207025D01*
Y0207125D01*
X2035550D01*
Y0207225D01*
Y0207325D01*
Y0207425D01*
X2035650D01*
Y0207525D01*
Y0207625D01*
X2035750D01*
Y0207725D01*
Y0207825D01*
X2035850D01*
Y0207925D01*
Y0208025D01*
Y0208125D01*
X2035950D01*
Y0208225D01*
Y0208325D01*
X2036050D01*
Y0208425D01*
Y0208525D01*
X2036150D01*
Y0208625D01*
Y0208725D01*
Y0208825D01*
X2036250D01*
Y0208925D01*
Y0209025D01*
X2036350D01*
Y0209125D01*
Y0209225D01*
X2036450D01*
Y0209325D01*
Y0209425D01*
Y0209525D01*
X2036550D01*
Y0209625D01*
Y0209725D01*
X2036650D01*
Y0209825D01*
Y0209925D01*
X2039450D01*
Y0209825D01*
D02*
G37*
G36*
X1967450Y0228825D02*
Y0228725D01*
Y0228625D01*
Y0228525D01*
Y0228425D01*
Y0228325D01*
Y0228225D01*
Y0228125D01*
Y0228025D01*
Y0227925D01*
Y0227825D01*
Y0227725D01*
Y0227625D01*
Y0227525D01*
Y0227425D01*
Y0227325D01*
Y0227225D01*
Y0227125D01*
Y0227025D01*
Y0226925D01*
Y0226825D01*
Y0226725D01*
Y0226625D01*
Y0226525D01*
Y0226425D01*
Y0226325D01*
Y0226225D01*
Y0226125D01*
Y0226025D01*
Y0225925D01*
Y0225825D01*
Y0225725D01*
Y0225625D01*
Y0225525D01*
Y0225425D01*
Y0225325D01*
Y0225225D01*
Y0225125D01*
Y0225025D01*
Y0224925D01*
Y0224825D01*
Y0224725D01*
Y0224625D01*
Y0224525D01*
Y0224425D01*
Y0224325D01*
X1969050D01*
Y0224225D01*
X1968950D01*
Y0224125D01*
Y0224025D01*
Y0223925D01*
Y0223825D01*
Y0223725D01*
X1968850D01*
Y0223625D01*
Y0223525D01*
Y0223425D01*
Y0223325D01*
Y0223225D01*
X1968750D01*
Y0223125D01*
Y0223025D01*
Y0222925D01*
Y0222825D01*
Y0222725D01*
X1968650D01*
Y0222625D01*
Y0222525D01*
Y0222425D01*
Y0222325D01*
Y0222225D01*
X1968550D01*
Y0222125D01*
Y0222025D01*
Y0221925D01*
Y0221825D01*
Y0221725D01*
X1968450D01*
Y0221625D01*
Y0221525D01*
Y0221425D01*
Y0221325D01*
X1966750D01*
Y0221225D01*
Y0221125D01*
Y0221025D01*
X1966650D01*
Y0220925D01*
Y0220825D01*
Y0220725D01*
Y0220625D01*
Y0220525D01*
X1966550D01*
Y0220425D01*
Y0220325D01*
Y0220225D01*
Y0220125D01*
Y0220025D01*
X1966450D01*
Y0219925D01*
Y0219825D01*
Y0219725D01*
Y0219625D01*
Y0219525D01*
X1966350D01*
Y0219425D01*
Y0219325D01*
Y0219225D01*
Y0219125D01*
Y0219025D01*
X1966250D01*
Y0218925D01*
Y0218825D01*
Y0218725D01*
Y0218625D01*
Y0218525D01*
X1967850D01*
Y0218425D01*
Y0218325D01*
Y0218225D01*
Y0218125D01*
X1967750D01*
Y0218025D01*
Y0217925D01*
Y0217825D01*
Y0217725D01*
Y0217625D01*
X1967650D01*
Y0217525D01*
Y0217425D01*
Y0217325D01*
Y0217225D01*
Y0217125D01*
X1967550D01*
Y0217025D01*
Y0216925D01*
Y0216825D01*
Y0216725D01*
Y0216625D01*
X1967450D01*
Y0216525D01*
Y0216425D01*
Y0216325D01*
Y0216225D01*
Y0216125D01*
X1967350D01*
Y0216025D01*
Y0215925D01*
Y0215825D01*
Y0215725D01*
Y0215625D01*
X1967250D01*
Y0215525D01*
Y0215425D01*
Y0215325D01*
Y0215225D01*
Y0215125D01*
X1967150D01*
Y0215025D01*
Y0214925D01*
Y0214825D01*
Y0214725D01*
Y0214625D01*
X1967050D01*
Y0214525D01*
Y0214425D01*
Y0214325D01*
Y0214225D01*
Y0214125D01*
X1966950D01*
Y0214025D01*
Y0213925D01*
Y0213825D01*
Y0213725D01*
Y0213625D01*
X1966850D01*
Y0213525D01*
Y0213425D01*
Y0213325D01*
Y0213225D01*
Y0213125D01*
X1966750D01*
Y0213025D01*
Y0212925D01*
Y0212825D01*
Y0212725D01*
Y0212625D01*
Y0212525D01*
Y0212425D01*
Y0212325D01*
X1966850D01*
Y0212225D01*
Y0212125D01*
Y0212025D01*
X1966950D01*
Y0211925D01*
Y0211825D01*
X1967050D01*
Y0211725D01*
X1967150D01*
Y0211625D01*
X1967250D01*
Y0211525D01*
X1967450D01*
Y0211425D01*
X1967650D01*
Y0211325D01*
X1968050D01*
Y0211225D01*
X1968650D01*
Y0211125D01*
X1972550D01*
Y0211225D01*
Y0211325D01*
Y0211425D01*
X1972650D01*
Y0211525D01*
Y0211625D01*
Y0211725D01*
Y0211825D01*
Y0211925D01*
X1972750D01*
Y0212025D01*
Y0212125D01*
Y0212225D01*
Y0212325D01*
Y0212425D01*
X1972850D01*
Y0212525D01*
Y0212625D01*
Y0212725D01*
Y0212825D01*
Y0212925D01*
X1972950D01*
Y0213025D01*
Y0213125D01*
Y0213225D01*
Y0213325D01*
Y0213425D01*
X1973050D01*
Y0213525D01*
Y0213625D01*
Y0213725D01*
Y0213825D01*
Y0213925D01*
X1973150D01*
Y0214025D01*
Y0214125D01*
X1971850D01*
Y0214225D01*
X1971650D01*
Y0214325D01*
X1971550D01*
Y0214425D01*
Y0214525D01*
Y0214625D01*
Y0214725D01*
Y0214825D01*
Y0214925D01*
Y0215025D01*
Y0215125D01*
Y0215225D01*
X1971650D01*
Y0215325D01*
Y0215425D01*
Y0215525D01*
Y0215625D01*
X1971750D01*
Y0215725D01*
Y0215825D01*
Y0215925D01*
Y0216025D01*
Y0216125D01*
X1971850D01*
Y0216225D01*
Y0216325D01*
Y0216425D01*
Y0216525D01*
Y0216625D01*
X1971950D01*
Y0216725D01*
Y0216825D01*
Y0216925D01*
Y0217025D01*
Y0217125D01*
X1972050D01*
Y0217225D01*
Y0217325D01*
Y0217425D01*
Y0217525D01*
Y0217625D01*
X1972150D01*
Y0217725D01*
Y0217825D01*
Y0217925D01*
Y0218025D01*
Y0218125D01*
X1972250D01*
Y0218225D01*
Y0218325D01*
Y0218425D01*
Y0218525D01*
X1974050D01*
Y0218625D01*
Y0218725D01*
Y0218825D01*
Y0218925D01*
Y0219025D01*
X1974150D01*
Y0219125D01*
Y0219225D01*
Y0219325D01*
Y0219425D01*
Y0219525D01*
X1974250D01*
Y0219625D01*
Y0219725D01*
Y0219825D01*
Y0219925D01*
Y0220025D01*
X1974350D01*
Y0220125D01*
Y0220225D01*
Y0220325D01*
Y0220425D01*
Y0220525D01*
X1974450D01*
Y0220625D01*
Y0220725D01*
Y0220825D01*
Y0220925D01*
Y0221025D01*
X1974550D01*
Y0221125D01*
Y0221225D01*
Y0221325D01*
X1972850D01*
Y0221425D01*
Y0221525D01*
Y0221625D01*
X1972950D01*
Y0221725D01*
Y0221825D01*
Y0221925D01*
Y0222025D01*
Y0222125D01*
X1973050D01*
Y0222225D01*
Y0222325D01*
Y0222425D01*
Y0222525D01*
Y0222625D01*
X1973150D01*
Y0222725D01*
Y0222825D01*
Y0222925D01*
Y0223025D01*
Y0223125D01*
X1973250D01*
Y0223225D01*
Y0223325D01*
Y0223425D01*
Y0223525D01*
Y0223625D01*
X1973350D01*
Y0223725D01*
Y0223825D01*
Y0223925D01*
Y0224025D01*
Y0224125D01*
X1973450D01*
Y0224225D01*
Y0224325D01*
X1978250D01*
Y0224225D01*
Y0224125D01*
Y0224025D01*
Y0223925D01*
Y0223825D01*
Y0223725D01*
Y0223625D01*
Y0223525D01*
Y0223425D01*
Y0223325D01*
Y0223225D01*
Y0223125D01*
Y0223025D01*
Y0222925D01*
Y0222825D01*
Y0222725D01*
Y0222625D01*
Y0222525D01*
Y0222425D01*
Y0222325D01*
Y0222225D01*
Y0222125D01*
Y0222025D01*
Y0221925D01*
Y0221825D01*
Y0221725D01*
Y0221625D01*
Y0221525D01*
Y0221425D01*
Y0221325D01*
Y0221225D01*
Y0221125D01*
Y0221025D01*
Y0220925D01*
X1978350D01*
Y0220825D01*
Y0220725D01*
Y0220625D01*
Y0220525D01*
Y0220425D01*
X1978450D01*
Y0220325D01*
Y0220225D01*
Y0220125D01*
Y0220025D01*
X1978550D01*
Y0219925D01*
Y0219825D01*
X1978650D01*
Y0219725D01*
Y0219625D01*
X1978750D01*
Y0219525D01*
Y0219425D01*
X1978850D01*
Y0219325D01*
X1978950D01*
Y0219225D01*
Y0219125D01*
X1979050D01*
Y0219025D01*
X1979150D01*
Y0218925D01*
X1979250D01*
Y0218825D01*
X1979350D01*
Y0218725D01*
X1979550D01*
Y0218625D01*
X1979650D01*
Y0218525D01*
Y0218425D01*
Y0218325D01*
Y0218225D01*
Y0218125D01*
Y0218025D01*
Y0217925D01*
Y0217825D01*
Y0217725D01*
Y0217625D01*
Y0217525D01*
Y0217425D01*
Y0217325D01*
Y0217225D01*
Y0217125D01*
Y0217025D01*
Y0216925D01*
Y0216825D01*
Y0216725D01*
Y0216625D01*
Y0216525D01*
Y0216425D01*
Y0216325D01*
Y0216225D01*
Y0216125D01*
Y0216025D01*
Y0215925D01*
Y0215825D01*
Y0215725D01*
Y0215625D01*
Y0215525D01*
Y0215425D01*
Y0215325D01*
Y0215225D01*
Y0215125D01*
Y0215025D01*
Y0214925D01*
Y0214825D01*
Y0214725D01*
Y0214625D01*
Y0214525D01*
Y0214425D01*
Y0214325D01*
Y0214225D01*
Y0214125D01*
Y0214025D01*
Y0213925D01*
Y0213825D01*
Y0213725D01*
X1979450D01*
Y0213625D01*
X1979150D01*
Y0213525D01*
X1978750D01*
Y0213425D01*
X1978450D01*
Y0213325D01*
X1978150D01*
Y0213225D01*
X1977850D01*
Y0213125D01*
X1977650D01*
Y0213025D01*
X1977350D01*
Y0212925D01*
X1977150D01*
Y0212825D01*
X1976950D01*
Y0212725D01*
X1976750D01*
Y0212625D01*
X1976550D01*
Y0212525D01*
X1976350D01*
Y0212425D01*
X1976150D01*
Y0212325D01*
X1975950D01*
Y0212225D01*
X1975850D01*
Y0212125D01*
X1975650D01*
Y0212025D01*
X1975450D01*
Y0211925D01*
X1975350D01*
Y0211825D01*
X1975250D01*
Y0211725D01*
X1975050D01*
Y0211625D01*
X1974950D01*
Y0211525D01*
X1974850D01*
Y0211425D01*
X1974650D01*
Y0211325D01*
X1974550D01*
Y0211225D01*
X1974450D01*
Y0211125D01*
X1974350D01*
Y0211025D01*
X1974250D01*
Y0210925D01*
X1974150D01*
Y0210825D01*
X1974050D01*
Y0210725D01*
X1973950D01*
Y0210625D01*
X1973850D01*
Y0210525D01*
X1973750D01*
Y0210425D01*
X1973650D01*
Y0210325D01*
X1973550D01*
Y0210225D01*
Y0210125D01*
X1973450D01*
Y0210025D01*
X1973350D01*
Y0209925D01*
X1973250D01*
Y0209825D01*
Y0209725D01*
X1973150D01*
Y0209625D01*
X1973050D01*
Y0209525D01*
Y0209425D01*
X1972950D01*
Y0209325D01*
Y0209225D01*
X1972850D01*
Y0209125D01*
Y0209025D01*
X1972750D01*
Y0208925D01*
Y0208825D01*
X1972650D01*
Y0208725D01*
Y0208625D01*
Y0208525D01*
X1972550D01*
Y0208425D01*
Y0208325D01*
Y0208225D01*
Y0208125D01*
X1972450D01*
Y0208025D01*
Y0207925D01*
Y0207825D01*
Y0207725D01*
Y0207625D01*
Y0207525D01*
Y0207425D01*
Y0207325D01*
Y0207225D01*
Y0207125D01*
Y0207025D01*
Y0206925D01*
Y0206825D01*
Y0206725D01*
Y0206625D01*
X1972550D01*
Y0206525D01*
Y0206425D01*
Y0206325D01*
Y0206225D01*
Y0206125D01*
X1972650D01*
Y0206025D01*
Y0205925D01*
Y0205825D01*
Y0205725D01*
X1972750D01*
Y0205625D01*
Y0205525D01*
Y0205425D01*
X1972850D01*
Y0205325D01*
Y0205225D01*
X1972950D01*
Y0205125D01*
Y0205025D01*
X1972750D01*
Y0204925D01*
X1972450D01*
Y0204825D01*
X1971950D01*
Y0204725D01*
X1970850D01*
Y0204825D01*
X1970350D01*
Y0204925D01*
X1970050D01*
Y0205025D01*
X1969750D01*
Y0205125D01*
X1969550D01*
Y0205225D01*
X1969350D01*
Y0205325D01*
X1969250D01*
Y0205425D01*
X1969050D01*
Y0205525D01*
X1968950D01*
Y0205625D01*
X1968750D01*
Y0205725D01*
X1968650D01*
Y0205825D01*
X1968550D01*
Y0205925D01*
X1968350D01*
Y0206025D01*
X1968250D01*
Y0206125D01*
X1968150D01*
Y0206225D01*
X1968050D01*
Y0206325D01*
X1967950D01*
Y0206425D01*
X1967850D01*
Y0206525D01*
X1967750D01*
Y0206625D01*
X1967650D01*
Y0206725D01*
Y0206825D01*
X1967550D01*
Y0206925D01*
X1967450D01*
Y0207025D01*
X1967350D01*
Y0207125D01*
X1967250D01*
Y0207225D01*
Y0207325D01*
X1967150D01*
Y0207425D01*
X1967050D01*
Y0207525D01*
Y0207625D01*
X1966950D01*
Y0207725D01*
Y0207825D01*
X1966850D01*
Y0207925D01*
X1966750D01*
Y0208025D01*
Y0208125D01*
X1966650D01*
Y0208225D01*
Y0208325D01*
X1966550D01*
Y0208425D01*
Y0208525D01*
X1966450D01*
Y0208625D01*
Y0208725D01*
X1966350D01*
Y0208825D01*
Y0208925D01*
X1966250D01*
Y0209025D01*
Y0209125D01*
X1966150D01*
Y0209225D01*
Y0209325D01*
X1966050D01*
Y0209425D01*
Y0209525D01*
X1965950D01*
Y0209625D01*
Y0209725D01*
X1965850D01*
Y0209825D01*
Y0209925D01*
X1965750D01*
Y0210025D01*
Y0210125D01*
Y0210225D01*
X1965650D01*
Y0210325D01*
Y0210425D01*
X1965550D01*
Y0210525D01*
Y0210625D01*
X1965450D01*
Y0210725D01*
Y0210825D01*
X1965350D01*
Y0210925D01*
Y0211025D01*
X1965250D01*
Y0211125D01*
Y0211225D01*
X1965150D01*
Y0211325D01*
Y0211425D01*
X1965050D01*
Y0211525D01*
Y0211625D01*
X1964950D01*
Y0211725D01*
Y0211825D01*
X1964850D01*
Y0211925D01*
Y0212025D01*
X1964750D01*
Y0212125D01*
Y0212225D01*
X1964650D01*
Y0212325D01*
X1964550D01*
Y0212425D01*
Y0212525D01*
X1964450D01*
Y0212625D01*
X1964350D01*
Y0212725D01*
X1964250D01*
Y0212825D01*
X1964150D01*
Y0212925D01*
X1964050D01*
Y0213025D01*
X1963950D01*
Y0213125D01*
X1963850D01*
Y0213225D01*
X1963650D01*
Y0213325D01*
X1963250D01*
Y0213425D01*
X1963050D01*
Y0213325D01*
X1962550D01*
Y0213225D01*
X1962350D01*
Y0213125D01*
X1962150D01*
Y0213025D01*
X1962050D01*
Y0212925D01*
X1961950D01*
Y0212825D01*
X1961850D01*
Y0212725D01*
X1961750D01*
Y0212625D01*
X1961650D01*
Y0212525D01*
X1961550D01*
Y0212425D01*
X1961450D01*
Y0212325D01*
X1961350D01*
Y0212225D01*
X1961250D01*
Y0212125D01*
X1961150D01*
Y0212025D01*
X1961050D01*
Y0211925D01*
X1960850D01*
Y0211825D01*
X1960050D01*
Y0211925D01*
X1959750D01*
Y0212025D01*
X1959550D01*
Y0212125D01*
X1959450D01*
Y0212225D01*
X1959350D01*
Y0212325D01*
X1959150D01*
Y0212425D01*
Y0212525D01*
X1959050D01*
Y0212625D01*
X1958950D01*
Y0212725D01*
X1958850D01*
Y0212825D01*
Y0212925D01*
X1958750D01*
Y0213025D01*
Y0213125D01*
X1958650D01*
Y0213225D01*
Y0213325D01*
X1958550D01*
Y0213425D01*
Y0213525D01*
X1958450D01*
Y0213625D01*
Y0213725D01*
X1958350D01*
Y0213825D01*
Y0213925D01*
X1958250D01*
Y0214025D01*
Y0214125D01*
Y0214225D01*
X1958150D01*
Y0214325D01*
Y0214425D01*
X1958050D01*
Y0214525D01*
Y0214625D01*
Y0214725D01*
X1957950D01*
Y0214825D01*
Y0214925D01*
X1957850D01*
Y0215025D01*
Y0215125D01*
Y0215225D01*
X1957750D01*
Y0215325D01*
X1957650D01*
Y0215425D01*
Y0215525D01*
X1957550D01*
Y0215625D01*
X1957450D01*
Y0215725D01*
Y0215825D01*
X1957350D01*
Y0215925D01*
X1957250D01*
Y0216025D01*
X1957150D01*
Y0216125D01*
X1957050D01*
Y0216225D01*
X1956950D01*
Y0216325D01*
X1956850D01*
Y0216425D01*
X1956750D01*
Y0216525D01*
X1956650D01*
Y0216625D01*
X1956550D01*
Y0216725D01*
X1956450D01*
Y0216825D01*
X1956250D01*
Y0216925D01*
X1956150D01*
Y0217025D01*
X1956050D01*
Y0217125D01*
X1955950D01*
Y0217225D01*
X1955850D01*
Y0217325D01*
X1955750D01*
Y0217425D01*
X1955650D01*
Y0217525D01*
X1955550D01*
Y0217625D01*
X1955450D01*
Y0217725D01*
Y0217825D01*
X1955350D01*
Y0217925D01*
X1955250D01*
Y0218025D01*
Y0218125D01*
X1955150D01*
Y0218225D01*
Y0218325D01*
X1955050D01*
Y0218425D01*
Y0218525D01*
X1954950D01*
Y0218625D01*
Y0218725D01*
X1954850D01*
Y0218825D01*
Y0218925D01*
Y0219025D01*
Y0219125D01*
X1954750D01*
Y0219225D01*
Y0219325D01*
Y0219425D01*
Y0219525D01*
Y0219625D01*
X1961650D01*
Y0219725D01*
Y0219825D01*
Y0219925D01*
Y0220025D01*
Y0220125D01*
Y0220225D01*
Y0220325D01*
Y0220425D01*
Y0220525D01*
Y0220625D01*
Y0220725D01*
Y0220825D01*
Y0220925D01*
Y0221025D01*
Y0221125D01*
Y0221225D01*
Y0221325D01*
Y0221425D01*
Y0221525D01*
Y0221625D01*
Y0221725D01*
Y0221825D01*
Y0221925D01*
Y0222025D01*
Y0222125D01*
Y0222225D01*
Y0222325D01*
Y0222425D01*
Y0222525D01*
Y0222625D01*
Y0222725D01*
Y0222825D01*
Y0222925D01*
Y0223025D01*
Y0223125D01*
Y0223225D01*
Y0223325D01*
Y0223425D01*
Y0223525D01*
Y0223625D01*
Y0223725D01*
Y0223825D01*
Y0223925D01*
Y0224025D01*
Y0224125D01*
Y0224225D01*
Y0224325D01*
Y0224425D01*
Y0224525D01*
Y0224625D01*
Y0224725D01*
Y0224825D01*
Y0224925D01*
Y0225025D01*
Y0225125D01*
Y0225225D01*
Y0225325D01*
Y0225425D01*
Y0225525D01*
Y0225625D01*
Y0225725D01*
Y0225825D01*
Y0225925D01*
Y0226025D01*
Y0226125D01*
Y0226225D01*
Y0226325D01*
Y0226425D01*
Y0226525D01*
Y0226625D01*
Y0226725D01*
Y0226825D01*
Y0226925D01*
Y0227025D01*
Y0227125D01*
Y0227225D01*
Y0227325D01*
Y0227425D01*
Y0227525D01*
Y0227625D01*
Y0227725D01*
Y0227825D01*
Y0227925D01*
Y0228025D01*
Y0228125D01*
Y0228225D01*
Y0228325D01*
Y0228425D01*
Y0228525D01*
Y0228625D01*
Y0228725D01*
Y0228825D01*
Y0228925D01*
X1967450D01*
Y0228825D01*
D02*
G37*
G36*
X2028950Y0209825D02*
Y0209725D01*
Y0209625D01*
X2028650D01*
Y0209525D01*
X2028550D01*
Y0209425D01*
X2028450D01*
Y0209325D01*
X2028350D01*
Y0209225D01*
Y0209125D01*
X2028250D01*
Y0209025D01*
Y0208925D01*
Y0208825D01*
Y0208725D01*
Y0208625D01*
Y0208525D01*
Y0208425D01*
Y0208325D01*
Y0208225D01*
Y0208125D01*
Y0208025D01*
Y0207925D01*
Y0207825D01*
Y0207725D01*
Y0207625D01*
Y0207525D01*
Y0207425D01*
Y0207325D01*
Y0207225D01*
Y0207125D01*
Y0207025D01*
Y0206925D01*
Y0206825D01*
Y0206725D01*
Y0206625D01*
Y0206525D01*
Y0206425D01*
Y0206325D01*
Y0206225D01*
Y0206125D01*
Y0206025D01*
Y0205925D01*
Y0205825D01*
Y0205725D01*
Y0205625D01*
Y0205525D01*
Y0205425D01*
Y0205325D01*
Y0205225D01*
Y0205125D01*
Y0205025D01*
Y0204925D01*
Y0204825D01*
Y0204725D01*
Y0204625D01*
Y0204525D01*
Y0204425D01*
Y0204325D01*
Y0204225D01*
Y0204125D01*
X2028150D01*
Y0204025D01*
Y0203925D01*
Y0203825D01*
Y0203725D01*
Y0203625D01*
X2028050D01*
Y0203525D01*
Y0203425D01*
X2027950D01*
Y0203325D01*
Y0203225D01*
X2027850D01*
Y0203125D01*
Y0203025D01*
X2027750D01*
Y0202925D01*
X2027650D01*
Y0202825D01*
Y0202725D01*
X2027550D01*
Y0202625D01*
X2027450D01*
Y0202525D01*
X2027250D01*
Y0202425D01*
X2027150D01*
Y0202325D01*
X2026950D01*
Y0202225D01*
X2026650D01*
Y0202125D01*
X2026350D01*
Y0202025D01*
X2025750D01*
Y0201925D01*
X2024150D01*
Y0202025D01*
X2023550D01*
Y0202125D01*
X2023250D01*
Y0202225D01*
X2022950D01*
Y0202325D01*
X2022750D01*
Y0202425D01*
X2022550D01*
Y0202525D01*
X2022450D01*
Y0202625D01*
X2022250D01*
Y0202725D01*
X2022150D01*
Y0202825D01*
X2022050D01*
Y0202925D01*
X2021950D01*
Y0203025D01*
X2021850D01*
Y0203125D01*
Y0203225D01*
X2021750D01*
Y0203325D01*
X2021650D01*
Y0203425D01*
Y0203525D01*
X2021550D01*
Y0203625D01*
Y0203725D01*
Y0203825D01*
X2021450D01*
Y0203925D01*
Y0204025D01*
Y0204125D01*
Y0204225D01*
Y0204325D01*
Y0204425D01*
Y0204525D01*
Y0204625D01*
Y0204725D01*
Y0204825D01*
Y0204925D01*
Y0205025D01*
Y0205125D01*
Y0205225D01*
Y0205325D01*
Y0205425D01*
Y0205525D01*
Y0205625D01*
Y0205725D01*
Y0205825D01*
Y0205925D01*
Y0206025D01*
Y0206125D01*
Y0206225D01*
Y0206325D01*
Y0206425D01*
Y0206525D01*
Y0206625D01*
Y0206725D01*
Y0206825D01*
Y0206925D01*
Y0207025D01*
Y0207125D01*
Y0207225D01*
Y0207325D01*
Y0207425D01*
Y0207525D01*
Y0207625D01*
Y0207725D01*
Y0207825D01*
Y0207925D01*
Y0208025D01*
Y0208125D01*
Y0208225D01*
Y0208325D01*
Y0208425D01*
Y0208525D01*
Y0208625D01*
Y0208725D01*
Y0208825D01*
Y0208925D01*
X2021350D01*
Y0209025D01*
Y0209125D01*
Y0209225D01*
X2021250D01*
Y0209325D01*
Y0209425D01*
X2021150D01*
Y0209525D01*
X2020950D01*
Y0209625D01*
X2020650D01*
Y0209725D01*
Y0209825D01*
Y0209925D01*
X2023850D01*
Y0209825D01*
Y0209725D01*
Y0209625D01*
X2023550D01*
Y0209525D01*
X2023350D01*
Y0209425D01*
X2023250D01*
Y0209325D01*
Y0209225D01*
X2023150D01*
Y0209125D01*
Y0209025D01*
Y0208925D01*
Y0208825D01*
X2023050D01*
Y0208725D01*
Y0208625D01*
Y0208525D01*
Y0208425D01*
Y0208325D01*
Y0208225D01*
Y0208125D01*
Y0208025D01*
Y0207925D01*
Y0207825D01*
Y0207725D01*
Y0207625D01*
Y0207525D01*
Y0207425D01*
Y0207325D01*
Y0207225D01*
Y0207125D01*
Y0207025D01*
Y0206925D01*
Y0206825D01*
Y0206725D01*
Y0206625D01*
Y0206525D01*
Y0206425D01*
Y0206325D01*
Y0206225D01*
Y0206125D01*
Y0206025D01*
Y0205925D01*
Y0205825D01*
Y0205725D01*
Y0205625D01*
Y0205525D01*
Y0205425D01*
Y0205325D01*
Y0205225D01*
Y0205125D01*
Y0205025D01*
Y0204925D01*
Y0204825D01*
Y0204725D01*
Y0204625D01*
Y0204525D01*
X2023150D01*
Y0204425D01*
Y0204325D01*
Y0204225D01*
Y0204125D01*
Y0204025D01*
X2023250D01*
Y0203925D01*
Y0203825D01*
Y0203725D01*
X2023350D01*
Y0203625D01*
Y0203525D01*
X2023450D01*
Y0203425D01*
X2023550D01*
Y0203325D01*
X2023650D01*
Y0203225D01*
X2023850D01*
Y0203125D01*
X2024050D01*
Y0203025D01*
X2024450D01*
Y0202925D01*
X2025850D01*
Y0203025D01*
X2026250D01*
Y0203125D01*
X2026450D01*
Y0203225D01*
X2026550D01*
Y0203325D01*
X2026650D01*
Y0203425D01*
X2026750D01*
Y0203525D01*
X2026850D01*
Y0203625D01*
X2026950D01*
Y0203725D01*
Y0203825D01*
Y0203925D01*
X2027050D01*
Y0204025D01*
Y0204125D01*
Y0204225D01*
Y0204325D01*
X2027150D01*
Y0204425D01*
Y0204525D01*
Y0204625D01*
Y0204725D01*
Y0204825D01*
Y0204925D01*
Y0205025D01*
Y0205125D01*
Y0205225D01*
Y0205325D01*
Y0205425D01*
Y0205525D01*
Y0205625D01*
Y0205725D01*
Y0205825D01*
Y0205925D01*
Y0206025D01*
Y0206125D01*
Y0206225D01*
Y0206325D01*
Y0206425D01*
Y0206525D01*
Y0206625D01*
Y0206725D01*
Y0206825D01*
Y0206925D01*
Y0207025D01*
Y0207125D01*
Y0207225D01*
Y0207325D01*
Y0207425D01*
Y0207525D01*
Y0207625D01*
Y0207725D01*
Y0207825D01*
Y0207925D01*
Y0208025D01*
Y0208125D01*
Y0208225D01*
Y0208325D01*
Y0208425D01*
Y0208525D01*
Y0208625D01*
Y0208725D01*
Y0208825D01*
Y0208925D01*
X2027050D01*
Y0209025D01*
Y0209125D01*
Y0209225D01*
X2026950D01*
Y0209325D01*
Y0209425D01*
X2026850D01*
Y0209525D01*
X2026650D01*
Y0209625D01*
X2026350D01*
Y0209725D01*
Y0209825D01*
Y0209925D01*
X2028950D01*
Y0209825D01*
D02*
G37*
G36*
X1989850Y0212225D02*
Y0212125D01*
X1989750D01*
Y0212025D01*
X1989450D01*
Y0211925D01*
X1989250D01*
Y0211825D01*
X1989150D01*
Y0211725D01*
X1989050D01*
Y0211625D01*
Y0211525D01*
Y0211425D01*
X1988950D01*
Y0211325D01*
Y0211225D01*
Y0211125D01*
Y0211025D01*
Y0210925D01*
Y0210825D01*
Y0210725D01*
Y0210625D01*
Y0210525D01*
Y0210425D01*
Y0210325D01*
Y0210225D01*
Y0210125D01*
Y0210025D01*
Y0209925D01*
Y0209825D01*
Y0209725D01*
Y0209625D01*
Y0209525D01*
Y0209425D01*
Y0209325D01*
Y0209225D01*
Y0209125D01*
Y0209025D01*
Y0208925D01*
Y0208825D01*
Y0208725D01*
Y0208625D01*
Y0208525D01*
Y0208425D01*
Y0208325D01*
Y0208225D01*
Y0208125D01*
Y0208025D01*
Y0207925D01*
Y0207825D01*
Y0207725D01*
Y0207625D01*
Y0207525D01*
Y0207425D01*
Y0207325D01*
Y0207225D01*
Y0207125D01*
Y0207025D01*
Y0206925D01*
Y0206825D01*
Y0206725D01*
Y0206625D01*
Y0206525D01*
Y0206425D01*
Y0206325D01*
Y0206225D01*
Y0206125D01*
Y0206025D01*
Y0205925D01*
Y0205825D01*
Y0205725D01*
Y0205625D01*
Y0205525D01*
Y0205425D01*
Y0205325D01*
Y0205225D01*
Y0205125D01*
Y0205025D01*
Y0204925D01*
Y0204825D01*
Y0204725D01*
Y0204625D01*
Y0204525D01*
Y0204425D01*
Y0204325D01*
Y0204225D01*
Y0204125D01*
Y0204025D01*
Y0203925D01*
Y0203825D01*
Y0203725D01*
Y0203625D01*
Y0203525D01*
Y0203425D01*
Y0203325D01*
Y0203225D01*
Y0203125D01*
Y0203025D01*
X1989050D01*
Y0202925D01*
Y0202825D01*
Y0202725D01*
X1989150D01*
Y0202625D01*
X1989250D01*
Y0202525D01*
X1989450D01*
Y0202425D01*
X1989750D01*
Y0202325D01*
X1989850D01*
Y0202225D01*
Y0202125D01*
Y0202025D01*
X1986250D01*
Y0202125D01*
Y0202225D01*
Y0202325D01*
X1986350D01*
Y0202425D01*
X1986650D01*
Y0202525D01*
X1986850D01*
Y0202625D01*
X1986950D01*
Y0202725D01*
Y0202825D01*
X1987050D01*
Y0202925D01*
Y0203025D01*
Y0203125D01*
X1987150D01*
Y0203225D01*
Y0203325D01*
Y0203425D01*
Y0203525D01*
Y0203625D01*
Y0203725D01*
Y0203825D01*
Y0203925D01*
Y0204025D01*
Y0204125D01*
Y0204225D01*
Y0204325D01*
Y0204425D01*
Y0204525D01*
Y0204625D01*
Y0204725D01*
Y0204825D01*
Y0204925D01*
Y0205025D01*
Y0205125D01*
Y0205225D01*
Y0205325D01*
Y0205425D01*
Y0205525D01*
Y0205625D01*
Y0205725D01*
Y0205825D01*
Y0205925D01*
Y0206025D01*
Y0206125D01*
Y0206225D01*
Y0206325D01*
Y0206425D01*
Y0206525D01*
Y0206625D01*
Y0206725D01*
Y0206825D01*
Y0206925D01*
Y0207025D01*
Y0207125D01*
Y0207225D01*
Y0207325D01*
Y0207425D01*
Y0207525D01*
Y0207625D01*
Y0207725D01*
Y0207825D01*
Y0207925D01*
Y0208025D01*
Y0208125D01*
Y0208225D01*
Y0208325D01*
Y0208425D01*
Y0208525D01*
Y0208625D01*
Y0208725D01*
Y0208825D01*
Y0208925D01*
Y0209025D01*
Y0209125D01*
Y0209225D01*
Y0209325D01*
Y0209425D01*
Y0209525D01*
Y0209625D01*
Y0209725D01*
Y0209825D01*
Y0209925D01*
Y0210025D01*
Y0210125D01*
Y0210225D01*
Y0210325D01*
Y0210425D01*
Y0210525D01*
Y0210625D01*
Y0210725D01*
Y0210825D01*
Y0210925D01*
Y0211025D01*
Y0211125D01*
Y0211225D01*
Y0211325D01*
X1987050D01*
Y0211425D01*
Y0211525D01*
Y0211625D01*
X1986950D01*
Y0211725D01*
Y0211825D01*
X1986750D01*
Y0211925D01*
X1986650D01*
Y0212025D01*
X1986350D01*
Y0212125D01*
X1986250D01*
Y0212225D01*
Y0212325D01*
X1989850D01*
Y0212225D01*
D02*
G37*
G36*
X2017750Y0209825D02*
X2018250D01*
Y0209725D01*
X2018650D01*
Y0209625D01*
X2018850D01*
Y0209525D01*
X2019050D01*
Y0209425D01*
X2019150D01*
Y0209325D01*
X2019350D01*
Y0209225D01*
X2019450D01*
Y0209125D01*
X2019550D01*
Y0209025D01*
X2019650D01*
Y0208925D01*
Y0208825D01*
X2019750D01*
Y0208725D01*
Y0208625D01*
X2019850D01*
Y0208525D01*
Y0208425D01*
Y0208325D01*
X2019950D01*
Y0208225D01*
Y0208125D01*
Y0208025D01*
Y0207925D01*
Y0207825D01*
Y0207725D01*
Y0207625D01*
Y0207525D01*
Y0207425D01*
Y0207325D01*
Y0207225D01*
X2019850D01*
Y0207125D01*
Y0207025D01*
Y0206925D01*
X2019750D01*
Y0206825D01*
Y0206725D01*
X2019650D01*
Y0206625D01*
Y0206525D01*
X2019550D01*
Y0206425D01*
X2019450D01*
Y0206325D01*
X2019350D01*
Y0206225D01*
X2019150D01*
Y0206125D01*
X2019050D01*
Y0206025D01*
X2018850D01*
Y0205925D01*
X2018650D01*
Y0205825D01*
X2018350D01*
Y0205725D01*
X2017950D01*
Y0205625D01*
X2018150D01*
Y0205525D01*
X2018350D01*
Y0205425D01*
X2018550D01*
Y0205325D01*
X2018650D01*
Y0205225D01*
X2018750D01*
Y0205125D01*
X2018850D01*
Y0205025D01*
X2018950D01*
Y0204925D01*
X2019050D01*
Y0204825D01*
X2019150D01*
Y0204725D01*
X2019250D01*
Y0204625D01*
Y0204525D01*
X2019350D01*
Y0204425D01*
X2019450D01*
Y0204325D01*
Y0204225D01*
X2019550D01*
Y0204125D01*
Y0204025D01*
X2019650D01*
Y0203925D01*
X2019750D01*
Y0203825D01*
Y0203725D01*
X2019850D01*
Y0203625D01*
Y0203525D01*
X2019950D01*
Y0203425D01*
X2020050D01*
Y0203325D01*
Y0203225D01*
X2020150D01*
Y0203125D01*
X2020250D01*
Y0203025D01*
X2020350D01*
Y0202925D01*
X2020450D01*
Y0202825D01*
X2020550D01*
Y0202725D01*
X2020650D01*
Y0202625D01*
X2020850D01*
Y0202525D01*
X2021150D01*
Y0202425D01*
X2021350D01*
Y0202325D01*
Y0202225D01*
Y0202125D01*
X2021150D01*
Y0202025D01*
X2020850D01*
Y0201925D01*
X2019650D01*
Y0202025D01*
X2019250D01*
Y0202125D01*
X2019050D01*
Y0202225D01*
X2018850D01*
Y0202325D01*
X2018650D01*
Y0202425D01*
X2018550D01*
Y0202525D01*
X2018450D01*
Y0202625D01*
X2018350D01*
Y0202725D01*
X2018250D01*
Y0202825D01*
X2018150D01*
Y0202925D01*
Y0203025D01*
X2018050D01*
Y0203125D01*
X2017950D01*
Y0203225D01*
Y0203325D01*
X2017850D01*
Y0203425D01*
Y0203525D01*
X2017750D01*
Y0203625D01*
Y0203725D01*
X2017650D01*
Y0203825D01*
Y0203925D01*
X2017550D01*
Y0204025D01*
Y0204125D01*
X2017450D01*
Y0204225D01*
Y0204325D01*
X2017350D01*
Y0204425D01*
Y0204525D01*
X2017250D01*
Y0204625D01*
Y0204725D01*
X2017150D01*
Y0204825D01*
X2017050D01*
Y0204925D01*
X2016950D01*
Y0205025D01*
X2016850D01*
Y0205125D01*
X2016750D01*
Y0205225D01*
X2016450D01*
Y0205325D01*
X2015250D01*
Y0205225D01*
Y0205125D01*
Y0205025D01*
Y0204925D01*
Y0204825D01*
Y0204725D01*
Y0204625D01*
Y0204525D01*
Y0204425D01*
Y0204325D01*
Y0204225D01*
Y0204125D01*
Y0204025D01*
Y0203925D01*
Y0203825D01*
Y0203725D01*
Y0203625D01*
Y0203525D01*
Y0203425D01*
Y0203325D01*
Y0203225D01*
Y0203125D01*
Y0203025D01*
Y0202925D01*
X2015350D01*
Y0202825D01*
Y0202725D01*
Y0202625D01*
X2015450D01*
Y0202525D01*
X2015650D01*
Y0202425D01*
X2015950D01*
Y0202325D01*
X2016050D01*
Y0202225D01*
Y0202125D01*
Y0202025D01*
X2012750D01*
Y0202125D01*
Y0202225D01*
Y0202325D01*
X2012850D01*
Y0202425D01*
X2013150D01*
Y0202525D01*
X2013250D01*
Y0202625D01*
X2013350D01*
Y0202725D01*
Y0202825D01*
X2013450D01*
Y0202925D01*
Y0203025D01*
Y0203125D01*
Y0203225D01*
Y0203325D01*
Y0203425D01*
Y0203525D01*
Y0203625D01*
Y0203725D01*
Y0203825D01*
Y0203925D01*
Y0204025D01*
Y0204125D01*
Y0204225D01*
Y0204325D01*
Y0204425D01*
Y0204525D01*
Y0204625D01*
Y0204725D01*
Y0204825D01*
Y0204925D01*
Y0205025D01*
Y0205125D01*
Y0205225D01*
Y0205325D01*
Y0205425D01*
Y0205525D01*
Y0205625D01*
Y0205725D01*
Y0205825D01*
Y0205925D01*
Y0206025D01*
Y0206125D01*
Y0206225D01*
Y0206325D01*
Y0206425D01*
Y0206525D01*
Y0206625D01*
Y0206725D01*
Y0206825D01*
Y0206925D01*
Y0207025D01*
Y0207125D01*
Y0207225D01*
Y0207325D01*
Y0207425D01*
Y0207525D01*
Y0207625D01*
Y0207725D01*
Y0207825D01*
Y0207925D01*
Y0208025D01*
Y0208125D01*
Y0208225D01*
Y0208325D01*
Y0208425D01*
Y0208525D01*
Y0208625D01*
Y0208725D01*
Y0208825D01*
Y0208925D01*
Y0209025D01*
Y0209125D01*
Y0209225D01*
X2013350D01*
Y0209325D01*
X2013250D01*
Y0209425D01*
X2013150D01*
Y0209525D01*
X2012950D01*
Y0209625D01*
X2012750D01*
Y0209725D01*
Y0209825D01*
Y0209925D01*
X2017750D01*
Y0209825D01*
D02*
G37*
%LPC*%
G36*
X2009550Y0220425D02*
X2009450D01*
Y0220325D01*
Y0220225D01*
Y0220125D01*
X2009350D01*
Y0220025D01*
Y0219925D01*
X2009250D01*
Y0219825D01*
Y0219725D01*
Y0219625D01*
X2009150D01*
Y0219525D01*
Y0219425D01*
Y0219325D01*
X2009050D01*
Y0219225D01*
Y0219125D01*
X2008950D01*
Y0219025D01*
Y0218925D01*
Y0218825D01*
X2008850D01*
Y0218725D01*
Y0218625D01*
Y0218525D01*
X2008750D01*
Y0218425D01*
Y0218325D01*
X2008650D01*
Y0218225D01*
Y0218125D01*
Y0218025D01*
X2008550D01*
Y0217925D01*
Y0217825D01*
X2008450D01*
Y0217725D01*
Y0217625D01*
Y0217525D01*
X2008350D01*
Y0217425D01*
Y0217325D01*
Y0217225D01*
X2008250D01*
Y0217125D01*
X2010750D01*
Y0217225D01*
Y0217325D01*
X2010650D01*
Y0217425D01*
Y0217525D01*
Y0217625D01*
X2010550D01*
Y0217725D01*
Y0217825D01*
X2010450D01*
Y0217925D01*
Y0218025D01*
Y0218125D01*
X2010350D01*
Y0218225D01*
Y0218325D01*
Y0218425D01*
X2010250D01*
Y0218525D01*
Y0218625D01*
X2010150D01*
Y0218725D01*
Y0218825D01*
Y0218925D01*
X2010050D01*
Y0219025D01*
Y0219125D01*
Y0219225D01*
X2009950D01*
Y0219325D01*
Y0219425D01*
Y0219525D01*
X2009850D01*
Y0219625D01*
Y0219725D01*
X2009750D01*
Y0219825D01*
Y0219925D01*
Y0220025D01*
X2009650D01*
Y0220125D01*
Y0220225D01*
Y0220325D01*
X2009550D01*
Y0220425D01*
D02*
G37*
G36*
X2017250Y0208925D02*
X2015350D01*
Y0208825D01*
Y0208725D01*
X2015250D01*
Y0208625D01*
Y0208525D01*
Y0208425D01*
Y0208325D01*
Y0208225D01*
Y0208125D01*
Y0208025D01*
Y0207925D01*
Y0207825D01*
Y0207725D01*
Y0207625D01*
Y0207525D01*
Y0207425D01*
Y0207325D01*
Y0207225D01*
Y0207125D01*
Y0207025D01*
Y0206925D01*
Y0206825D01*
Y0206725D01*
Y0206625D01*
Y0206525D01*
Y0206425D01*
Y0206325D01*
Y0206225D01*
X2016950D01*
Y0206325D01*
X2017250D01*
Y0206425D01*
X2017450D01*
Y0206525D01*
X2017650D01*
Y0206625D01*
X2017750D01*
Y0206725D01*
X2017850D01*
Y0206825D01*
Y0206925D01*
X2017950D01*
Y0207025D01*
Y0207125D01*
X2018050D01*
Y0207225D01*
Y0207325D01*
Y0207425D01*
Y0207525D01*
Y0207625D01*
X2018150D01*
Y0207725D01*
Y0207825D01*
X2018050D01*
Y0207925D01*
Y0208025D01*
Y0208125D01*
Y0208225D01*
X2017950D01*
Y0208325D01*
Y0208425D01*
X2017850D01*
Y0208525D01*
X2017750D01*
Y0208625D01*
X2017650D01*
Y0208725D01*
X2017550D01*
Y0208825D01*
X2017250D01*
Y0208925D01*
D02*
G37*
%LPD*%
G54D11*
X2021600Y0047717D02*
X2023933D01*
X2022766D01*
Y0054715D01*
X2021600Y0053549D01*
X2027431D02*
X2028598Y0054715D01*
X2030930D01*
X2032097Y0053549D01*
Y0052382D01*
X2030930Y0051216D01*
X2032097Y0050050D01*
Y0048884D01*
X2030930Y0047717D01*
X2028598D01*
X2027431Y0048884D01*
Y0050050D01*
X2028598Y0051216D01*
X2027431Y0052382D01*
Y0053549D01*
X2028598Y0051216D02*
X2030930D01*
X2034429Y0047717D02*
Y0048884D01*
X2035596D01*
Y0047717D01*
X2034429D01*
X2040261D02*
X2042593D01*
X2041427D01*
Y0054715D01*
X2040261Y0053549D01*
X2046092Y0047717D02*
Y0048884D01*
X2047258D01*
Y0047717D01*
X2046092D01*
X2051924Y0048884D02*
X2053090Y0047717D01*
X2055422D01*
X2056589Y0048884D01*
Y0053549D01*
X2055422Y0054715D01*
X2053090D01*
X2051924Y0053549D01*
Y0052382D01*
X2053090Y0051216D01*
X2056589D01*
X2058921Y0047717D02*
Y0048884D01*
X2060088D01*
Y0047717D01*
X2058921D01*
X2069418D02*
X2064753D01*
X2069418Y0052382D01*
Y0053549D01*
X2068252Y0054715D01*
X2065919D01*
X2064753Y0053549D01*
X2075249Y0047717D02*
Y0054715D01*
X2071750Y0051216D01*
X2076416D01*
X2078748Y0053549D02*
X2079914Y0054715D01*
X2082247D01*
X2083413Y0053549D01*
Y0048884D01*
X2082247Y0047717D01*
X2079914D01*
X2078748Y0048884D01*
Y0053549D01*
X1871050Y0137050D02*
Y0144048D01*
X1874549D01*
X1875715Y0142881D01*
Y0140549D01*
X1874549Y0139383D01*
X1871050D01*
X1878048Y0141715D02*
Y0138216D01*
X1879214Y0137050D01*
X1882713D01*
Y0141715D01*
X1885045Y0144048D02*
Y0137050D01*
X1888544D01*
X1889711Y0138216D01*
Y0139383D01*
Y0140549D01*
X1888544Y0141715D01*
X1885045D01*
X1892043Y0137050D02*
X1894376D01*
X1893209D01*
Y0144048D01*
X1892043D01*
X1897875Y0137050D02*
X1900207D01*
X1899041D01*
Y0141715D01*
X1897875D01*
X1908371D02*
X1904872D01*
X1903706Y0140549D01*
Y0138216D01*
X1904872Y0137050D01*
X1908371D01*
X1917702D02*
Y0144048D01*
X1921201D01*
X1922367Y0142881D01*
Y0140549D01*
X1921201Y0139383D01*
X1917702D01*
X1920034D02*
X1922367Y0137050D01*
X1928198D02*
X1925866D01*
X1924699Y0138216D01*
Y0140549D01*
X1925866Y0141715D01*
X1928198D01*
X1929365Y0140549D01*
Y0139383D01*
X1924699D01*
X1931697Y0137050D02*
X1934030D01*
X1932863D01*
Y0144048D01*
X1931697D01*
X1941027Y0137050D02*
X1938695D01*
X1937528Y0138216D01*
Y0140549D01*
X1938695Y0141715D01*
X1941027D01*
X1942194Y0140549D01*
Y0139383D01*
X1937528D01*
X1945693Y0141715D02*
X1948025D01*
X1949191Y0140549D01*
Y0137050D01*
X1945693D01*
X1944526Y0138216D01*
X1945693Y0139383D01*
X1949191D01*
X1951524Y0137050D02*
X1955023D01*
X1956189Y0138216D01*
X1955023Y0139383D01*
X1952690D01*
X1951524Y0140549D01*
X1952690Y0141715D01*
X1956189D01*
X1962021Y0137050D02*
X1959688D01*
X1958522Y0138216D01*
Y0140549D01*
X1959688Y0141715D01*
X1962021D01*
X1963187Y0140549D01*
Y0139383D01*
X1958522D01*
X1871050Y0083548D02*
Y0076551D01*
X1874549D01*
X1875715Y0077717D01*
Y0078883D01*
X1874549Y0080050D01*
X1871050D01*
X1874549D01*
X1875715Y0081216D01*
Y0082382D01*
X1874549Y0083548D01*
X1871050D01*
X1879214Y0081216D02*
X1881547D01*
X1882713Y0080050D01*
Y0076551D01*
X1879214D01*
X1878048Y0077717D01*
X1879214Y0078883D01*
X1882713D01*
X1885045Y0081216D02*
Y0076551D01*
Y0078883D01*
X1886212Y0080050D01*
X1887378Y0081216D01*
X1888544D01*
X1893209Y0082382D02*
Y0081216D01*
X1892043D01*
X1894376D01*
X1893209D01*
Y0077717D01*
X1894376Y0076551D01*
X1904872Y0083548D02*
Y0076551D01*
X1908371D01*
X1909538Y0077717D01*
Y0078883D01*
X1908371Y0080050D01*
X1904872D01*
X1908371D01*
X1909538Y0081216D01*
Y0082382D01*
X1908371Y0083548D01*
X1904872D01*
X1913036Y0081216D02*
X1915369D01*
X1916535Y0080050D01*
Y0076551D01*
X1913036D01*
X1911870Y0077717D01*
X1913036Y0078883D01*
X1916535D01*
X1918868Y0076551D02*
X1922367D01*
X1923533Y0077717D01*
X1922367Y0078883D01*
X1920034D01*
X1918868Y0080050D01*
X1920034Y0081216D01*
X1923533D01*
X1925866Y0076551D02*
X1928198D01*
X1927032D01*
Y0081216D01*
X1925866D01*
X1931697Y0076551D02*
X1934030D01*
X1932863D01*
Y0083548D01*
X1931697D01*
X1941027Y0076551D02*
X1938695D01*
X1937528Y0077717D01*
Y0080050D01*
X1938695Y0081216D01*
X1941027D01*
X1942194Y0080050D01*
Y0078883D01*
X1937528D01*
X1871050Y0116048D02*
X1875715D01*
X1873383D01*
Y0109050D01*
X1878048Y0116048D02*
X1880380D01*
X1879214D01*
Y0109050D01*
X1878048D01*
X1880380D01*
X1883879Y0116048D02*
Y0109050D01*
X1887378D01*
X1888544Y0110216D01*
Y0114881D01*
X1887378Y0116048D01*
X1883879D01*
X1890877Y0109050D02*
Y0113715D01*
X1893209Y0116048D01*
X1895542Y0113715D01*
Y0109050D01*
Y0112549D01*
X1890877D01*
X1897875D02*
X1902540D01*
X1904872Y0114881D02*
X1906039Y0116048D01*
X1908371D01*
X1909538Y0114881D01*
Y0110216D01*
X1908371Y0109050D01*
X1906039D01*
X1904872Y0110216D01*
Y0114881D01*
X1911870Y0109050D02*
X1914203D01*
X1913036D01*
Y0116048D01*
X1911870Y0114881D01*
X1922367Y0116048D02*
X1920034Y0114881D01*
X1917702Y0112549D01*
Y0110216D01*
X1918868Y0109050D01*
X1921201D01*
X1922367Y0110216D01*
Y0111383D01*
X1921201Y0112549D01*
X1917702D01*
X1924699Y0114881D02*
X1925866Y0116048D01*
X1928198D01*
X1929365Y0114881D01*
Y0110216D01*
X1928198Y0109050D01*
X1925866D01*
X1924699Y0110216D01*
Y0114881D01*
X1936362Y0116048D02*
X1934030Y0114881D01*
X1931697Y0112549D01*
Y0110216D01*
X1932863Y0109050D01*
X1935196D01*
X1936362Y0110216D01*
Y0111383D01*
X1935196Y0112549D01*
X1931697D01*
X1943360Y0116048D02*
X1938695D01*
Y0109050D01*
X1943360D01*
X1938695Y0112549D02*
X1941027D01*
X1949191Y0109050D02*
Y0116048D01*
X1945693Y0112549D01*
X1950358D01*
X1952690Y0107884D02*
X1957355D01*
X1959688Y0109050D02*
Y0116048D01*
X1963187D01*
X1964353Y0114881D01*
Y0112549D01*
X1963187Y0111383D01*
X1959688D01*
X1970185Y0116048D02*
X1967852D01*
X1966686Y0114881D01*
Y0110216D01*
X1967852Y0109050D01*
X1970185D01*
X1971351Y0110216D01*
Y0114881D01*
X1970185Y0116048D01*
X1973684D02*
Y0109050D01*
X1976016Y0111383D01*
X1978349Y0109050D01*
Y0116048D01*
X1985346D02*
X1980681D01*
Y0109050D01*
X1985346D01*
X1980681Y0112549D02*
X1983014D01*
X1987679Y0109050D02*
Y0116048D01*
X1991178D01*
X1992344Y0114881D01*
Y0112549D01*
X1991178Y0111383D01*
X1987679D01*
X1990012D02*
X1992344Y0109050D01*
X1999342Y0114881D02*
X1998176Y0116048D01*
X1995843D01*
X1994677Y0114881D01*
Y0110216D01*
X1995843Y0109050D01*
X1998176D01*
X1999342Y0110216D01*
X2001674Y0109050D02*
Y0113715D01*
X2004007Y0116048D01*
X2006340Y0113715D01*
Y0109050D01*
Y0112549D01*
X2001674D01*
X2008672Y0109050D02*
Y0116048D01*
X2012171D01*
X2013337Y0114881D01*
Y0112549D01*
X2012171Y0111383D01*
X2008672D01*
X2011005D02*
X2013337Y0109050D01*
X2015670Y0116048D02*
Y0109050D01*
X2019169D01*
X2020335Y0110216D01*
Y0114881D01*
X2019169Y0116048D01*
X2015670D01*
X2022668Y0109050D02*
Y0110216D01*
X2023834D01*
Y0109050D01*
X2022668D01*
X2028499D02*
Y0116048D01*
X2031998D01*
X2033164Y0114881D01*
Y0112549D01*
X2031998Y0111383D01*
X2028499D01*
X2040162Y0113715D02*
X2036663D01*
X2035497Y0112549D01*
Y0110216D01*
X2036663Y0109050D01*
X2040162D01*
X2042495Y0116048D02*
Y0109050D01*
X2045993D01*
X2047160Y0110216D01*
Y0111383D01*
Y0112549D01*
X2045993Y0113715D01*
X2042495D01*
X2049492Y0116048D02*
Y0109050D01*
X2052991D01*
X2054157Y0110216D01*
Y0114881D01*
X2052991Y0116048D01*
X2049492D01*
X2057656Y0109050D02*
X2059989D01*
X2061155Y0110216D01*
Y0112549D01*
X2059989Y0113715D01*
X2057656D01*
X2056490Y0112549D01*
Y0110216D01*
X2057656Y0109050D01*
X2068153Y0113715D02*
X2064654D01*
X2063488Y0112549D01*
Y0110216D01*
X2064654Y0109050D01*
X2068153D01*
X1871050Y0167817D02*
X1873383D01*
X1872216D01*
Y0174815D01*
X1871050Y0173649D01*
X1876881D02*
X1878048Y0174815D01*
X1880380D01*
X1881547Y0173649D01*
Y0168984D01*
X1880380Y0167817D01*
X1878048D01*
X1876881Y0168984D01*
Y0173649D01*
X1883879Y0174815D02*
Y0167817D01*
Y0170150D01*
X1888544Y0174815D01*
X1885045Y0171316D01*
X1888544Y0167817D01*
X1890877Y0174815D02*
Y0167817D01*
X1893209Y0170150D01*
X1895542Y0167817D01*
Y0174815D01*
X1904872D02*
X1907205D01*
X1906039D01*
Y0167817D01*
X1904872D01*
X1907205D01*
X1910704D02*
Y0172483D01*
X1914203D01*
X1915369Y0171316D01*
Y0167817D01*
X1917702Y0172483D02*
X1920034Y0167817D01*
X1922367Y0172483D01*
X1928198Y0167817D02*
X1925866D01*
X1924699Y0168984D01*
Y0171316D01*
X1925866Y0172483D01*
X1928198D01*
X1929365Y0171316D01*
Y0170150D01*
X1924699D01*
X1931697Y0172483D02*
Y0167817D01*
Y0170150D01*
X1932863Y0171316D01*
X1934030Y0172483D01*
X1935196D01*
X1939861Y0173649D02*
Y0172483D01*
X1938695D01*
X1941027D01*
X1939861D01*
Y0168984D01*
X1941027Y0167817D01*
X1948025D02*
X1945693D01*
X1944526Y0168984D01*
Y0171316D01*
X1945693Y0172483D01*
X1948025D01*
X1949191Y0171316D01*
Y0170150D01*
X1944526D01*
X1951524Y0172483D02*
Y0167817D01*
Y0170150D01*
X1952690Y0171316D01*
X1953857Y0172483D01*
X1955023D01*
X2021600Y0083548D02*
Y0076551D01*
X2025099D01*
X2026265Y0077717D01*
Y0078883D01*
X2025099Y0080050D01*
X2021600D01*
X2025099D01*
X2026265Y0081216D01*
Y0082382D01*
X2025099Y0083548D01*
X2021600D01*
X2029764Y0081216D02*
X2032097D01*
X2033263Y0080050D01*
Y0076551D01*
X2029764D01*
X2028598Y0077717D01*
X2029764Y0078883D01*
X2033263D01*
X2035596Y0081216D02*
Y0076551D01*
Y0078883D01*
X2036762Y0080050D01*
X2037928Y0081216D01*
X2039094D01*
X2043760Y0082382D02*
Y0081216D01*
X2042593D01*
X2044926D01*
X2043760D01*
Y0077717D01*
X2044926Y0076551D01*
X2055422Y0083548D02*
Y0076551D01*
X2058921D01*
X2060088Y0077717D01*
Y0078883D01*
X2058921Y0080050D01*
X2055422D01*
X2058921D01*
X2060088Y0081216D01*
Y0082382D01*
X2058921Y0083548D01*
X2055422D01*
X2063586Y0081216D02*
X2065919D01*
X2067085Y0080050D01*
Y0076551D01*
X2063586D01*
X2062420Y0077717D01*
X2063586Y0078883D01*
X2067085D01*
X2069418Y0076551D02*
X2072917D01*
X2074083Y0077717D01*
X2072917Y0078883D01*
X2070584D01*
X2069418Y0080050D01*
X2070584Y0081216D01*
X2074083D01*
X2076416Y0076551D02*
X2078748D01*
X2077582D01*
Y0081216D01*
X2076416D01*
X2082247Y0076551D02*
X2084580D01*
X2083413D01*
Y0083548D01*
X2082247D01*
X2091577Y0076551D02*
X2089245D01*
X2088078Y0077717D01*
Y0080050D01*
X2089245Y0081216D01*
X2091577D01*
X2092744Y0080050D01*
Y0078883D01*
X2088078D01*
X0706600Y0097365D02*
X0709599D01*
X0708100D01*
Y0092866D01*
X0713348D02*
X0711848D01*
X0711098Y0093616D01*
Y0095115D01*
X0711848Y0095865D01*
X0713348D01*
X0714098Y0095115D01*
Y0094366D01*
X0711098D01*
X0715597Y0095865D02*
X0718596Y0092866D01*
X0717097Y0094366D01*
X0718596Y0095865D01*
X0715597Y0092866D01*
X0720845Y0095865D02*
X0722345D01*
X0723095Y0095115D01*
Y0092866D01*
X0720845D01*
X0720096Y0093616D01*
X0720845Y0094366D01*
X0723095D01*
X0724594Y0092866D02*
X0726844D01*
X0727593Y0093616D01*
X0726844Y0094366D01*
X0725344D01*
X0724594Y0095115D01*
X0725344Y0095865D01*
X0727593D01*
X0733591Y0097365D02*
X0735091D01*
X0734341D01*
Y0092866D01*
X0733591D01*
X0735091D01*
X0737340D02*
Y0095865D01*
X0739589D01*
X0740339Y0095115D01*
Y0092866D01*
X0741839D02*
X0744088D01*
X0744838Y0093616D01*
X0744088Y0094366D01*
X0742588D01*
X0741839Y0095115D01*
X0742588Y0095865D01*
X0744838D01*
X0747087Y0096615D02*
Y0095865D01*
X0746337D01*
X0747837D01*
X0747087D01*
Y0093616D01*
X0747837Y0092866D01*
X0750086Y0095865D02*
Y0092866D01*
Y0094366D01*
X0750836Y0095115D01*
X0751585Y0095865D01*
X0752335D01*
X0754585D02*
Y0093616D01*
X0755334Y0092866D01*
X0757584D01*
Y0095865D01*
X0759083Y0092866D02*
Y0095865D01*
X0759833D01*
X0760583Y0095115D01*
Y0092866D01*
Y0095115D01*
X0761332Y0095865D01*
X0762082Y0095115D01*
Y0092866D01*
X0765831D02*
X0764331D01*
X0763582Y0093616D01*
Y0095115D01*
X0764331Y0095865D01*
X0765831D01*
X0766581Y0095115D01*
Y0094366D01*
X0763582D01*
X0768080Y0092866D02*
Y0095865D01*
X0770329D01*
X0771079Y0095115D01*
Y0092866D01*
X0773328Y0096615D02*
Y0095865D01*
X0772579D01*
X0774078D01*
X0773328D01*
Y0093616D01*
X0774078Y0092866D01*
X0776328D02*
X0778577D01*
X0779327Y0093616D01*
X0778577Y0094366D01*
X0777077D01*
X0776328Y0095115D01*
X0777077Y0095865D01*
X0779327D01*
X0786824Y0092866D02*
X0785325Y0094366D01*
Y0095865D01*
X0786824Y0097365D01*
X0789073D02*
X0792072D01*
X0790573D01*
Y0092866D01*
X0793572Y0097365D02*
X0795072D01*
X0794322D01*
Y0092866D01*
X0793572D01*
X0795072D01*
X0797321D02*
X0798820Y0094366D01*
Y0095865D01*
X0797321Y0097365D01*
X0806318Y0095865D02*
X0807817D01*
X0808567Y0095115D01*
Y0092866D01*
X0806318D01*
X0805568Y0093616D01*
X0806318Y0094366D01*
X0808567D01*
X0810067Y0092866D02*
Y0095865D01*
X0812316D01*
X0813066Y0095115D01*
Y0092866D01*
X0817564Y0097365D02*
Y0092866D01*
X0815315D01*
X0814565Y0093616D01*
Y0095115D01*
X0815315Y0095865D01*
X0817564D01*
X0819064Y0092866D02*
X0822063Y0095865D01*
X0824312Y0092866D02*
X0825812D01*
X0826561Y0093616D01*
Y0095115D01*
X0825812Y0095865D01*
X0824312D01*
X0823562Y0095115D01*
Y0093616D01*
X0824312Y0092866D01*
X0828061Y0095865D02*
Y0092866D01*
Y0094366D01*
X0828811Y0095115D01*
X0829560Y0095865D01*
X0830310D01*
X0837058Y0092866D02*
X0838558D01*
X0837808D01*
Y0095865D01*
X0837058D01*
X0841556Y0096615D02*
Y0095865D01*
X0840807D01*
X0842306D01*
X0841556D01*
Y0093616D01*
X0842306Y0092866D01*
X0844555D02*
X0846805D01*
X0847555Y0093616D01*
X0846805Y0094366D01*
X0845305D01*
X0844555Y0095115D01*
X0845305Y0095865D01*
X0847555D01*
X0853553Y0092866D02*
X0855052D01*
X0854302D01*
Y0097365D01*
X0853553D01*
X0857301Y0092866D02*
X0858801D01*
X0858051D01*
Y0095865D01*
X0857301D01*
X0864049D02*
X0861800D01*
X0861050Y0095115D01*
Y0093616D01*
X0861800Y0092866D01*
X0864049D01*
X0867798D02*
X0866298D01*
X0865549Y0093616D01*
Y0095115D01*
X0866298Y0095865D01*
X0867798D01*
X0868548Y0095115D01*
Y0094366D01*
X0865549D01*
X0870047Y0092866D02*
Y0095865D01*
X0872297D01*
X0873046Y0095115D01*
Y0092866D01*
X0874546D02*
X0876795D01*
X0877545Y0093616D01*
X0876795Y0094366D01*
X0875296D01*
X0874546Y0095115D01*
X0875296Y0095865D01*
X0877545D01*
X0879794Y0092866D02*
X0881294D01*
X0882043Y0093616D01*
Y0095115D01*
X0881294Y0095865D01*
X0879794D01*
X0879044Y0095115D01*
Y0093616D01*
X0879794Y0092866D01*
X0883543Y0095865D02*
Y0092866D01*
Y0094366D01*
X0884293Y0095115D01*
X0885042Y0095865D01*
X0885792D01*
X0888041Y0092866D02*
X0890291D01*
X0891041Y0093616D01*
X0890291Y0094366D01*
X0888791D01*
X0888041Y0095115D01*
X0888791Y0095865D01*
X0891041D01*
X0900038Y0097365D02*
Y0092866D01*
X0897788D01*
X0897039Y0093616D01*
Y0095115D01*
X0897788Y0095865D01*
X0900038D01*
X0902287Y0092866D02*
X0903786D01*
X0904536Y0093616D01*
Y0095115D01*
X0903786Y0095865D01*
X0902287D01*
X0901537Y0095115D01*
Y0093616D01*
X0902287Y0092866D01*
X0910534D02*
Y0095865D01*
X0912784D01*
X0913533Y0095115D01*
Y0092866D01*
X0915783D02*
X0917282D01*
X0918032Y0093616D01*
Y0095115D01*
X0917282Y0095865D01*
X0915783D01*
X0915033Y0095115D01*
Y0093616D01*
X0915783Y0092866D01*
X0920281Y0096615D02*
Y0095865D01*
X0919531D01*
X0921031D01*
X0920281D01*
Y0093616D01*
X0921031Y0092866D01*
X0927779Y0095865D02*
Y0093616D01*
X0928528Y0092866D01*
X0929278Y0093616D01*
X0930028Y0092866D01*
X0930778Y0093616D01*
Y0095865D01*
X0933027D02*
X0934527D01*
X0935276Y0095115D01*
Y0092866D01*
X0933027D01*
X0932277Y0093616D01*
X0933027Y0094366D01*
X0935276D01*
X0936776Y0095865D02*
Y0092866D01*
Y0094366D01*
X0937525Y0095115D01*
X0938275Y0095865D01*
X0939025D01*
X0941274D02*
Y0092866D01*
Y0094366D01*
X0942024Y0095115D01*
X0942774Y0095865D01*
X0943524D01*
X0946523D02*
X0948022D01*
X0948772Y0095115D01*
Y0092866D01*
X0946523D01*
X0945773Y0093616D01*
X0946523Y0094366D01*
X0948772D01*
X0950271Y0092866D02*
Y0095865D01*
X0952521D01*
X0953271Y0095115D01*
Y0092866D01*
X0955520Y0096615D02*
Y0095865D01*
X0954770D01*
X0956269D01*
X0955520D01*
Y0093616D01*
X0956269Y0092866D01*
X0963767Y0096615D02*
Y0095865D01*
X0963017D01*
X0964517D01*
X0963767D01*
Y0093616D01*
X0964517Y0092866D01*
X0966766Y0097365D02*
Y0092866D01*
Y0095115D01*
X0967516Y0095865D01*
X0969015D01*
X0969765Y0095115D01*
Y0092866D01*
X0973514D02*
X0972014D01*
X0971265Y0093616D01*
Y0095115D01*
X0972014Y0095865D01*
X0973514D01*
X0974264Y0095115D01*
Y0094366D01*
X0971265D01*
X0981011Y0095865D02*
X0982511D01*
X0983261Y0095115D01*
Y0092866D01*
X0981011D01*
X0980262Y0093616D01*
X0981011Y0094366D01*
X0983261D01*
X0987759Y0095865D02*
X0985510D01*
X0984760Y0095115D01*
Y0093616D01*
X0985510Y0092866D01*
X0987759D01*
X0992258Y0095865D02*
X0990009D01*
X0989259Y0095115D01*
Y0093616D01*
X0990009Y0092866D01*
X0992258D01*
X0993757Y0095865D02*
Y0093616D01*
X0994507Y0092866D01*
X0996756D01*
Y0095865D01*
X0998256D02*
Y0092866D01*
Y0094366D01*
X0999006Y0095115D01*
X0999755Y0095865D01*
X1000505D01*
X1003504D02*
X1005004D01*
X1005754Y0095115D01*
Y0092866D01*
X1003504D01*
X1002754Y0093616D01*
X1003504Y0094366D01*
X1005754D01*
X1010252Y0095865D02*
X1008003D01*
X1007253Y0095115D01*
Y0093616D01*
X1008003Y0092866D01*
X1010252D01*
X1011752Y0095865D02*
Y0093616D01*
X1012501Y0092866D01*
X1014751D01*
Y0092116D01*
X1014001Y0091367D01*
X1013251D01*
X1014751Y0092866D02*
Y0095865D01*
X1021498Y0092866D02*
X1022998D01*
X1023748Y0093616D01*
Y0095115D01*
X1022998Y0095865D01*
X1021498D01*
X1020749Y0095115D01*
Y0093616D01*
X1021498Y0092866D01*
X1025247Y0095865D02*
Y0092866D01*
Y0094366D01*
X1025997Y0095115D01*
X1026747Y0095865D01*
X1027497D01*
X1037243D02*
X1034994D01*
X1034244Y0095115D01*
Y0093616D01*
X1034994Y0092866D01*
X1037243D01*
X1039493D02*
X1040992D01*
X1041742Y0093616D01*
Y0095115D01*
X1040992Y0095865D01*
X1039493D01*
X1038743Y0095115D01*
Y0093616D01*
X1039493Y0092866D01*
X1043242D02*
Y0095865D01*
X1043991D01*
X1044741Y0095115D01*
Y0092866D01*
Y0095115D01*
X1045491Y0095865D01*
X1046241Y0095115D01*
Y0092866D01*
X1047740Y0091367D02*
Y0095865D01*
X1049989D01*
X1050739Y0095115D01*
Y0093616D01*
X1049989Y0092866D01*
X1047740D01*
X1052239D02*
X1053738D01*
X1052988D01*
Y0097365D01*
X1052239D01*
X1058237Y0092866D02*
X1056737D01*
X1055987Y0093616D01*
Y0095115D01*
X1056737Y0095865D01*
X1058237D01*
X1058986Y0095115D01*
Y0094366D01*
X1055987D01*
X1061236Y0096615D02*
Y0095865D01*
X1060486D01*
X1061985D01*
X1061236D01*
Y0093616D01*
X1061985Y0092866D01*
X1066484D02*
X1064985D01*
X1064235Y0093616D01*
Y0095115D01*
X1064985Y0095865D01*
X1066484D01*
X1067234Y0095115D01*
Y0094366D01*
X1064235D01*
X1068733Y0092866D02*
Y0095865D01*
X1070982D01*
X1071732Y0095115D01*
Y0092866D01*
X1075481D02*
X1073982D01*
X1073232Y0093616D01*
Y0095115D01*
X1073982Y0095865D01*
X1075481D01*
X1076231Y0095115D01*
Y0094366D01*
X1073232D01*
X1077730Y0092866D02*
X1079980D01*
X1080729Y0093616D01*
X1079980Y0094366D01*
X1078480D01*
X1077730Y0095115D01*
X1078480Y0095865D01*
X1080729D01*
X1082229Y0092866D02*
X1084478D01*
X1085228Y0093616D01*
X1084478Y0094366D01*
X1082979D01*
X1082229Y0095115D01*
X1082979Y0095865D01*
X1085228D01*
X1091976Y0092866D02*
X1093475D01*
X1094225Y0093616D01*
Y0095115D01*
X1093475Y0095865D01*
X1091976D01*
X1091226Y0095115D01*
Y0093616D01*
X1091976Y0092866D01*
X1096474D02*
Y0096615D01*
Y0095115D01*
X1095725D01*
X1097224D01*
X1096474D01*
Y0096615D01*
X1097224Y0097365D01*
X1104722Y0096615D02*
Y0095865D01*
X1103972D01*
X1105471D01*
X1104722D01*
Y0093616D01*
X1105471Y0092866D01*
X1107721Y0097365D02*
Y0092866D01*
Y0095115D01*
X1108470Y0095865D01*
X1109970D01*
X1110720Y0095115D01*
Y0092866D01*
X1112219D02*
X1113719D01*
X1112969D01*
Y0095865D01*
X1112219D01*
X1115968Y0092866D02*
X1118217D01*
X1118967Y0093616D01*
X1118217Y0094366D01*
X1116718D01*
X1115968Y0095115D01*
X1116718Y0095865D01*
X1118967D01*
X1124965Y0092866D02*
X1127214D01*
X1127964Y0093616D01*
X1127214Y0094366D01*
X1125715D01*
X1124965Y0095115D01*
X1125715Y0095865D01*
X1127964D01*
X1129464Y0091367D02*
Y0095865D01*
X1131713D01*
X1132463Y0095115D01*
Y0093616D01*
X1131713Y0092866D01*
X1129464D01*
X1136211D02*
X1134712D01*
X1133962Y0093616D01*
Y0095115D01*
X1134712Y0095865D01*
X1136211D01*
X1136961Y0095115D01*
Y0094366D01*
X1133962D01*
X1141460Y0095865D02*
X1139211D01*
X1138461Y0095115D01*
Y0093616D01*
X1139211Y0092866D01*
X1141460D01*
X1142959D02*
X1144459D01*
X1143709D01*
Y0095865D01*
X1142959D01*
X1147458Y0092866D02*
Y0096615D01*
Y0095115D01*
X1146708D01*
X1148208D01*
X1147458D01*
Y0096615D01*
X1148208Y0097365D01*
X1150457Y0092866D02*
X1151956D01*
X1151207D01*
Y0095865D01*
X1150457D01*
X1157205D02*
X1154955D01*
X1154206Y0095115D01*
Y0093616D01*
X1154955Y0092866D01*
X1157205D01*
X1159454Y0095865D02*
X1160954D01*
X1161703Y0095115D01*
Y0092866D01*
X1159454D01*
X1158704Y0093616D01*
X1159454Y0094366D01*
X1161703D01*
X1163953Y0096615D02*
Y0095865D01*
X1163203D01*
X1164702D01*
X1163953D01*
Y0093616D01*
X1164702Y0092866D01*
X1166952D02*
X1168451D01*
X1167701D01*
Y0095865D01*
X1166952D01*
X1171450Y0092866D02*
X1172950D01*
X1173699Y0093616D01*
Y0095115D01*
X1172950Y0095865D01*
X1171450D01*
X1170700Y0095115D01*
Y0093616D01*
X1171450Y0092866D01*
X1175199D02*
Y0095865D01*
X1177448D01*
X1178198Y0095115D01*
Y0092866D01*
X0707350Y0081600D02*
X0708849D01*
X0709599Y0082349D01*
Y0083849D01*
X0708849Y0084599D01*
X0707350D01*
X0706600Y0083849D01*
Y0082349D01*
X0707350Y0081600D01*
X0711098Y0084599D02*
Y0081600D01*
Y0083099D01*
X0711848Y0083849D01*
X0712598Y0084599D01*
X0713348D01*
X0720845D02*
X0722345D01*
X0723095Y0083849D01*
Y0081600D01*
X0720845D01*
X0720096Y0082349D01*
X0720845Y0083099D01*
X0723095D01*
X0724594Y0081600D02*
Y0084599D01*
X0726844D01*
X0727593Y0083849D01*
Y0081600D01*
X0729093Y0084599D02*
Y0082349D01*
X0729843Y0081600D01*
X0732092D01*
Y0080850D01*
X0731342Y0080100D01*
X0730592D01*
X0732092Y0081600D02*
Y0084599D01*
X0738090Y0081600D02*
X0739589D01*
X0738840D01*
Y0084599D01*
X0738090D01*
X0741839Y0081600D02*
Y0084599D01*
X0744088D01*
X0744838Y0083849D01*
Y0081600D01*
X0747087D02*
Y0085348D01*
Y0083849D01*
X0746337D01*
X0747837D01*
X0747087D01*
Y0085348D01*
X0747837Y0086098D01*
X0750836Y0081600D02*
X0752335D01*
X0753085Y0082349D01*
Y0083849D01*
X0752335Y0084599D01*
X0750836D01*
X0750086Y0083849D01*
Y0082349D01*
X0750836Y0081600D01*
X0754585Y0084599D02*
Y0081600D01*
Y0083099D01*
X0755334Y0083849D01*
X0756084Y0084599D01*
X0756834D01*
X0759083Y0081600D02*
Y0084599D01*
X0759833D01*
X0760583Y0083849D01*
Y0081600D01*
Y0083849D01*
X0761332Y0084599D01*
X0762082Y0083849D01*
Y0081600D01*
X0764331Y0084599D02*
X0765831D01*
X0766581Y0083849D01*
Y0081600D01*
X0764331D01*
X0763582Y0082349D01*
X0764331Y0083099D01*
X0766581D01*
X0768830Y0085348D02*
Y0084599D01*
X0768080D01*
X0769580D01*
X0768830D01*
Y0082349D01*
X0769580Y0081600D01*
X0771829D02*
X0773328D01*
X0772579D01*
Y0084599D01*
X0771829D01*
X0776328Y0081600D02*
X0777827D01*
X0778577Y0082349D01*
Y0083849D01*
X0777827Y0084599D01*
X0776328D01*
X0775578Y0083849D01*
Y0082349D01*
X0776328Y0081600D01*
X0780076D02*
Y0084599D01*
X0782326D01*
X0783075Y0083849D01*
Y0081600D01*
X0792072Y0084599D02*
X0789823D01*
X0789073Y0083849D01*
Y0082349D01*
X0789823Y0081600D01*
X0792072D01*
X0794322D02*
X0795821D01*
X0796571Y0082349D01*
Y0083849D01*
X0795821Y0084599D01*
X0794322D01*
X0793572Y0083849D01*
Y0082349D01*
X0794322Y0081600D01*
X0798070D02*
Y0084599D01*
X0800320D01*
X0801070Y0083849D01*
Y0081600D01*
X0803319Y0085348D02*
Y0084599D01*
X0802569D01*
X0804069D01*
X0803319D01*
Y0082349D01*
X0804069Y0081600D01*
X0807068Y0084599D02*
X0808567D01*
X0809317Y0083849D01*
Y0081600D01*
X0807068D01*
X0806318Y0082349D01*
X0807068Y0083099D01*
X0809317D01*
X0810816Y0081600D02*
X0812316D01*
X0811566D01*
Y0084599D01*
X0810816D01*
X0814565Y0081600D02*
Y0084599D01*
X0816815D01*
X0817564Y0083849D01*
Y0081600D01*
X0821313D02*
X0819814D01*
X0819064Y0082349D01*
Y0083849D01*
X0819814Y0084599D01*
X0821313D01*
X0822063Y0083849D01*
Y0083099D01*
X0819064D01*
X0826561Y0086098D02*
Y0081600D01*
X0824312D01*
X0823562Y0082349D01*
Y0083849D01*
X0824312Y0084599D01*
X0826561D01*
X0833309Y0085348D02*
Y0084599D01*
X0832559D01*
X0834059D01*
X0833309D01*
Y0082349D01*
X0834059Y0081600D01*
X0836308Y0086098D02*
Y0081600D01*
Y0083849D01*
X0837058Y0084599D01*
X0838558D01*
X0839307Y0083849D01*
Y0081600D01*
X0843056D02*
X0841556D01*
X0840807Y0082349D01*
Y0083849D01*
X0841556Y0084599D01*
X0843056D01*
X0843806Y0083849D01*
Y0083099D01*
X0840807D01*
X0845305Y0084599D02*
Y0081600D01*
Y0083099D01*
X0846055Y0083849D01*
X0846805Y0084599D01*
X0847555D01*
X0852053Y0081600D02*
X0850554D01*
X0849804Y0082349D01*
Y0083849D01*
X0850554Y0084599D01*
X0852053D01*
X0852803Y0083849D01*
Y0083099D01*
X0849804D01*
X0854302Y0081600D02*
X0855802D01*
X0855052D01*
Y0084599D01*
X0854302D01*
X0858051Y0081600D02*
Y0084599D01*
X0860300D01*
X0861050Y0083849D01*
Y0081600D01*
X0862550D02*
Y0082349D01*
X0863299D01*
Y0081600D01*
X0862550D01*
X0870797Y0086098D02*
X0873796D01*
X0872297D01*
Y0081600D01*
X0875296Y0086098D02*
X0876795D01*
X0876045D01*
Y0081600D01*
X0875296D01*
X0876795D01*
X0884293Y0084599D02*
X0885792D01*
X0886542Y0083849D01*
Y0081600D01*
X0884293D01*
X0883543Y0082349D01*
X0884293Y0083099D01*
X0886542D01*
X0888041Y0081600D02*
Y0084599D01*
X0890291D01*
X0891041Y0083849D01*
Y0081600D01*
X0895539Y0086098D02*
Y0081600D01*
X0893290D01*
X0892540Y0082349D01*
Y0083849D01*
X0893290Y0084599D01*
X0895539D01*
X0897039Y0081600D02*
X0900038Y0084599D01*
X0902287Y0081600D02*
X0903786D01*
X0904536Y0082349D01*
Y0083849D01*
X0903786Y0084599D01*
X0902287D01*
X0901537Y0083849D01*
Y0082349D01*
X0902287Y0081600D01*
X0906036Y0084599D02*
Y0081600D01*
Y0083099D01*
X0906785Y0083849D01*
X0907535Y0084599D01*
X0908285D01*
X0915033Y0081600D02*
X0916532D01*
X0915783D01*
Y0084599D01*
X0915033D01*
X0919531Y0085348D02*
Y0084599D01*
X0918782D01*
X0920281D01*
X0919531D01*
Y0082349D01*
X0920281Y0081600D01*
X0922530D02*
X0924780D01*
X0925529Y0082349D01*
X0924780Y0083099D01*
X0923280D01*
X0922530Y0083849D01*
X0923280Y0084599D01*
X0925529D01*
X0931528Y0081600D02*
X0933027D01*
X0932277D01*
Y0086098D01*
X0931528D01*
X0935276Y0081600D02*
X0936776D01*
X0936026D01*
Y0084599D01*
X0935276D01*
X0942024D02*
X0939775D01*
X0939025Y0083849D01*
Y0082349D01*
X0939775Y0081600D01*
X0942024D01*
X0945773D02*
X0944273D01*
X0943524Y0082349D01*
Y0083849D01*
X0944273Y0084599D01*
X0945773D01*
X0946523Y0083849D01*
Y0083099D01*
X0943524D01*
X0948022Y0081600D02*
Y0084599D01*
X0950271D01*
X0951021Y0083849D01*
Y0081600D01*
X0952521D02*
X0954770D01*
X0955520Y0082349D01*
X0954770Y0083099D01*
X0953271D01*
X0952521Y0083849D01*
X0953271Y0084599D01*
X0955520D01*
X0957769Y0081600D02*
X0959268D01*
X0960018Y0082349D01*
Y0083849D01*
X0959268Y0084599D01*
X0957769D01*
X0957019Y0083849D01*
Y0082349D01*
X0957769Y0081600D01*
X0961518Y0084599D02*
Y0081600D01*
Y0083099D01*
X0962268Y0083849D01*
X0963017Y0084599D01*
X0963767D01*
X0966016Y0081600D02*
X0968266D01*
X0969015Y0082349D01*
X0968266Y0083099D01*
X0966766D01*
X0966016Y0083849D01*
X0966766Y0084599D01*
X0969015D01*
X0978012Y0086098D02*
Y0081600D01*
X0975763D01*
X0975014Y0082349D01*
Y0083849D01*
X0975763Y0084599D01*
X0978012D01*
X0980262Y0081600D02*
X0981761D01*
X0982511Y0082349D01*
Y0083849D01*
X0981761Y0084599D01*
X0980262D01*
X0979512Y0083849D01*
Y0082349D01*
X0980262Y0081600D01*
X0988509D02*
Y0084599D01*
X0990758D01*
X0991508Y0083849D01*
Y0081600D01*
X0993757D02*
X0995257D01*
X0996007Y0082349D01*
Y0083849D01*
X0995257Y0084599D01*
X0993757D01*
X0993008Y0083849D01*
Y0082349D01*
X0993757Y0081600D01*
X0998256Y0085348D02*
Y0084599D01*
X0997506D01*
X0999006D01*
X0998256D01*
Y0082349D01*
X0999006Y0081600D01*
X1005754Y0084599D02*
Y0082349D01*
X1006503Y0081600D01*
X1007253Y0082349D01*
X1008003Y0081600D01*
X1008753Y0082349D01*
Y0084599D01*
X1011002D02*
X1012501D01*
X1013251Y0083849D01*
Y0081600D01*
X1011002D01*
X1010252Y0082349D01*
X1011002Y0083099D01*
X1013251D01*
X1014751Y0084599D02*
Y0081600D01*
Y0083099D01*
X1015500Y0083849D01*
X1016250Y0084599D01*
X1017000D01*
X1019249D02*
Y0081600D01*
Y0083099D01*
X1019999Y0083849D01*
X1020749Y0084599D01*
X1021498D01*
X1024498D02*
X1025997D01*
X1026747Y0083849D01*
Y0081600D01*
X1024498D01*
X1023748Y0082349D01*
X1024498Y0083099D01*
X1026747D01*
X1028246Y0081600D02*
Y0084599D01*
X1030496D01*
X1031245Y0083849D01*
Y0081600D01*
X1033495Y0085348D02*
Y0084599D01*
X1032745D01*
X1034244D01*
X1033495D01*
Y0082349D01*
X1034244Y0081600D01*
X1041742Y0085348D02*
Y0084599D01*
X1040992D01*
X1042492D01*
X1041742D01*
Y0082349D01*
X1042492Y0081600D01*
X1044741Y0086098D02*
Y0081600D01*
Y0083849D01*
X1045491Y0084599D01*
X1046990D01*
X1047740Y0083849D01*
Y0081600D01*
X1049989Y0084599D02*
X1051489D01*
X1052239Y0083849D01*
Y0081600D01*
X1049989D01*
X1049240Y0082349D01*
X1049989Y0083099D01*
X1052239D01*
X1054488Y0085348D02*
Y0084599D01*
X1053738D01*
X1055238D01*
X1054488D01*
Y0082349D01*
X1055238Y0081600D01*
X1062735Y0085348D02*
Y0084599D01*
X1061985D01*
X1063485D01*
X1062735D01*
Y0082349D01*
X1063485Y0081600D01*
X1065734Y0086098D02*
Y0081600D01*
Y0083849D01*
X1066484Y0084599D01*
X1067984D01*
X1068733Y0083849D01*
Y0081600D01*
X1070233D02*
X1071732D01*
X1070982D01*
Y0084599D01*
X1070233D01*
X1073982Y0081600D02*
X1076231D01*
X1076981Y0082349D01*
X1076231Y0083099D01*
X1074731D01*
X1073982Y0083849D01*
X1074731Y0084599D01*
X1076981D01*
X1085978Y0086098D02*
Y0081600D01*
X1083728D01*
X1082979Y0082349D01*
Y0083849D01*
X1083728Y0084599D01*
X1085978D01*
X1089727Y0081600D02*
X1088227D01*
X1087477Y0082349D01*
Y0083849D01*
X1088227Y0084599D01*
X1089727D01*
X1090476Y0083849D01*
Y0083099D01*
X1087477D01*
X1091976Y0081600D02*
X1094225D01*
X1094975Y0082349D01*
X1094225Y0083099D01*
X1092725D01*
X1091976Y0083849D01*
X1092725Y0084599D01*
X1094975D01*
X1096474Y0081600D02*
X1097974D01*
X1097224D01*
Y0084599D01*
X1096474D01*
X1101723Y0080100D02*
X1102472D01*
X1103222Y0080850D01*
Y0084599D01*
X1100973D01*
X1100223Y0083849D01*
Y0082349D01*
X1100973Y0081600D01*
X1103222D01*
X1104722D02*
Y0084599D01*
X1106971D01*
X1107721Y0083849D01*
Y0081600D01*
X1113719Y0084599D02*
Y0082349D01*
X1114468Y0081600D01*
X1115218Y0082349D01*
X1115968Y0081600D01*
X1116718Y0082349D01*
Y0084599D01*
X1118217Y0081600D02*
X1119717D01*
X1118967D01*
Y0084599D01*
X1118217D01*
X1121966Y0081600D02*
X1123466D01*
X1122716D01*
Y0086098D01*
X1121966D01*
X1125715Y0081600D02*
X1127214D01*
X1126465D01*
Y0086098D01*
X1125715D01*
X1133962Y0081600D02*
Y0084599D01*
X1134712D01*
X1135462Y0083849D01*
Y0081600D01*
Y0083849D01*
X1136211Y0084599D01*
X1136961Y0083849D01*
Y0081600D01*
X1140710D02*
X1139211D01*
X1138461Y0082349D01*
Y0083849D01*
X1139211Y0084599D01*
X1140710D01*
X1141460Y0083849D01*
Y0083099D01*
X1138461D01*
X1145209Y0081600D02*
X1143709D01*
X1142959Y0082349D01*
Y0083849D01*
X1143709Y0084599D01*
X1145209D01*
X1145958Y0083849D01*
Y0083099D01*
X1142959D01*
X1148208Y0085348D02*
Y0084599D01*
X1147458D01*
X1148957D01*
X1148208D01*
Y0082349D01*
X1148957Y0081600D01*
X0143184Y1662716D02*
X0143850Y1663049D01*
X0144850Y1664049D01*
Y1657050D01*
X0393083Y1662382D02*
Y1662716D01*
X0393417Y1663382D01*
X0393750Y1663715D01*
X0394416Y1664049D01*
X0395749D01*
X0396416Y1663715D01*
X0396749Y1663382D01*
X0397082Y1662716D01*
Y1662049D01*
X0396749Y1661382D01*
X0396083Y1660383D01*
X0392750Y1657050D01*
X0397416D01*
X0642351Y1664049D02*
X0646017D01*
X0644017Y1661382D01*
X0645017D01*
X0645683Y1661049D01*
X0646017Y1660716D01*
X0646350Y1659716D01*
Y1659050D01*
X0646017Y1658050D01*
X0645350Y1657383D01*
X0644350Y1657050D01*
X0643351D01*
X0642351Y1657383D01*
X0642018Y1657717D01*
X0641684Y1658383D01*
X0895684Y1664049D02*
X0892351Y1659383D01*
X0897350D01*
X0895684Y1664049D02*
Y1657050D01*
X1808749Y1664049D02*
X1805416D01*
X1805083Y1661049D01*
X1805416Y1661382D01*
X1806416Y1661716D01*
X1807416D01*
X1808416Y1661382D01*
X1809082Y1660716D01*
X1809416Y1659716D01*
Y1659050D01*
X1809082Y1658050D01*
X1808416Y1657383D01*
X1807416Y1657050D01*
X1806416D01*
X1805416Y1657383D01*
X1805083Y1657717D01*
X1804750Y1658383D01*
X2059249Y1663049D02*
X2058916Y1663715D01*
X2057916Y1664049D01*
X2057250D01*
X2056250Y1663715D01*
X2055583Y1662716D01*
X2055250Y1661049D01*
Y1659383D01*
X2055583Y1658050D01*
X2056250Y1657383D01*
X2057250Y1657050D01*
X2057583D01*
X2058583Y1657383D01*
X2059249Y1658050D01*
X2059582Y1659050D01*
Y1659383D01*
X2059249Y1660383D01*
X2058583Y1661049D01*
X2057583Y1661382D01*
X2057250D01*
X2056250Y1661049D01*
X2055583Y1660383D01*
X2055250Y1659383D01*
X2175382Y0842750D02*
X2172716Y0849749D01*
X2170050Y0842750D01*
X2171050Y0845083D02*
X2174382D01*
X2170050Y0611749D02*
Y0604750D01*
Y0611749D02*
X2173049D01*
X2174049Y0611415D01*
X2174382Y0611082D01*
X2174716Y0610415D01*
Y0609749D01*
X2174382Y0609082D01*
X2174049Y0608749D01*
X2173049Y0608416D01*
X2170050D02*
X2173049D01*
X2174049Y0608083D01*
X2174382Y0607749D01*
X2174716Y0607083D01*
Y0606083D01*
X2174382Y0605416D01*
X2174049Y0605083D01*
X2173049Y0604750D01*
X2170050D01*
X2175049Y0372582D02*
X2174716Y0373249D01*
X2174049Y0373915D01*
X2173383Y0374249D01*
X2172050D01*
X2171383Y0373915D01*
X2170716Y0373249D01*
X2170383Y0372582D01*
X2170050Y0371582D01*
Y0369916D01*
X2170383Y0368916D01*
X2170716Y0368250D01*
X2171383Y0367583D01*
X2172050Y0367250D01*
X2173383D01*
X2174049Y0367583D01*
X2174716Y0368250D01*
X2175049Y0368916D01*
X2170050Y0137249D02*
Y0130250D01*
Y0137249D02*
X2172383D01*
X2173383Y0136915D01*
X2174049Y0136249D01*
X2174382Y0135582D01*
X2174716Y0134582D01*
Y0132916D01*
X2174382Y0131916D01*
X2174049Y0131250D01*
X2173383Y0130583D01*
X2172383Y0130250D01*
X2170050D01*
X0032882Y0842750D02*
X0030216Y0849749D01*
X0027550Y0842750D01*
X0028550Y0845083D02*
X0031882D01*
X0027550Y0611749D02*
Y0604750D01*
Y0611749D02*
X0030549D01*
X0031549Y0611415D01*
X0031882Y0611082D01*
X0032216Y0610415D01*
Y0609749D01*
X0031882Y0609082D01*
X0031549Y0608749D01*
X0030549Y0608416D01*
X0027550D02*
X0030549D01*
X0031549Y0608083D01*
X0031882Y0607749D01*
X0032216Y0607083D01*
Y0606083D01*
X0031882Y0605416D01*
X0031549Y0605083D01*
X0030549Y0604750D01*
X0027550D01*
X0032549Y0372582D02*
X0032216Y0373249D01*
X0031549Y0373915D01*
X0030883Y0374249D01*
X0029550D01*
X0028883Y0373915D01*
X0028216Y0373249D01*
X0027883Y0372582D01*
X0027550Y0371582D01*
Y0369916D01*
X0027883Y0368916D01*
X0028216Y0368250D01*
X0028883Y0367583D01*
X0029550Y0367250D01*
X0030883D01*
X0031549Y0367583D01*
X0032216Y0368250D01*
X0032549Y0368916D01*
X0027550Y0137249D02*
Y0130250D01*
Y0137249D02*
X0029883D01*
X0030883Y0136915D01*
X0031549Y0136249D01*
X0031882Y0135582D01*
X0032216Y0134582D01*
Y0132916D01*
X0031882Y0131916D01*
X0031549Y0131250D01*
X0030883Y0130583D01*
X0029883Y0130250D01*
X0027550D01*
X0143184Y0032715D02*
X0143850Y0033049D01*
X0144850Y0034049D01*
Y0027050D01*
X0393083Y0032382D02*
Y0032715D01*
X0393417Y0033382D01*
X0393750Y0033715D01*
X0394416Y0034049D01*
X0395749D01*
X0396416Y0033715D01*
X0396749Y0033382D01*
X0397082Y0032715D01*
Y0032049D01*
X0396749Y0031382D01*
X0396083Y0030383D01*
X0392750Y0027050D01*
X0397416D01*
X0642351Y0034049D02*
X0646017D01*
X0644017Y0031382D01*
X0645017D01*
X0645683Y0031049D01*
X0646017Y0030716D01*
X0646350Y0029716D01*
Y0029050D01*
X0646017Y0028050D01*
X0645350Y0027383D01*
X0644350Y0027050D01*
X0643351D01*
X0642351Y0027383D01*
X0642018Y0027716D01*
X0641684Y0028383D01*
X0895684Y0034049D02*
X0892351Y0029383D01*
X0897350D01*
X0895684Y0034049D02*
Y0027050D01*
X1808749Y0034049D02*
X1805416D01*
X1805083Y0031049D01*
X1805416Y0031382D01*
X1806416Y0031716D01*
X1807416D01*
X1808416Y0031382D01*
X1809082Y0030716D01*
X1809416Y0029716D01*
Y0029050D01*
X1809082Y0028050D01*
X1808416Y0027383D01*
X1807416Y0027050D01*
X1806416D01*
X1805416Y0027383D01*
X1805083Y0027716D01*
X1804750Y0028383D01*
X2059249Y0033049D02*
X2058916Y0033715D01*
X2057916Y0034049D01*
X2057250D01*
X2056250Y0033715D01*
X2055583Y0032715D01*
X2055250Y0031049D01*
Y0029383D01*
X2055583Y0028050D01*
X2056250Y0027383D01*
X2057250Y0027050D01*
X2057583D01*
X2058583Y0027383D01*
X2059249Y0028050D01*
X2059582Y0029050D01*
Y0029383D01*
X2059249Y0030383D01*
X2058583Y0031049D01*
X2057583Y0031382D01*
X2057250D01*
X2056250Y0031049D01*
X2055583Y0030383D01*
X2055250Y0029383D01*
X1875715Y0053549D02*
X1874549Y0054715D01*
X1872216D01*
X1871050Y0053549D01*
Y0052382D01*
X1872216Y0051216D01*
X1874549D01*
X1875715Y0050050D01*
Y0048884D01*
X1874549Y0047717D01*
X1872216D01*
X1871050Y0048884D01*
X1882713Y0053549D02*
X1881547Y0054715D01*
X1879214D01*
X1878048Y0053549D01*
Y0048884D01*
X1879214Y0047717D01*
X1881547D01*
X1882713Y0048884D01*
X1885045Y0047717D02*
Y0052382D01*
X1887378Y0054715D01*
X1889711Y0052382D01*
Y0047717D01*
Y0051216D01*
X1885045D01*
X1892043Y0054715D02*
Y0047717D01*
X1896708D01*
X1903706Y0054715D02*
X1899041D01*
Y0047717D01*
X1903706D01*
X1899041Y0051216D02*
X1901373D01*
X1906039Y0052382D02*
X1907205D01*
Y0051216D01*
X1906039D01*
Y0052382D01*
Y0048884D02*
X1907205D01*
Y0047717D01*
X1906039D01*
Y0048884D01*
X1918868Y0047717D02*
X1921201D01*
X1920034D01*
Y0054715D01*
X1918868Y0053549D01*
X1924699Y0047717D02*
Y0048884D01*
X1925866D01*
Y0047717D01*
X1924699D01*
X1930531Y0053549D02*
X1931697Y0054715D01*
X1934030D01*
X1935196Y0053549D01*
Y0048884D01*
X1934030Y0047717D01*
X1931697D01*
X1930531Y0048884D01*
Y0053549D01*
X1937528D02*
X1938695Y0054715D01*
X1941027D01*
X1942194Y0053549D01*
Y0048884D01*
X1941027Y0047717D01*
X1938695D01*
X1937528Y0048884D01*
Y0053549D01*
X0707350Y0074082D02*
Y0073332D01*
X0706600D01*
X0708100D01*
X0707350D01*
Y0071083D01*
X0708100Y0070333D01*
X0710349Y0074832D02*
Y0070333D01*
Y0072582D01*
X0711098Y0073332D01*
X0712598D01*
X0713348Y0072582D01*
Y0070333D01*
X0717097D02*
X0715597D01*
X0714847Y0071083D01*
Y0072582D01*
X0715597Y0073332D01*
X0717097D01*
X0717846Y0072582D01*
Y0071833D01*
X0714847D01*
X0723844Y0070333D02*
X0726094D01*
X0726844Y0071083D01*
X0726094Y0071833D01*
X0724594D01*
X0723844Y0072582D01*
X0724594Y0073332D01*
X0726844D01*
X0728343Y0068834D02*
Y0073332D01*
X0730592D01*
X0731342Y0072582D01*
Y0071083D01*
X0730592Y0070333D01*
X0728343D01*
X0735091D02*
X0733591D01*
X0732841Y0071083D01*
Y0072582D01*
X0733591Y0073332D01*
X0735091D01*
X0735841Y0072582D01*
Y0071833D01*
X0732841D01*
X0740339Y0073332D02*
X0738090D01*
X0737340Y0072582D01*
Y0071083D01*
X0738090Y0070333D01*
X0740339D01*
X0741839D02*
X0743338D01*
X0742588D01*
Y0073332D01*
X0741839D01*
X0746337Y0070333D02*
Y0074082D01*
Y0072582D01*
X0745587D01*
X0747087D01*
X0746337D01*
Y0074082D01*
X0747087Y0074832D01*
X0749336Y0070333D02*
X0750836D01*
X0750086D01*
Y0073332D01*
X0749336D01*
X0756084D02*
X0753835D01*
X0753085Y0072582D01*
Y0071083D01*
X0753835Y0070333D01*
X0756084D01*
X0758333Y0073332D02*
X0759833D01*
X0760583Y0072582D01*
Y0070333D01*
X0758333D01*
X0757584Y0071083D01*
X0758333Y0071833D01*
X0760583D01*
X0762832Y0074082D02*
Y0073332D01*
X0762082D01*
X0763582D01*
X0762832D01*
Y0071083D01*
X0763582Y0070333D01*
X0765831D02*
X0767330D01*
X0766581D01*
Y0073332D01*
X0765831D01*
X0770329Y0070333D02*
X0771829D01*
X0772579Y0071083D01*
Y0072582D01*
X0771829Y0073332D01*
X0770329D01*
X0769580Y0072582D01*
Y0071083D01*
X0770329Y0070333D01*
X0774078D02*
Y0073332D01*
X0776328D01*
X0777077Y0072582D01*
Y0070333D01*
X0778577D02*
X0780826D01*
X0781576Y0071083D01*
X0780826Y0071833D01*
X0779327D01*
X0778577Y0072582D01*
X0779327Y0073332D01*
X0781576D01*
X0783825Y0069583D02*
X0784575Y0070333D01*
Y0071083D01*
X0783825D01*
Y0070333D01*
X0784575D01*
X0783825Y0069583D01*
X0783075Y0068834D01*
X0792072Y0073332D02*
Y0071083D01*
X0792822Y0070333D01*
X0793572Y0071083D01*
X0794322Y0070333D01*
X0795072Y0071083D01*
Y0073332D01*
X0796571Y0070333D02*
X0798070D01*
X0797321D01*
Y0073332D01*
X0796571D01*
X0800320Y0070333D02*
X0801819D01*
X0801070D01*
Y0074832D01*
X0800320D01*
X0804069Y0070333D02*
X0805568D01*
X0804818D01*
Y0074832D01*
X0804069D01*
X0812316D02*
Y0070333D01*
X0814565D01*
X0815315Y0071083D01*
Y0071833D01*
Y0072582D01*
X0814565Y0073332D01*
X0812316D01*
X0819064Y0070333D02*
X0817564D01*
X0816815Y0071083D01*
Y0072582D01*
X0817564Y0073332D01*
X0819064D01*
X0819814Y0072582D01*
Y0071833D01*
X0816815D01*
X0825812Y0070333D02*
X0828061D01*
X0828811Y0071083D01*
X0828061Y0071833D01*
X0826561D01*
X0825812Y0072582D01*
X0826561Y0073332D01*
X0828811D01*
X0830310D02*
Y0071083D01*
X0831060Y0070333D01*
X0833309D01*
Y0073332D01*
X0834809Y0070333D02*
X0836308D01*
X0835558D01*
Y0073332D01*
X0834809D01*
X0839307Y0074082D02*
Y0073332D01*
X0838558D01*
X0840057D01*
X0839307D01*
Y0071083D01*
X0840057Y0070333D01*
X0843056Y0073332D02*
X0844555D01*
X0845305Y0072582D01*
Y0070333D01*
X0843056D01*
X0842306Y0071083D01*
X0843056Y0071833D01*
X0845305D01*
X0846805Y0074832D02*
Y0070333D01*
X0849054D01*
X0849804Y0071083D01*
Y0071833D01*
Y0072582D01*
X0849054Y0073332D01*
X0846805D01*
X0851303Y0070333D02*
X0852803D01*
X0852053D01*
Y0074832D01*
X0851303D01*
X0857301Y0070333D02*
X0855802D01*
X0855052Y0071083D01*
Y0072582D01*
X0855802Y0073332D01*
X0857301D01*
X0858051Y0072582D01*
Y0071833D01*
X0855052D01*
X0864799Y0070333D02*
Y0074082D01*
Y0072582D01*
X0864049D01*
X0865549D01*
X0864799D01*
Y0074082D01*
X0865549Y0074832D01*
X0868548Y0070333D02*
X0870047D01*
X0870797Y0071083D01*
Y0072582D01*
X0870047Y0073332D01*
X0868548D01*
X0867798Y0072582D01*
Y0071083D01*
X0868548Y0070333D01*
X0872297Y0073332D02*
Y0070333D01*
Y0071833D01*
X0873046Y0072582D01*
X0873796Y0073332D01*
X0874546D01*
X0881294D02*
Y0071083D01*
X0882043Y0070333D01*
X0884293D01*
Y0069583D01*
X0883543Y0068834D01*
X0882793D01*
X0884293Y0070333D02*
Y0073332D01*
X0886542Y0070333D02*
X0888041D01*
X0888791Y0071083D01*
Y0072582D01*
X0888041Y0073332D01*
X0886542D01*
X0885792Y0072582D01*
Y0071083D01*
X0886542Y0070333D01*
X0890291Y0073332D02*
Y0071083D01*
X0891041Y0070333D01*
X0893290D01*
Y0073332D01*
X0894789D02*
Y0070333D01*
Y0071833D01*
X0895539Y0072582D01*
X0896289Y0073332D01*
X0897039D01*
X0904536D02*
X0906036D01*
X0906785Y0072582D01*
Y0070333D01*
X0904536D01*
X0903786Y0071083D01*
X0904536Y0071833D01*
X0906785D01*
X0908285Y0068834D02*
Y0073332D01*
X0910534D01*
X0911284Y0072582D01*
Y0071083D01*
X0910534Y0070333D01*
X0908285D01*
X0912784Y0068834D02*
Y0073332D01*
X0915033D01*
X0915783Y0072582D01*
Y0071083D01*
X0915033Y0070333D01*
X0912784D01*
X0917282D02*
X0918782D01*
X0918032D01*
Y0074832D01*
X0917282D01*
X0921031Y0070333D02*
X0922530D01*
X0921781D01*
Y0073332D01*
X0921031D01*
X0927779D02*
X0925529D01*
X0924780Y0072582D01*
Y0071083D01*
X0925529Y0070333D01*
X0927779D01*
X0930028Y0073332D02*
X0931528D01*
X0932277Y0072582D01*
Y0070333D01*
X0930028D01*
X0929278Y0071083D01*
X0930028Y0071833D01*
X0932277D01*
X0934527Y0074082D02*
Y0073332D01*
X0933777D01*
X0935276D01*
X0934527D01*
Y0071083D01*
X0935276Y0070333D01*
X0937525D02*
X0939025D01*
X0938275D01*
Y0073332D01*
X0937525D01*
X0942024Y0070333D02*
X0943524D01*
X0944273Y0071083D01*
Y0072582D01*
X0943524Y0073332D01*
X0942024D01*
X0941274Y0072582D01*
Y0071083D01*
X0942024Y0070333D01*
X0945773D02*
Y0073332D01*
X0948022D01*
X0948772Y0072582D01*
Y0070333D01*
X0955520D02*
X0957019D01*
X0957769Y0071083D01*
Y0072582D01*
X0957019Y0073332D01*
X0955520D01*
X0954770Y0072582D01*
Y0071083D01*
X0955520Y0070333D01*
X0959268Y0073332D02*
Y0070333D01*
Y0071833D01*
X0960018Y0072582D01*
X0960768Y0073332D01*
X0961518D01*
X0969015Y0070333D02*
Y0074082D01*
Y0072582D01*
X0968266D01*
X0969765D01*
X0969015D01*
Y0074082D01*
X0969765Y0074832D01*
X0972014Y0070333D02*
X0973514D01*
X0972764D01*
Y0073332D01*
X0972014D01*
X0976513Y0074082D02*
Y0073332D01*
X0975763D01*
X0977263D01*
X0976513D01*
Y0071083D01*
X0977263Y0070333D01*
X0984760D02*
Y0074082D01*
Y0072582D01*
X0984011D01*
X0985510D01*
X0984760D01*
Y0074082D01*
X0985510Y0074832D01*
X0988509Y0070333D02*
X0990009D01*
X0990758Y0071083D01*
Y0072582D01*
X0990009Y0073332D01*
X0988509D01*
X0987759Y0072582D01*
Y0071083D01*
X0988509Y0070333D01*
X0992258Y0073332D02*
Y0070333D01*
Y0071833D01*
X0993008Y0072582D01*
X0993757Y0073332D01*
X0994507D01*
X1002005D02*
X1003504D01*
X1004254Y0072582D01*
Y0070333D01*
X1002005D01*
X1001255Y0071083D01*
X1002005Y0071833D01*
X1004254D01*
X1005754Y0070333D02*
Y0073332D01*
X1008003D01*
X1008753Y0072582D01*
Y0070333D01*
X1010252Y0073332D02*
Y0071083D01*
X1011002Y0070333D01*
X1013251D01*
Y0069583D01*
X1012501Y0068834D01*
X1011752D01*
X1013251Y0070333D02*
Y0073332D01*
X1019249Y0068834D02*
Y0073332D01*
X1021498D01*
X1022248Y0072582D01*
Y0071083D01*
X1021498Y0070333D01*
X1019249D01*
X1024498Y0073332D02*
X1025997D01*
X1026747Y0072582D01*
Y0070333D01*
X1024498D01*
X1023748Y0071083D01*
X1024498Y0071833D01*
X1026747D01*
X1028246Y0073332D02*
Y0070333D01*
Y0071833D01*
X1028996Y0072582D01*
X1029746Y0073332D01*
X1030496D01*
X1033495Y0074082D02*
Y0073332D01*
X1032745D01*
X1034244D01*
X1033495D01*
Y0071083D01*
X1034244Y0070333D01*
X1036494D02*
X1037993D01*
X1037243D01*
Y0073332D01*
X1036494D01*
X1043242D02*
X1040992D01*
X1040242Y0072582D01*
Y0071083D01*
X1040992Y0070333D01*
X1043242D01*
X1044741Y0073332D02*
Y0071083D01*
X1045491Y0070333D01*
X1047740D01*
Y0073332D01*
X1049240Y0070333D02*
X1050739D01*
X1049989D01*
Y0074832D01*
X1049240D01*
X1053738Y0073332D02*
X1055238D01*
X1055987Y0072582D01*
Y0070333D01*
X1053738D01*
X1052988Y0071083D01*
X1053738Y0071833D01*
X1055987D01*
X1057487Y0073332D02*
Y0070333D01*
Y0071833D01*
X1058237Y0072582D01*
X1058986Y0073332D01*
X1059736D01*
X1066484Y0068834D02*
Y0073332D01*
X1068733D01*
X1069483Y0072582D01*
Y0071083D01*
X1068733Y0070333D01*
X1066484D01*
X1070982Y0073332D02*
Y0071083D01*
X1071732Y0070333D01*
X1073981D01*
Y0073332D01*
X1075481D02*
Y0070333D01*
Y0071833D01*
X1076231Y0072582D01*
X1076981Y0073332D01*
X1077730D01*
X1079980Y0068834D02*
Y0073332D01*
X1082229D01*
X1082979Y0072582D01*
Y0071083D01*
X1082229Y0070333D01*
X1079980D01*
X1085228D02*
X1086727D01*
X1087477Y0071083D01*
Y0072582D01*
X1086727Y0073332D01*
X1085228D01*
X1084478Y0072582D01*
Y0071083D01*
X1085228Y0070333D01*
X1088977D02*
X1091226D01*
X1091976Y0071083D01*
X1091226Y0071833D01*
X1089727D01*
X1088977Y0072582D01*
X1089727Y0073332D01*
X1091976D01*
X1095724Y0070333D02*
X1094225D01*
X1093475Y0071083D01*
Y0072582D01*
X1094225Y0073332D01*
X1095724D01*
X1096474Y0072582D01*
Y0071833D01*
X1093475D01*
X1098724Y0069583D02*
X1099473Y0070333D01*
Y0071083D01*
X1098724D01*
Y0070333D01*
X1099473D01*
X1098724Y0069583D01*
X1097974Y0068834D01*
X1107721Y0070333D02*
X1109220D01*
X1109970Y0071083D01*
Y0072582D01*
X1109220Y0073332D01*
X1107721D01*
X1106971Y0072582D01*
Y0071083D01*
X1107721Y0070333D01*
X1111469Y0073332D02*
Y0070333D01*
Y0071833D01*
X1112219Y0072582D01*
X1112969Y0073332D01*
X1113719D01*
X1120467D02*
Y0071083D01*
X1121216Y0070333D01*
X1121966Y0071083D01*
X1122716Y0070333D01*
X1123466Y0071083D01*
Y0073332D01*
X1124965Y0070333D02*
X1126465D01*
X1125715D01*
Y0073332D01*
X1124965D01*
X1128714Y0070333D02*
X1130213D01*
X1129464D01*
Y0074832D01*
X1128714D01*
X1132463Y0070333D02*
X1133962D01*
X1133212D01*
Y0074832D01*
X1132463D01*
X1141460Y0070333D02*
X1142959D01*
X1143709Y0071083D01*
Y0072582D01*
X1142959Y0073332D01*
X1141460D01*
X1140710Y0072582D01*
Y0071083D01*
X1141460Y0070333D01*
X1145209Y0068834D02*
Y0073332D01*
X1147458D01*
X1148208Y0072582D01*
Y0071083D01*
X1147458Y0070333D01*
X1145209D01*
X1151956D02*
X1150457D01*
X1149707Y0071083D01*
Y0072582D01*
X1150457Y0073332D01*
X1151956D01*
X1152706Y0072582D01*
Y0071833D01*
X1149707D01*
X1154206Y0073332D02*
Y0070333D01*
Y0071833D01*
X1154955Y0072582D01*
X1155705Y0073332D01*
X1156455D01*
X1159454D02*
X1160954D01*
X1161703Y0072582D01*
Y0070333D01*
X1159454D01*
X1158704Y0071083D01*
X1159454Y0071833D01*
X1161703D01*
X1163953Y0074082D02*
Y0073332D01*
X1163203D01*
X1164702D01*
X1163953D01*
Y0071083D01*
X1164702Y0070333D01*
X1169201D02*
X1167701D01*
X1166952Y0071083D01*
Y0072582D01*
X1167701Y0073332D01*
X1169201D01*
X1169951Y0072582D01*
Y0071833D01*
X1166952D01*
X1175949Y0070333D02*
X1177448D01*
X1176698D01*
Y0073332D01*
X1175949D01*
X1179698Y0070333D02*
Y0073332D01*
X1181947D01*
X1182697Y0072582D01*
Y0070333D01*
X0707350Y0062066D02*
X0708849D01*
X0709599Y0061316D01*
Y0059066D01*
X0707350D01*
X0706600Y0059816D01*
X0707350Y0060566D01*
X0709599D01*
X0711098Y0059066D02*
Y0062066D01*
X0713348D01*
X0714098Y0061316D01*
Y0059066D01*
X0720096D02*
X0721595D01*
X0720845D01*
Y0062066D01*
X0720096D01*
X0723844Y0059066D02*
Y0062066D01*
X0724594D01*
X0725344Y0061316D01*
Y0059066D01*
Y0061316D01*
X0726094Y0062066D01*
X0726844Y0061316D01*
Y0059066D01*
X0728343Y0057567D02*
Y0062066D01*
X0730592D01*
X0731342Y0061316D01*
Y0059816D01*
X0730592Y0059066D01*
X0728343D01*
X0732841D02*
X0734341D01*
X0733591D01*
Y0063565D01*
X0732841D01*
X0738840Y0059066D02*
X0737340D01*
X0736590Y0059816D01*
Y0061316D01*
X0737340Y0062066D01*
X0738840D01*
X0739589Y0061316D01*
Y0060566D01*
X0736590D01*
X0741089Y0059066D02*
Y0062066D01*
X0741839D01*
X0742588Y0061316D01*
Y0059066D01*
Y0061316D01*
X0743338Y0062066D01*
X0744088Y0061316D01*
Y0059066D01*
X0747837D02*
X0746337D01*
X0745587Y0059816D01*
Y0061316D01*
X0746337Y0062066D01*
X0747837D01*
X0748587Y0061316D01*
Y0060566D01*
X0745587D01*
X0750086Y0059066D02*
Y0062066D01*
X0752335D01*
X0753085Y0061316D01*
Y0059066D01*
X0755334Y0062815D02*
Y0062066D01*
X0754585D01*
X0756084D01*
X0755334D01*
Y0059816D01*
X0756084Y0059066D01*
X0759083Y0062066D02*
X0760583D01*
X0761332Y0061316D01*
Y0059066D01*
X0759083D01*
X0758333Y0059816D01*
X0759083Y0060566D01*
X0761332D01*
X0763582Y0062815D02*
Y0062066D01*
X0762832D01*
X0764331D01*
X0763582D01*
Y0059816D01*
X0764331Y0059066D01*
X0766581D02*
X0768080D01*
X0767330D01*
Y0062066D01*
X0766581D01*
X0771079Y0059066D02*
X0772579D01*
X0773328Y0059816D01*
Y0061316D01*
X0772579Y0062066D01*
X0771079D01*
X0770329Y0061316D01*
Y0059816D01*
X0771079Y0059066D01*
X0774828D02*
Y0062066D01*
X0777077D01*
X0777827Y0061316D01*
Y0059066D01*
X0779327D02*
Y0059816D01*
X0780076D01*
Y0059066D01*
X0779327D01*
X0787574Y0063565D02*
X0790573D01*
X0789073D01*
Y0059066D01*
X0792072Y0063565D02*
X0793572D01*
X0792822D01*
Y0059066D01*
X0792072D01*
X0793572D01*
X0801070Y0062066D02*
X0802569D01*
X0803319Y0061316D01*
Y0059066D01*
X0801070D01*
X0800320Y0059816D01*
X0801070Y0060566D01*
X0803319D01*
X0804818Y0059066D02*
Y0062066D01*
X0807068D01*
X0807817Y0061316D01*
Y0059066D01*
X0812316Y0063565D02*
Y0059066D01*
X0810067D01*
X0809317Y0059816D01*
Y0061316D01*
X0810067Y0062066D01*
X0812316D01*
X0813815Y0059066D02*
X0816815Y0062066D01*
X0819064Y0059066D02*
X0820563D01*
X0821313Y0059816D01*
Y0061316D01*
X0820563Y0062066D01*
X0819064D01*
X0818314Y0061316D01*
Y0059816D01*
X0819064Y0059066D01*
X0822812Y0062066D02*
Y0059066D01*
Y0060566D01*
X0823562Y0061316D01*
X0824312Y0062066D01*
X0825062D01*
X0831810Y0059066D02*
X0833309D01*
X0832559D01*
Y0062066D01*
X0831810D01*
X0836308Y0062815D02*
Y0062066D01*
X0835558D01*
X0837058D01*
X0836308D01*
Y0059816D01*
X0837058Y0059066D01*
X0839307D02*
X0841556D01*
X0842306Y0059816D01*
X0841556Y0060566D01*
X0840057D01*
X0839307Y0061316D01*
X0840057Y0062066D01*
X0842306D01*
X0848304Y0059066D02*
X0849804D01*
X0849054D01*
Y0063565D01*
X0848304D01*
X0852053Y0059066D02*
X0853553D01*
X0852803D01*
Y0062066D01*
X0852053D01*
X0858801D02*
X0856552D01*
X0855802Y0061316D01*
Y0059816D01*
X0856552Y0059066D01*
X0858801D01*
X0862550D02*
X0861050D01*
X0860300Y0059816D01*
Y0061316D01*
X0861050Y0062066D01*
X0862550D01*
X0863299Y0061316D01*
Y0060566D01*
X0860300D01*
X0864799Y0059066D02*
Y0062066D01*
X0867048D01*
X0867798Y0061316D01*
Y0059066D01*
X0869298D02*
X0871547D01*
X0872297Y0059816D01*
X0871547Y0060566D01*
X0870047D01*
X0869298Y0061316D01*
X0870047Y0062066D01*
X0872297D01*
X0874546Y0059066D02*
X0876045D01*
X0876795Y0059816D01*
Y0061316D01*
X0876045Y0062066D01*
X0874546D01*
X0873796Y0061316D01*
Y0059816D01*
X0874546Y0059066D01*
X0878295Y0062066D02*
Y0059066D01*
Y0060566D01*
X0879044Y0061316D01*
X0879794Y0062066D01*
X0880544D01*
X0882793Y0059066D02*
X0885042D01*
X0885792Y0059816D01*
X0885042Y0060566D01*
X0883543D01*
X0882793Y0061316D01*
X0883543Y0062066D01*
X0885792D01*
X0894789Y0063565D02*
Y0059066D01*
X0892540D01*
X0891790Y0059816D01*
Y0061316D01*
X0892540Y0062066D01*
X0894789D01*
X0897039Y0059066D02*
X0898538D01*
X0899288Y0059816D01*
Y0061316D01*
X0898538Y0062066D01*
X0897039D01*
X0896289Y0061316D01*
Y0059816D01*
X0897039Y0059066D01*
X0905286D02*
Y0062066D01*
X0907535D01*
X0908285Y0061316D01*
Y0059066D01*
X0910534D02*
X0912034D01*
X0912784Y0059816D01*
Y0061316D01*
X0912034Y0062066D01*
X0910534D01*
X0909785Y0061316D01*
Y0059816D01*
X0910534Y0059066D01*
X0915033Y0062815D02*
Y0062066D01*
X0914283D01*
X0915783D01*
X0915033D01*
Y0059816D01*
X0915783Y0059066D01*
X0922530Y0062066D02*
Y0059816D01*
X0923280Y0059066D01*
X0924030Y0059816D01*
X0924780Y0059066D01*
X0925529Y0059816D01*
Y0062066D01*
X0927779D02*
X0929278D01*
X0930028Y0061316D01*
Y0059066D01*
X0927779D01*
X0927029Y0059816D01*
X0927779Y0060566D01*
X0930028D01*
X0931528Y0062066D02*
Y0059066D01*
Y0060566D01*
X0932277Y0061316D01*
X0933027Y0062066D01*
X0933777D01*
X0936026D02*
Y0059066D01*
Y0060566D01*
X0936776Y0061316D01*
X0937525Y0062066D01*
X0938275D01*
X0941274D02*
X0942774D01*
X0943524Y0061316D01*
Y0059066D01*
X0941274D01*
X0940525Y0059816D01*
X0941274Y0060566D01*
X0943524D01*
X0945023Y0059066D02*
Y0062066D01*
X0947272D01*
X0948022Y0061316D01*
Y0059066D01*
X0950271Y0062815D02*
Y0062066D01*
X0949522D01*
X0951021D01*
X0950271D01*
Y0059816D01*
X0951021Y0059066D01*
X0958519Y0062815D02*
Y0062066D01*
X0957769D01*
X0959268D01*
X0958519D01*
Y0059816D01*
X0959268Y0059066D01*
X0961518Y0063565D02*
Y0059066D01*
Y0061316D01*
X0962268Y0062066D01*
X0963767D01*
X0964517Y0061316D01*
Y0059066D01*
X0966766Y0062066D02*
X0968266D01*
X0969015Y0061316D01*
Y0059066D01*
X0966766D01*
X0966016Y0059816D01*
X0966766Y0060566D01*
X0969015D01*
X0971265Y0062815D02*
Y0062066D01*
X0970515D01*
X0972014D01*
X0971265D01*
Y0059816D01*
X0972014Y0059066D01*
X0979512Y0062815D02*
Y0062066D01*
X0978762D01*
X0980262D01*
X0979512D01*
Y0059816D01*
X0980262Y0059066D01*
X0982511Y0063565D02*
Y0059066D01*
Y0061316D01*
X0983261Y0062066D01*
X0984760D01*
X0985510Y0061316D01*
Y0059066D01*
X0989259D02*
X0987759D01*
X0987010Y0059816D01*
Y0061316D01*
X0987759Y0062066D01*
X0989259D01*
X0990009Y0061316D01*
Y0060566D01*
X0987010D01*
X0999006Y0063565D02*
Y0059066D01*
X0996756D01*
X0996007Y0059816D01*
Y0061316D01*
X0996756Y0062066D01*
X0999006D01*
X1002754Y0059066D02*
X1001255D01*
X1000505Y0059816D01*
Y0061316D01*
X1001255Y0062066D01*
X1002754D01*
X1003504Y0061316D01*
Y0060566D01*
X1000505D01*
X1005004Y0059066D02*
X1007253D01*
X1008003Y0059816D01*
X1007253Y0060566D01*
X1005754D01*
X1005004Y0061316D01*
X1005754Y0062066D01*
X1008003D01*
X1009502Y0059066D02*
X1011002D01*
X1010252D01*
Y0062066D01*
X1009502D01*
X1014751Y0057567D02*
X1015500D01*
X1016250Y0058317D01*
Y0062066D01*
X1014001D01*
X1013251Y0061316D01*
Y0059816D01*
X1014001Y0059066D01*
X1016250D01*
X1017750D02*
Y0062066D01*
X1019999D01*
X1020749Y0061316D01*
Y0059066D01*
X1026747D02*
X1028246D01*
X1027497D01*
Y0062066D01*
X1026747D01*
X1030496Y0059066D02*
X1032745D01*
X1033495Y0059816D01*
X1032745Y0060566D01*
X1031245D01*
X1030496Y0061316D01*
X1031245Y0062066D01*
X1033495D01*
X1039493Y0057567D02*
Y0062066D01*
X1041742D01*
X1042492Y0061316D01*
Y0059816D01*
X1041742Y0059066D01*
X1039493D01*
X1043991Y0062066D02*
Y0059066D01*
Y0060566D01*
X1044741Y0061316D01*
X1045491Y0062066D01*
X1046241D01*
X1049240Y0059066D02*
X1050739D01*
X1051489Y0059816D01*
Y0061316D01*
X1050739Y0062066D01*
X1049240D01*
X1048490Y0061316D01*
Y0059816D01*
X1049240Y0059066D01*
X1055987Y0063565D02*
Y0059066D01*
X1053738D01*
X1052988Y0059816D01*
Y0061316D01*
X1053738Y0062066D01*
X1055987D01*
X1057487D02*
Y0059816D01*
X1058237Y0059066D01*
X1060486D01*
Y0062066D01*
X1064984D02*
X1062735D01*
X1061985Y0061316D01*
Y0059816D01*
X1062735Y0059066D01*
X1064984D01*
X1067234Y0062815D02*
Y0062066D01*
X1066484D01*
X1067984D01*
X1067234D01*
Y0059816D01*
X1067984Y0059066D01*
X1070233D02*
X1071732D01*
X1070982D01*
Y0062066D01*
X1070233D01*
X1074731Y0059066D02*
X1076231D01*
X1076981Y0059816D01*
Y0061316D01*
X1076231Y0062066D01*
X1074731D01*
X1073982Y0061316D01*
Y0059816D01*
X1074731Y0059066D01*
X1078480D02*
Y0062066D01*
X1080729D01*
X1081479Y0061316D01*
Y0059066D01*
X1087477Y0062066D02*
Y0059816D01*
X1088227Y0059066D01*
X1088977Y0059816D01*
X1089727Y0059066D01*
X1090476Y0059816D01*
Y0062066D01*
X1092725Y0059066D02*
X1094225D01*
X1094975Y0059816D01*
Y0061316D01*
X1094225Y0062066D01*
X1092725D01*
X1091976Y0061316D01*
Y0059816D01*
X1092725Y0059066D01*
X1096474Y0062066D02*
Y0059066D01*
Y0060566D01*
X1097224Y0061316D01*
X1097974Y0062066D01*
X1098724D01*
X1101723Y0062815D02*
Y0062066D01*
X1100973D01*
X1102472D01*
X1101723D01*
Y0059816D01*
X1102472Y0059066D01*
X1104722Y0063565D02*
Y0059066D01*
Y0061316D01*
X1105471Y0062066D01*
X1106971D01*
X1107721Y0061316D01*
Y0059066D01*
X1109220Y0062066D02*
Y0059816D01*
X1109970Y0059066D01*
X1112219D01*
Y0058317D01*
X1111469Y0057567D01*
X1110720D01*
X1112219Y0059066D02*
Y0062066D01*
X1113719Y0059066D02*
Y0059816D01*
X1114468D01*
Y0059066D01*
X1113719D01*
X1121966Y0063565D02*
Y0062815D01*
X1123466Y0061316D01*
X1124965Y0062815D01*
Y0063565D01*
X1123466Y0061316D02*
Y0059066D01*
X1127214D02*
X1128714D01*
X1129464Y0059816D01*
Y0061316D01*
X1128714Y0062066D01*
X1127214D01*
X1126465Y0061316D01*
Y0059816D01*
X1127214Y0059066D01*
X1130963Y0062066D02*
Y0059816D01*
X1131713Y0059066D01*
X1133962D01*
Y0062066D01*
X1139960Y0059066D02*
X1142210D01*
X1142959Y0059816D01*
X1142210Y0060566D01*
X1140710D01*
X1139960Y0061316D01*
X1140710Y0062066D01*
X1142959D01*
X1144459Y0063565D02*
Y0059066D01*
Y0061316D01*
X1145209Y0062066D01*
X1146708D01*
X1147458Y0061316D01*
Y0059066D01*
X1149707D02*
X1151207D01*
X1151956Y0059816D01*
Y0061316D01*
X1151207Y0062066D01*
X1149707D01*
X1148957Y0061316D01*
Y0059816D01*
X1149707Y0059066D01*
X1153456Y0062066D02*
Y0059816D01*
X1154206Y0059066D01*
X1156455D01*
Y0062066D01*
X1157955Y0059066D02*
X1159454D01*
X1158704D01*
Y0063565D01*
X1157955D01*
X1164702D02*
Y0059066D01*
X1162453D01*
X1161703Y0059816D01*
Y0061316D01*
X1162453Y0062066D01*
X1164702D01*
X0709599Y0050799D02*
X0707350D01*
X0706600Y0050049D01*
Y0048550D01*
X0707350Y0047800D01*
X0709599D01*
X0711848D02*
X0713348D01*
X0714098Y0048550D01*
Y0050049D01*
X0713348Y0050799D01*
X0711848D01*
X0711098Y0050049D01*
Y0048550D01*
X0711848Y0047800D01*
X0715597D02*
Y0050799D01*
X0716347D01*
X0717097Y0050049D01*
Y0047800D01*
Y0050049D01*
X0717846Y0050799D01*
X0718596Y0050049D01*
Y0047800D01*
X0720096Y0046301D02*
Y0050799D01*
X0722345D01*
X0723095Y0050049D01*
Y0048550D01*
X0722345Y0047800D01*
X0720096D01*
X0724594D02*
X0726094D01*
X0725344D01*
Y0052299D01*
X0724594D01*
X0730592Y0047800D02*
X0729093D01*
X0728343Y0048550D01*
Y0050049D01*
X0729093Y0050799D01*
X0730592D01*
X0731342Y0050049D01*
Y0049299D01*
X0728343D01*
X0733591Y0051549D02*
Y0050799D01*
X0732841D01*
X0734341D01*
X0733591D01*
Y0048550D01*
X0734341Y0047800D01*
X0738840D02*
X0737340D01*
X0736590Y0048550D01*
Y0050049D01*
X0737340Y0050799D01*
X0738840D01*
X0739589Y0050049D01*
Y0049299D01*
X0736590D01*
X0741089Y0047800D02*
X0742588D01*
X0741839D01*
Y0052299D01*
X0741089D01*
X0744838Y0050799D02*
Y0048550D01*
X0745587Y0047800D01*
X0747837D01*
Y0047050D01*
X0747087Y0046301D01*
X0746337D01*
X0747837Y0047800D02*
Y0050799D01*
X0753835D02*
X0755334Y0047800D01*
X0756834Y0050799D01*
X0759083D02*
X0760583D01*
X0761332Y0050049D01*
Y0047800D01*
X0759083D01*
X0758333Y0048550D01*
X0759083Y0049299D01*
X0761332D01*
X0762832Y0047800D02*
X0764331D01*
X0763582D01*
Y0052299D01*
X0762832D01*
X0766581Y0047800D02*
X0768080D01*
X0767330D01*
Y0050799D01*
X0766581D01*
X0773328Y0052299D02*
Y0047800D01*
X0771079D01*
X0770329Y0048550D01*
Y0050049D01*
X0771079Y0050799D01*
X0773328D01*
X0775578D02*
X0777077D01*
X0777827Y0050049D01*
Y0047800D01*
X0775578D01*
X0774828Y0048550D01*
X0775578Y0049299D01*
X0777827D01*
X0780076Y0051549D02*
Y0050799D01*
X0779327D01*
X0780826D01*
X0780076D01*
Y0048550D01*
X0780826Y0047800D01*
X0785325D02*
X0783825D01*
X0783075Y0048550D01*
Y0050049D01*
X0783825Y0050799D01*
X0785325D01*
X0786074Y0050049D01*
Y0049299D01*
X0783075D01*
X0792822Y0050799D02*
X0794322D01*
X0795072Y0050049D01*
Y0047800D01*
X0792822D01*
X0792072Y0048550D01*
X0792822Y0049299D01*
X0795072D01*
X0796571Y0047800D02*
Y0050799D01*
X0798820D01*
X0799570Y0050049D01*
Y0047800D01*
X0804069Y0052299D02*
Y0047800D01*
X0801819D01*
X0801070Y0048550D01*
Y0050049D01*
X0801819Y0050799D01*
X0804069D01*
X0810816Y0051549D02*
Y0050799D01*
X0810067D01*
X0811566D01*
X0810816D01*
Y0048550D01*
X0811566Y0047800D01*
X0816065D02*
X0814565D01*
X0813815Y0048550D01*
Y0050049D01*
X0814565Y0050799D01*
X0816065D01*
X0816815Y0050049D01*
Y0049299D01*
X0813815D01*
X0818314Y0047800D02*
X0820563D01*
X0821313Y0048550D01*
X0820563Y0049299D01*
X0819064D01*
X0818314Y0050049D01*
X0819064Y0050799D01*
X0821313D01*
X0823562Y0051549D02*
Y0050799D01*
X0822812D01*
X0824312D01*
X0823562D01*
Y0048550D01*
X0824312Y0047800D01*
X0831060Y0050799D02*
Y0048550D01*
X0831810Y0047800D01*
X0834059D01*
Y0047050D01*
X0833309Y0046301D01*
X0832559D01*
X0834059Y0047800D02*
Y0050799D01*
X0836308Y0047800D02*
X0837808D01*
X0838558Y0048550D01*
Y0050049D01*
X0837808Y0050799D01*
X0836308D01*
X0835558Y0050049D01*
Y0048550D01*
X0836308Y0047800D01*
X0840057Y0050799D02*
Y0048550D01*
X0840807Y0047800D01*
X0843056D01*
Y0050799D01*
X0844555D02*
Y0047800D01*
Y0049299D01*
X0845305Y0050049D01*
X0846055Y0050799D01*
X0846805D01*
X0856552Y0052299D02*
Y0047800D01*
X0854302D01*
X0853553Y0048550D01*
Y0050049D01*
X0854302Y0050799D01*
X0856552D01*
X0860300Y0047800D02*
X0858801D01*
X0858051Y0048550D01*
Y0050049D01*
X0858801Y0050799D01*
X0860300D01*
X0861050Y0050049D01*
Y0049299D01*
X0858051D01*
X0862550Y0047800D02*
X0864799D01*
X0865549Y0048550D01*
X0864799Y0049299D01*
X0863299D01*
X0862550Y0050049D01*
X0863299Y0050799D01*
X0865549D01*
X0867048Y0047800D02*
X0868548D01*
X0867798D01*
Y0050799D01*
X0867048D01*
X0872297Y0046301D02*
X0873046D01*
X0873796Y0047050D01*
Y0050799D01*
X0871547D01*
X0870797Y0050049D01*
Y0048550D01*
X0871547Y0047800D01*
X0873796D01*
X0875296D02*
Y0050799D01*
X0877545D01*
X0878295Y0050049D01*
Y0047800D01*
X0884293D02*
X0885792D01*
X0885042D01*
Y0050799D01*
X0884293D01*
X0888041Y0047800D02*
Y0050799D01*
X0888791D01*
X0889541Y0050049D01*
Y0047800D01*
Y0050049D01*
X0890291Y0050799D01*
X0891041Y0050049D01*
Y0047800D01*
X0892540Y0046301D02*
Y0050799D01*
X0894789D01*
X0895539Y0050049D01*
Y0048550D01*
X0894789Y0047800D01*
X0892540D01*
X0897039D02*
X0898538D01*
X0897788D01*
Y0052299D01*
X0897039D01*
X0903037Y0047800D02*
X0901537D01*
X0900787Y0048550D01*
Y0050049D01*
X0901537Y0050799D01*
X0903037D01*
X0903786Y0050049D01*
Y0049299D01*
X0900787D01*
X0905286Y0047800D02*
Y0050799D01*
X0906036D01*
X0906785Y0050049D01*
Y0047800D01*
Y0050049D01*
X0907535Y0050799D01*
X0908285Y0050049D01*
Y0047800D01*
X0912034D02*
X0910534D01*
X0909785Y0048550D01*
Y0050049D01*
X0910534Y0050799D01*
X0912034D01*
X0912784Y0050049D01*
Y0049299D01*
X0909785D01*
X0914283Y0047800D02*
Y0050799D01*
X0916532D01*
X0917282Y0050049D01*
Y0047800D01*
X0919531Y0051549D02*
Y0050799D01*
X0918782D01*
X0920281D01*
X0919531D01*
Y0048550D01*
X0920281Y0047800D01*
X0923280Y0050799D02*
X0924780D01*
X0925529Y0050049D01*
Y0047800D01*
X0923280D01*
X0922530Y0048550D01*
X0923280Y0049299D01*
X0925529D01*
X0927779Y0051549D02*
Y0050799D01*
X0927029D01*
X0928528D01*
X0927779D01*
Y0048550D01*
X0928528Y0047800D01*
X0930778D02*
X0932277D01*
X0931528D01*
Y0050799D01*
X0930778D01*
X0935276Y0047800D02*
X0936776D01*
X0937525Y0048550D01*
Y0050049D01*
X0936776Y0050799D01*
X0935276D01*
X0934527Y0050049D01*
Y0048550D01*
X0935276Y0047800D01*
X0939025D02*
Y0050799D01*
X0941274D01*
X0942024Y0050049D01*
Y0047800D01*
X0948772Y0051549D02*
Y0050799D01*
X0948022D01*
X0949522D01*
X0948772D01*
Y0048550D01*
X0949522Y0047800D01*
X0952521D02*
X0954020D01*
X0954770Y0048550D01*
Y0050049D01*
X0954020Y0050799D01*
X0952521D01*
X0951771Y0050049D01*
Y0048550D01*
X0952521Y0047800D01*
X0963767Y0050799D02*
X0961518D01*
X0960768Y0050049D01*
Y0048550D01*
X0961518Y0047800D01*
X0963767D01*
X0966016D02*
X0967516D01*
X0968266Y0048550D01*
Y0050049D01*
X0967516Y0050799D01*
X0966016D01*
X0965267Y0050049D01*
Y0048550D01*
X0966016Y0047800D01*
X0969765D02*
Y0050799D01*
X0972014D01*
X0972764Y0050049D01*
Y0047800D01*
X0975014D02*
Y0051549D01*
Y0050049D01*
X0974264D01*
X0975763D01*
X0975014D01*
Y0051549D01*
X0975763Y0052299D01*
X0978012Y0047800D02*
X0979512D01*
X0978762D01*
Y0050799D01*
X0978012D01*
X0981761D02*
Y0047800D01*
Y0049299D01*
X0982511Y0050049D01*
X0983261Y0050799D01*
X0984011D01*
X0986260Y0047800D02*
Y0050799D01*
X0987010D01*
X0987759Y0050049D01*
Y0047800D01*
Y0050049D01*
X0988509Y0050799D01*
X0989259Y0050049D01*
Y0047800D01*
X0996007Y0051549D02*
Y0050799D01*
X0995257D01*
X0996756D01*
X0996007D01*
Y0048550D01*
X0996756Y0047800D01*
X0999006Y0052299D02*
Y0047800D01*
Y0050049D01*
X0999755Y0050799D01*
X1001255D01*
X1002005Y0050049D01*
Y0047800D01*
X1005754D02*
X1004254D01*
X1003504Y0048550D01*
Y0050049D01*
X1004254Y0050799D01*
X1005754D01*
X1006503Y0050049D01*
Y0049299D01*
X1003504D01*
X1012501Y0047800D02*
X1014751D01*
X1015500Y0048550D01*
X1014751Y0049299D01*
X1013251D01*
X1012501Y0050049D01*
X1013251Y0050799D01*
X1015500D01*
X1017000D02*
Y0048550D01*
X1017750Y0047800D01*
X1019999D01*
Y0047050D01*
X1019249Y0046301D01*
X1018499D01*
X1019999Y0047800D02*
Y0050799D01*
X1021498Y0047800D02*
X1023748D01*
X1024498Y0048550D01*
X1023748Y0049299D01*
X1022248D01*
X1021498Y0050049D01*
X1022248Y0050799D01*
X1024498D01*
X1026747Y0051549D02*
Y0050799D01*
X1025997D01*
X1027497D01*
X1026747D01*
Y0048550D01*
X1027497Y0047800D01*
X1031995D02*
X1030496D01*
X1029746Y0048550D01*
Y0050049D01*
X1030496Y0050799D01*
X1031995D01*
X1032745Y0050049D01*
Y0049299D01*
X1029746D01*
X1034244Y0047800D02*
Y0050799D01*
X1034994D01*
X1035744Y0050049D01*
Y0047800D01*
Y0050049D01*
X1036494Y0050799D01*
X1037243Y0050049D01*
Y0047800D01*
X1043991D02*
Y0051549D01*
Y0050049D01*
X1043242D01*
X1044741D01*
X1043991D01*
Y0051549D01*
X1044741Y0052299D01*
X1046990Y0050799D02*
Y0048550D01*
X1047740Y0047800D01*
X1049989D01*
Y0050799D01*
X1051489Y0047800D02*
Y0050799D01*
X1053738D01*
X1054488Y0050049D01*
Y0047800D01*
X1058986Y0050799D02*
X1056737D01*
X1055987Y0050049D01*
Y0048550D01*
X1056737Y0047800D01*
X1058986D01*
X1061236Y0051549D02*
Y0050799D01*
X1060486D01*
X1061985D01*
X1061236D01*
Y0048550D01*
X1061985Y0047800D01*
X1064235D02*
X1065734D01*
X1064984D01*
Y0050799D01*
X1064235D01*
X1068733Y0047800D02*
X1070233D01*
X1070982Y0048550D01*
Y0050049D01*
X1070233Y0050799D01*
X1068733D01*
X1067984Y0050049D01*
Y0048550D01*
X1068733Y0047800D01*
X1072482D02*
Y0050799D01*
X1074731D01*
X1075481Y0050049D01*
Y0047800D01*
X1077730Y0050799D02*
X1079230D01*
X1079980Y0050049D01*
Y0047800D01*
X1077730D01*
X1076981Y0048550D01*
X1077730Y0049299D01*
X1079980D01*
X1081479Y0047800D02*
X1082979D01*
X1082229D01*
Y0052299D01*
X1081479D01*
X1085228Y0047800D02*
X1086727D01*
X1085978D01*
Y0050799D01*
X1085228D01*
X1089727Y0051549D02*
Y0050799D01*
X1088977D01*
X1090476D01*
X1089727D01*
Y0048550D01*
X1090476Y0047800D01*
X1092725Y0050799D02*
Y0048550D01*
X1093475Y0047800D01*
X1095724D01*
Y0047050D01*
X1094975Y0046301D01*
X1094225D01*
X1095724Y0047800D02*
Y0050799D01*
X1102472Y0047800D02*
Y0051549D01*
Y0050049D01*
X1101723D01*
X1103222D01*
X1102472D01*
Y0051549D01*
X1103222Y0052299D01*
X1106221Y0047800D02*
X1107721D01*
X1108470Y0048550D01*
Y0050049D01*
X1107721Y0050799D01*
X1106221D01*
X1105471Y0050049D01*
Y0048550D01*
X1106221Y0047800D01*
X1109970Y0050799D02*
Y0047800D01*
Y0049299D01*
X1110720Y0050049D01*
X1111469Y0050799D01*
X1112219D01*
X1118967D02*
Y0048550D01*
X1119717Y0047800D01*
X1121966D01*
Y0047050D01*
X1121216Y0046301D01*
X1120467D01*
X1121966Y0047800D02*
Y0050799D01*
X1124215Y0047800D02*
X1125715D01*
X1126465Y0048550D01*
Y0050049D01*
X1125715Y0050799D01*
X1124215D01*
X1123466Y0050049D01*
Y0048550D01*
X1124215Y0047800D01*
X1127964Y0050799D02*
Y0048550D01*
X1128714Y0047800D01*
X1130963D01*
Y0050799D01*
X1132463D02*
Y0047800D01*
Y0049299D01*
X1133212Y0050049D01*
X1133962Y0050799D01*
X1134712D01*
X1142210D02*
X1143709D01*
X1144459Y0050049D01*
Y0047800D01*
X1142210D01*
X1141460Y0048550D01*
X1142210Y0049299D01*
X1144459D01*
X1145958Y0046301D02*
Y0050799D01*
X1148208D01*
X1148957Y0050049D01*
Y0048550D01*
X1148208Y0047800D01*
X1145958D01*
X1150457Y0046301D02*
Y0050799D01*
X1152706D01*
X1153456Y0050049D01*
Y0048550D01*
X1152706Y0047800D01*
X1150457D01*
X1154955D02*
X1156455D01*
X1155705D01*
Y0052299D01*
X1154955D01*
X1158704Y0047800D02*
X1160204D01*
X1159454D01*
Y0050799D01*
X1158704D01*
X1165452D02*
X1163203D01*
X1162453Y0050049D01*
Y0048550D01*
X1163203Y0047800D01*
X1165452D01*
X1167701Y0050799D02*
X1169201D01*
X1169951Y0050049D01*
Y0047800D01*
X1167701D01*
X1166952Y0048550D01*
X1167701Y0049299D01*
X1169951D01*
X1172200Y0051549D02*
Y0050799D01*
X1171450D01*
X1172950D01*
X1172200D01*
Y0048550D01*
X1172950Y0047800D01*
X1175199D02*
X1176698D01*
X1175949D01*
Y0050799D01*
X1175199D01*
X1179698Y0047800D02*
X1181197D01*
X1181947Y0048550D01*
Y0050049D01*
X1181197Y0050799D01*
X1179698D01*
X1178948Y0050049D01*
Y0048550D01*
X1179698Y0047800D01*
X1183446D02*
Y0050799D01*
X1185695D01*
X1186445Y0050049D01*
Y0047800D01*
X1187945D02*
Y0048550D01*
X1188695D01*
Y0047800D01*
X1187945D01*
G54D15*
X2016550Y0096549D02*
Y0092050D01*
X2019121D01*
X2023042D02*
X2021328Y0096549D01*
X2019614Y0092050D01*
X2020256Y0093550D02*
X2022399D01*
X2024091Y0096549D02*
X2025805Y0094407D01*
Y0092050D01*
X2027519Y0096549D02*
X2025805Y0094407D01*
X2029383Y0096549D02*
X2028955Y0096335D01*
X2028526Y0095906D01*
X2028312Y0095478D01*
X2028098Y0094835D01*
Y0093764D01*
X2028312Y0093121D01*
X2028526Y0092693D01*
X2028955Y0092264D01*
X2029383Y0092050D01*
X2030240D01*
X2030668Y0092264D01*
X2031097Y0092693D01*
X2031311Y0093121D01*
X2031525Y0093764D01*
Y0094835D01*
X2031311Y0095478D01*
X2031097Y0095906D01*
X2030668Y0096335D01*
X2030240Y0096549D01*
X2029383D01*
X2032575D02*
Y0093335D01*
X2032789Y0092693D01*
X2033218Y0092264D01*
X2033861Y0092050D01*
X2034289D01*
X2034932Y0092264D01*
X2035360Y0092693D01*
X2035575Y0093335D01*
Y0096549D01*
X2038317D02*
Y0092050D01*
X2036817Y0096549D02*
X2039816D01*
X2043887D02*
Y0092050D01*
Y0096549D02*
X2045815D01*
X2046458Y0096335D01*
X2046672Y0096121D01*
X2046886Y0095692D01*
Y0095264D01*
X2046672Y0094835D01*
X2046458Y0094621D01*
X2045815Y0094407D01*
X2043887D02*
X2045815D01*
X2046458Y0094192D01*
X2046672Y0093978D01*
X2046886Y0093550D01*
Y0092907D01*
X2046672Y0092479D01*
X2046458Y0092264D01*
X2045815Y0092050D01*
X2043887D01*
X2047893Y0096549D02*
X2049607Y0094407D01*
Y0092050D01*
X2051321Y0096549D02*
X2049607Y0094407D01*
X2052114Y0095049D02*
X2051900Y0094835D01*
X2052114Y0094621D01*
X2052328Y0094835D01*
X2052114Y0095049D01*
Y0092479D02*
X2051900Y0092264D01*
X2052114Y0092050D01*
X2052328Y0092264D01*
X2052114Y0092479D01*
X2019978Y0061050D02*
X2018264Y0065549D01*
X2016550Y0061050D01*
X2017193Y0062550D02*
X2019335D01*
X2021028Y0065549D02*
Y0061050D01*
X2023598D01*
X2025591Y0065549D02*
Y0061050D01*
X2024091Y0065549D02*
X2027091D01*
X2027626D02*
Y0061050D01*
X2028569Y0065549D02*
Y0062335D01*
X2028783Y0061693D01*
X2029212Y0061264D01*
X2029854Y0061050D01*
X2030283D01*
X2030926Y0061264D01*
X2031354Y0061693D01*
X2031568Y0062335D01*
Y0065549D01*
X2032811D02*
Y0061050D01*
Y0065549D02*
X2034525Y0061050D01*
X2036239Y0065549D02*
X2034525Y0061050D01*
X2036239Y0065549D02*
Y0061050D01*
X2041059Y0065549D02*
Y0061050D01*
Y0065549D02*
X2042559D01*
X2043201Y0065335D01*
X2043630Y0064906D01*
X2043844Y0064478D01*
X2044058Y0063835D01*
Y0062764D01*
X2043844Y0062121D01*
X2043630Y0061693D01*
X2043201Y0061264D01*
X2042559Y0061050D01*
X2041059D01*
X2047850Y0065549D02*
X2045065D01*
Y0061050D01*
X2047850D01*
X2045065Y0063407D02*
X2046779D01*
X2051600Y0064906D02*
X2051171Y0065335D01*
X2050529Y0065549D01*
X2049672D01*
X2049029Y0065335D01*
X2048600Y0064906D01*
Y0064478D01*
X2048815Y0064049D01*
X2049029Y0063835D01*
X2049457Y0063621D01*
X2050743Y0063192D01*
X2051171Y0062978D01*
X2051385Y0062764D01*
X2051600Y0062335D01*
Y0061693D01*
X2051171Y0061264D01*
X2050529Y0061050D01*
X2049672D01*
X2049029Y0061264D01*
X2048600Y0061693D01*
X2052607Y0065549D02*
Y0061050D01*
X2056763Y0064478D02*
X2056549Y0064906D01*
X2056120Y0065335D01*
X2055692Y0065549D01*
X2054835D01*
X2054406Y0065335D01*
X2053978Y0064906D01*
X2053764Y0064478D01*
X2053549Y0063835D01*
Y0062764D01*
X2053764Y0062121D01*
X2053978Y0061693D01*
X2054406Y0061264D01*
X2054835Y0061050D01*
X2055692D01*
X2056120Y0061264D01*
X2056549Y0061693D01*
X2056763Y0062121D01*
Y0062764D01*
X2055692D02*
X2056763D01*
X2057791Y0065549D02*
Y0061050D01*
Y0065549D02*
X2060790Y0061050D01*
Y0065549D02*
Y0061050D01*
X2064818Y0065549D02*
X2062033D01*
Y0061050D01*
X2064818D01*
X2062033Y0063407D02*
X2063747D01*
X2065568Y0065549D02*
Y0061050D01*
Y0065549D02*
X2067496D01*
X2068139Y0065335D01*
X2068353Y0065121D01*
X2068567Y0064692D01*
Y0064264D01*
X2068353Y0063835D01*
X2068139Y0063621D01*
X2067496Y0063407D01*
X2065568D01*
X2067068D02*
X2068567Y0061050D01*
X2073109Y0065549D02*
X2074823Y0061050D01*
X2076537Y0065549D02*
X2074823Y0061050D01*
X2079901Y0065549D02*
X2077116D01*
Y0061050D01*
X2079901D01*
X2077116Y0063407D02*
X2078830D01*
X2080651Y0065549D02*
Y0061050D01*
Y0065549D02*
X2082579D01*
X2083221Y0065335D01*
X2083436Y0065121D01*
X2083650Y0064692D01*
Y0064264D01*
X2083436Y0063835D01*
X2083221Y0063621D01*
X2082579Y0063407D01*
X2080651D01*
X2082150D02*
X2083650Y0061050D01*
X2087656Y0064906D02*
X2087228Y0065335D01*
X2086585Y0065549D01*
X2085728D01*
X2085085Y0065335D01*
X2084657Y0064906D01*
Y0064478D01*
X2084871Y0064049D01*
X2085085Y0063835D01*
X2085514Y0063621D01*
X2086799Y0063192D01*
X2087228Y0062978D01*
X2087442Y0062764D01*
X2087656Y0062335D01*
Y0061693D01*
X2087228Y0061264D01*
X2086585Y0061050D01*
X2085728D01*
X2085085Y0061264D01*
X2084657Y0061693D01*
X2088663Y0065549D02*
Y0061050D01*
X2090891Y0065549D02*
X2090463Y0065335D01*
X2090034Y0064906D01*
X2089820Y0064478D01*
X2089606Y0063835D01*
Y0062764D01*
X2089820Y0062121D01*
X2090034Y0061693D01*
X2090463Y0061264D01*
X2090891Y0061050D01*
X2091748D01*
X2092177Y0061264D01*
X2092605Y0061693D01*
X2092819Y0062121D01*
X2093034Y0062764D01*
Y0063835D01*
X2092819Y0064478D01*
X2092605Y0064906D01*
X2092177Y0065335D01*
X2091748Y0065549D01*
X2090891D01*
X2094083D02*
Y0061050D01*
Y0065549D02*
X2097083Y0061050D01*
Y0065549D02*
Y0061050D01*
X2098540Y0064049D02*
X2098325Y0063835D01*
X2098540Y0063621D01*
X2098754Y0063835D01*
X2098540Y0064049D01*
Y0061479D02*
X2098325Y0061264D01*
X2098540Y0061050D01*
X2098754Y0061264D01*
X2098540Y0061479D01*
X1866050Y0183292D02*
X1867978D01*
X1868621Y0183507D01*
X1868835Y0183721D01*
X1869049Y0184149D01*
Y0184792D01*
X1868835Y0185221D01*
X1868621Y0185435D01*
X1867978Y0185649D01*
X1866050D01*
Y0181150D01*
X1870056Y0185649D02*
Y0181150D01*
Y0185649D02*
X1871984D01*
X1872627Y0185435D01*
X1872841Y0185221D01*
X1873056Y0184792D01*
Y0184364D01*
X1872841Y0183935D01*
X1872627Y0183721D01*
X1871984Y0183507D01*
X1870056D01*
X1871556D02*
X1873056Y0181150D01*
X1875348Y0185649D02*
X1874920Y0185435D01*
X1874491Y0185006D01*
X1874277Y0184578D01*
X1874063Y0183935D01*
Y0182864D01*
X1874277Y0182221D01*
X1874491Y0181793D01*
X1874920Y0181364D01*
X1875348Y0181150D01*
X1876205D01*
X1876633Y0181364D01*
X1877062Y0181793D01*
X1877276Y0182221D01*
X1877490Y0182864D01*
Y0183935D01*
X1877276Y0184578D01*
X1877062Y0185006D01*
X1876633Y0185435D01*
X1876205Y0185649D01*
X1875348D01*
X1880683D02*
Y0182221D01*
X1880468Y0181579D01*
X1880254Y0181364D01*
X1879826Y0181150D01*
X1879397D01*
X1878969Y0181364D01*
X1878754Y0181579D01*
X1878540Y0182221D01*
Y0182650D01*
X1884625Y0185649D02*
X1881840D01*
Y0181150D01*
X1884625D01*
X1881840Y0183507D02*
X1883553D01*
X1888588Y0184578D02*
X1888374Y0185006D01*
X1887945Y0185435D01*
X1887517Y0185649D01*
X1886660D01*
X1886231Y0185435D01*
X1885803Y0185006D01*
X1885589Y0184578D01*
X1885374Y0183935D01*
Y0182864D01*
X1885589Y0182221D01*
X1885803Y0181793D01*
X1886231Y0181364D01*
X1886660Y0181150D01*
X1887517D01*
X1887945Y0181364D01*
X1888374Y0181793D01*
X1888588Y0182221D01*
X1891352Y0185649D02*
Y0181150D01*
X1889852Y0185649D02*
X1892851D01*
X1898422D02*
Y0181150D01*
X1896922Y0185649D02*
X1899921D01*
X1900457D02*
Y0181150D01*
X1902899Y0185649D02*
Y0181150D01*
X1901400Y0185649D02*
X1904399D01*
X1904935D02*
Y0181150D01*
X1907505D01*
X1910783Y0185649D02*
X1907998D01*
Y0181150D01*
X1910783D01*
X1907998Y0183507D02*
X1909712D01*
X1911747Y0184149D02*
X1911533Y0183935D01*
X1911747Y0183721D01*
X1911962Y0183935D01*
X1911747Y0184149D01*
Y0181579D02*
X1911533Y0181364D01*
X1911747Y0181150D01*
X1911962Y0181364D01*
X1911747Y0181579D01*
X1866050Y0155549D02*
Y0151050D01*
Y0155549D02*
X1867550D01*
X1868192Y0155335D01*
X1868621Y0154906D01*
X1868835Y0154478D01*
X1869049Y0153835D01*
Y0152764D01*
X1868835Y0152121D01*
X1868621Y0151693D01*
X1868192Y0151264D01*
X1867550Y0151050D01*
X1866050D01*
X1872841Y0155549D02*
X1870056D01*
Y0151050D01*
X1872841D01*
X1870056Y0153407D02*
X1871770D01*
X1876591Y0154906D02*
X1876162Y0155335D01*
X1875519Y0155549D01*
X1874662D01*
X1874020Y0155335D01*
X1873591Y0154906D01*
Y0154478D01*
X1873805Y0154049D01*
X1874020Y0153835D01*
X1874448Y0153621D01*
X1875734Y0153192D01*
X1876162Y0152978D01*
X1876376Y0152764D01*
X1876591Y0152335D01*
Y0151693D01*
X1876162Y0151264D01*
X1875519Y0151050D01*
X1874662D01*
X1874020Y0151264D01*
X1873591Y0151693D01*
X1877597Y0155549D02*
Y0151050D01*
X1881754Y0154478D02*
X1881540Y0154906D01*
X1881111Y0155335D01*
X1880683Y0155549D01*
X1879826D01*
X1879397Y0155335D01*
X1878969Y0154906D01*
X1878754Y0154478D01*
X1878540Y0153835D01*
Y0152764D01*
X1878754Y0152121D01*
X1878969Y0151693D01*
X1879397Y0151264D01*
X1879826Y0151050D01*
X1880683D01*
X1881111Y0151264D01*
X1881540Y0151693D01*
X1881754Y0152121D01*
Y0152764D01*
X1880683D02*
X1881754D01*
X1882782Y0155549D02*
Y0151050D01*
Y0155549D02*
X1885781Y0151050D01*
Y0155549D02*
Y0151050D01*
X1889809Y0155549D02*
X1887024D01*
Y0151050D01*
X1889809D01*
X1887024Y0153407D02*
X1888738D01*
X1890559Y0155549D02*
Y0151050D01*
Y0155549D02*
X1892059D01*
X1892701Y0155335D01*
X1893130Y0154906D01*
X1893344Y0154478D01*
X1893558Y0153835D01*
Y0152764D01*
X1893344Y0152121D01*
X1893130Y0151693D01*
X1892701Y0151264D01*
X1892059Y0151050D01*
X1890559D01*
X1898100Y0155549D02*
Y0151050D01*
Y0155549D02*
X1900885D01*
X1898100Y0153407D02*
X1899814D01*
X1902685Y0155549D02*
X1902257Y0155335D01*
X1901828Y0154906D01*
X1901614Y0154478D01*
X1901400Y0153835D01*
Y0152764D01*
X1901614Y0152121D01*
X1901828Y0151693D01*
X1902257Y0151264D01*
X1902685Y0151050D01*
X1903542D01*
X1903970Y0151264D01*
X1904399Y0151693D01*
X1904613Y0152121D01*
X1904827Y0152764D01*
Y0153835D01*
X1904613Y0154478D01*
X1904399Y0154906D01*
X1903970Y0155335D01*
X1903542Y0155549D01*
X1902685D01*
X1905877D02*
Y0151050D01*
Y0155549D02*
X1907805D01*
X1908448Y0155335D01*
X1908662Y0155121D01*
X1908876Y0154692D01*
Y0154264D01*
X1908662Y0153835D01*
X1908448Y0153621D01*
X1907805Y0153407D01*
X1905877D01*
X1907377D02*
X1908876Y0151050D01*
X1910098Y0154049D02*
X1909883Y0153835D01*
X1910098Y0153621D01*
X1910312Y0153835D01*
X1910098Y0154049D01*
Y0151479D02*
X1909883Y0151264D01*
X1910098Y0151050D01*
X1910312Y0151264D01*
X1910098Y0151479D01*
X1866050Y0125549D02*
Y0121050D01*
Y0125549D02*
X1868835D01*
X1866050Y0123407D02*
X1867764D01*
X1869349Y0125549D02*
Y0121050D01*
X1870292Y0125549D02*
Y0121050D01*
X1872863D01*
X1876141Y0125549D02*
X1873356D01*
Y0121050D01*
X1876141D01*
X1873356Y0123407D02*
X1875069D01*
X1880425Y0125549D02*
Y0121050D01*
Y0125549D02*
X1883425Y0121050D01*
Y0125549D02*
Y0121050D01*
X1888095D02*
X1886381Y0125549D01*
X1884668Y0121050D01*
X1885310Y0122550D02*
X1887453D01*
X1889145Y0125549D02*
Y0121050D01*
Y0125549D02*
X1890859Y0121050D01*
X1892573Y0125549D02*
X1890859Y0121050D01*
X1892573Y0125549D02*
Y0121050D01*
X1896643Y0125549D02*
X1893858D01*
Y0121050D01*
X1896643D01*
X1893858Y0123407D02*
X1895572D01*
X1897607Y0124049D02*
X1897393Y0123835D01*
X1897607Y0123621D01*
X1897822Y0123835D01*
X1897607Y0124049D01*
Y0121478D02*
X1897393Y0121264D01*
X1897607Y0121050D01*
X1897822Y0121264D01*
X1897607Y0121478D01*
X1868835Y0096549D02*
X1866050D01*
Y0092050D01*
X1868835D01*
X1866050Y0094407D02*
X1867764D01*
X1869585Y0096549D02*
Y0092050D01*
Y0096549D02*
X1872584Y0092050D01*
Y0096549D02*
Y0092050D01*
X1877040Y0095478D02*
X1876826Y0095906D01*
X1876398Y0096335D01*
X1875969Y0096549D01*
X1875112D01*
X1874684Y0096335D01*
X1874255Y0095906D01*
X1874041Y0095478D01*
X1873827Y0094835D01*
Y0093764D01*
X1874041Y0093121D01*
X1874255Y0092693D01*
X1874684Y0092264D01*
X1875112Y0092050D01*
X1875969D01*
X1876398Y0092264D01*
X1876826Y0092693D01*
X1877040Y0093121D01*
Y0093764D01*
X1875969D02*
X1877040D01*
X1878069Y0096549D02*
Y0092050D01*
X1879012Y0096549D02*
Y0092050D01*
Y0096549D02*
X1882011Y0092050D01*
Y0096549D02*
Y0092050D01*
X1886039Y0096549D02*
X1883253D01*
Y0092050D01*
X1886039D01*
X1883253Y0094407D02*
X1884967D01*
X1889573Y0096549D02*
X1886788D01*
Y0092050D01*
X1889573D01*
X1886788Y0094407D02*
X1888502D01*
X1890323Y0096549D02*
Y0092050D01*
Y0096549D02*
X1892252D01*
X1892894Y0096335D01*
X1893109Y0096121D01*
X1893323Y0095692D01*
Y0095264D01*
X1893109Y0094835D01*
X1892894Y0094621D01*
X1892252Y0094407D01*
X1890323D01*
X1891823D02*
X1893323Y0092050D01*
X1894544Y0095049D02*
X1894330Y0094835D01*
X1894544Y0094621D01*
X1894758Y0094835D01*
X1894544Y0095049D01*
Y0092479D02*
X1894330Y0092264D01*
X1894544Y0092050D01*
X1894758Y0092264D01*
X1894544Y0092479D01*
G54D20*
X2012550Y0041050D02*
Y0101050D01*
X1862050Y0161050D02*
X2162050D01*
X1862050Y0101050D02*
Y0161050D01*
Y0071050D02*
X2162050D01*
X1862050Y0131050D02*
X2162050D01*
X1932550Y1650050D02*
Y1670050D01*
X1020050Y1650050D02*
Y1670050D01*
X0770050Y1650050D02*
Y1670050D01*
X0520050Y1650050D02*
Y1670050D01*
X0040050Y1650050D02*
X1500050D01*
X0020050Y1670050D02*
X1520050D01*
X0270050Y1650050D02*
Y1670050D01*
X2162550Y0040050D02*
Y0950050D01*
X2182550Y0020050D02*
Y0970050D01*
X2162550Y0732550D02*
X2182550D01*
X2162550Y0495050D02*
X2182550D01*
X2162550Y0257550D02*
X2182550D01*
X1932550Y0020050D02*
Y0040050D01*
X1020050Y0020050D02*
Y0040050D01*
X0770050Y0020050D02*
Y0040050D01*
X0520050Y0020050D02*
Y0040050D01*
X2162550D02*
Y0160050D01*
X0020050Y0020050D02*
Y0970050D01*
Y0020050D02*
X1520050D01*
X0040050Y0040050D02*
Y0950050D01*
Y0040050D02*
X1500050D01*
X0020050Y0732550D02*
X0040050D01*
X0020050Y0495050D02*
X0040050D01*
X0020050Y0257550D02*
X0040050D01*
X0270050Y0020050D02*
Y0040050D01*
X1862150Y0190450D02*
X2162150D01*
X1862050Y0161050D02*
Y0190450D01*
X1862150Y0240500D02*
X2162550D01*
X1862050Y0101050D02*
X2162050D01*
X1862050Y0040050D02*
Y0101050D01*
X0701300D02*
X1199550D01*
X0701300Y0040050D02*
Y0101050D01*
X1862050Y0190450D02*
Y0240500D01*
X1862150D01*
X1520050Y0020050D02*
X2182550D01*
X1500050Y0040050D02*
X2162550D01*
X1199550Y0101050D02*
X1862050D01*
X0020050Y0970050D02*
Y1670050D01*
X0040050Y0950050D02*
Y1650050D01*
X2182550Y0970050D02*
Y1669200D01*
X2181700Y1670050D02*
X2182550Y1669200D01*
X2162550Y0950050D02*
Y1650050D01*
X1520050Y1670050D02*
X2181700D01*
X2182550Y1669200D01*
X1500050Y1650050D02*
X2159200D01*
X2162550D01*
X0497200Y0080717D02*
Y0101050D01*
X0413200Y0080717D02*
Y0101050D01*
X0040000Y0080717D02*
X0700200D01*
X0040000Y0060383D02*
X0700000D01*
X0040000Y0040050D02*
X0440500D01*
X0040050Y0101050D02*
X0700200D01*
X0040050Y0040050D02*
Y0101050D01*
Y0040050D02*
X0197600D01*
X0040000D02*
Y0101050D01*
X0286500Y0040050D02*
Y0101050D01*
X0700200Y0040050D02*
Y0101050D01*
X0440500Y0040050D02*
X0700200D01*
X0559400Y0039400D02*
Y0059683D01*
G54D24*
X0126900Y0049966D02*
X0128899D01*
X0127900D01*
Y0046966D01*
X0129899Y0049966D02*
X0130899D01*
X0130399D01*
Y0046966D01*
X0129899D01*
X0130899D01*
X0132398Y0049966D02*
Y0046966D01*
X0133898D01*
X0134398Y0047466D01*
Y0049466D01*
X0133898Y0049966D01*
X0132398D01*
X0135397Y0046966D02*
Y0048966D01*
X0136397Y0049966D01*
X0137397Y0048966D01*
Y0046966D01*
Y0048466D01*
X0135397D01*
X0138396D02*
X0140396D01*
X0141395Y0049466D02*
X0141895Y0049966D01*
X0142895D01*
X0143395Y0049466D01*
Y0047466D01*
X0142895Y0046966D01*
X0141895D01*
X0141395Y0047466D01*
Y0049466D01*
X0144394Y0046966D02*
X0145394D01*
X0144894D01*
Y0049966D01*
X0144394Y0049466D01*
X0148893Y0049966D02*
X0147893Y0049466D01*
X0146894Y0048466D01*
Y0047466D01*
X0147393Y0046966D01*
X0148393D01*
X0148893Y0047466D01*
Y0047966D01*
X0148393Y0048466D01*
X0146894D01*
X0149893Y0049466D02*
X0150392Y0049966D01*
X0151392D01*
X0151892Y0049466D01*
Y0047466D01*
X0151392Y0046966D01*
X0150392D01*
X0149893Y0047466D01*
Y0049466D01*
X0154891Y0049966D02*
X0153891Y0049466D01*
X0152892Y0048466D01*
Y0047466D01*
X0153391Y0046966D01*
X0154391D01*
X0154891Y0047466D01*
Y0047966D01*
X0154391Y0048466D01*
X0152892D01*
X0155891Y0046467D02*
X0157890D01*
X0158890Y0046966D02*
Y0049966D01*
X0160389D01*
X0160889Y0049466D01*
Y0048466D01*
X0160389Y0047966D01*
X0158890D01*
X0162389Y0046966D02*
X0163388D01*
X0163888Y0047466D01*
Y0048466D01*
X0163388Y0048966D01*
X0162389D01*
X0161889Y0048466D01*
Y0047466D01*
X0162389Y0046966D01*
X0164888Y0048966D02*
Y0047466D01*
X0165388Y0046966D01*
X0165887Y0047466D01*
X0166387Y0046966D01*
X0166887Y0047466D01*
Y0048966D01*
X0169386Y0046966D02*
X0168387D01*
X0167887Y0047466D01*
Y0048466D01*
X0168387Y0048966D01*
X0169386D01*
X0169886Y0048466D01*
Y0047966D01*
X0167887D01*
X0170886Y0048966D02*
Y0046966D01*
Y0047966D01*
X0171386Y0048466D01*
X0171885Y0048966D01*
X0172385D01*
X0178883Y0049466D02*
X0178383Y0049966D01*
X0177384D01*
X0176884Y0049466D01*
Y0047466D01*
X0177384Y0046966D01*
X0178383D01*
X0178883Y0047466D01*
X0180383Y0048966D02*
X0181382D01*
X0181882Y0048466D01*
Y0046966D01*
X0180383D01*
X0179883Y0047466D01*
X0180383Y0047966D01*
X0181882D01*
X0182882Y0048966D02*
Y0046966D01*
Y0047966D01*
X0183382Y0048466D01*
X0183882Y0048966D01*
X0184381D01*
X0187880Y0049966D02*
Y0046966D01*
X0186381D01*
X0185881Y0047466D01*
Y0048466D01*
X0186381Y0048966D01*
X0187880D01*
X0190879Y0049966D02*
X0188880D01*
Y0046966D01*
X0190879D01*
X0188880Y0048466D02*
X0189880D01*
X0193378Y0046966D02*
Y0049966D01*
X0191879Y0048466D01*
X0193878D01*
X0194878Y0046966D02*
Y0047466D01*
X0195378D01*
Y0046966D01*
X0194878D01*
X0199376Y0049466D02*
X0198877Y0049966D01*
X0197877D01*
X0197377Y0049466D01*
Y0047466D01*
X0197877Y0046966D01*
X0198877D01*
X0199376Y0047466D01*
Y0048466D01*
X0198377D01*
X0200376Y0046966D02*
Y0049966D01*
X0201376Y0048966D01*
X0202376Y0049966D01*
Y0046966D01*
X0203375Y0047466D02*
X0203875Y0046966D01*
X0204875D01*
X0205375Y0047466D01*
Y0049466D01*
X0204875Y0049966D01*
X0203875D01*
X0203375Y0049466D01*
Y0048966D01*
X0203875Y0048466D01*
X0205375D01*
X0348550Y0090832D02*
X0350549D01*
X0349550D01*
Y0087833D01*
X0351549Y0090832D02*
X0352549D01*
X0352049D01*
Y0087833D01*
X0351549D01*
X0352549D01*
X0354048Y0090832D02*
Y0087833D01*
X0355548D01*
X0356048Y0088333D01*
Y0090333D01*
X0355548Y0090832D01*
X0354048D01*
X0357047Y0087833D02*
Y0089833D01*
X0358047Y0090832D01*
X0359047Y0089833D01*
Y0087833D01*
Y0089333D01*
X0357047D01*
X0360046D02*
X0362046D01*
X0363045Y0090333D02*
X0363545Y0090832D01*
X0364545D01*
X0365045Y0090333D01*
Y0088333D01*
X0364545Y0087833D01*
X0363545D01*
X0363045Y0088333D01*
Y0090333D01*
X0366044Y0087833D02*
X0367044D01*
X0366544D01*
Y0090832D01*
X0366044Y0090333D01*
X0370543Y0090832D02*
X0369543Y0090333D01*
X0368544Y0089333D01*
Y0088333D01*
X0369043Y0087833D01*
X0370043D01*
X0370543Y0088333D01*
Y0088833D01*
X0370043Y0089333D01*
X0368544D01*
X0371543Y0090333D02*
X0372042Y0090832D01*
X0373042D01*
X0373542Y0090333D01*
Y0088333D01*
X0373042Y0087833D01*
X0372042D01*
X0371543Y0088333D01*
Y0090333D01*
X0376541Y0090832D02*
X0375541Y0090333D01*
X0374542Y0089333D01*
Y0088333D01*
X0375041Y0087833D01*
X0376041D01*
X0376541Y0088333D01*
Y0088833D01*
X0376041Y0089333D01*
X0374542D01*
X0377541Y0087334D02*
X0379540D01*
X0380540Y0087833D02*
Y0090832D01*
X0382039D01*
X0382539Y0090333D01*
Y0089333D01*
X0382039Y0088833D01*
X0380540D01*
X0384038Y0087833D02*
X0385038D01*
X0385538Y0088333D01*
Y0089333D01*
X0385038Y0089833D01*
X0384038D01*
X0383539Y0089333D01*
Y0088333D01*
X0384038Y0087833D01*
X0386538Y0089833D02*
Y0088333D01*
X0387038Y0087833D01*
X0387537Y0088333D01*
X0388037Y0087833D01*
X0388537Y0088333D01*
Y0089833D01*
X0391036Y0087833D02*
X0390037D01*
X0389537Y0088333D01*
Y0089333D01*
X0390037Y0089833D01*
X0391036D01*
X0391536Y0089333D01*
Y0088833D01*
X0389537D01*
X0392536Y0089833D02*
Y0087833D01*
Y0088833D01*
X0393036Y0089333D01*
X0393535Y0089833D01*
X0394035D01*
X0400533Y0090333D02*
X0400033Y0090832D01*
X0399034D01*
X0398534Y0090333D01*
Y0088333D01*
X0399034Y0087833D01*
X0400033D01*
X0400533Y0088333D01*
X0402033Y0089833D02*
X0403032D01*
X0403532Y0089333D01*
Y0087833D01*
X0402033D01*
X0401533Y0088333D01*
X0402033Y0088833D01*
X0403532D01*
X0404532Y0089833D02*
Y0087833D01*
Y0088833D01*
X0405032Y0089333D01*
X0405532Y0089833D01*
X0406031D01*
X0409530Y0090832D02*
Y0087833D01*
X0408031D01*
X0407531Y0088333D01*
Y0089333D01*
X0408031Y0089833D01*
X0409530D01*
G54D27*
X0043250Y0073349D02*
Y0067351D01*
X0047249D01*
X0049248D02*
Y0071349D01*
X0051247Y0073349D01*
X0053247Y0071349D01*
Y0067351D01*
Y0070350D01*
X0049248D01*
X0055246Y0073349D02*
Y0072349D01*
X0057245Y0070350D01*
X0059245Y0072349D01*
Y0073349D01*
X0057245Y0070350D02*
Y0067351D01*
X0065243Y0073349D02*
X0061244D01*
Y0067351D01*
X0065243D01*
X0061244Y0070350D02*
X0063244D01*
X0067242Y0067351D02*
Y0073349D01*
X0070241D01*
X0071241Y0072349D01*
Y0070350D01*
X0070241Y0069350D01*
X0067242D01*
X0069242D02*
X0071241Y0067351D01*
X0079238D02*
Y0073349D01*
X0083237Y0067351D01*
Y0073349D01*
X0085236Y0067351D02*
Y0071349D01*
X0087236Y0073349D01*
X0089235Y0071349D01*
Y0067351D01*
Y0070350D01*
X0085236D01*
X0091234Y0067351D02*
Y0073349D01*
X0093234Y0071349D01*
X0095233Y0073349D01*
Y0067351D01*
X0101231Y0073349D02*
X0097233D01*
Y0067351D01*
X0101231D01*
X0097233Y0070350D02*
X0099232D01*
X0109229Y0069350D02*
X0113227D01*
X0109229Y0071349D02*
X0113227D01*
X0567400Y0087833D02*
Y0093831D01*
X0571399Y0087833D01*
Y0093831D01*
X0574398Y0087833D02*
X0576397D01*
X0577397Y0088833D01*
Y0090832D01*
X0576397Y0091832D01*
X0574398D01*
X0573398Y0090832D01*
Y0088833D01*
X0574398Y0087833D01*
X0580396Y0092832D02*
Y0091832D01*
X0579396D01*
X0581395D01*
X0580396D01*
Y0088833D01*
X0581395Y0087833D01*
X0590393Y0093831D02*
X0592392D01*
X0591392D01*
Y0087833D01*
X0590393D01*
X0592392D01*
X0595391D02*
Y0091832D01*
X0598390D01*
X0599390Y0090832D01*
Y0087833D01*
X0607387Y0093831D02*
Y0089833D01*
X0609386Y0087833D01*
X0611386Y0089833D01*
Y0093831D01*
X0616384Y0087833D02*
X0614385D01*
X0613385Y0088833D01*
Y0090832D01*
X0614385Y0091832D01*
X0616384D01*
X0617384Y0090832D01*
Y0089833D01*
X0613385D01*
X0619383Y0091832D02*
Y0087833D01*
Y0089833D01*
X0620383Y0090832D01*
X0621383Y0091832D01*
X0622382D01*
X0625381Y0087833D02*
X0628380D01*
X0629380Y0088833D01*
X0628380Y0089833D01*
X0626381D01*
X0625381Y0090832D01*
X0626381Y0091832D01*
X0629380D01*
X0631379Y0087833D02*
X0633379D01*
X0632379D01*
Y0091832D01*
X0631379D01*
X0637377Y0087833D02*
X0639377D01*
X0640376Y0088833D01*
Y0090832D01*
X0639377Y0091832D01*
X0637377D01*
X0636378Y0090832D01*
Y0088833D01*
X0637377Y0087833D01*
X0642376D02*
Y0091832D01*
X0645375D01*
X0646374Y0090832D01*
Y0087833D01*
X0652373Y0092832D02*
X0651373Y0093831D01*
X0649373D01*
X0648374Y0092832D01*
Y0088833D01*
X0649373Y0087833D01*
X0651373D01*
X0652373Y0088833D01*
X0655372Y0087833D02*
X0657371D01*
X0658371Y0088833D01*
Y0090832D01*
X0657371Y0091832D01*
X0655372D01*
X0654372Y0090832D01*
Y0088833D01*
X0655372Y0087833D01*
X0660370D02*
Y0091832D01*
X0663369D01*
X0664369Y0090832D01*
Y0087833D01*
X0667368Y0092832D02*
Y0091832D01*
X0666368D01*
X0668367D01*
X0667368D01*
Y0088833D01*
X0668367Y0087833D01*
X0671366Y0091832D02*
Y0087833D01*
Y0089833D01*
X0672366Y0090832D01*
X0673366Y0091832D01*
X0674365D01*
X0678364Y0087833D02*
X0680364D01*
X0681363Y0088833D01*
Y0090832D01*
X0680364Y0091832D01*
X0678364D01*
X0677364Y0090832D01*
Y0088833D01*
X0678364Y0087833D01*
X0683362D02*
X0685362D01*
X0684362D01*
Y0093831D01*
X0683362D01*
X0520799Y0092832D02*
X0519799Y0093831D01*
X0517800D01*
X0516800Y0092832D01*
Y0091832D01*
X0517800Y0090832D01*
X0519799D01*
X0520799Y0089833D01*
Y0088833D01*
X0519799Y0087833D01*
X0517800D01*
X0516800Y0088833D01*
X0522798Y0093831D02*
Y0089833D01*
X0524797Y0087833D01*
X0526797Y0089833D01*
Y0093831D01*
X0528796Y0087833D02*
Y0093831D01*
X0532795Y0087833D01*
Y0093831D01*
X0540792Y0087833D02*
Y0093831D01*
X0543791D01*
X0544791Y0092832D01*
Y0090832D01*
X0543791Y0089833D01*
X0540792D01*
X0542792D02*
X0544791Y0087833D01*
X0550789Y0093831D02*
X0546790D01*
Y0087833D01*
X0550789D01*
X0546790Y0090832D02*
X0548790D01*
X0552788Y0093831D02*
Y0089833D01*
X0554788Y0087833D01*
X0556787Y0089833D01*
Y0093831D01*
X0558786Y0091832D02*
X0559786D01*
Y0090832D01*
X0558786D01*
Y0091832D01*
Y0088833D02*
X0559786D01*
Y0087833D01*
X0558786D01*
Y0088833D01*
X0433000Y0087833D02*
Y0093831D01*
X0435999D01*
X0436999Y0092832D01*
Y0090832D01*
X0435999Y0089833D01*
X0433000D01*
X0434999D02*
X0436999Y0087833D01*
X0442997Y0093831D02*
X0438998D01*
Y0087833D01*
X0442997D01*
X0438998Y0090832D02*
X0440997D01*
X0444996Y0093831D02*
Y0089833D01*
X0446995Y0087833D01*
X0448995Y0089833D01*
Y0093831D01*
X0450994Y0091832D02*
X0451994D01*
Y0090832D01*
X0450994D01*
Y0091832D01*
Y0088833D02*
X0451994D01*
Y0087833D01*
X0450994D01*
Y0088833D01*
X0385149Y0046966D02*
X0381150D01*
X0385149Y0050965D01*
Y0051965D01*
X0384149Y0052965D01*
X0382150D01*
X0381150Y0051965D01*
X0387148Y0046966D02*
X0391147Y0050965D01*
X0393146Y0046966D02*
X0395146D01*
X0394146D01*
Y0052965D01*
X0393146Y0051965D01*
X0402143Y0052965D02*
X0398145D01*
Y0049966D01*
X0400144Y0050965D01*
X0401144D01*
X0402143Y0049966D01*
Y0047966D01*
X0401144Y0046966D01*
X0399144D01*
X0398145Y0047966D01*
X0404143Y0046966D02*
X0408141Y0050965D01*
X0414139Y0046966D02*
X0410141D01*
X0414139Y0050965D01*
Y0051965D01*
X0413140Y0052965D01*
X0411140D01*
X0410141Y0051965D01*
X0416139D02*
X0417138Y0052965D01*
X0419138D01*
X0420137Y0051965D01*
Y0047966D01*
X0419138Y0046966D01*
X0417138D01*
X0416139Y0047966D01*
Y0051965D01*
X0422137Y0046966D02*
X0424136D01*
X0423136D01*
Y0052965D01*
X0422137Y0051965D01*
X0427135Y0047966D02*
X0428135Y0046966D01*
X0430134D01*
X0431134Y0047966D01*
Y0051965D01*
X0430134Y0052965D01*
X0428135D01*
X0427135Y0051965D01*
Y0050965D01*
X0428135Y0049966D01*
X0431134D01*
X0298199Y0051965D02*
X0297199Y0052965D01*
X0295200D01*
X0294200Y0051965D01*
Y0047966D01*
X0295200Y0046966D01*
X0297199D01*
X0298199Y0047966D01*
Y0049966D01*
X0296199D01*
X0304197Y0052965D02*
X0300198D01*
Y0046966D01*
X0304197D01*
X0300198Y0049966D02*
X0302197D01*
X0306196Y0046966D02*
Y0052965D01*
X0310195Y0046966D01*
Y0052965D01*
X0316193D02*
X0312194D01*
Y0046966D01*
X0316193D01*
X0312194Y0049966D02*
X0314194D01*
X0318192Y0046966D02*
Y0052965D01*
X0321191D01*
X0322191Y0051965D01*
Y0049966D01*
X0321191Y0048966D01*
X0318192D01*
X0320192D02*
X0322191Y0046966D01*
X0324190D02*
Y0050965D01*
X0326190Y0052965D01*
X0328189Y0050965D01*
Y0046966D01*
Y0049966D01*
X0324190D01*
X0330188Y0052965D02*
X0334187D01*
X0332188D01*
Y0046966D01*
X0340185Y0052965D02*
X0336186D01*
Y0046966D01*
X0340185D01*
X0336186Y0049966D02*
X0338186D01*
X0342184Y0052965D02*
Y0046966D01*
X0345183D01*
X0346183Y0047966D01*
Y0051965D01*
X0345183Y0052965D01*
X0342184D01*
X0372175Y0050965D02*
X0373175D01*
Y0049966D01*
X0372175D01*
Y0050965D01*
Y0047966D02*
X0373175D01*
Y0046966D01*
X0372175D01*
Y0047966D01*
X0046350Y0087833D02*
Y0091832D01*
X0048349Y0093831D01*
X0050349Y0091832D01*
Y0087833D01*
Y0090832D01*
X0046350D01*
X0052348Y0093831D02*
Y0087833D01*
X0056347D01*
X0058346Y0093831D02*
Y0087833D01*
X0062345D01*
X0070342D02*
Y0091832D01*
X0072342Y0093831D01*
X0074341Y0091832D01*
Y0087833D01*
Y0090832D01*
X0070342D01*
X0076340Y0087833D02*
Y0093831D01*
X0079339D01*
X0080339Y0092832D01*
Y0090832D01*
X0079339Y0089833D01*
X0076340D01*
X0078340D02*
X0080339Y0087833D01*
X0082338Y0093831D02*
X0086337D01*
X0084338D01*
Y0087833D01*
X0088336Y0093831D02*
Y0087833D01*
X0090336Y0089833D01*
X0092335Y0087833D01*
Y0093831D01*
X0097334D02*
X0095334D01*
X0094335Y0092832D01*
Y0088833D01*
X0095334Y0087833D01*
X0097334D01*
X0098333Y0088833D01*
Y0092832D01*
X0097334Y0093831D01*
X0100332Y0087833D02*
Y0093831D01*
X0103332D01*
X0104331Y0092832D01*
Y0090832D01*
X0103332Y0089833D01*
X0100332D01*
X0102332D02*
X0104331Y0087833D01*
X0106331Y0093831D02*
Y0087833D01*
Y0089833D01*
X0110329Y0093831D01*
X0107330Y0090832D01*
X0110329Y0087833D01*
X0118327Y0093831D02*
Y0089833D01*
X0120326Y0087833D01*
X0122325Y0089833D01*
Y0093831D01*
X0124325D02*
X0126324D01*
X0125324D01*
Y0087833D01*
X0124325D01*
X0126324D01*
X0133322Y0093831D02*
X0129323D01*
Y0087833D01*
X0133322D01*
X0129323Y0090832D02*
X0131323D01*
X0135321Y0093831D02*
Y0087833D01*
X0137321Y0089833D01*
X0139320Y0087833D01*
Y0093831D01*
X0145318D02*
X0141319D01*
Y0087833D01*
X0145318D01*
X0141319Y0090832D02*
X0143319D01*
X0147317Y0093831D02*
Y0087833D01*
X0150316D01*
X0151316Y0088833D01*
Y0092832D01*
X0150316Y0093831D01*
X0147317D01*
X0163312D02*
X0159313D01*
Y0090832D01*
X0161313D01*
X0159313D01*
Y0087833D01*
X0165312D02*
Y0093831D01*
X0168310D01*
X0169310Y0092832D01*
Y0090832D01*
X0168310Y0089833D01*
X0165312D01*
X0167311D02*
X0169310Y0087833D01*
X0174309Y0093831D02*
X0172309D01*
X0171310Y0092832D01*
Y0088833D01*
X0172309Y0087833D01*
X0174309D01*
X0175308Y0088833D01*
Y0092832D01*
X0174309Y0093831D01*
X0177308Y0087833D02*
Y0093831D01*
X0179307Y0091832D01*
X0181306Y0093831D01*
Y0087833D01*
X0189304Y0093831D02*
X0193303D01*
X0191303D01*
Y0087833D01*
X0198301Y0093831D02*
X0196301D01*
X0195302Y0092832D01*
Y0088833D01*
X0196301Y0087833D01*
X0198301D01*
X0199301Y0088833D01*
Y0092832D01*
X0198301Y0093831D01*
X0201300Y0087833D02*
Y0093831D01*
X0204299D01*
X0205299Y0092832D01*
Y0090832D01*
X0204299Y0089833D01*
X0201300D01*
X0217295Y0092832D02*
X0216295Y0093831D01*
X0214296D01*
X0213296Y0092832D01*
Y0091832D01*
X0214296Y0090832D01*
X0216295D01*
X0217295Y0089833D01*
Y0088833D01*
X0216295Y0087833D01*
X0214296D01*
X0213296Y0088833D01*
X0219294Y0093831D02*
X0221293D01*
X0220294D01*
Y0087833D01*
X0219294D01*
X0221293D01*
X0224292Y0093831D02*
Y0087833D01*
X0227291D01*
X0228291Y0088833D01*
Y0092832D01*
X0227291Y0093831D01*
X0224292D01*
X0234289D02*
X0230291D01*
Y0087833D01*
X0234289D01*
X0230291Y0090832D02*
X0232290D01*
X0466149Y0093831D02*
X0462150D01*
Y0087833D01*
X0466149D01*
X0462150Y0090832D02*
X0464149D01*
X0471147Y0087833D02*
Y0093831D01*
X0468148Y0090832D01*
X0472147D01*
X0294000Y0093831D02*
Y0087833D01*
X0296999D01*
X0297999Y0088833D01*
Y0089833D01*
X0296999Y0090832D01*
X0294000D01*
X0296999D01*
X0297999Y0091832D01*
Y0092832D01*
X0296999Y0093831D01*
X0294000D01*
X0302997D02*
X0300998D01*
X0299998Y0092832D01*
Y0088833D01*
X0300998Y0087833D01*
X0302997D01*
X0303997Y0088833D01*
Y0092832D01*
X0302997Y0093831D01*
X0305996Y0087833D02*
Y0091832D01*
X0307996Y0093831D01*
X0309995Y0091832D01*
Y0087833D01*
Y0090832D01*
X0305996D01*
X0311994Y0087833D02*
Y0093831D01*
X0314993D01*
X0315993Y0092832D01*
Y0090832D01*
X0314993Y0089833D01*
X0311994D01*
X0313994D02*
X0315993Y0087833D01*
X0317992Y0093831D02*
Y0087833D01*
X0320991D01*
X0321991Y0088833D01*
Y0092832D01*
X0320991Y0093831D01*
X0317992D01*
X0330988Y0087833D02*
Y0093831D01*
X0332987D02*
Y0087833D01*
X0329988Y0091832D02*
X0332987D01*
X0333987D01*
X0329988Y0089833D02*
X0333987D01*
X0335986Y0091832D02*
X0336986D01*
Y0090832D01*
X0335986D01*
Y0091832D01*
Y0088833D02*
X0336986D01*
Y0087833D01*
X0335986D01*
Y0088833D01*
X0046350Y0046966D02*
Y0052965D01*
X0049349D01*
X0050349Y0051965D01*
Y0049966D01*
X0049349Y0048966D01*
X0046350D01*
X0052348Y0052965D02*
Y0046966D01*
X0056347D01*
X0061345Y0052965D02*
X0059346D01*
X0058346Y0051965D01*
Y0047966D01*
X0059346Y0046966D01*
X0061345D01*
X0062345Y0047966D01*
Y0051965D01*
X0061345Y0052965D01*
X0064344D02*
X0068343D01*
X0066343D01*
Y0046966D01*
X0076340D02*
Y0052965D01*
X0080339Y0046966D01*
Y0052965D01*
X0082338Y0046966D02*
Y0050965D01*
X0084338Y0052965D01*
X0086337Y0050965D01*
Y0046966D01*
Y0049966D01*
X0082338D01*
X0088336Y0046966D02*
Y0052965D01*
X0090336Y0050965D01*
X0092335Y0052965D01*
Y0046966D01*
X0098333Y0052965D02*
X0094335D01*
Y0046966D01*
X0098333D01*
X0094335Y0049966D02*
X0096334D01*
X0106331Y0048966D02*
X0110329D01*
X0106331Y0050965D02*
X0110329D01*
X0454050Y0047966D02*
X0455050Y0046966D01*
X0457049D01*
X0458049Y0047966D01*
Y0051965D01*
X0457049Y0052965D01*
X0455050D01*
X0454050Y0051965D01*
Y0050965D01*
X0455050Y0049966D01*
X0458049D01*
X0460048Y0050965D02*
X0461048D01*
Y0049966D01*
X0460048D01*
Y0050965D01*
Y0047966D02*
X0461048D01*
Y0046966D01*
X0460048D01*
Y0047966D01*
X0465046Y0051965D02*
X0466046Y0052965D01*
X0468046D01*
X0469045Y0051965D01*
Y0047966D01*
X0468046Y0046966D01*
X0466046D01*
X0465046Y0047966D01*
Y0051965D01*
X0471044Y0047966D02*
X0472044Y0046966D01*
X0474044D01*
X0475043Y0047966D01*
Y0051965D01*
X0474044Y0052965D01*
X0472044D01*
X0471044Y0051965D01*
Y0050965D01*
X0472044Y0049966D01*
X0475043D01*
X0477043Y0050965D02*
X0478042D01*
Y0049966D01*
X0477043D01*
Y0050965D01*
Y0047966D02*
X0478042D01*
Y0046966D01*
X0477043D01*
Y0047966D01*
X0482041Y0051965D02*
X0483041Y0052965D01*
X0485040D01*
X0486040Y0051965D01*
Y0047966D01*
X0485040Y0046966D01*
X0483041D01*
X0482041Y0047966D01*
Y0051965D01*
X0492038Y0052965D02*
X0490038Y0051965D01*
X0488039Y0049966D01*
Y0047966D01*
X0489039Y0046966D01*
X0491038D01*
X0492038Y0047966D01*
Y0048966D01*
X0491038Y0049966D01*
X0488039D01*
X0500035Y0046966D02*
Y0050965D01*
X0502035Y0052965D01*
X0504034Y0050965D01*
Y0046966D01*
Y0049966D01*
X0500035D01*
X0506033Y0046966D02*
Y0052965D01*
X0508033Y0050965D01*
X0510032Y0052965D01*
Y0046966D01*
X0580500Y0052965D02*
X0584499D01*
X0582499D01*
Y0046966D01*
X0590497Y0052965D02*
X0586498D01*
Y0046966D01*
X0590497D01*
X0586498Y0049966D02*
X0588497D01*
X0592496Y0052965D02*
X0596495Y0046966D01*
Y0052965D02*
X0592496Y0046966D01*
X0598494D02*
Y0050965D01*
X0600493Y0052965D01*
X0602493Y0050965D01*
Y0046966D01*
Y0049966D01*
X0598494D01*
X0608491Y0051965D02*
X0607491Y0052965D01*
X0605492D01*
X0604492Y0051965D01*
Y0050965D01*
X0605492Y0049966D01*
X0607491D01*
X0608491Y0048966D01*
Y0047966D01*
X0607491Y0046966D01*
X0605492D01*
X0604492Y0047966D01*
X0616488Y0052965D02*
X0618488D01*
X0617488D01*
Y0046966D01*
X0616488D01*
X0618488D01*
X0621487D02*
Y0052965D01*
X0625486Y0046966D01*
Y0052965D01*
X0631484Y0051965D02*
X0630484Y0052965D01*
X0628484D01*
X0627485Y0051965D01*
Y0050965D01*
X0628484Y0049966D01*
X0630484D01*
X0631484Y0048966D01*
Y0047966D01*
X0630484Y0046966D01*
X0628484D01*
X0627485Y0047966D01*
X0633483Y0052965D02*
X0637482D01*
X0635482D01*
Y0046966D01*
X0639481D02*
Y0052965D01*
X0642480D01*
X0643480Y0051965D01*
Y0049966D01*
X0642480Y0048966D01*
X0639481D01*
X0641480D02*
X0643480Y0046966D01*
X0645479Y0052965D02*
Y0047966D01*
X0646479Y0046966D01*
X0648478D01*
X0649478Y0047966D01*
Y0052965D01*
X0651477Y0046966D02*
Y0052965D01*
X0653476Y0050965D01*
X0655476Y0052965D01*
Y0046966D01*
X0661474Y0052965D02*
X0657475D01*
Y0046966D01*
X0661474D01*
X0657475Y0049966D02*
X0659474D01*
X0663473Y0046966D02*
Y0052965D01*
X0667472Y0046966D01*
Y0052965D01*
X0669471D02*
X0673470D01*
X0671471D01*
Y0046966D01*
X0679468Y0051965D02*
X0678468Y0052965D01*
X0676469D01*
X0675469Y0051965D01*
Y0050965D01*
X0676469Y0049966D01*
X0678468D01*
X0679468Y0048966D01*
Y0047966D01*
X0678468Y0046966D01*
X0676469D01*
X0675469Y0047966D01*
X0294000Y0073498D02*
X0297999D01*
X0295999D01*
Y0067500D01*
X0299998Y0073498D02*
X0301997D01*
X0300998D01*
Y0067500D01*
X0299998D01*
X0301997D01*
X0304996Y0073498D02*
Y0067500D01*
X0307996D01*
X0308995Y0068500D01*
Y0072498D01*
X0307996Y0073498D01*
X0304996D01*
X0317992Y0067500D02*
Y0073498D01*
X0319992D02*
Y0067500D01*
X0316993Y0071499D02*
X0319992D01*
X0320991D01*
X0316993Y0069499D02*
X0320991D01*
X0322991Y0071499D02*
X0323990D01*
Y0070499D01*
X0322991D01*
Y0071499D01*
Y0068500D02*
X0323990D01*
Y0067500D01*
X0322991D01*
Y0068500D01*
X0348550Y0073498D02*
X0352549D01*
X0350549D01*
Y0067500D01*
X0354548Y0073498D02*
X0356547D01*
X0355548D01*
Y0067500D01*
X0354548D01*
X0356547D01*
X0359546Y0073498D02*
Y0067500D01*
X0362545D01*
X0363545Y0068500D01*
Y0072498D01*
X0362545Y0073498D01*
X0359546D01*
X0365545Y0067500D02*
Y0071499D01*
X0367544Y0073498D01*
X0369543Y0071499D01*
Y0067500D01*
Y0070499D01*
X0365545D01*
X0371543D02*
X0375541D01*
X0377541Y0072498D02*
X0378540Y0073498D01*
X0380540D01*
X0381539Y0072498D01*
Y0068500D01*
X0380540Y0067500D01*
X0378540D01*
X0377541Y0068500D01*
Y0072498D01*
X0383539Y0067500D02*
X0385538D01*
X0384538D01*
Y0073498D01*
X0383539Y0072498D01*
X0392536Y0073498D02*
X0390536Y0072498D01*
X0388537Y0070499D01*
Y0068500D01*
X0389537Y0067500D01*
X0391536D01*
X0392536Y0068500D01*
Y0069499D01*
X0391536Y0070499D01*
X0388537D01*
X0394535Y0072498D02*
X0395535Y0073498D01*
X0397534D01*
X0398534Y0072498D01*
Y0068500D01*
X0397534Y0067500D01*
X0395535D01*
X0394535Y0068500D01*
Y0072498D01*
X0404532Y0073498D02*
X0402532Y0072498D01*
X0400533Y0070499D01*
Y0068500D01*
X0401533Y0067500D01*
X0403532D01*
X0404532Y0068500D01*
Y0069499D01*
X0403532Y0070499D01*
X0400533D01*
M02*
