G04*
G04 #@! TF.GenerationSoftware,Altium Limited,Altium Designer,18.1.9 (240)*
G04*
G04 Layer_Physical_Order=4*
G04 Layer_Color=16711680*
%FSAX25Y25*%
%MOIN*%
G70*
G01*
G75*
%ADD17C,0.01200*%
%ADD18C,0.02500*%
%ADD20C,0.01000*%
%ADD24C,0.00600*%
%ADD26C,0.02000*%
%ADD27C,0.00800*%
%ADD28C,0.01500*%
G04:AMPARAMS|DCode=49|XSize=23.62mil|YSize=39.37mil|CornerRadius=5.91mil|HoleSize=0mil|Usage=FLASHONLY|Rotation=270.000|XOffset=0mil|YOffset=0mil|HoleType=Round|Shape=RoundedRectangle|*
%AMROUNDEDRECTD49*
21,1,0.02362,0.02756,0,0,270.0*
21,1,0.01181,0.03937,0,0,270.0*
1,1,0.01181,-0.01378,-0.00591*
1,1,0.01181,-0.01378,0.00591*
1,1,0.01181,0.01378,0.00591*
1,1,0.01181,0.01378,-0.00591*
%
%ADD49ROUNDEDRECTD49*%
%ADD57C,0.03937*%
%ADD73R,0.05000X0.06300*%
%ADD74R,0.03740X0.03937*%
%ADD76R,0.03937X0.03740*%
%ADD80R,0.10630X0.05118*%
%ADD134C,0.06496*%
%ADD138C,0.06693*%
%ADD153C,0.05512*%
%ADD169R,0.01000X0.01000*%
%ADD173C,0.03000*%
%ADD175C,0.05000*%
%ADD178C,0.12598*%
%ADD179C,0.11811*%
G04:AMPARAMS|DCode=180|XSize=64.96mil|YSize=64.96mil|CornerRadius=16.24mil|HoleSize=0mil|Usage=FLASHONLY|Rotation=180.000|XOffset=0mil|YOffset=0mil|HoleType=Round|Shape=RoundedRectangle|*
%AMROUNDEDRECTD180*
21,1,0.06496,0.03248,0,0,180.0*
21,1,0.03248,0.06496,0,0,180.0*
1,1,0.03248,-0.01624,0.01624*
1,1,0.03248,0.01624,0.01624*
1,1,0.03248,0.01624,-0.01624*
1,1,0.03248,-0.01624,-0.01624*
%
%ADD180ROUNDEDRECTD180*%
G04:AMPARAMS|DCode=181|XSize=53.15mil|YSize=53.15mil|CornerRadius=13.29mil|HoleSize=0mil|Usage=FLASHONLY|Rotation=270.000|XOffset=0mil|YOffset=0mil|HoleType=Round|Shape=RoundedRectangle|*
%AMROUNDEDRECTD181*
21,1,0.05315,0.02657,0,0,270.0*
21,1,0.02657,0.05315,0,0,270.0*
1,1,0.02657,-0.01329,-0.01329*
1,1,0.02657,-0.01329,0.01329*
1,1,0.02657,0.01329,0.01329*
1,1,0.02657,0.01329,-0.01329*
%
%ADD181ROUNDEDRECTD181*%
%ADD182C,0.05315*%
%ADD183C,0.09500*%
G04:AMPARAMS|DCode=184|XSize=95mil|YSize=95mil|CornerRadius=23.75mil|HoleSize=0mil|Usage=FLASHONLY|Rotation=0.000|XOffset=0mil|YOffset=0mil|HoleType=Round|Shape=RoundedRectangle|*
%AMROUNDEDRECTD184*
21,1,0.09500,0.04750,0,0,0.0*
21,1,0.04750,0.09500,0,0,0.0*
1,1,0.04750,0.02375,-0.02375*
1,1,0.04750,-0.02375,-0.02375*
1,1,0.04750,-0.02375,0.02375*
1,1,0.04750,0.02375,0.02375*
%
%ADD184ROUNDEDRECTD184*%
%ADD185C,0.06102*%
%ADD186R,0.06102X0.06102*%
%ADD187R,0.09843X0.09843*%
%ADD188C,0.10236*%
%ADD189C,0.06299*%
G04:AMPARAMS|DCode=190|XSize=118.11mil|YSize=118.11mil|CornerRadius=29.53mil|HoleSize=0mil|Usage=FLASHONLY|Rotation=180.000|XOffset=0mil|YOffset=0mil|HoleType=Round|Shape=RoundedRectangle|*
%AMROUNDEDRECTD190*
21,1,0.11811,0.05906,0,0,180.0*
21,1,0.05906,0.11811,0,0,180.0*
1,1,0.05906,-0.02953,0.02953*
1,1,0.05906,0.02953,0.02953*
1,1,0.05906,0.02953,-0.02953*
1,1,0.05906,-0.02953,-0.02953*
%
%ADD190ROUNDEDRECTD190*%
G04:AMPARAMS|DCode=191|XSize=55.12mil|YSize=55.12mil|CornerRadius=1.93mil|HoleSize=0mil|Usage=FLASHONLY|Rotation=90.000|XOffset=0mil|YOffset=0mil|HoleType=Round|Shape=RoundedRectangle|*
%AMROUNDEDRECTD191*
21,1,0.05512,0.05126,0,0,90.0*
21,1,0.05126,0.05512,0,0,90.0*
1,1,0.00386,0.02563,0.02563*
1,1,0.00386,0.02563,-0.02563*
1,1,0.00386,-0.02563,-0.02563*
1,1,0.00386,-0.02563,0.02563*
%
%ADD191ROUNDEDRECTD191*%
%ADD192C,0.08000*%
%ADD193C,0.15748*%
%ADD194C,0.06000*%
%ADD195C,0.00100*%
%ADD196C,0.05307*%
G04:AMPARAMS|DCode=197|XSize=100mil|YSize=74.8mil|CornerRadius=18.7mil|HoleSize=0mil|Usage=FLASHONLY|Rotation=270.000|XOffset=0mil|YOffset=0mil|HoleType=Round|Shape=RoundedRectangle|*
%AMROUNDEDRECTD197*
21,1,0.10000,0.03740,0,0,270.0*
21,1,0.06260,0.07480,0,0,270.0*
1,1,0.03740,-0.01870,-0.03130*
1,1,0.03740,-0.01870,0.03130*
1,1,0.03740,0.01870,0.03130*
1,1,0.03740,0.01870,-0.03130*
%
%ADD197ROUNDEDRECTD197*%
%ADD198O,0.07480X0.10000*%
%ADD199O,0.09055X0.05118*%
%ADD200R,0.06693X0.06693*%
%ADD201C,0.05118*%
%ADD202R,0.05118X0.05118*%
%ADD203O,0.29528X0.10630*%
%ADD204O,0.32480X0.09449*%
G04:AMPARAMS|DCode=205|XSize=64.96mil|YSize=64.96mil|CornerRadius=16.24mil|HoleSize=0mil|Usage=FLASHONLY|Rotation=90.000|XOffset=0mil|YOffset=0mil|HoleType=Round|Shape=RoundedRectangle|*
%AMROUNDEDRECTD205*
21,1,0.06496,0.03248,0,0,90.0*
21,1,0.03248,0.06496,0,0,90.0*
1,1,0.03248,0.01624,0.01624*
1,1,0.03248,0.01624,-0.01624*
1,1,0.03248,-0.01624,-0.01624*
1,1,0.03248,-0.01624,0.01624*
%
%ADD205ROUNDEDRECTD205*%
%ADD206R,0.05118X0.05118*%
%ADD207C,0.31496*%
%ADD208O,0.30000X0.02000*%
%ADD209O,0.02000X0.15000*%
%ADD210O,0.15000X0.02000*%
%ADD211C,0.01968*%
%ADD212C,0.05200*%
%ADD213C,0.02400*%
%ADD214C,0.03200*%
%ADD215C,0.05000*%
%ADD217C,0.10000*%
%ADD218R,0.06299X0.10630*%
G36*
X0602255Y0898400D02*
X0605255Y0895400D01*
X0605255Y0886400D01*
X0605255Y0877400D01*
X0602255Y0874400D01*
X0597255Y0874400D01*
X0585255Y0886400D01*
X0516255Y0886400D01*
X0514255Y0888400D01*
X0514255Y0896400D01*
X0516255Y0898400D01*
X0602255Y0898400D01*
D02*
G37*
G36*
X0386955Y0808400D02*
X0389255Y0806100D01*
X0389255Y0781600D01*
X0387055Y0779400D01*
X0343645Y0779400D01*
X0342645Y0780400D01*
Y0807400D01*
X0343645Y0808400D01*
X0386955Y0808400D01*
D02*
G37*
G36*
X0320755Y0807400D02*
Y0780400D01*
X0319755Y0779400D01*
X0274255Y0779400D01*
X0272755Y0780900D01*
X0272755Y0806400D01*
X0274755Y0808400D01*
X0319755Y0808400D01*
X0320755Y0807400D01*
D02*
G37*
G36*
X1398455Y0807200D02*
X1402155Y0803500D01*
Y0779300D01*
X1398252Y0775397D01*
X1362458D01*
X1356255Y0781600D01*
X1355605Y0782250D01*
X1337679Y0782250D01*
X1335755Y0784174D01*
X1335755Y0805800D01*
X1337155Y0807200D01*
X1398455Y0807200D01*
D02*
G37*
G36*
X0214255Y0803500D02*
X0214255Y0762400D01*
X0210755Y0758900D01*
X0137755D01*
X0135255Y0761400D01*
X0135255Y0804700D01*
X0139155Y0808600D01*
X0209155Y0808600D01*
X0214255Y0803500D01*
D02*
G37*
G36*
X0776255Y0761400D02*
X0781255Y0756400D01*
Y0747400D01*
X0777255Y0743400D01*
X0730255Y0743400D01*
X0714255Y0759400D01*
X0649255Y0759400D01*
X0645255Y0763400D01*
Y0801400D01*
X0649255Y0805400D01*
X0732255D01*
X0776255Y0761400D01*
D02*
G37*
G36*
X0611255Y0801400D02*
X0611255Y0764400D01*
X0606255Y0759400D01*
X0546255Y0759400D01*
X0526255Y0739400D01*
X0431255Y0739400D01*
X0429255Y0741400D01*
X0429255Y0803400D01*
X0431255Y0805400D01*
X0607255Y0805400D01*
X0611255Y0801400D01*
D02*
G37*
G36*
X0410855Y0705600D02*
X0411155Y0705300D01*
Y0702500D01*
Y0697000D01*
X0409855Y0695700D01*
X0394055D01*
X0393155Y0696600D01*
Y0705400D01*
X0393955Y0706200D01*
X0410255D01*
X0410855Y0705600D01*
D02*
G37*
G36*
X0355155Y0699800D02*
Y0690000D01*
X0354955Y0689800D01*
X0345655D01*
X0344355Y0691100D01*
Y0699300D01*
X0346055Y0701000D01*
X0353955D01*
X0355155Y0699800D01*
D02*
G37*
G36*
X0602755Y0648900D02*
X0605255Y0646400D01*
X0605255Y0636900D01*
X0605255Y0627400D01*
X0602755Y0624900D01*
X0597255Y0624900D01*
X0585255Y0636900D01*
X0516755Y0636900D01*
X0514255Y0639400D01*
X0514255Y0646400D01*
X0516755Y0648900D01*
X0602755Y0648900D01*
D02*
G37*
G36*
X0214755Y0581900D02*
X0214755Y0540800D01*
X0211255Y0537300D01*
X0138255D01*
X0135755Y0539800D01*
X0135755Y0583100D01*
X0139655Y0587000D01*
X0209655Y0587000D01*
X0214755Y0581900D01*
D02*
G37*
G36*
X0793755Y0530800D02*
X0792755D01*
Y0532000D01*
X0793755D01*
Y0530800D01*
D02*
G37*
G36*
X0386317Y0558400D02*
X0389155Y0555562D01*
X0389155Y0532200D01*
X0386355Y0529400D01*
X0343645Y0529400D01*
X0342645Y0530400D01*
Y0557400D01*
X0343645Y0558400D01*
X0386317Y0558400D01*
D02*
G37*
G36*
X0289655Y0577200D02*
X0308455Y0558400D01*
X0319755Y0558400D01*
X0320755Y0557400D01*
Y0530400D01*
X0319755Y0529400D01*
X0305855D01*
X0272755Y0562500D01*
X0272755Y0575900D01*
X0274055Y0577200D01*
X0289655Y0577200D01*
D02*
G37*
G36*
X0780255Y0556400D02*
Y0537400D01*
X0777255Y0534400D01*
X0706255Y0534400D01*
X0695255Y0522400D01*
X0648255Y0522400D01*
X0645255Y0525400D01*
X0645255Y0556400D01*
X0648255Y0559400D01*
X0777255Y0559400D01*
X0780255Y0556400D01*
D02*
G37*
G36*
X1348055Y0743600D02*
X1409955Y0681700D01*
X1409955Y0666400D01*
X1409955Y0159400D01*
X1407555Y0157000D01*
X1365655Y0157000D01*
X1361940Y0160715D01*
X1361940Y0330515D01*
X1354655Y0337800D01*
X1243655Y0337800D01*
X1198155Y0292300D01*
X0883955Y0292300D01*
X0854255Y0262600D01*
X0854255Y0242900D01*
X0850755Y0239400D01*
X0843055D01*
X0839255Y0243200D01*
Y0256600D01*
X0834955Y0260900D01*
Y0282600D01*
X0859755Y0307400D01*
Y0327200D01*
X0864955Y0332400D01*
X1175255Y0332400D01*
X1220355Y0377500D01*
X1355355Y0377500D01*
X1361940Y0384085D01*
X1361940Y0457715D01*
X1352055Y0467600D01*
X1187155Y0467600D01*
X1156755Y0498000D01*
X0882455Y0498000D01*
X0854255Y0469800D01*
Y0448500D01*
X0850755Y0445000D01*
X0843055D01*
X0839255Y0448800D01*
Y0461900D01*
X0837455Y0463700D01*
Y0490600D01*
X0859755Y0512900D01*
Y0532800D01*
X0864955Y0538000D01*
X1180655D01*
X1205755Y0512900D01*
X1350855Y0512900D01*
X1361940Y0523985D01*
X1361940Y0661715D01*
X1320255Y0703400D01*
X0885655Y0703400D01*
X0854255Y0672000D01*
X0854255Y0654100D01*
X0850755Y0650600D01*
X0843055D01*
X0839255Y0654400D01*
X0839255Y0667700D01*
X0836555Y0670400D01*
X0836555Y0695300D01*
X0859755Y0718500D01*
X0859755Y0738400D01*
X0864955Y0743600D01*
X0900055D01*
X1348055Y0743600D01*
D02*
G37*
G36*
X0607255Y0555400D02*
X0611255Y0551400D01*
X0611255Y0513400D01*
X0607255Y0509400D01*
X0546255Y0509400D01*
X0526255Y0489400D01*
X0433255Y0489400D01*
X0431255D01*
X0429255Y0491400D01*
X0429255Y0553400D01*
X0431255Y0555400D01*
X0607255Y0555400D01*
D02*
G37*
G36*
X0410855Y0455600D02*
X0411155Y0455300D01*
Y0452500D01*
Y0447000D01*
X0409855Y0445700D01*
X0394055D01*
X0393155Y0446600D01*
Y0455400D01*
X0393955Y0456200D01*
X0410255D01*
X0410855Y0455600D01*
D02*
G37*
G36*
X0355155Y0449800D02*
Y0440000D01*
X0354955Y0439800D01*
X0345655D01*
X0344355Y0441100D01*
Y0449300D01*
X0346055Y0451000D01*
X0353955D01*
X0355155Y0449800D01*
D02*
G37*
G36*
X0602255Y0393400D02*
X0605255Y0390400D01*
X0605255Y0381400D01*
X0605255Y0372400D01*
X0602255Y0369400D01*
X0597255Y0369400D01*
X0585255Y0381400D01*
X0517255Y0381400D01*
X0514255Y0384400D01*
X0514255Y0390400D01*
X0517255Y0393400D01*
X0602255Y0393400D01*
D02*
G37*
G36*
X0214255Y0387200D02*
X0214255Y0346100D01*
X0210755Y0342600D01*
X0137755D01*
X0135255Y0345100D01*
X0135255Y0388400D01*
X0139155Y0392300D01*
X0209155Y0392300D01*
X0214255Y0387200D01*
D02*
G37*
G36*
X0778255Y0353400D02*
X0782255Y0349400D01*
X0782255Y0330400D01*
X0777255Y0325400D01*
X0752255Y0325400D01*
X0705255Y0278400D01*
X0651255Y0278400D01*
X0647255Y0282400D01*
X0647255Y0300400D01*
X0700255Y0353400D01*
X0778255Y0353400D01*
D02*
G37*
G36*
X0795755Y0317276D02*
X0794755D01*
Y0318476D01*
X0795755D01*
Y0317276D01*
D02*
G37*
G36*
X0294055Y0381200D02*
Y0355400D01*
X0321055Y0328400D01*
X0321055Y0276400D01*
X0320555Y0275900D01*
X0303455D01*
X0301155Y0278200D01*
Y0314900D01*
X0272455Y0343600D01*
X0272455Y0381100D01*
X0273955Y0382600D01*
X0292655D01*
X0294055Y0381200D01*
D02*
G37*
G36*
X0385855Y0303400D02*
X0389355Y0299900D01*
X0389355Y0278100D01*
X0385655Y0274400D01*
X0343645Y0274400D01*
X0342645Y0275400D01*
Y0302400D01*
X0343645Y0303400D01*
X0385855Y0303400D01*
D02*
G37*
G36*
X0606255Y0300400D02*
X0611255Y0295400D01*
X0611255Y0259400D01*
X0606255Y0254400D01*
X0546255Y0254400D01*
X0526255Y0234400D01*
X0433255Y0234400D01*
X0431255D01*
X0429255Y0236400D01*
X0429255Y0298400D01*
X0431255Y0300400D01*
X0606255Y0300400D01*
D02*
G37*
G36*
X0183255Y0256400D02*
X0216255Y0223400D01*
X0216255Y0201900D01*
X0211755Y0197400D01*
X0168755Y0197400D01*
X0137255Y0228900D01*
Y0264200D01*
X0142455Y0269400D01*
X0170255D01*
X0183255Y0256400D01*
D02*
G37*
G36*
X0410855Y0200600D02*
X0411155Y0200300D01*
Y0197500D01*
Y0192000D01*
X0409855Y0190700D01*
X0394055D01*
X0393155Y0191600D01*
Y0200400D01*
X0393955Y0201200D01*
X0410255D01*
X0410855Y0200600D01*
D02*
G37*
G36*
X0355155Y0194800D02*
Y0185000D01*
X0354955Y0184800D01*
X0345655D01*
X0344355Y0186100D01*
Y0194300D01*
X0346055Y0196000D01*
X0353955D01*
X0355155Y0194800D01*
D02*
G37*
%LPC*%
G36*
X0157656Y0790634D02*
X0156147Y0790485D01*
X0154696Y0790045D01*
X0153359Y0789330D01*
X0152187Y0788369D01*
X0151226Y0787197D01*
X0150511Y0785860D01*
X0150071Y0784409D01*
X0149922Y0782900D01*
X0150071Y0781392D01*
X0150511Y0779941D01*
X0151226Y0778604D01*
X0152187Y0777432D01*
X0153359Y0776470D01*
X0154696Y0775756D01*
X0156147Y0775316D01*
X0157656Y0775167D01*
X0159164Y0775316D01*
X0160615Y0775756D01*
X0161952Y0776470D01*
X0163124Y0777432D01*
X0164086Y0778604D01*
X0164800Y0779941D01*
X0165240Y0781392D01*
X0165389Y0782900D01*
X0165240Y0784409D01*
X0164800Y0785860D01*
X0164086Y0787197D01*
X0163124Y0788369D01*
X0161952Y0789330D01*
X0160615Y0790045D01*
X0159164Y0790485D01*
X0157656Y0790634D01*
D02*
G37*
G36*
X0158155Y0569034D02*
X0156647Y0568886D01*
X0155196Y0568445D01*
X0153859Y0567731D01*
X0152687Y0566769D01*
X0151725Y0565597D01*
X0151011Y0564260D01*
X0150570Y0562810D01*
X0150422Y0561301D01*
X0150570Y0559792D01*
X0151011Y0558341D01*
X0151725Y0557004D01*
X0152687Y0555832D01*
X0153859Y0554871D01*
X0155196Y0554156D01*
X0156647Y0553716D01*
X0158155Y0553568D01*
X0159664Y0553716D01*
X0161115Y0554156D01*
X0162452Y0554871D01*
X0163623Y0555832D01*
X0164585Y0557004D01*
X0165300Y0558341D01*
X0165740Y0559792D01*
X0165889Y0561301D01*
X0165740Y0562810D01*
X0165300Y0564260D01*
X0164585Y0565597D01*
X0163623Y0566769D01*
X0162452Y0567731D01*
X0161115Y0568445D01*
X0159664Y0568886D01*
X0158155Y0569034D01*
D02*
G37*
G36*
X1386110Y0189689D02*
X1384601Y0189540D01*
X1383151Y0189100D01*
X1381814Y0188385D01*
X1380642Y0187424D01*
X1379680Y0186252D01*
X1378966Y0184915D01*
X1378526Y0183464D01*
X1378377Y0181955D01*
X1378526Y0180447D01*
X1378966Y0178996D01*
X1379680Y0177659D01*
X1380642Y0176487D01*
X1381814Y0175525D01*
X1383151Y0174811D01*
X1384601Y0174371D01*
X1386110Y0174222D01*
X1387619Y0174371D01*
X1389070Y0174811D01*
X1390407Y0175525D01*
X1391578Y0176487D01*
X1392540Y0177659D01*
X1393255Y0178996D01*
X1393695Y0180447D01*
X1393843Y0181955D01*
X1393695Y0183464D01*
X1393255Y0184915D01*
X1392540Y0186252D01*
X1391578Y0187424D01*
X1390407Y0188385D01*
X1389070Y0189100D01*
X1387619Y0189540D01*
X1386110Y0189689D01*
D02*
G37*
G36*
X0157656Y0374334D02*
X0156147Y0374185D01*
X0154696Y0373745D01*
X0153359Y0373030D01*
X0152187Y0372069D01*
X0151226Y0370897D01*
X0150511Y0369560D01*
X0150071Y0368109D01*
X0149922Y0366600D01*
X0150071Y0365092D01*
X0150511Y0363641D01*
X0151226Y0362304D01*
X0152187Y0361132D01*
X0153359Y0360170D01*
X0154696Y0359456D01*
X0156147Y0359016D01*
X0157656Y0358867D01*
X0159164Y0359016D01*
X0160615Y0359456D01*
X0161952Y0360170D01*
X0163124Y0361132D01*
X0164086Y0362304D01*
X0164800Y0363641D01*
X0165240Y0365092D01*
X0165389Y0366600D01*
X0165240Y0368109D01*
X0164800Y0369560D01*
X0164086Y0370897D01*
X0163124Y0372069D01*
X0161952Y0373030D01*
X0160615Y0373745D01*
X0159164Y0374185D01*
X0157656Y0374334D01*
D02*
G37*
G36*
X0157655Y0255134D02*
X0156147Y0254985D01*
X0154696Y0254545D01*
X0153359Y0253831D01*
X0152187Y0252869D01*
X0151225Y0251697D01*
X0150511Y0250360D01*
X0150071Y0248909D01*
X0149922Y0247401D01*
X0150071Y0245892D01*
X0150511Y0244441D01*
X0151225Y0243104D01*
X0152187Y0241933D01*
X0153359Y0240971D01*
X0154696Y0240256D01*
X0156147Y0239816D01*
X0157655Y0239668D01*
X0159164Y0239816D01*
X0160615Y0240256D01*
X0161952Y0240971D01*
X0163124Y0241933D01*
X0164085Y0243104D01*
X0164800Y0244441D01*
X0165240Y0245892D01*
X0165389Y0247401D01*
X0165240Y0248909D01*
X0164800Y0250360D01*
X0164085Y0251697D01*
X0163124Y0252869D01*
X0161952Y0253831D01*
X0160615Y0254545D01*
X0159164Y0254985D01*
X0157655Y0255134D01*
D02*
G37*
%LPD*%
G54D17*
X0331104Y0509860D02*
X0338695Y0517451D01*
X0319780Y0262340D02*
X0324615D01*
X0324705Y0262250D01*
X0331104Y0254860D02*
X0338695Y0262451D01*
X0324615Y0517340D02*
X0324705Y0517250D01*
X0319780Y0517340D02*
X0324615D01*
X0331104Y0759860D02*
X0338695Y0767451D01*
X0324615Y0767340D02*
X0324705Y0767250D01*
X0319780Y0767340D02*
X0324615D01*
X0319780Y0254860D02*
X0331104D01*
X0319780Y0509860D02*
X0331104D01*
X0319780Y0759860D02*
X0331104D01*
G54D18*
X1422123Y0796268D02*
X1459755Y0833900D01*
X1395962Y0796268D02*
X1422123D01*
X1459755Y0833900D02*
X1488555D01*
G54D20*
X1004307Y0844900D02*
X1010325D01*
X0990619Y0858587D02*
X1004307Y0844900D01*
X0990368Y0858587D02*
X0990619D01*
X0990355Y0858600D02*
X0990368Y0858587D01*
X1004266Y0842413D02*
X1059168D01*
X0989879Y0856800D02*
X1004266Y0842413D01*
X0852455Y0856800D02*
X0989879D01*
X0795255Y0318876D02*
Y0333250D01*
Y0315400D02*
Y0316876D01*
X0207917Y0725278D02*
X0221255Y0738616D01*
X0207917Y0623738D02*
Y0725278D01*
X0221255Y0738616D02*
Y0818968D01*
X0217031Y0709176D02*
Y0731864D01*
X0223042Y0737876D01*
X0218818Y0615365D02*
Y0731124D01*
X0224830Y0737135D01*
X0799005Y0311650D02*
X0805255D01*
X1285785Y0784000D02*
Y0815822D01*
X0936091Y0902613D02*
X0939355Y0899349D01*
Y0898600D02*
Y0899349D01*
X0922570Y0902613D02*
X0936091D01*
X0654727Y0723400D02*
X0698255D01*
X0636669Y0705342D02*
X0654727Y0723400D01*
X0638669Y0704814D02*
X0654255Y0720400D01*
X0701255D01*
X0652611Y0713400D02*
X0698255D01*
X0642457Y0703245D02*
X0652611Y0713400D01*
X0653084Y0716400D02*
X0701255D01*
X0640457Y0703773D02*
X0653084Y0716400D01*
X1004099Y0813300D02*
X1005299Y0812100D01*
X1003484Y0813300D02*
X1004099D01*
X0998584Y0808400D02*
X1003484Y0813300D01*
X0845255Y0808400D02*
X0998584D01*
X0825255Y0788400D02*
X0845255Y0808400D01*
X0825255Y0711756D02*
Y0788400D01*
X0816899Y0703400D02*
X0825255Y0711756D01*
X0811249Y0703400D02*
X0816899D01*
X0810255Y0702406D02*
X0811249Y0703400D01*
X0800249Y0555215D02*
Y0558235D01*
X0791583Y0566900D02*
X0800249Y0558235D01*
Y0554550D02*
Y0555215D01*
X0642457Y0580027D02*
X0655583Y0566900D01*
X0642457Y0580027D02*
Y0703245D01*
X0655583Y0566900D02*
X0791583D01*
X1004099Y0815300D02*
X1005299Y0816500D01*
X1002655Y0815300D02*
X1004099D01*
X0844427Y0810400D02*
X0997755D01*
X1002655Y0815300D01*
X0823255Y0789228D02*
X0844427Y0810400D01*
X0823255Y0712585D02*
Y0789228D01*
X0810255Y0706394D02*
X0811249Y0705400D01*
X0816070D01*
X0823255Y0712585D01*
X0790755Y0564900D02*
X0795255Y0560400D01*
X0640457Y0579198D02*
Y0703773D01*
Y0579198D02*
X0654755Y0564900D01*
X0795255Y0554550D02*
Y0560400D01*
X0654755Y0564900D02*
X0790755D01*
X0800255Y0353228D02*
X0800353Y0339550D01*
X0638669Y0377814D02*
X0651084Y0365400D01*
X0638669Y0377814D02*
Y0704814D01*
X0788084Y0365400D02*
X0800255Y0353228D01*
X0651084Y0365400D02*
X0788084D01*
X1070552Y0813400D02*
X1071352Y0812600D01*
X1014255Y0813400D02*
X1070552D01*
X1005468Y0804613D02*
X1014255Y0813400D01*
X0870296Y0804613D02*
X1005468D01*
X0829255Y0763572D02*
X0870296Y0804613D01*
X0829255Y0708394D02*
Y0763572D01*
Y0708394D02*
X0830249Y0707400D01*
X0795255Y0339550D02*
Y0355400D01*
X0636669Y0376986D02*
Y0705342D01*
Y0376986D02*
X0650255Y0363400D01*
X0787255D02*
X0795255Y0355400D01*
X0650255Y0363400D02*
X0787255D01*
X1069752Y0815400D02*
X1071352Y0817000D01*
X1013427Y0815400D02*
X1069752D01*
X1004639Y0806613D02*
X1013427Y0815400D01*
X0869468Y0806613D02*
X1004639D01*
X0827255Y0764400D02*
X0869468Y0806613D01*
X0827255Y0708394D02*
Y0764400D01*
X0826261Y0707400D02*
X0827255Y0708394D01*
X0246855Y0202400D02*
X0258983Y0190272D01*
X0893896Y0931287D02*
X0922570Y0902613D01*
X0937555Y0904400D02*
X0943655Y0898300D01*
X0923311Y0904400D02*
X0937555D01*
X0894636Y0933075D02*
X0923311Y0904400D01*
X0895376Y0934862D02*
X0916258Y0913980D01*
X0777047Y0933075D02*
X0894636D01*
X0777787Y0931287D02*
X0893896D01*
X0916258Y0913980D02*
X0945235D01*
X0934255Y0888400D02*
X0985495D01*
X0897155Y0925500D02*
X0934255Y0888400D01*
X0890555Y0925500D02*
X0897155D01*
X0916185Y0916700D02*
X0954555D01*
X0896236Y0936650D02*
X0916185Y0916700D01*
X0775505Y0936650D02*
X0896236D01*
X0776245Y0934862D02*
X0895376D01*
X0884542Y0875113D02*
X0962468D01*
X0875617Y0884038D02*
X0884542Y0875113D01*
X0875617Y0884038D02*
Y0920172D01*
X0244855Y0689400D02*
Y0691703D01*
X0866289Y0929500D02*
X0875617Y0920172D01*
X0865549Y0927713D02*
X0873830Y0919431D01*
Y0883281D02*
Y0919431D01*
X0864808Y0925925D02*
X0872042Y0918691D01*
X0864068Y0924138D02*
X0870255Y0917951D01*
Y0881800D02*
Y0917951D01*
X0872042Y0882540D02*
Y0918691D01*
X0780749Y0924138D02*
X0864068D01*
X0780008Y0925925D02*
X0864808D01*
X0779268Y0927713D02*
X0865549D01*
X0778527Y0929500D02*
X0866289D01*
X0873830Y0883281D02*
X0884311Y0872800D01*
X0872042Y0882540D02*
X0884283Y0870300D01*
X0870255Y0881800D02*
X0885201Y0866854D01*
X0884283Y0870300D02*
X0954555D01*
X0884311Y0872800D02*
X0968081D01*
X0885201Y0866854D02*
X0903609D01*
X0741011Y0884400D02*
X0780749Y0924138D01*
X1079855Y0763700D02*
Y0835340D01*
X1053683Y0861513D02*
X1079855Y0835340D01*
X1009855Y0861513D02*
X1053683D01*
X1078068Y0768238D02*
Y0834600D01*
X1052943Y0859725D02*
X1078068Y0834600D01*
X1009114Y0859725D02*
X1052943D01*
X0984755Y0886613D02*
X1009855Y0861513D01*
X1010595Y0863300D02*
X1065255D01*
X0985495Y0888400D02*
X1010595Y0863300D01*
X0984014Y0884825D02*
X1009114Y0859725D01*
X0926430Y0884825D02*
X0984014D01*
X0931680Y0886613D02*
X0984755D01*
X0904293Y0914000D02*
X0931680Y0886613D01*
X0894355Y0916900D02*
X0926430Y0884825D01*
X0698439Y0896912D02*
X0735767D01*
X0662050Y0933300D02*
X0698439Y0896912D01*
X0226072Y0933300D02*
X0662050D01*
X0697698Y0895124D02*
X0736507D01*
X0661310Y0931513D02*
X0697698Y0895124D01*
X0696958Y0893337D02*
X0737309D01*
X0660570Y0929725D02*
X0696958Y0893337D01*
X0248907Y0929725D02*
X0660570D01*
X0696218Y0891550D02*
X0738049D01*
X0659829Y0927938D02*
X0696218Y0891550D01*
X0249647Y0927938D02*
X0659829D01*
X0695477Y0889762D02*
X0738790D01*
X0659089Y0926150D02*
X0695477Y0889762D01*
X0250388Y0926150D02*
X0659089D01*
X0694737Y0887975D02*
X0739530D01*
X0658349Y0924363D02*
X0694737Y0887975D01*
X0257218Y0924363D02*
X0658349D01*
X0693996Y0886187D02*
X0740270D01*
X0657608Y0922576D02*
X0693996Y0886187D01*
X0265931Y0922576D02*
X0657608D01*
X0693256Y0884400D02*
X0741011D01*
X0656868Y0920788D02*
X0693256Y0884400D01*
X0275043Y0920788D02*
X0656868D01*
X0259055Y0904800D02*
X0275043Y0920788D01*
X0252455Y0909100D02*
X0265931Y0922576D01*
X0246155Y0913300D02*
X0257218Y0924363D01*
X0228968Y0904730D02*
X0250388Y0926150D01*
X0218818Y0897108D02*
X0249647Y0927938D01*
X0217031Y0897849D02*
X0248907Y0929725D01*
X0228368Y0931513D02*
X0661310D01*
X0216155Y0919300D02*
X0228368Y0931513D01*
X0213268Y0920496D02*
X0226072Y0933300D01*
X0735767Y0896912D02*
X0775505Y0936650D01*
X0736507Y0895124D02*
X0776245Y0934862D01*
X0737309Y0893337D02*
X0777047Y0933075D01*
X0738049Y0891550D02*
X0777787Y0931287D01*
X0738790Y0889762D02*
X0778527Y0929500D01*
X0739530Y0887975D02*
X0779268Y0927713D01*
X0740270Y0886187D02*
X0780008Y0925925D01*
X0783515Y0787015D02*
X0797231Y0773299D01*
X0783515Y0787015D02*
Y0839660D01*
X0797231Y0667424D02*
Y0773299D01*
X0795443Y0604517D02*
Y0772558D01*
X0781727Y0786274D02*
X0795443Y0772558D01*
X0793656Y0603777D02*
Y0771818D01*
X0779940Y0785534D02*
X0793656Y0771818D01*
X0783515Y0839660D02*
X0819817Y0875961D01*
X0781727Y0786274D02*
Y0840683D01*
X0818029Y0876985D01*
X0779940Y0841423D02*
X0816242Y0877725D01*
X0779940Y0785534D02*
Y0841423D01*
X0837655Y0750000D02*
X0838855Y0748800D01*
X0834455D02*
X0835655Y0750000D01*
X0874084Y0788200D02*
X1025355D01*
X1026184Y0790200D02*
X1031855Y0784528D01*
X0873255Y0790200D02*
X1026184D01*
X0835655Y0752600D02*
X0873255Y0790200D01*
X0835655Y0750000D02*
Y0752600D01*
X1093255Y0613400D02*
Y0620868D01*
X1092989Y0621134D02*
X1093255Y0620868D01*
X0796493Y0480713D02*
X0815042Y0499262D01*
X0796493Y0407579D02*
Y0480713D01*
X0813255Y0500003D02*
Y0542200D01*
X0794706Y0481453D02*
X0813255Y0500003D01*
X0794706Y0406839D02*
Y0481453D01*
X0809743Y0548240D02*
Y0590218D01*
Y0548240D02*
X0815042Y0542940D01*
Y0499262D02*
Y0542940D01*
X0807955Y0547500D02*
X0813255Y0542200D01*
X0796255Y0530400D02*
Y0541162D01*
X0802505Y0319150D02*
X0805255D01*
X0799410Y0322245D02*
X0802505Y0319150D01*
X0799410Y0322245D02*
Y0333302D01*
X0800255D02*
X0800353Y0333400D01*
X0799410Y0333302D02*
X0800255D01*
X0795255Y0315400D02*
X0799005Y0311650D01*
X0805255D02*
Y0312141D01*
X0795255Y0544847D02*
Y0548250D01*
X0793255Y0542847D02*
X0795255Y0544847D01*
X0793255Y0532400D02*
Y0542847D01*
X0800249Y0545155D02*
Y0548250D01*
X0796255Y0541162D02*
X0800249Y0545155D01*
X0837655Y0751772D02*
X0874084Y0788200D01*
X0837655Y0750000D02*
Y0751772D01*
X0214255Y0466665D02*
X0232255Y0448665D01*
Y0441599D02*
Y0448665D01*
X0214255Y0466665D02*
Y0529837D01*
X0226305Y0322750D02*
Y0405724D01*
X0207917Y0424112D02*
X0226305Y0405724D01*
X0207917Y0424112D02*
Y0529462D01*
X0244855Y0544437D02*
Y0689400D01*
X0225255Y0524837D02*
X0244855Y0544437D01*
X0225255Y0469637D02*
Y0524837D01*
X0246855Y0402700D02*
Y0448037D01*
X0225255Y0469637D02*
X0246855Y0448037D01*
X0244855Y0691703D02*
Y0837600D01*
X0246855Y0401400D02*
Y0402700D01*
Y0400100D02*
Y0401400D01*
Y0202400D02*
Y0400100D01*
X0240155Y0200700D02*
Y0447419D01*
X0219755Y0467819D02*
X0240155Y0447419D01*
X0219755Y0467819D02*
Y0527035D01*
X0239155Y0546435D01*
Y0839900D01*
X0228192Y0543774D02*
Y0623138D01*
X0214255Y0529837D02*
X0228192Y0543774D01*
X0246158Y0690400D02*
X0246255D01*
X0246007Y0690551D02*
X0246158Y0690400D01*
X0244855Y0691703D02*
X0246007Y0690551D01*
X0244855Y0689400D02*
X0246007Y0690551D01*
X0325869Y0690524D02*
X0334200Y0698855D01*
X0317425Y0690524D02*
X0325869D01*
X0333043Y0447698D02*
X0334200Y0448855D01*
X0330617Y0190272D02*
X0334200Y0193855D01*
X0258983Y0190272D02*
X0330617D01*
X0256743Y0184112D02*
X0312255D01*
X0240155Y0200700D02*
X0256743Y0184112D01*
X0334200Y0698828D02*
Y0698855D01*
X0307739Y0401400D02*
X0333043Y0426704D01*
X0248155Y0401400D02*
X0307739D01*
X0333043Y0426704D02*
Y0447698D01*
X0886955Y0793100D02*
X0990355D01*
X0793255Y0527400D02*
Y0530400D01*
X0968081Y0872800D02*
X0974395Y0879114D01*
X0966255Y0878900D02*
Y0878900D01*
X0962468Y0875113D02*
X0966255Y0878900D01*
X0226968Y0624362D02*
Y0840338D01*
X0228968Y0842338D02*
Y0904730D01*
X0226968Y0840338D02*
X0228968Y0842338D01*
X0226968Y0624362D02*
X0228192Y0623138D01*
X0218818Y0826460D02*
Y0897108D01*
Y0826460D02*
X0224830Y0820449D01*
Y0737135D02*
Y0820449D01*
X0217031Y0825720D02*
Y0897849D01*
Y0825720D02*
X0223042Y0819708D01*
Y0737876D02*
Y0819708D01*
X0213268Y0826955D02*
X0221255Y0818968D01*
X0218818Y0615365D02*
X0223042Y0611140D01*
Y0542060D02*
Y0611140D01*
X0221255Y0542800D02*
Y0610400D01*
X0207917Y0623738D02*
X0221255Y0610400D01*
X0210805Y0529822D02*
X0223042Y0542060D01*
X0207917Y0529462D02*
X0221255Y0542800D01*
X0807955Y0547500D02*
Y0589478D01*
X0793656Y0603777D02*
X0807955Y0589478D01*
X0797231Y0667424D02*
X0799255Y0665400D01*
X0795443Y0604517D02*
X0809743Y0590218D01*
X0810655Y0353700D02*
Y0390889D01*
X0794706Y0406839D02*
X0810655Y0390889D01*
X0813955Y0357400D02*
Y0390117D01*
X0796493Y0407579D02*
X0813955Y0390117D01*
X1090255Y0648400D02*
X1092989Y0645666D01*
Y0621134D02*
Y0645666D01*
X1127255Y0643213D02*
Y0653400D01*
X1122548Y0638506D02*
X1127255Y0643213D01*
X1159255Y0666000D02*
X1171255D01*
X1147235Y0653980D02*
X1159255Y0666000D01*
X1147235Y0633192D02*
Y0653980D01*
X0865255Y0858600D02*
X0990355D01*
X0850055Y0854600D02*
X0986155D01*
X0996835Y0843920D01*
X0983143Y0852813D02*
X0999755Y0836200D01*
X0841943Y0852813D02*
X0983143D01*
X1059168Y0842413D02*
X1059855Y0843100D01*
X0917972Y0866854D02*
X0956418D01*
X0259055Y0851800D02*
Y0904800D01*
X0233955Y0688800D02*
Y0843200D01*
X0246155Y0855400D01*
Y0913300D01*
X0252455Y0853200D02*
Y0909100D01*
X0239155Y0839900D02*
X0252455Y0853200D01*
X0244855Y0837600D02*
X0259055Y0851800D01*
X0246855Y0401400D02*
X0248155D01*
X0232755Y0687600D02*
X0233955Y0688800D01*
X0246855Y0400100D02*
X0248155Y0401400D01*
X0246855Y0402700D02*
X0248155Y0401400D01*
X1223955Y0819100D02*
X1282506D01*
X1285785Y0815822D01*
X1210755Y0832300D02*
X1223955Y0819100D01*
X1210755Y0832300D02*
Y0857800D01*
X1194955Y0873600D02*
X1210755Y0857800D01*
X1071230Y0761400D02*
X1078068Y0768238D01*
X1031855Y0779700D02*
X1033055Y0778500D01*
X1031855Y0779700D02*
Y0784528D01*
X1029855Y0779700D02*
Y0783700D01*
X1028655Y0778500D02*
X1029855Y0779700D01*
X1025355Y0788200D02*
X1029855Y0783700D01*
X0810655Y0353700D02*
X0810755Y0353600D01*
X0812855Y0908800D02*
X0818029Y0903626D01*
X0812855Y0908800D02*
Y0918000D01*
X0818029Y0876985D02*
Y0903626D01*
X0816242Y0877725D02*
Y0902013D01*
X0809802Y0908453D02*
X0816242Y0902013D01*
X0809802Y0908453D02*
Y0914954D01*
X0819817Y0875961D02*
Y0917338D01*
X0819154Y0918000D02*
X0819817Y0917338D01*
X0903609Y0866854D02*
X0917972D01*
X1142548Y0628506D02*
X1147235Y0633192D01*
X1142548Y0422899D02*
X1147235Y0427586D01*
Y0448180D01*
X1142548Y0217293D02*
X1147235Y0221980D01*
Y0242280D01*
X1167655Y0247187D02*
X1167755Y0247287D01*
X1147235Y0242280D02*
X1152143Y0247187D01*
X1167655D01*
X1147235Y0448180D02*
X1151849Y0452794D01*
X0990355Y0793100D02*
X0995455Y0798200D01*
X0881255Y0797300D02*
X0925955D01*
X0832255Y0862500D02*
X0841943Y0852813D01*
X0847155Y0862100D02*
X0852455Y0856800D01*
X0860055Y0863800D02*
X0865255Y0858600D01*
X0843055Y0861600D02*
X0850055Y0854600D01*
X0843055Y0861600D02*
Y0879000D01*
X0838155Y0883900D02*
Y0914800D01*
Y0883900D02*
X0843055Y0879000D01*
X0834955Y0863500D02*
X0835055Y0863400D01*
X0834955Y0863500D02*
Y0917400D01*
X0832255Y0862500D02*
Y0920800D01*
X0210805Y0508350D02*
Y0529822D01*
Y0702950D02*
X0217031Y0709176D01*
X0213268Y0826955D02*
Y0920496D01*
X1151849Y0452794D02*
X1172755D01*
X0497200Y0080717D02*
Y0101050D01*
X0413200Y0080717D02*
Y0101050D01*
X0040000Y0080717D02*
X0700200D01*
X0040000Y0060383D02*
X0700000D01*
X0040000Y0040050D02*
X0440500D01*
X0040050Y0101050D02*
X0700200D01*
X0040050Y0040050D02*
Y0101050D01*
Y0040050D02*
X0197600D01*
X0040000D02*
Y0101050D01*
X0286500Y0040050D02*
Y0101050D01*
X0700200Y0040050D02*
Y0101050D01*
X0440500Y0040050D02*
X0700200D01*
X0559400Y0039400D02*
Y0059683D01*
G54D24*
X0126900Y0049966D02*
X0128899D01*
X0127900D01*
Y0046966D01*
X0129899Y0049966D02*
X0130899D01*
X0130399D01*
Y0046966D01*
X0129899D01*
X0130899D01*
X0132398Y0049966D02*
Y0046966D01*
X0133898D01*
X0134398Y0047466D01*
Y0049466D01*
X0133898Y0049966D01*
X0132398D01*
X0135397Y0046966D02*
Y0048966D01*
X0136397Y0049966D01*
X0137397Y0048966D01*
Y0046966D01*
Y0048466D01*
X0135397D01*
X0138396D02*
X0140396D01*
X0141395Y0049466D02*
X0141895Y0049966D01*
X0142895D01*
X0143395Y0049466D01*
Y0047466D01*
X0142895Y0046966D01*
X0141895D01*
X0141395Y0047466D01*
Y0049466D01*
X0144394Y0046966D02*
X0145394D01*
X0144894D01*
Y0049966D01*
X0144394Y0049466D01*
X0148893Y0049966D02*
X0147893Y0049466D01*
X0146894Y0048466D01*
Y0047466D01*
X0147393Y0046966D01*
X0148393D01*
X0148893Y0047466D01*
Y0047966D01*
X0148393Y0048466D01*
X0146894D01*
X0149893Y0049466D02*
X0150392Y0049966D01*
X0151392D01*
X0151892Y0049466D01*
Y0047466D01*
X0151392Y0046966D01*
X0150392D01*
X0149893Y0047466D01*
Y0049466D01*
X0154891Y0049966D02*
X0153891Y0049466D01*
X0152892Y0048466D01*
Y0047466D01*
X0153391Y0046966D01*
X0154391D01*
X0154891Y0047466D01*
Y0047966D01*
X0154391Y0048466D01*
X0152892D01*
X0155891Y0046467D02*
X0157890D01*
X0158890Y0046966D02*
Y0049966D01*
X0160389D01*
X0160889Y0049466D01*
Y0048466D01*
X0160389Y0047966D01*
X0158890D01*
X0162389Y0046966D02*
X0163388D01*
X0163888Y0047466D01*
Y0048466D01*
X0163388Y0048966D01*
X0162389D01*
X0161889Y0048466D01*
Y0047466D01*
X0162389Y0046966D01*
X0164888Y0048966D02*
Y0047466D01*
X0165388Y0046966D01*
X0165887Y0047466D01*
X0166387Y0046966D01*
X0166887Y0047466D01*
Y0048966D01*
X0169386Y0046966D02*
X0168387D01*
X0167887Y0047466D01*
Y0048466D01*
X0168387Y0048966D01*
X0169386D01*
X0169886Y0048466D01*
Y0047966D01*
X0167887D01*
X0170886Y0048966D02*
Y0046966D01*
Y0047966D01*
X0171386Y0048466D01*
X0171885Y0048966D01*
X0172385D01*
X0178883Y0049466D02*
X0178383Y0049966D01*
X0177384D01*
X0176884Y0049466D01*
Y0047466D01*
X0177384Y0046966D01*
X0178383D01*
X0178883Y0047466D01*
X0180383Y0048966D02*
X0181382D01*
X0181882Y0048466D01*
Y0046966D01*
X0180383D01*
X0179883Y0047466D01*
X0180383Y0047966D01*
X0181882D01*
X0182882Y0048966D02*
Y0046966D01*
Y0047966D01*
X0183382Y0048466D01*
X0183882Y0048966D01*
X0184381D01*
X0187880Y0049966D02*
Y0046966D01*
X0186381D01*
X0185881Y0047466D01*
Y0048466D01*
X0186381Y0048966D01*
X0187880D01*
X0190879Y0049966D02*
X0188880D01*
Y0046966D01*
X0190879D01*
X0188880Y0048466D02*
X0189880D01*
X0193378Y0046966D02*
Y0049966D01*
X0191879Y0048466D01*
X0193878D01*
X0194878Y0046966D02*
Y0047466D01*
X0195378D01*
Y0046966D01*
X0194878D01*
X0199376Y0049466D02*
X0198877Y0049966D01*
X0197877D01*
X0197377Y0049466D01*
Y0047466D01*
X0197877Y0046966D01*
X0198877D01*
X0199376Y0047466D01*
Y0048466D01*
X0198377D01*
X0200376Y0049966D02*
Y0046966D01*
X0201876D01*
X0202376Y0047466D01*
Y0047966D01*
X0201876Y0048466D01*
X0200376D01*
X0201876D01*
X0202376Y0048966D01*
Y0049466D01*
X0201876Y0049966D01*
X0200376D01*
X0203375D02*
Y0046966D01*
X0205375D01*
X0348550Y0090832D02*
X0350549D01*
X0349550D01*
Y0087833D01*
X0351549Y0090832D02*
X0352549D01*
X0352049D01*
Y0087833D01*
X0351549D01*
X0352549D01*
X0354048Y0090832D02*
Y0087833D01*
X0355548D01*
X0356048Y0088333D01*
Y0090333D01*
X0355548Y0090832D01*
X0354048D01*
X0357047Y0087833D02*
Y0089833D01*
X0358047Y0090832D01*
X0359047Y0089833D01*
Y0087833D01*
Y0089333D01*
X0357047D01*
X0360046D02*
X0362046D01*
X0363045Y0090333D02*
X0363545Y0090832D01*
X0364545D01*
X0365045Y0090333D01*
Y0088333D01*
X0364545Y0087833D01*
X0363545D01*
X0363045Y0088333D01*
Y0090333D01*
X0366044Y0087833D02*
X0367044D01*
X0366544D01*
Y0090832D01*
X0366044Y0090333D01*
X0370543Y0090832D02*
X0369543Y0090333D01*
X0368544Y0089333D01*
Y0088333D01*
X0369043Y0087833D01*
X0370043D01*
X0370543Y0088333D01*
Y0088833D01*
X0370043Y0089333D01*
X0368544D01*
X0371543Y0090333D02*
X0372042Y0090832D01*
X0373042D01*
X0373542Y0090333D01*
Y0088333D01*
X0373042Y0087833D01*
X0372042D01*
X0371543Y0088333D01*
Y0090333D01*
X0376541Y0090832D02*
X0375541Y0090333D01*
X0374542Y0089333D01*
Y0088333D01*
X0375041Y0087833D01*
X0376041D01*
X0376541Y0088333D01*
Y0088833D01*
X0376041Y0089333D01*
X0374542D01*
X0377541Y0087334D02*
X0379540D01*
X0380540Y0087833D02*
Y0090832D01*
X0382039D01*
X0382539Y0090333D01*
Y0089333D01*
X0382039Y0088833D01*
X0380540D01*
X0384038Y0087833D02*
X0385038D01*
X0385538Y0088333D01*
Y0089333D01*
X0385038Y0089833D01*
X0384038D01*
X0383539Y0089333D01*
Y0088333D01*
X0384038Y0087833D01*
X0386538Y0089833D02*
Y0088333D01*
X0387038Y0087833D01*
X0387537Y0088333D01*
X0388037Y0087833D01*
X0388537Y0088333D01*
Y0089833D01*
X0391036Y0087833D02*
X0390037D01*
X0389537Y0088333D01*
Y0089333D01*
X0390037Y0089833D01*
X0391036D01*
X0391536Y0089333D01*
Y0088833D01*
X0389537D01*
X0392536Y0089833D02*
Y0087833D01*
Y0088833D01*
X0393036Y0089333D01*
X0393535Y0089833D01*
X0394035D01*
X0400533Y0090333D02*
X0400033Y0090832D01*
X0399034D01*
X0398534Y0090333D01*
Y0088333D01*
X0399034Y0087833D01*
X0400033D01*
X0400533Y0088333D01*
X0402033Y0089833D02*
X0403032D01*
X0403532Y0089333D01*
Y0087833D01*
X0402033D01*
X0401533Y0088333D01*
X0402033Y0088833D01*
X0403532D01*
X0404532Y0089833D02*
Y0087833D01*
Y0088833D01*
X0405032Y0089333D01*
X0405532Y0089833D01*
X0406031D01*
X0409530Y0090832D02*
Y0087833D01*
X0408031D01*
X0407531Y0088333D01*
Y0089333D01*
X0408031Y0089833D01*
X0409530D01*
G54D26*
X1084716Y0661533D02*
Y0672154D01*
X1084609Y0455632D02*
Y0466254D01*
Y0250026D02*
Y0257054D01*
X0253655Y0404100D02*
X0298155D01*
X0243655Y0201200D02*
X0256855Y0188000D01*
X0854002Y0883354D02*
Y0917400D01*
X0819063Y0780860D02*
Y0782694D01*
X0808106Y0793651D02*
X0819063Y0782694D01*
X0872794Y0777339D02*
Y0782439D01*
X0876055Y0785700D01*
X1181255Y0231900D02*
X1183455D01*
X1177655D02*
X1181255D01*
X0222255Y0468700D02*
Y0526101D01*
X0243655Y0201200D02*
Y0447300D01*
X0222255Y0468700D02*
X0243655Y0447300D01*
X0242055Y0545901D02*
Y0838600D01*
X0222255Y0526101D02*
X0242055Y0545901D01*
X0235855Y0404000D02*
Y0448300D01*
X0217255Y0466900D02*
X0235855Y0448300D01*
X0217255Y0466900D02*
Y0528300D01*
X0236655Y0547700D01*
Y0841700D01*
X0390464Y0437691D02*
X0401464D01*
X0313800Y0187985D02*
X0316708Y0185076D01*
X0258036Y0187985D02*
X0313800D01*
X0258020Y0188000D02*
X0258036Y0187985D01*
X0256855Y0188000D02*
X0258020D01*
X0316708Y0180197D02*
Y0185076D01*
X0876055Y0785700D02*
X0913955D01*
X0927067Y0772588D01*
X0320405Y0176500D02*
X0325555D01*
X0316708Y0180197D02*
X0320405Y0176500D01*
X0255555Y0852100D02*
Y0907300D01*
X0242055Y0838600D02*
X0255555Y0852100D01*
Y0907300D02*
X0257955Y0909700D01*
X0261255Y0913000D01*
X0261355D01*
X1247155Y0788717D02*
Y0792500D01*
Y0788717D02*
X1278255Y0757618D01*
X0231255Y0845000D02*
X0242755Y0856500D01*
X1102548Y0437693D02*
X1114855Y0450000D01*
X1084716Y0661533D02*
X1102655Y0643594D01*
X1084609Y0466254D02*
X1090455Y0472100D01*
X1084609Y0257054D02*
X1093655Y0266100D01*
X1114623Y0678001D02*
X1122755Y0686133D01*
X0874555Y0862800D02*
X0929855D01*
X0854002Y0883354D02*
X0874555Y0862800D01*
X1122755Y0274000D02*
Y0274920D01*
X1114855Y0266100D02*
X1122755Y0274000D01*
X1093655Y0266100D02*
X1114855D01*
X1131254Y0252736D02*
Y0266421D01*
X1122755Y0274920D02*
X1131254Y0266421D01*
X1102548Y0227293D02*
Y0232087D01*
X1084609Y0250026D02*
X1102548Y0232087D01*
X1090562Y0678001D02*
X1114623D01*
X1122755Y0476694D02*
Y0480527D01*
X1118161Y0472100D02*
X1122755Y0476694D01*
X0242755Y0856500D02*
Y0915000D01*
X0231255Y0699913D02*
Y0845000D01*
X0242755Y0915000D02*
X0244455Y0916700D01*
X0250555Y0912700D02*
X0253855Y0916000D01*
X0249355Y0911500D02*
X0250555Y0912700D01*
X0236655Y0841700D02*
X0249355Y0854400D01*
Y0911500D01*
X0229355Y0682500D02*
X0229455Y0682400D01*
X0229355Y0682500D02*
Y0698013D01*
X0231255Y0699913D01*
X0244455Y0916700D02*
X0247755Y0920000D01*
X0253655Y0404100D02*
X0253755Y0404000D01*
X0298155Y0404100D02*
X0325555Y0431500D01*
X0322355Y0448600D02*
X0325555Y0445400D01*
Y0431500D02*
Y0445400D01*
Y0431500D02*
X0329155Y0427900D01*
X0330155D01*
X1201155Y0757400D02*
X1235955Y0792200D01*
X0973891Y0757400D02*
X1201155D01*
X0958703Y0772588D02*
X0973891Y0757400D01*
X0960955Y0840800D02*
Y0848530D01*
Y0840800D02*
X0983655Y0818100D01*
X0808106Y0793651D02*
Y0838340D01*
X0815466Y0845700D01*
X0936855Y0848530D02*
X0960955D01*
X0933525Y0845200D02*
X0936855Y0848530D01*
X0815466Y0845700D02*
X0818796Y0849030D01*
X0842896D01*
X1179855Y0437600D02*
X1186455D01*
X1174150Y0648318D02*
X1178568Y0643900D01*
X1153534Y0442712D02*
X1174743D01*
X1179855Y0437600D01*
X1181255Y0231900D02*
X1183455Y0229700D01*
X1181255Y0231900D02*
X1183455Y0234100D01*
X1172450Y0237106D02*
X1177655Y0231900D01*
X1153534Y0237106D02*
X1172450D01*
X0310331Y0509224D02*
Y0513600D01*
X0402255Y0682100D02*
Y0686900D01*
X0390464Y0182691D02*
X0401464D01*
X0402255Y0181900D01*
Y0177100D02*
Y0181900D01*
X0390455Y0182700D02*
X0390464Y0182691D01*
X0390455Y0437700D02*
X0390464Y0437691D01*
X0402255Y0432100D02*
Y0436900D01*
X0401464Y0437691D02*
X0402255Y0436900D01*
X0390455Y0687700D02*
X0390464Y0687691D01*
X0401464D01*
X0402255Y0686900D01*
X0310331Y0254224D02*
Y0258600D01*
Y0759224D02*
Y0763600D01*
X1153534Y0648318D02*
X1174150D01*
X0927067Y0772588D02*
X0958703D01*
X0841255Y0917400D02*
X0847309D01*
X0841254Y0917401D02*
X0841255Y0917400D01*
X1099855Y0461554D02*
Y0466500D01*
Y0461554D02*
X1104609Y0456800D01*
X1090455Y0472100D02*
X1118161D01*
X1102548Y0432899D02*
Y0437693D01*
X1084609Y0455632D02*
X1102548Y0437693D01*
X1178568Y0643900D02*
X1195855D01*
X1102655Y0638800D02*
Y0643594D01*
X1084716Y0672154D02*
X1090562Y0678001D01*
G54D27*
X0126900Y0073549D02*
Y0067551D01*
X0129899D01*
X0130899Y0068550D01*
Y0069550D01*
X0129899Y0070550D01*
X0126900D01*
X0129899D01*
X0130899Y0071549D01*
Y0072549D01*
X0129899Y0073549D01*
X0126900D01*
X0133898Y0067551D02*
X0135897D01*
X0136897Y0068550D01*
Y0070550D01*
X0135897Y0071549D01*
X0133898D01*
X0132898Y0070550D01*
Y0068550D01*
X0133898Y0067551D01*
X0139896Y0072549D02*
Y0071549D01*
X0138896D01*
X0140895D01*
X0139896D01*
Y0068550D01*
X0140895Y0067551D01*
X0144894Y0072549D02*
Y0071549D01*
X0143895D01*
X0145894D01*
X0144894D01*
Y0068550D01*
X0145894Y0067551D01*
X0149893D02*
X0151892D01*
X0152892Y0068550D01*
Y0070550D01*
X0151892Y0071549D01*
X0149893D01*
X0148893Y0070550D01*
Y0068550D01*
X0149893Y0067551D01*
X0154891D02*
Y0071549D01*
X0155891D01*
X0156890Y0070550D01*
Y0067551D01*
Y0070550D01*
X0157890Y0071549D01*
X0158890Y0070550D01*
Y0067551D01*
X0166887Y0073549D02*
Y0067551D01*
X0170886D01*
X0173885Y0071549D02*
X0175884D01*
X0176884Y0070550D01*
Y0067551D01*
X0173885D01*
X0172885Y0068550D01*
X0173885Y0069550D01*
X0176884D01*
X0178883Y0071549D02*
Y0068550D01*
X0179883Y0067551D01*
X0182882D01*
Y0066551D01*
X0181882Y0065551D01*
X0180883D01*
X0182882Y0067551D02*
Y0071549D01*
X0187880Y0067551D02*
X0185881D01*
X0184881Y0068550D01*
Y0070550D01*
X0185881Y0071549D01*
X0187880D01*
X0188880Y0070550D01*
Y0069550D01*
X0184881D01*
X0190879Y0071549D02*
Y0067551D01*
Y0069550D01*
X0191879Y0070550D01*
X0192879Y0071549D01*
X0193878D01*
X0043250Y0073349D02*
Y0067351D01*
X0047249D01*
X0049248D02*
Y0071349D01*
X0051247Y0073349D01*
X0053247Y0071349D01*
Y0067351D01*
Y0070350D01*
X0049248D01*
X0055246Y0073349D02*
Y0072349D01*
X0057245Y0070350D01*
X0059245Y0072349D01*
Y0073349D01*
X0057245Y0070350D02*
Y0067351D01*
X0065243Y0073349D02*
X0061244D01*
Y0067351D01*
X0065243D01*
X0061244Y0070350D02*
X0063244D01*
X0067242Y0067351D02*
Y0073349D01*
X0070241D01*
X0071241Y0072349D01*
Y0070350D01*
X0070241Y0069350D01*
X0067242D01*
X0069242D02*
X0071241Y0067351D01*
X0079238D02*
Y0073349D01*
X0083237Y0067351D01*
Y0073349D01*
X0085236Y0067351D02*
Y0071349D01*
X0087236Y0073349D01*
X0089235Y0071349D01*
Y0067351D01*
Y0070350D01*
X0085236D01*
X0091234Y0067351D02*
Y0073349D01*
X0093234Y0071349D01*
X0095233Y0073349D01*
Y0067351D01*
X0101231Y0073349D02*
X0097233D01*
Y0067351D01*
X0101231D01*
X0097233Y0070350D02*
X0099232D01*
X0109229Y0069350D02*
X0113227D01*
X0109229Y0071349D02*
X0113227D01*
X0567400Y0087833D02*
Y0093831D01*
X0571399Y0087833D01*
Y0093831D01*
X0574398Y0087833D02*
X0576397D01*
X0577397Y0088833D01*
Y0090832D01*
X0576397Y0091832D01*
X0574398D01*
X0573398Y0090832D01*
Y0088833D01*
X0574398Y0087833D01*
X0580396Y0092832D02*
Y0091832D01*
X0579396D01*
X0581395D01*
X0580396D01*
Y0088833D01*
X0581395Y0087833D01*
X0590393Y0093831D02*
X0592392D01*
X0591392D01*
Y0087833D01*
X0590393D01*
X0592392D01*
X0595391D02*
Y0091832D01*
X0598390D01*
X0599390Y0090832D01*
Y0087833D01*
X0607387Y0093831D02*
Y0089833D01*
X0609386Y0087833D01*
X0611386Y0089833D01*
Y0093831D01*
X0616384Y0087833D02*
X0614385D01*
X0613385Y0088833D01*
Y0090832D01*
X0614385Y0091832D01*
X0616384D01*
X0617384Y0090832D01*
Y0089833D01*
X0613385D01*
X0619383Y0091832D02*
Y0087833D01*
Y0089833D01*
X0620383Y0090832D01*
X0621383Y0091832D01*
X0622382D01*
X0625381Y0087833D02*
X0628380D01*
X0629380Y0088833D01*
X0628380Y0089833D01*
X0626381D01*
X0625381Y0090832D01*
X0626381Y0091832D01*
X0629380D01*
X0631379Y0087833D02*
X0633379D01*
X0632379D01*
Y0091832D01*
X0631379D01*
X0637377Y0087833D02*
X0639377D01*
X0640376Y0088833D01*
Y0090832D01*
X0639377Y0091832D01*
X0637377D01*
X0636378Y0090832D01*
Y0088833D01*
X0637377Y0087833D01*
X0642376D02*
Y0091832D01*
X0645375D01*
X0646374Y0090832D01*
Y0087833D01*
X0652373Y0092832D02*
X0651373Y0093831D01*
X0649373D01*
X0648374Y0092832D01*
Y0088833D01*
X0649373Y0087833D01*
X0651373D01*
X0652373Y0088833D01*
X0655372Y0087833D02*
X0657371D01*
X0658371Y0088833D01*
Y0090832D01*
X0657371Y0091832D01*
X0655372D01*
X0654372Y0090832D01*
Y0088833D01*
X0655372Y0087833D01*
X0660370D02*
Y0091832D01*
X0663369D01*
X0664369Y0090832D01*
Y0087833D01*
X0667368Y0092832D02*
Y0091832D01*
X0666368D01*
X0668367D01*
X0667368D01*
Y0088833D01*
X0668367Y0087833D01*
X0671366Y0091832D02*
Y0087833D01*
Y0089833D01*
X0672366Y0090832D01*
X0673366Y0091832D01*
X0674365D01*
X0678364Y0087833D02*
X0680364D01*
X0681363Y0088833D01*
Y0090832D01*
X0680364Y0091832D01*
X0678364D01*
X0677364Y0090832D01*
Y0088833D01*
X0678364Y0087833D01*
X0683362D02*
X0685362D01*
X0684362D01*
Y0093831D01*
X0683362D01*
X0520799Y0092832D02*
X0519799Y0093831D01*
X0517800D01*
X0516800Y0092832D01*
Y0091832D01*
X0517800Y0090832D01*
X0519799D01*
X0520799Y0089833D01*
Y0088833D01*
X0519799Y0087833D01*
X0517800D01*
X0516800Y0088833D01*
X0522798Y0093831D02*
Y0089833D01*
X0524797Y0087833D01*
X0526797Y0089833D01*
Y0093831D01*
X0528796Y0087833D02*
Y0093831D01*
X0532795Y0087833D01*
Y0093831D01*
X0540792Y0087833D02*
Y0093831D01*
X0543791D01*
X0544791Y0092832D01*
Y0090832D01*
X0543791Y0089833D01*
X0540792D01*
X0542792D02*
X0544791Y0087833D01*
X0550789Y0093831D02*
X0546790D01*
Y0087833D01*
X0550789D01*
X0546790Y0090832D02*
X0548790D01*
X0552788Y0093831D02*
Y0089833D01*
X0554788Y0087833D01*
X0556787Y0089833D01*
Y0093831D01*
X0558786Y0091832D02*
X0559786D01*
Y0090832D01*
X0558786D01*
Y0091832D01*
Y0088833D02*
X0559786D01*
Y0087833D01*
X0558786D01*
Y0088833D01*
X0433000Y0087833D02*
Y0093831D01*
X0435999D01*
X0436999Y0092832D01*
Y0090832D01*
X0435999Y0089833D01*
X0433000D01*
X0434999D02*
X0436999Y0087833D01*
X0442997Y0093831D02*
X0438998D01*
Y0087833D01*
X0442997D01*
X0438998Y0090832D02*
X0440997D01*
X0444996Y0093831D02*
Y0089833D01*
X0446995Y0087833D01*
X0448995Y0089833D01*
Y0093831D01*
X0450994Y0091832D02*
X0451994D01*
Y0090832D01*
X0450994D01*
Y0091832D01*
Y0088833D02*
X0451994D01*
Y0087833D01*
X0450994D01*
Y0088833D01*
X0385149Y0046966D02*
X0381150D01*
X0385149Y0050965D01*
Y0051965D01*
X0384149Y0052965D01*
X0382150D01*
X0381150Y0051965D01*
X0387148Y0046966D02*
X0391147Y0050965D01*
X0393146Y0046966D02*
X0395146D01*
X0394146D01*
Y0052965D01*
X0393146Y0051965D01*
X0402143Y0052965D02*
X0398145D01*
Y0049966D01*
X0400144Y0050965D01*
X0401144D01*
X0402143Y0049966D01*
Y0047966D01*
X0401144Y0046966D01*
X0399144D01*
X0398145Y0047966D01*
X0404143Y0046966D02*
X0408141Y0050965D01*
X0414139Y0046966D02*
X0410141D01*
X0414139Y0050965D01*
Y0051965D01*
X0413140Y0052965D01*
X0411140D01*
X0410141Y0051965D01*
X0416139D02*
X0417138Y0052965D01*
X0419138D01*
X0420137Y0051965D01*
Y0047966D01*
X0419138Y0046966D01*
X0417138D01*
X0416139Y0047966D01*
Y0051965D01*
X0422137Y0046966D02*
X0424136D01*
X0423136D01*
Y0052965D01*
X0422137Y0051965D01*
X0427135Y0047966D02*
X0428135Y0046966D01*
X0430134D01*
X0431134Y0047966D01*
Y0051965D01*
X0430134Y0052965D01*
X0428135D01*
X0427135Y0051965D01*
Y0050965D01*
X0428135Y0049966D01*
X0431134D01*
X0298199Y0051965D02*
X0297199Y0052965D01*
X0295200D01*
X0294200Y0051965D01*
Y0047966D01*
X0295200Y0046966D01*
X0297199D01*
X0298199Y0047966D01*
Y0049966D01*
X0296199D01*
X0304197Y0052965D02*
X0300198D01*
Y0046966D01*
X0304197D01*
X0300198Y0049966D02*
X0302197D01*
X0306196Y0046966D02*
Y0052965D01*
X0310195Y0046966D01*
Y0052965D01*
X0316193D02*
X0312194D01*
Y0046966D01*
X0316193D01*
X0312194Y0049966D02*
X0314194D01*
X0318192Y0046966D02*
Y0052965D01*
X0321191D01*
X0322191Y0051965D01*
Y0049966D01*
X0321191Y0048966D01*
X0318192D01*
X0320192D02*
X0322191Y0046966D01*
X0324190D02*
Y0050965D01*
X0326190Y0052965D01*
X0328189Y0050965D01*
Y0046966D01*
Y0049966D01*
X0324190D01*
X0330188Y0052965D02*
X0334187D01*
X0332188D01*
Y0046966D01*
X0340185Y0052965D02*
X0336186D01*
Y0046966D01*
X0340185D01*
X0336186Y0049966D02*
X0338186D01*
X0342184Y0052965D02*
Y0046966D01*
X0345183D01*
X0346183Y0047966D01*
Y0051965D01*
X0345183Y0052965D01*
X0342184D01*
X0372175Y0050965D02*
X0373175D01*
Y0049966D01*
X0372175D01*
Y0050965D01*
Y0047966D02*
X0373175D01*
Y0046966D01*
X0372175D01*
Y0047966D01*
X0046350Y0087833D02*
Y0091832D01*
X0048349Y0093831D01*
X0050349Y0091832D01*
Y0087833D01*
Y0090832D01*
X0046350D01*
X0052348Y0093831D02*
Y0087833D01*
X0056347D01*
X0058346Y0093831D02*
Y0087833D01*
X0062345D01*
X0070342D02*
Y0091832D01*
X0072342Y0093831D01*
X0074341Y0091832D01*
Y0087833D01*
Y0090832D01*
X0070342D01*
X0076340Y0087833D02*
Y0093831D01*
X0079339D01*
X0080339Y0092832D01*
Y0090832D01*
X0079339Y0089833D01*
X0076340D01*
X0078340D02*
X0080339Y0087833D01*
X0082338Y0093831D02*
X0086337D01*
X0084338D01*
Y0087833D01*
X0088336Y0093831D02*
Y0087833D01*
X0090336Y0089833D01*
X0092335Y0087833D01*
Y0093831D01*
X0097334D02*
X0095334D01*
X0094335Y0092832D01*
Y0088833D01*
X0095334Y0087833D01*
X0097334D01*
X0098333Y0088833D01*
Y0092832D01*
X0097334Y0093831D01*
X0100332Y0087833D02*
Y0093831D01*
X0103332D01*
X0104331Y0092832D01*
Y0090832D01*
X0103332Y0089833D01*
X0100332D01*
X0102332D02*
X0104331Y0087833D01*
X0106331Y0093831D02*
Y0087833D01*
Y0089833D01*
X0110329Y0093831D01*
X0107330Y0090832D01*
X0110329Y0087833D01*
X0118327Y0093831D02*
Y0089833D01*
X0120326Y0087833D01*
X0122325Y0089833D01*
Y0093831D01*
X0124325D02*
X0126324D01*
X0125324D01*
Y0087833D01*
X0124325D01*
X0126324D01*
X0133322Y0093831D02*
X0129323D01*
Y0087833D01*
X0133322D01*
X0129323Y0090832D02*
X0131323D01*
X0135321Y0093831D02*
Y0087833D01*
X0137321Y0089833D01*
X0139320Y0087833D01*
Y0093831D01*
X0145318D02*
X0141319D01*
Y0087833D01*
X0145318D01*
X0141319Y0090832D02*
X0143319D01*
X0147317Y0093831D02*
Y0087833D01*
X0150316D01*
X0151316Y0088833D01*
Y0092832D01*
X0150316Y0093831D01*
X0147317D01*
X0163312D02*
X0159313D01*
Y0090832D01*
X0161313D01*
X0159313D01*
Y0087833D01*
X0165312D02*
Y0093831D01*
X0168310D01*
X0169310Y0092832D01*
Y0090832D01*
X0168310Y0089833D01*
X0165312D01*
X0167311D02*
X0169310Y0087833D01*
X0174309Y0093831D02*
X0172309D01*
X0171310Y0092832D01*
Y0088833D01*
X0172309Y0087833D01*
X0174309D01*
X0175308Y0088833D01*
Y0092832D01*
X0174309Y0093831D01*
X0177308Y0087833D02*
Y0093831D01*
X0179307Y0091832D01*
X0181306Y0093831D01*
Y0087833D01*
X0189304Y0093831D02*
X0193303D01*
X0191303D01*
Y0087833D01*
X0198301Y0093831D02*
X0196301D01*
X0195302Y0092832D01*
Y0088833D01*
X0196301Y0087833D01*
X0198301D01*
X0199301Y0088833D01*
Y0092832D01*
X0198301Y0093831D01*
X0201300Y0087833D02*
Y0093831D01*
X0204299D01*
X0205299Y0092832D01*
Y0090832D01*
X0204299Y0089833D01*
X0201300D01*
X0217295Y0092832D02*
X0216295Y0093831D01*
X0214296D01*
X0213296Y0092832D01*
Y0091832D01*
X0214296Y0090832D01*
X0216295D01*
X0217295Y0089833D01*
Y0088833D01*
X0216295Y0087833D01*
X0214296D01*
X0213296Y0088833D01*
X0219294Y0093831D02*
X0221293D01*
X0220294D01*
Y0087833D01*
X0219294D01*
X0221293D01*
X0224292Y0093831D02*
Y0087833D01*
X0227291D01*
X0228291Y0088833D01*
Y0092832D01*
X0227291Y0093831D01*
X0224292D01*
X0234289D02*
X0230291D01*
Y0087833D01*
X0234289D01*
X0230291Y0090832D02*
X0232290D01*
X0466149Y0093831D02*
X0462150D01*
Y0087833D01*
X0466149D01*
X0462150Y0090832D02*
X0464149D01*
X0471147Y0087833D02*
Y0093831D01*
X0468148Y0090832D01*
X0472147D01*
X0294000Y0093831D02*
Y0087833D01*
X0296999D01*
X0297999Y0088833D01*
Y0089833D01*
X0296999Y0090832D01*
X0294000D01*
X0296999D01*
X0297999Y0091832D01*
Y0092832D01*
X0296999Y0093831D01*
X0294000D01*
X0302997D02*
X0300998D01*
X0299998Y0092832D01*
Y0088833D01*
X0300998Y0087833D01*
X0302997D01*
X0303997Y0088833D01*
Y0092832D01*
X0302997Y0093831D01*
X0305996Y0087833D02*
Y0091832D01*
X0307996Y0093831D01*
X0309995Y0091832D01*
Y0087833D01*
Y0090832D01*
X0305996D01*
X0311994Y0087833D02*
Y0093831D01*
X0314993D01*
X0315993Y0092832D01*
Y0090832D01*
X0314993Y0089833D01*
X0311994D01*
X0313994D02*
X0315993Y0087833D01*
X0317992Y0093831D02*
Y0087833D01*
X0320991D01*
X0321991Y0088833D01*
Y0092832D01*
X0320991Y0093831D01*
X0317992D01*
X0330988Y0087833D02*
Y0093831D01*
X0332987D02*
Y0087833D01*
X0329988Y0091832D02*
X0332987D01*
X0333987D01*
X0329988Y0089833D02*
X0333987D01*
X0335986Y0091832D02*
X0336986D01*
Y0090832D01*
X0335986D01*
Y0091832D01*
Y0088833D02*
X0336986D01*
Y0087833D01*
X0335986D01*
Y0088833D01*
X0046350Y0046966D02*
Y0052965D01*
X0049349D01*
X0050349Y0051965D01*
Y0049966D01*
X0049349Y0048966D01*
X0046350D01*
X0052348Y0052965D02*
Y0046966D01*
X0056347D01*
X0061345Y0052965D02*
X0059346D01*
X0058346Y0051965D01*
Y0047966D01*
X0059346Y0046966D01*
X0061345D01*
X0062345Y0047966D01*
Y0051965D01*
X0061345Y0052965D01*
X0064344D02*
X0068343D01*
X0066343D01*
Y0046966D01*
X0076340D02*
Y0052965D01*
X0080339Y0046966D01*
Y0052965D01*
X0082338Y0046966D02*
Y0050965D01*
X0084338Y0052965D01*
X0086337Y0050965D01*
Y0046966D01*
Y0049966D01*
X0082338D01*
X0088336Y0046966D02*
Y0052965D01*
X0090336Y0050965D01*
X0092335Y0052965D01*
Y0046966D01*
X0098333Y0052965D02*
X0094335D01*
Y0046966D01*
X0098333D01*
X0094335Y0049966D02*
X0096334D01*
X0106331Y0048966D02*
X0110329D01*
X0106331Y0050965D02*
X0110329D01*
X0454050Y0047966D02*
X0455050Y0046966D01*
X0457049D01*
X0458049Y0047966D01*
Y0051965D01*
X0457049Y0052965D01*
X0455050D01*
X0454050Y0051965D01*
Y0050965D01*
X0455050Y0049966D01*
X0458049D01*
X0460048Y0050965D02*
X0461048D01*
Y0049966D01*
X0460048D01*
Y0050965D01*
Y0047966D02*
X0461048D01*
Y0046966D01*
X0460048D01*
Y0047966D01*
X0465046Y0051965D02*
X0466046Y0052965D01*
X0468046D01*
X0469045Y0051965D01*
Y0047966D01*
X0468046Y0046966D01*
X0466046D01*
X0465046Y0047966D01*
Y0051965D01*
X0471044Y0047966D02*
X0472044Y0046966D01*
X0474044D01*
X0475043Y0047966D01*
Y0051965D01*
X0474044Y0052965D01*
X0472044D01*
X0471044Y0051965D01*
Y0050965D01*
X0472044Y0049966D01*
X0475043D01*
X0477043Y0050965D02*
X0478042D01*
Y0049966D01*
X0477043D01*
Y0050965D01*
Y0047966D02*
X0478042D01*
Y0046966D01*
X0477043D01*
Y0047966D01*
X0482041Y0051965D02*
X0483041Y0052965D01*
X0485040D01*
X0486040Y0051965D01*
Y0047966D01*
X0485040Y0046966D01*
X0483041D01*
X0482041Y0047966D01*
Y0051965D01*
X0491038Y0046966D02*
Y0052965D01*
X0488039Y0049966D01*
X0492038D01*
X0500035Y0046966D02*
Y0050965D01*
X0502035Y0052965D01*
X0504034Y0050965D01*
Y0046966D01*
Y0049966D01*
X0500035D01*
X0506033Y0046966D02*
Y0052965D01*
X0508033Y0050965D01*
X0510032Y0052965D01*
Y0046966D01*
X0580500Y0052965D02*
X0584499D01*
X0582499D01*
Y0046966D01*
X0590497Y0052965D02*
X0586498D01*
Y0046966D01*
X0590497D01*
X0586498Y0049966D02*
X0588497D01*
X0592496Y0052965D02*
X0596495Y0046966D01*
Y0052965D02*
X0592496Y0046966D01*
X0598494D02*
Y0050965D01*
X0600493Y0052965D01*
X0602493Y0050965D01*
Y0046966D01*
Y0049966D01*
X0598494D01*
X0608491Y0051965D02*
X0607491Y0052965D01*
X0605492D01*
X0604492Y0051965D01*
Y0050965D01*
X0605492Y0049966D01*
X0607491D01*
X0608491Y0048966D01*
Y0047966D01*
X0607491Y0046966D01*
X0605492D01*
X0604492Y0047966D01*
X0616488Y0052965D02*
X0618488D01*
X0617488D01*
Y0046966D01*
X0616488D01*
X0618488D01*
X0621487D02*
Y0052965D01*
X0625486Y0046966D01*
Y0052965D01*
X0631484Y0051965D02*
X0630484Y0052965D01*
X0628484D01*
X0627485Y0051965D01*
Y0050965D01*
X0628484Y0049966D01*
X0630484D01*
X0631484Y0048966D01*
Y0047966D01*
X0630484Y0046966D01*
X0628484D01*
X0627485Y0047966D01*
X0633483Y0052965D02*
X0637482D01*
X0635482D01*
Y0046966D01*
X0639481D02*
Y0052965D01*
X0642480D01*
X0643480Y0051965D01*
Y0049966D01*
X0642480Y0048966D01*
X0639481D01*
X0641480D02*
X0643480Y0046966D01*
X0645479Y0052965D02*
Y0047966D01*
X0646479Y0046966D01*
X0648478D01*
X0649478Y0047966D01*
Y0052965D01*
X0651477Y0046966D02*
Y0052965D01*
X0653476Y0050965D01*
X0655476Y0052965D01*
Y0046966D01*
X0661474Y0052965D02*
X0657475D01*
Y0046966D01*
X0661474D01*
X0657475Y0049966D02*
X0659474D01*
X0663473Y0046966D02*
Y0052965D01*
X0667472Y0046966D01*
Y0052965D01*
X0669471D02*
X0673470D01*
X0671471D01*
Y0046966D01*
X0679468Y0051965D02*
X0678468Y0052965D01*
X0676469D01*
X0675469Y0051965D01*
Y0050965D01*
X0676469Y0049966D01*
X0678468D01*
X0679468Y0048966D01*
Y0047966D01*
X0678468Y0046966D01*
X0676469D01*
X0675469Y0047966D01*
X0294000Y0073498D02*
X0297999D01*
X0295999D01*
Y0067500D01*
X0299998Y0073498D02*
X0301997D01*
X0300998D01*
Y0067500D01*
X0299998D01*
X0301997D01*
X0304996Y0073498D02*
Y0067500D01*
X0307996D01*
X0308995Y0068500D01*
Y0072498D01*
X0307996Y0073498D01*
X0304996D01*
X0317992Y0067500D02*
Y0073498D01*
X0319992D02*
Y0067500D01*
X0316993Y0071499D02*
X0319992D01*
X0320991D01*
X0316993Y0069499D02*
X0320991D01*
X0322991Y0071499D02*
X0323990D01*
Y0070499D01*
X0322991D01*
Y0071499D01*
Y0068500D02*
X0323990D01*
Y0067500D01*
X0322991D01*
Y0068500D01*
X0348550Y0073498D02*
X0352549D01*
X0350549D01*
Y0067500D01*
X0354548Y0073498D02*
X0356547D01*
X0355548D01*
Y0067500D01*
X0354548D01*
X0356547D01*
X0359546Y0073498D02*
Y0067500D01*
X0362545D01*
X0363545Y0068500D01*
Y0072498D01*
X0362545Y0073498D01*
X0359546D01*
X0365545Y0067500D02*
Y0071499D01*
X0367544Y0073498D01*
X0369543Y0071499D01*
Y0067500D01*
Y0070499D01*
X0365545D01*
X0371543D02*
X0375541D01*
X0377541Y0072498D02*
X0378540Y0073498D01*
X0380540D01*
X0381539Y0072498D01*
Y0068500D01*
X0380540Y0067500D01*
X0378540D01*
X0377541Y0068500D01*
Y0072498D01*
X0383539Y0067500D02*
X0385538D01*
X0384538D01*
Y0073498D01*
X0383539Y0072498D01*
X0392536Y0073498D02*
X0390536Y0072498D01*
X0388537Y0070499D01*
Y0068500D01*
X0389537Y0067500D01*
X0391536D01*
X0392536Y0068500D01*
Y0069499D01*
X0391536Y0070499D01*
X0388537D01*
X0394535Y0072498D02*
X0395535Y0073498D01*
X0397534D01*
X0398534Y0072498D01*
Y0068500D01*
X0397534Y0067500D01*
X0395535D01*
X0394535Y0068500D01*
Y0072498D01*
X0404532Y0073498D02*
X0402532Y0072498D01*
X0400533Y0070499D01*
Y0068500D01*
X0401533Y0067500D01*
X0403532D01*
X0404532Y0068500D01*
Y0069499D01*
X0403532Y0070499D01*
X0400533D01*
G54D28*
X1488555Y0833900D02*
X1488655Y0834000D01*
G54D49*
X0319779Y0262340D02*
D03*
Y0254860D02*
D03*
X0310331Y0258600D02*
D03*
X0319779Y0517340D02*
D03*
Y0509860D02*
D03*
X0310331Y0513600D02*
D03*
X0319779Y0767340D02*
D03*
Y0759860D02*
D03*
X0310331Y0763600D02*
D03*
G54D57*
X1455355Y0928800D02*
D03*
X1457255Y0163500D02*
D03*
X0181055Y0933300D02*
D03*
X1339596Y0920516D02*
D03*
G54D73*
X0846655Y0917400D02*
D03*
X0854655D02*
D03*
G54D74*
X0800353Y0339550D02*
D03*
Y0333400D02*
D03*
X0800249Y0554550D02*
D03*
Y0548250D02*
D03*
X0795255Y0554550D02*
D03*
Y0548250D02*
D03*
Y0339550D02*
D03*
Y0333250D02*
D03*
G54D76*
X1153534Y0237105D02*
D03*
X1147235D02*
D03*
X1153534Y0648318D02*
D03*
X1147235D02*
D03*
X1153534Y0442712D02*
D03*
X1147235D02*
D03*
G54D80*
X0398755Y0687691D02*
D03*
Y0699109D02*
D03*
Y0437691D02*
D03*
Y0449109D02*
D03*
Y0182691D02*
D03*
Y0194109D02*
D03*
G54D134*
X1365455Y0877600D02*
D03*
X0893954Y0765907D02*
D03*
Y0706852D02*
D03*
X0599255Y0375243D02*
D03*
Y0355557D02*
D03*
X0736255Y0862400D02*
D03*
X1340355Y0811800D02*
D03*
Y0776400D02*
D03*
X0599255Y0880243D02*
D03*
Y0860557D02*
D03*
Y0631243D02*
D03*
Y0611557D02*
D03*
X0980625Y0932300D02*
D03*
X0942588Y0932700D02*
D03*
X1017255Y0869400D02*
D03*
X0764355Y0873300D02*
D03*
X0791785Y0582799D02*
D03*
X0732730D02*
D03*
X0791785Y0377193D02*
D03*
X0732730D02*
D03*
X0806685Y0171587D02*
D03*
X0747630D02*
D03*
X0893954Y0354694D02*
D03*
Y0295639D02*
D03*
Y0560301D02*
D03*
Y0501246D02*
D03*
X1112755Y0274921D02*
D03*
Y0480527D02*
D03*
Y0686133D02*
D03*
G54D138*
X0520255Y0385719D02*
D03*
Y0890719D02*
D03*
Y0641219D02*
D03*
G54D153*
X1094609Y0251194D02*
D03*
X1084609D02*
D03*
X1094716Y0665601D02*
D03*
X1084716D02*
D03*
X1094609Y0456800D02*
D03*
X1084609D02*
D03*
G54D169*
X0795255Y0318876D02*
D03*
Y0316876D02*
D03*
X0793255Y0532400D02*
D03*
Y0530400D02*
D03*
G54D173*
X1168855Y0253200D02*
X1183455Y0238600D01*
X1096855Y0258947D02*
X1110902Y0244900D01*
X1131055Y0670600D02*
X1183155D01*
X1183455Y0234100D02*
Y0238600D01*
Y0231900D02*
Y0234100D01*
Y0229700D02*
Y0231900D01*
Y0219600D02*
Y0229700D01*
X1105509Y0457700D02*
X1177755D01*
X1144643Y0244900D02*
X1152943Y0253200D01*
X1110902Y0244900D02*
X1144643D01*
X1096855Y0258947D02*
Y0262100D01*
X1104716Y0665601D02*
X1126056D01*
X1131055Y0670600D01*
X1186455Y0426300D02*
Y0437600D01*
X1172548Y0628506D02*
X1190661D01*
X1195855Y0633700D01*
X1172548Y0422899D02*
X1183054D01*
X1186455Y0426300D01*
X1152943Y0253200D02*
X1168855D01*
X1172548Y0217293D02*
X1181148D01*
X1183455Y0219600D01*
X1183155Y0670600D02*
X1195855Y0657900D01*
X1261695Y0641655D02*
X1273585D01*
X1291695D02*
X1303585D01*
X1454680Y0640855D02*
X1466570D01*
X1424680D02*
X1436570D01*
X1454380Y0692645D02*
X1466270D01*
X1424380D02*
X1436270D01*
X1291695Y0684845D02*
X1303585D01*
X1261695D02*
X1273585D01*
X1243585Y0669670D02*
Y0684845D01*
Y0669670D02*
X1247407Y0665848D01*
X1263755D01*
X1243585Y0662026D02*
X1247407Y0665848D01*
X1243585Y0641655D02*
Y0662026D01*
X1321695Y0669540D02*
Y0684845D01*
X1318003Y0665848D02*
X1321695Y0669540D01*
X1303125Y0665848D02*
X1318003D01*
X1321695Y0662156D01*
Y0641655D02*
Y0662156D01*
X1484380Y0674225D02*
Y0692645D01*
X1476003Y0665848D02*
X1484380Y0674225D01*
X1443410Y0665848D02*
X1476003D01*
X1484680Y0657171D01*
Y0640855D02*
Y0657171D01*
X1321695Y0259207D02*
Y0279708D01*
X1318003Y0283400D02*
X1321695Y0279708D01*
X1303125Y0283400D02*
X1318003D01*
X1321695Y0287092D01*
Y0302397D01*
X1243585Y0259207D02*
Y0279578D01*
X1247407Y0283400D01*
X1263755D01*
X1243585Y0287222D02*
X1247407Y0283400D01*
X1243585Y0287222D02*
Y0302397D01*
X1484680Y0258407D02*
Y0274723D01*
X1476003Y0283400D02*
X1484680Y0274723D01*
X1443410Y0283400D02*
X1476003D01*
X1484380Y0291777D01*
Y0310197D01*
X1261695Y0302397D02*
X1273585D01*
X1291695D02*
X1303585D01*
X1261695Y0259207D02*
X1273585D01*
X1291695D02*
X1303585D01*
X1454380Y0310197D02*
X1466270D01*
X1424380D02*
X1436270D01*
X1454680Y0258407D02*
X1466570D01*
X1424680D02*
X1436570D01*
X1186455Y0437600D02*
Y0449000D01*
X1104609Y0456800D02*
X1105509Y0457700D01*
X1177755D02*
X1186455Y0449000D01*
X1195855Y0633700D02*
Y0643900D01*
Y0657900D01*
X1499155Y0827900D02*
X1499255Y0827800D01*
Y0819200D02*
X1499355Y0819100D01*
X1060859Y0438004D02*
Y0449899D01*
X1056255Y0433400D02*
X1060859Y0438004D01*
X1037255Y0433400D02*
X1056255D01*
X1034359Y0430504D02*
X1037255Y0433400D01*
X1034359Y0422899D02*
Y0430504D01*
X0937981Y0422899D02*
Y0430504D01*
X0940877Y0433400D01*
X0959877D01*
X0964481Y0438004D01*
Y0449899D01*
X0841603Y0422899D02*
Y0430504D01*
X0844499Y0433400D01*
X0863499D01*
X0868103Y0438004D01*
Y0449899D01*
X0745225Y0430504D02*
X0748121Y0433400D01*
X0767121D01*
X0771725Y0438004D01*
Y0449899D01*
X0937981Y0628506D02*
Y0636110D01*
X0940877Y0639006D01*
X0959877D01*
X0964481Y0643610D01*
Y0655506D01*
X1034359Y0628506D02*
Y0636110D01*
X1037255Y0639006D01*
X1056255D01*
X1060859Y0643610D01*
Y0655506D01*
X0745225Y0628506D02*
Y0636110D01*
X0748121Y0639006D01*
X0767121D01*
X0771725Y0643610D01*
Y0655506D01*
X0841603Y0628506D02*
Y0636110D01*
X0844499Y0639006D01*
X0863499D01*
X0868103Y0643610D01*
Y0655506D01*
X1034359Y0217293D02*
Y0224898D01*
X1037255Y0227794D01*
X1056255D01*
X1060859Y0232398D01*
Y0244293D01*
X0937981Y0217293D02*
Y0224898D01*
X0940877Y0227794D01*
X0959877D01*
X0964481Y0232398D01*
Y0244293D01*
X0841603Y0217293D02*
Y0224898D01*
X0844499Y0227794D01*
X0863499D01*
X0868103Y0232398D01*
Y0244293D01*
X0745225Y0217293D02*
Y0224898D01*
X0748121Y0227794D01*
X0767121D01*
X0771725Y0232398D01*
Y0244293D01*
X0745225Y0422899D02*
Y0430504D01*
G54D175*
X1102548Y0621107D02*
Y0638693D01*
X0813079Y0734145D02*
Y0776988D01*
X1196148Y0612193D02*
X1210955Y0627000D01*
Y0669600D01*
X0251055Y0207708D02*
X0258932Y0199831D01*
X0251055Y0207708D02*
Y0387200D01*
X0620255Y0486400D02*
Y0654400D01*
Y0473400D02*
Y0486400D01*
X0627255Y0378100D02*
Y0385200D01*
Y0371000D02*
Y0378100D01*
X0620055Y0699400D02*
Y0706500D01*
Y0692300D02*
Y0699400D01*
X0627255Y0650500D02*
Y0657600D01*
Y0643400D02*
Y0650500D01*
Y0452750D02*
Y0459850D01*
X0293255Y0914400D02*
X0653555D01*
X0274755Y0895900D02*
X0293255Y0914400D01*
X0274755Y0841000D02*
Y0895900D01*
X0252955Y0819200D02*
X0274755Y0841000D01*
X0252955Y0819200D02*
X0252955Y0666400D01*
X0807817Y0782250D02*
X0813079Y0776988D01*
X0353454Y0424198D02*
Y0443000D01*
X0273255Y0417400D02*
Y0448900D01*
X0244455Y0477700D02*
X0273255Y0448900D01*
X0252955Y0542500D02*
Y0666400D01*
X0244455Y0534000D02*
X0252955Y0542500D01*
X0244455Y0477700D02*
Y0534000D01*
X0275255Y0666400D02*
X0340255D01*
X0353454Y0679599D01*
Y0693000D01*
X0813079Y0776988D02*
X0813255Y0776812D01*
X0813079Y0734145D02*
X0819255Y0727969D01*
X1102548Y0422899D02*
Y0432899D01*
Y0413107D02*
Y0422899D01*
X0620255Y0312400D02*
X0634255D01*
X0627255Y0385200D02*
Y0452750D01*
X0653555Y0914400D02*
X0693955Y0874000D01*
X0704255Y0502400D02*
X0725255Y0523400D01*
X0535855Y0717900D02*
X0607255D01*
X0617255D01*
X0607255D02*
X0612255Y0712900D01*
Y0713400D02*
X0612755D01*
X0617255Y0717900D01*
X0620255Y0463200D02*
Y0473400D01*
Y0401200D02*
Y0463200D01*
X0615255Y0468400D02*
X0620255Y0473400D01*
X0615655Y0467800D02*
X0620255Y0463200D01*
X0612255Y0662400D02*
X0620255Y0654400D01*
X0612255Y0662400D02*
Y0712900D01*
X0620055Y0664800D02*
Y0692300D01*
Y0664800D02*
X0627255Y0657600D01*
X1102548Y0413107D02*
X1109068Y0406587D01*
X1191155D01*
X0647255Y0502400D02*
X0704255D01*
X1111462Y0612193D02*
X1196148D01*
X1102548Y0621107D02*
X1111462Y0612193D01*
X1191155Y0406587D02*
X1203055Y0418487D01*
Y0442700D01*
X1102548Y0217293D02*
Y0227293D01*
X0251055Y0387200D02*
X0261155Y0397300D01*
X0693955Y0874000D02*
X0730355D01*
X0535755Y0467800D02*
X0615655D01*
X1194863Y0865692D02*
X1199459Y0861096D01*
X1204055Y0820700D02*
Y0856500D01*
X1200451Y0860104D02*
X1204055Y0856500D01*
Y0814200D02*
Y0820700D01*
Y0807700D02*
Y0814200D01*
X0737455Y0874000D02*
X0744555D01*
X0730355D02*
X0737455D01*
X0627255Y0459850D02*
Y0466950D01*
X0617255Y0717900D02*
X0639755D01*
X0652955Y0731100D01*
G54D178*
X0146100Y0794456D02*
D03*
X0169211D02*
D03*
Y0771345D02*
D03*
X0146100D02*
D03*
X0169210Y0258956D02*
D03*
Y0235846D02*
D03*
X0146100D02*
D03*
Y0258956D02*
D03*
X0169710Y0572856D02*
D03*
Y0549746D02*
D03*
X0146600D02*
D03*
Y0572856D02*
D03*
X0169211Y0378156D02*
D03*
Y0355045D02*
D03*
X0146100D02*
D03*
Y0378156D02*
D03*
X1236600Y0193555D02*
D03*
X1259710D02*
D03*
Y0170445D02*
D03*
X1236600D02*
D03*
X1374555Y0193510D02*
D03*
X1397665D02*
D03*
Y0170400D02*
D03*
X1374555D02*
D03*
G54D179*
X0157656Y0782900D02*
D03*
X1263255Y0538400D02*
D03*
X0157655Y0247401D02*
D03*
X0158155Y0561301D02*
D03*
X0157656Y0366600D02*
D03*
X1248155Y0182000D02*
D03*
X1386110Y0181955D02*
D03*
X1263755Y0665848D02*
D03*
Y0283400D02*
D03*
X1443410D02*
D03*
Y0665848D02*
D03*
Y0538400D02*
D03*
Y0410900D02*
D03*
X1263755D02*
D03*
G54D180*
X1375455Y0877600D02*
D03*
X0746255Y0862400D02*
D03*
X0970625Y0932300D02*
D03*
X1027255Y0869400D02*
D03*
X1122755Y0274921D02*
D03*
Y0480527D02*
D03*
Y0686133D02*
D03*
G54D181*
X1405455Y0877543D02*
D03*
G54D182*
Y0857857D02*
D03*
X0479940Y0421291D02*
D03*
X0440570D02*
D03*
X0679040Y0848110D02*
D03*
X0639670D02*
D03*
X0479540Y0671400D02*
D03*
X0440170D02*
D03*
X0479153Y0166400D02*
D03*
X0439783D02*
D03*
G54D183*
X0868103Y0244293D02*
D03*
X0846603D02*
D03*
X0771725Y0655506D02*
D03*
X0750225D02*
D03*
X0771725Y0449899D02*
D03*
X0750225D02*
D03*
X0771725Y0244293D02*
D03*
X0750225D02*
D03*
X0964481Y0655506D02*
D03*
X0942981D02*
D03*
X1060859D02*
D03*
X1039359D02*
D03*
X0964481Y0449899D02*
D03*
X0942981D02*
D03*
X1060859D02*
D03*
X1039359D02*
D03*
X0964481Y0244293D02*
D03*
X0942981D02*
D03*
X1060859D02*
D03*
X1039359D02*
D03*
X0868103Y0655506D02*
D03*
X0846603D02*
D03*
X0868103Y0449899D02*
D03*
X0846603D02*
D03*
G54D184*
X0825103Y0244293D02*
D03*
X0728725Y0655506D02*
D03*
Y0449899D02*
D03*
Y0244293D02*
D03*
X0921481Y0655506D02*
D03*
X1017859D02*
D03*
X0921481Y0449899D02*
D03*
X1017859D02*
D03*
X0921481Y0244293D02*
D03*
X1017859D02*
D03*
X0825103Y0655506D02*
D03*
Y0449899D02*
D03*
G54D185*
X1288255Y0757618D02*
D03*
X1278255D02*
D03*
X1268255D02*
D03*
X1495255Y0739400D02*
D03*
X1381255D02*
D03*
G54D186*
X1298255Y0757618D02*
D03*
X1485255Y0739400D02*
D03*
X1391255D02*
D03*
G54D187*
X0278255Y0376600D02*
D03*
Y0214400D02*
D03*
Y0792900D02*
D03*
X0278755Y0571300D02*
D03*
G54D188*
X0208255Y0366600D02*
D03*
Y0204400D02*
D03*
Y0782900D02*
D03*
X0208755Y0561300D02*
D03*
G54D189*
X0263255Y0426600D02*
D03*
X0223255D02*
D03*
X0263255Y0264400D02*
D03*
X0223255D02*
D03*
X0263255Y0842900D02*
D03*
X0223255D02*
D03*
X0263755Y0621300D02*
D03*
X0223755D02*
D03*
G54D190*
X1302625Y0538400D02*
D03*
X1303125Y0665848D02*
D03*
Y0283400D02*
D03*
X1404040D02*
D03*
Y0665848D02*
D03*
Y0538400D02*
D03*
Y0410900D02*
D03*
X1303125D02*
D03*
G54D191*
X1104609Y0251194D02*
D03*
X1104716Y0665601D02*
D03*
X1104609Y0456800D02*
D03*
G54D192*
X1296355Y0933300D02*
D03*
X0703322Y0619400D02*
D03*
X0353231Y0835526D02*
D03*
X1081255Y0619400D02*
D03*
X0894255D02*
D03*
X1081255Y0413400D02*
D03*
X0894255D02*
D03*
X0703255D02*
D03*
X1081255Y0208400D02*
D03*
X0894255D02*
D03*
X0703255D02*
D03*
X1266155Y0927500D02*
D03*
X1235955Y0792200D02*
D03*
X0308255Y0196455D02*
D03*
Y0448600D02*
D03*
X0308334Y0698600D02*
D03*
X0348255Y0352400D02*
D03*
Y0599300D02*
D03*
G54D193*
X0884188Y0226282D02*
D03*
X0703322D02*
D03*
X1081603Y0637495D02*
D03*
X0900737D02*
D03*
X0884188D02*
D03*
X0703322D02*
D03*
X1081603Y0431889D02*
D03*
X0900737D02*
D03*
X0884188D02*
D03*
X0703322D02*
D03*
X1081603Y0226282D02*
D03*
X0900737D02*
D03*
G54D194*
X1339596Y0902799D02*
D03*
G54D195*
X1069251Y0896714D02*
D03*
X1172400Y0902620D02*
D03*
X0788148Y0896714D02*
D03*
X0998385Y0902619D02*
D03*
G54D196*
X0778897Y0896714D02*
D03*
X1007637D02*
D03*
G54D197*
X0775255Y0701400D02*
D03*
X0775691Y0496294D02*
D03*
X0775225Y0290400D02*
D03*
G54D198*
X0765255Y0701400D02*
D03*
X0755255D02*
D03*
Y0751400D02*
D03*
X0765255D02*
D03*
X0775255D02*
D03*
X0765691Y0496294D02*
D03*
X0755691D02*
D03*
Y0546294D02*
D03*
X0765691D02*
D03*
X0775691D02*
D03*
X0765225Y0290400D02*
D03*
X0755225D02*
D03*
Y0340400D02*
D03*
X0765225D02*
D03*
X0775225D02*
D03*
G54D199*
X0805255Y0737650D02*
D03*
Y0730150D02*
D03*
Y0722650D02*
D03*
Y0715150D02*
D03*
X0805691Y0532544D02*
D03*
Y0525044D02*
D03*
Y0517544D02*
D03*
Y0510044D02*
D03*
X0805225Y0326650D02*
D03*
Y0319150D02*
D03*
Y0311650D02*
D03*
Y0304150D02*
D03*
G54D200*
X0520255Y0238081D02*
D03*
Y0743081D02*
D03*
Y0493581D02*
D03*
G54D201*
X0894000Y0758385D02*
D03*
X0781943Y0377193D02*
D03*
X0796843Y0171587D02*
D03*
X0781943Y0582799D02*
D03*
X0894000Y0347172D02*
D03*
Y0552779D02*
D03*
G54D202*
Y0719015D02*
D03*
Y0307802D02*
D03*
Y0513409D02*
D03*
G54D203*
X0374035Y0288400D02*
D03*
X0446476D02*
D03*
X0374035Y0793400D02*
D03*
X0446476D02*
D03*
X0374035Y0543400D02*
D03*
X0446476D02*
D03*
G54D204*
X0663688Y0288500D02*
D03*
X0592822D02*
D03*
X0663688Y0793900D02*
D03*
X0592822D02*
D03*
X0663688Y0545400D02*
D03*
X0592822D02*
D03*
G54D205*
X1340355Y0801800D02*
D03*
Y0786400D02*
D03*
X0942588Y0922700D02*
D03*
X0764355Y0863300D02*
D03*
G54D206*
X0742572Y0377193D02*
D03*
X0757473Y0171587D02*
D03*
X0742572Y0582799D02*
D03*
G54D207*
X0151624Y0919401D02*
D03*
X0273449Y0495800D02*
D03*
X0150094Y0173900D02*
D03*
X0712856Y0174900D02*
D03*
X0712855Y0919400D02*
D03*
X1200402Y0256000D02*
D03*
X1485572Y0174900D02*
D03*
X1200403Y0919400D02*
D03*
X1485072D02*
D03*
G54D208*
X0851955Y0615006D02*
D03*
X0948333D02*
D03*
X1044711D02*
D03*
X1044633Y0409400D02*
D03*
X0948255D02*
D03*
X0851955D02*
D03*
X1044255Y0204400D02*
D03*
X0948255D02*
D03*
X0851255D02*
D03*
X0755577Y0615006D02*
D03*
Y0409400D02*
D03*
Y0203794D02*
D03*
G54D209*
X0835855Y0655500D02*
D03*
X0857355D02*
D03*
X0932233D02*
D03*
X1050111D02*
D03*
X1028611D02*
D03*
X0760977D02*
D03*
X0739477D02*
D03*
Y0449894D02*
D03*
X0760977D02*
D03*
X1028611D02*
D03*
X1050111D02*
D03*
X0932233D02*
D03*
X0953733D02*
D03*
X0857355D02*
D03*
X0835855D02*
D03*
X0739477Y0244287D02*
D03*
X0760977D02*
D03*
X1028611D02*
D03*
X1050111D02*
D03*
X0932233D02*
D03*
X0953733D02*
D03*
X0857355D02*
D03*
X0835855D02*
D03*
X0953733Y0655500D02*
D03*
G54D210*
X0894255Y0698400D02*
D03*
Y0492794D02*
D03*
X0893954Y0568400D02*
D03*
Y0363400D02*
D03*
X0894255Y0287187D02*
D03*
G54D211*
X1478006Y0846074D02*
D03*
Y0840956D02*
D03*
X1480250Y0843515D02*
D03*
X1475762D02*
D03*
X1471274D02*
D03*
X1466786D02*
D03*
X1469030Y0840956D02*
D03*
Y0846074D02*
D03*
X1473518D02*
D03*
Y0840956D02*
D03*
G54D212*
X1210955Y0669600D02*
D03*
X0652955Y0731100D02*
D03*
X0645255Y0511400D02*
D03*
X0634255Y0312400D02*
D03*
X0725255Y0523400D02*
D03*
X0620255Y0486400D02*
D03*
Y0312400D02*
D03*
X0647255Y0502400D02*
D03*
X1203055Y0442700D02*
D03*
X0535655Y0212700D02*
D03*
X0535755Y0467800D02*
D03*
X0535855Y0717900D02*
D03*
G54D213*
X0935786Y0899400D02*
D03*
X0939355Y0898600D02*
D03*
X1005299Y0812100D02*
D03*
Y0816500D02*
D03*
X1071352Y0812600D02*
D03*
Y0817000D02*
D03*
X0309311Y0437250D02*
D03*
X0856996Y0779600D02*
D03*
X0851796D02*
D03*
X0828429D02*
D03*
X0833629D02*
D03*
X0969855Y0779100D02*
D03*
X0975055D02*
D03*
X0954555Y0916700D02*
D03*
X0866455Y0914800D02*
D03*
X0861555Y0915787D02*
D03*
X0838855Y0748800D02*
D03*
X0834455D02*
D03*
X0847596Y0850200D02*
D03*
X0715569Y0865586D02*
D03*
X0852696Y0850200D02*
D03*
X0711169Y0865586D02*
D03*
X0965655Y0849700D02*
D03*
X0734455Y0849800D02*
D03*
X0970755Y0849700D02*
D03*
X0734455Y0854200D02*
D03*
X1092255Y0406400D02*
D03*
X1088737Y0613435D02*
D03*
X1093255Y0613400D02*
D03*
X0796255Y0530400D02*
D03*
X0232255Y0441599D02*
D03*
X0246255Y0690400D02*
D03*
X0317425Y0690524D02*
D03*
X0334200Y0448855D02*
D03*
X0312255Y0184112D02*
D03*
X0334200Y0698855D02*
D03*
X0235855Y0404000D02*
D03*
X1176153Y0676900D02*
D03*
X0886955Y0793100D02*
D03*
X0257955Y0909700D02*
D03*
X0974395Y0879114D02*
D03*
X0966255Y0878900D02*
D03*
X0952055Y0878000D02*
D03*
X1172255Y0662400D02*
D03*
X1176255Y0666400D02*
D03*
X1170255Y0658400D02*
D03*
X0793255Y0527400D02*
D03*
X1090255Y0648400D02*
D03*
X1131809Y0918534D02*
D03*
X1144455Y0461700D02*
D03*
X1171255Y0666000D02*
D03*
X1153355Y0666300D02*
D03*
X0936055Y0878800D02*
D03*
X0999755Y0836200D02*
D03*
X1010325Y0844900D02*
D03*
X1059855Y0843100D02*
D03*
X0954555Y0870300D02*
D03*
X0956418Y0866854D02*
D03*
X1137955Y0660000D02*
D03*
X1127255Y0653400D02*
D03*
X1150255Y0676600D02*
D03*
X1147255Y0663800D02*
D03*
X1144555Y0679400D02*
D03*
X1140455D02*
D03*
X1135155Y0683100D02*
D03*
X1132355Y0676600D02*
D03*
X0943655Y0898300D02*
D03*
X0945235Y0913980D02*
D03*
X0229455Y0682400D02*
D03*
X0232755Y0687600D02*
D03*
X0247755Y0920000D02*
D03*
X0244455Y0916700D02*
D03*
X0250555Y0912700D02*
D03*
X0253855Y0916000D02*
D03*
X0261355Y0913000D02*
D03*
X0253755Y0404000D02*
D03*
X1285785Y0815822D02*
D03*
X1194955Y0873600D02*
D03*
X0890555Y0925500D02*
D03*
X1033055Y0778500D02*
D03*
X1028655D02*
D03*
X0810755Y0353600D02*
D03*
X0813955Y0357400D02*
D03*
X0812855Y0918000D02*
D03*
X0809802Y0914954D02*
D03*
X0819154Y0918000D02*
D03*
X0816101Y0914954D02*
D03*
X0805150Y0915500D02*
D03*
X0979841Y0914800D02*
D03*
X0957794D02*
D03*
X1169355Y0253300D02*
D03*
X1166595Y0877640D02*
D03*
X0319155Y0242900D02*
D03*
Y0497900D02*
D03*
Y0747900D02*
D03*
X0334200Y0193855D02*
D03*
X0324705Y0262250D02*
D03*
X0338695Y0262451D02*
D03*
X1286055Y0784000D02*
D03*
X0910355Y0877600D02*
D03*
X0812855Y0878293D02*
D03*
X0838052D02*
D03*
X0803406D02*
D03*
X0825553Y0914000D02*
D03*
X0904293D02*
D03*
X0822304Y0878293D02*
D03*
X0917972Y0866854D02*
D03*
X0323945Y0254910D02*
D03*
Y0509910D02*
D03*
X0338695Y0517451D02*
D03*
X0324705Y0517250D02*
D03*
X0323945Y0759910D02*
D03*
X0338695Y0767451D02*
D03*
X0324705Y0767250D02*
D03*
X1172755Y0452600D02*
D03*
X1167755Y0247287D02*
D03*
X0894355Y0916900D02*
D03*
X1079855Y0763700D02*
D03*
X1071230Y0761400D02*
D03*
X0866495Y0878500D02*
D03*
X0847655Y0895900D02*
D03*
X0847155Y0862100D02*
D03*
X0835155Y0863300D02*
D03*
X0995455Y0798200D02*
D03*
X0925955Y0797300D02*
D03*
X0996835Y0843920D02*
D03*
X0903609Y0866854D02*
D03*
X0860055Y0863800D02*
D03*
X0881255Y0797300D02*
D03*
X1125055Y0266200D02*
D03*
X0838155Y0914800D02*
D03*
X0841254Y0917401D02*
D03*
X0834955Y0917400D02*
D03*
X0832255Y0920800D02*
D03*
X0951655Y0779100D02*
D03*
X0946455D02*
D03*
G54D214*
X0701255Y0716400D02*
D03*
Y0720400D02*
D03*
X0698255Y0723400D02*
D03*
X0810255Y0702406D02*
D03*
Y0706394D02*
D03*
X0698255Y0713400D02*
D03*
X0830249Y0707400D02*
D03*
X0826261D02*
D03*
X0148846Y0665800D02*
D03*
X0173901D02*
D03*
X0148346Y0469100D02*
D03*
X0173401D02*
D03*
X0334301Y0655300D02*
D03*
X0309246D02*
D03*
X0306545Y0802950D02*
D03*
Y0785600D02*
D03*
Y0536900D02*
D03*
Y0280400D02*
D03*
X0341216Y0835700D02*
D03*
X0336746Y0599300D02*
D03*
X0627255Y0657600D02*
D03*
Y0650500D02*
D03*
X0819063Y0780860D02*
D03*
X0872794Y0777339D02*
D03*
X0337905Y0352400D02*
D03*
X0337527Y0410005D02*
D03*
X0340255Y0405400D02*
D03*
X1065255Y0863300D02*
D03*
X0877355Y0782100D02*
D03*
X0438945Y0682100D02*
D03*
X0438255Y0431889D02*
D03*
X0438614Y0177700D02*
D03*
X0813255Y0776812D02*
D03*
X0799255Y0665400D02*
D03*
X0922402Y0822346D02*
D03*
X0929855Y0862800D02*
D03*
X1096855Y0262100D02*
D03*
X1091588Y0686133D02*
D03*
X1269355Y0776900D02*
D03*
Y0784000D02*
D03*
Y0791100D02*
D03*
X0330155Y0427900D02*
D03*
X0325555Y0431500D02*
D03*
X0330155Y0172900D02*
D03*
X0325555Y0176500D02*
D03*
X1204055Y0856500D02*
D03*
X1199459Y0861096D02*
D03*
X1194863Y0865692D02*
D03*
X1204055Y0807700D02*
D03*
Y0814200D02*
D03*
Y0820700D02*
D03*
X0983655Y0818100D02*
D03*
X0919655Y0935700D02*
D03*
X0919155Y0928400D02*
D03*
X1247155Y0806700D02*
D03*
Y0799600D02*
D03*
Y0792500D02*
D03*
X0744555Y0874000D02*
D03*
X0737455D02*
D03*
X0730355D02*
D03*
X1032155Y0887000D02*
D03*
X1039255D02*
D03*
X1046355D02*
D03*
X0233255Y0488700D02*
D03*
Y0495800D02*
D03*
Y0502900D02*
D03*
X0263255Y0715700D02*
D03*
Y0708600D02*
D03*
Y0701500D02*
D03*
X1203368Y0644587D02*
D03*
X1195855Y0426400D02*
D03*
X1186455Y0426300D02*
D03*
X1195855Y0633700D02*
D03*
X0873055Y0829700D02*
D03*
X1043176Y0798589D02*
D03*
X1038176D02*
D03*
X1045105Y0789977D02*
D03*
X1176655Y0856600D02*
D03*
X1170155D02*
D03*
X0406955Y0448000D02*
D03*
X0324655Y0682400D02*
D03*
X0310331Y0509224D02*
D03*
X0402255Y0682100D02*
D03*
X0356855Y0786900D02*
D03*
Y0792900D02*
D03*
Y0798900D02*
D03*
X0306545Y0797100D02*
D03*
Y0791100D02*
D03*
X0356855Y0536900D02*
D03*
Y0542900D02*
D03*
Y0548900D02*
D03*
X0306545Y0554700D02*
D03*
Y0548700D02*
D03*
Y0542700D02*
D03*
Y0286600D02*
D03*
Y0292600D02*
D03*
X0356855Y0293900D02*
D03*
Y0287900D02*
D03*
Y0281900D02*
D03*
X0844055Y0723700D02*
D03*
Y0728700D02*
D03*
Y0521294D02*
D03*
Y0315687D02*
D03*
Y0310687D02*
D03*
X1131254Y0252736D02*
D03*
X0347755Y0193698D02*
D03*
X0353454Y0188000D02*
D03*
X0349200Y0230355D02*
D03*
X0354898Y0236054D02*
D03*
X0356055Y0242700D02*
D03*
X0374555D02*
D03*
X0380555D02*
D03*
X0386555D02*
D03*
X0530195Y0192160D02*
D03*
X0532455Y0206500D02*
D03*
X0491555Y0187600D02*
D03*
X0509255Y0189300D02*
D03*
X0430755Y0201900D02*
D03*
Y0195300D02*
D03*
Y0188700D02*
D03*
X0406955Y0193000D02*
D03*
X0409255Y0199100D02*
D03*
X0402255Y0177100D02*
D03*
X0390455Y0182700D02*
D03*
X0377655Y0207000D02*
D03*
X0366755Y0209800D02*
D03*
X0382955Y0226900D02*
D03*
X0382105Y0218900D02*
D03*
X0376455Y0216000D02*
D03*
X1211955Y0820700D02*
D03*
Y0814200D02*
D03*
Y0807700D02*
D03*
X1324255Y0861500D02*
D03*
X1216155Y0861200D02*
D03*
Y0854700D02*
D03*
Y0848200D02*
D03*
X1242155Y0848800D02*
D03*
Y0855300D02*
D03*
X1317255Y0887900D02*
D03*
X1309725Y0896500D02*
D03*
Y0920516D02*
D03*
X1317255Y0911916D02*
D03*
X1172755Y0814700D02*
D03*
X1179455Y0809400D02*
D03*
X1163655Y0856600D02*
D03*
X1157155D02*
D03*
X1158755Y0831330D02*
D03*
X1167455Y0838373D02*
D03*
X1304980Y0789425D02*
D03*
X1300080D02*
D03*
X1298655Y0821200D02*
D03*
X1303555D02*
D03*
X1050855Y0847100D02*
D03*
X1049773Y0839517D02*
D03*
X1049673Y0833217D02*
D03*
X1055255Y0831500D02*
D03*
X1064425Y0805101D02*
D03*
X1021425Y0831601D02*
D03*
X1012225Y0804700D02*
D03*
X1007306Y0779277D02*
D03*
X0995376Y0781801D02*
D03*
X0991425Y0832020D02*
D03*
X0956255Y0830500D02*
D03*
X0933525Y0845200D02*
D03*
Y0829200D02*
D03*
X0929968Y0820667D02*
D03*
X0804343Y0822846D02*
D03*
X0798843Y0817346D02*
D03*
X0818409Y0821167D02*
D03*
X0811909D02*
D03*
X0842896Y0849030D02*
D03*
X0815466Y0829700D02*
D03*
Y0845700D02*
D03*
X0838196Y0831000D02*
D03*
X0807817Y0782250D02*
D03*
X0176055Y0408700D02*
D03*
X0176555Y0605400D02*
D03*
X0306545Y0298600D02*
D03*
X0770835Y0834955D02*
D03*
X0757855Y0836455D02*
D03*
X0376455Y0471000D02*
D03*
X0382105Y0473900D02*
D03*
X0382955Y0481900D02*
D03*
X0366755Y0464800D02*
D03*
X0377655Y0462000D02*
D03*
X0390455Y0437700D02*
D03*
X0402255Y0432100D02*
D03*
X0409255Y0454100D02*
D03*
X0430755Y0443700D02*
D03*
Y0450300D02*
D03*
Y0456900D02*
D03*
X0509255Y0444300D02*
D03*
X0491555Y0442600D02*
D03*
X0532455Y0461500D02*
D03*
X0530195Y0447160D02*
D03*
X0386555Y0497700D02*
D03*
X0380555D02*
D03*
X0374555D02*
D03*
X0356055D02*
D03*
X0354898Y0491054D02*
D03*
X0349200Y0485355D02*
D03*
X0322355Y0448600D02*
D03*
X0353454Y0443000D02*
D03*
X0347755Y0448698D02*
D03*
X0376455Y0721000D02*
D03*
X0382105Y0723900D02*
D03*
X0382955Y0731900D02*
D03*
X0366755Y0714800D02*
D03*
X0377655Y0712000D02*
D03*
X0390455Y0687700D02*
D03*
X0409255Y0704100D02*
D03*
X0406955Y0698000D02*
D03*
X0430755Y0693700D02*
D03*
Y0700300D02*
D03*
Y0706900D02*
D03*
X0509255Y0694300D02*
D03*
X0491555Y0692600D02*
D03*
X0532455Y0711500D02*
D03*
X0530195Y0697160D02*
D03*
X0386555Y0747700D02*
D03*
X0380555D02*
D03*
X0374555D02*
D03*
X0356055D02*
D03*
X0354898Y0741054D02*
D03*
X0349200Y0735355D02*
D03*
X0322355Y0698600D02*
D03*
X0330155Y0677900D02*
D03*
X0353454Y0693000D02*
D03*
X0347755Y0698698D02*
D03*
X0910188Y0927000D02*
D03*
X0960955Y0848530D02*
D03*
X0936468Y0820667D02*
D03*
X0310331Y0262976D02*
D03*
Y0254224D02*
D03*
Y0517976D02*
D03*
Y0759224D02*
D03*
Y0767976D02*
D03*
X0958703Y0772588D02*
D03*
X1192201Y0793454D02*
D03*
X1226131Y0798454D02*
D03*
X0787235Y0834955D02*
D03*
X0938055Y0799500D02*
D03*
X0174955Y0825800D02*
D03*
X0627255Y0371000D02*
D03*
Y0378100D02*
D03*
Y0385200D02*
D03*
X0620055Y0692300D02*
D03*
Y0699400D02*
D03*
Y0706500D02*
D03*
X0627255Y0452750D02*
D03*
Y0459850D02*
D03*
Y0466950D02*
D03*
Y0643400D02*
D03*
X0733555Y0837400D02*
D03*
X0726455D02*
D03*
X0719355D02*
D03*
X0705155D02*
D03*
X0712255D02*
D03*
X0322355Y0193600D02*
D03*
X1099855Y0466500D02*
D03*
X1114855Y0450000D02*
D03*
X0985555Y0873800D02*
D03*
X0216155Y0919300D02*
D03*
X0210805Y0702950D02*
D03*
Y0508350D02*
D03*
X0226305Y0322750D02*
D03*
X0198206Y0917750D02*
D03*
X0192300Y0910645D02*
D03*
X1153655Y0827100D02*
D03*
X1372055Y0788000D02*
D03*
X1378555D02*
D03*
X1385055D02*
D03*
X1398055D02*
D03*
X1391555D02*
D03*
X1372055Y0781500D02*
D03*
X1391555D02*
D03*
X1398055D02*
D03*
X1385055D02*
D03*
X1378555D02*
D03*
X1488555Y0833900D02*
D03*
X1499255Y0827800D02*
D03*
X1499355Y0819100D02*
D03*
X1378555Y0838500D02*
D03*
X1385055D02*
D03*
X1398055D02*
D03*
X1391555D02*
D03*
X1372055D02*
D03*
X1391555Y0845000D02*
D03*
X1398055D02*
D03*
X1385055D02*
D03*
X1378555D02*
D03*
X1372055D02*
D03*
Y0851500D02*
D03*
Y0858000D02*
D03*
X1378555D02*
D03*
Y0851500D02*
D03*
X1385055Y0858000D02*
D03*
Y0851500D02*
D03*
X1442955Y0855300D02*
D03*
Y0861800D02*
D03*
X1436455Y0855300D02*
D03*
Y0861800D02*
D03*
X1429955D02*
D03*
Y0855300D02*
D03*
Y0848800D02*
D03*
X1436455D02*
D03*
X1442955D02*
D03*
X1455955D02*
D03*
X1449455D02*
D03*
X1429955Y0842300D02*
D03*
X1449455D02*
D03*
X1455955D02*
D03*
X1442955D02*
D03*
X1436455D02*
D03*
X1449455Y0861800D02*
D03*
Y0855300D02*
D03*
X1455955Y0861800D02*
D03*
Y0855300D02*
D03*
X1429955Y0868300D02*
D03*
X1455955D02*
D03*
X1449455D02*
D03*
X1436455D02*
D03*
X1442955D02*
D03*
X1490855Y0849200D02*
D03*
G54D215*
X0821255Y0523148D02*
D03*
Y0316910D02*
D03*
X0258932Y0199831D02*
D03*
X0353454Y0424198D02*
D03*
X0261155Y0397300D02*
D03*
X0273255Y0417400D02*
D03*
X0252955Y0666400D02*
D03*
X0275255D02*
D03*
X0819255Y0727969D02*
D03*
X0620255Y0401200D02*
D03*
X1257934Y0882779D02*
D03*
X0745225Y0217293D02*
D03*
X0765225Y0217293D02*
D03*
X0841603D02*
D03*
X0861603D02*
D03*
X0937981Y0217293D02*
D03*
X1034359D02*
D03*
Y0422899D02*
D03*
X0937981D02*
D03*
X0861603Y0422899D02*
D03*
X0841603Y0422899D02*
D03*
X0745225Y0628506D02*
D03*
X0765225Y0628506D02*
D03*
X0841603D02*
D03*
X0861603D02*
D03*
X0937981D02*
D03*
X1034359Y0628506D02*
D03*
X1102548Y0638506D02*
D03*
Y0628506D02*
D03*
X1112548D02*
D03*
X1122548D02*
D03*
X1122548Y0638506D02*
D03*
X1132548Y0628506D02*
D03*
X1142548D02*
D03*
X1152548D02*
D03*
X1162548D02*
D03*
X1172548D02*
D03*
X1162548Y0638506D02*
D03*
X1152548Y0638506D02*
D03*
X1102548Y0432899D02*
D03*
Y0422899D02*
D03*
X1112548Y0432899D02*
D03*
X1112548Y0422899D02*
D03*
X1122548Y0432899D02*
D03*
X1122548Y0422899D02*
D03*
X1132548D02*
D03*
X1142548D02*
D03*
X1152548D02*
D03*
Y0432899D02*
D03*
X1162548D02*
D03*
Y0422899D02*
D03*
X1172548D02*
D03*
X1172548Y0227293D02*
D03*
Y0217293D02*
D03*
X1162548Y0217293D02*
D03*
X1152548Y0217293D02*
D03*
X1142548Y0217293D02*
D03*
X1132548D02*
D03*
X1122548Y0217293D02*
D03*
X1112548D02*
D03*
X1102548D02*
D03*
X1102548Y0227293D02*
D03*
X1112548D02*
D03*
X1122548Y0227293D02*
D03*
X1152548Y0227293D02*
D03*
X1162548D02*
D03*
X0765225Y0422899D02*
D03*
X0745225Y0422899D02*
D03*
G54D217*
X0233255Y0495800D02*
Y0502900D01*
Y0488700D02*
Y0495800D01*
X0263255Y0426600D02*
Y0442440D01*
X0233255Y0472440D02*
X0263255Y0442440D01*
X0233255Y0472440D02*
Y0488700D01*
X0263255Y0621800D02*
Y0701500D01*
X1039255Y0887000D02*
X1046355D01*
X1032155D02*
X1039255D01*
X0263255Y0708600D02*
Y0715700D01*
Y0701500D02*
Y0708600D01*
X1046355Y0887000D02*
X1253713D01*
X1257934Y0882779D01*
X1374155Y0801000D02*
Y0816600D01*
X1257934Y0882779D02*
X1302213Y0838500D01*
X1352255D01*
X1374155Y0816600D01*
G54D218*
X1424380Y0692645D02*
D03*
X1406270D02*
D03*
X1243585Y0259207D02*
D03*
X1261695D02*
D03*
X1243585Y0302397D02*
D03*
X1261695D02*
D03*
X1273585Y0259207D02*
D03*
X1291695D02*
D03*
X1273585Y0302397D02*
D03*
X1291695D02*
D03*
X1303585Y0259207D02*
D03*
X1321696D02*
D03*
X1303585Y0302397D02*
D03*
X1321695D02*
D03*
X1484680Y0258407D02*
D03*
X1466570D02*
D03*
X1484380Y0310197D02*
D03*
X1466270D02*
D03*
X1454680Y0258407D02*
D03*
X1436570D02*
D03*
X1454380Y0310197D02*
D03*
X1436270D02*
D03*
X1424680Y0258407D02*
D03*
X1406570D02*
D03*
X1424380Y0310197D02*
D03*
X1406270D02*
D03*
X1243585Y0684845D02*
D03*
X1261695D02*
D03*
X1243585Y0641655D02*
D03*
X1261695D02*
D03*
X1273585Y0684845D02*
D03*
X1291695D02*
D03*
X1273585Y0641655D02*
D03*
X1291695D02*
D03*
X1303585Y0684845D02*
D03*
X1321695D02*
D03*
X1303585Y0641655D02*
D03*
X1321695D02*
D03*
X1484680Y0640855D02*
D03*
X1466570D02*
D03*
X1484380Y0692645D02*
D03*
X1466270D02*
D03*
X1454680Y0640855D02*
D03*
X1436570D02*
D03*
X1454380Y0692645D02*
D03*
X1436270D02*
D03*
X1424680Y0640855D02*
D03*
X1406570D02*
D03*
M02*
