G04*
G04 #@! TF.GenerationSoftware,Altium Limited,Altium Designer,18.1.9 (240)*
G04*
G04 Layer_Physical_Order=4*
G04 Layer_Color=16711680*
%FSAX25Y25*%
%MOIN*%
G70*
G01*
G75*
%ADD15C,0.00800*%
%ADD17C,0.00600*%
%ADD25C,0.01000*%
%ADD29R,0.03937X0.03740*%
%ADD30R,0.03740X0.03937*%
%ADD31R,0.05000X0.06300*%
%ADD32R,0.06300X0.05000*%
%ADD33R,0.07284X0.05118*%
%ADD42R,0.04803X0.03602*%
%ADD77C,0.02000*%
%ADD78C,0.02500*%
%ADD80C,0.06496*%
G04:AMPARAMS|DCode=81|XSize=64.96mil|YSize=64.96mil|CornerRadius=16.24mil|HoleSize=0mil|Usage=FLASHONLY|Rotation=90.000|XOffset=0mil|YOffset=0mil|HoleType=Round|Shape=RoundedRectangle|*
%AMROUNDEDRECTD81*
21,1,0.06496,0.03248,0,0,90.0*
21,1,0.03248,0.06496,0,0,90.0*
1,1,0.03248,0.01624,0.01624*
1,1,0.03248,0.01624,-0.01624*
1,1,0.03248,-0.01624,-0.01624*
1,1,0.03248,-0.01624,0.01624*
%
%ADD81ROUNDEDRECTD81*%
%ADD82O,0.25000X0.02000*%
%ADD83C,0.06299*%
%ADD84R,0.06299X0.06299*%
%ADD85C,0.08000*%
%ADD86C,0.02400*%
%ADD87C,0.01968*%
G04:AMPARAMS|DCode=88|XSize=23.62mil|YSize=55.12mil|CornerRadius=2.01mil|HoleSize=0mil|Usage=FLASHONLY|Rotation=180.000|XOffset=0mil|YOffset=0mil|HoleType=Round|Shape=RoundedRectangle|*
%AMROUNDEDRECTD88*
21,1,0.02362,0.05110,0,0,180.0*
21,1,0.01961,0.05512,0,0,180.0*
1,1,0.00402,-0.00980,0.02555*
1,1,0.00402,0.00980,0.02555*
1,1,0.00402,0.00980,-0.02555*
1,1,0.00402,-0.00980,-0.02555*
%
%ADD88ROUNDEDRECTD88*%
G04:AMPARAMS|DCode=89|XSize=23.62mil|YSize=64.96mil|CornerRadius=2.01mil|HoleSize=0mil|Usage=FLASHONLY|Rotation=0.000|XOffset=0mil|YOffset=0mil|HoleType=Round|Shape=RoundedRectangle|*
%AMROUNDEDRECTD89*
21,1,0.02362,0.06095,0,0,0.0*
21,1,0.01961,0.06496,0,0,0.0*
1,1,0.00402,0.00980,-0.03047*
1,1,0.00402,-0.00980,-0.03047*
1,1,0.00402,-0.00980,0.03047*
1,1,0.00402,0.00980,0.03047*
%
%ADD89ROUNDEDRECTD89*%
%ADD90R,0.03602X0.04803*%
%ADD91R,0.08500X0.10799*%
%ADD92C,0.04000*%
%ADD93C,0.03000*%
G36*
X0244189Y0254300D02*
X0245689Y0252800D01*
Y0242800D01*
X0243789Y0240900D01*
X0240089D01*
X0239589Y0241400D01*
X0238289Y0242700D01*
Y0246400D01*
Y0247500D01*
X0237089Y0248700D01*
X0236889Y0248900D01*
X0230689D01*
X0230289Y0249300D01*
X0229989Y0249600D01*
Y0252900D01*
Y0253900D01*
X0230489Y0254400D01*
X0230589Y0254500D01*
X0243989D01*
X0244189Y0254300D01*
D02*
G37*
G36*
X0249989Y0274900D02*
Y0269200D01*
X0249789Y0269000D01*
X0245889D01*
X0244097Y0267208D01*
Y0257940D01*
X0243597Y0257440D01*
X0228597D01*
X0227597Y0258440D01*
Y0266440D01*
X0236057Y0274900D01*
X0238789D01*
X0239089Y0275200D01*
X0249689D01*
X0249989Y0274900D01*
D02*
G37*
G36*
X0346089D02*
Y0269200D01*
X0345889Y0269000D01*
X0341989D01*
X0340197Y0267208D01*
Y0257940D01*
X0339697Y0257440D01*
X0324697D01*
X0323697Y0258440D01*
Y0266440D01*
X0332157Y0274900D01*
X0334889D01*
X0335189Y0275200D01*
X0345789D01*
X0346089Y0274900D01*
D02*
G37*
G36*
X0275049Y0268440D02*
X0282407Y0268440D01*
X0284407Y0266440D01*
Y0258440D01*
X0283407Y0257440D01*
X0268700D01*
X0267907Y0258233D01*
X0267907Y0263382D01*
X0265931Y0265358D01*
Y0265368D01*
X0265921D01*
X0261889Y0269400D01*
X0261889Y0274800D01*
X0262389Y0275300D01*
X0268189D01*
X0275049Y0268440D01*
D02*
G37*
G36*
X0338889Y0254400D02*
X0339889Y0253400D01*
Y0242400D01*
X0338489Y0241000D01*
X0334789D01*
X0334289Y0241500D01*
X0332989Y0242800D01*
Y0246500D01*
Y0247600D01*
X0331789Y0248800D01*
X0331589Y0249000D01*
X0325389D01*
X0324989Y0249400D01*
X0324689Y0249700D01*
Y0253000D01*
Y0254000D01*
X0325189Y0254500D01*
X0325289Y0254600D01*
X0338689D01*
X0338889Y0254400D01*
D02*
G37*
G36*
X0371149Y0268440D02*
X0378507Y0268440D01*
X0380507Y0266440D01*
Y0258440D01*
X0379507Y0257440D01*
X0364800D01*
X0364007Y0258233D01*
X0364007Y0263382D01*
X0362031Y0265358D01*
Y0265368D01*
X0362021D01*
X0357989Y0269400D01*
X0357989Y0274800D01*
X0358489Y0275300D01*
X0364289D01*
X0371149Y0268440D01*
D02*
G37*
G36*
X0493689Y0264300D02*
Y0260400D01*
X0492729Y0259440D01*
X0477881D01*
X0477649Y0259486D01*
X0477613Y0259511D01*
X0477522Y0259548D01*
X0477130Y0259940D01*
X0471630D01*
X0470807Y0259118D01*
X0470714Y0259055D01*
X0470599Y0258940D01*
X0466630D01*
X0466130Y0259440D01*
Y0264440D01*
X0467130Y0265440D01*
X0492549D01*
X0493689Y0264300D01*
D02*
G37*
G36*
X0476197Y0257391D02*
X0476233Y0257367D01*
X0476374Y0257308D01*
X0476546Y0257193D01*
X0476546Y0257193D01*
X0476546Y0257193D01*
X0476637Y0257156D01*
X0476841Y0257115D01*
X0476893Y0257093D01*
X0476905Y0257085D01*
X0476920Y0257082D01*
X0477152Y0256986D01*
X0477384Y0256940D01*
X0477635Y0256940D01*
X0477881Y0256891D01*
X0479179D01*
X0479630Y0256440D01*
X0492849D01*
X0493689Y0255600D01*
X0493689Y0252200D01*
X0492929Y0251440D01*
X0488630D01*
X0473649Y0251440D01*
X0473289Y0251800D01*
X0473289Y0256970D01*
X0473710Y0257391D01*
X0476197D01*
X0476197Y0257391D01*
D02*
G37*
G36*
X0589889Y0265540D02*
X0589889Y0260200D01*
X0589629Y0259940D01*
X0579098Y0259940D01*
X0577254D01*
X0577008Y0259989D01*
X0576791D01*
X0576333Y0260295D01*
X0575358Y0260489D01*
X0570508D01*
X0570262Y0260440D01*
X0569098D01*
X0568098Y0259440D01*
X0564098D01*
X0563598Y0259940D01*
Y0264940D01*
X0564598Y0265940D01*
X0589489D01*
X0589889Y0265540D01*
D02*
G37*
G36*
X0575949Y0256940D02*
X0585008Y0256940D01*
X0589508D01*
X0589967Y0256481D01*
Y0252399D01*
X0589508Y0251940D01*
X0586508Y0251940D01*
X0571049Y0251940D01*
X0570690Y0252299D01*
Y0255000D01*
X0570689Y0255005D01*
X0570689Y0257500D01*
X0571129Y0257940D01*
X0574949Y0257940D01*
X0575949Y0256940D01*
D02*
G37*
G54D15*
X0126900Y0073549D02*
Y0067551D01*
X0129899D01*
X0130899Y0068550D01*
Y0069550D01*
X0129899Y0070550D01*
X0126900D01*
X0129899D01*
X0130899Y0071549D01*
Y0072549D01*
X0129899Y0073549D01*
X0126900D01*
X0133898Y0067551D02*
X0135897D01*
X0136897Y0068550D01*
Y0070550D01*
X0135897Y0071549D01*
X0133898D01*
X0132898Y0070550D01*
Y0068550D01*
X0133898Y0067551D01*
X0139896Y0072549D02*
Y0071549D01*
X0138896D01*
X0140895D01*
X0139896D01*
Y0068550D01*
X0140895Y0067551D01*
X0144894Y0072549D02*
Y0071549D01*
X0143895D01*
X0145894D01*
X0144894D01*
Y0068550D01*
X0145894Y0067551D01*
X0149893D02*
X0151892D01*
X0152892Y0068550D01*
Y0070550D01*
X0151892Y0071549D01*
X0149893D01*
X0148893Y0070550D01*
Y0068550D01*
X0149893Y0067551D01*
X0154891D02*
Y0071549D01*
X0155891D01*
X0156890Y0070550D01*
Y0067551D01*
Y0070550D01*
X0157890Y0071549D01*
X0158890Y0070550D01*
Y0067551D01*
X0166887Y0073549D02*
Y0067551D01*
X0170886D01*
X0173885Y0071549D02*
X0175884D01*
X0176884Y0070550D01*
Y0067551D01*
X0173885D01*
X0172885Y0068550D01*
X0173885Y0069550D01*
X0176884D01*
X0178883Y0071549D02*
Y0068550D01*
X0179883Y0067551D01*
X0182882D01*
Y0066551D01*
X0181882Y0065551D01*
X0180883D01*
X0182882Y0067551D02*
Y0071549D01*
X0187880Y0067551D02*
X0185881D01*
X0184881Y0068550D01*
Y0070550D01*
X0185881Y0071549D01*
X0187880D01*
X0188880Y0070550D01*
Y0069550D01*
X0184881D01*
X0190879Y0071549D02*
Y0067551D01*
Y0069550D01*
X0191879Y0070550D01*
X0192879Y0071549D01*
X0193878D01*
X0045850Y0073649D02*
Y0067651D01*
X0049849D01*
X0051848D02*
Y0071649D01*
X0053847Y0073649D01*
X0055847Y0071649D01*
Y0067651D01*
Y0070650D01*
X0051848D01*
X0057846Y0073649D02*
Y0072649D01*
X0059846Y0070650D01*
X0061845Y0072649D01*
Y0073649D01*
X0059846Y0070650D02*
Y0067651D01*
X0067843Y0073649D02*
X0063844D01*
Y0067651D01*
X0067843D01*
X0063844Y0070650D02*
X0065843D01*
X0069842Y0067651D02*
Y0073649D01*
X0072841D01*
X0073841Y0072649D01*
Y0070650D01*
X0072841Y0069650D01*
X0069842D01*
X0071842D02*
X0073841Y0067651D01*
X0081838D02*
Y0073649D01*
X0085837Y0067651D01*
Y0073649D01*
X0087836Y0067651D02*
Y0071649D01*
X0089836Y0073649D01*
X0091835Y0071649D01*
Y0067651D01*
Y0070650D01*
X0087836D01*
X0093835Y0067651D02*
Y0073649D01*
X0095834Y0071649D01*
X0097833Y0073649D01*
Y0067651D01*
X0103831Y0073649D02*
X0099832D01*
Y0067651D01*
X0103831D01*
X0099832Y0070650D02*
X0101832D01*
X0111829Y0069650D02*
X0115827D01*
X0111829Y0071649D02*
X0115827D01*
X0348550Y0073498D02*
X0352549D01*
X0350549D01*
Y0067500D01*
X0354548Y0073498D02*
X0356547D01*
X0355548D01*
Y0067500D01*
X0354548D01*
X0356547D01*
X0359546Y0073498D02*
Y0067500D01*
X0362545D01*
X0363545Y0068500D01*
Y0072498D01*
X0362545Y0073498D01*
X0359546D01*
X0365545Y0067500D02*
Y0071499D01*
X0367544Y0073498D01*
X0369543Y0071499D01*
Y0067500D01*
Y0070499D01*
X0365545D01*
X0371543D02*
X0375541D01*
X0377541Y0072498D02*
X0378540Y0073498D01*
X0380540D01*
X0381539Y0072498D01*
Y0068500D01*
X0380540Y0067500D01*
X0378540D01*
X0377541Y0068500D01*
Y0072498D01*
X0383539Y0067500D02*
X0385538D01*
X0384538D01*
Y0073498D01*
X0383539Y0072498D01*
X0392536Y0073498D02*
X0390536Y0072498D01*
X0388537Y0070499D01*
Y0068500D01*
X0389537Y0067500D01*
X0391536D01*
X0392536Y0068500D01*
Y0069499D01*
X0391536Y0070499D01*
X0388537D01*
X0394535Y0072498D02*
X0395535Y0073498D01*
X0397534D01*
X0398534Y0072498D01*
Y0068500D01*
X0397534Y0067500D01*
X0395535D01*
X0394535Y0068500D01*
Y0072498D01*
X0404532Y0073498D02*
X0402532Y0072498D01*
X0400533Y0070499D01*
Y0068500D01*
X0401533Y0067500D01*
X0403532D01*
X0404532Y0068500D01*
Y0069499D01*
X0403532Y0070499D01*
X0400533D01*
X0294000Y0073498D02*
X0297999D01*
X0295999D01*
Y0067500D01*
X0299998Y0073498D02*
X0301997D01*
X0300998D01*
Y0067500D01*
X0299998D01*
X0301997D01*
X0304996Y0073498D02*
Y0067500D01*
X0307996D01*
X0308995Y0068500D01*
Y0072498D01*
X0307996Y0073498D01*
X0304996D01*
X0317992Y0067500D02*
Y0073498D01*
X0319992D02*
Y0067500D01*
X0316993Y0071499D02*
X0319992D01*
X0320991D01*
X0316993Y0069499D02*
X0320991D01*
X0322991Y0071499D02*
X0323990D01*
Y0070499D01*
X0322991D01*
Y0071499D01*
Y0068500D02*
X0323990D01*
Y0067500D01*
X0322991D01*
Y0068500D01*
X0580500Y0052965D02*
X0584499D01*
X0582499D01*
Y0046966D01*
X0590497Y0052965D02*
X0586498D01*
Y0046966D01*
X0590497D01*
X0586498Y0049966D02*
X0588497D01*
X0592496Y0052965D02*
X0596495Y0046966D01*
Y0052965D02*
X0592496Y0046966D01*
X0598494D02*
Y0050965D01*
X0600493Y0052965D01*
X0602493Y0050965D01*
Y0046966D01*
Y0049966D01*
X0598494D01*
X0608491Y0051965D02*
X0607491Y0052965D01*
X0605492D01*
X0604492Y0051965D01*
Y0050965D01*
X0605492Y0049966D01*
X0607491D01*
X0608491Y0048966D01*
Y0047966D01*
X0607491Y0046966D01*
X0605492D01*
X0604492Y0047966D01*
X0616488Y0052965D02*
X0618488D01*
X0617488D01*
Y0046966D01*
X0616488D01*
X0618488D01*
X0621487D02*
Y0052965D01*
X0625486Y0046966D01*
Y0052965D01*
X0631484Y0051965D02*
X0630484Y0052965D01*
X0628484D01*
X0627485Y0051965D01*
Y0050965D01*
X0628484Y0049966D01*
X0630484D01*
X0631484Y0048966D01*
Y0047966D01*
X0630484Y0046966D01*
X0628484D01*
X0627485Y0047966D01*
X0633483Y0052965D02*
X0637482D01*
X0635482D01*
Y0046966D01*
X0639481D02*
Y0052965D01*
X0642480D01*
X0643480Y0051965D01*
Y0049966D01*
X0642480Y0048966D01*
X0639481D01*
X0641480D02*
X0643480Y0046966D01*
X0645479Y0052965D02*
Y0047966D01*
X0646479Y0046966D01*
X0648478D01*
X0649478Y0047966D01*
Y0052965D01*
X0651477Y0046966D02*
Y0052965D01*
X0653476Y0050965D01*
X0655476Y0052965D01*
Y0046966D01*
X0661474Y0052965D02*
X0657475D01*
Y0046966D01*
X0661474D01*
X0657475Y0049966D02*
X0659474D01*
X0663473Y0046966D02*
Y0052965D01*
X0667472Y0046966D01*
Y0052965D01*
X0669471D02*
X0673470D01*
X0671471D01*
Y0046966D01*
X0679468Y0051965D02*
X0678468Y0052965D01*
X0676469D01*
X0675469Y0051965D01*
Y0050965D01*
X0676469Y0049966D01*
X0678468D01*
X0679468Y0048966D01*
Y0047966D01*
X0678468Y0046966D01*
X0676469D01*
X0675469Y0047966D01*
X0454050Y0051965D02*
X0455050Y0052965D01*
X0457049D01*
X0458049Y0051965D01*
Y0050965D01*
X0457049Y0049966D01*
X0458049Y0048966D01*
Y0047966D01*
X0457049Y0046966D01*
X0455050D01*
X0454050Y0047966D01*
Y0048966D01*
X0455050Y0049966D01*
X0454050Y0050965D01*
Y0051965D01*
X0455050Y0049966D02*
X0457049D01*
X0460048Y0050965D02*
X0461048D01*
Y0049966D01*
X0460048D01*
Y0050965D01*
Y0047966D02*
X0461048D01*
Y0046966D01*
X0460048D01*
Y0047966D01*
X0465046Y0051965D02*
X0466046Y0052965D01*
X0468046D01*
X0469045Y0051965D01*
Y0050965D01*
X0468046Y0049966D01*
X0467046D01*
X0468046D01*
X0469045Y0048966D01*
Y0047966D01*
X0468046Y0046966D01*
X0466046D01*
X0465046Y0047966D01*
X0471044D02*
X0472044Y0046966D01*
X0474044D01*
X0475043Y0047966D01*
Y0051965D01*
X0474044Y0052965D01*
X0472044D01*
X0471044Y0051965D01*
Y0050965D01*
X0472044Y0049966D01*
X0475043D01*
X0477043Y0050965D02*
X0478042D01*
Y0049966D01*
X0477043D01*
Y0050965D01*
Y0047966D02*
X0478042D01*
Y0046966D01*
X0477043D01*
Y0047966D01*
X0485040Y0046966D02*
Y0052965D01*
X0482041Y0049966D01*
X0486040D01*
X0488039Y0051965D02*
X0489039Y0052965D01*
X0491038D01*
X0492038Y0051965D01*
Y0047966D01*
X0491038Y0046966D01*
X0489039D01*
X0488039Y0047966D01*
Y0051965D01*
X0500035Y0046966D02*
Y0050965D01*
X0502035Y0052965D01*
X0504034Y0050965D01*
Y0046966D01*
Y0049966D01*
X0500035D01*
X0506033Y0046966D02*
Y0052965D01*
X0508033Y0050965D01*
X0510032Y0052965D01*
Y0046966D01*
X0046350D02*
Y0052965D01*
X0049349D01*
X0050349Y0051965D01*
Y0049966D01*
X0049349Y0048966D01*
X0046350D01*
X0052348Y0052965D02*
Y0046966D01*
X0056347D01*
X0061345Y0052965D02*
X0059346D01*
X0058346Y0051965D01*
Y0047966D01*
X0059346Y0046966D01*
X0061345D01*
X0062345Y0047966D01*
Y0051965D01*
X0061345Y0052965D01*
X0064344D02*
X0068343D01*
X0066343D01*
Y0046966D01*
X0076340D02*
Y0052965D01*
X0080339Y0046966D01*
Y0052965D01*
X0082338Y0046966D02*
Y0050965D01*
X0084338Y0052965D01*
X0086337Y0050965D01*
Y0046966D01*
Y0049966D01*
X0082338D01*
X0088336Y0046966D02*
Y0052965D01*
X0090336Y0050965D01*
X0092335Y0052965D01*
Y0046966D01*
X0098333Y0052965D02*
X0094335D01*
Y0046966D01*
X0098333D01*
X0094335Y0049966D02*
X0096334D01*
X0106331Y0048966D02*
X0110329D01*
X0106331Y0050965D02*
X0110329D01*
X0294000Y0093831D02*
Y0087833D01*
X0296999D01*
X0297999Y0088833D01*
Y0089833D01*
X0296999Y0090832D01*
X0294000D01*
X0296999D01*
X0297999Y0091832D01*
Y0092832D01*
X0296999Y0093831D01*
X0294000D01*
X0302997D02*
X0300998D01*
X0299998Y0092832D01*
Y0088833D01*
X0300998Y0087833D01*
X0302997D01*
X0303997Y0088833D01*
Y0092832D01*
X0302997Y0093831D01*
X0305996Y0087833D02*
Y0091832D01*
X0307996Y0093831D01*
X0309995Y0091832D01*
Y0087833D01*
Y0090832D01*
X0305996D01*
X0311994Y0087833D02*
Y0093831D01*
X0314993D01*
X0315993Y0092832D01*
Y0090832D01*
X0314993Y0089833D01*
X0311994D01*
X0313994D02*
X0315993Y0087833D01*
X0317992Y0093831D02*
Y0087833D01*
X0320991D01*
X0321991Y0088833D01*
Y0092832D01*
X0320991Y0093831D01*
X0317992D01*
X0330988Y0087833D02*
Y0093831D01*
X0332987D02*
Y0087833D01*
X0329988Y0091832D02*
X0332987D01*
X0333987D01*
X0329988Y0089833D02*
X0333987D01*
X0335986Y0091832D02*
X0336986D01*
Y0090832D01*
X0335986D01*
Y0091832D01*
Y0088833D02*
X0336986D01*
Y0087833D01*
X0335986D01*
Y0088833D01*
X0466149Y0093831D02*
X0462150D01*
Y0087833D01*
X0466149D01*
X0462150Y0090832D02*
X0464149D01*
X0471147Y0087833D02*
Y0093831D01*
X0468148Y0090832D01*
X0472147D01*
X0046350Y0087833D02*
Y0091832D01*
X0048349Y0093831D01*
X0050349Y0091832D01*
Y0087833D01*
Y0090832D01*
X0046350D01*
X0052348Y0093831D02*
Y0087833D01*
X0056347D01*
X0058346Y0093831D02*
Y0087833D01*
X0062345D01*
X0070342D02*
Y0091832D01*
X0072342Y0093831D01*
X0074341Y0091832D01*
Y0087833D01*
Y0090832D01*
X0070342D01*
X0076340Y0087833D02*
Y0093831D01*
X0079339D01*
X0080339Y0092832D01*
Y0090832D01*
X0079339Y0089833D01*
X0076340D01*
X0078340D02*
X0080339Y0087833D01*
X0082338Y0093831D02*
X0086337D01*
X0084338D01*
Y0087833D01*
X0088336Y0093831D02*
Y0087833D01*
X0090336Y0089833D01*
X0092335Y0087833D01*
Y0093831D01*
X0097334D02*
X0095334D01*
X0094335Y0092832D01*
Y0088833D01*
X0095334Y0087833D01*
X0097334D01*
X0098333Y0088833D01*
Y0092832D01*
X0097334Y0093831D01*
X0100332Y0087833D02*
Y0093831D01*
X0103332D01*
X0104331Y0092832D01*
Y0090832D01*
X0103332Y0089833D01*
X0100332D01*
X0102332D02*
X0104331Y0087833D01*
X0106331Y0093831D02*
Y0087833D01*
Y0089833D01*
X0110329Y0093831D01*
X0107330Y0090832D01*
X0110329Y0087833D01*
X0118327Y0093831D02*
Y0089833D01*
X0120326Y0087833D01*
X0122325Y0089833D01*
Y0093831D01*
X0124325D02*
X0126324D01*
X0125324D01*
Y0087833D01*
X0124325D01*
X0126324D01*
X0133322Y0093831D02*
X0129323D01*
Y0087833D01*
X0133322D01*
X0129323Y0090832D02*
X0131323D01*
X0135321Y0093831D02*
Y0087833D01*
X0137321Y0089833D01*
X0139320Y0087833D01*
Y0093831D01*
X0145318D02*
X0141319D01*
Y0087833D01*
X0145318D01*
X0141319Y0090832D02*
X0143319D01*
X0147317Y0093831D02*
Y0087833D01*
X0150316D01*
X0151316Y0088833D01*
Y0092832D01*
X0150316Y0093831D01*
X0147317D01*
X0163312D02*
X0159313D01*
Y0090832D01*
X0161313D01*
X0159313D01*
Y0087833D01*
X0165312D02*
Y0093831D01*
X0168310D01*
X0169310Y0092832D01*
Y0090832D01*
X0168310Y0089833D01*
X0165312D01*
X0167311D02*
X0169310Y0087833D01*
X0174309Y0093831D02*
X0172309D01*
X0171310Y0092832D01*
Y0088833D01*
X0172309Y0087833D01*
X0174309D01*
X0175308Y0088833D01*
Y0092832D01*
X0174309Y0093831D01*
X0177308Y0087833D02*
Y0093831D01*
X0179307Y0091832D01*
X0181306Y0093831D01*
Y0087833D01*
X0189304Y0093831D02*
X0193303D01*
X0191303D01*
Y0087833D01*
X0198301Y0093831D02*
X0196301D01*
X0195302Y0092832D01*
Y0088833D01*
X0196301Y0087833D01*
X0198301D01*
X0199301Y0088833D01*
Y0092832D01*
X0198301Y0093831D01*
X0201300Y0087833D02*
Y0093831D01*
X0204299D01*
X0205299Y0092832D01*
Y0090832D01*
X0204299Y0089833D01*
X0201300D01*
X0217295Y0092832D02*
X0216295Y0093831D01*
X0214296D01*
X0213296Y0092832D01*
Y0091832D01*
X0214296Y0090832D01*
X0216295D01*
X0217295Y0089833D01*
Y0088833D01*
X0216295Y0087833D01*
X0214296D01*
X0213296Y0088833D01*
X0219294Y0093831D02*
X0221293D01*
X0220294D01*
Y0087833D01*
X0219294D01*
X0221293D01*
X0224292Y0093831D02*
Y0087833D01*
X0227291D01*
X0228291Y0088833D01*
Y0092832D01*
X0227291Y0093831D01*
X0224292D01*
X0234289D02*
X0230291D01*
Y0087833D01*
X0234289D01*
X0230291Y0090832D02*
X0232290D01*
X0298199Y0051965D02*
X0297199Y0052965D01*
X0295200D01*
X0294200Y0051965D01*
Y0047966D01*
X0295200Y0046966D01*
X0297199D01*
X0298199Y0047966D01*
Y0049966D01*
X0296199D01*
X0304197Y0052965D02*
X0300198D01*
Y0046966D01*
X0304197D01*
X0300198Y0049966D02*
X0302197D01*
X0306196Y0046966D02*
Y0052965D01*
X0310195Y0046966D01*
Y0052965D01*
X0316193D02*
X0312194D01*
Y0046966D01*
X0316193D01*
X0312194Y0049966D02*
X0314194D01*
X0318192Y0046966D02*
Y0052965D01*
X0321191D01*
X0322191Y0051965D01*
Y0049966D01*
X0321191Y0048966D01*
X0318192D01*
X0320192D02*
X0322191Y0046966D01*
X0324190D02*
Y0050965D01*
X0326190Y0052965D01*
X0328189Y0050965D01*
Y0046966D01*
Y0049966D01*
X0324190D01*
X0330188Y0052965D02*
X0334187D01*
X0332188D01*
Y0046966D01*
X0340185Y0052965D02*
X0336186D01*
Y0046966D01*
X0340185D01*
X0336186Y0049966D02*
X0338186D01*
X0342184Y0052965D02*
Y0046966D01*
X0345183D01*
X0346183Y0047966D01*
Y0051965D01*
X0345183Y0052965D01*
X0342184D01*
X0372175Y0050965D02*
X0373175D01*
Y0049966D01*
X0372175D01*
Y0050965D01*
Y0047966D02*
X0373175D01*
Y0046966D01*
X0372175D01*
Y0047966D01*
X0385149Y0046966D02*
X0381150D01*
X0385149Y0050965D01*
Y0051965D01*
X0384149Y0052965D01*
X0382150D01*
X0381150Y0051965D01*
X0387148Y0046966D02*
X0391147Y0050965D01*
X0393146Y0046966D02*
X0395146D01*
X0394146D01*
Y0052965D01*
X0393146Y0051965D01*
X0402143Y0052965D02*
X0398145D01*
Y0049966D01*
X0400144Y0050965D01*
X0401144D01*
X0402143Y0049966D01*
Y0047966D01*
X0401144Y0046966D01*
X0399144D01*
X0398145Y0047966D01*
X0404143Y0046966D02*
X0408141Y0050965D01*
X0414139Y0046966D02*
X0410141D01*
X0414139Y0050965D01*
Y0051965D01*
X0413140Y0052965D01*
X0411140D01*
X0410141Y0051965D01*
X0416139D02*
X0417138Y0052965D01*
X0419138D01*
X0420137Y0051965D01*
Y0047966D01*
X0419138Y0046966D01*
X0417138D01*
X0416139Y0047966D01*
Y0051965D01*
X0422137Y0046966D02*
X0424136D01*
X0423136D01*
Y0052965D01*
X0422137Y0051965D01*
X0427135Y0047966D02*
X0428135Y0046966D01*
X0430134D01*
X0431134Y0047966D01*
Y0051965D01*
X0430134Y0052965D01*
X0428135D01*
X0427135Y0051965D01*
Y0050965D01*
X0428135Y0049966D01*
X0431134D01*
X0433000Y0087833D02*
Y0093831D01*
X0435999D01*
X0436999Y0092832D01*
Y0090832D01*
X0435999Y0089833D01*
X0433000D01*
X0434999D02*
X0436999Y0087833D01*
X0442997Y0093831D02*
X0438998D01*
Y0087833D01*
X0442997D01*
X0438998Y0090832D02*
X0440997D01*
X0444996Y0093831D02*
Y0089833D01*
X0446995Y0087833D01*
X0448995Y0089833D01*
Y0093831D01*
X0450994Y0091832D02*
X0451994D01*
Y0090832D01*
X0450994D01*
Y0091832D01*
Y0088833D02*
X0451994D01*
Y0087833D01*
X0450994D01*
Y0088833D01*
X0520799Y0092832D02*
X0519799Y0093831D01*
X0517800D01*
X0516800Y0092832D01*
Y0091832D01*
X0517800Y0090832D01*
X0519799D01*
X0520799Y0089833D01*
Y0088833D01*
X0519799Y0087833D01*
X0517800D01*
X0516800Y0088833D01*
X0522798Y0093831D02*
Y0089833D01*
X0524797Y0087833D01*
X0526797Y0089833D01*
Y0093831D01*
X0528796Y0087833D02*
Y0093831D01*
X0532795Y0087833D01*
Y0093831D01*
X0540792Y0087833D02*
Y0093831D01*
X0543791D01*
X0544791Y0092832D01*
Y0090832D01*
X0543791Y0089833D01*
X0540792D01*
X0542792D02*
X0544791Y0087833D01*
X0550789Y0093831D02*
X0546790D01*
Y0087833D01*
X0550789D01*
X0546790Y0090832D02*
X0548790D01*
X0552788Y0093831D02*
Y0089833D01*
X0554788Y0087833D01*
X0556787Y0089833D01*
Y0093831D01*
X0558786Y0091832D02*
X0559786D01*
Y0090832D01*
X0558786D01*
Y0091832D01*
Y0088833D02*
X0559786D01*
Y0087833D01*
X0558786D01*
Y0088833D01*
X0567400Y0087833D02*
Y0093831D01*
X0571399Y0087833D01*
Y0093831D01*
X0574398Y0087833D02*
X0576397D01*
X0577397Y0088833D01*
Y0090832D01*
X0576397Y0091832D01*
X0574398D01*
X0573398Y0090832D01*
Y0088833D01*
X0574398Y0087833D01*
X0580396Y0092832D02*
Y0091832D01*
X0579396D01*
X0581395D01*
X0580396D01*
Y0088833D01*
X0581395Y0087833D01*
X0590393Y0093831D02*
X0592392D01*
X0591392D01*
Y0087833D01*
X0590393D01*
X0592392D01*
X0595391D02*
Y0091832D01*
X0598390D01*
X0599390Y0090832D01*
Y0087833D01*
X0607387Y0093831D02*
Y0089833D01*
X0609386Y0087833D01*
X0611386Y0089833D01*
Y0093831D01*
X0616384Y0087833D02*
X0614385D01*
X0613385Y0088833D01*
Y0090832D01*
X0614385Y0091832D01*
X0616384D01*
X0617384Y0090832D01*
Y0089833D01*
X0613385D01*
X0619383Y0091832D02*
Y0087833D01*
Y0089833D01*
X0620383Y0090832D01*
X0621383Y0091832D01*
X0622382D01*
X0625381Y0087833D02*
X0628380D01*
X0629380Y0088833D01*
X0628380Y0089833D01*
X0626381D01*
X0625381Y0090832D01*
X0626381Y0091832D01*
X0629380D01*
X0631379Y0087833D02*
X0633379D01*
X0632379D01*
Y0091832D01*
X0631379D01*
X0637377Y0087833D02*
X0639377D01*
X0640376Y0088833D01*
Y0090832D01*
X0639377Y0091832D01*
X0637377D01*
X0636378Y0090832D01*
Y0088833D01*
X0637377Y0087833D01*
X0642376D02*
Y0091832D01*
X0645375D01*
X0646374Y0090832D01*
Y0087833D01*
X0652373Y0092832D02*
X0651373Y0093831D01*
X0649373D01*
X0648374Y0092832D01*
Y0088833D01*
X0649373Y0087833D01*
X0651373D01*
X0652373Y0088833D01*
X0655372Y0087833D02*
X0657371D01*
X0658371Y0088833D01*
Y0090832D01*
X0657371Y0091832D01*
X0655372D01*
X0654372Y0090832D01*
Y0088833D01*
X0655372Y0087833D01*
X0660370D02*
Y0091832D01*
X0663369D01*
X0664369Y0090832D01*
Y0087833D01*
X0667368Y0092832D02*
Y0091832D01*
X0666368D01*
X0668367D01*
X0667368D01*
Y0088833D01*
X0668367Y0087833D01*
X0671366Y0091832D02*
Y0087833D01*
Y0089833D01*
X0672366Y0090832D01*
X0673366Y0091832D01*
X0674365D01*
X0678364Y0087833D02*
X0680364D01*
X0681363Y0088833D01*
Y0090832D01*
X0680364Y0091832D01*
X0678364D01*
X0677364Y0090832D01*
Y0088833D01*
X0678364Y0087833D01*
X0683362D02*
X0685362D01*
X0684362D01*
Y0093831D01*
X0683362D01*
G54D17*
X0348550Y0090832D02*
X0350549D01*
X0349550D01*
Y0087833D01*
X0351549Y0090832D02*
X0352549D01*
X0352049D01*
Y0087833D01*
X0351549D01*
X0352549D01*
X0354048Y0090832D02*
Y0087833D01*
X0355548D01*
X0356048Y0088333D01*
Y0090333D01*
X0355548Y0090832D01*
X0354048D01*
X0357047Y0087833D02*
Y0089833D01*
X0358047Y0090832D01*
X0359047Y0089833D01*
Y0087833D01*
Y0089333D01*
X0357047D01*
X0360046D02*
X0362046D01*
X0363045Y0090333D02*
X0363545Y0090832D01*
X0364545D01*
X0365045Y0090333D01*
Y0088333D01*
X0364545Y0087833D01*
X0363545D01*
X0363045Y0088333D01*
Y0090333D01*
X0366044Y0087833D02*
X0367044D01*
X0366544D01*
Y0090832D01*
X0366044Y0090333D01*
X0370543Y0090832D02*
X0369543Y0090333D01*
X0368544Y0089333D01*
Y0088333D01*
X0369043Y0087833D01*
X0370043D01*
X0370543Y0088333D01*
Y0088833D01*
X0370043Y0089333D01*
X0368544D01*
X0371543Y0090333D02*
X0372042Y0090832D01*
X0373042D01*
X0373542Y0090333D01*
Y0088333D01*
X0373042Y0087833D01*
X0372042D01*
X0371543Y0088333D01*
Y0090333D01*
X0376541Y0090832D02*
X0375541Y0090333D01*
X0374542Y0089333D01*
Y0088333D01*
X0375041Y0087833D01*
X0376041D01*
X0376541Y0088333D01*
Y0088833D01*
X0376041Y0089333D01*
X0374542D01*
X0377541Y0087334D02*
X0379540D01*
X0382539Y0090333D02*
X0382039Y0090832D01*
X0381040D01*
X0380540Y0090333D01*
Y0088333D01*
X0381040Y0087833D01*
X0382039D01*
X0382539Y0088333D01*
Y0089333D01*
X0381539D01*
X0384038Y0089833D02*
X0385038D01*
X0385538Y0089333D01*
Y0087833D01*
X0384038D01*
X0383539Y0088333D01*
X0384038Y0088833D01*
X0385538D01*
X0387038Y0090333D02*
Y0089833D01*
X0386538D01*
X0387537D01*
X0387038D01*
Y0088333D01*
X0387537Y0087833D01*
X0390536D02*
X0389537D01*
X0389037Y0088333D01*
Y0089333D01*
X0389537Y0089833D01*
X0390536D01*
X0391036Y0089333D01*
Y0088833D01*
X0389037D01*
X0395035Y0090832D02*
Y0087833D01*
X0396534D01*
X0397034Y0088333D01*
Y0090333D01*
X0396534Y0090832D01*
X0395035D01*
X0398034Y0089833D02*
Y0087833D01*
Y0088833D01*
X0398534Y0089333D01*
X0399034Y0089833D01*
X0399534D01*
X0401033Y0087833D02*
X0402033D01*
X0401533D01*
Y0089833D01*
X0401033D01*
X0403532D02*
X0404532Y0087833D01*
X0405532Y0089833D01*
X0408031Y0087833D02*
X0407031D01*
X0406531Y0088333D01*
Y0089333D01*
X0407031Y0089833D01*
X0408031D01*
X0408531Y0089333D01*
Y0088833D01*
X0406531D01*
X0409530Y0089833D02*
Y0087833D01*
Y0088833D01*
X0410030Y0089333D01*
X0410530Y0089833D01*
X0411030D01*
X0126900Y0049966D02*
X0128899D01*
X0127900D01*
Y0046966D01*
X0129899Y0049966D02*
X0130899D01*
X0130399D01*
Y0046966D01*
X0129899D01*
X0130899D01*
X0132398Y0049966D02*
Y0046966D01*
X0133898D01*
X0134398Y0047466D01*
Y0049466D01*
X0133898Y0049966D01*
X0132398D01*
X0135397Y0046966D02*
Y0048966D01*
X0136397Y0049966D01*
X0137397Y0048966D01*
Y0046966D01*
Y0048466D01*
X0135397D01*
X0138396D02*
X0140396D01*
X0141395Y0049466D02*
X0141895Y0049966D01*
X0142895D01*
X0143395Y0049466D01*
Y0047466D01*
X0142895Y0046966D01*
X0141895D01*
X0141395Y0047466D01*
Y0049466D01*
X0144394Y0046966D02*
X0145394D01*
X0144894D01*
Y0049966D01*
X0144394Y0049466D01*
X0148893Y0049966D02*
X0147893Y0049466D01*
X0146894Y0048466D01*
Y0047466D01*
X0147393Y0046966D01*
X0148393D01*
X0148893Y0047466D01*
Y0047966D01*
X0148393Y0048466D01*
X0146894D01*
X0149893Y0049466D02*
X0150392Y0049966D01*
X0151392D01*
X0151892Y0049466D01*
Y0047466D01*
X0151392Y0046966D01*
X0150392D01*
X0149893Y0047466D01*
Y0049466D01*
X0154891Y0049966D02*
X0153891Y0049466D01*
X0152892Y0048466D01*
Y0047466D01*
X0153391Y0046966D01*
X0154391D01*
X0154891Y0047466D01*
Y0047966D01*
X0154391Y0048466D01*
X0152892D01*
X0155891Y0046467D02*
X0157890D01*
X0160889Y0049466D02*
X0160389Y0049966D01*
X0159389D01*
X0158890Y0049466D01*
Y0047466D01*
X0159389Y0046966D01*
X0160389D01*
X0160889Y0047466D01*
Y0048466D01*
X0159889D01*
X0162389Y0048966D02*
X0163388D01*
X0163888Y0048466D01*
Y0046966D01*
X0162389D01*
X0161889Y0047466D01*
X0162389Y0047966D01*
X0163888D01*
X0165388Y0049466D02*
Y0048966D01*
X0164888D01*
X0165887D01*
X0165388D01*
Y0047466D01*
X0165887Y0046966D01*
X0168886D02*
X0167887D01*
X0167387Y0047466D01*
Y0048466D01*
X0167887Y0048966D01*
X0168886D01*
X0169386Y0048466D01*
Y0047966D01*
X0167387D01*
X0173385Y0049966D02*
Y0046966D01*
X0174884D01*
X0175384Y0047466D01*
Y0049466D01*
X0174884Y0049966D01*
X0173385D01*
X0176384Y0048966D02*
Y0046966D01*
Y0047966D01*
X0176884Y0048466D01*
X0177384Y0048966D01*
X0177884D01*
X0179383Y0046966D02*
X0180383D01*
X0179883D01*
Y0048966D01*
X0179383D01*
X0181882D02*
X0182882Y0046966D01*
X0183882Y0048966D01*
X0186381Y0046966D02*
X0185381D01*
X0184881Y0047466D01*
Y0048466D01*
X0185381Y0048966D01*
X0186381D01*
X0186881Y0048466D01*
Y0047966D01*
X0184881D01*
X0187880Y0048966D02*
Y0046966D01*
Y0047966D01*
X0188380Y0048466D01*
X0188880Y0048966D01*
X0189380D01*
X0192879Y0049966D02*
X0190879D01*
Y0046966D01*
X0192879D01*
X0190879Y0048466D02*
X0191879D01*
X0195378Y0046966D02*
Y0049966D01*
X0193878Y0048466D01*
X0195878D01*
X0196877Y0046966D02*
Y0047466D01*
X0197377D01*
Y0046966D01*
X0196877D01*
X0201376Y0049466D02*
X0200876Y0049966D01*
X0199876D01*
X0199376Y0049466D01*
Y0047466D01*
X0199876Y0046966D01*
X0200876D01*
X0201376Y0047466D01*
Y0048466D01*
X0200376D01*
X0202376Y0049966D02*
Y0046966D01*
X0203875D01*
X0204375Y0047466D01*
Y0047966D01*
X0203875Y0048466D01*
X0202376D01*
X0203875D01*
X0204375Y0048966D01*
Y0049466D01*
X0203875Y0049966D01*
X0202376D01*
X0205375D02*
Y0046966D01*
X0207374D01*
G54D25*
X0443889Y0322548D02*
X0443997Y0322440D01*
X0552008Y0323129D02*
Y0323149D01*
X0176700Y0249900D02*
X0189200Y0237400D01*
X0149350Y0229550D02*
X0167763Y0247963D01*
X0149350Y0222250D02*
Y0229550D01*
X0167763Y0247963D02*
Y0274174D01*
X0154200Y0208900D02*
Y0229511D01*
X0151735Y0206435D02*
X0154200Y0208900D01*
X0169550Y0273389D02*
X0212789Y0316628D01*
X0171338Y0272649D02*
X0225416Y0326728D01*
X0176700Y0249900D02*
Y0270211D01*
X0409300Y0316800D02*
X0418189D01*
X0210529Y0330940D02*
X0443997D01*
X0475749Y0245940D02*
X0476630D01*
X0439710Y0326728D02*
X0443889Y0322548D01*
X0552008Y0323149D02*
Y0326800D01*
X0564306Y0190170D02*
X0578189Y0204053D01*
X0499819Y0190170D02*
X0564306D01*
X0467865D02*
X0481779Y0204085D01*
X0401719Y0190170D02*
X0467865D01*
X0099989Y0314300D02*
X0118689D01*
X0546689Y0322287D02*
Y0322349D01*
Y0322287D02*
X0546840Y0322136D01*
Y0308698D02*
Y0322136D01*
Y0308698D02*
X0550053Y0305485D01*
X0537508Y0328940D02*
X0545053Y0321395D01*
Y0300933D02*
Y0321395D01*
X0538098Y0330940D02*
X0546689Y0322349D01*
X0127989Y0222250D02*
X0149350D01*
X0550053Y0300933D02*
Y0305485D01*
X0452585Y0300433D02*
Y0304985D01*
X0449630Y0307940D02*
Y0331940D01*
Y0307940D02*
X0452585Y0304985D01*
X0466997Y0327440D02*
X0468497Y0328940D01*
X0447585Y0300433D02*
Y0323985D01*
X0444630Y0326940D02*
X0447585Y0323985D01*
X0461997Y0324440D02*
X0463997Y0322440D01*
X0356997Y0322940D02*
X0361052Y0318885D01*
Y0313090D02*
Y0318885D01*
X0259997Y0320940D02*
X0264052Y0316885D01*
Y0313090D02*
Y0316885D01*
X0454102Y0323123D02*
Y0333045D01*
X0264052Y0306790D02*
X0264052Y0306791D01*
X0257552Y0306790D02*
X0264052D01*
X0253452Y0293867D02*
Y0299395D01*
X0257552Y0303495D01*
Y0306790D01*
X0248452Y0293867D02*
Y0299485D01*
X0244552Y0303385D02*
X0248452Y0299485D01*
X0244552Y0303385D02*
Y0306791D01*
X0251052D02*
X0251052Y0306790D01*
X0244552Y0306791D02*
X0251052D01*
X0354552Y0303995D02*
Y0306790D01*
X0349552Y0298995D02*
X0354552Y0303995D01*
X0349552Y0293867D02*
Y0298995D01*
X0344552Y0293867D02*
Y0299885D01*
X0341552Y0302885D02*
X0344552Y0299885D01*
X0341552Y0302885D02*
Y0306791D01*
X0354552Y0306790D02*
X0354552Y0306791D01*
X0361052D01*
X0348052D02*
X0348052Y0306790D01*
X0341552Y0306791D02*
X0348052D01*
X0424630Y0247940D02*
X0431130D01*
X0573598Y0236087D02*
Y0245940D01*
X0476130Y0241190D02*
Y0245440D01*
X0474683Y0239743D02*
X0476130Y0241190D01*
X0474683Y0235440D02*
Y0239743D01*
X0174913Y0243687D02*
X0189200Y0229400D01*
X0166700Y0229900D02*
X0173125Y0236325D01*
X0166700Y0237400D02*
X0171338Y0242038D01*
X0139121Y0201900D02*
X0143657Y0206435D01*
X0151735D01*
X0124200Y0206821D02*
X0129121Y0201900D01*
X0573598Y0245940D02*
Y0246440D01*
X0546080Y0332728D02*
X0552008Y0326800D01*
X0468497Y0328940D02*
X0537508D01*
X0468497Y0330940D02*
X0538098D01*
X0470227Y0332728D02*
X0546080D01*
X0230989Y0315000D02*
X0236929Y0320940D01*
X0259997D01*
X0442497Y0328940D02*
X0443997Y0327440D01*
X0332689Y0315000D02*
X0340629Y0322940D01*
X0356997D01*
X0418189Y0316800D02*
X0418316Y0316927D01*
X0432630D01*
X0515194Y0317434D02*
X0529508D01*
X0198089Y0318500D02*
X0210529Y0330940D01*
X0212789Y0323900D02*
X0217829Y0328940D01*
X0442497D01*
X0171338Y0242038D02*
Y0272649D01*
X0225416Y0326728D02*
X0439710D01*
X0212789Y0316628D02*
Y0323900D01*
X0174913Y0243687D02*
Y0271024D01*
X0226829Y0322940D01*
X0173125Y0271764D02*
X0226301Y0324940D01*
X0173125Y0236325D02*
Y0271764D01*
X0167763Y0274174D02*
X0198089Y0304500D01*
Y0318500D01*
X0124200Y0206821D02*
Y0234311D01*
X0191889Y0302000D01*
X0154200Y0229511D02*
X0169550Y0244861D01*
Y0273389D01*
X0431130Y0247940D02*
Y0250841D01*
X0437585Y0257296D01*
Y0262047D01*
X0469789Y0256200D02*
X0471489Y0254500D01*
Y0250081D02*
Y0254500D01*
Y0250081D02*
X0476130Y0245440D01*
X0462585Y0260004D02*
Y0262047D01*
Y0260004D02*
X0466389Y0256200D01*
X0469789D01*
X0535053Y0257796D02*
Y0262547D01*
X0528598Y0251341D02*
X0535053Y0257796D01*
X0528598Y0248440D02*
Y0251341D01*
X0522098Y0248440D02*
X0528598D01*
X0474683Y0226737D02*
X0475480Y0225940D01*
X0474683Y0226737D02*
Y0235440D01*
X0563857Y0256700D02*
X0567257D01*
X0560053Y0260504D02*
X0563857Y0256700D01*
X0560053Y0260504D02*
Y0262547D01*
X0568957Y0250581D02*
X0573598Y0245940D01*
X0568957Y0250581D02*
Y0255000D01*
X0567257Y0256700D02*
X0568957Y0255000D01*
X0573451Y0235940D02*
X0573598Y0236087D01*
X0571858Y0225940D02*
Y0229608D01*
X0573451Y0231200D01*
Y0235940D01*
X0578158Y0216978D02*
Y0225940D01*
Y0216978D02*
X0578189Y0216947D01*
X0481779Y0216978D02*
Y0225940D01*
X0506305Y0317434D02*
X0515194D01*
X0226301Y0324940D02*
X0401160D01*
X0409300Y0316800D01*
X0463997Y0322440D02*
X0501298D01*
X0505889Y0317850D01*
X0506305Y0317434D01*
X0323800Y0315000D02*
X0332689D01*
X0176700Y0270211D02*
X0216539Y0310050D01*
X0222289D01*
X0226039D02*
X0230989Y0315000D01*
X0222289Y0310050D02*
X0226039D01*
X0226829Y0322940D02*
X0315860D01*
X0323800Y0315000D01*
X0191889Y0302000D02*
Y0324000D01*
X0197889Y0330000D01*
X0205789D02*
X0208729Y0332940D01*
X0197889Y0330000D02*
X0205789D01*
X0208729Y0332940D02*
X0443469D01*
X0466997Y0332440D02*
X0468497Y0330940D01*
X0454102Y0333045D02*
X0455984Y0334928D01*
X0468027D01*
X0470227Y0332728D01*
X0452219Y0334928D02*
X0454102Y0333045D01*
X0443997Y0330940D02*
X0445497Y0332440D01*
X0449589D01*
X0443469Y0332940D02*
X0445457Y0334928D01*
X0452219D01*
X0397288Y0194601D02*
X0401719Y0190170D01*
X0397288Y0194601D02*
Y0201900D01*
X0495488Y0194501D02*
X0499819Y0190170D01*
X0495488Y0194501D02*
Y0201900D01*
X0559400Y0039400D02*
Y0059683D01*
X0440500Y0040050D02*
X0700200D01*
Y0101050D01*
X0286500Y0040050D02*
Y0101050D01*
X0040000Y0040050D02*
Y0101050D01*
X0040050Y0040050D02*
X0197600D01*
X0040050D02*
Y0101050D01*
Y0101050D02*
X0700200D01*
X0040000Y0040050D02*
X0440500D01*
X0040000Y0060383D02*
X0700000D01*
X0040000Y0080717D02*
X0700200D01*
X0413200D02*
Y0101050D01*
X0497200Y0080717D02*
Y0101050D01*
G54D29*
X0565807Y0310940D02*
D03*
X0559508D02*
D03*
X0553102Y0248791D02*
D03*
X0546803D02*
D03*
X0468884Y0310440D02*
D03*
X0462585D02*
D03*
X0455680Y0248290D02*
D03*
X0449380D02*
D03*
X0529508Y0310934D02*
D03*
X0535807D02*
D03*
X0432630Y0310440D02*
D03*
X0438929D02*
D03*
X0559508Y0317434D02*
D03*
X0565807D02*
D03*
X0535807D02*
D03*
X0529508D02*
D03*
X0571858Y0225940D02*
D03*
X0578158D02*
D03*
X0462585Y0316934D02*
D03*
X0468884D02*
D03*
X0438929Y0316927D02*
D03*
X0432630D02*
D03*
X0481779Y0225940D02*
D03*
X0475480D02*
D03*
G54D30*
X0573008Y0256291D02*
D03*
Y0262590D02*
D03*
X0475130Y0255791D02*
D03*
Y0262090D02*
D03*
X0348052Y0313090D02*
D03*
Y0306790D02*
D03*
X0251052Y0313090D02*
D03*
Y0306790D02*
D03*
X0366052Y0252791D02*
D03*
Y0259090D02*
D03*
X0269952Y0252791D02*
D03*
Y0259090D02*
D03*
X0242252Y0252791D02*
D03*
Y0259090D02*
D03*
X0336952Y0252891D02*
D03*
Y0259190D02*
D03*
X0354552Y0313090D02*
D03*
Y0306790D02*
D03*
X0257552Y0313090D02*
D03*
Y0306790D02*
D03*
X0341552Y0306791D02*
D03*
Y0313090D02*
D03*
X0244552Y0306791D02*
D03*
Y0313090D02*
D03*
X0361052Y0306791D02*
D03*
Y0313090D02*
D03*
X0264052Y0306791D02*
D03*
Y0313090D02*
D03*
X0522098Y0242141D02*
D03*
Y0248440D02*
D03*
X0528598Y0242141D02*
D03*
Y0248440D02*
D03*
X0424630Y0241641D02*
D03*
Y0247940D02*
D03*
X0431130Y0241641D02*
D03*
Y0247940D02*
D03*
X0222289Y0310050D02*
D03*
Y0303750D02*
D03*
X0323800Y0315000D02*
D03*
Y0308701D02*
D03*
X0409300Y0316800D02*
D03*
Y0310501D02*
D03*
X0505889Y0317850D02*
D03*
Y0311550D02*
D03*
G54D31*
X0484130Y0245440D02*
D03*
X0476130D02*
D03*
X0581598Y0245940D02*
D03*
X0573598D02*
D03*
X0545953Y0240791D02*
D03*
X0553953D02*
D03*
X0448530Y0240290D02*
D03*
X0456530D02*
D03*
G54D32*
X0581008Y0262440D02*
D03*
Y0254440D02*
D03*
X0483130Y0261940D02*
D03*
Y0253940D02*
D03*
X0373997Y0259940D02*
D03*
Y0251940D02*
D03*
X0277897Y0259940D02*
D03*
Y0251940D02*
D03*
X0234197Y0251940D02*
D03*
Y0259940D02*
D03*
X0328897Y0260040D02*
D03*
Y0252040D02*
D03*
G54D33*
X0537057Y0251009D02*
D03*
Y0239591D02*
D03*
X0563098Y0250999D02*
D03*
Y0239582D02*
D03*
X0552008Y0311732D02*
D03*
Y0323149D02*
D03*
X0439589Y0250509D02*
D03*
Y0239091D02*
D03*
X0465630Y0250499D02*
D03*
Y0239082D02*
D03*
X0454735Y0311225D02*
D03*
Y0322642D02*
D03*
X0357189Y0261609D02*
D03*
Y0250191D02*
D03*
X0261089Y0261609D02*
D03*
Y0250191D02*
D03*
X0346689Y0261609D02*
D03*
Y0250191D02*
D03*
X0250589Y0261609D02*
D03*
Y0250191D02*
D03*
G54D42*
X0578189Y0204053D02*
D03*
Y0216947D02*
D03*
X0481779Y0204085D02*
D03*
Y0216978D02*
D03*
G54D77*
X0323484Y0309017D02*
X0323584Y0309117D01*
X0408984Y0306666D02*
Y0310817D01*
X0553147Y0248791D02*
Y0251490D01*
X0553908Y0229736D02*
Y0240791D01*
X0551657Y0311745D02*
X0553203D01*
X0535807Y0306739D02*
Y0317434D01*
X0448485Y0230636D02*
Y0240290D01*
X0456485Y0229236D02*
Y0240290D01*
X0454735Y0311245D02*
X0455326D01*
X0141289Y0295400D02*
X0144789Y0291900D01*
X0097989Y0295400D02*
X0141289D01*
X0119121Y0211900D02*
Y0251232D01*
X0143589Y0275700D01*
X0150000Y0282111D01*
Y0304900D01*
Y0311400D01*
X0457585Y0300433D02*
Y0308985D01*
X0455326Y0311245D02*
X0457585Y0308985D01*
X0438929Y0316927D02*
X0438929Y0316927D01*
Y0310440D02*
Y0316927D01*
X0437585Y0300433D02*
Y0304958D01*
X0432585Y0310395D02*
X0432630Y0310440D01*
X0432585Y0300433D02*
Y0310395D01*
X0427429Y0310440D02*
X0432630D01*
X0468884D02*
X0474085D01*
X0468884Y0316934D02*
X0474085D01*
X0468884Y0307194D02*
Y0310440D01*
X0467585Y0305895D02*
X0468884Y0307194D01*
X0467585Y0300433D02*
Y0305895D01*
X0462585Y0300433D02*
Y0310440D01*
X0462585Y0310440D01*
Y0316934D01*
X0250997Y0313145D02*
X0251052Y0313090D01*
Y0317385D01*
X0257552Y0313090D02*
Y0317385D01*
X0244552Y0313090D02*
Y0317385D01*
X0258452Y0293867D02*
Y0299385D01*
X0263452Y0293867D02*
Y0299385D01*
X0359552Y0293867D02*
Y0299385D01*
X0354552Y0293867D02*
Y0299385D01*
X0341552Y0313090D02*
Y0317385D01*
X0354552Y0313090D02*
Y0317385D01*
X0348052Y0313090D02*
Y0317385D01*
X0347997Y0313145D02*
X0348052Y0313090D01*
X0524307Y0310934D02*
X0529508D01*
X0530053Y0310389D01*
Y0300933D02*
Y0310389D01*
X0535053Y0305985D02*
X0535807Y0306739D01*
X0535053Y0300933D02*
Y0305985D01*
X0555053Y0300933D02*
Y0309895D01*
X0553203Y0311745D02*
X0555053Y0309895D01*
X0565807Y0317434D02*
X0571008D01*
X0565807Y0310940D02*
X0571008D01*
X0565053Y0300933D02*
Y0306485D01*
X0565807Y0307239D01*
Y0310940D01*
X0559508Y0310940D02*
Y0317434D01*
X0560053Y0300933D02*
Y0310395D01*
X0447585Y0254985D02*
Y0262047D01*
Y0254985D02*
X0449380Y0253190D01*
Y0248290D02*
Y0253190D01*
X0455680Y0248290D02*
Y0250990D01*
X0457585Y0252895D02*
Y0262047D01*
X0555053Y0253395D02*
Y0262547D01*
X0545053Y0255395D02*
Y0262547D01*
Y0255395D02*
X0546803Y0253645D01*
Y0248791D02*
Y0253645D01*
X0449380Y0241141D02*
Y0248290D01*
X0455680Y0241141D02*
Y0248290D01*
X0546803Y0241641D02*
Y0248791D01*
X0545953Y0240791D02*
X0546803Y0241641D01*
X0553102Y0241641D02*
Y0248791D01*
Y0241641D02*
X0553953Y0240791D01*
X0553147Y0251490D02*
X0555053Y0253395D01*
X0545953Y0231136D02*
X0549600Y0227489D01*
X0545953Y0231136D02*
Y0240791D01*
X0448485Y0230636D02*
X0452132Y0226989D01*
X0455680Y0250990D02*
X0457585Y0252895D01*
X0253452Y0268063D02*
Y0272213D01*
X0250589Y0265200D02*
X0253452Y0268063D01*
X0250589Y0261609D02*
Y0265200D01*
X0258452Y0268737D02*
Y0272213D01*
Y0268737D02*
X0261089Y0266100D01*
Y0261609D02*
Y0266100D01*
X0357189Y0261609D02*
Y0266100D01*
X0354552Y0268737D02*
X0357189Y0266100D01*
X0354552Y0268737D02*
Y0272213D01*
X0346689Y0261609D02*
Y0265200D01*
X0349552Y0268063D01*
Y0272213D01*
X0429921Y0254100D02*
X0432585Y0256764D01*
Y0262047D01*
X0429889Y0254100D02*
X0429921D01*
X0464343Y0250499D02*
X0465630D01*
X0461789Y0253053D02*
X0464343Y0250499D01*
X0461789Y0253053D02*
Y0255500D01*
X0452585Y0262047D02*
X0452589Y0262043D01*
Y0255600D02*
Y0262043D01*
X0442585Y0257296D02*
Y0262047D01*
X0439589Y0254300D02*
X0442585Y0257296D01*
X0439589Y0250509D02*
Y0254300D01*
X0537057Y0251009D02*
Y0254800D01*
X0540053Y0257796D01*
Y0262547D01*
X0559257Y0253553D02*
Y0256000D01*
Y0253553D02*
X0561810Y0250999D01*
X0563098D01*
X0550057Y0256100D02*
Y0262543D01*
X0550053Y0262547D02*
X0550057Y0262543D01*
X0527357Y0254600D02*
X0527389D01*
X0530053Y0257264D02*
Y0262547D01*
X0527389Y0254600D02*
X0530053Y0257264D01*
X0456485Y0229236D02*
X0458221Y0227500D01*
X0458289D01*
X0555644Y0228000D02*
X0555712D01*
X0553908Y0229736D02*
X0555644Y0228000D01*
X0505889Y0311550D02*
X0505989Y0311450D01*
Y0307300D02*
Y0311450D01*
X0408884Y0310917D02*
X0408984Y0310817D01*
X0319872Y0309017D02*
X0323484D01*
X0318589Y0310300D02*
X0319872Y0309017D01*
X0318589Y0310300D02*
Y0310400D01*
X0222289Y0299600D02*
Y0303750D01*
X0222189Y0303850D02*
X0222289Y0303750D01*
X0437585Y0304958D02*
X0438929Y0306302D01*
Y0310440D01*
X0540053Y0300933D02*
Y0305936D01*
X0538989Y0307000D02*
X0540053Y0305936D01*
X0442089Y0305700D02*
X0442585Y0305204D01*
Y0300433D02*
Y0305204D01*
G54D78*
X0581008Y0254440D02*
X0581598Y0253850D01*
Y0245940D02*
Y0253850D01*
X0365942Y0245090D02*
Y0251090D01*
X0373997Y0245940D02*
Y0251940D01*
X0277897Y0245940D02*
Y0251940D01*
X0269952Y0246791D02*
Y0252791D01*
X0242252Y0246791D02*
Y0252790D01*
X0484130Y0245440D02*
X0490130D01*
X0522098Y0237400D02*
Y0242141D01*
X0487489Y0235352D02*
X0487577Y0235440D01*
X0487489Y0231190D02*
Y0235352D01*
X0586344Y0231778D02*
Y0235940D01*
X0586432Y0236028D01*
X0424630Y0236900D02*
Y0241641D01*
G54D80*
X0189121Y0211900D02*
D03*
X0179121D02*
D03*
X0169121D02*
D03*
X0159121D02*
D03*
X0149121D02*
D03*
X0139121D02*
D03*
X0129121D02*
D03*
X0119121D02*
D03*
X0189121Y0201900D02*
D03*
X0179121D02*
D03*
X0169121D02*
D03*
X0159121D02*
D03*
X0149121D02*
D03*
X0139121D02*
D03*
X0129121D02*
D03*
G54D81*
X0119121D02*
D03*
G54D82*
X0255689Y0283500D02*
D03*
X0351789D02*
D03*
G54D83*
X0556444Y0201900D02*
D03*
X0546444D02*
D03*
X0536444D02*
D03*
X0460066D02*
D03*
X0450066D02*
D03*
X0440066D02*
D03*
X0363688D02*
D03*
X0353688D02*
D03*
X0343688D02*
D03*
X0267310D02*
D03*
X0257310D02*
D03*
X0247310D02*
D03*
G54D84*
X0526444D02*
D03*
X0430066D02*
D03*
X0333688D02*
D03*
X0237310D02*
D03*
G54D85*
X0332689Y0315000D02*
D03*
X0230989D02*
D03*
X0198089Y0318500D02*
D03*
X0197889Y0330000D02*
D03*
X0212789Y0323900D02*
D03*
X0418189Y0316800D02*
D03*
X0515194Y0317434D02*
D03*
G54D86*
X0436900Y0220611D02*
D03*
X0438889Y0217000D02*
D03*
X0287689Y0223100D02*
D03*
Y0207800D02*
D03*
X0099989Y0314300D02*
D03*
X0118689D02*
D03*
X0412139Y0216650D02*
D03*
X0508789Y0216600D02*
D03*
X0144789Y0291900D02*
D03*
X0150000Y0304900D02*
D03*
Y0311400D02*
D03*
X0143589Y0275700D02*
D03*
X0127989Y0222250D02*
D03*
X0097989Y0295400D02*
D03*
X0230197Y0266940D02*
D03*
X0236197D02*
D03*
X0242289Y0264400D02*
D03*
X0371442Y0266995D02*
D03*
X0377942D02*
D03*
X0466997Y0327440D02*
D03*
X0443997D02*
D03*
X0461997Y0324440D02*
D03*
X0427429Y0310440D02*
D03*
X0474085D02*
D03*
X0474085Y0316934D02*
D03*
X0365942Y0245090D02*
D03*
X0373997Y0245940D02*
D03*
X0277897D02*
D03*
X0269952Y0246791D02*
D03*
X0242252Y0246791D02*
D03*
X0251052Y0317385D02*
D03*
X0257552D02*
D03*
X0244552Y0317385D02*
D03*
X0258452Y0299385D02*
D03*
X0263452D02*
D03*
X0359552D02*
D03*
X0354552D02*
D03*
X0341552Y0317385D02*
D03*
X0354552Y0317385D02*
D03*
X0348052D02*
D03*
X0559508Y0328440D02*
D03*
X0571008Y0317434D02*
D03*
X0571008Y0310940D02*
D03*
X0490130Y0245440D02*
D03*
X0489130Y0263940D02*
D03*
X0492189Y0261300D02*
D03*
X0488630Y0254940D02*
D03*
X0492189Y0253300D02*
D03*
X0586553Y0264395D02*
D03*
X0588389Y0261400D02*
D03*
X0586008Y0255440D02*
D03*
X0588689Y0253300D02*
D03*
X0148500Y0328400D02*
D03*
X0194200Y0251900D02*
D03*
X0194200Y0258400D02*
D03*
X0160247Y0224947D02*
D03*
X0138200Y0236400D02*
D03*
X0138200Y0227900D02*
D03*
X0189200Y0237400D02*
D03*
Y0229400D02*
D03*
X0166700Y0229900D02*
D03*
Y0237400D02*
D03*
X0149350Y0222250D02*
D03*
X0091500Y0211900D02*
D03*
X0099200D02*
D03*
X0106840Y0230800D02*
D03*
X0144500Y0281900D02*
D03*
X0091600Y0220589D02*
D03*
X0536839Y0219000D02*
D03*
X0523429Y0231184D02*
D03*
X0519289Y0233300D02*
D03*
X0522098Y0237400D02*
D03*
X0549600Y0227489D02*
D03*
X0524307Y0310934D02*
D03*
X0452132Y0226989D02*
D03*
X0487489Y0231190D02*
D03*
X0586344Y0231778D02*
D03*
X0443189Y0228100D02*
D03*
X0541589Y0228200D02*
D03*
X0424630Y0236900D02*
D03*
X0426729Y0231184D02*
D03*
X0422589Y0233300D02*
D03*
X0299089Y0228100D02*
D03*
X0295200Y0211400D02*
D03*
X0294339Y0219000D02*
D03*
X0308032Y0226989D02*
D03*
X0280929Y0231184D02*
D03*
X0276789Y0233300D02*
D03*
X0271239Y0220050D02*
D03*
X0443889Y0322548D02*
D03*
X0473889Y0335300D02*
D03*
X0337789Y0265300D02*
D03*
X0332297Y0266940D02*
D03*
X0326297D02*
D03*
X0429889Y0254100D02*
D03*
X0461789Y0255500D02*
D03*
X0452589Y0255600D02*
D03*
X0559257Y0256000D02*
D03*
X0550057Y0256100D02*
D03*
X0527357Y0254600D02*
D03*
X0458289Y0227500D02*
D03*
X0555712Y0228000D02*
D03*
X0505989Y0307300D02*
D03*
X0408984Y0306666D02*
D03*
X0318589Y0310400D02*
D03*
X0222289Y0299600D02*
D03*
X0442089Y0305700D02*
D03*
X0314997Y0335440D02*
D03*
X0538989Y0307000D02*
D03*
X0466997Y0332440D02*
D03*
X0449589D02*
D03*
X0533039Y0218050D02*
D03*
X0230789Y0245600D02*
D03*
X0235189D02*
D03*
X0232889Y0242800D02*
D03*
X0241289Y0243200D02*
D03*
X0327489Y0243400D02*
D03*
X0329789Y0246200D02*
D03*
X0325389D02*
D03*
X0338589Y0243300D02*
D03*
X0335389D02*
D03*
X0336952Y0246890D02*
D03*
X0244489Y0244400D02*
D03*
G54D87*
X0102000Y0280108D02*
D03*
X0106724Y0284045D02*
D03*
X0102000D02*
D03*
X0097276D02*
D03*
X0102000Y0287982D02*
D03*
G54D88*
X0344552Y0293867D02*
D03*
X0349552D02*
D03*
X0354552D02*
D03*
X0359552D02*
D03*
X0344552Y0272213D02*
D03*
X0349552D02*
D03*
X0354552D02*
D03*
X0359552D02*
D03*
X0248452Y0293867D02*
D03*
X0253452D02*
D03*
X0258452D02*
D03*
X0263452D02*
D03*
X0248452Y0272213D02*
D03*
X0253452D02*
D03*
X0258452D02*
D03*
X0263452D02*
D03*
G54D89*
X0565053Y0262547D02*
D03*
X0560053D02*
D03*
X0555053D02*
D03*
X0550053D02*
D03*
X0545053D02*
D03*
X0540053D02*
D03*
X0535053D02*
D03*
X0530053D02*
D03*
X0565053Y0300933D02*
D03*
X0560053D02*
D03*
X0555053D02*
D03*
X0550053D02*
D03*
X0545053D02*
D03*
X0540053D02*
D03*
X0535053D02*
D03*
X0530053D02*
D03*
X0467585Y0262047D02*
D03*
X0462585D02*
D03*
X0457585D02*
D03*
X0452585D02*
D03*
X0447585D02*
D03*
X0442585D02*
D03*
X0437585D02*
D03*
X0432585D02*
D03*
X0467585Y0300433D02*
D03*
X0462585D02*
D03*
X0457585D02*
D03*
X0452585D02*
D03*
X0447585D02*
D03*
X0442585D02*
D03*
X0437585D02*
D03*
X0432585D02*
D03*
G54D90*
X0586344Y0235940D02*
D03*
X0573451D02*
D03*
X0487577Y0235440D02*
D03*
X0474683D02*
D03*
G54D91*
X0495488Y0201900D02*
D03*
X0512890D02*
D03*
X0397288D02*
D03*
X0414690D02*
D03*
G54D92*
X0549257Y0222213D02*
X0559402D01*
X0549257Y0212842D02*
Y0222213D01*
X0540244D02*
X0549257D01*
X0451789Y0221713D02*
X0461934D01*
X0451789Y0214800D02*
Y0221713D01*
X0442776D02*
X0451789D01*
X0267310Y0201900D02*
Y0205379D01*
X0250589Y0222100D02*
X0267310Y0205379D01*
X0250589Y0222100D02*
Y0250191D01*
X0363688Y0201900D02*
Y0207279D01*
X0346689Y0224278D02*
X0363688Y0207279D01*
X0250589Y0250191D02*
X0261089D01*
X0346689Y0224278D02*
Y0250191D01*
X0357189D01*
X0438389Y0237891D02*
X0439589Y0239091D01*
X0438389Y0226100D02*
Y0237891D01*
Y0226100D02*
X0442776Y0221713D01*
X0465630Y0225409D02*
Y0239082D01*
X0461934Y0221713D02*
X0465630Y0225409D01*
X0431130Y0241641D02*
X0433679Y0239091D01*
X0439589D01*
X0451789Y0214800D02*
X0460066Y0206523D01*
Y0201900D02*
Y0206523D01*
X0447989Y0221713D02*
X0451789Y0217913D01*
Y0218313D02*
X0455189Y0221713D01*
X0549257Y0218813D02*
X0552657Y0222213D01*
X0545457D02*
X0549257Y0218413D01*
X0531147Y0239591D02*
X0537057D01*
X0528598Y0242141D02*
X0531147Y0239591D01*
X0559402Y0222213D02*
X0563098Y0225909D01*
Y0239582D01*
X0535857Y0226600D02*
X0540244Y0222213D01*
X0535857Y0226600D02*
Y0238391D01*
X0537057Y0239591D01*
X0549257Y0212842D02*
X0556444Y0205654D01*
Y0201900D02*
Y0205654D01*
X0414690Y0201900D02*
X0430066D01*
X0512890D02*
X0526444D01*
G54D93*
X0277897Y0259940D02*
X0278397Y0260440D01*
X0308032Y0226989D02*
Y0249457D01*
X0277897Y0259940D02*
X0297549D01*
X0308032Y0249457D01*
M02*
