G04*
G04 #@! TF.GenerationSoftware,Altium Limited,Altium Designer,18.1.9 (240)*
G04*
G04 Layer_Color=8388736*
%FSAX25Y25*%
%MOIN*%
G70*
G01*
G75*
%ADD15C,0.00800*%
%ADD17C,0.00600*%
%ADD25C,0.01000*%
%ADD47R,0.06693X0.04724*%
G04:AMPARAMS|DCode=48|XSize=79.13mil|YSize=50mil|CornerRadius=4.04mil|HoleSize=0mil|Usage=FLASHONLY|Rotation=90.000|XOffset=0mil|YOffset=0mil|HoleType=Round|Shape=RoundedRectangle|*
%AMROUNDEDRECTD48*
21,1,0.07913,0.04192,0,0,90.0*
21,1,0.07105,0.05000,0,0,90.0*
1,1,0.00808,0.02096,0.03553*
1,1,0.00808,0.02096,-0.03553*
1,1,0.00808,-0.02096,-0.03553*
1,1,0.00808,-0.02096,0.03553*
%
%ADD48ROUNDEDRECTD48*%
%ADD49R,0.04331X0.04134*%
%ADD50R,0.04134X0.04331*%
%ADD51R,0.05394X0.06694*%
%ADD52R,0.06694X0.05394*%
%ADD53R,0.07677X0.05512*%
%ADD54R,0.10433X0.10039*%
%ADD55R,0.06693X0.10630*%
%ADD56O,0.06102X0.02756*%
%ADD57R,0.08858X0.10039*%
%ADD58O,0.01575X0.02756*%
%ADD59R,0.12205X0.10630*%
%ADD60C,0.07874*%
%ADD61O,0.05906X0.02165*%
%ADD62R,0.08268X0.08268*%
%ADD63R,0.05197X0.03996*%
G04:AMPARAMS|DCode=64|XSize=27.56mil|YSize=43.31mil|CornerRadius=7.87mil|HoleSize=0mil|Usage=FLASHONLY|Rotation=180.000|XOffset=0mil|YOffset=0mil|HoleType=Round|Shape=RoundedRectangle|*
%AMROUNDEDRECTD64*
21,1,0.02756,0.02756,0,0,180.0*
21,1,0.01181,0.04331,0,0,180.0*
1,1,0.01575,-0.00591,0.01378*
1,1,0.01575,0.00591,0.01378*
1,1,0.01575,0.00591,-0.01378*
1,1,0.01575,-0.00591,-0.01378*
%
%ADD64ROUNDEDRECTD64*%
%ADD65R,0.03543X0.03543*%
G04:AMPARAMS|DCode=66|XSize=27.56mil|YSize=43.31mil|CornerRadius=3.98mil|HoleSize=0mil|Usage=FLASHONLY|Rotation=0.000|XOffset=0mil|YOffset=0mil|HoleType=Round|Shape=RoundedRectangle|*
%AMROUNDEDRECTD66*
21,1,0.02756,0.03535,0,0,0.0*
21,1,0.01961,0.04331,0,0,0.0*
1,1,0.00795,0.00980,-0.01768*
1,1,0.00795,-0.00980,-0.01768*
1,1,0.00795,-0.00980,0.01768*
1,1,0.00795,0.00980,0.01768*
%
%ADD66ROUNDEDRECTD66*%
%ADD67R,0.02756X0.03543*%
%ADD68C,0.06890*%
G04:AMPARAMS|DCode=69|XSize=68.9mil|YSize=68.9mil|CornerRadius=18.21mil|HoleSize=0mil|Usage=FLASHONLY|Rotation=90.000|XOffset=0mil|YOffset=0mil|HoleType=Round|Shape=RoundedRectangle|*
%AMROUNDEDRECTD69*
21,1,0.06890,0.03248,0,0,90.0*
21,1,0.03248,0.06890,0,0,90.0*
1,1,0.03642,0.01624,0.01624*
1,1,0.03642,0.01624,-0.01624*
1,1,0.03642,-0.01624,-0.01624*
1,1,0.03642,-0.01624,0.01624*
%
%ADD69ROUNDEDRECTD69*%
%ADD70O,0.26000X0.03000*%
%ADD71C,0.06693*%
%ADD72R,0.06693X0.06693*%
%ADD73C,0.08394*%
%ADD74C,0.02794*%
%ADD75C,0.02362*%
G36*
X0204200Y0185900D02*
Y0259300D01*
Y0281211D01*
X0212989Y0290000D01*
X0269489Y0290000D01*
X0329789D01*
X0378489Y0290000D01*
X0594200D01*
X0594200Y0276500D01*
X0377700Y0276500D01*
X0332389Y0276500D01*
X0269289Y0276500D01*
X0229289Y0276500D01*
X0224200Y0271411D01*
Y0185900D01*
X0204200D01*
D02*
G37*
G54D15*
X0126900Y0073549D02*
X0130899D01*
X0128899D01*
Y0067551D01*
X0133898D02*
X0135897D01*
X0136897Y0068550D01*
Y0070550D01*
X0135897Y0071549D01*
X0133898D01*
X0132898Y0070550D01*
Y0068550D01*
X0133898Y0067551D01*
X0138896Y0065551D02*
Y0071549D01*
X0141895D01*
X0142895Y0070550D01*
Y0068550D01*
X0141895Y0067551D01*
X0138896D01*
X0154891Y0072549D02*
X0153891Y0073549D01*
X0151892D01*
X0150892Y0072549D01*
Y0071549D01*
X0151892Y0070550D01*
X0153891D01*
X0154891Y0069550D01*
Y0068550D01*
X0153891Y0067551D01*
X0151892D01*
X0150892Y0068550D01*
X0157890Y0067551D02*
X0159889D01*
X0160889Y0068550D01*
Y0070550D01*
X0159889Y0071549D01*
X0157890D01*
X0156890Y0070550D01*
Y0068550D01*
X0157890Y0067551D01*
X0162888D02*
X0164888D01*
X0163888D01*
Y0073549D01*
X0162888D01*
X0171885D02*
Y0067551D01*
X0168886D01*
X0167887Y0068550D01*
Y0070550D01*
X0168886Y0071549D01*
X0171885D01*
X0176884Y0067551D02*
X0174884D01*
X0173885Y0068550D01*
Y0070550D01*
X0174884Y0071549D01*
X0176884D01*
X0177884Y0070550D01*
Y0069550D01*
X0173885D01*
X0179883Y0071549D02*
Y0067551D01*
Y0069550D01*
X0180883Y0070550D01*
X0181882Y0071549D01*
X0182882D01*
X0126900Y0073549D02*
X0130899D01*
X0128899D01*
Y0067551D01*
X0133898D02*
X0135897D01*
X0136897Y0068550D01*
Y0070550D01*
X0135897Y0071549D01*
X0133898D01*
X0132898Y0070550D01*
Y0068550D01*
X0133898Y0067551D01*
X0138896Y0065551D02*
Y0071549D01*
X0141895D01*
X0142895Y0070550D01*
Y0068550D01*
X0141895Y0067551D01*
X0138896D01*
X0154891Y0072549D02*
X0153891Y0073549D01*
X0151892D01*
X0150892Y0072549D01*
Y0071549D01*
X0151892Y0070550D01*
X0153891D01*
X0154891Y0069550D01*
Y0068550D01*
X0153891Y0067551D01*
X0151892D01*
X0150892Y0068550D01*
X0157890Y0067551D02*
X0159889D01*
X0160889Y0068550D01*
Y0070550D01*
X0159889Y0071549D01*
X0157890D01*
X0156890Y0070550D01*
Y0068550D01*
X0157890Y0067551D01*
X0162888D02*
X0164888D01*
X0163888D01*
Y0073549D01*
X0162888D01*
X0171885D02*
Y0067551D01*
X0168886D01*
X0167887Y0068550D01*
Y0070550D01*
X0168886Y0071549D01*
X0171885D01*
X0176884Y0067551D02*
X0174884D01*
X0173885Y0068550D01*
Y0070550D01*
X0174884Y0071549D01*
X0176884D01*
X0177884Y0070550D01*
Y0069550D01*
X0173885D01*
X0179883Y0071549D02*
Y0067551D01*
Y0069550D01*
X0180883Y0070550D01*
X0181882Y0071549D01*
X0182882D01*
X0045850Y0073649D02*
Y0067651D01*
X0049849D01*
X0051848D02*
Y0071649D01*
X0053847Y0073649D01*
X0055847Y0071649D01*
Y0067651D01*
Y0070650D01*
X0051848D01*
X0057846Y0073649D02*
Y0072649D01*
X0059846Y0070650D01*
X0061845Y0072649D01*
Y0073649D01*
X0059846Y0070650D02*
Y0067651D01*
X0067843Y0073649D02*
X0063844D01*
Y0067651D01*
X0067843D01*
X0063844Y0070650D02*
X0065843D01*
X0069842Y0067651D02*
Y0073649D01*
X0072841D01*
X0073841Y0072649D01*
Y0070650D01*
X0072841Y0069650D01*
X0069842D01*
X0071842D02*
X0073841Y0067651D01*
X0081838D02*
Y0073649D01*
X0085837Y0067651D01*
Y0073649D01*
X0087836Y0067651D02*
Y0071649D01*
X0089836Y0073649D01*
X0091835Y0071649D01*
Y0067651D01*
Y0070650D01*
X0087836D01*
X0093835Y0067651D02*
Y0073649D01*
X0095834Y0071649D01*
X0097833Y0073649D01*
Y0067651D01*
X0103831Y0073649D02*
X0099832D01*
Y0067651D01*
X0103831D01*
X0099832Y0070650D02*
X0101832D01*
X0111829Y0069650D02*
X0115827D01*
X0111829Y0071649D02*
X0115827D01*
X0348550Y0073498D02*
X0352549D01*
X0350549D01*
Y0067500D01*
X0354548Y0073498D02*
X0356547D01*
X0355548D01*
Y0067500D01*
X0354548D01*
X0356547D01*
X0359546Y0073498D02*
Y0067500D01*
X0362545D01*
X0363545Y0068500D01*
Y0072498D01*
X0362545Y0073498D01*
X0359546D01*
X0365545Y0067500D02*
Y0071499D01*
X0367544Y0073498D01*
X0369543Y0071499D01*
Y0067500D01*
Y0070499D01*
X0365545D01*
X0371543D02*
X0375541D01*
X0377541Y0072498D02*
X0378540Y0073498D01*
X0380540D01*
X0381539Y0072498D01*
Y0068500D01*
X0380540Y0067500D01*
X0378540D01*
X0377541Y0068500D01*
Y0072498D01*
X0383539Y0067500D02*
X0385538D01*
X0384538D01*
Y0073498D01*
X0383539Y0072498D01*
X0392536Y0073498D02*
X0390536Y0072498D01*
X0388537Y0070499D01*
Y0068500D01*
X0389537Y0067500D01*
X0391536D01*
X0392536Y0068500D01*
Y0069499D01*
X0391536Y0070499D01*
X0388537D01*
X0394535Y0072498D02*
X0395535Y0073498D01*
X0397534D01*
X0398534Y0072498D01*
Y0068500D01*
X0397534Y0067500D01*
X0395535D01*
X0394535Y0068500D01*
Y0072498D01*
X0404532Y0073498D02*
X0402532Y0072498D01*
X0400533Y0070499D01*
Y0068500D01*
X0401533Y0067500D01*
X0403532D01*
X0404532Y0068500D01*
Y0069499D01*
X0403532Y0070499D01*
X0400533D01*
X0294000Y0073498D02*
X0297999D01*
X0295999D01*
Y0067500D01*
X0299998Y0073498D02*
X0301997D01*
X0300998D01*
Y0067500D01*
X0299998D01*
X0301997D01*
X0304996Y0073498D02*
Y0067500D01*
X0307996D01*
X0308995Y0068500D01*
Y0072498D01*
X0307996Y0073498D01*
X0304996D01*
X0317992Y0067500D02*
Y0073498D01*
X0319992D02*
Y0067500D01*
X0316993Y0071499D02*
X0319992D01*
X0320991D01*
X0316993Y0069499D02*
X0320991D01*
X0322991Y0071499D02*
X0323990D01*
Y0070499D01*
X0322991D01*
Y0071499D01*
Y0068500D02*
X0323990D01*
Y0067500D01*
X0322991D01*
Y0068500D01*
X0580500Y0052965D02*
X0584499D01*
X0582499D01*
Y0046966D01*
X0590497Y0052965D02*
X0586498D01*
Y0046966D01*
X0590497D01*
X0586498Y0049966D02*
X0588497D01*
X0592496Y0052965D02*
X0596495Y0046966D01*
Y0052965D02*
X0592496Y0046966D01*
X0598494D02*
Y0050965D01*
X0600493Y0052965D01*
X0602493Y0050965D01*
Y0046966D01*
Y0049966D01*
X0598494D01*
X0608491Y0051965D02*
X0607491Y0052965D01*
X0605492D01*
X0604492Y0051965D01*
Y0050965D01*
X0605492Y0049966D01*
X0607491D01*
X0608491Y0048966D01*
Y0047966D01*
X0607491Y0046966D01*
X0605492D01*
X0604492Y0047966D01*
X0616488Y0052965D02*
X0618488D01*
X0617488D01*
Y0046966D01*
X0616488D01*
X0618488D01*
X0621487D02*
Y0052965D01*
X0625486Y0046966D01*
Y0052965D01*
X0631484Y0051965D02*
X0630484Y0052965D01*
X0628484D01*
X0627485Y0051965D01*
Y0050965D01*
X0628484Y0049966D01*
X0630484D01*
X0631484Y0048966D01*
Y0047966D01*
X0630484Y0046966D01*
X0628484D01*
X0627485Y0047966D01*
X0633483Y0052965D02*
X0637482D01*
X0635482D01*
Y0046966D01*
X0639481D02*
Y0052965D01*
X0642480D01*
X0643480Y0051965D01*
Y0049966D01*
X0642480Y0048966D01*
X0639481D01*
X0641480D02*
X0643480Y0046966D01*
X0645479Y0052965D02*
Y0047966D01*
X0646479Y0046966D01*
X0648478D01*
X0649478Y0047966D01*
Y0052965D01*
X0651477Y0046966D02*
Y0052965D01*
X0653476Y0050965D01*
X0655476Y0052965D01*
Y0046966D01*
X0661474Y0052965D02*
X0657475D01*
Y0046966D01*
X0661474D01*
X0657475Y0049966D02*
X0659474D01*
X0663473Y0046966D02*
Y0052965D01*
X0667472Y0046966D01*
Y0052965D01*
X0669471D02*
X0673470D01*
X0671471D01*
Y0046966D01*
X0679468Y0051965D02*
X0678468Y0052965D01*
X0676469D01*
X0675469Y0051965D01*
Y0050965D01*
X0676469Y0049966D01*
X0678468D01*
X0679468Y0048966D01*
Y0047966D01*
X0678468Y0046966D01*
X0676469D01*
X0675469Y0047966D01*
X0454050Y0051965D02*
X0455050Y0052965D01*
X0457049D01*
X0458049Y0051965D01*
Y0050965D01*
X0457049Y0049966D01*
X0458049Y0048966D01*
Y0047966D01*
X0457049Y0046966D01*
X0455050D01*
X0454050Y0047966D01*
Y0048966D01*
X0455050Y0049966D01*
X0454050Y0050965D01*
Y0051965D01*
X0455050Y0049966D02*
X0457049D01*
X0460048Y0050965D02*
X0461048D01*
Y0049966D01*
X0460048D01*
Y0050965D01*
Y0047966D02*
X0461048D01*
Y0046966D01*
X0460048D01*
Y0047966D01*
X0465046Y0051965D02*
X0466046Y0052965D01*
X0468046D01*
X0469045Y0051965D01*
Y0050965D01*
X0468046Y0049966D01*
X0467046D01*
X0468046D01*
X0469045Y0048966D01*
Y0047966D01*
X0468046Y0046966D01*
X0466046D01*
X0465046Y0047966D01*
X0471044D02*
X0472044Y0046966D01*
X0474044D01*
X0475043Y0047966D01*
Y0051965D01*
X0474044Y0052965D01*
X0472044D01*
X0471044Y0051965D01*
Y0050965D01*
X0472044Y0049966D01*
X0475043D01*
X0477043Y0050965D02*
X0478042D01*
Y0049966D01*
X0477043D01*
Y0050965D01*
Y0047966D02*
X0478042D01*
Y0046966D01*
X0477043D01*
Y0047966D01*
X0485040Y0046966D02*
Y0052965D01*
X0482041Y0049966D01*
X0486040D01*
X0488039Y0051965D02*
X0489039Y0052965D01*
X0491038D01*
X0492038Y0051965D01*
Y0047966D01*
X0491038Y0046966D01*
X0489039D01*
X0488039Y0047966D01*
Y0051965D01*
X0500035Y0046966D02*
Y0050965D01*
X0502035Y0052965D01*
X0504034Y0050965D01*
Y0046966D01*
Y0049966D01*
X0500035D01*
X0506033Y0046966D02*
Y0052965D01*
X0508033Y0050965D01*
X0510032Y0052965D01*
Y0046966D01*
X0046350D02*
Y0052965D01*
X0049349D01*
X0050349Y0051965D01*
Y0049966D01*
X0049349Y0048966D01*
X0046350D01*
X0052348Y0052965D02*
Y0046966D01*
X0056347D01*
X0061345Y0052965D02*
X0059346D01*
X0058346Y0051965D01*
Y0047966D01*
X0059346Y0046966D01*
X0061345D01*
X0062345Y0047966D01*
Y0051965D01*
X0061345Y0052965D01*
X0064344D02*
X0068343D01*
X0066343D01*
Y0046966D01*
X0076340D02*
Y0052965D01*
X0080339Y0046966D01*
Y0052965D01*
X0082338Y0046966D02*
Y0050965D01*
X0084338Y0052965D01*
X0086337Y0050965D01*
Y0046966D01*
Y0049966D01*
X0082338D01*
X0088336Y0046966D02*
Y0052965D01*
X0090336Y0050965D01*
X0092335Y0052965D01*
Y0046966D01*
X0098333Y0052965D02*
X0094335D01*
Y0046966D01*
X0098333D01*
X0094335Y0049966D02*
X0096334D01*
X0106331Y0048966D02*
X0110329D01*
X0106331Y0050965D02*
X0110329D01*
X0294000Y0093831D02*
Y0087833D01*
X0296999D01*
X0297999Y0088833D01*
Y0089833D01*
X0296999Y0090832D01*
X0294000D01*
X0296999D01*
X0297999Y0091832D01*
Y0092832D01*
X0296999Y0093831D01*
X0294000D01*
X0302997D02*
X0300998D01*
X0299998Y0092832D01*
Y0088833D01*
X0300998Y0087833D01*
X0302997D01*
X0303997Y0088833D01*
Y0092832D01*
X0302997Y0093831D01*
X0305996Y0087833D02*
Y0091832D01*
X0307996Y0093831D01*
X0309995Y0091832D01*
Y0087833D01*
Y0090832D01*
X0305996D01*
X0311994Y0087833D02*
Y0093831D01*
X0314993D01*
X0315993Y0092832D01*
Y0090832D01*
X0314993Y0089833D01*
X0311994D01*
X0313994D02*
X0315993Y0087833D01*
X0317992Y0093831D02*
Y0087833D01*
X0320991D01*
X0321991Y0088833D01*
Y0092832D01*
X0320991Y0093831D01*
X0317992D01*
X0330988Y0087833D02*
Y0093831D01*
X0332987D02*
Y0087833D01*
X0329988Y0091832D02*
X0332987D01*
X0333987D01*
X0329988Y0089833D02*
X0333987D01*
X0335986Y0091832D02*
X0336986D01*
Y0090832D01*
X0335986D01*
Y0091832D01*
Y0088833D02*
X0336986D01*
Y0087833D01*
X0335986D01*
Y0088833D01*
X0466149Y0093831D02*
X0462150D01*
Y0087833D01*
X0466149D01*
X0462150Y0090832D02*
X0464149D01*
X0471147Y0087833D02*
Y0093831D01*
X0468148Y0090832D01*
X0472147D01*
X0046350Y0087833D02*
Y0091832D01*
X0048349Y0093831D01*
X0050349Y0091832D01*
Y0087833D01*
Y0090832D01*
X0046350D01*
X0052348Y0093831D02*
Y0087833D01*
X0056347D01*
X0058346Y0093831D02*
Y0087833D01*
X0062345D01*
X0070342D02*
Y0091832D01*
X0072342Y0093831D01*
X0074341Y0091832D01*
Y0087833D01*
Y0090832D01*
X0070342D01*
X0076340Y0087833D02*
Y0093831D01*
X0079339D01*
X0080339Y0092832D01*
Y0090832D01*
X0079339Y0089833D01*
X0076340D01*
X0078340D02*
X0080339Y0087833D01*
X0082338Y0093831D02*
X0086337D01*
X0084338D01*
Y0087833D01*
X0088336Y0093831D02*
Y0087833D01*
X0090336Y0089833D01*
X0092335Y0087833D01*
Y0093831D01*
X0097334D02*
X0095334D01*
X0094335Y0092832D01*
Y0088833D01*
X0095334Y0087833D01*
X0097334D01*
X0098333Y0088833D01*
Y0092832D01*
X0097334Y0093831D01*
X0100332Y0087833D02*
Y0093831D01*
X0103332D01*
X0104331Y0092832D01*
Y0090832D01*
X0103332Y0089833D01*
X0100332D01*
X0102332D02*
X0104331Y0087833D01*
X0106331Y0093831D02*
Y0087833D01*
Y0089833D01*
X0110329Y0093831D01*
X0107330Y0090832D01*
X0110329Y0087833D01*
X0118327Y0093831D02*
Y0089833D01*
X0120326Y0087833D01*
X0122325Y0089833D01*
Y0093831D01*
X0124325D02*
X0126324D01*
X0125324D01*
Y0087833D01*
X0124325D01*
X0126324D01*
X0133322Y0093831D02*
X0129323D01*
Y0087833D01*
X0133322D01*
X0129323Y0090832D02*
X0131323D01*
X0135321Y0093831D02*
Y0087833D01*
X0137321Y0089833D01*
X0139320Y0087833D01*
Y0093831D01*
X0145318D02*
X0141319D01*
Y0087833D01*
X0145318D01*
X0141319Y0090832D02*
X0143319D01*
X0147317Y0093831D02*
Y0087833D01*
X0150316D01*
X0151316Y0088833D01*
Y0092832D01*
X0150316Y0093831D01*
X0147317D01*
X0163312D02*
X0159313D01*
Y0090832D01*
X0161313D01*
X0159313D01*
Y0087833D01*
X0165312D02*
Y0093831D01*
X0168310D01*
X0169310Y0092832D01*
Y0090832D01*
X0168310Y0089833D01*
X0165312D01*
X0167311D02*
X0169310Y0087833D01*
X0174309Y0093831D02*
X0172309D01*
X0171310Y0092832D01*
Y0088833D01*
X0172309Y0087833D01*
X0174309D01*
X0175308Y0088833D01*
Y0092832D01*
X0174309Y0093831D01*
X0177308Y0087833D02*
Y0093831D01*
X0179307Y0091832D01*
X0181306Y0093831D01*
Y0087833D01*
X0189304Y0093831D02*
X0193303D01*
X0191303D01*
Y0087833D01*
X0198301Y0093831D02*
X0196301D01*
X0195302Y0092832D01*
Y0088833D01*
X0196301Y0087833D01*
X0198301D01*
X0199301Y0088833D01*
Y0092832D01*
X0198301Y0093831D01*
X0201300Y0087833D02*
Y0093831D01*
X0204299D01*
X0205299Y0092832D01*
Y0090832D01*
X0204299Y0089833D01*
X0201300D01*
X0217295Y0092832D02*
X0216295Y0093831D01*
X0214296D01*
X0213296Y0092832D01*
Y0091832D01*
X0214296Y0090832D01*
X0216295D01*
X0217295Y0089833D01*
Y0088833D01*
X0216295Y0087833D01*
X0214296D01*
X0213296Y0088833D01*
X0219294Y0093831D02*
X0221293D01*
X0220294D01*
Y0087833D01*
X0219294D01*
X0221293D01*
X0224292Y0093831D02*
Y0087833D01*
X0227291D01*
X0228291Y0088833D01*
Y0092832D01*
X0227291Y0093831D01*
X0224292D01*
X0234289D02*
X0230291D01*
Y0087833D01*
X0234289D01*
X0230291Y0090832D02*
X0232290D01*
X0298199Y0051965D02*
X0297199Y0052965D01*
X0295200D01*
X0294200Y0051965D01*
Y0047966D01*
X0295200Y0046966D01*
X0297199D01*
X0298199Y0047966D01*
Y0049966D01*
X0296199D01*
X0304197Y0052965D02*
X0300198D01*
Y0046966D01*
X0304197D01*
X0300198Y0049966D02*
X0302197D01*
X0306196Y0046966D02*
Y0052965D01*
X0310195Y0046966D01*
Y0052965D01*
X0316193D02*
X0312194D01*
Y0046966D01*
X0316193D01*
X0312194Y0049966D02*
X0314194D01*
X0318192Y0046966D02*
Y0052965D01*
X0321191D01*
X0322191Y0051965D01*
Y0049966D01*
X0321191Y0048966D01*
X0318192D01*
X0320192D02*
X0322191Y0046966D01*
X0324190D02*
Y0050965D01*
X0326190Y0052965D01*
X0328189Y0050965D01*
Y0046966D01*
Y0049966D01*
X0324190D01*
X0330188Y0052965D02*
X0334187D01*
X0332188D01*
Y0046966D01*
X0340185Y0052965D02*
X0336186D01*
Y0046966D01*
X0340185D01*
X0336186Y0049966D02*
X0338186D01*
X0342184Y0052965D02*
Y0046966D01*
X0345183D01*
X0346183Y0047966D01*
Y0051965D01*
X0345183Y0052965D01*
X0342184D01*
X0372175Y0050965D02*
X0373175D01*
Y0049966D01*
X0372175D01*
Y0050965D01*
Y0047966D02*
X0373175D01*
Y0046966D01*
X0372175D01*
Y0047966D01*
X0385149Y0046966D02*
X0381150D01*
X0385149Y0050965D01*
Y0051965D01*
X0384149Y0052965D01*
X0382150D01*
X0381150Y0051965D01*
X0387148Y0046966D02*
X0391147Y0050965D01*
X0393146Y0046966D02*
X0395146D01*
X0394146D01*
Y0052965D01*
X0393146Y0051965D01*
X0402143Y0052965D02*
X0398145D01*
Y0049966D01*
X0400144Y0050965D01*
X0401144D01*
X0402143Y0049966D01*
Y0047966D01*
X0401144Y0046966D01*
X0399144D01*
X0398145Y0047966D01*
X0404143Y0046966D02*
X0408141Y0050965D01*
X0414139Y0046966D02*
X0410141D01*
X0414139Y0050965D01*
Y0051965D01*
X0413140Y0052965D01*
X0411140D01*
X0410141Y0051965D01*
X0416139D02*
X0417138Y0052965D01*
X0419138D01*
X0420137Y0051965D01*
Y0047966D01*
X0419138Y0046966D01*
X0417138D01*
X0416139Y0047966D01*
Y0051965D01*
X0422137Y0046966D02*
X0424136D01*
X0423136D01*
Y0052965D01*
X0422137Y0051965D01*
X0427135Y0047966D02*
X0428135Y0046966D01*
X0430134D01*
X0431134Y0047966D01*
Y0051965D01*
X0430134Y0052965D01*
X0428135D01*
X0427135Y0051965D01*
Y0050965D01*
X0428135Y0049966D01*
X0431134D01*
X0433000Y0087833D02*
Y0093831D01*
X0435999D01*
X0436999Y0092832D01*
Y0090832D01*
X0435999Y0089833D01*
X0433000D01*
X0434999D02*
X0436999Y0087833D01*
X0442997Y0093831D02*
X0438998D01*
Y0087833D01*
X0442997D01*
X0438998Y0090832D02*
X0440997D01*
X0444996Y0093831D02*
Y0089833D01*
X0446995Y0087833D01*
X0448995Y0089833D01*
Y0093831D01*
X0450994Y0091832D02*
X0451994D01*
Y0090832D01*
X0450994D01*
Y0091832D01*
Y0088833D02*
X0451994D01*
Y0087833D01*
X0450994D01*
Y0088833D01*
X0520799Y0092832D02*
X0519799Y0093831D01*
X0517800D01*
X0516800Y0092832D01*
Y0091832D01*
X0517800Y0090832D01*
X0519799D01*
X0520799Y0089833D01*
Y0088833D01*
X0519799Y0087833D01*
X0517800D01*
X0516800Y0088833D01*
X0522798Y0093831D02*
Y0089833D01*
X0524797Y0087833D01*
X0526797Y0089833D01*
Y0093831D01*
X0528796Y0087833D02*
Y0093831D01*
X0532795Y0087833D01*
Y0093831D01*
X0540792Y0087833D02*
Y0093831D01*
X0543791D01*
X0544791Y0092832D01*
Y0090832D01*
X0543791Y0089833D01*
X0540792D01*
X0542792D02*
X0544791Y0087833D01*
X0550789Y0093831D02*
X0546790D01*
Y0087833D01*
X0550789D01*
X0546790Y0090832D02*
X0548790D01*
X0552788Y0093831D02*
Y0089833D01*
X0554788Y0087833D01*
X0556787Y0089833D01*
Y0093831D01*
X0558786Y0091832D02*
X0559786D01*
Y0090832D01*
X0558786D01*
Y0091832D01*
Y0088833D02*
X0559786D01*
Y0087833D01*
X0558786D01*
Y0088833D01*
X0567400Y0087833D02*
Y0093831D01*
X0571399Y0087833D01*
Y0093831D01*
X0574398Y0087833D02*
X0576397D01*
X0577397Y0088833D01*
Y0090832D01*
X0576397Y0091832D01*
X0574398D01*
X0573398Y0090832D01*
Y0088833D01*
X0574398Y0087833D01*
X0580396Y0092832D02*
Y0091832D01*
X0579396D01*
X0581395D01*
X0580396D01*
Y0088833D01*
X0581395Y0087833D01*
X0590393Y0093831D02*
X0592392D01*
X0591392D01*
Y0087833D01*
X0590393D01*
X0592392D01*
X0595391D02*
Y0091832D01*
X0598390D01*
X0599390Y0090832D01*
Y0087833D01*
X0607387Y0093831D02*
Y0089833D01*
X0609386Y0087833D01*
X0611386Y0089833D01*
Y0093831D01*
X0616384Y0087833D02*
X0614385D01*
X0613385Y0088833D01*
Y0090832D01*
X0614385Y0091832D01*
X0616384D01*
X0617384Y0090832D01*
Y0089833D01*
X0613385D01*
X0619383Y0091832D02*
Y0087833D01*
Y0089833D01*
X0620383Y0090832D01*
X0621383Y0091832D01*
X0622382D01*
X0625381Y0087833D02*
X0628380D01*
X0629380Y0088833D01*
X0628380Y0089833D01*
X0626381D01*
X0625381Y0090832D01*
X0626381Y0091832D01*
X0629380D01*
X0631379Y0087833D02*
X0633379D01*
X0632379D01*
Y0091832D01*
X0631379D01*
X0637377Y0087833D02*
X0639377D01*
X0640376Y0088833D01*
Y0090832D01*
X0639377Y0091832D01*
X0637377D01*
X0636378Y0090832D01*
Y0088833D01*
X0637377Y0087833D01*
X0642376D02*
Y0091832D01*
X0645375D01*
X0646374Y0090832D01*
Y0087833D01*
X0652373Y0092832D02*
X0651373Y0093831D01*
X0649373D01*
X0648374Y0092832D01*
Y0088833D01*
X0649373Y0087833D01*
X0651373D01*
X0652373Y0088833D01*
X0655372Y0087833D02*
X0657371D01*
X0658371Y0088833D01*
Y0090832D01*
X0657371Y0091832D01*
X0655372D01*
X0654372Y0090832D01*
Y0088833D01*
X0655372Y0087833D01*
X0660370D02*
Y0091832D01*
X0663369D01*
X0664369Y0090832D01*
Y0087833D01*
X0667368Y0092832D02*
Y0091832D01*
X0666368D01*
X0668367D01*
X0667368D01*
Y0088833D01*
X0668367Y0087833D01*
X0671366Y0091832D02*
Y0087833D01*
Y0089833D01*
X0672366Y0090832D01*
X0673366Y0091832D01*
X0674365D01*
X0678364Y0087833D02*
X0680364D01*
X0681363Y0088833D01*
Y0090832D01*
X0680364Y0091832D01*
X0678364D01*
X0677364Y0090832D01*
Y0088833D01*
X0678364Y0087833D01*
X0683362D02*
X0685362D01*
X0684362D01*
Y0093831D01*
X0683362D01*
G54D17*
X0348550Y0090832D02*
X0350549D01*
X0349550D01*
Y0087833D01*
X0351549Y0090832D02*
X0352549D01*
X0352049D01*
Y0087833D01*
X0351549D01*
X0352549D01*
X0354048Y0090832D02*
Y0087833D01*
X0355548D01*
X0356048Y0088333D01*
Y0090333D01*
X0355548Y0090832D01*
X0354048D01*
X0357047Y0087833D02*
Y0089833D01*
X0358047Y0090832D01*
X0359047Y0089833D01*
Y0087833D01*
Y0089333D01*
X0357047D01*
X0360046D02*
X0362046D01*
X0363045Y0090333D02*
X0363545Y0090832D01*
X0364545D01*
X0365045Y0090333D01*
Y0088333D01*
X0364545Y0087833D01*
X0363545D01*
X0363045Y0088333D01*
Y0090333D01*
X0366044Y0087833D02*
X0367044D01*
X0366544D01*
Y0090832D01*
X0366044Y0090333D01*
X0370543Y0090832D02*
X0369543Y0090333D01*
X0368544Y0089333D01*
Y0088333D01*
X0369043Y0087833D01*
X0370043D01*
X0370543Y0088333D01*
Y0088833D01*
X0370043Y0089333D01*
X0368544D01*
X0371543Y0090333D02*
X0372042Y0090832D01*
X0373042D01*
X0373542Y0090333D01*
Y0088333D01*
X0373042Y0087833D01*
X0372042D01*
X0371543Y0088333D01*
Y0090333D01*
X0376541Y0090832D02*
X0375541Y0090333D01*
X0374542Y0089333D01*
Y0088333D01*
X0375041Y0087833D01*
X0376041D01*
X0376541Y0088333D01*
Y0088833D01*
X0376041Y0089333D01*
X0374542D01*
X0377541Y0087334D02*
X0379540D01*
X0382539Y0090333D02*
X0382039Y0090832D01*
X0381040D01*
X0380540Y0090333D01*
Y0088333D01*
X0381040Y0087833D01*
X0382039D01*
X0382539Y0088333D01*
Y0089333D01*
X0381539D01*
X0384038Y0089833D02*
X0385038D01*
X0385538Y0089333D01*
Y0087833D01*
X0384038D01*
X0383539Y0088333D01*
X0384038Y0088833D01*
X0385538D01*
X0387038Y0090333D02*
Y0089833D01*
X0386538D01*
X0387537D01*
X0387038D01*
Y0088333D01*
X0387537Y0087833D01*
X0390536D02*
X0389537D01*
X0389037Y0088333D01*
Y0089333D01*
X0389537Y0089833D01*
X0390536D01*
X0391036Y0089333D01*
Y0088833D01*
X0389037D01*
X0395035Y0090832D02*
Y0087833D01*
X0396534D01*
X0397034Y0088333D01*
Y0090333D01*
X0396534Y0090832D01*
X0395035D01*
X0398034Y0089833D02*
Y0087833D01*
Y0088833D01*
X0398534Y0089333D01*
X0399034Y0089833D01*
X0399534D01*
X0401033Y0087833D02*
X0402033D01*
X0401533D01*
Y0089833D01*
X0401033D01*
X0403532D02*
X0404532Y0087833D01*
X0405532Y0089833D01*
X0408031Y0087833D02*
X0407031D01*
X0406531Y0088333D01*
Y0089333D01*
X0407031Y0089833D01*
X0408031D01*
X0408531Y0089333D01*
Y0088833D01*
X0406531D01*
X0409530Y0089833D02*
Y0087833D01*
Y0088833D01*
X0410030Y0089333D01*
X0410530Y0089833D01*
X0411030D01*
X0126900Y0049966D02*
X0128899D01*
X0127900D01*
Y0046966D01*
X0129899Y0049966D02*
X0130899D01*
X0130399D01*
Y0046966D01*
X0129899D01*
X0130899D01*
X0132398Y0049966D02*
Y0046966D01*
X0133898D01*
X0134398Y0047466D01*
Y0049466D01*
X0133898Y0049966D01*
X0132398D01*
X0135397Y0046966D02*
Y0048966D01*
X0136397Y0049966D01*
X0137397Y0048966D01*
Y0046966D01*
Y0048466D01*
X0135397D01*
X0138396D02*
X0140396D01*
X0141395Y0049466D02*
X0141895Y0049966D01*
X0142895D01*
X0143395Y0049466D01*
Y0047466D01*
X0142895Y0046966D01*
X0141895D01*
X0141395Y0047466D01*
Y0049466D01*
X0144394Y0046966D02*
X0145394D01*
X0144894D01*
Y0049966D01*
X0144394Y0049466D01*
X0148893Y0049966D02*
X0147893Y0049466D01*
X0146894Y0048466D01*
Y0047466D01*
X0147393Y0046966D01*
X0148393D01*
X0148893Y0047466D01*
Y0047966D01*
X0148393Y0048466D01*
X0146894D01*
X0149893Y0049466D02*
X0150392Y0049966D01*
X0151392D01*
X0151892Y0049466D01*
Y0047466D01*
X0151392Y0046966D01*
X0150392D01*
X0149893Y0047466D01*
Y0049466D01*
X0154891Y0049966D02*
X0153891Y0049466D01*
X0152892Y0048466D01*
Y0047466D01*
X0153391Y0046966D01*
X0154391D01*
X0154891Y0047466D01*
Y0047966D01*
X0154391Y0048466D01*
X0152892D01*
X0155891Y0046467D02*
X0157890D01*
X0160889Y0049466D02*
X0160389Y0049966D01*
X0159389D01*
X0158890Y0049466D01*
Y0047466D01*
X0159389Y0046966D01*
X0160389D01*
X0160889Y0047466D01*
Y0048466D01*
X0159889D01*
X0162389Y0048966D02*
X0163388D01*
X0163888Y0048466D01*
Y0046966D01*
X0162389D01*
X0161889Y0047466D01*
X0162389Y0047966D01*
X0163888D01*
X0165388Y0049466D02*
Y0048966D01*
X0164888D01*
X0165887D01*
X0165388D01*
Y0047466D01*
X0165887Y0046966D01*
X0168886D02*
X0167887D01*
X0167387Y0047466D01*
Y0048466D01*
X0167887Y0048966D01*
X0168886D01*
X0169386Y0048466D01*
Y0047966D01*
X0167387D01*
X0173385Y0049966D02*
Y0046966D01*
X0174884D01*
X0175384Y0047466D01*
Y0049466D01*
X0174884Y0049966D01*
X0173385D01*
X0176384Y0048966D02*
Y0046966D01*
Y0047966D01*
X0176884Y0048466D01*
X0177384Y0048966D01*
X0177884D01*
X0179383Y0046966D02*
X0180383D01*
X0179883D01*
Y0048966D01*
X0179383D01*
X0181882D02*
X0182882Y0046966D01*
X0183882Y0048966D01*
X0186381Y0046966D02*
X0185381D01*
X0184881Y0047466D01*
Y0048466D01*
X0185381Y0048966D01*
X0186381D01*
X0186881Y0048466D01*
Y0047966D01*
X0184881D01*
X0187880Y0048966D02*
Y0046966D01*
Y0047966D01*
X0188380Y0048466D01*
X0188880Y0048966D01*
X0189380D01*
X0192879Y0049966D02*
X0190879D01*
Y0046966D01*
X0192879D01*
X0190879Y0048466D02*
X0191879D01*
X0195378Y0046966D02*
Y0049966D01*
X0193878Y0048466D01*
X0195878D01*
X0196877Y0046966D02*
Y0047466D01*
X0197377D01*
Y0046966D01*
X0196877D01*
X0201376Y0049466D02*
X0200876Y0049966D01*
X0199876D01*
X0199376Y0049466D01*
Y0047466D01*
X0199876Y0046966D01*
X0200876D01*
X0201376Y0047466D01*
Y0048466D01*
X0200376D01*
X0202376Y0049966D02*
X0204375D01*
X0203375D01*
Y0046966D01*
X0207374Y0049466D02*
X0206874Y0049966D01*
X0205874D01*
X0205375Y0049466D01*
Y0048966D01*
X0205874Y0048466D01*
X0206874D01*
X0207374Y0047966D01*
Y0047466D01*
X0206874Y0046966D01*
X0205874D01*
X0205375Y0047466D01*
G54D25*
X0559400Y0039400D02*
Y0059683D01*
X0440500Y0040050D02*
X0700200D01*
Y0101050D01*
X0286500Y0040050D02*
Y0101050D01*
X0040000Y0040050D02*
Y0101050D01*
X0040050Y0040050D02*
X0197600D01*
X0040050D02*
Y0101050D01*
Y0101050D02*
X0700200D01*
X0040000Y0040050D02*
X0440500D01*
X0040000Y0060383D02*
X0700000D01*
X0040000Y0080717D02*
X0700200D01*
X0413200D02*
Y0101050D01*
X0497200Y0080717D02*
Y0101050D01*
G54D47*
X0125200Y0294593D02*
D03*
Y0281207D02*
D03*
G54D48*
X0310398Y0297944D02*
D03*
X0300595D02*
D03*
X0290792D02*
D03*
X0280989Y0265936D02*
D03*
Y0297944D02*
D03*
X0290792Y0265936D02*
D03*
X0300595D02*
D03*
X0310398D02*
D03*
X0454498Y0297944D02*
D03*
X0444695D02*
D03*
X0434892D02*
D03*
X0425089Y0265936D02*
D03*
Y0297944D02*
D03*
X0434892Y0265936D02*
D03*
X0444695D02*
D03*
X0454498D02*
D03*
X0552898Y0297944D02*
D03*
X0543095D02*
D03*
X0533292D02*
D03*
X0523489Y0265936D02*
D03*
Y0297944D02*
D03*
X0533292Y0265936D02*
D03*
X0543095D02*
D03*
X0552898D02*
D03*
G54D49*
X0542550Y0211400D02*
D03*
X0548850D02*
D03*
X0542539Y0249500D02*
D03*
X0548839D02*
D03*
X0444050Y0211400D02*
D03*
X0450350D02*
D03*
X0444050Y0249500D02*
D03*
X0450350D02*
D03*
X0300050Y0211400D02*
D03*
X0306350D02*
D03*
X0300050Y0249500D02*
D03*
X0306350D02*
D03*
X0189350Y0251900D02*
D03*
X0183050D02*
D03*
X0515239Y0233200D02*
D03*
X0508939D02*
D03*
X0418539D02*
D03*
X0412239D02*
D03*
X0272739D02*
D03*
X0266439D02*
D03*
X0183050Y0258400D02*
D03*
X0189350D02*
D03*
X0149350Y0245400D02*
D03*
X0143050D02*
D03*
X0149350Y0236400D02*
D03*
X0143050D02*
D03*
X0143050Y0227900D02*
D03*
X0149350D02*
D03*
X0099450Y0225662D02*
D03*
X0105750D02*
D03*
G54D50*
X0529389Y0218050D02*
D03*
Y0224350D02*
D03*
X0432689Y0218050D02*
D03*
Y0224350D02*
D03*
X0287689Y0218250D02*
D03*
Y0211950D02*
D03*
X0116700Y0284695D02*
D03*
Y0290995D02*
D03*
X0508889Y0226350D02*
D03*
Y0220050D02*
D03*
X0412189Y0226350D02*
D03*
Y0220050D02*
D03*
X0266289Y0226350D02*
D03*
Y0220050D02*
D03*
X0106700Y0207050D02*
D03*
Y0200750D02*
D03*
G54D51*
X0549600Y0232500D02*
D03*
X0541600D02*
D03*
X0549600Y0241500D02*
D03*
X0541600D02*
D03*
X0451200D02*
D03*
X0443200D02*
D03*
X0451200Y0232500D02*
D03*
X0443200D02*
D03*
X0307200Y0241500D02*
D03*
X0299200D02*
D03*
X0307200Y0232500D02*
D03*
X0299200D02*
D03*
X0541689Y0219000D02*
D03*
X0549689D02*
D03*
X0443200D02*
D03*
X0451200D02*
D03*
X0299200D02*
D03*
X0307200D02*
D03*
X0099289Y0217600D02*
D03*
X0107289D02*
D03*
G54D52*
X0233589Y0251400D02*
D03*
Y0259400D02*
D03*
X0125589Y0324100D02*
D03*
Y0332100D02*
D03*
X0328189Y0252000D02*
D03*
Y0260000D02*
D03*
X0148500Y0260045D02*
D03*
Y0268045D02*
D03*
X0242789Y0251500D02*
D03*
Y0259500D02*
D03*
X0336989Y0252000D02*
D03*
Y0260000D02*
D03*
G54D53*
X0135700Y0293609D02*
D03*
Y0282191D02*
D03*
X0095289Y0269709D02*
D03*
Y0258291D02*
D03*
X0105489Y0269709D02*
D03*
Y0258291D02*
D03*
G54D54*
X0182909Y0306900D02*
D03*
X0159091D02*
D03*
X0159591Y0328400D02*
D03*
X0183409D02*
D03*
G54D55*
X0092300Y0303776D02*
D03*
Y0317950D02*
D03*
G54D56*
X0171728Y0276900D02*
D03*
Y0281900D02*
D03*
Y0286900D02*
D03*
Y0291900D02*
D03*
X0150272Y0276900D02*
D03*
Y0281900D02*
D03*
Y0286900D02*
D03*
Y0291900D02*
D03*
G54D57*
X0109889Y0321799D02*
D03*
Y0334201D02*
D03*
X0132500Y0257844D02*
D03*
Y0270246D02*
D03*
G54D58*
X0095701Y0291525D02*
D03*
X0108299Y0276565D02*
D03*
X0105150D02*
D03*
X0102000D02*
D03*
X0098850D02*
D03*
X0095701D02*
D03*
X0098850Y0291525D02*
D03*
X0102000D02*
D03*
X0105150D02*
D03*
X0108299D02*
D03*
G54D59*
X0102000Y0284045D02*
D03*
G54D60*
X0584300Y0331800D02*
D03*
X0091489Y0334300D02*
D03*
X0586700Y0193400D02*
D03*
G54D61*
X0183475Y0229081D02*
D03*
Y0231641D02*
D03*
Y0234200D02*
D03*
Y0236759D02*
D03*
Y0239318D02*
D03*
Y0241877D02*
D03*
Y0244436D02*
D03*
X0160247Y0229081D02*
D03*
Y0231641D02*
D03*
Y0234200D02*
D03*
Y0236759D02*
D03*
Y0239318D02*
D03*
Y0241877D02*
D03*
Y0244436D02*
D03*
G54D62*
X0134663Y0306200D02*
D03*
X0118915D02*
D03*
G54D63*
X0558589Y0245647D02*
D03*
Y0232753D02*
D03*
X0460189Y0245647D02*
D03*
Y0232753D02*
D03*
X0434089Y0245647D02*
D03*
Y0232753D02*
D03*
X0532489Y0245647D02*
D03*
Y0232753D02*
D03*
X0316089Y0245647D02*
D03*
Y0232753D02*
D03*
X0289989Y0245647D02*
D03*
Y0232753D02*
D03*
G54D64*
X0099360Y0234938D02*
D03*
X0106840D02*
D03*
X0103100Y0244387D02*
D03*
G54D65*
X0099200Y0199750D02*
D03*
Y0206050D02*
D03*
X0091500Y0199750D02*
D03*
Y0206050D02*
D03*
X0091600Y0238013D02*
D03*
Y0244312D02*
D03*
G54D66*
X0523429Y0226924D02*
D03*
X0515949D02*
D03*
X0519689Y0217476D02*
D03*
X0426729Y0226924D02*
D03*
X0419249D02*
D03*
X0422989Y0217476D02*
D03*
X0280929Y0226924D02*
D03*
X0273449D02*
D03*
X0277189Y0217476D02*
D03*
G54D67*
X0091600Y0224800D02*
D03*
Y0229524D02*
D03*
G54D68*
X0189121Y0211900D02*
D03*
X0179121D02*
D03*
X0169121D02*
D03*
X0159121D02*
D03*
X0149121D02*
D03*
X0139121D02*
D03*
X0129121D02*
D03*
X0119121D02*
D03*
X0189121Y0201900D02*
D03*
X0179121D02*
D03*
X0169121D02*
D03*
X0159121D02*
D03*
X0149121D02*
D03*
X0139121D02*
D03*
X0129121D02*
D03*
G54D69*
X0119121D02*
D03*
G54D70*
X0255689Y0283500D02*
D03*
X0351789D02*
D03*
G54D71*
X0556444Y0201900D02*
D03*
X0546444D02*
D03*
X0536444D02*
D03*
X0460066D02*
D03*
X0450066D02*
D03*
X0440066D02*
D03*
X0363688D02*
D03*
X0353688D02*
D03*
X0343688D02*
D03*
X0267310D02*
D03*
X0257310D02*
D03*
X0247310D02*
D03*
G54D72*
X0526444D02*
D03*
X0430066D02*
D03*
X0333688D02*
D03*
X0237310D02*
D03*
G54D73*
X0332689Y0315000D02*
D03*
X0230989D02*
D03*
X0198089Y0318500D02*
D03*
X0197889Y0330000D02*
D03*
X0212789Y0323900D02*
D03*
X0418189Y0316800D02*
D03*
X0515194Y0317434D02*
D03*
G54D74*
X0436900Y0220611D02*
D03*
X0438889Y0217000D02*
D03*
X0287689Y0223100D02*
D03*
Y0207800D02*
D03*
X0099989Y0314300D02*
D03*
X0118689D02*
D03*
X0412139Y0216650D02*
D03*
X0508789Y0216600D02*
D03*
X0144789Y0291900D02*
D03*
X0150000Y0304900D02*
D03*
Y0311400D02*
D03*
X0143589Y0275700D02*
D03*
X0127989Y0222250D02*
D03*
X0097989Y0295400D02*
D03*
X0230197Y0266940D02*
D03*
X0236197D02*
D03*
X0242289Y0264400D02*
D03*
X0371442Y0266995D02*
D03*
X0377942D02*
D03*
X0466997Y0327440D02*
D03*
X0443997D02*
D03*
X0461997Y0324440D02*
D03*
X0427429Y0310440D02*
D03*
X0474085D02*
D03*
X0474085Y0316934D02*
D03*
X0365942Y0245090D02*
D03*
X0373997Y0245940D02*
D03*
X0277897D02*
D03*
X0269952Y0246791D02*
D03*
X0242252Y0246791D02*
D03*
X0251052Y0317385D02*
D03*
X0257552D02*
D03*
X0244552Y0317385D02*
D03*
X0258452Y0299385D02*
D03*
X0263452D02*
D03*
X0359552D02*
D03*
X0354552D02*
D03*
X0341552Y0317385D02*
D03*
X0354552Y0317385D02*
D03*
X0348052D02*
D03*
X0559508Y0328440D02*
D03*
X0571008Y0317434D02*
D03*
X0571008Y0310940D02*
D03*
X0490130Y0245440D02*
D03*
X0489130Y0263940D02*
D03*
X0492189Y0261300D02*
D03*
X0488630Y0254940D02*
D03*
X0492189Y0253300D02*
D03*
X0586553Y0264395D02*
D03*
X0588389Y0261400D02*
D03*
X0586008Y0255440D02*
D03*
X0588689Y0253300D02*
D03*
X0148500Y0328400D02*
D03*
X0194200Y0251900D02*
D03*
X0194200Y0258400D02*
D03*
X0160247Y0224947D02*
D03*
X0138200Y0236400D02*
D03*
X0138200Y0227900D02*
D03*
X0189200Y0237400D02*
D03*
Y0229400D02*
D03*
X0166700Y0229900D02*
D03*
Y0237400D02*
D03*
X0149350Y0222250D02*
D03*
X0091500Y0211900D02*
D03*
X0099200D02*
D03*
X0106840Y0230800D02*
D03*
X0144500Y0281900D02*
D03*
X0091600Y0220589D02*
D03*
X0536839Y0219000D02*
D03*
X0523429Y0231184D02*
D03*
X0519289Y0233300D02*
D03*
X0522098Y0237400D02*
D03*
X0549600Y0227489D02*
D03*
X0524307Y0310934D02*
D03*
X0452132Y0226989D02*
D03*
X0487489Y0231190D02*
D03*
X0586344Y0231778D02*
D03*
X0443189Y0228100D02*
D03*
X0541589Y0228200D02*
D03*
X0424630Y0236900D02*
D03*
X0426729Y0231184D02*
D03*
X0422589Y0233300D02*
D03*
X0299089Y0228100D02*
D03*
X0295200Y0211400D02*
D03*
X0294339Y0219000D02*
D03*
X0308032Y0226989D02*
D03*
X0280929Y0231184D02*
D03*
X0276789Y0233300D02*
D03*
X0271239Y0220050D02*
D03*
X0443889Y0322548D02*
D03*
X0473889Y0335300D02*
D03*
X0337789Y0265300D02*
D03*
X0332297Y0266940D02*
D03*
X0326297D02*
D03*
X0429889Y0254100D02*
D03*
X0461789Y0255500D02*
D03*
X0452589Y0255600D02*
D03*
X0559257Y0256000D02*
D03*
X0550057Y0256100D02*
D03*
X0527357Y0254600D02*
D03*
X0458289Y0227500D02*
D03*
X0555712Y0228000D02*
D03*
X0505989Y0307300D02*
D03*
X0408984Y0306666D02*
D03*
X0318589Y0310400D02*
D03*
X0222289Y0299600D02*
D03*
X0442089Y0305700D02*
D03*
X0314997Y0335440D02*
D03*
X0538989Y0307000D02*
D03*
X0466997Y0332440D02*
D03*
X0449589D02*
D03*
X0533039Y0218050D02*
D03*
X0230789Y0245600D02*
D03*
X0235189D02*
D03*
X0232889Y0242800D02*
D03*
X0241289Y0243200D02*
D03*
X0327489Y0243400D02*
D03*
X0329789Y0246200D02*
D03*
X0325389D02*
D03*
X0338589Y0243300D02*
D03*
X0335389D02*
D03*
X0336952Y0246890D02*
D03*
X0244489Y0244400D02*
D03*
G54D75*
X0102000Y0280108D02*
D03*
X0106724Y0284045D02*
D03*
X0102000D02*
D03*
X0097276D02*
D03*
X0102000Y0287982D02*
D03*
M02*
