G04*
G04 #@! TF.GenerationSoftware,Altium Limited,Altium Designer,18.1.9 (240)*
G04*
G04 Layer_Color=9218505*
%FSAX25Y25*%
%MOIN*%
G70*
G01*
G75*
%ADD12C,0.00787*%
%ADD14C,0.00700*%
%ADD15C,0.00800*%
%ADD17C,0.00600*%
%ADD22R,0.09200X0.02000*%
%ADD25C,0.01000*%
%ADD98C,0.00500*%
%ADD99R,0.02000X0.09200*%
%ADD100R,0.02000X0.16400*%
G54D12*
X0361894Y0279497D02*
Y0286583D01*
X0342210Y0279497D02*
Y0296032D01*
X0265794Y0279497D02*
Y0286583D01*
X0246110Y0279497D02*
Y0296032D01*
X0568222Y0260382D02*
Y0293551D01*
X0526883Y0269929D02*
Y0293551D01*
X0470754Y0259882D02*
Y0293051D01*
X0429416Y0269429D02*
Y0293051D01*
G54D14*
X0484130Y0249440D02*
X0487530D01*
Y0245440D02*
Y0249440D01*
Y0241440D02*
Y0245440D01*
X0484130Y0241440D02*
X0487530D01*
X0472730D02*
X0476130D01*
X0472730D02*
Y0245440D01*
Y0249440D01*
X0476130D01*
X0581598Y0249940D02*
X0584998D01*
Y0245940D02*
Y0249940D01*
Y0241940D02*
Y0245940D01*
X0581598Y0241940D02*
X0584998D01*
X0570198D02*
X0573598D01*
X0570198D02*
Y0245940D01*
Y0249940D01*
X0573598D01*
X0566057Y0308214D02*
X0568656D01*
Y0313660D01*
X0566057D02*
X0568656D01*
X0556659D02*
X0559258D01*
X0556659Y0308214D02*
Y0313660D01*
Y0308214D02*
X0559258D01*
X0553353Y0246064D02*
X0555951D01*
Y0251511D01*
X0553353D02*
X0555951D01*
X0543955D02*
X0546553D01*
X0543955Y0246064D02*
Y0251511D01*
Y0246064D02*
X0546553D01*
X0570281Y0253442D02*
Y0256040D01*
Y0253442D02*
X0575728D01*
Y0256040D01*
Y0262840D02*
Y0265438D01*
X0570281D02*
X0575728D01*
X0570281Y0262840D02*
Y0265438D01*
X0469135Y0307714D02*
X0471733D01*
Y0313160D01*
X0469135D02*
X0471733D01*
X0459736D02*
X0462335D01*
X0459736Y0307714D02*
Y0313160D01*
Y0307714D02*
X0462335D01*
X0472403Y0252942D02*
Y0255540D01*
Y0252942D02*
X0477850D01*
Y0255540D01*
Y0262340D02*
Y0264938D01*
X0472403D02*
X0477850D01*
X0472403Y0262340D02*
Y0264938D01*
X0350779Y0313340D02*
Y0315938D01*
X0345332D02*
X0350779D01*
X0345332Y0313340D02*
Y0315938D01*
Y0303942D02*
Y0306540D01*
Y0303942D02*
X0350779D01*
Y0306540D01*
X0253779Y0313340D02*
Y0315938D01*
X0248332D02*
X0253779D01*
X0248332Y0313340D02*
Y0315938D01*
Y0303942D02*
Y0306540D01*
Y0303942D02*
X0253779D01*
Y0306540D01*
X0363325Y0249942D02*
Y0252540D01*
Y0249942D02*
X0368772D01*
Y0252540D01*
Y0259340D02*
Y0261938D01*
X0363325D02*
X0368772D01*
X0363325Y0259340D02*
Y0261938D01*
X0267225Y0249942D02*
Y0252540D01*
Y0249942D02*
X0272672D01*
Y0252540D01*
Y0259340D02*
Y0261938D01*
X0267225D02*
X0272672D01*
X0267225Y0259340D02*
Y0261938D01*
X0239525Y0249942D02*
Y0252540D01*
Y0249942D02*
X0244972D01*
Y0252540D01*
Y0259340D02*
Y0261938D01*
X0239525D02*
X0244972D01*
X0239525Y0259340D02*
Y0261938D01*
X0334225Y0250042D02*
Y0252640D01*
Y0250042D02*
X0339672D01*
Y0252640D01*
Y0259440D02*
Y0262038D01*
X0334225D02*
X0339672D01*
X0334225Y0259440D02*
Y0262038D01*
X0455930Y0245564D02*
X0458528D01*
Y0251011D01*
X0455930D02*
X0458528D01*
X0446532D02*
X0449130D01*
X0446532Y0245564D02*
Y0251011D01*
Y0245564D02*
X0449130D01*
X0526659Y0313660D02*
X0529257D01*
X0526659Y0308214D02*
Y0313660D01*
Y0308214D02*
X0529257D01*
X0536058D02*
X0538656D01*
Y0313660D01*
X0536058D02*
X0538656D01*
X0429781Y0313167D02*
X0432379D01*
X0429781Y0307720D02*
Y0313167D01*
Y0307720D02*
X0432379D01*
X0439180D02*
X0441778D01*
Y0313167D01*
X0439180D02*
X0441778D01*
X0357279Y0313340D02*
Y0315938D01*
X0351832D02*
X0357279D01*
X0351832Y0313340D02*
Y0315938D01*
Y0303942D02*
Y0306540D01*
Y0303942D02*
X0357279D01*
Y0306540D01*
X0260279Y0313340D02*
Y0315938D01*
X0254832D02*
X0260279D01*
X0254832Y0313340D02*
Y0315938D01*
Y0303942D02*
Y0306540D01*
Y0303942D02*
X0260279D01*
Y0306540D01*
X0556659Y0320160D02*
X0559258D01*
X0556659Y0314714D02*
Y0320160D01*
Y0314714D02*
X0559258D01*
X0566057D02*
X0568656D01*
Y0320160D01*
X0566057D02*
X0568656D01*
X0536058Y0314707D02*
X0538656D01*
Y0320154D01*
X0536058D02*
X0538656D01*
X0526659D02*
X0529257D01*
X0526659Y0314707D02*
Y0320154D01*
Y0314707D02*
X0529257D01*
X0569010Y0228667D02*
X0571608D01*
X0569010Y0223220D02*
Y0228667D01*
Y0223220D02*
X0571608D01*
X0578408D02*
X0581006D01*
Y0228667D01*
X0578408D02*
X0581006D01*
X0459736Y0319660D02*
X0462335D01*
X0459736Y0314214D02*
Y0319660D01*
Y0314214D02*
X0462335D01*
X0469135D02*
X0471733D01*
Y0319660D01*
X0469135D02*
X0471733D01*
X0439180Y0314200D02*
X0441778D01*
Y0319647D01*
X0439180D02*
X0441778D01*
X0429781D02*
X0432379D01*
X0429781Y0314200D02*
Y0319647D01*
Y0314200D02*
X0432379D01*
X0482030Y0223214D02*
X0484628D01*
Y0228660D01*
X0482030D02*
X0484628D01*
X0472632D02*
X0475230D01*
X0472632Y0223214D02*
Y0228660D01*
Y0223214D02*
X0475230D01*
X0338825Y0303942D02*
Y0306540D01*
Y0303942D02*
X0344272D01*
Y0306540D01*
Y0313340D02*
Y0315938D01*
X0338825D02*
X0344272D01*
X0338825Y0313340D02*
Y0315938D01*
X0241825Y0303942D02*
Y0306540D01*
Y0303942D02*
X0247272D01*
Y0306540D01*
Y0313340D02*
Y0315938D01*
X0241825D02*
X0247272D01*
X0241825Y0313340D02*
Y0315938D01*
X0358325Y0303942D02*
Y0306540D01*
Y0303942D02*
X0363772D01*
Y0306540D01*
Y0313340D02*
Y0315938D01*
X0358325D02*
X0363772D01*
X0358325Y0313340D02*
Y0315938D01*
X0261325Y0303942D02*
Y0306540D01*
Y0303942D02*
X0266772D01*
Y0306540D01*
Y0313340D02*
Y0315938D01*
X0261325D02*
X0266772D01*
X0261325Y0313340D02*
Y0315938D01*
X0519371Y0239292D02*
Y0241891D01*
Y0239292D02*
X0524818D01*
Y0241891D01*
Y0248691D02*
Y0251289D01*
X0519371D02*
X0524818D01*
X0519371Y0248691D02*
Y0251289D01*
X0525871Y0239292D02*
Y0241891D01*
Y0239292D02*
X0531318D01*
Y0241891D01*
Y0248691D02*
Y0251289D01*
X0525871D02*
X0531318D01*
X0525871Y0248691D02*
Y0251289D01*
X0421903Y0238792D02*
Y0241390D01*
Y0238792D02*
X0427350D01*
Y0241390D01*
Y0248190D02*
Y0250789D01*
X0421903D02*
X0427350D01*
X0421903Y0248190D02*
Y0250789D01*
X0428403Y0238792D02*
Y0241390D01*
Y0238792D02*
X0433850D01*
Y0241390D01*
Y0248190D02*
Y0250789D01*
X0428403D02*
X0433850D01*
X0428403Y0248190D02*
Y0250789D01*
X0225016Y0310300D02*
Y0312898D01*
X0219569D02*
X0225016D01*
X0219569Y0310300D02*
Y0312898D01*
Y0300902D02*
Y0303500D01*
Y0300902D02*
X0225016D01*
Y0303500D01*
X0326527Y0315250D02*
Y0317849D01*
X0321080D02*
X0326527D01*
X0321080Y0315250D02*
Y0317849D01*
Y0305852D02*
Y0308450D01*
Y0305852D02*
X0326527D01*
Y0308450D01*
X0412027Y0317050D02*
Y0319649D01*
X0406580D02*
X0412027D01*
X0406580Y0317050D02*
Y0319649D01*
Y0307652D02*
Y0310250D01*
Y0307652D02*
X0412027D01*
Y0310250D01*
X0508616Y0318100D02*
Y0320698D01*
X0503169D02*
X0508616D01*
X0503169Y0318100D02*
Y0320698D01*
Y0308702D02*
Y0311300D01*
Y0308702D02*
X0508616D01*
Y0311300D01*
X0542553Y0244791D02*
X0545953D01*
X0542553Y0240791D02*
Y0244791D01*
Y0236790D02*
Y0240791D01*
Y0236790D02*
X0545953D01*
X0553953D02*
X0557353D01*
Y0240791D01*
Y0244791D01*
X0553953D02*
X0557353D01*
X0585008Y0262440D02*
Y0265840D01*
X0581008D02*
X0585008D01*
X0577008D02*
X0581008D01*
X0577008Y0262440D02*
Y0265840D01*
Y0251040D02*
Y0254440D01*
Y0251040D02*
X0581008D01*
X0585008D01*
Y0254440D01*
X0445130Y0244290D02*
X0448530D01*
X0445130Y0240290D02*
Y0244290D01*
Y0236291D02*
Y0240290D01*
Y0236291D02*
X0448530D01*
X0456530D02*
X0459930D01*
Y0240290D01*
Y0244290D01*
X0456530D02*
X0459930D01*
X0487130Y0261940D02*
Y0265340D01*
X0483130D02*
X0487130D01*
X0479130D02*
X0483130D01*
X0479130Y0261940D02*
Y0265340D01*
Y0250540D02*
Y0253940D01*
Y0250540D02*
X0483130D01*
X0487130D01*
Y0253940D01*
X0377997Y0259940D02*
Y0263340D01*
X0373997D02*
X0377997D01*
X0369997D02*
X0373997D01*
X0369997Y0259940D02*
Y0263340D01*
Y0248540D02*
Y0251940D01*
Y0248540D02*
X0373997D01*
X0377997D01*
Y0251940D01*
X0281897Y0259940D02*
Y0263340D01*
X0277897D02*
X0281897D01*
X0273897D02*
X0277897D01*
X0273897Y0259940D02*
Y0263340D01*
Y0248540D02*
Y0251940D01*
Y0248540D02*
X0277897D01*
X0281897D01*
Y0251940D01*
X0230197Y0248540D02*
Y0251940D01*
Y0248540D02*
X0234197D01*
X0238197D01*
Y0251940D01*
Y0259940D02*
Y0263340D01*
X0234197D02*
X0238197D01*
X0230197D02*
X0234197D01*
X0230197Y0259940D02*
Y0263340D01*
X0332897Y0260040D02*
Y0263440D01*
X0328897D02*
X0332897D01*
X0324897D02*
X0328897D01*
X0324897Y0260040D02*
Y0263440D01*
Y0248640D02*
Y0252040D01*
Y0248640D02*
X0328897D01*
X0332897D01*
Y0252040D01*
X0541820Y0251205D02*
Y0254749D01*
X0532293D02*
X0541820D01*
X0532293Y0251205D02*
Y0254749D01*
Y0235851D02*
Y0239394D01*
Y0235851D02*
X0541820D01*
Y0239394D01*
X0567861Y0251196D02*
Y0254739D01*
X0558334D02*
X0567861D01*
X0558334Y0251196D02*
Y0254739D01*
Y0235842D02*
Y0239385D01*
Y0235842D02*
X0567861D01*
Y0239385D01*
X0547244Y0307991D02*
Y0311535D01*
Y0307991D02*
X0556772D01*
Y0311535D01*
Y0323346D02*
Y0326889D01*
X0547244D02*
X0556772D01*
X0547244Y0323346D02*
Y0326889D01*
X0444353Y0250706D02*
Y0254249D01*
X0434825D02*
X0444353D01*
X0434825Y0250706D02*
Y0254249D01*
Y0235351D02*
Y0238895D01*
Y0235351D02*
X0444353D01*
Y0238895D01*
X0470394Y0250696D02*
Y0254239D01*
X0460866D02*
X0470394D01*
X0460866Y0250696D02*
Y0254239D01*
Y0235342D02*
Y0238885D01*
Y0235342D02*
X0470394D01*
Y0238885D01*
X0449971Y0307485D02*
Y0311028D01*
Y0307485D02*
X0459498D01*
Y0311028D01*
Y0322839D02*
Y0326382D01*
X0449971D02*
X0459498D01*
X0449971Y0322839D02*
Y0326382D01*
X0361953Y0261806D02*
Y0265349D01*
X0352425D02*
X0361953D01*
X0352425Y0261806D02*
Y0265349D01*
Y0246451D02*
Y0249994D01*
Y0246451D02*
X0361953D01*
Y0249994D01*
X0265853Y0261806D02*
Y0265349D01*
X0256325D02*
X0265853D01*
X0256325Y0261806D02*
Y0265349D01*
Y0246451D02*
Y0249994D01*
Y0246451D02*
X0265853D01*
Y0249994D01*
X0351453Y0261806D02*
Y0265349D01*
X0341925D02*
X0351453D01*
X0341925Y0261806D02*
Y0265349D01*
Y0246451D02*
Y0249994D01*
Y0246451D02*
X0351453D01*
Y0249994D01*
X0255353Y0261806D02*
Y0265349D01*
X0245825D02*
X0255353D01*
X0245825Y0261806D02*
Y0265349D01*
Y0246451D02*
Y0249994D01*
Y0246451D02*
X0255353D01*
Y0249994D01*
X0570398Y0240190D02*
X0587898D01*
X0570398Y0231690D02*
X0587898D01*
X0471630Y0239690D02*
X0489130D01*
X0471630Y0231190D02*
X0489130D01*
X0582439Y0202500D02*
Y0220000D01*
X0573939Y0202500D02*
Y0220000D01*
X0486029Y0202532D02*
Y0220031D01*
X0477529Y0202532D02*
Y0220031D01*
X0491689Y0208850D02*
Y0209750D01*
X0518389D01*
X0491689Y0194050D02*
X0518389D01*
X0491689D02*
Y0194950D01*
X0393489Y0208850D02*
Y0209750D01*
X0420189D01*
X0393489Y0194050D02*
X0420189D01*
X0393489D02*
Y0194950D01*
G54D15*
X0126900Y0073549D02*
Y0067551D01*
X0129899D01*
X0130899Y0068550D01*
Y0069550D01*
X0129899Y0070550D01*
X0126900D01*
X0129899D01*
X0130899Y0071549D01*
Y0072549D01*
X0129899Y0073549D01*
X0126900D01*
X0133898Y0067551D02*
X0135897D01*
X0136897Y0068550D01*
Y0070550D01*
X0135897Y0071549D01*
X0133898D01*
X0132898Y0070550D01*
Y0068550D01*
X0133898Y0067551D01*
X0139896Y0072549D02*
Y0071549D01*
X0138896D01*
X0140895D01*
X0139896D01*
Y0068550D01*
X0140895Y0067551D01*
X0144894Y0072549D02*
Y0071549D01*
X0143895D01*
X0145894D01*
X0144894D01*
Y0068550D01*
X0145894Y0067551D01*
X0149893D02*
X0151892D01*
X0152892Y0068550D01*
Y0070550D01*
X0151892Y0071549D01*
X0149893D01*
X0148893Y0070550D01*
Y0068550D01*
X0149893Y0067551D01*
X0154891D02*
Y0071549D01*
X0155891D01*
X0156890Y0070550D01*
Y0067551D01*
Y0070550D01*
X0157890Y0071549D01*
X0158890Y0070550D01*
Y0067551D01*
X0169886Y0073549D02*
X0167887D01*
X0166887Y0072549D01*
Y0068550D01*
X0167887Y0067551D01*
X0169886D01*
X0170886Y0068550D01*
Y0072549D01*
X0169886Y0073549D01*
X0172885Y0071549D02*
X0174884Y0067551D01*
X0176884Y0071549D01*
X0181882Y0067551D02*
X0179883D01*
X0178883Y0068550D01*
Y0070550D01*
X0179883Y0071549D01*
X0181882D01*
X0182882Y0070550D01*
Y0069550D01*
X0178883D01*
X0184881Y0071549D02*
Y0067551D01*
Y0069550D01*
X0185881Y0070550D01*
X0186881Y0071549D01*
X0187880D01*
X0190879Y0067551D02*
X0192879D01*
X0191879D01*
Y0073549D01*
X0190879D01*
X0196877Y0071549D02*
X0198877D01*
X0199876Y0070550D01*
Y0067551D01*
X0196877D01*
X0195878Y0068550D01*
X0196877Y0069550D01*
X0199876D01*
X0201876Y0071549D02*
Y0068550D01*
X0202875Y0067551D01*
X0205874D01*
Y0066551D01*
X0204875Y0065551D01*
X0203875D01*
X0205874Y0067551D02*
Y0071549D01*
X0045850Y0073649D02*
Y0067651D01*
X0049849D01*
X0051848D02*
Y0071649D01*
X0053847Y0073649D01*
X0055847Y0071649D01*
Y0067651D01*
Y0070650D01*
X0051848D01*
X0057846Y0073649D02*
Y0072649D01*
X0059846Y0070650D01*
X0061845Y0072649D01*
Y0073649D01*
X0059846Y0070650D02*
Y0067651D01*
X0067843Y0073649D02*
X0063844D01*
Y0067651D01*
X0067843D01*
X0063844Y0070650D02*
X0065843D01*
X0069842Y0067651D02*
Y0073649D01*
X0072841D01*
X0073841Y0072649D01*
Y0070650D01*
X0072841Y0069650D01*
X0069842D01*
X0071842D02*
X0073841Y0067651D01*
X0081838D02*
Y0073649D01*
X0085837Y0067651D01*
Y0073649D01*
X0087836Y0067651D02*
Y0071649D01*
X0089836Y0073649D01*
X0091835Y0071649D01*
Y0067651D01*
Y0070650D01*
X0087836D01*
X0093835Y0067651D02*
Y0073649D01*
X0095834Y0071649D01*
X0097833Y0073649D01*
Y0067651D01*
X0103831Y0073649D02*
X0099832D01*
Y0067651D01*
X0103831D01*
X0099832Y0070650D02*
X0101832D01*
X0111829Y0069650D02*
X0115827D01*
X0111829Y0071649D02*
X0115827D01*
X0348550Y0073498D02*
X0352549D01*
X0350549D01*
Y0067500D01*
X0354548Y0073498D02*
X0356547D01*
X0355548D01*
Y0067500D01*
X0354548D01*
X0356547D01*
X0359546Y0073498D02*
Y0067500D01*
X0362545D01*
X0363545Y0068500D01*
Y0072498D01*
X0362545Y0073498D01*
X0359546D01*
X0365545Y0067500D02*
Y0071499D01*
X0367544Y0073498D01*
X0369543Y0071499D01*
Y0067500D01*
Y0070499D01*
X0365545D01*
X0371543D02*
X0375541D01*
X0377541Y0072498D02*
X0378540Y0073498D01*
X0380540D01*
X0381539Y0072498D01*
Y0068500D01*
X0380540Y0067500D01*
X0378540D01*
X0377541Y0068500D01*
Y0072498D01*
X0383539Y0067500D02*
X0385538D01*
X0384538D01*
Y0073498D01*
X0383539Y0072498D01*
X0392536Y0073498D02*
X0390536Y0072498D01*
X0388537Y0070499D01*
Y0068500D01*
X0389537Y0067500D01*
X0391536D01*
X0392536Y0068500D01*
Y0069499D01*
X0391536Y0070499D01*
X0388537D01*
X0394535Y0072498D02*
X0395535Y0073498D01*
X0397534D01*
X0398534Y0072498D01*
Y0068500D01*
X0397534Y0067500D01*
X0395535D01*
X0394535Y0068500D01*
Y0072498D01*
X0404532Y0073498D02*
X0402532Y0072498D01*
X0400533Y0070499D01*
Y0068500D01*
X0401533Y0067500D01*
X0403532D01*
X0404532Y0068500D01*
Y0069499D01*
X0403532Y0070499D01*
X0400533D01*
X0294000Y0073498D02*
X0297999D01*
X0295999D01*
Y0067500D01*
X0299998Y0073498D02*
X0301997D01*
X0300998D01*
Y0067500D01*
X0299998D01*
X0301997D01*
X0304996Y0073498D02*
Y0067500D01*
X0307996D01*
X0308995Y0068500D01*
Y0072498D01*
X0307996Y0073498D01*
X0304996D01*
X0317992Y0067500D02*
Y0073498D01*
X0319992D02*
Y0067500D01*
X0316993Y0071499D02*
X0319992D01*
X0320991D01*
X0316993Y0069499D02*
X0320991D01*
X0322991Y0071499D02*
X0323990D01*
Y0070499D01*
X0322991D01*
Y0071499D01*
Y0068500D02*
X0323990D01*
Y0067500D01*
X0322991D01*
Y0068500D01*
X0580500Y0052965D02*
X0584499D01*
X0582499D01*
Y0046966D01*
X0590497Y0052965D02*
X0586498D01*
Y0046966D01*
X0590497D01*
X0586498Y0049966D02*
X0588497D01*
X0592496Y0052965D02*
X0596495Y0046966D01*
Y0052965D02*
X0592496Y0046966D01*
X0598494D02*
Y0050965D01*
X0600493Y0052965D01*
X0602493Y0050965D01*
Y0046966D01*
Y0049966D01*
X0598494D01*
X0608491Y0051965D02*
X0607491Y0052965D01*
X0605492D01*
X0604492Y0051965D01*
Y0050965D01*
X0605492Y0049966D01*
X0607491D01*
X0608491Y0048966D01*
Y0047966D01*
X0607491Y0046966D01*
X0605492D01*
X0604492Y0047966D01*
X0616488Y0052965D02*
X0618488D01*
X0617488D01*
Y0046966D01*
X0616488D01*
X0618488D01*
X0621487D02*
Y0052965D01*
X0625486Y0046966D01*
Y0052965D01*
X0631484Y0051965D02*
X0630484Y0052965D01*
X0628484D01*
X0627485Y0051965D01*
Y0050965D01*
X0628484Y0049966D01*
X0630484D01*
X0631484Y0048966D01*
Y0047966D01*
X0630484Y0046966D01*
X0628484D01*
X0627485Y0047966D01*
X0633483Y0052965D02*
X0637482D01*
X0635482D01*
Y0046966D01*
X0639481D02*
Y0052965D01*
X0642480D01*
X0643480Y0051965D01*
Y0049966D01*
X0642480Y0048966D01*
X0639481D01*
X0641480D02*
X0643480Y0046966D01*
X0645479Y0052965D02*
Y0047966D01*
X0646479Y0046966D01*
X0648478D01*
X0649478Y0047966D01*
Y0052965D01*
X0651477Y0046966D02*
Y0052965D01*
X0653476Y0050965D01*
X0655476Y0052965D01*
Y0046966D01*
X0661474Y0052965D02*
X0657475D01*
Y0046966D01*
X0661474D01*
X0657475Y0049966D02*
X0659474D01*
X0663473Y0046966D02*
Y0052965D01*
X0667472Y0046966D01*
Y0052965D01*
X0669471D02*
X0673470D01*
X0671471D01*
Y0046966D01*
X0679468Y0051965D02*
X0678468Y0052965D01*
X0676469D01*
X0675469Y0051965D01*
Y0050965D01*
X0676469Y0049966D01*
X0678468D01*
X0679468Y0048966D01*
Y0047966D01*
X0678468Y0046966D01*
X0676469D01*
X0675469Y0047966D01*
X0454050Y0051965D02*
X0455050Y0052965D01*
X0457049D01*
X0458049Y0051965D01*
Y0050965D01*
X0457049Y0049966D01*
X0458049Y0048966D01*
Y0047966D01*
X0457049Y0046966D01*
X0455050D01*
X0454050Y0047966D01*
Y0048966D01*
X0455050Y0049966D01*
X0454050Y0050965D01*
Y0051965D01*
X0455050Y0049966D02*
X0457049D01*
X0460048Y0050965D02*
X0461048D01*
Y0049966D01*
X0460048D01*
Y0050965D01*
Y0047966D02*
X0461048D01*
Y0046966D01*
X0460048D01*
Y0047966D01*
X0465046Y0051965D02*
X0466046Y0052965D01*
X0468046D01*
X0469045Y0051965D01*
Y0050965D01*
X0468046Y0049966D01*
X0467046D01*
X0468046D01*
X0469045Y0048966D01*
Y0047966D01*
X0468046Y0046966D01*
X0466046D01*
X0465046Y0047966D01*
X0471044D02*
X0472044Y0046966D01*
X0474044D01*
X0475043Y0047966D01*
Y0051965D01*
X0474044Y0052965D01*
X0472044D01*
X0471044Y0051965D01*
Y0050965D01*
X0472044Y0049966D01*
X0475043D01*
X0477043Y0050965D02*
X0478042D01*
Y0049966D01*
X0477043D01*
Y0050965D01*
Y0047966D02*
X0478042D01*
Y0046966D01*
X0477043D01*
Y0047966D01*
X0485040Y0046966D02*
Y0052965D01*
X0482041Y0049966D01*
X0486040D01*
X0488039Y0051965D02*
X0489039Y0052965D01*
X0491038D01*
X0492038Y0051965D01*
Y0047966D01*
X0491038Y0046966D01*
X0489039D01*
X0488039Y0047966D01*
Y0051965D01*
X0500035Y0046966D02*
Y0050965D01*
X0502035Y0052965D01*
X0504034Y0050965D01*
Y0046966D01*
Y0049966D01*
X0500035D01*
X0506033Y0046966D02*
Y0052965D01*
X0508033Y0050965D01*
X0510032Y0052965D01*
Y0046966D01*
X0046350D02*
Y0052965D01*
X0049349D01*
X0050349Y0051965D01*
Y0049966D01*
X0049349Y0048966D01*
X0046350D01*
X0052348Y0052965D02*
Y0046966D01*
X0056347D01*
X0061345Y0052965D02*
X0059346D01*
X0058346Y0051965D01*
Y0047966D01*
X0059346Y0046966D01*
X0061345D01*
X0062345Y0047966D01*
Y0051965D01*
X0061345Y0052965D01*
X0064344D02*
X0068343D01*
X0066343D01*
Y0046966D01*
X0076340D02*
Y0052965D01*
X0080339Y0046966D01*
Y0052965D01*
X0082338Y0046966D02*
Y0050965D01*
X0084338Y0052965D01*
X0086337Y0050965D01*
Y0046966D01*
Y0049966D01*
X0082338D01*
X0088336Y0046966D02*
Y0052965D01*
X0090336Y0050965D01*
X0092335Y0052965D01*
Y0046966D01*
X0098333Y0052965D02*
X0094335D01*
Y0046966D01*
X0098333D01*
X0094335Y0049966D02*
X0096334D01*
X0106331Y0048966D02*
X0110329D01*
X0106331Y0050965D02*
X0110329D01*
X0294000Y0093831D02*
Y0087833D01*
X0296999D01*
X0297999Y0088833D01*
Y0089833D01*
X0296999Y0090832D01*
X0294000D01*
X0296999D01*
X0297999Y0091832D01*
Y0092832D01*
X0296999Y0093831D01*
X0294000D01*
X0302997D02*
X0300998D01*
X0299998Y0092832D01*
Y0088833D01*
X0300998Y0087833D01*
X0302997D01*
X0303997Y0088833D01*
Y0092832D01*
X0302997Y0093831D01*
X0305996Y0087833D02*
Y0091832D01*
X0307996Y0093831D01*
X0309995Y0091832D01*
Y0087833D01*
Y0090832D01*
X0305996D01*
X0311994Y0087833D02*
Y0093831D01*
X0314993D01*
X0315993Y0092832D01*
Y0090832D01*
X0314993Y0089833D01*
X0311994D01*
X0313994D02*
X0315993Y0087833D01*
X0317992Y0093831D02*
Y0087833D01*
X0320991D01*
X0321991Y0088833D01*
Y0092832D01*
X0320991Y0093831D01*
X0317992D01*
X0330988Y0087833D02*
Y0093831D01*
X0332987D02*
Y0087833D01*
X0329988Y0091832D02*
X0332987D01*
X0333987D01*
X0329988Y0089833D02*
X0333987D01*
X0335986Y0091832D02*
X0336986D01*
Y0090832D01*
X0335986D01*
Y0091832D01*
Y0088833D02*
X0336986D01*
Y0087833D01*
X0335986D01*
Y0088833D01*
X0466149Y0093831D02*
X0462150D01*
Y0087833D01*
X0466149D01*
X0462150Y0090832D02*
X0464149D01*
X0471147Y0087833D02*
Y0093831D01*
X0468148Y0090832D01*
X0472147D01*
X0046350Y0087833D02*
Y0091832D01*
X0048349Y0093831D01*
X0050349Y0091832D01*
Y0087833D01*
Y0090832D01*
X0046350D01*
X0052348Y0093831D02*
Y0087833D01*
X0056347D01*
X0058346Y0093831D02*
Y0087833D01*
X0062345D01*
X0070342D02*
Y0091832D01*
X0072342Y0093831D01*
X0074341Y0091832D01*
Y0087833D01*
Y0090832D01*
X0070342D01*
X0076340Y0087833D02*
Y0093831D01*
X0079339D01*
X0080339Y0092832D01*
Y0090832D01*
X0079339Y0089833D01*
X0076340D01*
X0078340D02*
X0080339Y0087833D01*
X0082338Y0093831D02*
X0086337D01*
X0084338D01*
Y0087833D01*
X0088336Y0093831D02*
Y0087833D01*
X0090336Y0089833D01*
X0092335Y0087833D01*
Y0093831D01*
X0097334D02*
X0095334D01*
X0094335Y0092832D01*
Y0088833D01*
X0095334Y0087833D01*
X0097334D01*
X0098333Y0088833D01*
Y0092832D01*
X0097334Y0093831D01*
X0100332Y0087833D02*
Y0093831D01*
X0103332D01*
X0104331Y0092832D01*
Y0090832D01*
X0103332Y0089833D01*
X0100332D01*
X0102332D02*
X0104331Y0087833D01*
X0106331Y0093831D02*
Y0087833D01*
Y0089833D01*
X0110329Y0093831D01*
X0107330Y0090832D01*
X0110329Y0087833D01*
X0118327Y0093831D02*
Y0089833D01*
X0120326Y0087833D01*
X0122325Y0089833D01*
Y0093831D01*
X0124325D02*
X0126324D01*
X0125324D01*
Y0087833D01*
X0124325D01*
X0126324D01*
X0133322Y0093831D02*
X0129323D01*
Y0087833D01*
X0133322D01*
X0129323Y0090832D02*
X0131323D01*
X0135321Y0093831D02*
Y0087833D01*
X0137321Y0089833D01*
X0139320Y0087833D01*
Y0093831D01*
X0145318D02*
X0141319D01*
Y0087833D01*
X0145318D01*
X0141319Y0090832D02*
X0143319D01*
X0147317Y0093831D02*
Y0087833D01*
X0150316D01*
X0151316Y0088833D01*
Y0092832D01*
X0150316Y0093831D01*
X0147317D01*
X0163312D02*
X0159313D01*
Y0090832D01*
X0161313D01*
X0159313D01*
Y0087833D01*
X0165312D02*
Y0093831D01*
X0168310D01*
X0169310Y0092832D01*
Y0090832D01*
X0168310Y0089833D01*
X0165312D01*
X0167311D02*
X0169310Y0087833D01*
X0174309Y0093831D02*
X0172309D01*
X0171310Y0092832D01*
Y0088833D01*
X0172309Y0087833D01*
X0174309D01*
X0175308Y0088833D01*
Y0092832D01*
X0174309Y0093831D01*
X0177308Y0087833D02*
Y0093831D01*
X0179307Y0091832D01*
X0181306Y0093831D01*
Y0087833D01*
X0189304Y0093831D02*
X0193303D01*
X0191303D01*
Y0087833D01*
X0198301Y0093831D02*
X0196301D01*
X0195302Y0092832D01*
Y0088833D01*
X0196301Y0087833D01*
X0198301D01*
X0199301Y0088833D01*
Y0092832D01*
X0198301Y0093831D01*
X0201300Y0087833D02*
Y0093831D01*
X0204299D01*
X0205299Y0092832D01*
Y0090832D01*
X0204299Y0089833D01*
X0201300D01*
X0217295Y0092832D02*
X0216295Y0093831D01*
X0214296D01*
X0213296Y0092832D01*
Y0091832D01*
X0214296Y0090832D01*
X0216295D01*
X0217295Y0089833D01*
Y0088833D01*
X0216295Y0087833D01*
X0214296D01*
X0213296Y0088833D01*
X0219294Y0093831D02*
X0221293D01*
X0220294D01*
Y0087833D01*
X0219294D01*
X0221293D01*
X0224292Y0093831D02*
Y0087833D01*
X0227291D01*
X0228291Y0088833D01*
Y0092832D01*
X0227291Y0093831D01*
X0224292D01*
X0234289D02*
X0230291D01*
Y0087833D01*
X0234289D01*
X0230291Y0090832D02*
X0232290D01*
X0298199Y0051965D02*
X0297199Y0052965D01*
X0295200D01*
X0294200Y0051965D01*
Y0047966D01*
X0295200Y0046966D01*
X0297199D01*
X0298199Y0047966D01*
Y0049966D01*
X0296199D01*
X0304197Y0052965D02*
X0300198D01*
Y0046966D01*
X0304197D01*
X0300198Y0049966D02*
X0302197D01*
X0306196Y0046966D02*
Y0052965D01*
X0310195Y0046966D01*
Y0052965D01*
X0316193D02*
X0312194D01*
Y0046966D01*
X0316193D01*
X0312194Y0049966D02*
X0314194D01*
X0318192Y0046966D02*
Y0052965D01*
X0321191D01*
X0322191Y0051965D01*
Y0049966D01*
X0321191Y0048966D01*
X0318192D01*
X0320192D02*
X0322191Y0046966D01*
X0324190D02*
Y0050965D01*
X0326190Y0052965D01*
X0328189Y0050965D01*
Y0046966D01*
Y0049966D01*
X0324190D01*
X0330188Y0052965D02*
X0334187D01*
X0332188D01*
Y0046966D01*
X0340185Y0052965D02*
X0336186D01*
Y0046966D01*
X0340185D01*
X0336186Y0049966D02*
X0338186D01*
X0342184Y0052965D02*
Y0046966D01*
X0345183D01*
X0346183Y0047966D01*
Y0051965D01*
X0345183Y0052965D01*
X0342184D01*
X0372175Y0050965D02*
X0373175D01*
Y0049966D01*
X0372175D01*
Y0050965D01*
Y0047966D02*
X0373175D01*
Y0046966D01*
X0372175D01*
Y0047966D01*
X0385149Y0046966D02*
X0381150D01*
X0385149Y0050965D01*
Y0051965D01*
X0384149Y0052965D01*
X0382150D01*
X0381150Y0051965D01*
X0387148Y0046966D02*
X0391147Y0050965D01*
X0393146Y0046966D02*
X0395146D01*
X0394146D01*
Y0052965D01*
X0393146Y0051965D01*
X0402143Y0052965D02*
X0398145D01*
Y0049966D01*
X0400144Y0050965D01*
X0401144D01*
X0402143Y0049966D01*
Y0047966D01*
X0401144Y0046966D01*
X0399144D01*
X0398145Y0047966D01*
X0404143Y0046966D02*
X0408141Y0050965D01*
X0414139Y0046966D02*
X0410141D01*
X0414139Y0050965D01*
Y0051965D01*
X0413140Y0052965D01*
X0411140D01*
X0410141Y0051965D01*
X0416139D02*
X0417138Y0052965D01*
X0419138D01*
X0420137Y0051965D01*
Y0047966D01*
X0419138Y0046966D01*
X0417138D01*
X0416139Y0047966D01*
Y0051965D01*
X0422137Y0046966D02*
X0424136D01*
X0423136D01*
Y0052965D01*
X0422137Y0051965D01*
X0427135Y0047966D02*
X0428135Y0046966D01*
X0430134D01*
X0431134Y0047966D01*
Y0051965D01*
X0430134Y0052965D01*
X0428135D01*
X0427135Y0051965D01*
Y0050965D01*
X0428135Y0049966D01*
X0431134D01*
X0433000Y0087833D02*
Y0093831D01*
X0435999D01*
X0436999Y0092832D01*
Y0090832D01*
X0435999Y0089833D01*
X0433000D01*
X0434999D02*
X0436999Y0087833D01*
X0442997Y0093831D02*
X0438998D01*
Y0087833D01*
X0442997D01*
X0438998Y0090832D02*
X0440997D01*
X0444996Y0093831D02*
Y0089833D01*
X0446995Y0087833D01*
X0448995Y0089833D01*
Y0093831D01*
X0450994Y0091832D02*
X0451994D01*
Y0090832D01*
X0450994D01*
Y0091832D01*
Y0088833D02*
X0451994D01*
Y0087833D01*
X0450994D01*
Y0088833D01*
X0520799Y0092832D02*
X0519799Y0093831D01*
X0517800D01*
X0516800Y0092832D01*
Y0091832D01*
X0517800Y0090832D01*
X0519799D01*
X0520799Y0089833D01*
Y0088833D01*
X0519799Y0087833D01*
X0517800D01*
X0516800Y0088833D01*
X0522798Y0093831D02*
Y0089833D01*
X0524797Y0087833D01*
X0526797Y0089833D01*
Y0093831D01*
X0528796Y0087833D02*
Y0093831D01*
X0532795Y0087833D01*
Y0093831D01*
X0540792Y0087833D02*
Y0093831D01*
X0543791D01*
X0544791Y0092832D01*
Y0090832D01*
X0543791Y0089833D01*
X0540792D01*
X0542792D02*
X0544791Y0087833D01*
X0550789Y0093831D02*
X0546790D01*
Y0087833D01*
X0550789D01*
X0546790Y0090832D02*
X0548790D01*
X0552788Y0093831D02*
Y0089833D01*
X0554788Y0087833D01*
X0556787Y0089833D01*
Y0093831D01*
X0558786Y0091832D02*
X0559786D01*
Y0090832D01*
X0558786D01*
Y0091832D01*
Y0088833D02*
X0559786D01*
Y0087833D01*
X0558786D01*
Y0088833D01*
X0567400Y0087833D02*
Y0093831D01*
X0571399Y0087833D01*
Y0093831D01*
X0574398Y0087833D02*
X0576397D01*
X0577397Y0088833D01*
Y0090832D01*
X0576397Y0091832D01*
X0574398D01*
X0573398Y0090832D01*
Y0088833D01*
X0574398Y0087833D01*
X0580396Y0092832D02*
Y0091832D01*
X0579396D01*
X0581395D01*
X0580396D01*
Y0088833D01*
X0581395Y0087833D01*
X0590393Y0093831D02*
X0592392D01*
X0591392D01*
Y0087833D01*
X0590393D01*
X0592392D01*
X0595391D02*
Y0091832D01*
X0598390D01*
X0599390Y0090832D01*
Y0087833D01*
X0607387Y0093831D02*
Y0089833D01*
X0609386Y0087833D01*
X0611386Y0089833D01*
Y0093831D01*
X0616384Y0087833D02*
X0614385D01*
X0613385Y0088833D01*
Y0090832D01*
X0614385Y0091832D01*
X0616384D01*
X0617384Y0090832D01*
Y0089833D01*
X0613385D01*
X0619383Y0091832D02*
Y0087833D01*
Y0089833D01*
X0620383Y0090832D01*
X0621383Y0091832D01*
X0622382D01*
X0625381Y0087833D02*
X0628380D01*
X0629380Y0088833D01*
X0628380Y0089833D01*
X0626381D01*
X0625381Y0090832D01*
X0626381Y0091832D01*
X0629380D01*
X0631379Y0087833D02*
X0633379D01*
X0632379D01*
Y0091832D01*
X0631379D01*
X0637377Y0087833D02*
X0639377D01*
X0640376Y0088833D01*
Y0090832D01*
X0639377Y0091832D01*
X0637377D01*
X0636378Y0090832D01*
Y0088833D01*
X0637377Y0087833D01*
X0642376D02*
Y0091832D01*
X0645375D01*
X0646374Y0090832D01*
Y0087833D01*
X0652373Y0092832D02*
X0651373Y0093831D01*
X0649373D01*
X0648374Y0092832D01*
Y0088833D01*
X0649373Y0087833D01*
X0651373D01*
X0652373Y0088833D01*
X0655372Y0087833D02*
X0657371D01*
X0658371Y0088833D01*
Y0090832D01*
X0657371Y0091832D01*
X0655372D01*
X0654372Y0090832D01*
Y0088833D01*
X0655372Y0087833D01*
X0660370D02*
Y0091832D01*
X0663369D01*
X0664369Y0090832D01*
Y0087833D01*
X0667368Y0092832D02*
Y0091832D01*
X0666368D01*
X0668367D01*
X0667368D01*
Y0088833D01*
X0668367Y0087833D01*
X0671366Y0091832D02*
Y0087833D01*
Y0089833D01*
X0672366Y0090832D01*
X0673366Y0091832D01*
X0674365D01*
X0678364Y0087833D02*
X0680364D01*
X0681363Y0088833D01*
Y0090832D01*
X0680364Y0091832D01*
X0678364D01*
X0677364Y0090832D01*
Y0088833D01*
X0678364Y0087833D01*
X0683362D02*
X0685362D01*
X0684362D01*
Y0093831D01*
X0683362D01*
G54D17*
X0545389Y0252400D02*
Y0254900D01*
X0542789Y0257500D02*
X0545389Y0254900D01*
X0524589Y0257500D02*
X0542789D01*
X0448289Y0252100D02*
Y0254000D01*
X0445389Y0256900D02*
X0448289Y0254000D01*
X0427789Y0256900D02*
X0445389D01*
X0490889Y0258100D02*
X0491689Y0257300D01*
Y0258900D01*
X0490889Y0258100D02*
X0491689Y0258900D01*
X0490889Y0258100D02*
X0495489D01*
X0489489Y0242200D02*
X0490889D01*
X0488789Y0242900D02*
X0489489Y0242200D01*
X0488189Y0242900D02*
X0488789D01*
X0334225Y0247936D02*
Y0250042D01*
X0239389Y0247400D02*
Y0248700D01*
X0240589Y0249900D01*
X0271997Y0296439D02*
Y0293940D01*
X0271497Y0293440D01*
X0270497D01*
X0269998Y0293940D01*
Y0296439D01*
X0268998Y0293940D02*
X0268498Y0293440D01*
X0267498D01*
X0266999Y0293940D01*
Y0295939D01*
X0267498Y0296439D01*
X0268498D01*
X0268998Y0295939D01*
Y0295440D01*
X0268498Y0294940D01*
X0266999D01*
X0429589Y0229500D02*
X0432588D01*
Y0230999D01*
X0432088Y0231499D01*
X0431088D01*
X0430589Y0230999D01*
Y0229500D01*
Y0230500D02*
X0429589Y0231499D01*
Y0233998D02*
X0432588D01*
X0431088Y0232499D01*
Y0234498D01*
X0432088Y0235498D02*
X0432588Y0235998D01*
Y0236998D01*
X0432088Y0237497D01*
X0431588D01*
X0431088Y0236998D01*
X0430589Y0237497D01*
X0430089D01*
X0429589Y0236998D01*
Y0235998D01*
X0430089Y0235498D01*
X0430589D01*
X0431088Y0235998D01*
X0431588Y0235498D01*
X0432088D01*
X0431088Y0235998D02*
Y0236998D01*
X0418089Y0240100D02*
X0421088D01*
Y0241599D01*
X0420588Y0242099D01*
X0419589D01*
X0419089Y0241599D01*
Y0240100D01*
Y0241100D02*
X0418089Y0242099D01*
Y0244599D02*
X0421088D01*
X0419589Y0243099D01*
Y0245098D01*
X0421088Y0246098D02*
Y0248097D01*
X0420588D01*
X0418589Y0246098D01*
X0418089D01*
X0527153Y0229940D02*
X0530152D01*
Y0231440D01*
X0529652Y0231940D01*
X0528652D01*
X0528152Y0231440D01*
Y0229940D01*
Y0230940D02*
X0527153Y0231940D01*
Y0234439D02*
X0530152D01*
X0528652Y0232939D01*
Y0234939D01*
X0530152Y0237938D02*
X0529652Y0236938D01*
X0528652Y0235938D01*
X0527653D01*
X0527153Y0236438D01*
Y0237438D01*
X0527653Y0237938D01*
X0528152D01*
X0528652Y0237438D01*
Y0235938D01*
X0515153Y0240940D02*
X0518152D01*
Y0242440D01*
X0517652Y0242939D01*
X0516652D01*
X0516152Y0242440D01*
Y0240940D01*
Y0241940D02*
X0515153Y0242939D01*
Y0245439D02*
X0518152D01*
X0516652Y0243939D01*
Y0245938D01*
X0518152Y0248938D02*
Y0246938D01*
X0516652D01*
X0517152Y0247938D01*
Y0248438D01*
X0516652Y0248938D01*
X0515653D01*
X0515153Y0248438D01*
Y0247438D01*
X0515653Y0246938D01*
X0249589Y0238700D02*
X0252588D01*
Y0240199D01*
X0252088Y0240699D01*
X0251089D01*
X0250589Y0240199D01*
Y0238700D01*
Y0239700D02*
X0249589Y0240699D01*
Y0243198D02*
X0252588D01*
X0251089Y0241699D01*
Y0243698D01*
X0249589Y0244698D02*
Y0245698D01*
Y0245198D01*
X0252588D01*
X0252088Y0244698D01*
X0259889Y0237500D02*
X0262888D01*
Y0239000D01*
X0262388Y0239499D01*
X0261388D01*
X0260889Y0239000D01*
Y0237500D01*
Y0238500D02*
X0259889Y0239499D01*
X0262388Y0240499D02*
X0262888Y0240999D01*
Y0241999D01*
X0262388Y0242498D01*
X0261888D01*
X0261388Y0241999D01*
Y0241499D01*
Y0241999D01*
X0260889Y0242498D01*
X0260389D01*
X0259889Y0241999D01*
Y0240999D01*
X0260389Y0240499D01*
X0262388Y0243498D02*
X0262888Y0243998D01*
Y0244998D01*
X0262388Y0245497D01*
X0261888D01*
X0261388Y0244998D01*
X0260889Y0245497D01*
X0260389D01*
X0259889Y0244998D01*
Y0243998D01*
X0260389Y0243498D01*
X0260889D01*
X0261388Y0243998D01*
X0261888Y0243498D01*
X0262388D01*
X0261388Y0243998D02*
Y0244998D01*
X0262789Y0317600D02*
X0265788D01*
Y0319099D01*
X0265288Y0319599D01*
X0264288D01*
X0263789Y0319099D01*
Y0317600D01*
Y0318600D02*
X0262789Y0319599D01*
X0265288Y0320599D02*
X0265788Y0321099D01*
Y0322098D01*
X0265288Y0322598D01*
X0264788D01*
X0264288Y0322098D01*
Y0321599D01*
Y0322098D01*
X0263789Y0322598D01*
X0263289D01*
X0262789Y0322098D01*
Y0321099D01*
X0263289Y0320599D01*
X0265788Y0323598D02*
Y0325597D01*
X0265288D01*
X0263289Y0323598D01*
X0262789D01*
X0258551Y0321939D02*
X0259051Y0321440D01*
Y0320440D01*
X0258551Y0319940D01*
X0256552D01*
X0256052Y0320440D01*
Y0321440D01*
X0256552Y0321939D01*
X0256052Y0324439D02*
X0259051D01*
X0257552Y0322939D01*
Y0324939D01*
X0259051Y0325938D02*
Y0327938D01*
X0258551D01*
X0256552Y0325938D01*
X0256052D01*
X0356051Y0321939D02*
X0356551Y0321440D01*
Y0320440D01*
X0356051Y0319940D01*
X0354052D01*
X0353552Y0320440D01*
Y0321440D01*
X0354052Y0321939D01*
X0353552Y0324439D02*
X0356551D01*
X0355051Y0322939D01*
Y0324939D01*
X0356551Y0327938D02*
X0356051Y0326938D01*
X0355051Y0325938D01*
X0354052D01*
X0353552Y0326438D01*
Y0327438D01*
X0354052Y0327938D01*
X0354552D01*
X0355051Y0327438D01*
Y0325938D01*
X0426590Y0307899D02*
X0427090Y0308399D01*
X0428089D01*
X0428589Y0307899D01*
Y0305900D01*
X0428089Y0305400D01*
X0427090D01*
X0426590Y0305900D01*
X0424090Y0305400D02*
Y0308399D01*
X0425590Y0306899D01*
X0423591D01*
X0420592Y0308399D02*
X0422591D01*
Y0306899D01*
X0421591Y0307399D01*
X0421091D01*
X0420592Y0306899D01*
Y0305900D01*
X0421091Y0305400D01*
X0422091D01*
X0422591Y0305900D01*
X0523890Y0308399D02*
X0524390Y0308899D01*
X0525389D01*
X0525889Y0308399D01*
Y0306400D01*
X0525389Y0305900D01*
X0524390D01*
X0523890Y0306400D01*
X0521390Y0305900D02*
Y0308899D01*
X0522890Y0307400D01*
X0520891D01*
X0518391Y0305900D02*
Y0308899D01*
X0519891Y0307400D01*
X0517892D01*
X0322988Y0253299D02*
X0323488Y0252800D01*
Y0251800D01*
X0322988Y0251300D01*
X0320989D01*
X0320489Y0251800D01*
Y0252800D01*
X0320989Y0253299D01*
X0320489Y0255799D02*
X0323488D01*
X0321989Y0254299D01*
Y0256298D01*
X0322988Y0257298D02*
X0323488Y0257798D01*
Y0258798D01*
X0322988Y0259297D01*
X0322488D01*
X0321989Y0258798D01*
Y0258298D01*
Y0258798D01*
X0321489Y0259297D01*
X0320989D01*
X0320489Y0258798D01*
Y0257798D01*
X0320989Y0257298D01*
X0228388Y0253499D02*
X0228888Y0252999D01*
Y0252000D01*
X0228388Y0251500D01*
X0226389D01*
X0225889Y0252000D01*
Y0252999D01*
X0226389Y0253499D01*
X0225889Y0255998D02*
X0228888D01*
X0227389Y0254499D01*
Y0256498D01*
X0225889Y0257498D02*
Y0258498D01*
Y0257998D01*
X0228888D01*
X0228388Y0257498D01*
X0244816Y0271381D02*
X0244316Y0271881D01*
Y0272881D01*
X0244816Y0273380D01*
X0246815D01*
X0247315Y0272881D01*
Y0271881D01*
X0246815Y0271381D01*
X0247315Y0268882D02*
X0244316D01*
X0245815Y0270381D01*
Y0268382D01*
X0244816Y0267382D02*
X0244316Y0266882D01*
Y0265883D01*
X0244816Y0265383D01*
X0246815D01*
X0247315Y0265883D01*
Y0266882D01*
X0246815Y0267382D01*
X0244816D01*
X0286288Y0253299D02*
X0286788Y0252800D01*
Y0251800D01*
X0286288Y0251300D01*
X0284289D01*
X0283789Y0251800D01*
Y0252800D01*
X0284289Y0253299D01*
X0286288Y0254299D02*
X0286788Y0254799D01*
Y0255799D01*
X0286288Y0256298D01*
X0285788D01*
X0285289Y0255799D01*
Y0255299D01*
Y0255799D01*
X0284789Y0256298D01*
X0284289D01*
X0283789Y0255799D01*
Y0254799D01*
X0284289Y0254299D01*
Y0257298D02*
X0283789Y0257798D01*
Y0258798D01*
X0284289Y0259297D01*
X0286288D01*
X0286788Y0258798D01*
Y0257798D01*
X0286288Y0257298D01*
X0285788D01*
X0285289Y0257798D01*
Y0259297D01*
X0270988Y0264999D02*
X0271488Y0264499D01*
Y0263500D01*
X0270988Y0263000D01*
X0268989D01*
X0268489Y0263500D01*
Y0264499D01*
X0268989Y0264999D01*
X0270988Y0265999D02*
X0271488Y0266499D01*
Y0267498D01*
X0270988Y0267998D01*
X0270488D01*
X0269988Y0267498D01*
Y0266999D01*
Y0267498D01*
X0269489Y0267998D01*
X0268989D01*
X0268489Y0267498D01*
Y0266499D01*
X0268989Y0265999D01*
X0270988Y0268998D02*
X0271488Y0269498D01*
Y0270498D01*
X0270988Y0270997D01*
X0270488D01*
X0269988Y0270498D01*
X0269489Y0270997D01*
X0268989D01*
X0268489Y0270498D01*
Y0269498D01*
X0268989Y0268998D01*
X0269489D01*
X0269988Y0269498D01*
X0270488Y0268998D01*
X0270988D01*
X0269988Y0269498D02*
Y0270498D01*
X0252051Y0321939D02*
X0252551Y0321440D01*
Y0320440D01*
X0252051Y0319940D01*
X0250052D01*
X0249552Y0320440D01*
Y0321440D01*
X0250052Y0321939D01*
X0252051Y0322939D02*
X0252551Y0323439D01*
Y0324439D01*
X0252051Y0324939D01*
X0251551D01*
X0251051Y0324439D01*
Y0323939D01*
Y0324439D01*
X0250552Y0324939D01*
X0250052D01*
X0249552Y0324439D01*
Y0323439D01*
X0250052Y0322939D01*
X0252551Y0327938D02*
Y0325938D01*
X0251051D01*
X0251551Y0326938D01*
Y0327438D01*
X0251051Y0327938D01*
X0250052D01*
X0249552Y0327438D01*
Y0326438D01*
X0250052Y0325938D01*
X0361789Y0222399D02*
Y0219400D01*
X0359790D01*
X0358790Y0222399D02*
Y0219400D01*
X0357290D01*
X0356791Y0219900D01*
Y0220400D01*
X0357290Y0220900D01*
X0358790D01*
X0357290D01*
X0356791Y0221399D01*
Y0221899D01*
X0357290Y0222399D01*
X0358790D01*
X0355791D02*
Y0219400D01*
X0353792D01*
X0352792D02*
X0351792D01*
X0352292D01*
Y0222399D01*
X0352792Y0221899D01*
X0574190Y0308199D02*
X0574689Y0308699D01*
X0575689D01*
X0576189Y0308199D01*
Y0306200D01*
X0575689Y0305700D01*
X0574689D01*
X0574190Y0306200D01*
X0571191Y0305700D02*
X0573190D01*
X0571191Y0307699D01*
Y0308199D01*
X0571690Y0308699D01*
X0572690D01*
X0573190Y0308199D01*
X0570191Y0305700D02*
X0569191D01*
X0569691D01*
Y0308699D01*
X0570191Y0308199D01*
X0521890Y0256799D02*
X0522390Y0257299D01*
X0523389D01*
X0523889Y0256799D01*
Y0254800D01*
X0523389Y0254300D01*
X0522390D01*
X0521890Y0254800D01*
X0518891Y0254300D02*
X0520890D01*
X0518891Y0256299D01*
Y0256799D01*
X0519390Y0257299D01*
X0520390D01*
X0520890Y0256799D01*
X0515892Y0254300D02*
X0517891D01*
X0515892Y0256299D01*
Y0256799D01*
X0516391Y0257299D01*
X0517391D01*
X0517891Y0256799D01*
X0551590Y0234899D02*
X0552090Y0235399D01*
X0553089D01*
X0553589Y0234899D01*
Y0232900D01*
X0553089Y0232400D01*
X0552090D01*
X0551590Y0232900D01*
X0548591Y0232400D02*
X0550590D01*
X0548591Y0234399D01*
Y0234899D01*
X0549090Y0235399D01*
X0550090D01*
X0550590Y0234899D01*
X0547591D02*
X0547091Y0235399D01*
X0546091D01*
X0545592Y0234899D01*
Y0234399D01*
X0546091Y0233899D01*
X0546591D01*
X0546091D01*
X0545592Y0233400D01*
Y0232900D01*
X0546091Y0232400D01*
X0547091D01*
X0547591Y0232900D01*
X0349051Y0321939D02*
X0349551Y0321440D01*
Y0320440D01*
X0349051Y0319940D01*
X0347052D01*
X0346552Y0320440D01*
Y0321440D01*
X0347052Y0321939D01*
X0349051Y0322939D02*
X0349551Y0323439D01*
Y0324439D01*
X0349051Y0324939D01*
X0348551D01*
X0348052Y0324439D01*
Y0323939D01*
Y0324439D01*
X0347552Y0324939D01*
X0347052D01*
X0346552Y0324439D01*
Y0323439D01*
X0347052Y0322939D01*
X0346552Y0327438D02*
X0349551D01*
X0348052Y0325938D01*
Y0327938D01*
X0381788Y0254099D02*
X0382288Y0253600D01*
Y0252600D01*
X0381788Y0252100D01*
X0379789D01*
X0379289Y0252600D01*
Y0253600D01*
X0379789Y0254099D01*
X0381788Y0255099D02*
X0382288Y0255599D01*
Y0256598D01*
X0381788Y0257098D01*
X0381288D01*
X0380788Y0256598D01*
Y0256099D01*
Y0256598D01*
X0380289Y0257098D01*
X0379789D01*
X0379289Y0256598D01*
Y0255599D01*
X0379789Y0255099D01*
X0382288Y0258098D02*
Y0260097D01*
X0381788D01*
X0379789Y0258098D01*
X0379289D01*
X0482890Y0311999D02*
X0483390Y0312499D01*
X0484389D01*
X0484889Y0311999D01*
Y0310000D01*
X0484389Y0309500D01*
X0483390D01*
X0482890Y0310000D01*
X0479891Y0309500D02*
X0481890D01*
X0479891Y0311499D01*
Y0311999D01*
X0480390Y0312499D01*
X0481390D01*
X0481890Y0311999D01*
X0478891D02*
X0478391Y0312499D01*
X0477391D01*
X0476892Y0311999D01*
Y0311499D01*
X0477391Y0310999D01*
X0476892Y0310500D01*
Y0310000D01*
X0477391Y0309500D01*
X0478391D01*
X0478891Y0310000D01*
Y0310500D01*
X0478391Y0310999D01*
X0478891Y0311499D01*
Y0311999D01*
X0478391Y0310999D02*
X0477391D01*
X0574323Y0268383D02*
X0574739Y0268799D01*
X0575572D01*
X0575989Y0268383D01*
Y0266717D01*
X0575572Y0266300D01*
X0574739D01*
X0574323Y0266717D01*
X0571824Y0266300D02*
X0573490D01*
X0571824Y0267966D01*
Y0268383D01*
X0572240Y0268799D01*
X0573073D01*
X0573490Y0268383D01*
X0569324Y0268799D02*
X0570157Y0268383D01*
X0570991Y0267550D01*
Y0266717D01*
X0570574Y0266300D01*
X0569741D01*
X0569324Y0266717D01*
Y0267133D01*
X0569741Y0267550D01*
X0570991D01*
X0582123Y0268683D02*
X0582539Y0269099D01*
X0583372D01*
X0583789Y0268683D01*
Y0267017D01*
X0583372Y0266600D01*
X0582539D01*
X0582123Y0267017D01*
X0579624Y0266600D02*
X0581290D01*
X0579624Y0268266D01*
Y0268683D01*
X0580040Y0269099D01*
X0580873D01*
X0581290Y0268683D01*
X0578791Y0269099D02*
X0577125D01*
Y0268683D01*
X0578791Y0267017D01*
Y0266600D01*
X0499488Y0255899D02*
X0499988Y0255399D01*
Y0254400D01*
X0499488Y0253900D01*
X0497489D01*
X0496989Y0254400D01*
Y0255399D01*
X0497489Y0255899D01*
X0499488Y0256899D02*
X0499988Y0257399D01*
Y0258399D01*
X0499488Y0258898D01*
X0498988D01*
X0498489Y0258399D01*
Y0257899D01*
Y0258399D01*
X0497989Y0258898D01*
X0497489D01*
X0496989Y0258399D01*
Y0257399D01*
X0497489Y0256899D01*
X0496989Y0261897D02*
Y0259898D01*
X0498988Y0261897D01*
X0499488D01*
X0499988Y0261398D01*
Y0260398D01*
X0499488Y0259898D01*
X0503488Y0255899D02*
X0503988Y0255399D01*
Y0254400D01*
X0503488Y0253900D01*
X0501489D01*
X0500989Y0254400D01*
Y0255399D01*
X0501489Y0255899D01*
X0503488Y0256899D02*
X0503988Y0257399D01*
Y0258399D01*
X0503488Y0258898D01*
X0502988D01*
X0502489Y0258399D01*
Y0257899D01*
Y0258399D01*
X0501989Y0258898D01*
X0501489D01*
X0500989Y0258399D01*
Y0257399D01*
X0501489Y0256899D01*
X0503488Y0259898D02*
X0503988Y0260398D01*
Y0261398D01*
X0503488Y0261897D01*
X0502988D01*
X0502489Y0261398D01*
Y0260898D01*
Y0261398D01*
X0501989Y0261897D01*
X0501489D01*
X0500989Y0261398D01*
Y0260398D01*
X0501489Y0259898D01*
X0496290Y0243299D02*
X0496790Y0243799D01*
X0497789D01*
X0498289Y0243299D01*
Y0241300D01*
X0497789Y0240800D01*
X0496790D01*
X0496290Y0241300D01*
X0495290Y0243299D02*
X0494790Y0243799D01*
X0493790D01*
X0493291Y0243299D01*
Y0242799D01*
X0493790Y0242300D01*
X0494290D01*
X0493790D01*
X0493291Y0241800D01*
Y0241300D01*
X0493790Y0240800D01*
X0494790D01*
X0495290Y0241300D01*
X0492291Y0240800D02*
X0491291D01*
X0491791D01*
Y0243799D01*
X0492291Y0243299D01*
X0518888Y0199400D02*
X0515889D01*
Y0200900D01*
X0516389Y0201399D01*
X0518388D01*
X0518888Y0200900D01*
Y0199400D01*
Y0202399D02*
Y0204398D01*
X0518388D01*
X0516389Y0202399D01*
X0515889D01*
X0592488Y0234100D02*
X0589489D01*
Y0235599D01*
X0589989Y0236099D01*
X0591988D01*
X0592488Y0235599D01*
Y0234100D01*
X0591988Y0237099D02*
X0592488Y0237599D01*
Y0238598D01*
X0591988Y0239098D01*
X0591488D01*
X0590988Y0238598D01*
X0590489Y0239098D01*
X0589989D01*
X0589489Y0238598D01*
Y0237599D01*
X0589989Y0237099D01*
X0590489D01*
X0590988Y0237599D01*
X0591488Y0237099D01*
X0591988D01*
X0590988Y0237599D02*
Y0238598D01*
X0405619Y0209541D02*
Y0212540D01*
X0407118D01*
X0407618Y0212040D01*
Y0210041D01*
X0407118Y0209541D01*
X0405619D01*
X0408618Y0212040D02*
X0409118Y0212540D01*
X0410117D01*
X0410617Y0212040D01*
Y0210041D01*
X0410117Y0209541D01*
X0409118D01*
X0408618Y0210041D01*
Y0210541D01*
X0409118Y0211041D01*
X0410617D01*
X0498189Y0236699D02*
Y0233700D01*
X0496690D01*
X0496190Y0234200D01*
Y0236199D01*
X0496690Y0236699D01*
X0498189D01*
X0495190Y0233700D02*
X0494190D01*
X0494690D01*
Y0236699D01*
X0495190Y0236199D01*
X0492691D02*
X0492191Y0236699D01*
X0491191D01*
X0490691Y0236199D01*
Y0234200D01*
X0491191Y0233700D01*
X0492191D01*
X0492691Y0234200D01*
Y0236199D01*
X0566589Y0320900D02*
Y0323899D01*
X0565090D01*
X0564590Y0323399D01*
Y0322399D01*
X0565090Y0321900D01*
X0566589D01*
X0565589D02*
X0564590Y0320900D01*
X0563590D02*
X0562590D01*
X0563090D01*
Y0323899D01*
X0563590Y0323399D01*
X0561091Y0323899D02*
X0559091D01*
Y0323399D01*
X0561091Y0321400D01*
Y0320900D01*
X0340052Y0319940D02*
X0343051D01*
Y0321440D01*
X0342551Y0321939D01*
X0341551D01*
X0341052Y0321440D01*
Y0319940D01*
Y0320940D02*
X0340052Y0321939D01*
X0342551Y0322939D02*
X0343051Y0323439D01*
Y0324439D01*
X0342551Y0324939D01*
X0342051D01*
X0341551Y0324439D01*
Y0323939D01*
Y0324439D01*
X0341052Y0324939D01*
X0340552D01*
X0340052Y0324439D01*
Y0323439D01*
X0340552Y0322939D01*
X0342551Y0325938D02*
X0343051Y0326438D01*
Y0327438D01*
X0342551Y0327938D01*
X0342051D01*
X0341551Y0327438D01*
Y0326938D01*
Y0327438D01*
X0341052Y0327938D01*
X0340552D01*
X0340052Y0327438D01*
Y0326438D01*
X0340552Y0325938D01*
X0590089Y0224100D02*
Y0227099D01*
X0588589D01*
X0588090Y0226599D01*
Y0225600D01*
X0588589Y0225100D01*
X0590089D01*
X0589089D02*
X0588090Y0224100D01*
X0585091D02*
X0587090D01*
X0585091Y0226099D01*
Y0226599D01*
X0585590Y0227099D01*
X0586590D01*
X0587090Y0226599D01*
X0584091D02*
X0583591Y0227099D01*
X0582591D01*
X0582092Y0226599D01*
Y0224600D01*
X0582591Y0224100D01*
X0583591D01*
X0584091Y0224600D01*
Y0226599D01*
X0535689Y0227200D02*
X0538688D01*
Y0228699D01*
X0538188Y0229199D01*
X0537188D01*
X0536689Y0228699D01*
Y0227200D01*
Y0228200D02*
X0535689Y0229199D01*
Y0232198D02*
Y0230199D01*
X0537688Y0232198D01*
X0538188D01*
X0538688Y0231698D01*
Y0230699D01*
X0538188Y0230199D01*
X0535689Y0233198D02*
Y0234198D01*
Y0233698D01*
X0538688D01*
X0538188Y0233198D01*
X0559389Y0226100D02*
X0562388D01*
Y0227600D01*
X0561888Y0228099D01*
X0560888D01*
X0560389Y0227600D01*
Y0226100D01*
Y0227100D02*
X0559389Y0228099D01*
Y0231098D02*
Y0229099D01*
X0561388Y0231098D01*
X0561888D01*
X0562388Y0230598D01*
Y0229599D01*
X0561888Y0229099D01*
X0559389Y0234097D02*
Y0232098D01*
X0561388Y0234097D01*
X0561888D01*
X0562388Y0233598D01*
Y0232598D01*
X0561888Y0232098D01*
X0359789Y0317500D02*
X0362788D01*
Y0319000D01*
X0362288Y0319499D01*
X0361288D01*
X0360789Y0319000D01*
Y0317500D01*
Y0318500D02*
X0359789Y0319499D01*
X0362288Y0320499D02*
X0362788Y0320999D01*
Y0321999D01*
X0362288Y0322498D01*
X0361788D01*
X0361288Y0321999D01*
Y0321499D01*
Y0321999D01*
X0360789Y0322498D01*
X0360289D01*
X0359789Y0321999D01*
Y0320999D01*
X0360289Y0320499D01*
X0362788Y0325497D02*
Y0323498D01*
X0361288D01*
X0361788Y0324498D01*
Y0324998D01*
X0361288Y0325497D01*
X0360289D01*
X0359789Y0324998D01*
Y0323998D01*
X0360289Y0323498D01*
X0355989Y0237500D02*
X0358988D01*
Y0239000D01*
X0358488Y0239499D01*
X0357488D01*
X0356989Y0239000D01*
Y0237500D01*
Y0238500D02*
X0355989Y0239499D01*
X0358488Y0240499D02*
X0358988Y0240999D01*
Y0241999D01*
X0358488Y0242498D01*
X0357988D01*
X0357488Y0241999D01*
Y0241499D01*
Y0241999D01*
X0356989Y0242498D01*
X0356489D01*
X0355989Y0241999D01*
Y0240999D01*
X0356489Y0240499D01*
X0358988Y0245497D02*
X0358488Y0244498D01*
X0357488Y0243498D01*
X0356489D01*
X0355989Y0243998D01*
Y0244998D01*
X0356489Y0245497D01*
X0356989D01*
X0357488Y0244998D01*
Y0243498D01*
X0345189Y0237000D02*
X0348188D01*
Y0238499D01*
X0347688Y0238999D01*
X0346689D01*
X0346189Y0238499D01*
Y0237000D01*
Y0238000D02*
X0345189Y0238999D01*
X0347688Y0239999D02*
X0348188Y0240499D01*
Y0241498D01*
X0347688Y0241998D01*
X0347188D01*
X0346689Y0241498D01*
Y0240999D01*
Y0241498D01*
X0346189Y0241998D01*
X0345689D01*
X0345189Y0241498D01*
Y0240499D01*
X0345689Y0239999D01*
Y0242998D02*
X0345189Y0243498D01*
Y0244498D01*
X0345689Y0244997D01*
X0347688D01*
X0348188Y0244498D01*
Y0243498D01*
X0347688Y0242998D01*
X0347188D01*
X0346689Y0243498D01*
Y0244997D01*
X0484089Y0315300D02*
Y0318299D01*
X0482589D01*
X0482090Y0317799D01*
Y0316799D01*
X0482589Y0316300D01*
X0484089D01*
X0483089D02*
X0482090Y0315300D01*
X0479091D02*
X0481090D01*
X0479091Y0317299D01*
Y0317799D01*
X0479590Y0318299D01*
X0480590D01*
X0481090Y0317799D01*
X0476092Y0318299D02*
X0477091Y0317799D01*
X0478091Y0316799D01*
Y0315800D01*
X0477591Y0315300D01*
X0476591D01*
X0476092Y0315800D01*
Y0316300D01*
X0476591Y0316799D01*
X0478091D01*
X0457989Y0327300D02*
Y0330299D01*
X0456490D01*
X0455990Y0329799D01*
Y0328800D01*
X0456490Y0328300D01*
X0457989D01*
X0456989D02*
X0455990Y0327300D01*
X0454990Y0329799D02*
X0454490Y0330299D01*
X0453490D01*
X0452991Y0329799D01*
Y0329299D01*
X0453490Y0328800D01*
X0453990D01*
X0453490D01*
X0452991Y0328300D01*
Y0327800D01*
X0453490Y0327300D01*
X0454490D01*
X0454990Y0327800D01*
X0451991Y0327300D02*
X0450991D01*
X0451491D01*
Y0330299D01*
X0451991Y0329799D01*
X0555289Y0328300D02*
Y0331299D01*
X0553790D01*
X0553290Y0330799D01*
Y0329800D01*
X0553790Y0329300D01*
X0555289D01*
X0554289D02*
X0553290Y0328300D01*
X0550291D02*
X0552290D01*
X0550291Y0330299D01*
Y0330799D01*
X0550790Y0331299D01*
X0551790D01*
X0552290Y0330799D01*
X0549291D02*
X0548791Y0331299D01*
X0547791D01*
X0547292Y0330799D01*
Y0330299D01*
X0547791Y0329800D01*
X0548291D01*
X0547791D01*
X0547292Y0329300D01*
Y0328800D01*
X0547791Y0328300D01*
X0548791D01*
X0549291Y0328800D01*
X0464289Y0225700D02*
X0467288D01*
Y0227200D01*
X0466788Y0227699D01*
X0465789D01*
X0465289Y0227200D01*
Y0225700D01*
Y0226700D02*
X0464289Y0227699D01*
X0466788Y0228699D02*
X0467288Y0229199D01*
Y0230199D01*
X0466788Y0230698D01*
X0466288D01*
X0465789Y0230199D01*
Y0229699D01*
Y0230199D01*
X0465289Y0230698D01*
X0464789D01*
X0464289Y0230199D01*
Y0229199D01*
X0464789Y0228699D01*
X0466788Y0231698D02*
X0467288Y0232198D01*
Y0233198D01*
X0466788Y0233697D01*
X0464789D01*
X0464289Y0233198D01*
Y0232198D01*
X0464789Y0231698D01*
X0466788D01*
X0243052Y0319940D02*
X0246051D01*
Y0321440D01*
X0245551Y0321939D01*
X0244551D01*
X0244052Y0321440D01*
Y0319940D01*
Y0320940D02*
X0243052Y0321939D01*
X0245551Y0322939D02*
X0246051Y0323439D01*
Y0324439D01*
X0245551Y0324939D01*
X0245051D01*
X0244551Y0324439D01*
Y0323939D01*
Y0324439D01*
X0244052Y0324939D01*
X0243552D01*
X0243052Y0324439D01*
Y0323439D01*
X0243552Y0322939D01*
X0243052Y0327438D02*
X0246051D01*
X0244551Y0325938D01*
Y0327938D01*
X0526008Y0263439D02*
Y0260940D01*
X0525508Y0260440D01*
X0524508D01*
X0524009Y0260940D01*
Y0263439D01*
X0521009D02*
X0523009D01*
Y0261940D01*
X0522009Y0262439D01*
X0521509D01*
X0521009Y0261940D01*
Y0260940D01*
X0521509Y0260440D01*
X0522509D01*
X0523009Y0260940D01*
X0368189Y0296799D02*
Y0294300D01*
X0367689Y0293800D01*
X0366689D01*
X0366190Y0294300D01*
Y0296799D01*
X0365190Y0296299D02*
X0364690Y0296799D01*
X0363690D01*
X0363191Y0296299D01*
Y0295799D01*
X0363690Y0295300D01*
X0363191Y0294800D01*
Y0294300D01*
X0363690Y0293800D01*
X0364690D01*
X0365190Y0294300D01*
Y0294800D01*
X0364690Y0295300D01*
X0365190Y0295799D01*
Y0296299D01*
X0364690Y0295300D02*
X0363690D01*
X0437289Y0225700D02*
X0440288D01*
Y0227200D01*
X0439788Y0227699D01*
X0438789D01*
X0438289Y0227200D01*
Y0225700D01*
Y0226700D02*
X0437289Y0227699D01*
Y0230698D02*
Y0228699D01*
X0439288Y0230698D01*
X0439788D01*
X0440288Y0230199D01*
Y0229199D01*
X0439788Y0228699D01*
X0437789Y0231698D02*
X0437289Y0232198D01*
Y0233198D01*
X0437789Y0233697D01*
X0439788D01*
X0440288Y0233198D01*
Y0232198D01*
X0439788Y0231698D01*
X0439288D01*
X0438789Y0232198D01*
Y0233697D01*
X0588588Y0244099D02*
X0589088Y0243600D01*
Y0242600D01*
X0588588Y0242100D01*
X0586589D01*
X0586089Y0242600D01*
Y0243600D01*
X0586589Y0244099D01*
X0586089Y0247098D02*
Y0245099D01*
X0588088Y0247098D01*
X0588588D01*
X0589088Y0246599D01*
Y0245599D01*
X0588588Y0245099D01*
X0589088Y0250097D02*
Y0248098D01*
X0587589D01*
X0588088Y0249098D01*
Y0249598D01*
X0587589Y0250097D01*
X0586589D01*
X0586089Y0249598D01*
Y0248598D01*
X0586589Y0248098D01*
X0424690Y0257799D02*
X0425189Y0258299D01*
X0426189D01*
X0426689Y0257799D01*
Y0255800D01*
X0426189Y0255300D01*
X0425189D01*
X0424690Y0255800D01*
X0421691Y0255300D02*
X0423690D01*
X0421691Y0257299D01*
Y0257799D01*
X0422190Y0258299D01*
X0423190D01*
X0423690Y0257799D01*
X0420691Y0255800D02*
X0420191Y0255300D01*
X0419191D01*
X0418692Y0255800D01*
Y0257799D01*
X0419191Y0258299D01*
X0420191D01*
X0420691Y0257799D01*
Y0257299D01*
X0420191Y0256800D01*
X0418692D01*
X0454090Y0234599D02*
X0454590Y0235099D01*
X0455589D01*
X0456089Y0234599D01*
Y0232600D01*
X0455589Y0232100D01*
X0454590D01*
X0454090Y0232600D01*
X0453090Y0234599D02*
X0452590Y0235099D01*
X0451590D01*
X0451091Y0234599D01*
Y0234099D01*
X0451590Y0233599D01*
X0452090D01*
X0451590D01*
X0451091Y0233100D01*
Y0232600D01*
X0451590Y0232100D01*
X0452590D01*
X0453090Y0232600D01*
X0450091Y0234599D02*
X0449591Y0235099D01*
X0448591D01*
X0448092Y0234599D01*
Y0232600D01*
X0448591Y0232100D01*
X0449591D01*
X0450091Y0232600D01*
Y0234599D01*
X0535889Y0321200D02*
Y0324199D01*
X0534389D01*
X0533890Y0323699D01*
Y0322699D01*
X0534389Y0322200D01*
X0535889D01*
X0534889D02*
X0533890Y0321200D01*
X0532890D02*
X0531890D01*
X0532390D01*
Y0324199D01*
X0532890Y0323699D01*
X0530391Y0321700D02*
X0529891Y0321200D01*
X0528891D01*
X0528391Y0321700D01*
Y0323699D01*
X0528891Y0324199D01*
X0529891D01*
X0530391Y0323699D01*
Y0323199D01*
X0529891Y0322699D01*
X0528391D01*
X0438489Y0320800D02*
Y0323799D01*
X0436989D01*
X0436490Y0323299D01*
Y0322300D01*
X0436989Y0321800D01*
X0438489D01*
X0437489D02*
X0436490Y0320800D01*
X0433491D02*
X0435490D01*
X0433491Y0322799D01*
Y0323299D01*
X0433990Y0323799D01*
X0434990D01*
X0435490Y0323299D01*
X0432491Y0323799D02*
X0430492D01*
Y0323299D01*
X0432491Y0321300D01*
Y0320800D01*
X0493989Y0223800D02*
Y0226799D01*
X0492489D01*
X0491990Y0226299D01*
Y0225300D01*
X0492489Y0224800D01*
X0493989D01*
X0492989D02*
X0491990Y0223800D01*
X0488991D02*
X0490990D01*
X0488991Y0225799D01*
Y0226299D01*
X0489490Y0226799D01*
X0490490D01*
X0490990Y0226299D01*
X0487991D02*
X0487491Y0226799D01*
X0486491D01*
X0485992Y0226299D01*
Y0225799D01*
X0486491Y0225300D01*
X0485992Y0224800D01*
Y0224300D01*
X0486491Y0223800D01*
X0487491D01*
X0487991Y0224300D01*
Y0224800D01*
X0487491Y0225300D01*
X0487991Y0225799D01*
Y0226299D01*
X0487491Y0225300D02*
X0486491D01*
X0333988Y0241099D02*
X0334488Y0240599D01*
Y0239600D01*
X0333988Y0239100D01*
X0331989D01*
X0331489Y0239600D01*
Y0240599D01*
X0331989Y0241099D01*
X0331489Y0243599D02*
X0334488D01*
X0332989Y0242099D01*
Y0244098D01*
X0331489Y0247097D02*
Y0245098D01*
X0333488Y0247097D01*
X0333988D01*
X0334488Y0246598D01*
Y0245598D01*
X0333988Y0245098D01*
X0366988Y0264799D02*
X0367488Y0264300D01*
Y0263300D01*
X0366988Y0262800D01*
X0364989D01*
X0364489Y0263300D01*
Y0264300D01*
X0364989Y0264799D01*
X0366988Y0265799D02*
X0367488Y0266299D01*
Y0267299D01*
X0366988Y0267798D01*
X0366488D01*
X0365988Y0267299D01*
Y0266799D01*
Y0267299D01*
X0365489Y0267798D01*
X0364989D01*
X0364489Y0267299D01*
Y0266299D01*
X0364989Y0265799D01*
X0367488Y0270797D02*
X0366988Y0269798D01*
X0365988Y0268798D01*
X0364989D01*
X0364489Y0269298D01*
Y0270298D01*
X0364989Y0270797D01*
X0365489D01*
X0365988Y0270298D01*
Y0268798D01*
X0581789Y0200399D02*
Y0197400D01*
X0580290D01*
X0579790Y0197900D01*
Y0199899D01*
X0580290Y0200399D01*
X0581789D01*
X0578790Y0197400D02*
X0577790D01*
X0578290D01*
Y0200399D01*
X0578790Y0199899D01*
X0576291Y0200399D02*
X0574291D01*
Y0199899D01*
X0576291Y0197900D01*
Y0197400D01*
X0485289Y0200899D02*
Y0197900D01*
X0483789D01*
X0483290Y0198400D01*
Y0200399D01*
X0483789Y0200899D01*
X0485289D01*
X0482290Y0197900D02*
X0481290D01*
X0481790D01*
Y0200899D01*
X0482290Y0200399D01*
X0479791D02*
X0479291Y0200899D01*
X0478291D01*
X0477791Y0200399D01*
Y0199899D01*
X0478291Y0199399D01*
X0477791Y0198900D01*
Y0198400D01*
X0478291Y0197900D01*
X0479291D01*
X0479791Y0198400D01*
Y0198900D01*
X0479291Y0199399D01*
X0479791Y0199899D01*
Y0200399D01*
X0479291Y0199399D02*
X0478291D01*
X0224889Y0314300D02*
Y0317299D01*
X0223390D01*
X0222890Y0316799D01*
Y0315799D01*
X0223390Y0315300D01*
X0224889D01*
X0223889D02*
X0222890Y0314300D01*
X0219891Y0317299D02*
X0221890D01*
Y0315799D01*
X0220890Y0316299D01*
X0220390D01*
X0219891Y0315799D01*
Y0314800D01*
X0220390Y0314300D01*
X0221390D01*
X0221890Y0314800D01*
X0218891Y0314300D02*
X0217891D01*
X0218391D01*
Y0317299D01*
X0218891Y0316799D01*
X0326689Y0319200D02*
Y0322199D01*
X0325189D01*
X0324690Y0321699D01*
Y0320700D01*
X0325189Y0320200D01*
X0326689D01*
X0325689D02*
X0324690Y0319200D01*
X0321691Y0322199D02*
X0323690D01*
Y0320700D01*
X0322690Y0321199D01*
X0322190D01*
X0321691Y0320700D01*
Y0319700D01*
X0322190Y0319200D01*
X0323190D01*
X0323690Y0319700D01*
X0318692Y0319200D02*
X0320691D01*
X0318692Y0321199D01*
Y0321699D01*
X0319191Y0322199D01*
X0320191D01*
X0320691Y0321699D01*
X0411789Y0321400D02*
Y0324399D01*
X0410289D01*
X0409790Y0323899D01*
Y0322900D01*
X0410289Y0322400D01*
X0411789D01*
X0410789D02*
X0409790Y0321400D01*
X0406791Y0324399D02*
X0408790D01*
Y0322900D01*
X0407790Y0323399D01*
X0407290D01*
X0406791Y0322900D01*
Y0321900D01*
X0407290Y0321400D01*
X0408290D01*
X0408790Y0321900D01*
X0405791Y0323899D02*
X0405291Y0324399D01*
X0404291D01*
X0403792Y0323899D01*
Y0323399D01*
X0404291Y0322900D01*
X0404791D01*
X0404291D01*
X0403792Y0322400D01*
Y0321900D01*
X0404291Y0321400D01*
X0405291D01*
X0405791Y0321900D01*
X0508789Y0322000D02*
Y0324999D01*
X0507290D01*
X0506790Y0324499D01*
Y0323499D01*
X0507290Y0323000D01*
X0508789D01*
X0507789D02*
X0506790Y0322000D01*
X0503791Y0324999D02*
X0505790D01*
Y0323499D01*
X0504790Y0323999D01*
X0504290D01*
X0503791Y0323499D01*
Y0322500D01*
X0504290Y0322000D01*
X0505290D01*
X0505790Y0322500D01*
X0501291Y0322000D02*
Y0324999D01*
X0502791Y0323499D01*
X0500792D01*
X0428289Y0263099D02*
Y0260600D01*
X0427789Y0260100D01*
X0426790D01*
X0426290Y0260600D01*
Y0263099D01*
X0425290D02*
X0423291D01*
Y0262599D01*
X0425290Y0260600D01*
Y0260100D01*
X0348550Y0090832D02*
X0350549D01*
X0349550D01*
Y0087833D01*
X0351549Y0090832D02*
X0352549D01*
X0352049D01*
Y0087833D01*
X0351549D01*
X0352549D01*
X0354048Y0090832D02*
Y0087833D01*
X0355548D01*
X0356048Y0088333D01*
Y0090333D01*
X0355548Y0090832D01*
X0354048D01*
X0357047Y0087833D02*
Y0089833D01*
X0358047Y0090832D01*
X0359047Y0089833D01*
Y0087833D01*
Y0089333D01*
X0357047D01*
X0360046D02*
X0362046D01*
X0363045Y0090333D02*
X0363545Y0090832D01*
X0364545D01*
X0365045Y0090333D01*
Y0088333D01*
X0364545Y0087833D01*
X0363545D01*
X0363045Y0088333D01*
Y0090333D01*
X0366044Y0087833D02*
X0367044D01*
X0366544D01*
Y0090832D01*
X0366044Y0090333D01*
X0370543Y0090832D02*
X0369543Y0090333D01*
X0368544Y0089333D01*
Y0088333D01*
X0369043Y0087833D01*
X0370043D01*
X0370543Y0088333D01*
Y0088833D01*
X0370043Y0089333D01*
X0368544D01*
X0371543Y0090333D02*
X0372042Y0090832D01*
X0373042D01*
X0373542Y0090333D01*
Y0088333D01*
X0373042Y0087833D01*
X0372042D01*
X0371543Y0088333D01*
Y0090333D01*
X0376541Y0090832D02*
X0375541Y0090333D01*
X0374542Y0089333D01*
Y0088333D01*
X0375041Y0087833D01*
X0376041D01*
X0376541Y0088333D01*
Y0088833D01*
X0376041Y0089333D01*
X0374542D01*
X0377541Y0087334D02*
X0379540D01*
X0382539Y0090333D02*
X0382039Y0090832D01*
X0381040D01*
X0380540Y0090333D01*
Y0088333D01*
X0381040Y0087833D01*
X0382039D01*
X0382539Y0088333D01*
Y0089333D01*
X0381539D01*
X0384038Y0089833D02*
X0385038D01*
X0385538Y0089333D01*
Y0087833D01*
X0384038D01*
X0383539Y0088333D01*
X0384038Y0088833D01*
X0385538D01*
X0387038Y0090333D02*
Y0089833D01*
X0386538D01*
X0387537D01*
X0387038D01*
Y0088333D01*
X0387537Y0087833D01*
X0390536D02*
X0389537D01*
X0389037Y0088333D01*
Y0089333D01*
X0389537Y0089833D01*
X0390536D01*
X0391036Y0089333D01*
Y0088833D01*
X0389037D01*
X0395035Y0090832D02*
Y0087833D01*
X0396534D01*
X0397034Y0088333D01*
Y0090333D01*
X0396534Y0090832D01*
X0395035D01*
X0398034Y0089833D02*
Y0087833D01*
Y0088833D01*
X0398534Y0089333D01*
X0399034Y0089833D01*
X0399534D01*
X0401033Y0087833D02*
X0402033D01*
X0401533D01*
Y0089833D01*
X0401033D01*
X0403532D02*
X0404532Y0087833D01*
X0405532Y0089833D01*
X0408031Y0087833D02*
X0407031D01*
X0406531Y0088333D01*
Y0089333D01*
X0407031Y0089833D01*
X0408031D01*
X0408531Y0089333D01*
Y0088833D01*
X0406531D01*
X0409530Y0089833D02*
Y0087833D01*
Y0088833D01*
X0410030Y0089333D01*
X0410530Y0089833D01*
X0411030D01*
X0126900Y0049966D02*
X0128899D01*
X0127900D01*
Y0046966D01*
X0129899Y0049966D02*
X0130899D01*
X0130399D01*
Y0046966D01*
X0129899D01*
X0130899D01*
X0132398Y0049966D02*
Y0046966D01*
X0133898D01*
X0134398Y0047466D01*
Y0049466D01*
X0133898Y0049966D01*
X0132398D01*
X0135397Y0046966D02*
Y0048966D01*
X0136397Y0049966D01*
X0137397Y0048966D01*
Y0046966D01*
Y0048466D01*
X0135397D01*
X0138396D02*
X0140396D01*
X0141395Y0049466D02*
X0141895Y0049966D01*
X0142895D01*
X0143395Y0049466D01*
Y0047466D01*
X0142895Y0046966D01*
X0141895D01*
X0141395Y0047466D01*
Y0049466D01*
X0144394Y0046966D02*
X0145394D01*
X0144894D01*
Y0049966D01*
X0144394Y0049466D01*
X0148893Y0049966D02*
X0147893Y0049466D01*
X0146894Y0048466D01*
Y0047466D01*
X0147393Y0046966D01*
X0148393D01*
X0148893Y0047466D01*
Y0047966D01*
X0148393Y0048466D01*
X0146894D01*
X0149893Y0049466D02*
X0150392Y0049966D01*
X0151392D01*
X0151892Y0049466D01*
Y0047466D01*
X0151392Y0046966D01*
X0150392D01*
X0149893Y0047466D01*
Y0049466D01*
X0154891Y0049966D02*
X0153891Y0049466D01*
X0152892Y0048466D01*
Y0047466D01*
X0153391Y0046966D01*
X0154391D01*
X0154891Y0047466D01*
Y0047966D01*
X0154391Y0048466D01*
X0152892D01*
X0155891Y0046467D02*
X0157890D01*
X0160889Y0049466D02*
X0160389Y0049966D01*
X0159389D01*
X0158890Y0049466D01*
Y0047466D01*
X0159389Y0046966D01*
X0160389D01*
X0160889Y0047466D01*
Y0048466D01*
X0159889D01*
X0162389Y0048966D02*
X0163388D01*
X0163888Y0048466D01*
Y0046966D01*
X0162389D01*
X0161889Y0047466D01*
X0162389Y0047966D01*
X0163888D01*
X0165388Y0049466D02*
Y0048966D01*
X0164888D01*
X0165887D01*
X0165388D01*
Y0047466D01*
X0165887Y0046966D01*
X0168886D02*
X0167887D01*
X0167387Y0047466D01*
Y0048466D01*
X0167887Y0048966D01*
X0168886D01*
X0169386Y0048466D01*
Y0047966D01*
X0167387D01*
X0173385Y0049966D02*
Y0046966D01*
X0174884D01*
X0175384Y0047466D01*
Y0049466D01*
X0174884Y0049966D01*
X0173385D01*
X0176384Y0048966D02*
Y0046966D01*
Y0047966D01*
X0176884Y0048466D01*
X0177384Y0048966D01*
X0177884D01*
X0179383Y0046966D02*
X0180383D01*
X0179883D01*
Y0048966D01*
X0179383D01*
X0181882D02*
X0182882Y0046966D01*
X0183882Y0048966D01*
X0186381Y0046966D02*
X0185381D01*
X0184881Y0047466D01*
Y0048466D01*
X0185381Y0048966D01*
X0186381D01*
X0186881Y0048466D01*
Y0047966D01*
X0184881D01*
X0187880Y0048966D02*
Y0046966D01*
Y0047966D01*
X0188380Y0048466D01*
X0188880Y0048966D01*
X0189380D01*
X0192879Y0049966D02*
X0190879D01*
Y0046966D01*
X0192879D01*
X0190879Y0048466D02*
X0191879D01*
X0195378Y0046966D02*
Y0049966D01*
X0193878Y0048466D01*
X0195878D01*
X0196877Y0046966D02*
Y0047466D01*
X0197377D01*
Y0046966D01*
X0196877D01*
X0201376Y0049466D02*
X0200876Y0049966D01*
X0199876D01*
X0199376Y0049466D01*
Y0047466D01*
X0199876Y0046966D01*
X0200876D01*
X0201376Y0047466D01*
Y0048466D01*
X0200376D01*
X0202376Y0049966D02*
Y0046966D01*
X0203875D01*
X0204375Y0047466D01*
Y0047966D01*
X0203875Y0048466D01*
X0202376D01*
X0203875D01*
X0204375Y0048966D01*
Y0049466D01*
X0203875Y0049966D01*
X0202376D01*
X0206874D02*
X0205874D01*
X0205375Y0049466D01*
Y0047466D01*
X0205874Y0046966D01*
X0206874D01*
X0207374Y0047466D01*
Y0049466D01*
X0206874Y0049966D01*
G54D22*
X0578189Y0220300D02*
D03*
X0481779Y0220332D02*
D03*
G54D25*
X0559400Y0039400D02*
Y0059683D01*
X0440500Y0040050D02*
X0700200D01*
Y0101050D01*
X0286500Y0040050D02*
Y0101050D01*
X0040000Y0040050D02*
Y0101050D01*
X0040050Y0040050D02*
X0197600D01*
X0040050D02*
Y0101050D01*
Y0101050D02*
X0700200D01*
X0040000Y0040050D02*
X0440500D01*
X0040000Y0060383D02*
X0700000D01*
X0040000Y0080717D02*
X0700200D01*
X0413200D02*
Y0101050D01*
X0497200Y0080717D02*
Y0101050D01*
G54D98*
X0385789Y0211400D02*
G03*
X0388289Y0213900I0000000J0002500D01*
G01*
X0323289D02*
G03*
X0325789Y0211400I0002500J0000000D01*
G01*
Y0231400D02*
G03*
X0323289Y0228900I0000000J-0002500D01*
G01*
X0388289D02*
G03*
X0385789Y0231400I-0002500J0000000D01*
G01*
X0325789Y0211400D02*
X0385789D01*
X0323289Y0213900D02*
Y0228900D01*
X0325789Y0231400D02*
X0385789D01*
X0388289Y0213900D02*
Y0228900D01*
G54D99*
X0570098Y0235940D02*
D03*
X0471330Y0235440D02*
D03*
G54D100*
X0518689Y0201900D02*
D03*
X0420489D02*
D03*
M02*
