M48
;Layer_Color=9474304
;FILE_FORMAT=2:5
INCH
;TYPE=PLATED
T1F00S00C0.00787
T2F00S00C0.01200
T3F00S00C0.04000
T4F00S00C0.04331
T5F00S00C0.04331
;TYPE=NON_PLATED
%
T01
X0097276Y0284045
X0102000
Y0280108
Y0287982
X0106724Y0284045
T02
X0487489Y0231190
X0490130Y0245440
X0492189Y0253300
X0488630Y0254940
X0489130Y0263940
X0492189Y0261300
X0527357Y0254600
X0522098Y0237400
X0519289Y0233300
X0523429Y0231184
X0541589Y0228200
X0549600Y0227489
X0555712Y0228000
X0536839Y0219000
X0533039Y0218050
X0508789Y0216600
X0550057Y0256100
X0559257Y0256000
X0586008Y0255440
X0588689Y0253300
X0588389Y0261400
X0586553Y0264395
X0586344Y0231778
X0571008Y0310940
X0538989Y0307000
X0524307Y0310934
X0505989Y0307300
X0474085Y0310440
X0442089Y0305700
X0427429Y0310440
X0408984Y0306666
X0359552Y0299385
X0354552
X0318589Y0310400
X0326297Y0266940
X0332297
X0337789Y0265300
X0336952Y0246890
X0335389Y0243300
X0338589
X0327489Y0243400
X0325389Y0246200
X0329789
X0365942Y0245090
X0373997Y0245940
X0371442Y0266995
X0377942
X0429889Y0254100
X0424630Y0236900
X0422589Y0233300
X0426729Y0231184
X0443189Y0228100
X0452132Y0226989
X0458289Y0227500
X0436900Y0220611
X0438889Y0217000
X0412139Y0216650
X0452589Y0255600
X0461789Y0255500
X0308032Y0226989
X0299089Y0228100
X0294339Y0219000
X0295200Y0211400
X0287689Y0207800
Y0223100
X0280929Y0231184
X0276789Y0233300
X0277897Y0245940
X0269952Y0246791
X0242252Y0246791
X0241289Y0243200
X0244489Y0244400
X0235189Y0245600
X0230789
X0232889Y0242800
X0230197Y0266940
X0236197
X0242289Y0264400
X0258452Y0299385
X0263452
X0222289Y0299600
X0194200Y0258400
X0194200Y0251900
X0189200Y0237400
Y0229400
X0166700Y0229900
Y0237400
X0160247Y0224947
X0271239Y0220050
X0149350Y0222250
X0138200Y0227900
X0138200Y0236400
X0127989Y0222250
X0106840Y0230800
X0091600Y0220589
X0091500Y0211900
X0099200
X0097989Y0295400
X0144789Y0291900
X0144500Y0281900
X0143589Y0275700
X0150000Y0304900
Y0311400
X0148500Y0328400
X0118689Y0314300
X0099989
X0244552Y0317385
X0251052Y0317385
X0257552
X0314997Y0335440
X0341552Y0317385
X0348052Y0317385
X0354552
X0443889Y0322548
X0443997Y0327440
X0449589Y0332440
X0466997
Y0327440
X0461997Y0324440
X0474085Y0316934
X0473889Y0335300
X0559508Y0328440
X0571008Y0317434
T03
X0198089Y0318500
X0197889Y0330000
X0212789Y0323900
X0230989Y0315000
X0332689
X0418189Y0316800
X0515194Y0317434
T04
X0159121Y0201900
Y0211900
X0169121
X0179121
X0189121
Y0201900
X0179121
X0169121
X0149121
Y0211900
X0139121
X0129121
X0119121
Y0201900
X0129121
X0139121
T05
X0526444Y0201900
X0536444
X0546444
X0556444
X0460066
X0450066
X0440066
X0430066
X0363688
X0353688
X0343688
X0333688
X0267310
X0257310
X0247310
X0237310
M30
