G04*
G04 #@! TF.GenerationSoftware,Altium Limited,Altium Designer,18.1.9 (240)*
G04*
G04 Layer_Color=128*
%FSAX25Y25*%
%MOIN*%
G70*
G01*
G75*
%ADD15C,0.00800*%
%ADD17C,0.00600*%
%ADD25C,0.01000*%
%ADD98C,0.00500*%
G54D15*
X0045850Y0073649D02*
Y0067651D01*
X0049849D01*
X0051848D02*
Y0071649D01*
X0053847Y0073649D01*
X0055847Y0071649D01*
Y0067651D01*
Y0070650D01*
X0051848D01*
X0057846Y0073649D02*
Y0072649D01*
X0059846Y0070650D01*
X0061845Y0072649D01*
Y0073649D01*
X0059846Y0070650D02*
Y0067651D01*
X0067843Y0073649D02*
X0063844D01*
Y0067651D01*
X0067843D01*
X0063844Y0070650D02*
X0065843D01*
X0069842Y0067651D02*
Y0073649D01*
X0072841D01*
X0073841Y0072649D01*
Y0070650D01*
X0072841Y0069650D01*
X0069842D01*
X0071842D02*
X0073841Y0067651D01*
X0081838D02*
Y0073649D01*
X0085837Y0067651D01*
Y0073649D01*
X0087836Y0067651D02*
Y0071649D01*
X0089836Y0073649D01*
X0091835Y0071649D01*
Y0067651D01*
Y0070650D01*
X0087836D01*
X0093835Y0067651D02*
Y0073649D01*
X0095834Y0071649D01*
X0097833Y0073649D01*
Y0067651D01*
X0103831Y0073649D02*
X0099832D01*
Y0067651D01*
X0103831D01*
X0099832Y0070650D02*
X0101832D01*
X0111829Y0069650D02*
X0115827D01*
X0111829Y0071649D02*
X0115827D01*
X0348550Y0073498D02*
X0352549D01*
X0350549D01*
Y0067500D01*
X0354548Y0073498D02*
X0356547D01*
X0355548D01*
Y0067500D01*
X0354548D01*
X0356547D01*
X0359546Y0073498D02*
Y0067500D01*
X0362545D01*
X0363545Y0068500D01*
Y0072498D01*
X0362545Y0073498D01*
X0359546D01*
X0365545Y0067500D02*
Y0071499D01*
X0367544Y0073498D01*
X0369543Y0071499D01*
Y0067500D01*
Y0070499D01*
X0365545D01*
X0371543D02*
X0375541D01*
X0377541Y0072498D02*
X0378540Y0073498D01*
X0380540D01*
X0381539Y0072498D01*
Y0068500D01*
X0380540Y0067500D01*
X0378540D01*
X0377541Y0068500D01*
Y0072498D01*
X0383539Y0067500D02*
X0385538D01*
X0384538D01*
Y0073498D01*
X0383539Y0072498D01*
X0392536Y0073498D02*
X0390536Y0072498D01*
X0388537Y0070499D01*
Y0068500D01*
X0389537Y0067500D01*
X0391536D01*
X0392536Y0068500D01*
Y0069499D01*
X0391536Y0070499D01*
X0388537D01*
X0394535Y0072498D02*
X0395535Y0073498D01*
X0397534D01*
X0398534Y0072498D01*
Y0068500D01*
X0397534Y0067500D01*
X0395535D01*
X0394535Y0068500D01*
Y0072498D01*
X0404532Y0073498D02*
X0402532Y0072498D01*
X0400533Y0070499D01*
Y0068500D01*
X0401533Y0067500D01*
X0403532D01*
X0404532Y0068500D01*
Y0069499D01*
X0403532Y0070499D01*
X0400533D01*
X0294000Y0073498D02*
X0297999D01*
X0295999D01*
Y0067500D01*
X0299998Y0073498D02*
X0301997D01*
X0300998D01*
Y0067500D01*
X0299998D01*
X0301997D01*
X0304996Y0073498D02*
Y0067500D01*
X0307996D01*
X0308995Y0068500D01*
Y0072498D01*
X0307996Y0073498D01*
X0304996D01*
X0317992Y0067500D02*
Y0073498D01*
X0319992D02*
Y0067500D01*
X0316993Y0071499D02*
X0319992D01*
X0320991D01*
X0316993Y0069499D02*
X0320991D01*
X0322991Y0071499D02*
X0323990D01*
Y0070499D01*
X0322991D01*
Y0071499D01*
Y0068500D02*
X0323990D01*
Y0067500D01*
X0322991D01*
Y0068500D01*
X0580500Y0052965D02*
X0584499D01*
X0582499D01*
Y0046966D01*
X0590497Y0052965D02*
X0586498D01*
Y0046966D01*
X0590497D01*
X0586498Y0049966D02*
X0588497D01*
X0592496Y0052965D02*
X0596495Y0046966D01*
Y0052965D02*
X0592496Y0046966D01*
X0598494D02*
Y0050965D01*
X0600493Y0052965D01*
X0602493Y0050965D01*
Y0046966D01*
Y0049966D01*
X0598494D01*
X0608491Y0051965D02*
X0607491Y0052965D01*
X0605492D01*
X0604492Y0051965D01*
Y0050965D01*
X0605492Y0049966D01*
X0607491D01*
X0608491Y0048966D01*
Y0047966D01*
X0607491Y0046966D01*
X0605492D01*
X0604492Y0047966D01*
X0616488Y0052965D02*
X0618488D01*
X0617488D01*
Y0046966D01*
X0616488D01*
X0618488D01*
X0621487D02*
Y0052965D01*
X0625486Y0046966D01*
Y0052965D01*
X0631484Y0051965D02*
X0630484Y0052965D01*
X0628484D01*
X0627485Y0051965D01*
Y0050965D01*
X0628484Y0049966D01*
X0630484D01*
X0631484Y0048966D01*
Y0047966D01*
X0630484Y0046966D01*
X0628484D01*
X0627485Y0047966D01*
X0633483Y0052965D02*
X0637482D01*
X0635482D01*
Y0046966D01*
X0639481D02*
Y0052965D01*
X0642480D01*
X0643480Y0051965D01*
Y0049966D01*
X0642480Y0048966D01*
X0639481D01*
X0641480D02*
X0643480Y0046966D01*
X0645479Y0052965D02*
Y0047966D01*
X0646479Y0046966D01*
X0648478D01*
X0649478Y0047966D01*
Y0052965D01*
X0651477Y0046966D02*
Y0052965D01*
X0653476Y0050965D01*
X0655476Y0052965D01*
Y0046966D01*
X0661474Y0052965D02*
X0657475D01*
Y0046966D01*
X0661474D01*
X0657475Y0049966D02*
X0659474D01*
X0663473Y0046966D02*
Y0052965D01*
X0667472Y0046966D01*
Y0052965D01*
X0669471D02*
X0673470D01*
X0671471D01*
Y0046966D01*
X0679468Y0051965D02*
X0678468Y0052965D01*
X0676469D01*
X0675469Y0051965D01*
Y0050965D01*
X0676469Y0049966D01*
X0678468D01*
X0679468Y0048966D01*
Y0047966D01*
X0678468Y0046966D01*
X0676469D01*
X0675469Y0047966D01*
X0454050Y0051965D02*
X0455050Y0052965D01*
X0457049D01*
X0458049Y0051965D01*
Y0050965D01*
X0457049Y0049966D01*
X0458049Y0048966D01*
Y0047966D01*
X0457049Y0046966D01*
X0455050D01*
X0454050Y0047966D01*
Y0048966D01*
X0455050Y0049966D01*
X0454050Y0050965D01*
Y0051965D01*
X0455050Y0049966D02*
X0457049D01*
X0460048Y0050965D02*
X0461048D01*
Y0049966D01*
X0460048D01*
Y0050965D01*
Y0047966D02*
X0461048D01*
Y0046966D01*
X0460048D01*
Y0047966D01*
X0465046Y0051965D02*
X0466046Y0052965D01*
X0468046D01*
X0469045Y0051965D01*
Y0050965D01*
X0468046Y0049966D01*
X0467046D01*
X0468046D01*
X0469045Y0048966D01*
Y0047966D01*
X0468046Y0046966D01*
X0466046D01*
X0465046Y0047966D01*
X0471044D02*
X0472044Y0046966D01*
X0474044D01*
X0475043Y0047966D01*
Y0051965D01*
X0474044Y0052965D01*
X0472044D01*
X0471044Y0051965D01*
Y0050965D01*
X0472044Y0049966D01*
X0475043D01*
X0477043Y0050965D02*
X0478042D01*
Y0049966D01*
X0477043D01*
Y0050965D01*
Y0047966D02*
X0478042D01*
Y0046966D01*
X0477043D01*
Y0047966D01*
X0485040Y0046966D02*
Y0052965D01*
X0482041Y0049966D01*
X0486040D01*
X0492038Y0046966D02*
X0488039D01*
X0492038Y0050965D01*
Y0051965D01*
X0491038Y0052965D01*
X0489039D01*
X0488039Y0051965D01*
X0500035Y0046966D02*
Y0050965D01*
X0502035Y0052965D01*
X0504034Y0050965D01*
Y0046966D01*
Y0049966D01*
X0500035D01*
X0506033Y0046966D02*
Y0052965D01*
X0508033Y0050965D01*
X0510032Y0052965D01*
Y0046966D01*
X0046350D02*
Y0052965D01*
X0049349D01*
X0050349Y0051965D01*
Y0049966D01*
X0049349Y0048966D01*
X0046350D01*
X0052348Y0052965D02*
Y0046966D01*
X0056347D01*
X0061345Y0052965D02*
X0059346D01*
X0058346Y0051965D01*
Y0047966D01*
X0059346Y0046966D01*
X0061345D01*
X0062345Y0047966D01*
Y0051965D01*
X0061345Y0052965D01*
X0064344D02*
X0068343D01*
X0066343D01*
Y0046966D01*
X0076340D02*
Y0052965D01*
X0080339Y0046966D01*
Y0052965D01*
X0082338Y0046966D02*
Y0050965D01*
X0084338Y0052965D01*
X0086337Y0050965D01*
Y0046966D01*
Y0049966D01*
X0082338D01*
X0088336Y0046966D02*
Y0052965D01*
X0090336Y0050965D01*
X0092335Y0052965D01*
Y0046966D01*
X0098333Y0052965D02*
X0094335D01*
Y0046966D01*
X0098333D01*
X0094335Y0049966D02*
X0096334D01*
X0106331Y0048966D02*
X0110329D01*
X0106331Y0050965D02*
X0110329D01*
X0294000Y0093831D02*
Y0087833D01*
X0296999D01*
X0297999Y0088833D01*
Y0089833D01*
X0296999Y0090832D01*
X0294000D01*
X0296999D01*
X0297999Y0091832D01*
Y0092832D01*
X0296999Y0093831D01*
X0294000D01*
X0302997D02*
X0300998D01*
X0299998Y0092832D01*
Y0088833D01*
X0300998Y0087833D01*
X0302997D01*
X0303997Y0088833D01*
Y0092832D01*
X0302997Y0093831D01*
X0305996Y0087833D02*
Y0091832D01*
X0307996Y0093831D01*
X0309995Y0091832D01*
Y0087833D01*
Y0090832D01*
X0305996D01*
X0311994Y0087833D02*
Y0093831D01*
X0314993D01*
X0315993Y0092832D01*
Y0090832D01*
X0314993Y0089833D01*
X0311994D01*
X0313994D02*
X0315993Y0087833D01*
X0317992Y0093831D02*
Y0087833D01*
X0320991D01*
X0321991Y0088833D01*
Y0092832D01*
X0320991Y0093831D01*
X0317992D01*
X0330988Y0087833D02*
Y0093831D01*
X0332987D02*
Y0087833D01*
X0329988Y0091832D02*
X0332987D01*
X0333987D01*
X0329988Y0089833D02*
X0333987D01*
X0335986Y0091832D02*
X0336986D01*
Y0090832D01*
X0335986D01*
Y0091832D01*
Y0088833D02*
X0336986D01*
Y0087833D01*
X0335986D01*
Y0088833D01*
X0466149Y0093831D02*
X0462150D01*
Y0087833D01*
X0466149D01*
X0462150Y0090832D02*
X0464149D01*
X0471147Y0087833D02*
Y0093831D01*
X0468148Y0090832D01*
X0472147D01*
X0046350Y0087833D02*
Y0091832D01*
X0048349Y0093831D01*
X0050349Y0091832D01*
Y0087833D01*
Y0090832D01*
X0046350D01*
X0052348Y0093831D02*
Y0087833D01*
X0056347D01*
X0058346Y0093831D02*
Y0087833D01*
X0062345D01*
X0070342D02*
Y0091832D01*
X0072342Y0093831D01*
X0074341Y0091832D01*
Y0087833D01*
Y0090832D01*
X0070342D01*
X0076340Y0087833D02*
Y0093831D01*
X0079339D01*
X0080339Y0092832D01*
Y0090832D01*
X0079339Y0089833D01*
X0076340D01*
X0078340D02*
X0080339Y0087833D01*
X0082338Y0093831D02*
X0086337D01*
X0084338D01*
Y0087833D01*
X0088336Y0093831D02*
Y0087833D01*
X0090336Y0089833D01*
X0092335Y0087833D01*
Y0093831D01*
X0097334D02*
X0095334D01*
X0094335Y0092832D01*
Y0088833D01*
X0095334Y0087833D01*
X0097334D01*
X0098333Y0088833D01*
Y0092832D01*
X0097334Y0093831D01*
X0100332Y0087833D02*
Y0093831D01*
X0103332D01*
X0104331Y0092832D01*
Y0090832D01*
X0103332Y0089833D01*
X0100332D01*
X0102332D02*
X0104331Y0087833D01*
X0106331Y0093831D02*
Y0087833D01*
Y0089833D01*
X0110329Y0093831D01*
X0107330Y0090832D01*
X0110329Y0087833D01*
X0118327Y0093831D02*
Y0089833D01*
X0120326Y0087833D01*
X0122325Y0089833D01*
Y0093831D01*
X0124325D02*
X0126324D01*
X0125324D01*
Y0087833D01*
X0124325D01*
X0126324D01*
X0133322Y0093831D02*
X0129323D01*
Y0087833D01*
X0133322D01*
X0129323Y0090832D02*
X0131323D01*
X0135321Y0093831D02*
Y0087833D01*
X0137321Y0089833D01*
X0139320Y0087833D01*
Y0093831D01*
X0145318D02*
X0141319D01*
Y0087833D01*
X0145318D01*
X0141319Y0090832D02*
X0143319D01*
X0147317Y0093831D02*
Y0087833D01*
X0150316D01*
X0151316Y0088833D01*
Y0092832D01*
X0150316Y0093831D01*
X0147317D01*
X0163312D02*
X0159313D01*
Y0090832D01*
X0161313D01*
X0159313D01*
Y0087833D01*
X0165312D02*
Y0093831D01*
X0168310D01*
X0169310Y0092832D01*
Y0090832D01*
X0168310Y0089833D01*
X0165312D01*
X0167311D02*
X0169310Y0087833D01*
X0174309Y0093831D02*
X0172309D01*
X0171310Y0092832D01*
Y0088833D01*
X0172309Y0087833D01*
X0174309D01*
X0175308Y0088833D01*
Y0092832D01*
X0174309Y0093831D01*
X0177308Y0087833D02*
Y0093831D01*
X0179307Y0091832D01*
X0181306Y0093831D01*
Y0087833D01*
X0189304Y0093831D02*
X0193303D01*
X0191303D01*
Y0087833D01*
X0198301Y0093831D02*
X0196301D01*
X0195302Y0092832D01*
Y0088833D01*
X0196301Y0087833D01*
X0198301D01*
X0199301Y0088833D01*
Y0092832D01*
X0198301Y0093831D01*
X0201300Y0087833D02*
Y0093831D01*
X0204299D01*
X0205299Y0092832D01*
Y0090832D01*
X0204299Y0089833D01*
X0201300D01*
X0217295Y0092832D02*
X0216295Y0093831D01*
X0214296D01*
X0213296Y0092832D01*
Y0091832D01*
X0214296Y0090832D01*
X0216295D01*
X0217295Y0089833D01*
Y0088833D01*
X0216295Y0087833D01*
X0214296D01*
X0213296Y0088833D01*
X0219294Y0093831D02*
X0221293D01*
X0220294D01*
Y0087833D01*
X0219294D01*
X0221293D01*
X0224292Y0093831D02*
Y0087833D01*
X0227291D01*
X0228291Y0088833D01*
Y0092832D01*
X0227291Y0093831D01*
X0224292D01*
X0234289D02*
X0230291D01*
Y0087833D01*
X0234289D01*
X0230291Y0090832D02*
X0232290D01*
X0298199Y0051965D02*
X0297199Y0052965D01*
X0295200D01*
X0294200Y0051965D01*
Y0047966D01*
X0295200Y0046966D01*
X0297199D01*
X0298199Y0047966D01*
Y0049966D01*
X0296199D01*
X0304197Y0052965D02*
X0300198D01*
Y0046966D01*
X0304197D01*
X0300198Y0049966D02*
X0302197D01*
X0306196Y0046966D02*
Y0052965D01*
X0310195Y0046966D01*
Y0052965D01*
X0316193D02*
X0312194D01*
Y0046966D01*
X0316193D01*
X0312194Y0049966D02*
X0314194D01*
X0318192Y0046966D02*
Y0052965D01*
X0321191D01*
X0322191Y0051965D01*
Y0049966D01*
X0321191Y0048966D01*
X0318192D01*
X0320192D02*
X0322191Y0046966D01*
X0324190D02*
Y0050965D01*
X0326190Y0052965D01*
X0328189Y0050965D01*
Y0046966D01*
Y0049966D01*
X0324190D01*
X0330188Y0052965D02*
X0334187D01*
X0332188D01*
Y0046966D01*
X0340185Y0052965D02*
X0336186D01*
Y0046966D01*
X0340185D01*
X0336186Y0049966D02*
X0338186D01*
X0342184Y0052965D02*
Y0046966D01*
X0345183D01*
X0346183Y0047966D01*
Y0051965D01*
X0345183Y0052965D01*
X0342184D01*
X0372175Y0050965D02*
X0373175D01*
Y0049966D01*
X0372175D01*
Y0050965D01*
Y0047966D02*
X0373175D01*
Y0046966D01*
X0372175D01*
Y0047966D01*
X0385149Y0046966D02*
X0381150D01*
X0385149Y0050965D01*
Y0051965D01*
X0384149Y0052965D01*
X0382150D01*
X0381150Y0051965D01*
X0387148Y0046966D02*
X0391147Y0050965D01*
X0393146Y0046966D02*
X0395146D01*
X0394146D01*
Y0052965D01*
X0393146Y0051965D01*
X0402143Y0052965D02*
X0398145D01*
Y0049966D01*
X0400144Y0050965D01*
X0401144D01*
X0402143Y0049966D01*
Y0047966D01*
X0401144Y0046966D01*
X0399144D01*
X0398145Y0047966D01*
X0404143Y0046966D02*
X0408141Y0050965D01*
X0414139Y0046966D02*
X0410141D01*
X0414139Y0050965D01*
Y0051965D01*
X0413140Y0052965D01*
X0411140D01*
X0410141Y0051965D01*
X0416139D02*
X0417138Y0052965D01*
X0419138D01*
X0420137Y0051965D01*
Y0047966D01*
X0419138Y0046966D01*
X0417138D01*
X0416139Y0047966D01*
Y0051965D01*
X0422137Y0046966D02*
X0424136D01*
X0423136D01*
Y0052965D01*
X0422137Y0051965D01*
X0427135Y0047966D02*
X0428135Y0046966D01*
X0430134D01*
X0431134Y0047966D01*
Y0051965D01*
X0430134Y0052965D01*
X0428135D01*
X0427135Y0051965D01*
Y0050965D01*
X0428135Y0049966D01*
X0431134D01*
X0433000Y0087833D02*
Y0093831D01*
X0435999D01*
X0436999Y0092832D01*
Y0090832D01*
X0435999Y0089833D01*
X0433000D01*
X0434999D02*
X0436999Y0087833D01*
X0442997Y0093831D02*
X0438998D01*
Y0087833D01*
X0442997D01*
X0438998Y0090832D02*
X0440997D01*
X0444996Y0093831D02*
Y0089833D01*
X0446995Y0087833D01*
X0448995Y0089833D01*
Y0093831D01*
X0450994Y0091832D02*
X0451994D01*
Y0090832D01*
X0450994D01*
Y0091832D01*
Y0088833D02*
X0451994D01*
Y0087833D01*
X0450994D01*
Y0088833D01*
X0520799Y0092832D02*
X0519799Y0093831D01*
X0517800D01*
X0516800Y0092832D01*
Y0091832D01*
X0517800Y0090832D01*
X0519799D01*
X0520799Y0089833D01*
Y0088833D01*
X0519799Y0087833D01*
X0517800D01*
X0516800Y0088833D01*
X0522798Y0093831D02*
Y0089833D01*
X0524797Y0087833D01*
X0526797Y0089833D01*
Y0093831D01*
X0528796Y0087833D02*
Y0093831D01*
X0532795Y0087833D01*
Y0093831D01*
X0540792Y0087833D02*
Y0093831D01*
X0543791D01*
X0544791Y0092832D01*
Y0090832D01*
X0543791Y0089833D01*
X0540792D01*
X0542792D02*
X0544791Y0087833D01*
X0550789Y0093831D02*
X0546790D01*
Y0087833D01*
X0550789D01*
X0546790Y0090832D02*
X0548790D01*
X0552788Y0093831D02*
Y0089833D01*
X0554788Y0087833D01*
X0556787Y0089833D01*
Y0093831D01*
X0558786Y0091832D02*
X0559786D01*
Y0090832D01*
X0558786D01*
Y0091832D01*
Y0088833D02*
X0559786D01*
Y0087833D01*
X0558786D01*
Y0088833D01*
X0567400Y0087833D02*
Y0093831D01*
X0571399Y0087833D01*
Y0093831D01*
X0574398Y0087833D02*
X0576397D01*
X0577397Y0088833D01*
Y0090832D01*
X0576397Y0091832D01*
X0574398D01*
X0573398Y0090832D01*
Y0088833D01*
X0574398Y0087833D01*
X0580396Y0092832D02*
Y0091832D01*
X0579396D01*
X0581395D01*
X0580396D01*
Y0088833D01*
X0581395Y0087833D01*
X0590393Y0093831D02*
X0592392D01*
X0591392D01*
Y0087833D01*
X0590393D01*
X0592392D01*
X0595391D02*
Y0091832D01*
X0598390D01*
X0599390Y0090832D01*
Y0087833D01*
X0607387Y0093831D02*
Y0089833D01*
X0609386Y0087833D01*
X0611386Y0089833D01*
Y0093831D01*
X0616384Y0087833D02*
X0614385D01*
X0613385Y0088833D01*
Y0090832D01*
X0614385Y0091832D01*
X0616384D01*
X0617384Y0090832D01*
Y0089833D01*
X0613385D01*
X0619383Y0091832D02*
Y0087833D01*
Y0089833D01*
X0620383Y0090832D01*
X0621383Y0091832D01*
X0622382D01*
X0625381Y0087833D02*
X0628380D01*
X0629380Y0088833D01*
X0628380Y0089833D01*
X0626381D01*
X0625381Y0090832D01*
X0626381Y0091832D01*
X0629380D01*
X0631379Y0087833D02*
X0633379D01*
X0632379D01*
Y0091832D01*
X0631379D01*
X0637377Y0087833D02*
X0639377D01*
X0640376Y0088833D01*
Y0090832D01*
X0639377Y0091832D01*
X0637377D01*
X0636378Y0090832D01*
Y0088833D01*
X0637377Y0087833D01*
X0642376D02*
Y0091832D01*
X0645375D01*
X0646374Y0090832D01*
Y0087833D01*
X0652373Y0092832D02*
X0651373Y0093831D01*
X0649373D01*
X0648374Y0092832D01*
Y0088833D01*
X0649373Y0087833D01*
X0651373D01*
X0652373Y0088833D01*
X0655372Y0087833D02*
X0657371D01*
X0658371Y0088833D01*
Y0090832D01*
X0657371Y0091832D01*
X0655372D01*
X0654372Y0090832D01*
Y0088833D01*
X0655372Y0087833D01*
X0660370D02*
Y0091832D01*
X0663369D01*
X0664369Y0090832D01*
Y0087833D01*
X0667368Y0092832D02*
Y0091832D01*
X0666368D01*
X0668367D01*
X0667368D01*
Y0088833D01*
X0668367Y0087833D01*
X0671366Y0091832D02*
Y0087833D01*
Y0089833D01*
X0672366Y0090832D01*
X0673366Y0091832D01*
X0674365D01*
X0678364Y0087833D02*
X0680364D01*
X0681363Y0088833D01*
Y0090832D01*
X0680364Y0091832D01*
X0678364D01*
X0677364Y0090832D01*
Y0088833D01*
X0678364Y0087833D01*
X0683362D02*
X0685362D01*
X0684362D01*
Y0093831D01*
X0683362D01*
X0126900Y0073549D02*
Y0067551D01*
X0129899D01*
X0130899Y0068550D01*
Y0072549D01*
X0129899Y0073549D01*
X0126900D01*
X0132898Y0071549D02*
Y0067551D01*
Y0069550D01*
X0133898Y0070550D01*
X0134897Y0071549D01*
X0135897D01*
X0138896Y0067551D02*
X0140895D01*
X0139896D01*
Y0071549D01*
X0138896D01*
X0143895Y0067551D02*
X0145894D01*
X0144894D01*
Y0073549D01*
X0143895D01*
X0148893Y0067551D02*
X0150892D01*
X0149893D01*
Y0073549D01*
X0148893D01*
X0163888Y0072549D02*
X0162888Y0073549D01*
X0160889D01*
X0159889Y0072549D01*
Y0068550D01*
X0160889Y0067551D01*
X0162888D01*
X0163888Y0068550D01*
Y0070550D01*
X0161889D01*
X0165887Y0071549D02*
Y0068550D01*
X0166887Y0067551D01*
X0169886D01*
Y0071549D01*
X0171885Y0067551D02*
X0173885D01*
X0172885D01*
Y0071549D01*
X0171885D01*
X0180883Y0073549D02*
Y0067551D01*
X0177884D01*
X0176884Y0068550D01*
Y0070550D01*
X0177884Y0071549D01*
X0180883D01*
X0185881Y0067551D02*
X0183882D01*
X0182882Y0068550D01*
Y0070550D01*
X0183882Y0071549D01*
X0185881D01*
X0186881Y0070550D01*
Y0069550D01*
X0182882D01*
G54D17*
X0348550Y0090832D02*
X0350549D01*
X0349550D01*
Y0087833D01*
X0351549Y0090832D02*
X0352549D01*
X0352049D01*
Y0087833D01*
X0351549D01*
X0352549D01*
X0354048Y0090832D02*
Y0087833D01*
X0355548D01*
X0356048Y0088333D01*
Y0090333D01*
X0355548Y0090832D01*
X0354048D01*
X0357047Y0087833D02*
Y0089833D01*
X0358047Y0090832D01*
X0359047Y0089833D01*
Y0087833D01*
Y0089333D01*
X0357047D01*
X0360046D02*
X0362046D01*
X0363045Y0090333D02*
X0363545Y0090832D01*
X0364545D01*
X0365045Y0090333D01*
Y0088333D01*
X0364545Y0087833D01*
X0363545D01*
X0363045Y0088333D01*
Y0090333D01*
X0366044Y0087833D02*
X0367044D01*
X0366544D01*
Y0090832D01*
X0366044Y0090333D01*
X0370543Y0090832D02*
X0369543Y0090333D01*
X0368544Y0089333D01*
Y0088333D01*
X0369043Y0087833D01*
X0370043D01*
X0370543Y0088333D01*
Y0088833D01*
X0370043Y0089333D01*
X0368544D01*
X0371543Y0090333D02*
X0372042Y0090832D01*
X0373042D01*
X0373542Y0090333D01*
Y0088333D01*
X0373042Y0087833D01*
X0372042D01*
X0371543Y0088333D01*
Y0090333D01*
X0376541Y0090832D02*
X0375541Y0090333D01*
X0374542Y0089333D01*
Y0088333D01*
X0375041Y0087833D01*
X0376041D01*
X0376541Y0088333D01*
Y0088833D01*
X0376041Y0089333D01*
X0374542D01*
X0377541Y0087334D02*
X0379540D01*
X0382539Y0090333D02*
X0382039Y0090832D01*
X0381040D01*
X0380540Y0090333D01*
Y0088333D01*
X0381040Y0087833D01*
X0382039D01*
X0382539Y0088333D01*
Y0089333D01*
X0381539D01*
X0384038Y0089833D02*
X0385038D01*
X0385538Y0089333D01*
Y0087833D01*
X0384038D01*
X0383539Y0088333D01*
X0384038Y0088833D01*
X0385538D01*
X0387038Y0090333D02*
Y0089833D01*
X0386538D01*
X0387537D01*
X0387038D01*
Y0088333D01*
X0387537Y0087833D01*
X0390536D02*
X0389537D01*
X0389037Y0088333D01*
Y0089333D01*
X0389537Y0089833D01*
X0390536D01*
X0391036Y0089333D01*
Y0088833D01*
X0389037D01*
X0395035Y0090832D02*
Y0087833D01*
X0396534D01*
X0397034Y0088333D01*
Y0090333D01*
X0396534Y0090832D01*
X0395035D01*
X0398034Y0089833D02*
Y0087833D01*
Y0088833D01*
X0398534Y0089333D01*
X0399034Y0089833D01*
X0399534D01*
X0401033Y0087833D02*
X0402033D01*
X0401533D01*
Y0089833D01*
X0401033D01*
X0403532D02*
X0404532Y0087833D01*
X0405532Y0089833D01*
X0408031Y0087833D02*
X0407031D01*
X0406531Y0088333D01*
Y0089333D01*
X0407031Y0089833D01*
X0408031D01*
X0408531Y0089333D01*
Y0088833D01*
X0406531D01*
X0409530Y0089833D02*
Y0087833D01*
Y0088833D01*
X0410030Y0089333D01*
X0410530Y0089833D01*
X0411030D01*
X0126900Y0049966D02*
X0128899D01*
X0127900D01*
Y0046966D01*
X0129899Y0049966D02*
X0130899D01*
X0130399D01*
Y0046966D01*
X0129899D01*
X0130899D01*
X0132398Y0049966D02*
Y0046966D01*
X0133898D01*
X0134398Y0047466D01*
Y0049466D01*
X0133898Y0049966D01*
X0132398D01*
X0135397Y0046966D02*
Y0048966D01*
X0136397Y0049966D01*
X0137397Y0048966D01*
Y0046966D01*
Y0048466D01*
X0135397D01*
X0138396D02*
X0140396D01*
X0141395Y0049466D02*
X0141895Y0049966D01*
X0142895D01*
X0143395Y0049466D01*
Y0047466D01*
X0142895Y0046966D01*
X0141895D01*
X0141395Y0047466D01*
Y0049466D01*
X0144394Y0046966D02*
X0145394D01*
X0144894D01*
Y0049966D01*
X0144394Y0049466D01*
X0148893Y0049966D02*
X0147893Y0049466D01*
X0146894Y0048466D01*
Y0047466D01*
X0147393Y0046966D01*
X0148393D01*
X0148893Y0047466D01*
Y0047966D01*
X0148393Y0048466D01*
X0146894D01*
X0149893Y0049466D02*
X0150392Y0049966D01*
X0151392D01*
X0151892Y0049466D01*
Y0047466D01*
X0151392Y0046966D01*
X0150392D01*
X0149893Y0047466D01*
Y0049466D01*
X0154891Y0049966D02*
X0153891Y0049466D01*
X0152892Y0048466D01*
Y0047466D01*
X0153391Y0046966D01*
X0154391D01*
X0154891Y0047466D01*
Y0047966D01*
X0154391Y0048466D01*
X0152892D01*
X0155891Y0046467D02*
X0157890D01*
X0160889Y0049466D02*
X0160389Y0049966D01*
X0159389D01*
X0158890Y0049466D01*
Y0047466D01*
X0159389Y0046966D01*
X0160389D01*
X0160889Y0047466D01*
Y0048466D01*
X0159889D01*
X0162389Y0048966D02*
X0163388D01*
X0163888Y0048466D01*
Y0046966D01*
X0162389D01*
X0161889Y0047466D01*
X0162389Y0047966D01*
X0163888D01*
X0165388Y0049466D02*
Y0048966D01*
X0164888D01*
X0165887D01*
X0165388D01*
Y0047466D01*
X0165887Y0046966D01*
X0168886D02*
X0167887D01*
X0167387Y0047466D01*
Y0048466D01*
X0167887Y0048966D01*
X0168886D01*
X0169386Y0048466D01*
Y0047966D01*
X0167387D01*
X0173385Y0049966D02*
Y0046966D01*
X0174884D01*
X0175384Y0047466D01*
Y0049466D01*
X0174884Y0049966D01*
X0173385D01*
X0176384Y0048966D02*
Y0046966D01*
Y0047966D01*
X0176884Y0048466D01*
X0177384Y0048966D01*
X0177884D01*
X0179383Y0046966D02*
X0180383D01*
X0179883D01*
Y0048966D01*
X0179383D01*
X0181882D02*
X0182882Y0046966D01*
X0183882Y0048966D01*
X0186381Y0046966D02*
X0185381D01*
X0184881Y0047466D01*
Y0048466D01*
X0185381Y0048966D01*
X0186381D01*
X0186881Y0048466D01*
Y0047966D01*
X0184881D01*
X0187880Y0048966D02*
Y0046966D01*
Y0047966D01*
X0188380Y0048466D01*
X0188880Y0048966D01*
X0189380D01*
X0192879Y0049966D02*
X0190879D01*
Y0046966D01*
X0192879D01*
X0190879Y0048466D02*
X0191879D01*
X0195378Y0046966D02*
Y0049966D01*
X0193878Y0048466D01*
X0195878D01*
X0196877Y0046966D02*
Y0047466D01*
X0197377D01*
Y0046966D01*
X0196877D01*
X0201376Y0049466D02*
X0200876Y0049966D01*
X0199876D01*
X0199376Y0049466D01*
Y0047466D01*
X0199876Y0046966D01*
X0200876D01*
X0201376Y0047466D01*
Y0048466D01*
X0200376D01*
X0204375Y0049466D02*
X0203875Y0049966D01*
X0202875D01*
X0202376Y0049466D01*
Y0047466D01*
X0202875Y0046966D01*
X0203875D01*
X0204375Y0047466D01*
Y0048466D01*
X0203375D01*
X0205375Y0046966D02*
X0206374D01*
X0205874D01*
Y0049966D01*
X0205375Y0049466D01*
G54D25*
X0559400Y0039400D02*
Y0059683D01*
X0440500Y0040050D02*
X0700200D01*
Y0101050D01*
X0286500Y0040050D02*
Y0101050D01*
X0040000Y0040050D02*
Y0101050D01*
X0040050Y0040050D02*
X0197600D01*
X0040050D02*
Y0101050D01*
Y0101050D02*
X0700200D01*
X0040000Y0040050D02*
X0440500D01*
X0040000Y0060383D02*
X0700000D01*
X0040000Y0080717D02*
X0700200D01*
X0413200D02*
Y0101050D01*
X0497200Y0080717D02*
Y0101050D01*
G54D98*
X0186956Y0211900D02*
X0191287D01*
X0189121Y0209735D02*
Y0214065D01*
X0176956Y0211900D02*
X0181287D01*
X0179121Y0209735D02*
Y0214065D01*
X0166956Y0211900D02*
X0171287D01*
X0169121Y0209735D02*
Y0214065D01*
X0156956Y0211900D02*
X0161287D01*
X0159121Y0209735D02*
Y0214065D01*
X0146956Y0211900D02*
X0151287D01*
X0149121Y0209735D02*
Y0214065D01*
X0136956Y0211900D02*
X0141287D01*
X0139121Y0209735D02*
Y0214065D01*
X0126956Y0211900D02*
X0131287D01*
X0129121Y0209735D02*
Y0214065D01*
X0116956Y0211900D02*
X0121287D01*
X0119121Y0209735D02*
Y0214065D01*
X0186956Y0201900D02*
X0191287D01*
X0189121Y0199735D02*
Y0204065D01*
X0176956Y0201900D02*
X0181287D01*
X0179121Y0199735D02*
Y0204065D01*
X0166956Y0201900D02*
X0171287D01*
X0169121Y0199735D02*
Y0204065D01*
X0156956Y0201900D02*
X0161287D01*
X0159121Y0199735D02*
Y0204065D01*
X0146956Y0201900D02*
X0151287D01*
X0149121Y0199735D02*
Y0204065D01*
X0136956Y0201900D02*
X0141287D01*
X0139121Y0199735D02*
Y0204065D01*
X0126956Y0201900D02*
X0131287D01*
X0129121Y0199735D02*
Y0204065D01*
X0116956Y0201900D02*
X0121287D01*
X0119121Y0199735D02*
Y0204065D01*
X0254689Y0283500D02*
X0256689D01*
X0255689Y0282500D02*
Y0284500D01*
X0350789Y0283500D02*
X0352789D01*
X0351789Y0282500D02*
Y0284500D01*
X0554279Y0201900D02*
X0558609D01*
X0556444Y0199735D02*
Y0204065D01*
X0544279Y0201900D02*
X0548609D01*
X0546444Y0199735D02*
Y0204065D01*
X0534279Y0201900D02*
X0538610D01*
X0536444Y0199735D02*
Y0204065D01*
X0524279Y0201900D02*
X0528610D01*
X0526444Y0199735D02*
Y0204065D01*
X0457901Y0201900D02*
X0462231D01*
X0460066Y0199735D02*
Y0204065D01*
X0447901Y0201900D02*
X0452232D01*
X0450066Y0199735D02*
Y0204065D01*
X0437901Y0201900D02*
X0442232D01*
X0440066Y0199735D02*
Y0204065D01*
X0427901Y0201900D02*
X0432232D01*
X0430066Y0199735D02*
Y0204065D01*
X0361523Y0201900D02*
X0365854D01*
X0363688Y0199735D02*
Y0204065D01*
X0351523Y0201900D02*
X0355854D01*
X0353688Y0199735D02*
Y0204065D01*
X0341523Y0201900D02*
X0345853D01*
X0343688Y0199735D02*
Y0204065D01*
X0331523Y0201900D02*
X0335854D01*
X0333688Y0199735D02*
Y0204065D01*
X0265145Y0201900D02*
X0269476D01*
X0267310Y0199735D02*
Y0204065D01*
X0255145Y0201900D02*
X0259476D01*
X0257310Y0199735D02*
Y0204065D01*
X0245145Y0201900D02*
X0249476D01*
X0247310Y0199735D02*
Y0204065D01*
X0235145Y0201900D02*
X0239476D01*
X0237310Y0199735D02*
Y0204065D01*
X0330689Y0315000D02*
X0334689D01*
X0332689Y0313000D02*
Y0317000D01*
X0228989Y0315000D02*
X0232989D01*
X0230989Y0313000D02*
Y0317000D01*
X0196089Y0318500D02*
X0200089D01*
X0198089Y0316500D02*
Y0320500D01*
X0195889Y0330000D02*
X0199889D01*
X0197889Y0328000D02*
Y0332000D01*
X0210789Y0323900D02*
X0214789D01*
X0212789Y0321900D02*
Y0325900D01*
X0416189Y0316800D02*
X0420189D01*
X0418189Y0314800D02*
Y0318800D01*
X0513194Y0317434D02*
X0517194D01*
X0515194Y0315434D02*
Y0319434D01*
X0436300Y0220611D02*
X0437500D01*
X0436900Y0220011D02*
Y0221211D01*
X0438289Y0217000D02*
X0439489D01*
X0438889Y0216400D02*
Y0217600D01*
X0287089Y0223100D02*
X0288289D01*
X0287689Y0222500D02*
Y0223700D01*
X0287089Y0207800D02*
X0288289D01*
X0287689Y0207200D02*
Y0208400D01*
X0099389Y0314300D02*
X0100589D01*
X0099989Y0313700D02*
Y0314900D01*
X0118089Y0314300D02*
X0119289D01*
X0118689Y0313700D02*
Y0314900D01*
X0411539Y0216650D02*
X0412739D01*
X0412139Y0216050D02*
Y0217250D01*
X0508189Y0216600D02*
X0509389D01*
X0508789Y0216000D02*
Y0217200D01*
X0144189Y0291900D02*
X0145389D01*
X0144789Y0291300D02*
Y0292500D01*
X0149400Y0304900D02*
X0150600D01*
X0150000Y0304300D02*
Y0305500D01*
X0149400Y0311400D02*
X0150600D01*
X0150000Y0310800D02*
Y0312000D01*
X0142989Y0275700D02*
X0144189D01*
X0143589Y0275100D02*
Y0276300D01*
X0127389Y0222250D02*
X0128589D01*
X0127989Y0221650D02*
Y0222850D01*
X0097389Y0295400D02*
X0098589D01*
X0097989Y0294800D02*
Y0296000D01*
X0229597Y0266940D02*
X0230797D01*
X0230197Y0266340D02*
Y0267540D01*
X0235597Y0266940D02*
X0236797D01*
X0236197Y0266340D02*
Y0267540D01*
X0241689Y0264400D02*
X0242889D01*
X0242289Y0263800D02*
Y0265000D01*
X0370842Y0266995D02*
X0372042D01*
X0371442Y0266395D02*
Y0267595D01*
X0377342Y0266995D02*
X0378542D01*
X0377942Y0266395D02*
Y0267595D01*
X0466397Y0327440D02*
X0467597D01*
X0466997Y0326840D02*
Y0328040D01*
X0443397Y0327440D02*
X0444597D01*
X0443997Y0326840D02*
Y0328040D01*
X0461397Y0324440D02*
X0462597D01*
X0461997Y0323840D02*
Y0325040D01*
X0426829Y0310440D02*
X0428029D01*
X0427429Y0309840D02*
Y0311040D01*
X0473485Y0310440D02*
X0474685D01*
X0474085Y0309840D02*
Y0311040D01*
X0473485Y0316934D02*
X0474685D01*
X0474085Y0316334D02*
Y0317534D01*
X0365342Y0245090D02*
X0366542D01*
X0365942Y0244490D02*
Y0245690D01*
X0373397Y0245940D02*
X0374597D01*
X0373997Y0245340D02*
Y0246540D01*
X0277297Y0245940D02*
X0278497D01*
X0277897Y0245340D02*
Y0246540D01*
X0269352Y0246791D02*
X0270552D01*
X0269952Y0246191D02*
Y0247391D01*
X0241652Y0246791D02*
X0242852D01*
X0242252Y0246191D02*
Y0247391D01*
X0250452Y0317385D02*
X0251652D01*
X0251052Y0316785D02*
Y0317985D01*
X0256952Y0317385D02*
X0258152D01*
X0257552Y0316785D02*
Y0317985D01*
X0243952Y0317385D02*
X0245152D01*
X0244552Y0316785D02*
Y0317985D01*
X0257852Y0299385D02*
X0259052D01*
X0258452Y0298785D02*
Y0299985D01*
X0262852Y0299385D02*
X0264052D01*
X0263452Y0298785D02*
Y0299985D01*
X0358952Y0299385D02*
X0360152D01*
X0359552Y0298785D02*
Y0299985D01*
X0353952Y0299385D02*
X0355152D01*
X0354552Y0298785D02*
Y0299985D01*
X0340952Y0317385D02*
X0342152D01*
X0341552Y0316785D02*
Y0317985D01*
X0353952Y0317385D02*
X0355152D01*
X0354552Y0316785D02*
Y0317985D01*
X0347452Y0317385D02*
X0348652D01*
X0348052Y0316785D02*
Y0317985D01*
X0558908Y0328440D02*
X0560108D01*
X0559508Y0327840D02*
Y0329040D01*
X0570408Y0317434D02*
X0571608D01*
X0571008Y0316834D02*
Y0318034D01*
X0570408Y0310940D02*
X0571608D01*
X0571008Y0310340D02*
Y0311540D01*
X0489530Y0245440D02*
X0490730D01*
X0490130Y0244840D02*
Y0246040D01*
X0488530Y0263940D02*
X0489730D01*
X0489130Y0263340D02*
Y0264540D01*
X0491589Y0261300D02*
X0492789D01*
X0492189Y0260700D02*
Y0261900D01*
X0488030Y0254940D02*
X0489230D01*
X0488630Y0254340D02*
Y0255540D01*
X0491589Y0253300D02*
X0492789D01*
X0492189Y0252700D02*
Y0253900D01*
X0585953Y0264395D02*
X0587153D01*
X0586553Y0263795D02*
Y0264995D01*
X0587789Y0261400D02*
X0588989D01*
X0588389Y0260800D02*
Y0262000D01*
X0585408Y0255440D02*
X0586608D01*
X0586008Y0254840D02*
Y0256040D01*
X0588089Y0253300D02*
X0589289D01*
X0588689Y0252700D02*
Y0253900D01*
X0147900Y0328400D02*
X0149100D01*
X0148500Y0327800D02*
Y0329000D01*
X0193600Y0251900D02*
X0194800D01*
X0194200Y0251300D02*
Y0252500D01*
X0193600Y0258400D02*
X0194800D01*
X0194200Y0257800D02*
Y0259000D01*
X0159647Y0224947D02*
X0160847D01*
X0160247Y0224347D02*
Y0225547D01*
X0137600Y0236400D02*
X0138800D01*
X0138200Y0235800D02*
Y0237000D01*
X0137600Y0227900D02*
X0138800D01*
X0138200Y0227300D02*
Y0228500D01*
X0188600Y0237400D02*
X0189800D01*
X0189200Y0236800D02*
Y0238000D01*
X0188600Y0229400D02*
X0189800D01*
X0189200Y0228800D02*
Y0230000D01*
X0166100Y0229900D02*
X0167300D01*
X0166700Y0229300D02*
Y0230500D01*
X0166100Y0237400D02*
X0167300D01*
X0166700Y0236800D02*
Y0238000D01*
X0148750Y0222250D02*
X0149950D01*
X0149350Y0221650D02*
Y0222850D01*
X0090900Y0211900D02*
X0092100D01*
X0091500Y0211300D02*
Y0212500D01*
X0098600Y0211900D02*
X0099800D01*
X0099200Y0211300D02*
Y0212500D01*
X0106240Y0230800D02*
X0107440D01*
X0106840Y0230200D02*
Y0231400D01*
X0143900Y0281900D02*
X0145100D01*
X0144500Y0281300D02*
Y0282500D01*
X0091000Y0220589D02*
X0092200D01*
X0091600Y0219989D02*
Y0221189D01*
X0536239Y0219000D02*
X0537439D01*
X0536839Y0218400D02*
Y0219600D01*
X0522829Y0231184D02*
X0524029D01*
X0523429Y0230584D02*
Y0231784D01*
X0518689Y0233300D02*
X0519889D01*
X0519289Y0232700D02*
Y0233900D01*
X0521498Y0237400D02*
X0522698D01*
X0522098Y0236800D02*
Y0238000D01*
X0549000Y0227489D02*
X0550200D01*
X0549600Y0226889D02*
Y0228089D01*
X0523707Y0310934D02*
X0524907D01*
X0524307Y0310334D02*
Y0311534D01*
X0451532Y0226989D02*
X0452732D01*
X0452132Y0226389D02*
Y0227589D01*
X0486889Y0231190D02*
X0488089D01*
X0487489Y0230590D02*
Y0231790D01*
X0585744Y0231778D02*
X0586944D01*
X0586344Y0231178D02*
Y0232378D01*
X0442589Y0228100D02*
X0443789D01*
X0443189Y0227500D02*
Y0228700D01*
X0540989Y0228200D02*
X0542189D01*
X0541589Y0227600D02*
Y0228800D01*
X0424030Y0236900D02*
X0425230D01*
X0424630Y0236300D02*
Y0237500D01*
X0426129Y0231184D02*
X0427329D01*
X0426729Y0230584D02*
Y0231784D01*
X0421989Y0233300D02*
X0423189D01*
X0422589Y0232700D02*
Y0233900D01*
X0298489Y0228100D02*
X0299689D01*
X0299089Y0227500D02*
Y0228700D01*
X0294600Y0211400D02*
X0295800D01*
X0295200Y0210800D02*
Y0212000D01*
X0293739Y0219000D02*
X0294939D01*
X0294339Y0218400D02*
Y0219600D01*
X0307432Y0226989D02*
X0308632D01*
X0308032Y0226389D02*
Y0227589D01*
X0280329Y0231184D02*
X0281529D01*
X0280929Y0230584D02*
Y0231784D01*
X0276189Y0233300D02*
X0277389D01*
X0276789Y0232700D02*
Y0233900D01*
X0270639Y0220050D02*
X0271839D01*
X0271239Y0219450D02*
Y0220650D01*
X0443289Y0322548D02*
X0444489D01*
X0443889Y0321948D02*
Y0323148D01*
X0473289Y0335300D02*
X0474489D01*
X0473889Y0334700D02*
Y0335900D01*
X0337189Y0265300D02*
X0338389D01*
X0337789Y0264700D02*
Y0265900D01*
X0331697Y0266940D02*
X0332897D01*
X0332297Y0266340D02*
Y0267540D01*
X0325697Y0266940D02*
X0326897D01*
X0326297Y0266340D02*
Y0267540D01*
X0429289Y0254100D02*
X0430489D01*
X0429889Y0253500D02*
Y0254700D01*
X0461189Y0255500D02*
X0462389D01*
X0461789Y0254900D02*
Y0256100D01*
X0451989Y0255600D02*
X0453189D01*
X0452589Y0255000D02*
Y0256200D01*
X0558657Y0256000D02*
X0559857D01*
X0559257Y0255400D02*
Y0256600D01*
X0549457Y0256100D02*
X0550657D01*
X0550057Y0255500D02*
Y0256700D01*
X0526757Y0254600D02*
X0527957D01*
X0527357Y0254000D02*
Y0255200D01*
X0457689Y0227500D02*
X0458889D01*
X0458289Y0226900D02*
Y0228100D01*
X0555112Y0228000D02*
X0556312D01*
X0555712Y0227400D02*
Y0228600D01*
X0505389Y0307300D02*
X0506589D01*
X0505989Y0306700D02*
Y0307900D01*
X0408384Y0306666D02*
X0409584D01*
X0408984Y0306066D02*
Y0307266D01*
X0317989Y0310400D02*
X0319189D01*
X0318589Y0309800D02*
Y0311000D01*
X0221689Y0299600D02*
X0222889D01*
X0222289Y0299000D02*
Y0300200D01*
X0441489Y0305700D02*
X0442689D01*
X0442089Y0305100D02*
Y0306300D01*
X0314397Y0335440D02*
X0315597D01*
X0314997Y0334840D02*
Y0336040D01*
X0538389Y0307000D02*
X0539589D01*
X0538989Y0306400D02*
Y0307600D01*
X0466397Y0332440D02*
X0467597D01*
X0466997Y0331840D02*
Y0333040D01*
X0448989Y0332440D02*
X0450189D01*
X0449589Y0331840D02*
Y0333040D01*
X0532439Y0218050D02*
X0533639D01*
X0533039Y0217450D02*
Y0218650D01*
X0230189Y0245600D02*
X0231389D01*
X0230789Y0245000D02*
Y0246200D01*
X0234589Y0245600D02*
X0235789D01*
X0235189Y0245000D02*
Y0246200D01*
X0232289Y0242800D02*
X0233489D01*
X0232889Y0242200D02*
Y0243400D01*
X0240689Y0243200D02*
X0241889D01*
X0241289Y0242600D02*
Y0243800D01*
X0326889Y0243400D02*
X0328089D01*
X0327489Y0242800D02*
Y0244000D01*
X0329189Y0246200D02*
X0330389D01*
X0329789Y0245600D02*
Y0246800D01*
X0324789Y0246200D02*
X0325989D01*
X0325389Y0245600D02*
Y0246800D01*
X0337989Y0243300D02*
X0339189D01*
X0338589Y0242700D02*
Y0243900D01*
X0334789Y0243300D02*
X0335989D01*
X0335389Y0242700D02*
Y0243900D01*
X0336352Y0246890D02*
X0337552D01*
X0336952Y0246290D02*
Y0247491D01*
X0243889Y0244400D02*
X0245089D01*
X0244489Y0243800D02*
Y0245000D01*
X0101606Y0280108D02*
X0102394D01*
X0102000Y0279714D02*
Y0280502D01*
X0106331Y0284045D02*
X0107118D01*
X0106724Y0283651D02*
Y0284439D01*
X0101606Y0284045D02*
X0102394D01*
X0102000Y0283651D02*
Y0284439D01*
X0096882Y0284045D02*
X0097669D01*
X0097276Y0283651D02*
Y0284439D01*
X0101606Y0287982D02*
X0102394D01*
X0102000Y0287588D02*
Y0288376D01*
M02*
