G04 ================== begin FILE IDENTIFICATION RECORD ==================*
G04 Layout Name:  gate_driver_ttype_modified_v1_11mar.brd*
G04 Film Name:    SilkscreenBOTTOM*
G04 File Format:  Gerber RS274X*
G04 File Origin:  Cadence Allegro 17.4-S031*
G04 Origin Date:  Fri Mar 22 15:14:26 2024*
G04 *
G04 Layer:  REF DES/SILKSCREEN_BOTTOM*
G04 Layer:  PACKAGE GEOMETRY/SILKSCREEN_BOTTOM*
G04 Layer:  BOARD GEOMETRY/OUTLINE*
G04 Layer:  BOARD GEOMETRY/SILKSCREEN_BOTTOM*
G04 *
G04 Offset:    (0.00 0.00)*
G04 Mirror:    No*
G04 Mode:      Positive*
G04 Rotation:  0*
G04 FullContactRelief:  No*
G04 UndefLineWidth:     8.00*
G04 ================== end FILE IDENTIFICATION RECORD ====================*
%FSLAX25Y25*MOIN*%
%IR0*IPPOS*OFA0.00000B0.00000*MIA0B0*SFA1.00000B1.00000*%
%ADD10C,.03*%
%ADD11C,.001*%
%ADD12C,.008*%
G75*
%LPD*%
G75*
G54D10*
G01X-223000Y-122000D02*
Y-60000D01*
G54D11*
G01X40098Y-28000D02*
Y-25000D01*
G01X34902Y-27902D02*
Y-25000D01*
G01X41500Y-33800D02*
Y-19200D01*
X33500D01*
Y-33800D01*
X41500D01*
G54D12*
G01X85500Y6000D02*
X-386000D01*
Y-272500D01*
Y-273000D01*
X85000D01*
X85500Y-272500D01*
Y6000D01*
G01X-6500Y-35700D02*
Y-50300D01*
X1500D01*
Y-35700D01*
X-6500D01*
G01X-11000Y-28333D02*
X-8500D01*
Y-27667D01*
X-8625Y-27453D01*
X-8792Y-27320D01*
X-9125Y-27267D01*
X-9458Y-27320D01*
X-9667Y-27480D01*
X-9792Y-27667D01*
Y-28333D01*
G01Y-27667D02*
X-11000Y-27267D01*
G01X-9958Y-26107D02*
X-9667Y-25920D01*
X-9500Y-25760D01*
X-9417Y-25547D01*
X-9500Y-25360D01*
X-9667Y-25227D01*
X-9917Y-25120D01*
X-10208Y-25093D01*
X-10458Y-25120D01*
X-10708Y-25227D01*
X-10917Y-25387D01*
X-11000Y-25573D01*
X-10917Y-25787D01*
X-10667Y-25973D01*
X-10292Y-26080D01*
X-9875Y-26107D01*
X-9333Y-26053D01*
X-9042Y-25973D01*
X-8750Y-25840D01*
X-8542Y-25653D01*
X-8500Y-25467D01*
X-8583Y-25280D01*
X-8792Y-25147D01*
G01X-9958Y-23907D02*
X-9667Y-23720D01*
X-9500Y-23560D01*
X-9417Y-23347D01*
X-9500Y-23160D01*
X-9667Y-23027D01*
X-9917Y-22920D01*
X-10208Y-22893D01*
X-10458Y-22920D01*
X-10708Y-23027D01*
X-10917Y-23187D01*
X-11000Y-23373D01*
X-10917Y-23587D01*
X-10667Y-23773D01*
X-10292Y-23880D01*
X-9875Y-23907D01*
X-9333Y-23853D01*
X-9042Y-23773D01*
X-8750Y-23640D01*
X-8542Y-23453D01*
X-8500Y-23267D01*
X-8583Y-23080D01*
X-8792Y-22947D01*
G01X-10500Y-21787D02*
X-10792Y-21627D01*
X-10958Y-21413D01*
X-11000Y-21173D01*
X-10958Y-20960D01*
X-10750Y-20747D01*
X-10500Y-20613D01*
X-10250Y-20587D01*
X-9958Y-20640D01*
X-9750Y-20827D01*
X-9667Y-21013D01*
Y-21253D01*
G01Y-21013D02*
X-9542Y-20853D01*
X-9333Y-20720D01*
X-9083Y-20667D01*
X-8833Y-20720D01*
X-8625Y-20853D01*
X-8500Y-21093D01*
X-8542Y-21333D01*
X-8708Y-21573D01*
G01X1500Y-33800D02*
Y-19200D01*
X-6500D01*
Y-33800D01*
X1500D01*
G01X6708Y-53287D02*
X6583Y-53127D01*
X6500Y-52940D01*
Y-52727D01*
X6625Y-52487D01*
X6833Y-52300D01*
X7083Y-52167D01*
X7500Y-52060D01*
X7875Y-52033D01*
X8250Y-52087D01*
X8500Y-52167D01*
X8750Y-52327D01*
X8917Y-52513D01*
X9000Y-52700D01*
Y-52887D01*
X8917Y-53073D01*
X8792Y-53233D01*
X8625Y-53367D01*
G01X7958Y-54393D02*
X7667Y-54580D01*
X7500Y-54740D01*
X7417Y-54953D01*
X7500Y-55140D01*
X7667Y-55273D01*
X7917Y-55380D01*
X8208Y-55407D01*
X8458Y-55380D01*
X8708Y-55273D01*
X8917Y-55113D01*
X9000Y-54927D01*
X8917Y-54713D01*
X8667Y-54527D01*
X8292Y-54420D01*
X7875Y-54393D01*
X7333Y-54447D01*
X7042Y-54527D01*
X6750Y-54660D01*
X6542Y-54847D01*
X6500Y-55033D01*
X6583Y-55220D01*
X6792Y-55353D01*
G01X7958Y-56593D02*
X7667Y-56780D01*
X7500Y-56940D01*
X7417Y-57153D01*
X7500Y-57340D01*
X7667Y-57473D01*
X7917Y-57580D01*
X8208Y-57607D01*
X8458Y-57580D01*
X8708Y-57473D01*
X8917Y-57313D01*
X9000Y-57127D01*
X8917Y-56913D01*
X8667Y-56727D01*
X8292Y-56620D01*
X7875Y-56593D01*
X7333Y-56647D01*
X7042Y-56727D01*
X6750Y-56860D01*
X6542Y-57047D01*
X6500Y-57233D01*
X6583Y-57420D01*
X6792Y-57553D01*
G01X7958Y-58793D02*
X7667Y-58980D01*
X7500Y-59140D01*
X7417Y-59353D01*
X7500Y-59540D01*
X7667Y-59673D01*
X7917Y-59780D01*
X8208Y-59807D01*
X8458Y-59780D01*
X8708Y-59673D01*
X8917Y-59513D01*
X9000Y-59327D01*
X8917Y-59113D01*
X8667Y-58927D01*
X8292Y-58820D01*
X7875Y-58793D01*
X7333Y-58847D01*
X7042Y-58927D01*
X6750Y-59060D01*
X6542Y-59247D01*
X6500Y-59433D01*
X6583Y-59620D01*
X6792Y-59753D01*
G01X-3792Y-52787D02*
X-3917Y-52627D01*
X-4000Y-52440D01*
Y-52227D01*
X-3875Y-51987D01*
X-3667Y-51800D01*
X-3417Y-51667D01*
X-3000Y-51560D01*
X-2625Y-51533D01*
X-2250Y-51587D01*
X-2000Y-51667D01*
X-1750Y-51827D01*
X-1583Y-52013D01*
X-1500Y-52200D01*
Y-52387D01*
X-1583Y-52573D01*
X-1708Y-52733D01*
X-1875Y-52867D01*
G01X-2542Y-53893D02*
X-2833Y-54080D01*
X-3000Y-54240D01*
X-3083Y-54453D01*
X-3000Y-54640D01*
X-2833Y-54773D01*
X-2583Y-54880D01*
X-2292Y-54907D01*
X-2042Y-54880D01*
X-1792Y-54773D01*
X-1583Y-54613D01*
X-1500Y-54427D01*
X-1583Y-54213D01*
X-1833Y-54027D01*
X-2208Y-53920D01*
X-2625Y-53893D01*
X-3167Y-53947D01*
X-3458Y-54027D01*
X-3750Y-54160D01*
X-3958Y-54347D01*
X-4000Y-54533D01*
X-3917Y-54720D01*
X-3708Y-54853D01*
G01X-2542Y-56093D02*
X-2833Y-56280D01*
X-3000Y-56440D01*
X-3083Y-56653D01*
X-3000Y-56840D01*
X-2833Y-56973D01*
X-2583Y-57080D01*
X-2292Y-57107D01*
X-2042Y-57080D01*
X-1792Y-56973D01*
X-1583Y-56813D01*
X-1500Y-56627D01*
X-1583Y-56413D01*
X-1833Y-56227D01*
X-2208Y-56120D01*
X-2625Y-56093D01*
X-3167Y-56147D01*
X-3458Y-56227D01*
X-3750Y-56360D01*
X-3958Y-56547D01*
X-4000Y-56733D01*
X-3917Y-56920D01*
X-3708Y-57053D01*
G01X-1500Y-59120D02*
X-4000D01*
X-2208Y-58133D01*
Y-59467D01*
G01X4500Y-35700D02*
Y-50300D01*
X12500D01*
Y-35700D01*
X4500D01*
G01X2000Y-27333D02*
X4500D01*
Y-26667D01*
X4375Y-26453D01*
X4208Y-26320D01*
X3875Y-26267D01*
X3542Y-26320D01*
X3333Y-26480D01*
X3208Y-26667D01*
Y-27333D01*
G01Y-26667D02*
X2000Y-26267D01*
G01X3042Y-25107D02*
X3333Y-24920D01*
X3500Y-24760D01*
X3583Y-24547D01*
X3500Y-24360D01*
X3333Y-24227D01*
X3083Y-24120D01*
X2792Y-24093D01*
X2542Y-24120D01*
X2292Y-24227D01*
X2083Y-24387D01*
X2000Y-24573D01*
X2083Y-24787D01*
X2333Y-24973D01*
X2708Y-25080D01*
X3125Y-25107D01*
X3667Y-25053D01*
X3958Y-24973D01*
X4250Y-24840D01*
X4458Y-24653D01*
X4500Y-24467D01*
X4417Y-24280D01*
X4208Y-24147D01*
G01X3042Y-22907D02*
X3333Y-22720D01*
X3500Y-22560D01*
X3583Y-22347D01*
X3500Y-22160D01*
X3333Y-22027D01*
X3083Y-21920D01*
X2792Y-21893D01*
X2542Y-21920D01*
X2292Y-22027D01*
X2083Y-22187D01*
X2000Y-22373D01*
X2083Y-22587D01*
X2333Y-22773D01*
X2708Y-22880D01*
X3125Y-22907D01*
X3667Y-22853D01*
X3958Y-22773D01*
X4250Y-22640D01*
X4458Y-22453D01*
X4500Y-22267D01*
X4417Y-22080D01*
X4208Y-21947D01*
G01X2375Y-20787D02*
X2167Y-20627D01*
X2042Y-20440D01*
X2000Y-20200D01*
X2083Y-19960D01*
X2250Y-19773D01*
X2542Y-19640D01*
X2875Y-19613D01*
X3208Y-19667D01*
X3417Y-19800D01*
X3583Y-19987D01*
X3625Y-20173D01*
X3583Y-20360D01*
X3417Y-20600D01*
X4500Y-20520D01*
Y-19800D01*
G01X12000Y-33800D02*
Y-19200D01*
X4000D01*
Y-33800D01*
X12000D01*
G01X12500Y-29333D02*
X15000D01*
Y-28667D01*
X14875Y-28453D01*
X14708Y-28320D01*
X14375Y-28267D01*
X14042Y-28320D01*
X13833Y-28480D01*
X13708Y-28667D01*
Y-29333D01*
G01Y-28667D02*
X12500Y-28267D01*
G01X13542Y-27107D02*
X13833Y-26920D01*
X14000Y-26760D01*
X14083Y-26547D01*
X14000Y-26360D01*
X13833Y-26227D01*
X13583Y-26120D01*
X13292Y-26093D01*
X13042Y-26120D01*
X12792Y-26227D01*
X12583Y-26387D01*
X12500Y-26573D01*
X12583Y-26787D01*
X12833Y-26973D01*
X13208Y-27080D01*
X13625Y-27107D01*
X14167Y-27053D01*
X14458Y-26973D01*
X14750Y-26840D01*
X14958Y-26653D01*
X15000Y-26467D01*
X14917Y-26280D01*
X14708Y-26147D01*
G01X13542Y-24907D02*
X13833Y-24720D01*
X14000Y-24560D01*
X14083Y-24347D01*
X14000Y-24160D01*
X13833Y-24027D01*
X13583Y-23920D01*
X13292Y-23893D01*
X13042Y-23920D01*
X12792Y-24027D01*
X12583Y-24187D01*
X12500Y-24373D01*
X12583Y-24587D01*
X12833Y-24773D01*
X13208Y-24880D01*
X13625Y-24907D01*
X14167Y-24853D01*
X14458Y-24773D01*
X14750Y-24640D01*
X14958Y-24453D01*
X15000Y-24267D01*
X14917Y-24080D01*
X14708Y-23947D01*
G01X12500Y-21880D02*
X15000D01*
X13208Y-22867D01*
Y-21533D01*
G01X17208Y-52787D02*
X17083Y-52627D01*
X17000Y-52440D01*
Y-52227D01*
X17125Y-51987D01*
X17333Y-51800D01*
X17583Y-51667D01*
X18000Y-51560D01*
X18375Y-51533D01*
X18750Y-51587D01*
X19000Y-51667D01*
X19250Y-51827D01*
X19417Y-52013D01*
X19500Y-52200D01*
Y-52387D01*
X19417Y-52573D01*
X19292Y-52733D01*
X19125Y-52867D01*
G01X18458Y-53893D02*
X18167Y-54080D01*
X18000Y-54240D01*
X17917Y-54453D01*
X18000Y-54640D01*
X18167Y-54773D01*
X18417Y-54880D01*
X18708Y-54907D01*
X18958Y-54880D01*
X19208Y-54773D01*
X19417Y-54613D01*
X19500Y-54427D01*
X19417Y-54213D01*
X19167Y-54027D01*
X18792Y-53920D01*
X18375Y-53893D01*
X17833Y-53947D01*
X17542Y-54027D01*
X17250Y-54160D01*
X17042Y-54347D01*
X17000Y-54533D01*
X17083Y-54720D01*
X17292Y-54853D01*
G01X18458Y-56093D02*
X18167Y-56280D01*
X18000Y-56440D01*
X17917Y-56653D01*
X18000Y-56840D01*
X18167Y-56973D01*
X18417Y-57080D01*
X18708Y-57107D01*
X18958Y-57080D01*
X19208Y-56973D01*
X19417Y-56813D01*
X19500Y-56627D01*
X19417Y-56413D01*
X19167Y-56227D01*
X18792Y-56120D01*
X18375Y-56093D01*
X17833Y-56147D01*
X17542Y-56227D01*
X17250Y-56360D01*
X17042Y-56547D01*
X17000Y-56733D01*
X17083Y-56920D01*
X17292Y-57053D01*
G01X19125Y-58213D02*
X19333Y-58373D01*
X19458Y-58560D01*
X19500Y-58800D01*
X19417Y-59040D01*
X19250Y-59227D01*
X18958Y-59360D01*
X18625Y-59387D01*
X18292Y-59333D01*
X18083Y-59200D01*
X17917Y-59013D01*
X17875Y-58827D01*
X17917Y-58640D01*
X18083Y-58400D01*
X17000Y-58480D01*
Y-59200D01*
G01X27208Y-52287D02*
X27083Y-52127D01*
X27000Y-51940D01*
Y-51727D01*
X27125Y-51487D01*
X27333Y-51300D01*
X27583Y-51167D01*
X28000Y-51060D01*
X28375Y-51033D01*
X28750Y-51087D01*
X29000Y-51167D01*
X29250Y-51327D01*
X29417Y-51513D01*
X29500Y-51700D01*
Y-51887D01*
X29417Y-52073D01*
X29292Y-52233D01*
X29125Y-52367D01*
G01X28458Y-53393D02*
X28167Y-53580D01*
X28000Y-53740D01*
X27917Y-53953D01*
X28000Y-54140D01*
X28167Y-54273D01*
X28417Y-54380D01*
X28708Y-54407D01*
X28958Y-54380D01*
X29208Y-54273D01*
X29417Y-54113D01*
X29500Y-53927D01*
X29417Y-53713D01*
X29167Y-53527D01*
X28792Y-53420D01*
X28375Y-53393D01*
X27833Y-53447D01*
X27542Y-53527D01*
X27250Y-53660D01*
X27042Y-53847D01*
X27000Y-54033D01*
X27083Y-54220D01*
X27292Y-54353D01*
G01X28458Y-55593D02*
X28167Y-55780D01*
X28000Y-55940D01*
X27917Y-56153D01*
X28000Y-56340D01*
X28167Y-56473D01*
X28417Y-56580D01*
X28708Y-56607D01*
X28958Y-56580D01*
X29208Y-56473D01*
X29417Y-56313D01*
X29500Y-56127D01*
X29417Y-55913D01*
X29167Y-55727D01*
X28792Y-55620D01*
X28375Y-55593D01*
X27833Y-55647D01*
X27542Y-55727D01*
X27250Y-55860D01*
X27042Y-56047D01*
X27000Y-56233D01*
X27083Y-56420D01*
X27292Y-56553D01*
G01X29000Y-57713D02*
X29292Y-57873D01*
X29458Y-58087D01*
X29500Y-58327D01*
X29458Y-58540D01*
X29250Y-58753D01*
X29000Y-58887D01*
X28750Y-58913D01*
X28458Y-58860D01*
X28250Y-58673D01*
X28167Y-58487D01*
Y-58247D01*
G01Y-58487D02*
X28042Y-58647D01*
X27833Y-58780D01*
X27583Y-58833D01*
X27333Y-58780D01*
X27125Y-58647D01*
X27000Y-58407D01*
X27042Y-58167D01*
X27208Y-57927D01*
G01X14500Y-35700D02*
Y-50300D01*
X22500D01*
Y-35700D01*
X14500D01*
G01X24000Y-35200D02*
Y-49800D01*
X32000D01*
Y-35200D01*
X24000D01*
G01X22000Y-33800D02*
Y-19200D01*
X14000D01*
Y-33800D01*
X22000D01*
G01X32000D02*
Y-19200D01*
X24000D01*
Y-33800D01*
X32000D01*
G01X36208Y-52787D02*
X36083Y-52627D01*
X36000Y-52440D01*
Y-52227D01*
X36125Y-51987D01*
X36333Y-51800D01*
X36583Y-51667D01*
X37000Y-51560D01*
X37375Y-51533D01*
X37750Y-51587D01*
X38000Y-51667D01*
X38250Y-51827D01*
X38417Y-52013D01*
X38500Y-52200D01*
Y-52387D01*
X38417Y-52573D01*
X38292Y-52733D01*
X38125Y-52867D01*
G01X37458Y-53893D02*
X37167Y-54080D01*
X37000Y-54240D01*
X36917Y-54453D01*
X37000Y-54640D01*
X37167Y-54773D01*
X37417Y-54880D01*
X37708Y-54907D01*
X37958Y-54880D01*
X38208Y-54773D01*
X38417Y-54613D01*
X38500Y-54427D01*
X38417Y-54213D01*
X38167Y-54027D01*
X37792Y-53920D01*
X37375Y-53893D01*
X36833Y-53947D01*
X36542Y-54027D01*
X36250Y-54160D01*
X36042Y-54347D01*
X36000Y-54533D01*
X36083Y-54720D01*
X36292Y-54853D01*
G01X38125Y-56013D02*
X38333Y-56173D01*
X38458Y-56360D01*
X38500Y-56600D01*
X38417Y-56840D01*
X38250Y-57027D01*
X37958Y-57160D01*
X37625Y-57187D01*
X37292Y-57133D01*
X37083Y-57000D01*
X36917Y-56813D01*
X36875Y-56627D01*
X36917Y-56440D01*
X37083Y-56200D01*
X36000Y-56280D01*
Y-57000D01*
G01X38500Y-58800D02*
X36000D01*
X36500Y-58480D01*
G01X38500D02*
Y-59120D01*
G01X33500Y-35700D02*
Y-50300D01*
X41500D01*
Y-35700D01*
X33500D01*
G01X43500Y-28833D02*
X46000D01*
Y-28167D01*
X45875Y-27953D01*
X45708Y-27820D01*
X45375Y-27767D01*
X45042Y-27820D01*
X44833Y-27980D01*
X44708Y-28167D01*
Y-28833D01*
G01Y-28167D02*
X43500Y-27767D01*
G01X44542Y-26607D02*
X44833Y-26420D01*
X45000Y-26260D01*
X45083Y-26047D01*
X45000Y-25860D01*
X44833Y-25727D01*
X44583Y-25620D01*
X44292Y-25593D01*
X44042Y-25620D01*
X43792Y-25727D01*
X43583Y-25887D01*
X43500Y-26073D01*
X43583Y-26287D01*
X43833Y-26473D01*
X44208Y-26580D01*
X44625Y-26607D01*
X45167Y-26553D01*
X45458Y-26473D01*
X45750Y-26340D01*
X45958Y-26153D01*
X46000Y-25967D01*
X45917Y-25780D01*
X45708Y-25647D01*
G01X43500Y-23580D02*
X46000D01*
X44208Y-24567D01*
Y-23233D01*
G01X43500Y-21700D02*
X46000D01*
X45500Y-22020D01*
G01X43500D02*
Y-21380D01*
G01X31000Y-30333D02*
X33500D01*
Y-29667D01*
X33375Y-29453D01*
X33208Y-29320D01*
X32875Y-29267D01*
X32542Y-29320D01*
X32333Y-29480D01*
X32208Y-29667D01*
Y-30333D01*
G01Y-29667D02*
X31000Y-29267D01*
G01X32042Y-28107D02*
X32333Y-27920D01*
X32500Y-27760D01*
X32583Y-27547D01*
X32500Y-27360D01*
X32333Y-27227D01*
X32083Y-27120D01*
X31792Y-27093D01*
X31542Y-27120D01*
X31292Y-27227D01*
X31083Y-27387D01*
X31000Y-27573D01*
X31083Y-27787D01*
X31333Y-27973D01*
X31708Y-28080D01*
X32125Y-28107D01*
X32667Y-28053D01*
X32958Y-27973D01*
X33250Y-27840D01*
X33458Y-27653D01*
X33500Y-27467D01*
X33417Y-27280D01*
X33208Y-27147D01*
G01X32042Y-25907D02*
X32333Y-25720D01*
X32500Y-25560D01*
X32583Y-25347D01*
X32500Y-25160D01*
X32333Y-25027D01*
X32083Y-24920D01*
X31792Y-24893D01*
X31542Y-24920D01*
X31292Y-25027D01*
X31083Y-25187D01*
X31000Y-25373D01*
X31083Y-25587D01*
X31333Y-25773D01*
X31708Y-25880D01*
X32125Y-25907D01*
X32667Y-25853D01*
X32958Y-25773D01*
X33250Y-25640D01*
X33458Y-25453D01*
X33500Y-25267D01*
X33417Y-25080D01*
X33208Y-24947D01*
G01X33083Y-23707D02*
X33333Y-23547D01*
X33458Y-23360D01*
X33500Y-23147D01*
X33417Y-22880D01*
X33208Y-22693D01*
X32958Y-22640D01*
X32708Y-22667D01*
X32500Y-22773D01*
X32083Y-23307D01*
X31792Y-23547D01*
X31375Y-23707D01*
X31000Y-23760D01*
Y-22640D01*
M02*
