G04 ================== begin FILE IDENTIFICATION RECORD ==================*
G04 Layout Name:  gate_driver_ttype_modified_v1_11mar.brd*
G04 Film Name:    SoldermaskBOTTOM*
G04 File Format:  Gerber RS274X*
G04 File Origin:  Cadence Allegro 17.4-S031*
G04 Origin Date:  Fri Mar 22 15:14:26 2024*
G04 *
G04 Layer:  VIA CLASS/SOLDERMASK_BOTTOM*
G04 Layer:  PIN/SOLDERMASK_BOTTOM*
G04 Layer:  PACKAGE GEOMETRY/SOLDERMASK_BOTTOM*
G04 Layer:  BOARD GEOMETRY/OUTLINE*
G04 Layer:  BOARD GEOMETRY/SOLDERMASK_BOTTOM*
G04 *
G04 Offset:    (0.00 0.00)*
G04 Mirror:    No*
G04 Mode:      Positive*
G04 Rotation:  0*
G04 FullContactRelief:  No*
G04 UndefLineWidth:     8.00*
G04 ================== end FILE IDENTIFICATION RECORD ====================*
%FSLAX25Y25*MOIN*%
%IR0*IPPOS*OFA0.00000B0.00000*MIA0B0*SFA1.00000B1.00000*%
%ADD14C,.07*%
%ADD15C,.035*%
%ADD12C,.044*%
%ADD11C,.07697*%
%ADD17R,.07697X.07697*%
%ADD13C,.1*%
%ADD10C,.11811*%
%ADD18R,.135X.135*%
%ADD16R,.06693X.05906*%
%ADD19C,.03*%
%ADD20C,.008*%
G75*
%LPD*%
G75*
G54D10*
X-372500Y-8000D03*
X-360500Y-258500D03*
X68000Y-258000D03*
G54D20*
G01X85500Y6000D02*
X-386000D01*
Y-272500D01*
Y-273000D01*
X85000D01*
X85500Y-272500D01*
Y6000D01*
G54D11*
X-346000Y-103000D03*
X-356000D03*
X-251000Y-105000D03*
X-241000D03*
X-182500Y-103000D03*
X-192500D03*
X-89000Y-105000D03*
X-79000D03*
X3500Y-145000D03*
Y-135000D03*
Y-101000D03*
Y-91000D03*
G54D12*
X-358000Y-42512D03*
X-346000D03*
X-346500Y-31000D03*
X-334000Y-64500D03*
X-321000Y-133000D03*
X-315500Y-133500D03*
X-322500Y-64500D03*
X-322000Y-54000D03*
Y-42512D03*
X-302000Y-155512D03*
X-305500Y-133000D03*
X-300500Y-133094D03*
X-299000Y-54988D03*
X-299012Y-32488D03*
X-291500Y-151240D03*
X-285500Y-133094D03*
X-288500Y-54500D03*
X-275500Y-54000D03*
X-239000Y-53500D03*
X-187500Y-42500D03*
X-169500Y-64500D03*
Y-42012D03*
X-149000Y-135500D03*
X-159000Y-136000D03*
X-154000Y-135594D03*
X-149000Y-75000D03*
X-157000Y-64500D03*
X-138500Y-157012D03*
X-144000Y-135000D03*
X-139000Y-135500D03*
X-144500Y-53500D03*
X-144012Y-42012D03*
X-128000Y-152740D03*
X-119500Y-65012D03*
Y-54000D03*
X-95500D03*
X-95000Y-65012D03*
X-81500Y-57004D03*
X-80000Y-47000D03*
X13500Y-224500D03*
X-2500Y-46500D03*
X8500Y-39260D03*
X-2500Y-30240D03*
X24500Y-120500D03*
X28000Y-38760D03*
X18500Y-39260D03*
X37500Y-39000D03*
X70500Y-31500D03*
G54D13*
X-312000Y-249000D03*
Y-180102D03*
X-292315Y-249000D03*
Y-180102D03*
X-272630Y-249000D03*
Y-180102D03*
X-252945Y-249000D03*
Y-180102D03*
X-165500Y-248500D03*
Y-179602D03*
X-145815Y-248500D03*
Y-179602D03*
X-126130Y-248500D03*
Y-179602D03*
X-106445Y-248500D03*
Y-179602D03*
G54D14*
X-287400Y-10000D03*
X-277400D03*
X-287400Y0D03*
X-277400D03*
X-211000Y-10000D03*
X-201000D03*
X-211000Y0D03*
X-201000D03*
X-134600Y-10000D03*
Y0D03*
X-124600Y-10000D03*
Y0D03*
X-58200Y-10000D03*
Y0D03*
X-48200Y-10000D03*
Y0D03*
X0Y-10000D03*
X10000D03*
X0Y0D03*
X10000D03*
X30000Y-10000D03*
X20000D03*
X30000Y0D03*
X20000D03*
X40000Y-10000D03*
Y0D03*
X50000Y-10000D03*
X60000D03*
X50000Y0D03*
X60000D03*
X70000Y-10000D03*
Y0D03*
G54D15*
X-21500Y-137260D03*
X-16500Y-93000D03*
X26000Y-154000D03*
G54D16*
X-2500Y-39260D03*
Y-46740D03*
Y-30240D03*
Y-22760D03*
X8500Y-39260D03*
Y-46740D03*
X8000Y-30240D03*
Y-22760D03*
X18500Y-39260D03*
Y-46740D03*
X28000Y-38760D03*
Y-46240D03*
X18000Y-30240D03*
Y-22760D03*
X28000Y-30240D03*
Y-22760D03*
X37500Y-39260D03*
Y-46740D03*
Y-30240D03*
Y-22760D03*
G54D17*
X3500Y-125000D03*
Y-81000D03*
G54D18*
X60000Y-157500D03*
Y-137500D03*
X60500Y-96000D03*
Y-76000D03*
G54D19*
G01X-223000Y-122000D02*
Y-60000D01*
M02*
