G04 ================== begin FILE IDENTIFICATION RECORD ==================*
G04 Layout Name:  gate_driver_ttype_modified_v1_11mar.brd*
G04 Film Name:    TOP*
G04 File Format:  Gerber RS274X*
G04 File Origin:  Cadence Allegro 17.4-S031*
G04 Origin Date:  Fri Mar 22 15:14:26 2024*
G04 *
G04 Layer:  BOARD GEOMETRY/OUTLINE*
G04 Layer:  ETCH/TOP*
G04 Layer:  PIN/TOP*
G04 Layer:  VIA CLASS/TOP*
G04 *
G04 Offset:    (0.00 0.00)*
G04 Mirror:    No*
G04 Mode:      Positive*
G04 Rotation:  0*
G04 FullContactRelief:  No*
G04 UndefLineWidth:     8.00*
G04 ================== end FILE IDENTIFICATION RECORD ====================*
%FSLAX25Y25*MOIN*%
%IR0*IPPOS*OFA0.00000B0.00000*MIA0B0*SFA1.00000B1.00000*%
%ADD20C,.06*%
%ADD15C,.024*%
%ADD21C,.035*%
%ADD17C,.08268*%
%ADD14C,.06909*%
%ADD23R,.06909X.06909*%
%ADD24R,.12598X.07087*%
%ADD25R,.13X.13*%
%ADD10C,.11811*%
%ADD22R,.02559X.06004*%
%ADD18R,.05906X.05118*%
%ADD13R,.02953X.04921*%
%ADD11R,.02756X.03543*%
%ADD19O,.02559X.08268*%
%ADD16R,.03937X.03937*%
%ADD12R,.07087X.06299*%
%ADD26C,.02*%
%ADD27C,.03*%
%ADD28C,.008*%
G75*
%LPD*%
G75*
G54D10*
X-372500Y-8000D03*
X-360500Y-258500D03*
X68000Y-258000D03*
G54D11*
X-364500Y-133437D03*
X-368240Y-125563D03*
X-360760D03*
X-348000Y-133937D03*
X-351740Y-126063D03*
X-344260D03*
X-265240Y-128563D03*
X-261500Y-136437D03*
X-248740Y-129063D03*
X-257760Y-128563D03*
X-245000Y-136937D03*
X-241260Y-129063D03*
X-199000Y-133437D03*
X-202740Y-125563D03*
X-182500Y-133437D03*
X-186240Y-125563D03*
X-195260D03*
X-178760D03*
X-106500Y-134437D03*
X-110240Y-126563D03*
X-102760D03*
X-89500Y-134437D03*
X-93240Y-126563D03*
X-85760D03*
G54D20*
X-287400Y-10000D03*
X-277400D03*
X-287400Y0D03*
X-277400D03*
X-211000Y-10000D03*
X-201000D03*
X-211000Y0D03*
X-201000D03*
X-134600Y-10000D03*
Y0D03*
X-124600Y-10000D03*
Y0D03*
X-58200Y-10000D03*
Y0D03*
X-48200Y-10000D03*
Y0D03*
X0Y-10000D03*
X10000D03*
X0Y0D03*
X10000D03*
X30000Y-10000D03*
X20000D03*
X30000Y0D03*
X20000D03*
X40000Y-10000D03*
Y0D03*
X50000Y-10000D03*
X60000D03*
X50000Y0D03*
X60000D03*
X70000Y-10000D03*
Y0D03*
G54D12*
X-374000Y-104488D03*
Y-115512D03*
X-358000Y-64512D03*
Y-53488D03*
Y-42512D03*
X-370000D03*
X-358000Y-31488D03*
X-370000D03*
X-346000Y-53488D03*
Y-64512D03*
Y-42512D03*
Y-31488D03*
X-334000Y-64512D03*
Y-53488D03*
X-322000D03*
Y-64512D03*
Y-42512D03*
Y-31488D03*
X-302000Y-155512D03*
Y-144488D03*
X-299000Y-66012D03*
Y-54988D03*
Y-43512D03*
Y-32488D03*
X-288000Y-65512D03*
Y-54488D03*
X-269000Y-118512D03*
Y-107488D03*
X-276000Y-54488D03*
Y-65512D03*
Y-43512D03*
Y-32488D03*
X-251000Y-43012D03*
Y-31988D03*
X-239000Y-65012D03*
Y-53988D03*
Y-43012D03*
Y-31988D03*
X-210500Y-104488D03*
Y-115512D03*
X-199000Y-42512D03*
Y-31488D03*
X-187000Y-64512D03*
Y-53488D03*
Y-42512D03*
Y-31488D03*
X-169500Y-53488D03*
Y-64512D03*
Y-42012D03*
Y-30988D03*
X-157000Y-65012D03*
Y-53988D03*
X-138500Y-157012D03*
Y-145988D03*
X-144500Y-65012D03*
Y-53988D03*
Y-42012D03*
Y-30988D03*
X-119500Y-53988D03*
Y-65012D03*
Y-42012D03*
Y-30988D03*
X-108000Y-105488D03*
Y-116512D03*
X-107000Y-65012D03*
Y-53988D03*
X-95000D03*
Y-65012D03*
Y-42512D03*
Y-31488D03*
X-68500Y-69012D03*
Y-57988D03*
X-80500Y-47012D03*
Y-35988D03*
X-68500Y-47012D03*
Y-35988D03*
X4000Y-178012D03*
Y-166988D03*
X25000Y-120512D03*
Y-109488D03*
X35500Y-120512D03*
X46000D03*
X35500Y-109488D03*
X46000D03*
X70000Y-20988D03*
Y-32012D03*
G54D21*
X-21500Y-137260D03*
X-16500Y-93000D03*
X26000Y-154000D03*
G54D13*
X-371000Y-65496D03*
Y-52504D03*
X-252000Y-65996D03*
Y-53004D03*
X-200000Y-65496D03*
Y-52504D03*
X-81500Y-69996D03*
Y-57004D03*
G54D22*
X-24000Y-125677D03*
X-29000D03*
X-34000D03*
Y-104323D03*
X-29000D03*
X-24000D03*
X-19000Y-125677D03*
Y-104323D03*
G54D23*
X3500Y-125000D03*
Y-81000D03*
G54D14*
X-346000Y-103000D03*
X-356000D03*
X-251000Y-105000D03*
X-241000D03*
X-182500Y-103000D03*
X-192500D03*
X-89000Y-105000D03*
X-79000D03*
X3500Y-145000D03*
Y-135000D03*
Y-101000D03*
Y-91000D03*
G54D24*
X26000Y-154024D03*
Y-131976D03*
X25500Y-97024D03*
Y-74976D03*
G54D15*
X-358000Y-42512D03*
X-346000D03*
X-346500Y-31000D03*
X-334000Y-64500D03*
X-321000Y-133000D03*
X-315500Y-133500D03*
X-322500Y-64500D03*
X-322000Y-54000D03*
Y-42512D03*
X-302000Y-155512D03*
X-305500Y-133000D03*
X-300500Y-133094D03*
X-299000Y-54988D03*
X-299012Y-32488D03*
X-291500Y-151240D03*
X-285500Y-133094D03*
X-288500Y-54500D03*
X-275500Y-54000D03*
X-239000Y-53500D03*
X-187500Y-42500D03*
X-169500Y-64500D03*
Y-42012D03*
X-149000Y-135500D03*
X-159000Y-136000D03*
X-154000Y-135594D03*
X-149000Y-75000D03*
X-157000Y-64500D03*
X-138500Y-157012D03*
X-144000Y-135000D03*
X-139000Y-135500D03*
X-144500Y-53500D03*
X-144012Y-42012D03*
X-128000Y-152740D03*
X-119500Y-65012D03*
Y-54000D03*
X-95500D03*
X-95000Y-65012D03*
X-81500Y-57004D03*
X-80000Y-47000D03*
X13500Y-224500D03*
X-2500Y-46500D03*
X8500Y-39260D03*
X-2500Y-30240D03*
X24500Y-120500D03*
X28000Y-38760D03*
X18500Y-39260D03*
X37500Y-39000D03*
X70500Y-31500D03*
G54D16*
X-334000Y-44087D03*
Y-29913D03*
X-288000Y-45087D03*
Y-30913D03*
X-157500Y-43587D03*
Y-29413D03*
X-107500Y-44087D03*
Y-29913D03*
X-6500Y-179587D03*
Y-165413D03*
G54D25*
X60000Y-157500D03*
Y-137500D03*
X60500Y-96000D03*
Y-76000D03*
G54D26*
G01X-374000Y-115512D02*
X-373606D01*
X-368618Y-120500D01*
G01D02*
X-353500D01*
X-351740Y-122260D01*
Y-126063D01*
G01X-368240Y-125563D02*
Y-120878D01*
X-368618Y-120500D01*
G01X-344260Y-126063D02*
Y-126457D01*
X-347303Y-129500D01*
X-358500D01*
X-360760Y-127240D01*
Y-125563D01*
G01X-374000Y-104488D02*
X-362444D01*
X-360956Y-103000D01*
X-356000D01*
G01X-371000Y-52504D02*
Y-53488D01*
X-373538Y-56026D01*
X-374522D01*
X-376000Y-57504D01*
Y-83000D01*
X-356000Y-103000D01*
G01X-358000Y-64512D02*
X-367039D01*
X-368023Y-65496D01*
X-371000D01*
G01Y-52504D02*
X-364028D01*
X-363044Y-53488D01*
X-358000D01*
G01Y-42512D02*
X-370000D01*
G01Y-31488D02*
X-358000D01*
G01X-320500Y-94906D02*
X-347906D01*
X-356000Y-103000D01*
G01X-346000D02*
X-312960D01*
X-310500Y-100540D01*
Y-94906D01*
G01X-344260Y-126063D02*
Y-109696D01*
X-346000Y-107956D01*
Y-103000D01*
G01X-358000Y-64512D02*
X-346000D01*
G01Y-42512D02*
X-345606D01*
X-341395Y-46723D01*
Y-47117D01*
X-340000Y-48512D01*
Y-62512D01*
X-342000Y-64512D01*
X-346000D01*
G01X-358000Y-53488D02*
X-346000D01*
G01Y-42512D02*
X-348512Y-40000D01*
X-350000D01*
X-352000Y-38000D01*
Y-33488D01*
X-354000Y-31488D01*
X-358000D01*
G01X-334000Y-44087D02*
X-335087Y-43000D01*
X-337500D01*
X-339500Y-41000D01*
Y-33488D01*
X-341500Y-31488D01*
X-346000D01*
G01X-315500Y-94906D02*
Y-83012D01*
X-329395Y-69117D01*
Y-68723D01*
X-333606Y-64512D01*
X-334000D01*
G01Y-44087D02*
Y-53488D01*
G01Y-29913D02*
X-328619D01*
X-327044Y-31488D01*
X-322000D01*
G01X-281500Y-143260D02*
X-279760Y-145000D01*
X-277000D01*
X-275000Y-147000D01*
Y-158000D01*
X-279000Y-162000D01*
X-307500D01*
X-312000Y-157500D01*
Y-151740D01*
G01X-310500Y-133094D02*
Y-135948D01*
X-314052Y-139500D01*
X-316500D01*
X-318500Y-141500D01*
Y-150325D01*
X-317085Y-151740D01*
X-312000D01*
G01X-310500Y-94906D02*
Y-69500D01*
X-315488Y-64512D01*
X-322000D01*
G01X-291500Y-143760D02*
X-296228D01*
X-296956Y-144488D01*
X-302000D01*
G01D02*
X-307319D01*
X-307547Y-144260D01*
X-312000D01*
G01X-295500Y-94906D02*
Y-74162D01*
X-299000Y-70662D01*
Y-66012D01*
G01Y-43512D02*
Y-54988D01*
G01Y-32488D02*
X-293044D01*
X-291469Y-30913D01*
X-288000D01*
G01X-299000Y-32488D02*
X-299012D01*
G01X-291500Y-143760D02*
Y-138880D01*
X-295500Y-134880D01*
Y-133094D01*
G01X-281500Y-143260D02*
Y-137094D01*
X-285500Y-133094D01*
G01X-290500Y-94906D02*
Y-72662D01*
X-288000Y-70162D01*
Y-65512D01*
G01X-295500Y-94906D02*
Y-100540D01*
X-294040Y-102000D01*
X-274882D01*
X-269394Y-107488D01*
X-269000D01*
G01X-285500Y-94906D02*
Y-74618D01*
X-276394Y-65512D01*
X-276000D01*
G01X-285500Y-94906D02*
X-251094D01*
X-241000Y-105000D01*
G01X-288000Y-65512D02*
X-286988Y-64500D01*
X-284500D01*
X-282500Y-62500D01*
Y-44968D01*
X-281044Y-43512D01*
X-276000D01*
G01Y-32488D02*
X-276394D01*
X-280605Y-36699D01*
Y-37692D01*
X-288000Y-45087D01*
G01X-277400Y-10000D02*
X-281000Y-13600D01*
Y-25000D01*
X-279000Y-27000D01*
X-271500D01*
X-269500Y-29000D01*
Y-51999D01*
X-271488Y-53987D01*
Y-54488D01*
G01X-288000Y-30913D02*
X-284218Y-27131D01*
Y-13182D01*
X-287400Y-10000D01*
G01X-265240Y-128563D02*
Y-122272D01*
X-269000Y-118512D01*
G01X-248740Y-129063D02*
Y-129457D01*
X-251783Y-132500D01*
X-261697D01*
X-265240Y-128957D01*
Y-128563D01*
G01X-251000Y-105000D02*
X-261468D01*
X-263956Y-107488D01*
X-269000D01*
G01X-251000Y-31988D02*
X-258500D01*
X-260500Y-33988D01*
Y-43500D01*
X-271488Y-54488D01*
G01D02*
X-276000D01*
G01X-251000Y-43012D02*
X-251394D01*
X-263500Y-55118D01*
Y-62500D01*
X-266512Y-65512D01*
X-276000D01*
G01X-241260Y-128669D02*
X-245084Y-124845D01*
X-256345D01*
X-257760Y-126260D01*
Y-128563D01*
G01X-252000Y-65996D02*
X-245028D01*
X-244044Y-65012D01*
X-239000D01*
G01Y-53988D02*
X-248039D01*
X-249023Y-53004D01*
X-252000D01*
G01X-251000Y-43012D02*
X-239000D01*
G01Y-31988D02*
X-251000D01*
G01X-241260Y-128669D02*
Y-110216D01*
X-241000Y-109956D01*
Y-105000D01*
G01X-241260Y-128669D02*
Y-129063D01*
G01X-239000Y-65012D02*
X-233012D01*
X-231012Y-63012D01*
Y-33988D01*
X-233012Y-31988D01*
X-239000D01*
G01X-210500Y-115512D02*
X-210106D01*
X-205895Y-119723D01*
Y-122014D01*
X-202740Y-125169D01*
G01Y-125563D02*
Y-125169D01*
G01X-186240Y-125563D02*
Y-125169D01*
X-190584Y-120825D01*
X-201325D01*
X-202740Y-122240D01*
Y-125169D01*
G01X-210500Y-104488D02*
X-198944D01*
X-197456Y-103000D01*
X-192500D01*
G01X-159000Y-97406D02*
Y-80000D01*
X-167000Y-72000D01*
X-208000D01*
X-210000Y-70000D01*
Y-54504D01*
X-208000Y-52504D01*
X-200000D01*
G01Y-65496D02*
X-193028D01*
X-192044Y-64512D01*
X-187000D01*
G01X-199000Y-42512D02*
X-187000D01*
G01Y-53488D02*
X-196039D01*
X-197023Y-52504D01*
X-200000D01*
G01X-199000Y-31488D02*
X-187000D01*
G01X-178760Y-125563D02*
Y-125957D01*
X-181803Y-129000D01*
X-193500D01*
X-195260Y-127240D01*
Y-125563D01*
G01X-149000Y-97406D02*
Y-104000D01*
X-151000Y-106000D01*
X-167000D01*
X-170000Y-103000D01*
X-182500D01*
G01X-159000Y-97406D02*
X-161780D01*
X-163186Y-96000D01*
X-190500D01*
X-192500Y-98000D01*
Y-103000D01*
G01X-178760Y-125563D02*
Y-106740D01*
X-182500Y-103000D01*
G01X-169500Y-64512D02*
X-187000D01*
G01X-169500Y-53488D02*
X-187000D01*
G01Y-31488D02*
X-180418D01*
X-169894Y-42012D01*
X-169500D01*
G01Y-64512D02*
X-169106D01*
X-164094Y-59500D01*
X-150406D01*
X-144894Y-65012D01*
X-144500D01*
G01X-169500Y-30988D02*
X-164456D01*
X-163000Y-32444D01*
Y-38087D01*
X-157500Y-43587D01*
G01X-134600Y-10000D02*
Y-17100D01*
X-138500Y-21000D01*
X-165500D01*
X-169500Y-25000D01*
Y-30988D01*
G01X-148500Y-152740D02*
X-150740Y-150500D01*
X-151500D01*
X-153500Y-148500D01*
Y-142626D01*
X-151288Y-140414D01*
X-150966D01*
X-149000Y-138448D01*
Y-135594D01*
G01X-157000Y-65012D02*
Y-69662D01*
X-154000Y-72662D01*
Y-97406D01*
G01X-157000Y-53988D02*
Y-49338D01*
X-157500Y-48838D01*
Y-43587D01*
G01Y-29413D02*
X-151119D01*
X-149544Y-30988D01*
X-144500D01*
G01X-116000Y-141760D02*
X-115606D01*
X-110500Y-146866D01*
Y-153500D01*
X-120000Y-163000D01*
X-143500D01*
X-148500Y-158000D01*
Y-152740D01*
G01Y-145260D02*
X-139228D01*
X-138500Y-145988D01*
G01D02*
X-133181D01*
X-132453Y-145260D01*
X-128000D01*
G01X-138500Y-145988D02*
X-134000Y-141488D01*
Y-135594D01*
G01X-108000Y-105488D02*
X-131552D01*
X-134000Y-103040D01*
Y-97406D01*
G01D02*
Y-90000D01*
X-113000Y-69000D01*
Y-55988D01*
X-115000Y-53988D01*
X-119500D01*
G01X-149000Y-97406D02*
Y-75000D01*
G01X-124600Y-10000D02*
Y-14500D01*
X-137000Y-26900D01*
Y-63500D01*
X-138512Y-65012D01*
X-144500D01*
G01Y-42012D02*
X-144012D01*
G01X-124000Y-135594D02*
Y-138448D01*
X-120688Y-141760D01*
X-116000D01*
G01X-124000Y-97406D02*
X-86594D01*
X-79000Y-105000D01*
G01X-107000Y-65012D02*
Y-82500D01*
X-113500Y-89000D01*
X-123500D01*
X-127034Y-92534D01*
Y-92586D01*
X-129000Y-94552D01*
Y-97406D01*
G01X-119500Y-65012D02*
X-119988Y-65500D01*
X-125000D01*
X-126500Y-64000D01*
Y-43968D01*
X-124544Y-42012D01*
X-119500D01*
G01Y-30988D02*
X-114456D01*
X-112500Y-32944D01*
Y-39087D01*
X-107500Y-44087D01*
G01X-119500Y-30988D02*
Y-26338D01*
X-117162Y-24000D01*
X-62500D01*
X-59500Y-21000D01*
Y-11300D01*
X-58200Y-10000D01*
G01X-110240Y-126563D02*
Y-118752D01*
X-108000Y-116512D01*
G01X-110240Y-126563D02*
Y-126957D01*
X-107197Y-130000D01*
X-96283D01*
X-93240Y-126957D01*
Y-126563D01*
G01X-85760Y-126169D02*
X-89429Y-122500D01*
X-100500D01*
X-102760Y-124760D01*
Y-126563D01*
G01X-108000Y-105488D02*
X-94444D01*
X-93956Y-105000D01*
X-89000D01*
G01X-107000Y-65012D02*
X-106988Y-65000D01*
X-103000D01*
X-101000Y-63000D01*
Y-46500D01*
X-97012Y-42512D01*
X-95000D01*
G01X-107000Y-53988D02*
Y-48056D01*
X-107500Y-47556D01*
Y-44087D01*
G01Y-29913D02*
X-101619D01*
X-100044Y-31488D01*
X-95000D01*
G01X-85760Y-126563D02*
Y-126169D01*
G01D02*
X-79000Y-119409D01*
Y-105000D01*
G01D02*
Y-80618D01*
X-94606Y-65012D01*
X-95000D01*
G01X-94606Y-53988D02*
X-84038Y-64556D01*
Y-66474D01*
X-81500Y-69012D01*
Y-69996D01*
G01X-94606Y-53988D02*
X-90000D01*
X-88000Y-51988D01*
Y-38444D01*
X-85544Y-35988D01*
X-80500D01*
G01X-95000Y-53988D02*
X-94606D01*
G01X-68500Y-69012D02*
X-77539D01*
X-78523Y-69996D01*
X-81500D01*
G01X-68500Y-57988D02*
X-77539D01*
X-78523Y-57004D01*
X-81500D01*
G01X-68500Y-47012D02*
X-80500D01*
G01X-68500Y-35988D02*
X-80500D01*
G01X-68500D02*
X-68106D01*
X-48200Y-16082D01*
Y-10000D01*
G54D17*
X-312000Y-249000D03*
Y-180102D03*
X-292315Y-249000D03*
Y-180102D03*
X-272630Y-249000D03*
Y-180102D03*
X-252945Y-249000D03*
Y-180102D03*
X-165500Y-248500D03*
Y-179602D03*
X-145815Y-248500D03*
Y-179602D03*
X-126130Y-248500D03*
Y-179602D03*
X-106445Y-248500D03*
Y-179602D03*
G54D27*
G01X-312000Y-180102D02*
X-353000D01*
X-356000Y-177102D01*
Y-142331D01*
X-364500Y-133831D01*
Y-133437D01*
G01X-292315Y-180102D02*
X-299917Y-172500D01*
X-344500D01*
X-351000Y-166000D01*
Y-136937D01*
X-348000Y-133937D01*
G01X-292315Y-249000D02*
X-312000D01*
G01X-165500Y-248500D02*
X-175500Y-238500D01*
X-288500D01*
X-292315Y-242315D01*
Y-249000D01*
G01X-291500Y-151240D02*
X-286953D01*
X-286453Y-150740D01*
X-281500D01*
G01X-287400Y0D02*
Y-10000D01*
G01X-272630Y-249000D02*
X-252945D01*
G01X-272630Y-180102D02*
X-251500Y-158972D01*
Y-146831D01*
X-261500Y-136831D01*
Y-136437D01*
G01X-277400Y0D02*
Y-10000D01*
G01X-106445Y-248500D02*
X-116945Y-259000D01*
X-250500D01*
X-252945Y-256555D01*
Y-249000D01*
G01Y-180102D02*
X-245000Y-172157D01*
Y-136937D01*
G01X-223000Y-122000D02*
Y-60000D01*
G01X-165500Y-179602D02*
X-189397D01*
X-199000Y-169999D01*
Y-133437D01*
G01X-211000Y0D02*
Y-10000D01*
G01X-201000Y0D02*
Y-10000D01*
G01X-145815Y-179602D02*
X-153417Y-172000D01*
X-177000D01*
X-182000Y-167000D01*
Y-133937D01*
X-182500Y-133437D01*
G01X-165500Y-248500D02*
X-145815D01*
G01X13500Y-224500D02*
X0Y-238000D01*
X-135315D01*
X-145815Y-248500D01*
G01X-134600Y0D02*
Y-10000D01*
G01X-126130Y-248500D02*
X-106445D01*
G01X-126130Y-179602D02*
X-117528Y-171000D01*
X-106519D01*
X-95500Y-159981D01*
Y-145831D01*
X-106500Y-134831D01*
Y-134437D01*
G01X-128000Y-152740D02*
X-124453D01*
X-120953Y-149240D01*
X-116000D01*
G01X-124600Y0D02*
Y-10000D01*
G01X-106445Y-248500D02*
X27500D01*
X38500Y-237500D01*
Y-141721D01*
X28755Y-131976D01*
G01X-106445Y-179602D02*
X-92501D01*
X-89500Y-176601D01*
Y-134437D01*
G01X-58200Y0D02*
Y-10000D01*
G01X-11500Y-149299D02*
X-17701Y-155500D01*
X-39500D01*
X-47000Y-148000D01*
Y-141899D01*
X-42361Y-137260D01*
X-41500D01*
G01X-21500D02*
X-20639D01*
X-16547Y-141352D01*
Y-148128D01*
X-19919Y-151500D01*
X-34346D01*
X-41106Y-144740D01*
X-41500D01*
G01Y-137260D02*
Y-134899D01*
X-34000Y-127399D01*
Y-125677D01*
G01X-11500Y-137260D02*
Y-126000D01*
X-18500Y-119000D01*
X-39000D01*
X-42000Y-116000D01*
Y-80500D01*
X-32000Y-70500D01*
X12725D01*
X17201Y-74976D01*
X25500D01*
G01X-35500Y-92740D02*
Y-97821D01*
X-34000Y-99321D01*
Y-104323D01*
G01X-35500Y-85260D02*
Y-80701D01*
X-35000Y-80201D01*
Y-79000D01*
X-31000Y-75000D01*
X9000D01*
X14000Y-80000D01*
Y-96500D01*
X9500Y-101000D01*
X3500D01*
G01X-48200Y0D02*
Y-10000D01*
G01X-31500Y-137260D02*
Y-133500D01*
X-29000Y-131000D01*
Y-125677D01*
G01X-19000D02*
Y-132500D01*
X-21500Y-135000D01*
Y-137260D01*
G01X-24000Y-125677D02*
Y-131419D01*
X-26453Y-133872D01*
Y-134452D01*
X-26500Y-134499D01*
Y-144805D01*
G01D02*
X-26565Y-144740D01*
X-31500D01*
G01X-26500Y-144805D02*
X-26435Y-144740D01*
X-21500D01*
G01X-142Y-110345D02*
X-20980D01*
X-24000Y-107325D01*
Y-104323D01*
G01X-26000Y-92740D02*
Y-99212D01*
X-29000Y-102212D01*
Y-104323D01*
G01X-34000D02*
Y-111000D01*
X-31000Y-114000D01*
X-17000D01*
X-6500Y-124500D01*
Y-146500D01*
X4000Y-157000D01*
Y-166988D01*
G01X3500Y-81000D02*
X-1955D01*
X-3955Y-79000D01*
X-19346D01*
X-25606Y-85260D01*
X-26000D01*
G01X-6500Y-179587D02*
X2425D01*
X4000Y-178012D01*
G01X-6500Y-165413D02*
Y-154299D01*
X-11500Y-149299D01*
G01D02*
Y-144740D01*
G01X-19000Y-104323D02*
X-15720D01*
X-11547Y-100150D01*
Y-89352D01*
X-15639Y-85260D01*
X-16500D01*
G01X0Y-10000D02*
X-5500D01*
X-11500Y-16000D01*
Y-40700D01*
X-5700Y-46500D01*
X-2500D01*
G01X-142Y-110345D02*
X-2500Y-112703D01*
Y-129000D01*
X3500Y-135000D01*
G01Y-145000D02*
X17000D01*
X26000Y-154000D01*
G01X25000Y-109488D02*
X19456D01*
X18846Y-110098D01*
X-142D01*
G01D02*
Y-110345D01*
G01Y-110098D02*
X3500Y-106456D01*
Y-101000D01*
G01X0Y0D02*
Y-10000D01*
G01X25000Y-120512D02*
X35500D01*
G01X26000Y-131976D02*
X28755D01*
G01D02*
X45976D01*
X51500Y-137500D01*
X60000D01*
G01X25000Y-109488D02*
X35500D01*
G01X25500Y-97024D02*
X41023D01*
X42499Y-98500D01*
X49500D01*
X52000Y-96000D01*
X60500D01*
G01Y-76000D02*
X34823D01*
X33799Y-74976D01*
X25500D01*
G01X35500Y-120512D02*
X46000D01*
G01X35500Y-109488D02*
X46000D01*
G01X60000Y-10000D02*
Y-57500D01*
X63000Y-60500D01*
X68000D01*
X76500Y-69000D01*
Y-155000D01*
X74000Y-157500D01*
X60000D01*
G01Y-137500D02*
Y-105000D01*
X60500Y-104500D01*
Y-96000D01*
G01X50000Y-10000D02*
Y-65500D01*
X60500Y-76000D01*
G01X60000Y0D02*
Y-10000D01*
G01X50000D02*
Y0D01*
G01X70000D02*
Y-10000D01*
G01D02*
Y-20988D01*
G54D18*
X-312000Y-151740D03*
Y-144260D03*
X-281500Y-150740D03*
X-291500Y-151240D03*
X-281500Y-143260D03*
X-291500Y-143760D03*
X-148500Y-152740D03*
Y-145260D03*
X-128000Y-152740D03*
X-116000Y-141760D03*
Y-149240D03*
X-128000Y-145260D03*
X-41500Y-137260D03*
Y-144740D03*
X-35500Y-92740D03*
Y-85260D03*
X-21500Y-144740D03*
Y-137260D03*
X-31500Y-144740D03*
Y-137260D03*
X-26000Y-92740D03*
Y-85260D03*
X-11500Y-137260D03*
Y-144740D03*
X-16500Y-85260D03*
Y-92740D03*
G54D28*
G01X85500Y6000D02*
X-386000D01*
Y-272500D01*
Y-273000D01*
X85000D01*
X85500Y-272500D01*
Y6000D01*
G54D19*
X-320500Y-133094D03*
X-315500D03*
Y-94906D03*
X-320500D03*
X-310500Y-133094D03*
X-305500D03*
X-300500D03*
X-295500D03*
Y-94906D03*
X-310500D03*
X-290500Y-133094D03*
X-285500D03*
Y-94906D03*
X-290500D03*
X-159000Y-135594D03*
X-154000D03*
Y-97406D03*
X-159000D03*
X-149000Y-135594D03*
X-144000D03*
X-139000D03*
X-134000D03*
Y-97406D03*
X-149000D03*
X-129000Y-135594D03*
X-124000D03*
Y-97406D03*
X-129000D03*
M02*
