G04*
G04 #@! TF.GenerationSoftware,Altium Limited,Altium Designer,18.1.9 (240)*
G04*
G04 Layer_Color=3326705*
%FSAX25Y25*%
%MOIN*%
G70*
G01*
G75*
%ADD10C,0.00800*%
%ADD21C,0.01000*%
%ADD56C,0.01500*%
%ADD84C,0.00100*%
G54D10*
X0126900Y0067551D02*
Y0073549D01*
X0128899Y0071549D01*
X0130899Y0073549D01*
Y0067551D01*
X0132898D02*
X0134897D01*
X0133898D01*
Y0073549D01*
X0132898Y0072549D01*
X0141895Y0067551D02*
X0137896D01*
X0141895Y0071549D01*
Y0072549D01*
X0140895Y0073549D01*
X0138896D01*
X0137896Y0072549D01*
X0153891D02*
X0152892Y0073549D01*
X0150892D01*
X0149893Y0072549D01*
Y0071549D01*
X0150892Y0070550D01*
X0152892D01*
X0153891Y0069550D01*
Y0068550D01*
X0152892Y0067551D01*
X0150892D01*
X0149893Y0068550D01*
X0156890Y0072549D02*
Y0071549D01*
X0155891D01*
X0157890D01*
X0156890D01*
Y0068550D01*
X0157890Y0067551D01*
X0161889Y0071549D02*
X0163888D01*
X0164888Y0070550D01*
Y0067551D01*
X0161889D01*
X0160889Y0068550D01*
X0161889Y0069550D01*
X0164888D01*
X0170886Y0071549D02*
X0167887D01*
X0166887Y0070550D01*
Y0068550D01*
X0167887Y0067551D01*
X0170886D01*
X0172885D02*
Y0073549D01*
Y0069550D02*
X0175884Y0071549D01*
X0172885Y0069550D02*
X0175884Y0067551D01*
X0178883Y0071549D02*
Y0068550D01*
X0179883Y0067551D01*
X0182882D01*
Y0071549D01*
X0184881Y0065551D02*
Y0071549D01*
X0187880D01*
X0188880Y0070550D01*
Y0068550D01*
X0187880Y0067551D01*
X0184881D01*
X0348550Y0073498D02*
X0352549D01*
X0350549D01*
Y0067500D01*
X0354548Y0073498D02*
X0356547D01*
X0355548D01*
Y0067500D01*
X0354548D01*
X0356547D01*
X0359546Y0073498D02*
Y0067500D01*
X0362545D01*
X0363545Y0068500D01*
Y0072498D01*
X0362545Y0073498D01*
X0359546D01*
X0365545Y0067500D02*
Y0071499D01*
X0367544Y0073498D01*
X0369543Y0071499D01*
Y0067500D01*
Y0070499D01*
X0365545D01*
X0371543D02*
X0375541D01*
X0377541Y0072498D02*
X0378540Y0073498D01*
X0380540D01*
X0381539Y0072498D01*
Y0068500D01*
X0380540Y0067500D01*
X0378540D01*
X0377541Y0068500D01*
Y0072498D01*
X0383539Y0067500D02*
X0385538D01*
X0384538D01*
Y0073498D01*
X0383539Y0072498D01*
X0392536Y0073498D02*
X0390536Y0072498D01*
X0388537Y0070499D01*
Y0068500D01*
X0389537Y0067500D01*
X0391536D01*
X0392536Y0068500D01*
Y0069499D01*
X0391536Y0070499D01*
X0388537D01*
X0394535Y0072498D02*
X0395535Y0073498D01*
X0397534D01*
X0398534Y0072498D01*
Y0068500D01*
X0397534Y0067500D01*
X0395535D01*
X0394535Y0068500D01*
Y0072498D01*
X0404532Y0073498D02*
X0402532Y0072498D01*
X0400533Y0070499D01*
Y0068500D01*
X0401533Y0067500D01*
X0403532D01*
X0404532Y0068500D01*
Y0069499D01*
X0403532Y0070499D01*
X0400533D01*
X0294000Y0073498D02*
X0297999D01*
X0295999D01*
Y0067500D01*
X0299998Y0073498D02*
X0301997D01*
X0300998D01*
Y0067500D01*
X0299998D01*
X0301997D01*
X0304996Y0073498D02*
Y0067500D01*
X0307996D01*
X0308995Y0068500D01*
Y0072498D01*
X0307996Y0073498D01*
X0304996D01*
X0317992Y0067500D02*
Y0073498D01*
X0319992D02*
Y0067500D01*
X0316993Y0071499D02*
X0319992D01*
X0320991D01*
X0316993Y0069499D02*
X0320991D01*
X0322991Y0071499D02*
X0323990D01*
Y0070499D01*
X0322991D01*
Y0071499D01*
Y0068500D02*
X0323990D01*
Y0067500D01*
X0322991D01*
Y0068500D01*
X0580500Y0052965D02*
X0584499D01*
X0582499D01*
Y0046966D01*
X0590497Y0052965D02*
X0586498D01*
Y0046966D01*
X0590497D01*
X0586498Y0049966D02*
X0588497D01*
X0592496Y0052965D02*
X0596495Y0046966D01*
Y0052965D02*
X0592496Y0046966D01*
X0598494D02*
Y0050965D01*
X0600493Y0052965D01*
X0602493Y0050965D01*
Y0046966D01*
Y0049966D01*
X0598494D01*
X0608491Y0051965D02*
X0607491Y0052965D01*
X0605492D01*
X0604492Y0051965D01*
Y0050965D01*
X0605492Y0049966D01*
X0607491D01*
X0608491Y0048966D01*
Y0047966D01*
X0607491Y0046966D01*
X0605492D01*
X0604492Y0047966D01*
X0616488Y0052965D02*
X0618488D01*
X0617488D01*
Y0046966D01*
X0616488D01*
X0618488D01*
X0621487D02*
Y0052965D01*
X0625486Y0046966D01*
Y0052965D01*
X0631484Y0051965D02*
X0630484Y0052965D01*
X0628484D01*
X0627485Y0051965D01*
Y0050965D01*
X0628484Y0049966D01*
X0630484D01*
X0631484Y0048966D01*
Y0047966D01*
X0630484Y0046966D01*
X0628484D01*
X0627485Y0047966D01*
X0633483Y0052965D02*
X0637482D01*
X0635482D01*
Y0046966D01*
X0639481D02*
Y0052965D01*
X0642480D01*
X0643480Y0051965D01*
Y0049966D01*
X0642480Y0048966D01*
X0639481D01*
X0641480D02*
X0643480Y0046966D01*
X0645479Y0052965D02*
Y0047966D01*
X0646479Y0046966D01*
X0648478D01*
X0649478Y0047966D01*
Y0052965D01*
X0651477Y0046966D02*
Y0052965D01*
X0653476Y0050965D01*
X0655476Y0052965D01*
Y0046966D01*
X0661474Y0052965D02*
X0657475D01*
Y0046966D01*
X0661474D01*
X0657475Y0049966D02*
X0659474D01*
X0663473Y0046966D02*
Y0052965D01*
X0667472Y0046966D01*
Y0052965D01*
X0669471D02*
X0673470D01*
X0671471D01*
Y0046966D01*
X0679468Y0051965D02*
X0678468Y0052965D01*
X0676469D01*
X0675469Y0051965D01*
Y0050965D01*
X0676469Y0049966D01*
X0678468D01*
X0679468Y0048966D01*
Y0047966D01*
X0678468Y0046966D01*
X0676469D01*
X0675469Y0047966D01*
X0454050Y0051965D02*
X0455050Y0052965D01*
X0457049D01*
X0458049Y0051965D01*
Y0050965D01*
X0457049Y0049966D01*
X0458049Y0048966D01*
Y0047966D01*
X0457049Y0046966D01*
X0455050D01*
X0454050Y0047966D01*
Y0048966D01*
X0455050Y0049966D01*
X0454050Y0050965D01*
Y0051965D01*
X0455050Y0049966D02*
X0457049D01*
X0460048Y0050965D02*
X0461048D01*
Y0049966D01*
X0460048D01*
Y0050965D01*
Y0047966D02*
X0461048D01*
Y0046966D01*
X0460048D01*
Y0047966D01*
X0469045Y0052965D02*
X0465046D01*
Y0049966D01*
X0467046Y0050965D01*
X0468046D01*
X0469045Y0049966D01*
Y0047966D01*
X0468046Y0046966D01*
X0466046D01*
X0465046Y0047966D01*
X0471044Y0051965D02*
X0472044Y0052965D01*
X0474044D01*
X0475043Y0051965D01*
Y0050965D01*
X0474044Y0049966D01*
X0475043Y0048966D01*
Y0047966D01*
X0474044Y0046966D01*
X0472044D01*
X0471044Y0047966D01*
Y0048966D01*
X0472044Y0049966D01*
X0471044Y0050965D01*
Y0051965D01*
X0472044Y0049966D02*
X0474044D01*
X0477043Y0050965D02*
X0478042D01*
Y0049966D01*
X0477043D01*
Y0050965D01*
Y0047966D02*
X0478042D01*
Y0046966D01*
X0477043D01*
Y0047966D01*
X0486040Y0052965D02*
X0482041D01*
Y0049966D01*
X0484040Y0050965D01*
X0485040D01*
X0486040Y0049966D01*
Y0047966D01*
X0485040Y0046966D01*
X0483041D01*
X0482041Y0047966D01*
X0488039Y0046966D02*
X0490038D01*
X0489039D01*
Y0052965D01*
X0488039Y0051965D01*
X0499035Y0046966D02*
Y0050965D01*
X0501035Y0052965D01*
X0503034Y0050965D01*
Y0046966D01*
Y0049966D01*
X0499035D01*
X0505033Y0046966D02*
Y0052965D01*
X0507033Y0050965D01*
X0509032Y0052965D01*
Y0046966D01*
X0046350D02*
Y0052965D01*
X0049349D01*
X0050349Y0051965D01*
Y0049966D01*
X0049349Y0048966D01*
X0046350D01*
X0052348Y0052965D02*
Y0046966D01*
X0056347D01*
X0061345Y0052965D02*
X0059346D01*
X0058346Y0051965D01*
Y0047966D01*
X0059346Y0046966D01*
X0061345D01*
X0062345Y0047966D01*
Y0051965D01*
X0061345Y0052965D01*
X0064344D02*
X0068343D01*
X0066343D01*
Y0046966D01*
X0076340D02*
Y0052965D01*
X0080339Y0046966D01*
Y0052965D01*
X0082338Y0046966D02*
Y0050965D01*
X0084338Y0052965D01*
X0086337Y0050965D01*
Y0046966D01*
Y0049966D01*
X0082338D01*
X0088336Y0046966D02*
Y0052965D01*
X0090336Y0050965D01*
X0092335Y0052965D01*
Y0046966D01*
X0098333Y0052965D02*
X0094335D01*
Y0046966D01*
X0098333D01*
X0094335Y0049966D02*
X0096334D01*
X0106331Y0048966D02*
X0110329D01*
X0106331Y0050965D02*
X0110329D01*
X0046350Y0073549D02*
Y0067551D01*
X0050349D01*
X0052348D02*
Y0071549D01*
X0054347Y0073549D01*
X0056347Y0071549D01*
Y0067551D01*
Y0070550D01*
X0052348D01*
X0058346Y0073549D02*
Y0072549D01*
X0060346Y0070550D01*
X0062345Y0072549D01*
Y0073549D01*
X0060346Y0070550D02*
Y0067551D01*
X0068343Y0073549D02*
X0064344D01*
Y0067551D01*
X0068343D01*
X0064344Y0070550D02*
X0066343D01*
X0070342Y0067551D02*
Y0073549D01*
X0073341D01*
X0074341Y0072549D01*
Y0070550D01*
X0073341Y0069550D01*
X0070342D01*
X0072342D02*
X0074341Y0067551D01*
X0082338D02*
Y0073549D01*
X0086337Y0067551D01*
Y0073549D01*
X0088336Y0067551D02*
Y0071549D01*
X0090336Y0073549D01*
X0092335Y0071549D01*
Y0067551D01*
Y0070550D01*
X0088336D01*
X0094335Y0067551D02*
Y0073549D01*
X0096334Y0071549D01*
X0098333Y0073549D01*
Y0067551D01*
X0104331Y0073549D02*
X0100332D01*
Y0067551D01*
X0104331D01*
X0100332Y0070550D02*
X0102332D01*
X0112329Y0069550D02*
X0116327D01*
X0112329Y0071549D02*
X0116327D01*
X0294000Y0093831D02*
Y0087833D01*
X0296999D01*
X0297999Y0088833D01*
Y0089833D01*
X0296999Y0090832D01*
X0294000D01*
X0296999D01*
X0297999Y0091832D01*
Y0092832D01*
X0296999Y0093831D01*
X0294000D01*
X0302997D02*
X0300998D01*
X0299998Y0092832D01*
Y0088833D01*
X0300998Y0087833D01*
X0302997D01*
X0303997Y0088833D01*
Y0092832D01*
X0302997Y0093831D01*
X0305996Y0087833D02*
Y0091832D01*
X0307996Y0093831D01*
X0309995Y0091832D01*
Y0087833D01*
Y0090832D01*
X0305996D01*
X0311994Y0087833D02*
Y0093831D01*
X0314993D01*
X0315993Y0092832D01*
Y0090832D01*
X0314993Y0089833D01*
X0311994D01*
X0313994D02*
X0315993Y0087833D01*
X0317992Y0093831D02*
Y0087833D01*
X0320991D01*
X0321991Y0088833D01*
Y0092832D01*
X0320991Y0093831D01*
X0317992D01*
X0330988Y0087833D02*
Y0093831D01*
X0332987D02*
Y0087833D01*
X0329988Y0091832D02*
X0332987D01*
X0333987D01*
X0329988Y0089833D02*
X0333987D01*
X0335986Y0091832D02*
X0336986D01*
Y0090832D01*
X0335986D01*
Y0091832D01*
Y0088833D02*
X0336986D01*
Y0087833D01*
X0335986D01*
Y0088833D01*
X0348550Y0093831D02*
X0352549D01*
X0350549D01*
Y0087833D01*
X0354548Y0093831D02*
X0356547D01*
X0355548D01*
Y0087833D01*
X0354548D01*
X0356547D01*
X0359546Y0093831D02*
Y0087833D01*
X0362545D01*
X0363545Y0088833D01*
Y0092832D01*
X0362545Y0093831D01*
X0359546D01*
X0365545Y0087833D02*
Y0091832D01*
X0367544Y0093831D01*
X0369543Y0091832D01*
Y0087833D01*
Y0090832D01*
X0365545D01*
X0371543D02*
X0375541D01*
X0377541Y0092832D02*
X0378540Y0093831D01*
X0380540D01*
X0381539Y0092832D01*
Y0088833D01*
X0380540Y0087833D01*
X0378540D01*
X0377541Y0088833D01*
Y0092832D01*
X0383539Y0087833D02*
X0385538D01*
X0384538D01*
Y0093831D01*
X0383539Y0092832D01*
X0392536Y0093831D02*
X0390536Y0092832D01*
X0388537Y0090832D01*
Y0088833D01*
X0389537Y0087833D01*
X0391536D01*
X0392536Y0088833D01*
Y0089833D01*
X0391536Y0090832D01*
X0388537D01*
X0394535Y0092832D02*
X0395535Y0093831D01*
X0397534D01*
X0398534Y0092832D01*
Y0088833D01*
X0397534Y0087833D01*
X0395535D01*
X0394535Y0088833D01*
Y0092832D01*
X0404532Y0093831D02*
X0402532Y0092832D01*
X0400533Y0090832D01*
Y0088833D01*
X0401533Y0087833D01*
X0403532D01*
X0404532Y0088833D01*
Y0089833D01*
X0403532Y0090832D01*
X0400533D01*
X0406531Y0086834D02*
X0410530D01*
X0412529Y0093831D02*
Y0087833D01*
Y0090832D01*
X0416528D01*
Y0093831D01*
Y0087833D01*
X0418527Y0093831D02*
Y0089833D01*
X0420527Y0087833D01*
X0422526Y0089833D01*
Y0093831D01*
X0424525Y0086834D02*
X0428524D01*
X0434522Y0092832D02*
X0433523Y0093831D01*
X0431523D01*
X0430523Y0092832D01*
Y0088833D01*
X0431523Y0087833D01*
X0433523D01*
X0434522Y0088833D01*
X0437521Y0091832D02*
X0439521D01*
X0440520Y0090832D01*
Y0087833D01*
X0437521D01*
X0436521Y0088833D01*
X0437521Y0089833D01*
X0440520D01*
X0442520Y0091832D02*
Y0087833D01*
Y0089833D01*
X0443519Y0090832D01*
X0444519Y0091832D01*
X0445519D01*
X0452516Y0093831D02*
Y0087833D01*
X0449517D01*
X0448518Y0088833D01*
Y0090832D01*
X0449517Y0091832D01*
X0452516D01*
X0466149Y0093831D02*
X0462150D01*
Y0087833D01*
X0466149D01*
X0462150Y0090832D02*
X0464149D01*
X0471147Y0087833D02*
Y0093831D01*
X0468148Y0090832D01*
X0472147D01*
X0046350Y0087833D02*
Y0091832D01*
X0048349Y0093831D01*
X0050349Y0091832D01*
Y0087833D01*
Y0090832D01*
X0046350D01*
X0052348Y0093831D02*
Y0087833D01*
X0056347D01*
X0058346Y0093831D02*
Y0087833D01*
X0062345D01*
X0070342D02*
Y0091832D01*
X0072342Y0093831D01*
X0074341Y0091832D01*
Y0087833D01*
Y0090832D01*
X0070342D01*
X0076340Y0087833D02*
Y0093831D01*
X0079339D01*
X0080339Y0092832D01*
Y0090832D01*
X0079339Y0089833D01*
X0076340D01*
X0078340D02*
X0080339Y0087833D01*
X0082338Y0093831D02*
X0086337D01*
X0084338D01*
Y0087833D01*
X0088336Y0093831D02*
Y0087833D01*
X0090336Y0089833D01*
X0092335Y0087833D01*
Y0093831D01*
X0097334D02*
X0095334D01*
X0094335Y0092832D01*
Y0088833D01*
X0095334Y0087833D01*
X0097334D01*
X0098333Y0088833D01*
Y0092832D01*
X0097334Y0093831D01*
X0100332Y0087833D02*
Y0093831D01*
X0103332D01*
X0104331Y0092832D01*
Y0090832D01*
X0103332Y0089833D01*
X0100332D01*
X0102332D02*
X0104331Y0087833D01*
X0106331Y0093831D02*
Y0087833D01*
Y0089833D01*
X0110329Y0093831D01*
X0107330Y0090832D01*
X0110329Y0087833D01*
X0118327Y0093831D02*
Y0089833D01*
X0120326Y0087833D01*
X0122325Y0089833D01*
Y0093831D01*
X0124325D02*
X0126324D01*
X0125324D01*
Y0087833D01*
X0124325D01*
X0126324D01*
X0133322Y0093831D02*
X0129323D01*
Y0087833D01*
X0133322D01*
X0129323Y0090832D02*
X0131323D01*
X0135321Y0093831D02*
Y0087833D01*
X0137321Y0089833D01*
X0139320Y0087833D01*
Y0093831D01*
X0145318D02*
X0141319D01*
Y0087833D01*
X0145318D01*
X0141319Y0090832D02*
X0143319D01*
X0147317Y0093831D02*
Y0087833D01*
X0150316D01*
X0151316Y0088833D01*
Y0092832D01*
X0150316Y0093831D01*
X0147317D01*
X0163312D02*
X0159313D01*
Y0090832D01*
X0161313D01*
X0159313D01*
Y0087833D01*
X0165312D02*
Y0093831D01*
X0168310D01*
X0169310Y0092832D01*
Y0090832D01*
X0168310Y0089833D01*
X0165312D01*
X0167311D02*
X0169310Y0087833D01*
X0174309Y0093831D02*
X0172309D01*
X0171310Y0092832D01*
Y0088833D01*
X0172309Y0087833D01*
X0174309D01*
X0175308Y0088833D01*
Y0092832D01*
X0174309Y0093831D01*
X0177308Y0087833D02*
Y0093831D01*
X0179307Y0091832D01*
X0181306Y0093831D01*
Y0087833D01*
X0189304Y0093831D02*
X0193303D01*
X0191303D01*
Y0087833D01*
X0198301Y0093831D02*
X0196301D01*
X0195302Y0092832D01*
Y0088833D01*
X0196301Y0087833D01*
X0198301D01*
X0199301Y0088833D01*
Y0092832D01*
X0198301Y0093831D01*
X0201300Y0087833D02*
Y0093831D01*
X0204299D01*
X0205299Y0092832D01*
Y0090832D01*
X0204299Y0089833D01*
X0201300D01*
X0217295Y0092832D02*
X0216295Y0093831D01*
X0214296D01*
X0213296Y0092832D01*
Y0091832D01*
X0214296Y0090832D01*
X0216295D01*
X0217295Y0089833D01*
Y0088833D01*
X0216295Y0087833D01*
X0214296D01*
X0213296Y0088833D01*
X0219294Y0093831D02*
X0221293D01*
X0220294D01*
Y0087833D01*
X0219294D01*
X0221293D01*
X0224292Y0093831D02*
Y0087833D01*
X0227291D01*
X0228291Y0088833D01*
Y0092832D01*
X0227291Y0093831D01*
X0224292D01*
X0234289D02*
X0230291D01*
Y0087833D01*
X0234289D01*
X0230291Y0090832D02*
X0232290D01*
X0298199Y0051965D02*
X0297199Y0052965D01*
X0295200D01*
X0294200Y0051965D01*
Y0047966D01*
X0295200Y0046966D01*
X0297199D01*
X0298199Y0047966D01*
Y0049966D01*
X0296199D01*
X0304197Y0052965D02*
X0300198D01*
Y0046966D01*
X0304197D01*
X0300198Y0049966D02*
X0302197D01*
X0306196Y0046966D02*
Y0052965D01*
X0310195Y0046966D01*
Y0052965D01*
X0316193D02*
X0312194D01*
Y0046966D01*
X0316193D01*
X0312194Y0049966D02*
X0314194D01*
X0318192Y0046966D02*
Y0052965D01*
X0321191D01*
X0322191Y0051965D01*
Y0049966D01*
X0321191Y0048966D01*
X0318192D01*
X0320192D02*
X0322191Y0046966D01*
X0324190D02*
Y0050965D01*
X0326190Y0052965D01*
X0328189Y0050965D01*
Y0046966D01*
Y0049966D01*
X0324190D01*
X0330188Y0052965D02*
X0334187D01*
X0332188D01*
Y0046966D01*
X0340185Y0052965D02*
X0336186D01*
Y0046966D01*
X0340185D01*
X0336186Y0049966D02*
X0338186D01*
X0342184Y0052965D02*
Y0046966D01*
X0345183D01*
X0346183Y0047966D01*
Y0051965D01*
X0345183Y0052965D01*
X0342184D01*
X0372175Y0050965D02*
X0373175D01*
Y0049966D01*
X0372175D01*
Y0050965D01*
Y0047966D02*
X0373175D01*
Y0046966D01*
X0372175D01*
Y0047966D01*
X0385149Y0046966D02*
X0381150D01*
X0385149Y0050965D01*
Y0051965D01*
X0384149Y0052965D01*
X0382150D01*
X0381150Y0051965D01*
X0387148Y0046966D02*
X0391147Y0050965D01*
X0393146Y0046966D02*
X0395146D01*
X0394146D01*
Y0052965D01*
X0393146Y0051965D01*
X0402143Y0052965D02*
X0398145D01*
Y0049966D01*
X0400144Y0050965D01*
X0401144D01*
X0402143Y0049966D01*
Y0047966D01*
X0401144Y0046966D01*
X0399144D01*
X0398145Y0047966D01*
X0404143Y0046966D02*
X0408141Y0050965D01*
X0414139Y0046966D02*
X0410141D01*
X0414139Y0050965D01*
Y0051965D01*
X0413140Y0052965D01*
X0411140D01*
X0410141Y0051965D01*
X0416139D02*
X0417138Y0052965D01*
X0419138D01*
X0420137Y0051965D01*
Y0047966D01*
X0419138Y0046966D01*
X0417138D01*
X0416139Y0047966D01*
Y0051965D01*
X0422137Y0046966D02*
X0424136D01*
X0423136D01*
Y0052965D01*
X0422137Y0051965D01*
X0427135Y0047966D02*
X0428135Y0046966D01*
X0430134D01*
X0431134Y0047966D01*
Y0051965D01*
X0430134Y0052965D01*
X0428135D01*
X0427135Y0051965D01*
Y0050965D01*
X0428135Y0049966D01*
X0431134D01*
X0126900Y0052965D02*
X0130899D01*
X0128899D01*
Y0046966D01*
X0132898Y0052965D02*
X0134897D01*
X0133898D01*
Y0046966D01*
X0132898D01*
X0134897D01*
X0137896Y0052965D02*
Y0046966D01*
X0140895D01*
X0141895Y0047966D01*
Y0051965D01*
X0140895Y0052965D01*
X0137896D01*
X0143895Y0046966D02*
Y0050965D01*
X0145894Y0052965D01*
X0147893Y0050965D01*
Y0046966D01*
Y0049966D01*
X0143895D01*
X0149893D02*
X0153891D01*
X0155891Y0051965D02*
X0156890Y0052965D01*
X0158890D01*
X0159889Y0051965D01*
Y0047966D01*
X0158890Y0046966D01*
X0156890D01*
X0155891Y0047966D01*
Y0051965D01*
X0161889Y0046966D02*
X0163888D01*
X0162888D01*
Y0052965D01*
X0161889Y0051965D01*
X0170886Y0052965D02*
X0168886Y0051965D01*
X0166887Y0049966D01*
Y0047966D01*
X0167887Y0046966D01*
X0169886D01*
X0170886Y0047966D01*
Y0048966D01*
X0169886Y0049966D01*
X0166887D01*
X0172885Y0051965D02*
X0173885Y0052965D01*
X0175884D01*
X0176884Y0051965D01*
Y0047966D01*
X0175884Y0046966D01*
X0173885D01*
X0172885Y0047966D01*
Y0051965D01*
X0182882Y0052965D02*
X0180883Y0051965D01*
X0178883Y0049966D01*
Y0047966D01*
X0179883Y0046966D01*
X0181882D01*
X0182882Y0047966D01*
Y0048966D01*
X0181882Y0049966D01*
X0178883D01*
X0184881Y0045967D02*
X0188880D01*
X0190879Y0052965D02*
Y0046966D01*
Y0049966D01*
X0194878D01*
Y0052965D01*
Y0046966D01*
X0196877Y0052965D02*
Y0048966D01*
X0198877Y0046966D01*
X0200876Y0048966D01*
Y0052965D01*
X0202875Y0045967D02*
X0206874D01*
X0212872Y0051965D02*
X0211873Y0052965D01*
X0209873D01*
X0208874Y0051965D01*
Y0047966D01*
X0209873Y0046966D01*
X0211873D01*
X0212872Y0047966D01*
X0215871Y0050965D02*
X0217871D01*
X0218870Y0049966D01*
Y0046966D01*
X0215871D01*
X0214872Y0047966D01*
X0215871Y0048966D01*
X0218870D01*
X0220870Y0050965D02*
Y0046966D01*
Y0048966D01*
X0221869Y0049966D01*
X0222869Y0050965D01*
X0223869D01*
X0230866Y0052965D02*
Y0046966D01*
X0227867D01*
X0226868Y0047966D01*
Y0049966D01*
X0227867Y0050965D01*
X0230866D01*
X0236864Y0052965D02*
X0232866D01*
Y0046966D01*
X0236864D01*
X0232866Y0049966D02*
X0234865D01*
X0241863Y0046966D02*
Y0052965D01*
X0238864Y0049966D01*
X0242863D01*
X0244862Y0046966D02*
Y0047966D01*
X0245862D01*
Y0046966D01*
X0244862D01*
X0253859Y0051965D02*
X0252859Y0052965D01*
X0250860D01*
X0249860Y0051965D01*
Y0047966D01*
X0250860Y0046966D01*
X0252859D01*
X0253859Y0047966D01*
Y0049966D01*
X0251860D01*
X0255858Y0046966D02*
Y0052965D01*
X0257858Y0050965D01*
X0259857Y0052965D01*
Y0046966D01*
X0261856D02*
X0263856D01*
X0262856D01*
Y0052965D01*
X0261856Y0051965D01*
X0270853Y0046966D02*
X0266855D01*
X0270853Y0050965D01*
Y0051965D01*
X0269854Y0052965D01*
X0267854D01*
X0266855Y0051965D01*
X0433000Y0087833D02*
Y0093831D01*
X0435999D01*
X0436999Y0092832D01*
Y0090832D01*
X0435999Y0089833D01*
X0433000D01*
X0434999D02*
X0436999Y0087833D01*
X0442997Y0093831D02*
X0438998D01*
Y0087833D01*
X0442997D01*
X0438998Y0090832D02*
X0440997D01*
X0444996Y0093831D02*
Y0089833D01*
X0446995Y0087833D01*
X0448995Y0089833D01*
Y0093831D01*
X0450994Y0091832D02*
X0451994D01*
Y0090832D01*
X0450994D01*
Y0091832D01*
Y0088833D02*
X0451994D01*
Y0087833D01*
X0450994D01*
Y0088833D01*
X0520799Y0092832D02*
X0519799Y0093831D01*
X0517800D01*
X0516800Y0092832D01*
Y0091832D01*
X0517800Y0090832D01*
X0519799D01*
X0520799Y0089833D01*
Y0088833D01*
X0519799Y0087833D01*
X0517800D01*
X0516800Y0088833D01*
X0522798Y0093831D02*
Y0089833D01*
X0524797Y0087833D01*
X0526797Y0089833D01*
Y0093831D01*
X0528796Y0087833D02*
Y0093831D01*
X0532795Y0087833D01*
Y0093831D01*
X0540792Y0087833D02*
Y0093831D01*
X0543791D01*
X0544791Y0092832D01*
Y0090832D01*
X0543791Y0089833D01*
X0540792D01*
X0542792D02*
X0544791Y0087833D01*
X0550789Y0093831D02*
X0546790D01*
Y0087833D01*
X0550789D01*
X0546790Y0090832D02*
X0548790D01*
X0552788Y0093831D02*
Y0089833D01*
X0554788Y0087833D01*
X0556787Y0089833D01*
Y0093831D01*
X0558786Y0091832D02*
X0559786D01*
Y0090832D01*
X0558786D01*
Y0091832D01*
Y0088833D02*
X0559786D01*
Y0087833D01*
X0558786D01*
Y0088833D01*
X0567400Y0087833D02*
Y0093831D01*
X0571399Y0087833D01*
Y0093831D01*
X0574398Y0087833D02*
X0576397D01*
X0577397Y0088833D01*
Y0090832D01*
X0576397Y0091832D01*
X0574398D01*
X0573398Y0090832D01*
Y0088833D01*
X0574398Y0087833D01*
X0580396Y0092832D02*
Y0091832D01*
X0579396D01*
X0581395D01*
X0580396D01*
Y0088833D01*
X0581395Y0087833D01*
X0590393Y0093831D02*
X0592392D01*
X0591392D01*
Y0087833D01*
X0590393D01*
X0592392D01*
X0595391D02*
Y0091832D01*
X0598390D01*
X0599390Y0090832D01*
Y0087833D01*
X0607387Y0093831D02*
Y0089833D01*
X0609386Y0087833D01*
X0611386Y0089833D01*
Y0093831D01*
X0616384Y0087833D02*
X0614385D01*
X0613385Y0088833D01*
Y0090832D01*
X0614385Y0091832D01*
X0616384D01*
X0617384Y0090832D01*
Y0089833D01*
X0613385D01*
X0619383Y0091832D02*
Y0087833D01*
Y0089833D01*
X0620383Y0090832D01*
X0621383Y0091832D01*
X0622382D01*
X0625381Y0087833D02*
X0628380D01*
X0629380Y0088833D01*
X0628380Y0089833D01*
X0626381D01*
X0625381Y0090832D01*
X0626381Y0091832D01*
X0629380D01*
X0631379Y0087833D02*
X0633379D01*
X0632379D01*
Y0091832D01*
X0631379D01*
X0637377Y0087833D02*
X0639377D01*
X0640376Y0088833D01*
Y0090832D01*
X0639377Y0091832D01*
X0637377D01*
X0636378Y0090832D01*
Y0088833D01*
X0637377Y0087833D01*
X0642376D02*
Y0091832D01*
X0645375D01*
X0646374Y0090832D01*
Y0087833D01*
X0652373Y0092832D02*
X0651373Y0093831D01*
X0649373D01*
X0648374Y0092832D01*
Y0088833D01*
X0649373Y0087833D01*
X0651373D01*
X0652373Y0088833D01*
X0655372Y0087833D02*
X0657371D01*
X0658371Y0088833D01*
Y0090832D01*
X0657371Y0091832D01*
X0655372D01*
X0654372Y0090832D01*
Y0088833D01*
X0655372Y0087833D01*
X0660370D02*
Y0091832D01*
X0663369D01*
X0664369Y0090832D01*
Y0087833D01*
X0667368Y0092832D02*
Y0091832D01*
X0666368D01*
X0668367D01*
X0667368D01*
Y0088833D01*
X0668367Y0087833D01*
X0671366Y0091832D02*
Y0087833D01*
Y0089833D01*
X0672366Y0090832D01*
X0673366Y0091832D01*
X0674365D01*
X0678364Y0087833D02*
X0680364D01*
X0681363Y0088833D01*
Y0090832D01*
X0680364Y0091832D01*
X0678364D01*
X0677364Y0090832D01*
Y0088833D01*
X0678364Y0087833D01*
X0683362D02*
X0685362D01*
X0684362D01*
Y0093831D01*
X0683362D01*
G54D21*
X0673235Y0821648D02*
Y0815650D01*
X0677233D01*
X0680232Y0819649D02*
X0682232D01*
X0683231Y0818649D01*
Y0815650D01*
X0680232D01*
X0679233Y0816650D01*
X0680232Y0817649D01*
X0683231D01*
X0685231Y0819649D02*
Y0816650D01*
X0686230Y0815650D01*
X0689229D01*
Y0814650D01*
X0688230Y0813651D01*
X0687230D01*
X0689229Y0815650D02*
Y0819649D01*
X0694228Y0815650D02*
X0692229D01*
X0691229Y0816650D01*
Y0818649D01*
X0692229Y0819649D01*
X0694228D01*
X0695227Y0818649D01*
Y0817649D01*
X0691229D01*
X0697227Y0819649D02*
Y0815650D01*
Y0817649D01*
X0698226Y0818649D01*
X0699226Y0819649D01*
X0700226D01*
X0673235Y0683650D02*
X0675234D01*
X0674234D01*
Y0689648D01*
X0673235Y0688648D01*
X0678233Y0683650D02*
X0680232D01*
X0679233D01*
Y0689648D01*
X0678233Y0688648D01*
X0673235Y0695650D02*
X0675234D01*
X0674234D01*
Y0701648D01*
X0673235Y0700648D01*
X0678233D02*
X0679233Y0701648D01*
X0681232D01*
X0682232Y0700648D01*
Y0696650D01*
X0681232Y0695650D01*
X0679233D01*
X0678233Y0696650D01*
Y0700648D01*
X0673235Y0708650D02*
X0674234Y0707650D01*
X0676234D01*
X0677233Y0708650D01*
Y0712648D01*
X0676234Y0713648D01*
X0674234D01*
X0673235Y0712648D01*
Y0711649D01*
X0674234Y0710649D01*
X0677233D01*
X0673235Y0724648D02*
X0674234Y0725648D01*
X0676234D01*
X0677233Y0724648D01*
Y0723649D01*
X0676234Y0722649D01*
X0677233Y0721649D01*
Y0720650D01*
X0676234Y0719650D01*
X0674234D01*
X0673235Y0720650D01*
Y0721649D01*
X0674234Y0722649D01*
X0673235Y0723649D01*
Y0724648D01*
X0674234Y0722649D02*
X0676234D01*
X0673235Y0737648D02*
X0677233D01*
Y0736648D01*
X0673235Y0732650D01*
Y0731650D01*
X0677233Y0749648D02*
X0675234Y0748648D01*
X0673235Y0746649D01*
Y0744650D01*
X0674234Y0743650D01*
X0676234D01*
X0677233Y0744650D01*
Y0745649D01*
X0676234Y0746649D01*
X0673235D01*
X0677233Y0761648D02*
X0673235D01*
Y0758649D01*
X0675234Y0759649D01*
X0676234D01*
X0677233Y0758649D01*
Y0756650D01*
X0676234Y0755650D01*
X0674234D01*
X0673235Y0756650D01*
X0676234Y0767650D02*
Y0773648D01*
X0673235Y0770649D01*
X0677233D01*
X0673235Y0784648D02*
X0674234Y0785648D01*
X0676234D01*
X0677233Y0784648D01*
Y0783649D01*
X0676234Y0782649D01*
X0675234D01*
X0676234D01*
X0677233Y0781649D01*
Y0780650D01*
X0676234Y0779650D01*
X0674234D01*
X0673235Y0780650D01*
X0677233Y0791650D02*
X0673235D01*
X0677233Y0795649D01*
Y0796648D01*
X0676234Y0797648D01*
X0674234D01*
X0673235Y0796648D01*
Y0803650D02*
X0675234D01*
X0674234D01*
Y0809648D01*
X0673235Y0808648D01*
X0714226Y0815650D02*
Y0821648D01*
X0718225Y0815650D01*
Y0821648D01*
X0721224Y0819649D02*
X0723223D01*
X0724223Y0818649D01*
Y0815650D01*
X0721224D01*
X0720224Y0816650D01*
X0721224Y0817649D01*
X0724223D01*
X0726222Y0815650D02*
Y0819649D01*
X0727222D01*
X0728221Y0818649D01*
Y0815650D01*
Y0818649D01*
X0729221Y0819649D01*
X0730221Y0818649D01*
Y0815650D01*
X0735219D02*
X0733220D01*
X0732220Y0816650D01*
Y0818649D01*
X0733220Y0819649D01*
X0735219D01*
X0736219Y0818649D01*
Y0817649D01*
X0732220D01*
X0714226Y0689648D02*
Y0683650D01*
X0717225D01*
X0718225Y0684650D01*
Y0685649D01*
X0717225Y0686649D01*
X0714226D01*
X0717225D01*
X0718225Y0687649D01*
Y0688648D01*
X0717225Y0689648D01*
X0714226D01*
X0721224Y0683650D02*
X0723223D01*
X0724223Y0684650D01*
Y0686649D01*
X0723223Y0687649D01*
X0721224D01*
X0720224Y0686649D01*
Y0684650D01*
X0721224Y0683650D01*
X0727222Y0688648D02*
Y0687649D01*
X0726222D01*
X0728221D01*
X0727222D01*
Y0684650D01*
X0728221Y0683650D01*
X0732220Y0688648D02*
Y0687649D01*
X0731220D01*
X0733220D01*
X0732220D01*
Y0684650D01*
X0733220Y0683650D01*
X0737218D02*
X0739218D01*
X0740217Y0684650D01*
Y0686649D01*
X0739218Y0687649D01*
X0737218D01*
X0736219Y0686649D01*
Y0684650D01*
X0737218Y0683650D01*
X0742217D02*
Y0687649D01*
X0743217D01*
X0744216Y0686649D01*
Y0683650D01*
Y0686649D01*
X0745216Y0687649D01*
X0746215Y0686649D01*
Y0683650D01*
X0757212Y0689648D02*
X0755213D01*
X0754213Y0688648D01*
Y0684650D01*
X0755213Y0683650D01*
X0757212D01*
X0758212Y0684650D01*
Y0688648D01*
X0757212Y0689648D01*
X0760211Y0687649D02*
X0762210Y0683650D01*
X0764210Y0687649D01*
X0769208Y0683650D02*
X0767209D01*
X0766209Y0684650D01*
Y0686649D01*
X0767209Y0687649D01*
X0769208D01*
X0770208Y0686649D01*
Y0685649D01*
X0766209D01*
X0772207Y0687649D02*
Y0683650D01*
Y0685649D01*
X0773207Y0686649D01*
X0774206Y0687649D01*
X0775206D01*
X0778205Y0683650D02*
X0780204D01*
X0779205D01*
Y0689648D01*
X0778205D01*
X0784203Y0687649D02*
X0786203D01*
X0787202Y0686649D01*
Y0683650D01*
X0784203D01*
X0783204Y0684650D01*
X0784203Y0685649D01*
X0787202D01*
X0789202Y0687649D02*
Y0684650D01*
X0790201Y0683650D01*
X0793200D01*
Y0682650D01*
X0792201Y0681651D01*
X0791201D01*
X0793200Y0683650D02*
Y0687649D01*
X0714226Y0701648D02*
Y0695650D01*
X0717225D01*
X0718225Y0696650D01*
Y0697649D01*
X0717225Y0698649D01*
X0714226D01*
X0717225D01*
X0718225Y0699649D01*
Y0700648D01*
X0717225Y0701648D01*
X0714226D01*
X0721224Y0695650D02*
X0723223D01*
X0724223Y0696650D01*
Y0698649D01*
X0723223Y0699649D01*
X0721224D01*
X0720224Y0698649D01*
Y0696650D01*
X0721224Y0695650D01*
X0727222Y0700648D02*
Y0699649D01*
X0726222D01*
X0728221D01*
X0727222D01*
Y0696650D01*
X0728221Y0695650D01*
X0732220Y0700648D02*
Y0699649D01*
X0731220D01*
X0733220D01*
X0732220D01*
Y0696650D01*
X0733220Y0695650D01*
X0737218D02*
X0739218D01*
X0740217Y0696650D01*
Y0698649D01*
X0739218Y0699649D01*
X0737218D01*
X0736219Y0698649D01*
Y0696650D01*
X0737218Y0695650D01*
X0742217D02*
Y0699649D01*
X0743217D01*
X0744216Y0698649D01*
Y0695650D01*
Y0698649D01*
X0745216Y0699649D01*
X0746215Y0698649D01*
Y0695650D01*
X0758212Y0700648D02*
X0757212Y0701648D01*
X0755213D01*
X0754213Y0700648D01*
Y0699649D01*
X0755213Y0698649D01*
X0757212D01*
X0758212Y0697649D01*
Y0696650D01*
X0757212Y0695650D01*
X0755213D01*
X0754213Y0696650D01*
X0761211Y0695650D02*
X0763210D01*
X0764210Y0696650D01*
Y0698649D01*
X0763210Y0699649D01*
X0761211D01*
X0760211Y0698649D01*
Y0696650D01*
X0761211Y0695650D01*
X0766209D02*
X0768208D01*
X0767209D01*
Y0701648D01*
X0766209D01*
X0775206D02*
Y0695650D01*
X0772207D01*
X0771207Y0696650D01*
Y0698649D01*
X0772207Y0699649D01*
X0775206D01*
X0780204Y0695650D02*
X0778205D01*
X0777206Y0696650D01*
Y0698649D01*
X0778205Y0699649D01*
X0780204D01*
X0781204Y0698649D01*
Y0697649D01*
X0777206D01*
X0783204Y0699649D02*
Y0695650D01*
Y0697649D01*
X0784203Y0698649D01*
X0785203Y0699649D01*
X0786203D01*
X0714226Y0713648D02*
Y0707650D01*
X0717225D01*
X0718225Y0708650D01*
Y0709649D01*
X0717225Y0710649D01*
X0714226D01*
X0717225D01*
X0718225Y0711649D01*
Y0712648D01*
X0717225Y0713648D01*
X0714226D01*
X0721224Y0707650D02*
X0723223D01*
X0724223Y0708650D01*
Y0710649D01*
X0723223Y0711649D01*
X0721224D01*
X0720224Y0710649D01*
Y0708650D01*
X0721224Y0707650D01*
X0727222Y0712648D02*
Y0711649D01*
X0726222D01*
X0728221D01*
X0727222D01*
Y0708650D01*
X0728221Y0707650D01*
X0732220Y0712648D02*
Y0711649D01*
X0731220D01*
X0733220D01*
X0732220D01*
Y0708650D01*
X0733220Y0707650D01*
X0737218D02*
X0739218D01*
X0740217Y0708650D01*
Y0710649D01*
X0739218Y0711649D01*
X0737218D01*
X0736219Y0710649D01*
Y0708650D01*
X0737218Y0707650D01*
X0742217D02*
Y0711649D01*
X0743217D01*
X0744216Y0710649D01*
Y0707650D01*
Y0710649D01*
X0745216Y0711649D01*
X0746215Y0710649D01*
Y0707650D01*
X0754213Y0713648D02*
Y0707650D01*
X0758212D01*
X0761211Y0711649D02*
X0763210D01*
X0764210Y0710649D01*
Y0707650D01*
X0761211D01*
X0760211Y0708650D01*
X0761211Y0709649D01*
X0764210D01*
X0766209Y0711649D02*
Y0708650D01*
X0767209Y0707650D01*
X0770208D01*
Y0706650D01*
X0769208Y0705651D01*
X0768208D01*
X0770208Y0707650D02*
Y0711649D01*
X0775206Y0707650D02*
X0773207D01*
X0772207Y0708650D01*
Y0710649D01*
X0773207Y0711649D01*
X0775206D01*
X0776206Y0710649D01*
Y0709649D01*
X0772207D01*
X0778205Y0711649D02*
Y0707650D01*
Y0709649D01*
X0779205Y0710649D01*
X0780204Y0711649D01*
X0781204D01*
X0714226Y0725648D02*
Y0719650D01*
X0717225D01*
X0718225Y0720650D01*
Y0724648D01*
X0717225Y0725648D01*
X0714226D01*
X0720224Y0719650D02*
X0722223D01*
X0721224D01*
Y0723649D01*
X0720224D01*
X0728221Y0719650D02*
X0726222D01*
X0725222Y0720650D01*
Y0722649D01*
X0726222Y0723649D01*
X0728221D01*
X0729221Y0722649D01*
Y0721649D01*
X0725222D01*
X0731220Y0719650D02*
X0733220D01*
X0732220D01*
Y0725648D01*
X0731220D01*
X0739218Y0719650D02*
X0737218D01*
X0736219Y0720650D01*
Y0722649D01*
X0737218Y0723649D01*
X0739218D01*
X0740217Y0722649D01*
Y0721649D01*
X0736219D01*
X0746215Y0723649D02*
X0743217D01*
X0742217Y0722649D01*
Y0720650D01*
X0743217Y0719650D01*
X0746215D01*
X0749215Y0724648D02*
Y0723649D01*
X0748215D01*
X0750214D01*
X0749215D01*
Y0720650D01*
X0750214Y0719650D01*
X0753213Y0723649D02*
Y0719650D01*
Y0721649D01*
X0754213Y0722649D01*
X0755213Y0723649D01*
X0756212D01*
X0759211Y0719650D02*
X0761211D01*
X0760211D01*
Y0723649D01*
X0759211D01*
X0768208D02*
X0765209D01*
X0764210Y0722649D01*
Y0720650D01*
X0765209Y0719650D01*
X0768208D01*
X0776206Y0724648D02*
X0777206Y0725648D01*
X0779205D01*
X0780204Y0724648D01*
Y0723649D01*
X0779205Y0722649D01*
X0778205D01*
X0779205D01*
X0780204Y0721649D01*
Y0720650D01*
X0779205Y0719650D01*
X0777206D01*
X0776206Y0720650D01*
X0718225Y0736648D02*
X0717225Y0737648D01*
X0715226D01*
X0714226Y0736648D01*
Y0735649D01*
X0715226Y0734649D01*
X0717225D01*
X0718225Y0733649D01*
Y0732650D01*
X0717225Y0731650D01*
X0715226D01*
X0714226Y0732650D01*
X0720224Y0731650D02*
X0722223D01*
X0721224D01*
Y0735649D01*
X0720224D01*
X0727222Y0729651D02*
X0728221D01*
X0729221Y0730650D01*
Y0735649D01*
X0726222D01*
X0725222Y0734649D01*
Y0732650D01*
X0726222Y0731650D01*
X0729221D01*
X0731220D02*
Y0735649D01*
X0734219D01*
X0735219Y0734649D01*
Y0731650D01*
X0738218Y0735649D02*
X0740217D01*
X0741217Y0734649D01*
Y0731650D01*
X0738218D01*
X0737218Y0732650D01*
X0738218Y0733649D01*
X0741217D01*
X0743217Y0731650D02*
X0745216D01*
X0744216D01*
Y0737648D01*
X0743217D01*
X0754213D02*
Y0731650D01*
X0758212D01*
X0761211Y0735649D02*
X0763210D01*
X0764210Y0734649D01*
Y0731650D01*
X0761211D01*
X0760211Y0732650D01*
X0761211Y0733649D01*
X0764210D01*
X0766209Y0735649D02*
Y0732650D01*
X0767209Y0731650D01*
X0770208D01*
Y0730650D01*
X0769208Y0729651D01*
X0768208D01*
X0770208Y0731650D02*
Y0735649D01*
X0775206Y0731650D02*
X0773207D01*
X0772207Y0732650D01*
Y0734649D01*
X0773207Y0735649D01*
X0775206D01*
X0776206Y0734649D01*
Y0733649D01*
X0772207D01*
X0778205Y0735649D02*
Y0731650D01*
Y0733649D01*
X0779205Y0734649D01*
X0780204Y0735649D01*
X0781204D01*
X0794200Y0731650D02*
X0790201D01*
X0794200Y0735649D01*
Y0736648D01*
X0793200Y0737648D01*
X0791201D01*
X0790201Y0736648D01*
X0714226Y0749648D02*
Y0743650D01*
X0717225D01*
X0718225Y0744650D01*
Y0748648D01*
X0717225Y0749648D01*
X0714226D01*
X0720224Y0743650D02*
X0722223D01*
X0721224D01*
Y0747649D01*
X0720224D01*
X0728221Y0743650D02*
X0726222D01*
X0725222Y0744650D01*
Y0746649D01*
X0726222Y0747649D01*
X0728221D01*
X0729221Y0746649D01*
Y0745649D01*
X0725222D01*
X0731220Y0743650D02*
X0733220D01*
X0732220D01*
Y0749648D01*
X0731220D01*
X0739218Y0743650D02*
X0737218D01*
X0736219Y0744650D01*
Y0746649D01*
X0737218Y0747649D01*
X0739218D01*
X0740217Y0746649D01*
Y0745649D01*
X0736219D01*
X0746215Y0747649D02*
X0743217D01*
X0742217Y0746649D01*
Y0744650D01*
X0743217Y0743650D01*
X0746215D01*
X0749215Y0748648D02*
Y0747649D01*
X0748215D01*
X0750214D01*
X0749215D01*
Y0744650D01*
X0750214Y0743650D01*
X0753213Y0747649D02*
Y0743650D01*
Y0745649D01*
X0754213Y0746649D01*
X0755213Y0747649D01*
X0756212D01*
X0759211Y0743650D02*
X0761211D01*
X0760211D01*
Y0747649D01*
X0759211D01*
X0768208D02*
X0765209D01*
X0764210Y0746649D01*
Y0744650D01*
X0765209Y0743650D01*
X0768208D01*
X0780204D02*
X0776206D01*
X0780204Y0747649D01*
Y0748648D01*
X0779205Y0749648D01*
X0777206D01*
X0776206Y0748648D01*
X0718225Y0760648D02*
X0717225Y0761648D01*
X0715226D01*
X0714226Y0760648D01*
Y0759649D01*
X0715226Y0758649D01*
X0717225D01*
X0718225Y0757649D01*
Y0756650D01*
X0717225Y0755650D01*
X0715226D01*
X0714226Y0756650D01*
X0720224Y0755650D02*
X0722223D01*
X0721224D01*
Y0759649D01*
X0720224D01*
X0727222Y0753651D02*
X0728221D01*
X0729221Y0754650D01*
Y0759649D01*
X0726222D01*
X0725222Y0758649D01*
Y0756650D01*
X0726222Y0755650D01*
X0729221D01*
X0731220D02*
Y0759649D01*
X0734219D01*
X0735219Y0758649D01*
Y0755650D01*
X0738218Y0759649D02*
X0740217D01*
X0741217Y0758649D01*
Y0755650D01*
X0738218D01*
X0737218Y0756650D01*
X0738218Y0757649D01*
X0741217D01*
X0743217Y0755650D02*
X0745216D01*
X0744216D01*
Y0761648D01*
X0743217D01*
X0754213D02*
Y0755650D01*
X0758212D01*
X0761211Y0759649D02*
X0763210D01*
X0764210Y0758649D01*
Y0755650D01*
X0761211D01*
X0760211Y0756650D01*
X0761211Y0757649D01*
X0764210D01*
X0766209Y0759649D02*
Y0756650D01*
X0767209Y0755650D01*
X0770208D01*
Y0754650D01*
X0769208Y0753651D01*
X0768208D01*
X0770208Y0755650D02*
Y0759649D01*
X0775206Y0755650D02*
X0773207D01*
X0772207Y0756650D01*
Y0758649D01*
X0773207Y0759649D01*
X0775206D01*
X0776206Y0758649D01*
Y0757649D01*
X0772207D01*
X0778205Y0759649D02*
Y0755650D01*
Y0757649D01*
X0779205Y0758649D01*
X0780204Y0759649D01*
X0781204D01*
X0790201Y0755650D02*
X0792201D01*
X0791201D01*
Y0761648D01*
X0790201Y0760648D01*
X0714226Y0773648D02*
Y0767650D01*
X0717225D01*
X0718225Y0768650D01*
Y0772648D01*
X0717225Y0773648D01*
X0714226D01*
X0720224Y0767650D02*
X0722223D01*
X0721224D01*
Y0771649D01*
X0720224D01*
X0728221Y0767650D02*
X0726222D01*
X0725222Y0768650D01*
Y0770649D01*
X0726222Y0771649D01*
X0728221D01*
X0729221Y0770649D01*
Y0769649D01*
X0725222D01*
X0731220Y0767650D02*
X0733220D01*
X0732220D01*
Y0773648D01*
X0731220D01*
X0739218Y0767650D02*
X0737218D01*
X0736219Y0768650D01*
Y0770649D01*
X0737218Y0771649D01*
X0739218D01*
X0740217Y0770649D01*
Y0769649D01*
X0736219D01*
X0746215Y0771649D02*
X0743217D01*
X0742217Y0770649D01*
Y0768650D01*
X0743217Y0767650D01*
X0746215D01*
X0749215Y0772648D02*
Y0771649D01*
X0748215D01*
X0750214D01*
X0749215D01*
Y0768650D01*
X0750214Y0767650D01*
X0753213Y0771649D02*
Y0767650D01*
Y0769649D01*
X0754213Y0770649D01*
X0755213Y0771649D01*
X0756212D01*
X0759211Y0767650D02*
X0761211D01*
X0760211D01*
Y0771649D01*
X0759211D01*
X0768208D02*
X0765209D01*
X0764210Y0770649D01*
Y0768650D01*
X0765209Y0767650D01*
X0768208D01*
X0776206D02*
X0778205D01*
X0777206D01*
Y0773648D01*
X0776206Y0772648D01*
X0714226Y0785648D02*
X0718225D01*
X0716225D01*
Y0779650D01*
X0721224D02*
X0723223D01*
X0724223Y0780650D01*
Y0782649D01*
X0723223Y0783649D01*
X0721224D01*
X0720224Y0782649D01*
Y0780650D01*
X0721224Y0779650D01*
X0726222Y0777651D02*
Y0783649D01*
X0729221D01*
X0730221Y0782649D01*
Y0780650D01*
X0729221Y0779650D01*
X0726222D01*
X0738218Y0785648D02*
Y0779650D01*
X0742217D01*
X0745216Y0783649D02*
X0747215D01*
X0748215Y0782649D01*
Y0779650D01*
X0745216D01*
X0744216Y0780650D01*
X0745216Y0781649D01*
X0748215D01*
X0750214Y0783649D02*
Y0780650D01*
X0751214Y0779650D01*
X0754213D01*
Y0778650D01*
X0753213Y0777651D01*
X0752214D01*
X0754213Y0779650D02*
Y0783649D01*
X0759211Y0779650D02*
X0757212D01*
X0756212Y0780650D01*
Y0782649D01*
X0757212Y0783649D01*
X0759211D01*
X0760211Y0782649D01*
Y0781649D01*
X0756212D01*
X0762210Y0783649D02*
Y0779650D01*
Y0781649D01*
X0763210Y0782649D01*
X0764210Y0783649D01*
X0765209D01*
X0714226Y0797648D02*
X0718225D01*
X0716225D01*
Y0791650D01*
X0721224D02*
X0723223D01*
X0724223Y0792650D01*
Y0794649D01*
X0723223Y0795649D01*
X0721224D01*
X0720224Y0794649D01*
Y0792650D01*
X0721224Y0791650D01*
X0726222Y0789651D02*
Y0795649D01*
X0729221D01*
X0730221Y0794649D01*
Y0792650D01*
X0729221Y0791650D01*
X0726222D01*
X0742217Y0796648D02*
X0741217Y0797648D01*
X0739218D01*
X0738218Y0796648D01*
Y0795649D01*
X0739218Y0794649D01*
X0741217D01*
X0742217Y0793649D01*
Y0792650D01*
X0741217Y0791650D01*
X0739218D01*
X0738218Y0792650D01*
X0745216Y0791650D02*
X0747215D01*
X0748215Y0792650D01*
Y0794649D01*
X0747215Y0795649D01*
X0745216D01*
X0744216Y0794649D01*
Y0792650D01*
X0745216Y0791650D01*
X0750214D02*
X0752214D01*
X0751214D01*
Y0797648D01*
X0750214D01*
X0759211D02*
Y0791650D01*
X0756212D01*
X0755213Y0792650D01*
Y0794649D01*
X0756212Y0795649D01*
X0759211D01*
X0764210Y0791650D02*
X0762210D01*
X0761211Y0792650D01*
Y0794649D01*
X0762210Y0795649D01*
X0764210D01*
X0765209Y0794649D01*
Y0793649D01*
X0761211D01*
X0767209Y0795649D02*
Y0791650D01*
Y0793649D01*
X0768208Y0794649D01*
X0769208Y0795649D01*
X0770208D01*
X0714226Y0809648D02*
X0718225D01*
X0716225D01*
Y0803650D01*
X0721224D02*
X0723223D01*
X0724223Y0804650D01*
Y0806649D01*
X0723223Y0807649D01*
X0721224D01*
X0720224Y0806649D01*
Y0804650D01*
X0721224Y0803650D01*
X0726222Y0801651D02*
Y0807649D01*
X0729221D01*
X0730221Y0806649D01*
Y0804650D01*
X0729221Y0803650D01*
X0726222D01*
X0741217Y0809648D02*
X0739218D01*
X0738218Y0808648D01*
Y0804650D01*
X0739218Y0803650D01*
X0741217D01*
X0742217Y0804650D01*
Y0808648D01*
X0741217Y0809648D01*
X0744216Y0807649D02*
X0746215Y0803650D01*
X0748215Y0807649D01*
X0753213Y0803650D02*
X0751214D01*
X0750214Y0804650D01*
Y0806649D01*
X0751214Y0807649D01*
X0753213D01*
X0754213Y0806649D01*
Y0805649D01*
X0750214D01*
X0756212Y0807649D02*
Y0803650D01*
Y0805649D01*
X0757212Y0806649D01*
X0758212Y0807649D01*
X0759211D01*
X0762210Y0803650D02*
X0764210D01*
X0763210D01*
Y0809648D01*
X0762210D01*
X0768208Y0807649D02*
X0770208D01*
X0771207Y0806649D01*
Y0803650D01*
X0768208D01*
X0767209Y0804650D01*
X0768208Y0805649D01*
X0771207D01*
X0773207Y0807649D02*
Y0804650D01*
X0774206Y0803650D01*
X0777206D01*
Y0802650D01*
X0776206Y0801651D01*
X0775206D01*
X0777206Y0803650D02*
Y0807649D01*
X0808200Y0815650D02*
Y0821648D01*
X0810199Y0819649D01*
X0812199Y0821648D01*
Y0815650D01*
X0815198Y0819649D02*
X0817197D01*
X0818197Y0818649D01*
Y0815650D01*
X0815198D01*
X0814198Y0816650D01*
X0815198Y0817649D01*
X0818197D01*
X0821196Y0820648D02*
Y0819649D01*
X0820196D01*
X0822196D01*
X0821196D01*
Y0816650D01*
X0822196Y0815650D01*
X0828193D02*
X0826194D01*
X0825194Y0816650D01*
Y0818649D01*
X0826194Y0819649D01*
X0828193D01*
X0829193Y0818649D01*
Y0817649D01*
X0825194D01*
X0831193Y0819649D02*
Y0815650D01*
Y0817649D01*
X0832192Y0818649D01*
X0833192Y0819649D01*
X0834192D01*
X0837191Y0815650D02*
X0839190D01*
X0838190D01*
Y0819649D01*
X0837191D01*
X0843189D02*
X0845188D01*
X0846188Y0818649D01*
Y0815650D01*
X0843189D01*
X0842189Y0816650D01*
X0843189Y0817649D01*
X0846188D01*
X0848187Y0815650D02*
X0850186D01*
X0849187D01*
Y0821648D01*
X0848187D01*
X0812199Y0700648D02*
X0811199Y0701648D01*
X0809200D01*
X0808200Y0700648D01*
Y0699649D01*
X0809200Y0698649D01*
X0811199D01*
X0812199Y0697649D01*
Y0696650D01*
X0811199Y0695650D01*
X0809200D01*
X0808200Y0696650D01*
X0815198Y0695650D02*
X0817197D01*
X0818197Y0696650D01*
Y0698649D01*
X0817197Y0699649D01*
X0815198D01*
X0814198Y0698649D01*
Y0696650D01*
X0815198Y0695650D01*
X0820196D02*
X0822196D01*
X0821196D01*
Y0701648D01*
X0820196D01*
X0829193D02*
Y0695650D01*
X0826194D01*
X0825194Y0696650D01*
Y0698649D01*
X0826194Y0699649D01*
X0829193D01*
X0834192Y0695650D02*
X0832192D01*
X0831193Y0696650D01*
Y0698649D01*
X0832192Y0699649D01*
X0834192D01*
X0835191Y0698649D01*
Y0697649D01*
X0831193D01*
X0837191Y0699649D02*
Y0695650D01*
Y0697649D01*
X0838190Y0698649D01*
X0839190Y0699649D01*
X0840190D01*
X0849187Y0695650D02*
Y0701648D01*
X0852186D01*
X0853185Y0700648D01*
Y0698649D01*
X0852186Y0697649D01*
X0849187D01*
X0851186D02*
X0853185Y0695650D01*
X0858184D02*
X0856184D01*
X0855185Y0696650D01*
Y0698649D01*
X0856184Y0699649D01*
X0858184D01*
X0859184Y0698649D01*
Y0697649D01*
X0855185D01*
X0861183Y0695650D02*
X0864182D01*
X0865182Y0696650D01*
X0864182Y0697649D01*
X0862183D01*
X0861183Y0698649D01*
X0862183Y0699649D01*
X0865182D01*
X0867181Y0695650D02*
X0869180D01*
X0868181D01*
Y0699649D01*
X0867181D01*
X0872179Y0695650D02*
X0875178D01*
X0876178Y0696650D01*
X0875178Y0697649D01*
X0873179D01*
X0872179Y0698649D01*
X0873179Y0699649D01*
X0876178D01*
X0879177Y0700648D02*
Y0699649D01*
X0878177D01*
X0880177D01*
X0879177D01*
Y0696650D01*
X0880177Y0695650D01*
X0812199Y0712648D02*
X0811199Y0713648D01*
X0809200D01*
X0808200Y0712648D01*
Y0708650D01*
X0809200Y0707650D01*
X0811199D01*
X0812199Y0708650D01*
X0815198Y0707650D02*
X0817197D01*
X0818197Y0708650D01*
Y0710649D01*
X0817197Y0711649D01*
X0815198D01*
X0814198Y0710649D01*
Y0708650D01*
X0815198Y0707650D01*
X0820196Y0705651D02*
Y0711649D01*
X0823195D01*
X0824195Y0710649D01*
Y0708650D01*
X0823195Y0707650D01*
X0820196D01*
X0826194Y0705651D02*
Y0711649D01*
X0829193D01*
X0830193Y0710649D01*
Y0708650D01*
X0829193Y0707650D01*
X0826194D01*
X0835191D02*
X0833192D01*
X0832192Y0708650D01*
Y0710649D01*
X0833192Y0711649D01*
X0835191D01*
X0836191Y0710649D01*
Y0709649D01*
X0832192D01*
X0838190Y0711649D02*
Y0707650D01*
Y0709649D01*
X0839190Y0710649D01*
X0840190Y0711649D01*
X0841189D01*
X0812199Y0725648D02*
X0808200D01*
Y0722649D01*
X0810199D01*
X0808200D01*
Y0719650D01*
X0814198D02*
Y0725648D01*
X0817197D01*
X0818197Y0724648D01*
Y0722649D01*
X0817197Y0721649D01*
X0814198D01*
X0816197D02*
X0818197Y0719650D01*
X0820196Y0722649D02*
X0824195D01*
X0829193Y0719650D02*
Y0725648D01*
X0826194Y0722649D01*
X0830193D01*
X0812199Y0736648D02*
X0811199Y0737648D01*
X0809200D01*
X0808200Y0736648D01*
Y0732650D01*
X0809200Y0731650D01*
X0811199D01*
X0812199Y0732650D01*
X0815198Y0731650D02*
X0817197D01*
X0818197Y0732650D01*
Y0734649D01*
X0817197Y0735649D01*
X0815198D01*
X0814198Y0734649D01*
Y0732650D01*
X0815198Y0731650D01*
X0820196Y0729651D02*
Y0735649D01*
X0823195D01*
X0824195Y0734649D01*
Y0732650D01*
X0823195Y0731650D01*
X0820196D01*
X0826194Y0729651D02*
Y0735649D01*
X0829193D01*
X0830193Y0734649D01*
Y0732650D01*
X0829193Y0731650D01*
X0826194D01*
X0835191D02*
X0833192D01*
X0832192Y0732650D01*
Y0734649D01*
X0833192Y0735649D01*
X0835191D01*
X0836191Y0734649D01*
Y0733649D01*
X0832192D01*
X0838190Y0735649D02*
Y0731650D01*
Y0733649D01*
X0839190Y0734649D01*
X0840190Y0735649D01*
X0841189D01*
X0812199Y0749648D02*
X0808200D01*
Y0746649D01*
X0810199D01*
X0808200D01*
Y0743650D01*
X0814198D02*
Y0749648D01*
X0817197D01*
X0818197Y0748648D01*
Y0746649D01*
X0817197Y0745649D01*
X0814198D01*
X0816197D02*
X0818197Y0743650D01*
X0820196Y0746649D02*
X0824195D01*
X0829193Y0743650D02*
Y0749648D01*
X0826194Y0746649D01*
X0830193D01*
X0812199Y0760648D02*
X0811199Y0761648D01*
X0809200D01*
X0808200Y0760648D01*
Y0756650D01*
X0809200Y0755650D01*
X0811199D01*
X0812199Y0756650D01*
X0815198Y0755650D02*
X0817197D01*
X0818197Y0756650D01*
Y0758649D01*
X0817197Y0759649D01*
X0815198D01*
X0814198Y0758649D01*
Y0756650D01*
X0815198Y0755650D01*
X0820196Y0753651D02*
Y0759649D01*
X0823195D01*
X0824195Y0758649D01*
Y0756650D01*
X0823195Y0755650D01*
X0820196D01*
X0826194Y0753651D02*
Y0759649D01*
X0829193D01*
X0830193Y0758649D01*
Y0756650D01*
X0829193Y0755650D01*
X0826194D01*
X0835191D02*
X0833192D01*
X0832192Y0756650D01*
Y0758649D01*
X0833192Y0759649D01*
X0835191D01*
X0836191Y0758649D01*
Y0757649D01*
X0832192D01*
X0838190Y0759649D02*
Y0755650D01*
Y0757649D01*
X0839190Y0758649D01*
X0840190Y0759649D01*
X0841189D01*
X0812199Y0773648D02*
X0808200D01*
Y0770649D01*
X0810199D01*
X0808200D01*
Y0767650D01*
X0814198D02*
Y0773648D01*
X0817197D01*
X0818197Y0772648D01*
Y0770649D01*
X0817197Y0769649D01*
X0814198D01*
X0816197D02*
X0818197Y0767650D01*
X0820196Y0770649D02*
X0824195D01*
X0829193Y0767650D02*
Y0773648D01*
X0826194Y0770649D01*
X0830193D01*
X0812199Y0784648D02*
X0811199Y0785648D01*
X0809200D01*
X0808200Y0784648D01*
Y0780650D01*
X0809200Y0779650D01*
X0811199D01*
X0812199Y0780650D01*
X0815198Y0779650D02*
X0817197D01*
X0818197Y0780650D01*
Y0782649D01*
X0817197Y0783649D01*
X0815198D01*
X0814198Y0782649D01*
Y0780650D01*
X0815198Y0779650D01*
X0820196Y0777651D02*
Y0783649D01*
X0823195D01*
X0824195Y0782649D01*
Y0780650D01*
X0823195Y0779650D01*
X0820196D01*
X0826194Y0777651D02*
Y0783649D01*
X0829193D01*
X0830193Y0782649D01*
Y0780650D01*
X0829193Y0779650D01*
X0826194D01*
X0835191D02*
X0833192D01*
X0832192Y0780650D01*
Y0782649D01*
X0833192Y0783649D01*
X0835191D01*
X0836191Y0782649D01*
Y0781649D01*
X0832192D01*
X0838190Y0783649D02*
Y0779650D01*
Y0781649D01*
X0839190Y0782649D01*
X0840190Y0783649D01*
X0841189D01*
X0812199Y0796648D02*
X0811199Y0797648D01*
X0809200D01*
X0808200Y0796648D01*
Y0795649D01*
X0809200Y0794649D01*
X0811199D01*
X0812199Y0793649D01*
Y0792650D01*
X0811199Y0791650D01*
X0809200D01*
X0808200Y0792650D01*
X0815198Y0791650D02*
X0817197D01*
X0818197Y0792650D01*
Y0794649D01*
X0817197Y0795649D01*
X0815198D01*
X0814198Y0794649D01*
Y0792650D01*
X0815198Y0791650D01*
X0820196D02*
X0822196D01*
X0821196D01*
Y0797648D01*
X0820196D01*
X0829193D02*
Y0791650D01*
X0826194D01*
X0825194Y0792650D01*
Y0794649D01*
X0826194Y0795649D01*
X0829193D01*
X0834192Y0791650D02*
X0832192D01*
X0831193Y0792650D01*
Y0794649D01*
X0832192Y0795649D01*
X0834192D01*
X0835191Y0794649D01*
Y0793649D01*
X0831193D01*
X0837191Y0795649D02*
Y0791650D01*
Y0793649D01*
X0838190Y0794649D01*
X0839190Y0795649D01*
X0840190D01*
X0849187Y0791650D02*
Y0797648D01*
X0852186D01*
X0853185Y0796648D01*
Y0794649D01*
X0852186Y0793649D01*
X0849187D01*
X0851186D02*
X0853185Y0791650D01*
X0858184D02*
X0856184D01*
X0855185Y0792650D01*
Y0794649D01*
X0856184Y0795649D01*
X0858184D01*
X0859184Y0794649D01*
Y0793649D01*
X0855185D01*
X0861183Y0791650D02*
X0864182D01*
X0865182Y0792650D01*
X0864182Y0793649D01*
X0862183D01*
X0861183Y0794649D01*
X0862183Y0795649D01*
X0865182D01*
X0867181Y0791650D02*
X0869180D01*
X0868181D01*
Y0795649D01*
X0867181D01*
X0872179Y0791650D02*
X0875178D01*
X0876178Y0792650D01*
X0875178Y0793649D01*
X0873179D01*
X0872179Y0794649D01*
X0873179Y0795649D01*
X0876178D01*
X0879177Y0796648D02*
Y0795649D01*
X0878177D01*
X0880177D01*
X0879177D01*
Y0792650D01*
X0880177Y0791650D01*
X0894177Y0821648D02*
X0898175D01*
X0896176D01*
Y0815650D01*
X0900175Y0821648D02*
Y0815650D01*
Y0818649D01*
X0901175Y0819649D01*
X0903174D01*
X0904173Y0818649D01*
Y0815650D01*
X0906173D02*
X0908172D01*
X0907172D01*
Y0819649D01*
X0906173D01*
X0915170D02*
X0912171D01*
X0911171Y0818649D01*
Y0816650D01*
X0912171Y0815650D01*
X0915170D01*
X0917169D02*
Y0821648D01*
Y0817649D02*
X0920168Y0819649D01*
X0917169Y0817649D02*
X0920168Y0815650D01*
X0923167D02*
Y0819649D01*
X0926166D01*
X0927166Y0818649D01*
Y0815650D01*
X0932164D02*
X0930165D01*
X0929165Y0816650D01*
Y0818649D01*
X0930165Y0819649D01*
X0932164D01*
X0933164Y0818649D01*
Y0817649D01*
X0929165D01*
X0935163Y0815650D02*
X0938163D01*
X0939162Y0816650D01*
X0938163Y0817649D01*
X0936163D01*
X0935163Y0818649D01*
X0936163Y0819649D01*
X0939162D01*
X0941162Y0815650D02*
X0944160D01*
X0945160Y0816650D01*
X0944160Y0817649D01*
X0942161D01*
X0941162Y0818649D01*
X0942161Y0819649D01*
X0945160D01*
X0894177Y0700648D02*
X0895176Y0701648D01*
X0897176D01*
X0898175Y0700648D01*
Y0696650D01*
X0897176Y0695650D01*
X0895176D01*
X0894177Y0696650D01*
Y0700648D01*
X0900175Y0695650D02*
Y0696650D01*
X0901175D01*
Y0695650D01*
X0900175D01*
X0908172D02*
Y0701648D01*
X0905173Y0698649D01*
X0909172D01*
X0911171Y0700648D02*
X0912171Y0701648D01*
X0914170D01*
X0915170Y0700648D01*
Y0696650D01*
X0914170Y0695650D01*
X0912171D01*
X0911171Y0696650D01*
Y0700648D01*
X0917169Y0695650D02*
Y0699649D01*
X0918169D01*
X0919169Y0698649D01*
Y0695650D01*
Y0698649D01*
X0920168Y0699649D01*
X0921168Y0698649D01*
Y0695650D01*
X0923167D02*
X0925167D01*
X0924167D01*
Y0699649D01*
X0923167D01*
X0928166Y0695650D02*
X0930165D01*
X0929165D01*
Y0701648D01*
X0928166D01*
X0894177Y0707650D02*
X0896176D01*
X0895176D01*
Y0713648D01*
X0894177Y0712648D01*
X0899175Y0707650D02*
Y0708650D01*
X0900175D01*
Y0707650D01*
X0899175D01*
X0907172D02*
Y0713648D01*
X0904173Y0710649D01*
X0908172D01*
X0910172Y0712648D02*
X0911171Y0713648D01*
X0913171D01*
X0914170Y0712648D01*
Y0708650D01*
X0913171Y0707650D01*
X0911171D01*
X0910172Y0708650D01*
Y0712648D01*
X0916170Y0707650D02*
Y0711649D01*
X0917169D01*
X0918169Y0710649D01*
Y0707650D01*
Y0710649D01*
X0919169Y0711649D01*
X0920168Y0710649D01*
Y0707650D01*
X0922168D02*
X0924167D01*
X0923167D01*
Y0711649D01*
X0922168D01*
X0927166Y0707650D02*
X0929165D01*
X0928166D01*
Y0713648D01*
X0927166D01*
X0894177Y0724648D02*
X0895176Y0725648D01*
X0897176D01*
X0898175Y0724648D01*
Y0723649D01*
X0897176Y0722649D01*
X0898175Y0721649D01*
Y0720650D01*
X0897176Y0719650D01*
X0895176D01*
X0894177Y0720650D01*
Y0721649D01*
X0895176Y0722649D01*
X0894177Y0723649D01*
Y0724648D01*
X0895176Y0722649D02*
X0897176D01*
X0900175Y0719650D02*
Y0720650D01*
X0901175D01*
Y0719650D01*
X0900175D01*
X0905173Y0724648D02*
X0906173Y0725648D01*
X0908172D01*
X0909172Y0724648D01*
Y0720650D01*
X0908172Y0719650D01*
X0906173D01*
X0905173Y0720650D01*
Y0724648D01*
X0911171D02*
X0912171Y0725648D01*
X0914170D01*
X0915170Y0724648D01*
Y0720650D01*
X0914170Y0719650D01*
X0912171D01*
X0911171Y0720650D01*
Y0724648D01*
X0917169Y0719650D02*
Y0723649D01*
X0918169D01*
X0919169Y0722649D01*
Y0719650D01*
Y0722649D01*
X0920168Y0723649D01*
X0921168Y0722649D01*
Y0719650D01*
X0923167D02*
X0925167D01*
X0924167D01*
Y0723649D01*
X0923167D01*
X0928166Y0719650D02*
X0930165D01*
X0929165D01*
Y0725648D01*
X0928166D01*
X0894177Y0731650D02*
X0896176D01*
X0895176D01*
Y0737648D01*
X0894177Y0736648D01*
X0899175Y0731650D02*
Y0732650D01*
X0900175D01*
Y0731650D01*
X0899175D01*
X0907172D02*
Y0737648D01*
X0904173Y0734649D01*
X0908172D01*
X0910172Y0736648D02*
X0911171Y0737648D01*
X0913171D01*
X0914170Y0736648D01*
Y0732650D01*
X0913171Y0731650D01*
X0911171D01*
X0910172Y0732650D01*
Y0736648D01*
X0916170Y0731650D02*
Y0735649D01*
X0917169D01*
X0918169Y0734649D01*
Y0731650D01*
Y0734649D01*
X0919169Y0735649D01*
X0920168Y0734649D01*
Y0731650D01*
X0922168D02*
X0924167D01*
X0923167D01*
Y0735649D01*
X0922168D01*
X0927166Y0731650D02*
X0929165D01*
X0928166D01*
Y0737648D01*
X0927166D01*
X0897176Y0743650D02*
Y0749648D01*
X0894177Y0746649D01*
X0898175D01*
X0900175Y0748648D02*
X0901175Y0749648D01*
X0903174D01*
X0904173Y0748648D01*
Y0744650D01*
X0903174Y0743650D01*
X0901175D01*
X0900175Y0744650D01*
Y0748648D01*
X0906173Y0743650D02*
Y0744650D01*
X0907172D01*
Y0743650D01*
X0906173D01*
X0911171Y0748648D02*
X0912171Y0749648D01*
X0914170D01*
X0915170Y0748648D01*
Y0744650D01*
X0914170Y0743650D01*
X0912171D01*
X0911171Y0744650D01*
Y0748648D01*
X0917169D02*
X0918169Y0749648D01*
X0920168D01*
X0921168Y0748648D01*
Y0744650D01*
X0920168Y0743650D01*
X0918169D01*
X0917169Y0744650D01*
Y0748648D01*
X0923167Y0743650D02*
Y0747649D01*
X0924167D01*
X0925167Y0746649D01*
Y0743650D01*
Y0746649D01*
X0926166Y0747649D01*
X0927166Y0746649D01*
Y0743650D01*
X0929165D02*
X0931165D01*
X0930165D01*
Y0747649D01*
X0929165D01*
X0934164Y0743650D02*
X0936163D01*
X0935163D01*
Y0749648D01*
X0934164D01*
X0894177Y0755650D02*
X0896176D01*
X0895176D01*
Y0761648D01*
X0894177Y0760648D01*
X0899175Y0755650D02*
Y0756650D01*
X0900175D01*
Y0755650D01*
X0899175D01*
X0907172D02*
Y0761648D01*
X0904173Y0758649D01*
X0908172D01*
X0910172Y0760648D02*
X0911171Y0761648D01*
X0913171D01*
X0914170Y0760648D01*
Y0756650D01*
X0913171Y0755650D01*
X0911171D01*
X0910172Y0756650D01*
Y0760648D01*
X0916170Y0755650D02*
Y0759649D01*
X0917169D01*
X0918169Y0758649D01*
Y0755650D01*
Y0758649D01*
X0919169Y0759649D01*
X0920168Y0758649D01*
Y0755650D01*
X0922168D02*
X0924167D01*
X0923167D01*
Y0759649D01*
X0922168D01*
X0927166Y0755650D02*
X0929165D01*
X0928166D01*
Y0761648D01*
X0927166D01*
X0894177Y0772648D02*
X0895176Y0773648D01*
X0897176D01*
X0898175Y0772648D01*
Y0771649D01*
X0897176Y0770649D01*
X0898175Y0769649D01*
Y0768650D01*
X0897176Y0767650D01*
X0895176D01*
X0894177Y0768650D01*
Y0769649D01*
X0895176Y0770649D01*
X0894177Y0771649D01*
Y0772648D01*
X0895176Y0770649D02*
X0897176D01*
X0900175Y0767650D02*
Y0768650D01*
X0901175D01*
Y0767650D01*
X0900175D01*
X0905173Y0772648D02*
X0906173Y0773648D01*
X0908172D01*
X0909172Y0772648D01*
Y0768650D01*
X0908172Y0767650D01*
X0906173D01*
X0905173Y0768650D01*
Y0772648D01*
X0911171D02*
X0912171Y0773648D01*
X0914170D01*
X0915170Y0772648D01*
Y0768650D01*
X0914170Y0767650D01*
X0912171D01*
X0911171Y0768650D01*
Y0772648D01*
X0917169Y0767650D02*
Y0771649D01*
X0918169D01*
X0919169Y0770649D01*
Y0767650D01*
Y0770649D01*
X0920168Y0771649D01*
X0921168Y0770649D01*
Y0767650D01*
X0923167D02*
X0925167D01*
X0924167D01*
Y0771649D01*
X0923167D01*
X0928166Y0767650D02*
X0930165D01*
X0929165D01*
Y0773648D01*
X0928166D01*
X0894177Y0779650D02*
X0896176D01*
X0895176D01*
Y0785648D01*
X0894177Y0784648D01*
X0899175Y0779650D02*
Y0780650D01*
X0900175D01*
Y0779650D01*
X0899175D01*
X0907172D02*
Y0785648D01*
X0904173Y0782649D01*
X0908172D01*
X0910172Y0784648D02*
X0911171Y0785648D01*
X0913171D01*
X0914170Y0784648D01*
Y0780650D01*
X0913171Y0779650D01*
X0911171D01*
X0910172Y0780650D01*
Y0784648D01*
X0916170Y0779650D02*
Y0783649D01*
X0917169D01*
X0918169Y0782649D01*
Y0779650D01*
Y0782649D01*
X0919169Y0783649D01*
X0920168Y0782649D01*
Y0779650D01*
X0922168D02*
X0924167D01*
X0923167D01*
Y0783649D01*
X0922168D01*
X0927166Y0779650D02*
X0929165D01*
X0928166D01*
Y0785648D01*
X0927166D01*
X0894177Y0796648D02*
X0895176Y0797648D01*
X0897176D01*
X0898175Y0796648D01*
Y0792650D01*
X0897176Y0791650D01*
X0895176D01*
X0894177Y0792650D01*
Y0796648D01*
X0900175Y0791650D02*
Y0792650D01*
X0901175D01*
Y0791650D01*
X0900175D01*
X0908172D02*
Y0797648D01*
X0905173Y0794649D01*
X0909172D01*
X0911171Y0796648D02*
X0912171Y0797648D01*
X0914170D01*
X0915170Y0796648D01*
Y0792650D01*
X0914170Y0791650D01*
X0912171D01*
X0911171Y0792650D01*
Y0796648D01*
X0917169Y0791650D02*
Y0795649D01*
X0918169D01*
X0919169Y0794649D01*
Y0791650D01*
Y0794649D01*
X0920168Y0795649D01*
X0921168Y0794649D01*
Y0791650D01*
X0923167D02*
X0925167D01*
X0924167D01*
Y0795649D01*
X0923167D01*
X0928166Y0791650D02*
X0930165D01*
X0929165D01*
Y0797648D01*
X0928166D01*
X0963159Y0820648D02*
X0962159Y0821648D01*
X0960160D01*
X0959160Y0820648D01*
Y0816650D01*
X0960160Y0815650D01*
X0962159D01*
X0963159Y0816650D01*
X0966158Y0815650D02*
X0968157D01*
X0969157Y0816650D01*
Y0818649D01*
X0968157Y0819649D01*
X0966158D01*
X0965158Y0818649D01*
Y0816650D01*
X0966158Y0815650D01*
X0971156D02*
Y0819649D01*
X0974155D01*
X0975155Y0818649D01*
Y0815650D01*
X0977154D02*
X0980153D01*
X0981153Y0816650D01*
X0980153Y0817649D01*
X0978154D01*
X0977154Y0818649D01*
X0978154Y0819649D01*
X0981153D01*
X0984152Y0820648D02*
Y0819649D01*
X0983152D01*
X0985152D01*
X0984152D01*
Y0816650D01*
X0985152Y0815650D01*
X0989151Y0819649D02*
X0991150D01*
X0992150Y0818649D01*
Y0815650D01*
X0989151D01*
X0988151Y0816650D01*
X0989151Y0817649D01*
X0992150D01*
X0994149Y0815650D02*
Y0819649D01*
X0997148D01*
X0998148Y0818649D01*
Y0815650D01*
X1001147Y0820648D02*
Y0819649D01*
X1000147D01*
X1002146D01*
X1001147D01*
Y0816650D01*
X1002146Y0815650D01*
X0959160Y0700648D02*
X0960160Y0701648D01*
X0962159D01*
X0963159Y0700648D01*
Y0699649D01*
X0962159Y0698649D01*
X0961160D01*
X0962159D01*
X0963159Y0697649D01*
Y0696650D01*
X0962159Y0695650D01*
X0960160D01*
X0959160Y0696650D01*
X0965158Y0695650D02*
Y0696650D01*
X0966158D01*
Y0695650D01*
X0965158D01*
X0974155Y0701648D02*
X0970157D01*
Y0698649D01*
X0972156Y0699649D01*
X0973156D01*
X0974155Y0698649D01*
Y0696650D01*
X0973156Y0695650D01*
X0971156D01*
X0970157Y0696650D01*
X0962159Y0719650D02*
Y0725648D01*
X0959160Y0722649D01*
X0963159D01*
X0965158Y0719650D02*
Y0720650D01*
X0966158D01*
Y0719650D01*
X0965158D01*
X0974155D02*
X0970157D01*
X0974155Y0723649D01*
Y0724648D01*
X0973156Y0725648D01*
X0971156D01*
X0970157Y0724648D01*
X0962159Y0743650D02*
Y0749648D01*
X0959160Y0746649D01*
X0963159D01*
X0965158Y0743650D02*
Y0744650D01*
X0966158D01*
Y0743650D01*
X0965158D01*
X0974155D02*
X0970157D01*
X0974155Y0747649D01*
Y0748648D01*
X0973156Y0749648D01*
X0971156D01*
X0970157Y0748648D01*
X0962159Y0767650D02*
Y0773648D01*
X0959160Y0770649D01*
X0963159D01*
X0965158Y0767650D02*
Y0768650D01*
X0966158D01*
Y0767650D01*
X0965158D01*
X0974155D02*
X0970157D01*
X0974155Y0771649D01*
Y0772648D01*
X0973156Y0773648D01*
X0971156D01*
X0970157Y0772648D01*
X0959160Y0796648D02*
X0960160Y0797648D01*
X0962159D01*
X0963159Y0796648D01*
Y0795649D01*
X0962159Y0794649D01*
X0961160D01*
X0962159D01*
X0963159Y0793649D01*
Y0792650D01*
X0962159Y0791650D01*
X0960160D01*
X0959160Y0792650D01*
X0965158Y0791650D02*
Y0792650D01*
X0966158D01*
Y0791650D01*
X0965158D01*
X0974155Y0797648D02*
X0970157D01*
Y0794649D01*
X0972156Y0795649D01*
X0973156D01*
X0974155Y0794649D01*
Y0792650D01*
X0973156Y0791650D01*
X0971156D01*
X0970157Y0792650D01*
X1016146Y0821648D02*
Y0815650D01*
X1019145D01*
X1020145Y0816650D01*
Y0817649D01*
X1019145Y0818649D01*
X1016146D01*
X1019145D01*
X1020145Y0819649D01*
Y0820648D01*
X1019145Y0821648D01*
X1016146D01*
X1023144Y0815650D02*
X1025143D01*
X1026143Y0816650D01*
Y0818649D01*
X1025143Y0819649D01*
X1023144D01*
X1022144Y0818649D01*
Y0816650D01*
X1023144Y0815650D01*
X1029142Y0819649D02*
X1031141D01*
X1032141Y0818649D01*
Y0815650D01*
X1029142D01*
X1028142Y0816650D01*
X1029142Y0817649D01*
X1032141D01*
X1034140Y0819649D02*
Y0815650D01*
Y0817649D01*
X1035140Y0818649D01*
X1036140Y0819649D01*
X1037140D01*
X1044137Y0821648D02*
Y0815650D01*
X1041138D01*
X1040139Y0816650D01*
Y0818649D01*
X1041138Y0819649D01*
X1044137D01*
X1052135Y0821648D02*
Y0815650D01*
X1056133D01*
X1059132Y0819649D02*
X1061132D01*
X1062131Y0818649D01*
Y0815650D01*
X1059132D01*
X1058133Y0816650D01*
X1059132Y0817649D01*
X1062131D01*
X1064131Y0819649D02*
Y0816650D01*
X1065131Y0815650D01*
X1068130D01*
Y0814650D01*
X1067130Y0813651D01*
X1066130D01*
X1068130Y0815650D02*
Y0819649D01*
X1073128Y0815650D02*
X1071128D01*
X1070129Y0816650D01*
Y0818649D01*
X1071128Y0819649D01*
X1073128D01*
X1074128Y0818649D01*
Y0817649D01*
X1070129D01*
X1076127Y0819649D02*
Y0815650D01*
Y0817649D01*
X1077127Y0818649D01*
X1078126Y0819649D01*
X1079126D01*
X1092122Y0820648D02*
X1091122Y0821648D01*
X1089123D01*
X1088123Y0820648D01*
Y0819649D01*
X1089123Y0818649D01*
X1091122D01*
X1092122Y0817649D01*
Y0816650D01*
X1091122Y0815650D01*
X1089123D01*
X1088123Y0816650D01*
X1095121Y0820648D02*
Y0819649D01*
X1094121D01*
X1096120D01*
X1095121D01*
Y0816650D01*
X1096120Y0815650D01*
X1100119Y0819649D02*
X1102118D01*
X1103118Y0818649D01*
Y0815650D01*
X1100119D01*
X1099119Y0816650D01*
X1100119Y0817649D01*
X1103118D01*
X1109116Y0819649D02*
X1106117D01*
X1105118Y0818649D01*
Y0816650D01*
X1106117Y0815650D01*
X1109116D01*
X1111116D02*
Y0821648D01*
Y0817649D02*
X1114115Y0819649D01*
X1111116Y0817649D02*
X1114115Y0815650D01*
X0559400Y0039400D02*
Y0059683D01*
X0440500Y0040050D02*
X0700200D01*
Y0101050D01*
X0286500Y0040050D02*
Y0101050D01*
X0040000Y0040050D02*
Y0101050D01*
X0040050Y0040050D02*
X0197600D01*
X0040050D02*
Y0101050D01*
Y0101050D02*
X0700200D01*
X0040000Y0040050D02*
X0440500D01*
X0040000Y0060383D02*
X0700000D01*
X0040000Y0080717D02*
X0700200D01*
X0413200D02*
Y0101050D01*
X0497200Y0080717D02*
Y0101050D01*
G54D56*
X0667235Y0812650D02*
X1122115D01*
X0667235Y0824650D02*
X1122115D01*
X0667235Y0680650D02*
Y0824650D01*
Y0680650D02*
X0708226D01*
X0667235Y0692650D02*
X0708226D01*
X0667235Y0704650D02*
X0708226D01*
X0667235Y0716650D02*
X0708226D01*
X0667235Y0728650D02*
X0708226D01*
X0667235Y0740650D02*
X0708226D01*
X0667235Y0752650D02*
X0708226D01*
X0667235Y0764650D02*
X0708226D01*
X0667235Y0776650D02*
X0708226D01*
X0667235Y0788650D02*
X0708226D01*
X0667235Y0800650D02*
X0708226D01*
Y0680650D02*
Y0824650D01*
Y0680650D02*
X0802200D01*
X0708226Y0692650D02*
X0802200D01*
X0708226Y0704650D02*
X0802200D01*
X0708226Y0716650D02*
X0802200D01*
X0708226Y0728650D02*
X0802200D01*
X0708226Y0740650D02*
X0802200D01*
X0708226Y0752650D02*
X0802200D01*
X0708226Y0764650D02*
X0802200D01*
X0708226Y0776650D02*
X0802200D01*
X0708226Y0788650D02*
X0802200D01*
X0708226Y0800650D02*
X0802200D01*
Y0680650D02*
Y0824650D01*
Y0680650D02*
X0888177D01*
X0802200Y0692650D02*
X0888177D01*
X0802200Y0704650D02*
X0888177D01*
X0802200Y0716650D02*
X0888177D01*
X0802200Y0728650D02*
X0888177D01*
X0802200Y0740650D02*
X0888177D01*
X0802200Y0752650D02*
X0888177D01*
X0802200Y0764650D02*
X0888177D01*
X0802200Y0776650D02*
X0888177D01*
X0802200Y0788650D02*
X0888177D01*
X0802200Y0800650D02*
X0888177D01*
Y0680650D02*
Y0824650D01*
Y0680650D02*
X0953160D01*
X0888177Y0692650D02*
X0953160D01*
X0888177Y0704650D02*
X0953160D01*
X0888177Y0716650D02*
X0953160D01*
X0888177Y0728650D02*
X0953160D01*
X0888177Y0740650D02*
X0953160D01*
X0888177Y0752650D02*
X0953160D01*
X0888177Y0764650D02*
X0953160D01*
X0888177Y0776650D02*
X0953160D01*
X0888177Y0788650D02*
X0953160D01*
X0888177Y0800650D02*
X0953160D01*
Y0680650D02*
Y0824650D01*
Y0680650D02*
X1010146D01*
X0953160Y0692650D02*
X1010146D01*
X0953160Y0704650D02*
X1010146D01*
X0953160Y0716650D02*
X1010146D01*
X0953160Y0728650D02*
X1010146D01*
X0953160Y0740650D02*
X1010146D01*
X0953160Y0752650D02*
X1010146D01*
X0953160Y0764650D02*
X1010146D01*
X0953160Y0776650D02*
X1010146D01*
X0953160Y0788650D02*
X1010146D01*
X0953160Y0800650D02*
X1010146D01*
Y0680650D02*
Y0824650D01*
Y0680650D02*
X1122115D01*
X1010146Y0692650D02*
X1122115D01*
X1010146Y0704650D02*
X1122115D01*
X1010146Y0716650D02*
X1122115D01*
X1010146Y0728650D02*
X1122115D01*
X1010146Y0740650D02*
X1122115D01*
X1010146Y0752650D02*
X1122115D01*
X1010146Y0764650D02*
X1122115D01*
X1010146Y0776650D02*
X1122115D01*
X1010146Y0788650D02*
X1122115D01*
X1010146Y0800650D02*
X1122115D01*
Y0680650D02*
Y0824650D01*
G54D84*
X1116115Y0680650D02*
X1122115Y0686650D01*
X1110115Y0680650D02*
X1122115Y0692650D01*
X1104115Y0680650D02*
X1116115Y0692650D01*
X1098115Y0680650D02*
X1110115Y0692650D01*
X1092115Y0680650D02*
X1104115Y0692650D01*
X1086115Y0680650D02*
X1098115Y0692650D01*
X1080115Y0680650D02*
X1092115Y0692650D01*
X1074115Y0680650D02*
X1086115Y0692650D01*
X1068115Y0680650D02*
X1080115Y0692650D01*
X1062115Y0680650D02*
X1074115Y0692650D01*
X1056115Y0680650D02*
X1068115Y0692650D01*
X1050115Y0680650D02*
X1062115Y0692650D01*
X1044115Y0680650D02*
X1056115Y0692650D01*
X1038115Y0680650D02*
X1050115Y0692650D01*
X1032115Y0680650D02*
X1044115Y0692650D01*
X1026115Y0680650D02*
X1038115Y0692650D01*
X1020115Y0680650D02*
X1032115Y0692650D01*
X1014115Y0680650D02*
X1026115Y0692650D01*
X1010146Y0682682D02*
X1020115Y0692650D01*
X1010146Y0688682D02*
X1014115Y0692650D01*
X1116115D02*
X1122115Y0698650D01*
X1110115Y0692650D02*
X1122115Y0704650D01*
X1104115Y0692650D02*
X1116115Y0704650D01*
X1098115Y0692650D02*
X1110115Y0704650D01*
X1092115Y0692650D02*
X1104115Y0704650D01*
X1086115Y0692650D02*
X1098115Y0704650D01*
X1080115Y0692650D02*
X1092115Y0704650D01*
X1074115Y0692650D02*
X1086115Y0704650D01*
X1068115Y0692650D02*
X1080115Y0704650D01*
X1062115Y0692650D02*
X1074115Y0704650D01*
X1056115Y0692650D02*
X1068115Y0704650D01*
X1050115Y0692650D02*
X1062115Y0704650D01*
X1044115Y0692650D02*
X1056115Y0704650D01*
X1038115Y0692650D02*
X1050115Y0704650D01*
X1032115Y0692650D02*
X1044115Y0704650D01*
X1026115Y0692650D02*
X1038115Y0704650D01*
X1020115Y0692650D02*
X1032115Y0704650D01*
X1014115Y0692650D02*
X1026115Y0704650D01*
X1010146Y0694682D02*
X1020115Y0704650D01*
X1010146Y0700682D02*
X1014115Y0704650D01*
X1116115D02*
X1122115Y0710650D01*
X1110115Y0704650D02*
X1122115Y0716650D01*
X1104115Y0704650D02*
X1116115Y0716650D01*
X1098115Y0704650D02*
X1110115Y0716650D01*
X1092115Y0704650D02*
X1104115Y0716650D01*
X1086115Y0704650D02*
X1098115Y0716650D01*
X1080115Y0704650D02*
X1092115Y0716650D01*
X1074115Y0704650D02*
X1086115Y0716650D01*
X1068115Y0704650D02*
X1080115Y0716650D01*
X1062115Y0704650D02*
X1074115Y0716650D01*
X1056115Y0704650D02*
X1068115Y0716650D01*
X1050115Y0704650D02*
X1062115Y0716650D01*
X1044115Y0704650D02*
X1056115Y0716650D01*
X1038115Y0704650D02*
X1050115Y0716650D01*
X1032115Y0704650D02*
X1044115Y0716650D01*
X1026115Y0704650D02*
X1038115Y0716650D01*
X1020115Y0704650D02*
X1032115Y0716650D01*
X1014115Y0704650D02*
X1026115Y0716650D01*
X1010146Y0706682D02*
X1020115Y0716650D01*
X1010146Y0712682D02*
X1014115Y0716650D01*
X1116115D02*
X1122115Y0722650D01*
X1110115Y0716650D02*
X1122115Y0728650D01*
X1104115Y0716650D02*
X1116115Y0728650D01*
X1098115Y0716650D02*
X1110115Y0728650D01*
X1092115Y0716650D02*
X1104115Y0728650D01*
X1086115Y0716650D02*
X1098115Y0728650D01*
X1080115Y0716650D02*
X1092115Y0728650D01*
X1074115Y0716650D02*
X1086115Y0728650D01*
X1068115Y0716650D02*
X1080115Y0728650D01*
X1062115Y0716650D02*
X1074115Y0728650D01*
X1056115Y0716650D02*
X1068115Y0728650D01*
X1050115Y0716650D02*
X1062115Y0728650D01*
X1044115Y0716650D02*
X1056115Y0728650D01*
X1038115Y0716650D02*
X1050115Y0728650D01*
X1032115Y0716650D02*
X1044115Y0728650D01*
X1026115Y0716650D02*
X1038115Y0728650D01*
X1020115Y0716650D02*
X1032115Y0728650D01*
X1014115Y0716650D02*
X1026115Y0728650D01*
X1010146Y0718682D02*
X1020115Y0728650D01*
X1010146Y0724682D02*
X1014115Y0728650D01*
X1116115D02*
X1122115Y0734650D01*
X1110115Y0728650D02*
X1122115Y0740650D01*
X1104115Y0728650D02*
X1116115Y0740650D01*
X1098115Y0728650D02*
X1110115Y0740650D01*
X1092115Y0728650D02*
X1104115Y0740650D01*
X1086115Y0728650D02*
X1098115Y0740650D01*
X1080115Y0728650D02*
X1092115Y0740650D01*
X1074115Y0728650D02*
X1086115Y0740650D01*
X1068115Y0728650D02*
X1080115Y0740650D01*
X1062115Y0728650D02*
X1074115Y0740650D01*
X1056115Y0728650D02*
X1068115Y0740650D01*
X1050115Y0728650D02*
X1062115Y0740650D01*
X1044115Y0728650D02*
X1056115Y0740650D01*
X1038115Y0728650D02*
X1050115Y0740650D01*
X1032115Y0728650D02*
X1044115Y0740650D01*
X1026115Y0728650D02*
X1038115Y0740650D01*
X1020115Y0728650D02*
X1032115Y0740650D01*
X1014115Y0728650D02*
X1026115Y0740650D01*
X1010146Y0730682D02*
X1020115Y0740650D01*
X1010146Y0736682D02*
X1014115Y0740650D01*
X1116115D02*
X1122115Y0746650D01*
X1110115Y0740650D02*
X1122115Y0752650D01*
X1104115Y0740650D02*
X1116115Y0752650D01*
X1098115Y0740650D02*
X1110115Y0752650D01*
X1092115Y0740650D02*
X1104115Y0752650D01*
X1086115Y0740650D02*
X1098115Y0752650D01*
X1080115Y0740650D02*
X1092115Y0752650D01*
X1074115Y0740650D02*
X1086115Y0752650D01*
X1068115Y0740650D02*
X1080115Y0752650D01*
X1062115Y0740650D02*
X1074115Y0752650D01*
X1056115Y0740650D02*
X1068115Y0752650D01*
X1050115Y0740650D02*
X1062115Y0752650D01*
X1044115Y0740650D02*
X1056115Y0752650D01*
X1038115Y0740650D02*
X1050115Y0752650D01*
X1032115Y0740650D02*
X1044115Y0752650D01*
X1026115Y0740650D02*
X1038115Y0752650D01*
X1020115Y0740650D02*
X1032115Y0752650D01*
X1014115Y0740650D02*
X1026115Y0752650D01*
X1010146Y0742682D02*
X1020115Y0752650D01*
X1010146Y0748682D02*
X1014115Y0752650D01*
X1116115D02*
X1122115Y0758650D01*
X1110115Y0752650D02*
X1122115Y0764650D01*
X1104115Y0752650D02*
X1116115Y0764650D01*
X1098115Y0752650D02*
X1110115Y0764650D01*
X1092115Y0752650D02*
X1104115Y0764650D01*
X1086115Y0752650D02*
X1098115Y0764650D01*
X1080115Y0752650D02*
X1092115Y0764650D01*
X1074115Y0752650D02*
X1086115Y0764650D01*
X1068115Y0752650D02*
X1080115Y0764650D01*
X1062115Y0752650D02*
X1074115Y0764650D01*
X1056115Y0752650D02*
X1068115Y0764650D01*
X1050115Y0752650D02*
X1062115Y0764650D01*
X1044115Y0752650D02*
X1056115Y0764650D01*
X1038115Y0752650D02*
X1050115Y0764650D01*
X1032115Y0752650D02*
X1044115Y0764650D01*
X1026115Y0752650D02*
X1038115Y0764650D01*
X1020115Y0752650D02*
X1032115Y0764650D01*
X1014115Y0752650D02*
X1026115Y0764650D01*
X1010146Y0754682D02*
X1020115Y0764650D01*
X1010146Y0760682D02*
X1014115Y0764650D01*
X1116115D02*
X1122115Y0770650D01*
X1110115Y0764650D02*
X1122115Y0776650D01*
X1104115Y0764650D02*
X1116115Y0776650D01*
X1098115Y0764650D02*
X1110115Y0776650D01*
X1092115Y0764650D02*
X1104115Y0776650D01*
X1086115Y0764650D02*
X1098115Y0776650D01*
X1080115Y0764650D02*
X1092115Y0776650D01*
X1074115Y0764650D02*
X1086115Y0776650D01*
X1068115Y0764650D02*
X1080115Y0776650D01*
X1062115Y0764650D02*
X1074115Y0776650D01*
X1056115Y0764650D02*
X1068115Y0776650D01*
X1050115Y0764650D02*
X1062115Y0776650D01*
X1044115Y0764650D02*
X1056115Y0776650D01*
X1038115Y0764650D02*
X1050115Y0776650D01*
X1032115Y0764650D02*
X1044115Y0776650D01*
X1026115Y0764650D02*
X1038115Y0776650D01*
X1020115Y0764650D02*
X1032115Y0776650D01*
X1014115Y0764650D02*
X1026115Y0776650D01*
X1010146Y0766682D02*
X1020115Y0776650D01*
X1010146Y0772682D02*
X1014115Y0776650D01*
X1116115D02*
X1122115Y0782650D01*
X1110115Y0776650D02*
X1122115Y0788650D01*
X1104115Y0776650D02*
X1116115Y0788650D01*
X1098115Y0776650D02*
X1110115Y0788650D01*
X1092115Y0776650D02*
X1104115Y0788650D01*
X1086115Y0776650D02*
X1098115Y0788650D01*
X1080115Y0776650D02*
X1092115Y0788650D01*
X1074115Y0776650D02*
X1086115Y0788650D01*
X1068115Y0776650D02*
X1080115Y0788650D01*
X1062115Y0776650D02*
X1074115Y0788650D01*
X1056115Y0776650D02*
X1068115Y0788650D01*
X1050115Y0776650D02*
X1062115Y0788650D01*
X1044115Y0776650D02*
X1056115Y0788650D01*
X1038115Y0776650D02*
X1050115Y0788650D01*
X1032115Y0776650D02*
X1044115Y0788650D01*
X1026115Y0776650D02*
X1038115Y0788650D01*
X1020115Y0776650D02*
X1032115Y0788650D01*
X1014115Y0776650D02*
X1026115Y0788650D01*
X1010146Y0778682D02*
X1020115Y0788650D01*
X1010146Y0784682D02*
X1014115Y0788650D01*
X1116115D02*
X1122115Y0794650D01*
X1110115Y0788650D02*
X1122115Y0800650D01*
X1104115Y0788650D02*
X1116115Y0800650D01*
X1098115Y0788650D02*
X1110115Y0800650D01*
X1092115Y0788650D02*
X1104115Y0800650D01*
X1086115Y0788650D02*
X1098115Y0800650D01*
X1080115Y0788650D02*
X1092115Y0800650D01*
X1074115Y0788650D02*
X1086115Y0800650D01*
X1068115Y0788650D02*
X1080115Y0800650D01*
X1062115Y0788650D02*
X1074115Y0800650D01*
X1056115Y0788650D02*
X1068115Y0800650D01*
X1050115Y0788650D02*
X1062115Y0800650D01*
X1044115Y0788650D02*
X1056115Y0800650D01*
X1038115Y0788650D02*
X1050115Y0800650D01*
X1032115Y0788650D02*
X1044115Y0800650D01*
X1026115Y0788650D02*
X1038115Y0800650D01*
X1020115Y0788650D02*
X1032115Y0800650D01*
X1014115Y0788650D02*
X1026115Y0800650D01*
X1010146Y0790682D02*
X1020115Y0800650D01*
X1010146Y0796682D02*
X1014115Y0800650D01*
X1116115D02*
X1122115Y0806650D01*
X1110115Y0800650D02*
X1122115Y0812650D01*
X1104115Y0800650D02*
X1116115Y0812650D01*
X1098115Y0800650D02*
X1110115Y0812650D01*
X1092115Y0800650D02*
X1104115Y0812650D01*
X1086115Y0800650D02*
X1098115Y0812650D01*
X1080115Y0800650D02*
X1092115Y0812650D01*
X1074115Y0800650D02*
X1086115Y0812650D01*
X1068115Y0800650D02*
X1080115Y0812650D01*
X1062115Y0800650D02*
X1074115Y0812650D01*
X1056115Y0800650D02*
X1068115Y0812650D01*
X1050115Y0800650D02*
X1062115Y0812650D01*
X1044115Y0800650D02*
X1056115Y0812650D01*
X1038115Y0800650D02*
X1050115Y0812650D01*
X1032115Y0800650D02*
X1044115Y0812650D01*
X1026115Y0800650D02*
X1038115Y0812650D01*
X1020115Y0800650D02*
X1032115Y0812650D01*
X1014115Y0800650D02*
X1026115Y0812650D01*
X1010146Y0802682D02*
X1020115Y0812650D01*
X1010146Y0808682D02*
X1014115Y0812650D01*
M02*
