M48
;Layer_Color=9474304
;FILE_FORMAT=2:5
INCH
;TYPE=PLATED
T1F00S00C0.02000
T2F00S00C0.02800
T3F00S00C0.04000
T4F00S00C0.04331
;TYPE=NON_PLATED
%
T01
X0332200Y0207400
X0341200
X0349200
X0357200
X0335200Y0214400
X0332200Y0240400
X0341200Y0242400
X0324200Y0252400
X0268200Y0262400
X0203200Y0235400
T02
X0207200Y0179400
X0221200Y0195400
X0227200
X0230200Y0220400
X0229200Y0246400
X0237200
X0220200
X0255200Y0242400
X0264200
X0270200Y0216400
X0254200
T03
X0354200Y0169400
X0364200
X0458200
X0468200
T04
X0241200Y0169400
X0251200
X0261200
X0271200
M30
