G04 ================== begin FILE IDENTIFICATION RECORD ==================*
G04 Layout Name:  TIDA-01606_HV_CARDE4_SCH_rev3.brd*
G04 Film Name:    DrillDimensions*
G04 File Format:  Gerber RS274X*
G04 File Origin:  Cadence Allegro -unreleased*
G04 Origin Date:  Fri Aug 27 12:34:44 2021*
G04 *
G04 Layer:  MANUFACTURING/NCLEGEND-1-4*
G04 Layer:  MANUFACTURING/NCDRILL_LEGEND*
G04 Layer:  MANUFACTURING/NCDRILL_FIGURE*
G04 Layer:  BOARD GEOMETRY/OUTLINE*
G04 Layer:  BOARD GEOMETRY/DIMENSION*
G04 *
G04 Offset:    (0.00 0.00)*
G04 Mirror:    No*
G04 Mode:      Positive*
G04 Rotation:  0*
G04 FullContactRelief:  No*
G04 UndefLineWidth:     8.00*
G04 ================== end FILE IDENTIFICATION RECORD ====================*
%FSLAX25Y25*MOIN*%
%IR0*IPPOS*OFA0.00000B0.00000*MIA0B0*SFA1.00000B1.00000*%
%AMMACRO11*
1,1,.008,.025,0.0*
20,1,.008,.025,0.0,.02462,-.004341,0.0*
1,1,.008,.02462,-.004341*
20,1,.008,.02462,-.004341,.023492,-.008551,0.0*
1,1,.008,.023492,-.008551*
20,1,.008,.023492,-.008551,.021651,-.0125,0.0*
1,1,.008,.021651,-.0125*
20,1,.008,.021651,-.0125,.019151,-.01607,0.0*
1,1,.008,.019151,-.01607*
20,1,.008,.019151,-.01607,.01607,-.019151,0.0*
1,1,.008,.01607,-.019151*
20,1,.008,.01607,-.019151,.0125,-.021651,0.0*
1,1,.008,.0125,-.021651*
20,1,.008,.0125,-.021651,.008551,-.023492,0.0*
1,1,.008,.008551,-.023492*
20,1,.008,.008551,-.023492,.004341,-.02462,0.0*
1,1,.008,.004341,-.02462*
20,1,.008,.004341,-.02462,0.0,-.025,0.0*
1,1,.008,0.0,-.025*
20,1,.008,0.0,-.025,-.004341,-.02462,0.0*
1,1,.008,-.004341,-.02462*
20,1,.008,-.004341,-.02462,-.008551,-.023492,0.0*
1,1,.008,-.008551,-.023492*
20,1,.008,-.008551,-.023492,-.0125,-.021651,0.0*
1,1,.008,-.0125,-.021651*
20,1,.008,-.0125,-.021651,-.01607,-.019151,0.0*
1,1,.008,-.01607,-.019151*
20,1,.008,-.01607,-.019151,-.019151,-.01607,0.0*
1,1,.008,-.019151,-.01607*
20,1,.008,-.019151,-.01607,-.021651,-.0125,0.0*
1,1,.008,-.021651,-.0125*
20,1,.008,-.021651,-.0125,-.023492,-.008551,0.0*
1,1,.008,-.023492,-.008551*
20,1,.008,-.023492,-.008551,-.02462,-.004341,0.0*
1,1,.008,-.02462,-.004341*
20,1,.008,-.02462,-.004341,-.025,0.0,0.0*
1,1,.008,-.025,0.0*
20,1,.008,-.025,0.0,-.02462,.004341,0.0*
1,1,.008,-.02462,.004341*
20,1,.008,-.02462,.004341,-.023492,.008551,0.0*
1,1,.008,-.023492,.008551*
20,1,.008,-.023492,.008551,-.021651,.0125,0.0*
1,1,.008,-.021651,.0125*
20,1,.008,-.021651,.0125,-.019151,.01607,0.0*
1,1,.008,-.019151,.01607*
20,1,.008,-.019151,.01607,-.01607,.019151,0.0*
1,1,.008,-.01607,.019151*
20,1,.008,-.01607,.019151,-.0125,.021651,0.0*
1,1,.008,-.0125,.021651*
20,1,.008,-.0125,.021651,-.008551,.023492,0.0*
1,1,.008,-.008551,.023492*
20,1,.008,-.008551,.023492,-.004341,.02462,0.0*
1,1,.008,-.004341,.02462*
20,1,.008,-.004341,.02462,0.0,.025,0.0*
1,1,.008,0.0,.025*
20,1,.008,0.0,.025,.004341,.02462,0.0*
1,1,.008,.004341,.02462*
20,1,.008,.004341,.02462,.008551,.023492,0.0*
1,1,.008,.008551,.023492*
20,1,.008,.008551,.023492,.0125,.021651,0.0*
1,1,.008,.0125,.021651*
20,1,.008,.0125,.021651,.01607,.019151,0.0*
1,1,.008,.01607,.019151*
20,1,.008,.01607,.019151,.019151,.01607,0.0*
1,1,.008,.019151,.01607*
20,1,.008,.019151,.01607,.021651,.0125,0.0*
1,1,.008,.021651,.0125*
20,1,.008,.021651,.0125,.023492,.008551,0.0*
1,1,.008,.023492,.008551*
20,1,.008,.023492,.008551,.02462,.004341,0.0*
1,1,.008,.02462,.004341*
20,1,.008,.02462,.004341,.025,0.0,0.0*
1,1,.008,.025,0.0*
%
%ADD11MACRO11*%
%AMMACRO10*
1,1,.008,.02,0.0*
20,1,.008,.02,0.0,.019696,-.003473,0.0*
1,1,.008,.019696,-.003473*
20,1,.008,.019696,-.003473,.018794,-.00684,0.0*
1,1,.008,.018794,-.00684*
20,1,.008,.018794,-.00684,.017321,-.01,0.0*
1,1,.008,.017321,-.01*
20,1,.008,.017321,-.01,.015321,-.012856,0.0*
1,1,.008,.015321,-.012856*
20,1,.008,.015321,-.012856,.012856,-.015321,0.0*
1,1,.008,.012856,-.015321*
20,1,.008,.012856,-.015321,.01,-.017321,0.0*
1,1,.008,.01,-.017321*
20,1,.008,.01,-.017321,.00684,-.018794,0.0*
1,1,.008,.00684,-.018794*
20,1,.008,.00684,-.018794,.003473,-.019696,0.0*
1,1,.008,.003473,-.019696*
20,1,.008,.003473,-.019696,0.0,-.02,0.0*
1,1,.008,0.0,-.02*
20,1,.008,0.0,-.02,-.003473,-.019696,0.0*
1,1,.008,-.003473,-.019696*
20,1,.008,-.003473,-.019696,-.00684,-.018794,0.0*
1,1,.008,-.00684,-.018794*
20,1,.008,-.00684,-.018794,-.01,-.017321,0.0*
1,1,.008,-.01,-.017321*
20,1,.008,-.01,-.017321,-.012856,-.015321,0.0*
1,1,.008,-.012856,-.015321*
20,1,.008,-.012856,-.015321,-.015321,-.012856,0.0*
1,1,.008,-.015321,-.012856*
20,1,.008,-.015321,-.012856,-.017321,-.01,0.0*
1,1,.008,-.017321,-.01*
20,1,.008,-.017321,-.01,-.018794,-.00684,0.0*
1,1,.008,-.018794,-.00684*
20,1,.008,-.018794,-.00684,-.019696,-.003473,0.0*
1,1,.008,-.019696,-.003473*
20,1,.008,-.019696,-.003473,-.02,0.0,0.0*
1,1,.008,-.02,0.0*
20,1,.008,-.02,0.0,-.019696,.003473,0.0*
1,1,.008,-.019696,.003473*
20,1,.008,-.019696,.003473,-.018794,.00684,0.0*
1,1,.008,-.018794,.00684*
20,1,.008,-.018794,.00684,-.017321,.01,0.0*
1,1,.008,-.017321,.01*
20,1,.008,-.017321,.01,-.015321,.012856,0.0*
1,1,.008,-.015321,.012856*
20,1,.008,-.015321,.012856,-.012856,.015321,0.0*
1,1,.008,-.012856,.015321*
20,1,.008,-.012856,.015321,-.01,.017321,0.0*
1,1,.008,-.01,.017321*
20,1,.008,-.01,.017321,-.00684,.018794,0.0*
1,1,.008,-.00684,.018794*
20,1,.008,-.00684,.018794,-.003473,.019696,0.0*
1,1,.008,-.003473,.019696*
20,1,.008,-.003473,.019696,0.0,.02,0.0*
1,1,.008,0.0,.02*
20,1,.008,0.0,.02,.003473,.019696,0.0*
1,1,.008,.003473,.019696*
20,1,.008,.003473,.019696,.00684,.018794,0.0*
1,1,.008,.00684,.018794*
20,1,.008,.00684,.018794,.01,.017321,0.0*
1,1,.008,.01,.017321*
20,1,.008,.01,.017321,.012856,.015321,0.0*
1,1,.008,.012856,.015321*
20,1,.008,.012856,.015321,.015321,.012856,0.0*
1,1,.008,.015321,.012856*
20,1,.008,.015321,.012856,.017321,.01,0.0*
1,1,.008,.017321,.01*
20,1,.008,.017321,.01,.018794,.00684,0.0*
1,1,.008,.018794,.00684*
20,1,.008,.018794,.00684,.019696,.003473,0.0*
1,1,.008,.019696,.003473*
20,1,.008,.019696,.003473,.02,0.0,0.0*
1,1,.008,.02,0.0*
1,1,.008,.01,0.0*
20,1,.008,.01,0.0,-.01,0.0,0.0*
1,1,.008,-.01,0.0*
1,1,.008,0.0,.01*
20,1,.008,0.0,.01,0.0,-.01,0.0*
1,1,.008,0.0,-.01*
%
%ADD10MACRO10*%
%ADD12C,.06*%
%ADD13C,.008*%
G75*
%LPD*%
G75*
G54D10*
X207200Y179400D03*
X227200Y195400D03*
X221200D03*
X203200Y235400D03*
X220200Y246400D03*
X229200D03*
X254200Y216400D03*
X255200Y242400D03*
X237200Y246400D03*
X270200Y216400D03*
X264200Y242400D03*
X268200Y262400D03*
X335200Y214400D03*
X332200Y207400D03*
X341200D03*
X349200D03*
X332200Y240400D03*
X341200Y242400D03*
X324200Y252400D03*
X357200Y207400D03*
X542150Y197300D03*
G54D11*
X241200Y169400D03*
X251200D03*
X261200D03*
X271200D03*
X364200D03*
X354200D03*
X468200D03*
X458200D03*
X542150Y172300D03*
G54D12*
G01X302500Y260000D02*
Y195200D01*
G54D13*
G01X497200Y159800D02*
Y284800D01*
X993200D01*
Y159800D01*
X497200D01*
G01Y209800D02*
X993200D01*
G01X497200Y184800D02*
X993200D01*
G01X497200Y234800D02*
X993200D01*
G01X497200Y259800D02*
X993200D01*
G01X587100Y234800D02*
Y159800D01*
G01X788600Y234800D02*
Y159800D01*
G01X915700Y234800D02*
Y159800D01*
G01X508205Y216050D02*
Y228550D01*
X514095D01*
G01X511925Y222508D02*
X508205D01*
G01X521690Y228550D02*
X525410D01*
G01X523550D02*
Y216050D01*
G01X521690D02*
X525410D01*
G01X536880Y222300D02*
X539980D01*
Y218550D01*
X539050Y217300D01*
X537965Y216467D01*
X536415Y216050D01*
X534865Y216467D01*
X533780Y217300D01*
X532850Y218550D01*
X532230Y220008D01*
X531920Y221675D01*
Y223133D01*
X532230Y224383D01*
X532850Y225842D01*
X533780Y227092D01*
X534710Y227925D01*
X535950Y228550D01*
X537035D01*
X538275Y228133D01*
X539205Y227300D01*
G01X544940Y228550D02*
Y219592D01*
X545560Y217716D01*
X546800Y216467D01*
X548350Y216050D01*
X549900Y216467D01*
X551140Y217716D01*
X551760Y219592D01*
Y228550D01*
G01X557650Y216050D02*
Y228550D01*
X561525D01*
X562765Y227925D01*
X563540Y227092D01*
X563850Y225425D01*
X563540Y223758D01*
X562610Y222717D01*
X561525Y222092D01*
X557650D01*
G01X561525D02*
X563850Y216050D01*
G01X576250D02*
X570050D01*
Y228550D01*
X576250D01*
G01X573770Y222508D02*
X570050D01*
G01X586790Y266050D02*
Y278550D01*
X589890D01*
X591130Y277925D01*
X592060Y277092D01*
X592835Y275842D01*
X593455Y274383D01*
X593610Y272300D01*
X593455Y270217D01*
X592835Y268758D01*
X592060Y267508D01*
X591130Y266675D01*
X589890Y266050D01*
X586790D01*
G01X599500D02*
Y278550D01*
X603375D01*
X604615Y277925D01*
X605390Y277092D01*
X605700Y275425D01*
X605390Y273758D01*
X604460Y272717D01*
X603375Y272092D01*
X599500D01*
G01X603375D02*
X605700Y266050D01*
G01X613140Y278550D02*
X616860D01*
G01X615000D02*
Y266050D01*
G01X613140D02*
X616860D01*
G01X624300Y278550D02*
Y266050D01*
X630500D01*
G01X636700Y278550D02*
Y266050D01*
X642900D01*
G01X668010Y277508D02*
X667080Y278133D01*
X665995Y278550D01*
X664755D01*
X663360Y277925D01*
X662275Y276883D01*
X661500Y275633D01*
X660880Y273550D01*
X660725Y271675D01*
X661035Y269800D01*
X661500Y268550D01*
X662430Y267300D01*
X663515Y266467D01*
X664600Y266050D01*
X665685D01*
X666770Y266467D01*
X667700Y267091D01*
X668475Y267925D01*
G01X673745Y266050D02*
Y278550D01*
G01X680255D02*
Y266050D01*
G01Y272300D02*
X673745D01*
G01X685525Y266050D02*
X689400Y278550D01*
X693275Y266050D01*
G01X691880Y270425D02*
X686920D01*
G01X698700Y266050D02*
Y278550D01*
X702575D01*
X703815Y277925D01*
X704590Y277092D01*
X704900Y275425D01*
X704590Y273758D01*
X703660Y272717D01*
X702575Y272092D01*
X698700D01*
G01X702575D02*
X704900Y266050D01*
G01X714200Y278550D02*
Y266050D01*
G01X710635Y278550D02*
X717765D01*
G01X726600Y265633D02*
X726290Y265842D01*
Y266258D01*
X726600Y266467D01*
X726910Y266258D01*
Y265842D01*
X726600Y265633D01*
G01Y271258D02*
X726290Y271467D01*
Y271883D01*
X726600Y272092D01*
X726910Y271883D01*
Y271467D01*
X726600Y271258D01*
G01X751400Y278550D02*
Y266050D01*
G01X747835Y278550D02*
X754965D01*
G01X763800Y266050D02*
X762560Y266258D01*
X761475Y267091D01*
X760545Y268342D01*
X759925Y269800D01*
X759615Y271467D01*
Y273133D01*
X759925Y274800D01*
X760545Y276258D01*
X761475Y277508D01*
X762560Y278342D01*
X763800Y278550D01*
X765040Y278342D01*
X766125Y277508D01*
X767055Y276258D01*
X767675Y274800D01*
X767985Y273133D01*
Y271467D01*
X767675Y269800D01*
X767055Y268342D01*
X766125Y267091D01*
X765040Y266258D01*
X763800Y266050D01*
G01X773100D02*
Y278550D01*
X776820D01*
X778060Y277925D01*
X778990Y276467D01*
X779300Y274800D01*
X778990Y273133D01*
X778215Y271883D01*
X776820Y271258D01*
X773100D01*
G01X801000Y278550D02*
Y266050D01*
G01X798830Y274383D02*
X803170D01*
G01X813400Y266050D02*
X812470Y266258D01*
X811540Y267091D01*
X810920Y268550D01*
X810610Y270217D01*
X810920Y271883D01*
X811540Y273342D01*
X812470Y274175D01*
X813400Y274383D01*
X814330Y274175D01*
X815260Y273342D01*
X815880Y271883D01*
X816035Y270217D01*
X815880Y268550D01*
X815260Y267091D01*
X814330Y266258D01*
X813400Y266050D01*
G01X839440Y272717D02*
X840060Y273342D01*
X840525Y274383D01*
X840835Y275842D01*
X840525Y277092D01*
X839905Y277925D01*
X838820Y278550D01*
X834635D01*
Y266050D01*
X839750D01*
X840835Y266883D01*
X841455Y268133D01*
X841765Y269592D01*
X841455Y271050D01*
X840525Y272300D01*
X839440Y272717D01*
X834635D01*
G01X850600Y266050D02*
X849360Y266258D01*
X848275Y267091D01*
X847345Y268342D01*
X846725Y269800D01*
X846415Y271467D01*
Y273133D01*
X846725Y274800D01*
X847345Y276258D01*
X848275Y277508D01*
X849360Y278342D01*
X850600Y278550D01*
X851840Y278342D01*
X852925Y277508D01*
X853855Y276258D01*
X854475Y274800D01*
X854785Y273133D01*
Y271467D01*
X854475Y269800D01*
X853855Y268342D01*
X852925Y267091D01*
X851840Y266258D01*
X850600Y266050D01*
G01X863000Y278550D02*
Y266050D01*
G01X859435Y278550D02*
X866565D01*
G01X875400D02*
Y266050D01*
G01X871835Y278550D02*
X878965D01*
G01X887800Y266050D02*
X886560Y266258D01*
X885475Y267091D01*
X884545Y268342D01*
X883925Y269800D01*
X883615Y271467D01*
Y273133D01*
X883925Y274800D01*
X884545Y276258D01*
X885475Y277508D01*
X886560Y278342D01*
X887800Y278550D01*
X889040Y278342D01*
X890125Y277508D01*
X891055Y276258D01*
X891675Y274800D01*
X891985Y273133D01*
Y271467D01*
X891675Y269800D01*
X891055Y268342D01*
X890125Y267091D01*
X889040Y266258D01*
X887800Y266050D01*
G01X896170D02*
Y278550D01*
X900200Y268133D01*
X904230Y278550D01*
Y266050D01*
G01X610505Y216050D02*
Y228550D01*
X616395D01*
G01X614225Y222508D02*
X610505D01*
G01X623990Y228550D02*
X627710D01*
G01X625850D02*
Y216050D01*
G01X623990D02*
X627710D01*
G01X634685D02*
Y228550D01*
X641815Y216050D01*
Y228550D01*
G01X648790D02*
X652510D01*
G01X650650D02*
Y216050D01*
G01X648790D02*
X652510D01*
G01X659795Y217716D02*
X661035Y216675D01*
X662430Y216050D01*
X663670D01*
X664910Y216675D01*
X665840Y217716D01*
X666305Y219175D01*
X665995Y220633D01*
X665220Y221883D01*
X663825Y222717D01*
X661965Y223133D01*
X660880Y223967D01*
X660415Y225425D01*
X660725Y226883D01*
X661500Y227925D01*
X662585Y228550D01*
X663670D01*
X664755Y228133D01*
X665685Y227092D01*
G01X672195Y216050D02*
Y228550D01*
G01X678705D02*
Y216050D01*
G01Y222300D02*
X672195D01*
G01X690950Y216050D02*
X684750D01*
Y228550D01*
X690950D01*
G01X688470Y222508D02*
X684750D01*
G01X696840Y216050D02*
Y228550D01*
X699940D01*
X701180Y227925D01*
X702110Y227092D01*
X702885Y225842D01*
X703505Y224383D01*
X703660Y222300D01*
X703505Y220217D01*
X702885Y218758D01*
X702110Y217508D01*
X701180Y216675D01*
X699940Y216050D01*
X696840D01*
G01X708000Y211883D02*
X717300D01*
G01X721795Y217716D02*
X723035Y216675D01*
X724430Y216050D01*
X725670D01*
X726910Y216675D01*
X727840Y217716D01*
X728305Y219175D01*
X727995Y220633D01*
X727220Y221883D01*
X725825Y222717D01*
X723965Y223133D01*
X722880Y223967D01*
X722415Y225425D01*
X722725Y226883D01*
X723500Y227925D01*
X724585Y228550D01*
X725670D01*
X726755Y228133D01*
X727685Y227092D01*
G01X735590Y228550D02*
X739310D01*
G01X737450D02*
Y216050D01*
G01X735590D02*
X739310D01*
G01X746905Y228550D02*
X752795D01*
X746905Y216050D01*
X752795D01*
G01X765350D02*
X759150D01*
Y228550D01*
X765350D01*
G01X762870Y222508D02*
X759150D01*
G01X617325Y241050D02*
X621200Y253550D01*
X625075Y241050D01*
G01X623680Y245425D02*
X618720D01*
G01X630500Y253550D02*
Y241050D01*
X636700D01*
G01X642900Y253550D02*
Y241050D01*
X649100D01*
G01X667390Y253550D02*
Y244592D01*
X668010Y242716D01*
X669250Y241467D01*
X670800Y241050D01*
X672350Y241467D01*
X673590Y242716D01*
X674210Y244592D01*
Y253550D01*
G01X679635Y241050D02*
Y253550D01*
X686765Y241050D01*
Y253550D01*
G01X693740D02*
X697460D01*
G01X695600D02*
Y241050D01*
G01X693740D02*
X697460D01*
G01X708000Y253550D02*
Y241050D01*
G01X704435Y253550D02*
X711565D01*
G01X717145Y242716D02*
X718385Y241675D01*
X719780Y241050D01*
X721020D01*
X722260Y241675D01*
X723190Y242716D01*
X723655Y244175D01*
X723345Y245633D01*
X722570Y246883D01*
X721175Y247717D01*
X719315Y248133D01*
X718230Y248967D01*
X717765Y250425D01*
X718075Y251883D01*
X718850Y252925D01*
X719935Y253550D01*
X721020D01*
X722105Y253133D01*
X723035Y252092D01*
G01X741325Y241050D02*
X745200Y253550D01*
X749075Y241050D01*
G01X747680Y245425D02*
X742720D01*
G01X754500Y241050D02*
Y253550D01*
X758375D01*
X759615Y252925D01*
X760390Y252092D01*
X760700Y250425D01*
X760390Y248758D01*
X759460Y247717D01*
X758375Y247092D01*
X754500D01*
G01X758375D02*
X760700Y241050D01*
G01X773100D02*
X766900D01*
Y253550D01*
X773100D01*
G01X770620Y247508D02*
X766900D01*
G01X792940Y253550D02*
X796660D01*
G01X794800D02*
Y241050D01*
G01X792940D02*
X796660D01*
G01X803635D02*
Y253550D01*
X810765Y241050D01*
Y253550D01*
G01X827970Y241050D02*
Y253550D01*
X832000Y243133D01*
X836030Y253550D01*
Y241050D01*
G01X842540Y253550D02*
X846260D01*
G01X844400D02*
Y241050D01*
G01X842540D02*
X846260D01*
G01X853700Y253550D02*
Y241050D01*
X859900D01*
G01X865945Y242716D02*
X867185Y241675D01*
X868580Y241050D01*
X869820D01*
X871060Y241675D01*
X871990Y242716D01*
X872455Y244175D01*
X872145Y245633D01*
X871370Y246883D01*
X869975Y247717D01*
X868115Y248133D01*
X867030Y248967D01*
X866565Y250425D01*
X866875Y251883D01*
X867650Y252925D01*
X868735Y253550D01*
X869820D01*
X870905Y253133D01*
X871835Y252092D01*
G01X665840Y168550D02*
X666770Y167091D01*
X668010Y166258D01*
X669405Y166050D01*
X670645Y166258D01*
X671885Y167300D01*
X672660Y168550D01*
X672815Y169800D01*
X672505Y171258D01*
X671420Y172300D01*
X670335Y172717D01*
X668940D01*
G01X670335D02*
X671265Y173342D01*
X672040Y174383D01*
X672350Y175633D01*
X672040Y176883D01*
X671265Y177925D01*
X669870Y178550D01*
X668475Y178342D01*
X667080Y177508D01*
G01X678240Y167925D02*
X679170Y166883D01*
X680255Y166258D01*
X681650Y166050D01*
X683045Y166467D01*
X684130Y167300D01*
X684905Y168758D01*
X685060Y170425D01*
X684750Y172092D01*
X683975Y173133D01*
X682890Y173967D01*
X681805Y174175D01*
X680720Y173967D01*
X679325Y173133D01*
X679790Y178550D01*
X683975D01*
G01X694050Y165633D02*
X693740Y165842D01*
Y166258D01*
X694050Y166467D01*
X694360Y166258D01*
Y165842D01*
X694050Y165633D01*
G01X706450Y178550D02*
X705210Y178133D01*
X704280Y177092D01*
X703660Y175842D01*
X703195Y174175D01*
X703040Y172300D01*
X703195Y170425D01*
X703660Y168758D01*
X704280Y167508D01*
X705210Y166467D01*
X706450Y166050D01*
X707690Y166467D01*
X708620Y167508D01*
X709240Y168758D01*
X709705Y170425D01*
X709860Y172300D01*
X709705Y174175D01*
X709240Y175842D01*
X708620Y177092D01*
X707690Y178133D01*
X706450Y178550D01*
G01X666305Y201467D02*
X667235Y202716D01*
X668320Y203342D01*
X669560Y203550D01*
X671110Y203133D01*
X672195Y202092D01*
X672505Y200842D01*
X672350Y199591D01*
X671730Y198550D01*
X668630Y196467D01*
X667235Y195008D01*
X666305Y192925D01*
X665995Y191050D01*
X672505D01*
G01X681650Y203550D02*
X680410Y203133D01*
X679480Y202092D01*
X678860Y200842D01*
X678395Y199175D01*
X678240Y197300D01*
X678395Y195425D01*
X678860Y193758D01*
X679480Y192508D01*
X680410Y191467D01*
X681650Y191050D01*
X682890Y191467D01*
X683820Y192508D01*
X684440Y193758D01*
X684905Y195425D01*
X685060Y197300D01*
X684905Y199175D01*
X684440Y200842D01*
X683820Y202092D01*
X682890Y203133D01*
X681650Y203550D01*
G01X694050Y190633D02*
X693740Y190842D01*
Y191258D01*
X694050Y191467D01*
X694360Y191258D01*
Y190842D01*
X694050Y190633D01*
G01X706450Y203550D02*
X705210Y203133D01*
X704280Y202092D01*
X703660Y200842D01*
X703195Y199175D01*
X703040Y197300D01*
X703195Y195425D01*
X703660Y193758D01*
X704280Y192508D01*
X705210Y191467D01*
X706450Y191050D01*
X707690Y191467D01*
X708620Y192508D01*
X709240Y193758D01*
X709705Y195425D01*
X709860Y197300D01*
X709705Y199175D01*
X709240Y200842D01*
X708620Y202092D01*
X707690Y203133D01*
X706450Y203550D01*
G01X818050Y166050D02*
Y178550D01*
X821770D01*
X823010Y177925D01*
X823940Y176467D01*
X824250Y174800D01*
X823940Y173133D01*
X823165Y171883D01*
X821770Y171258D01*
X818050D01*
G01X830450Y178550D02*
Y166050D01*
X836650D01*
G01X842075D02*
X845950Y178550D01*
X849825Y166050D01*
G01X848430Y170425D02*
X843470D01*
G01X858350Y178550D02*
Y166050D01*
G01X854785Y178550D02*
X861915D01*
G01X873850Y166050D02*
X867650D01*
Y178550D01*
X873850D01*
G01X871370Y172508D02*
X867650D01*
G01X879740Y166050D02*
Y178550D01*
X882840D01*
X884080Y177925D01*
X885010Y177092D01*
X885785Y175842D01*
X886405Y174383D01*
X886560Y172300D01*
X886405Y170217D01*
X885785Y168758D01*
X885010Y167508D01*
X884080Y166675D01*
X882840Y166050D01*
X879740D01*
G01X818050Y216050D02*
Y228550D01*
X821770D01*
X823010Y227925D01*
X823940Y226467D01*
X824250Y224800D01*
X823940Y223133D01*
X823165Y221883D01*
X821770Y221258D01*
X818050D01*
G01X830450Y228550D02*
Y216050D01*
X836650D01*
G01X842075D02*
X845950Y228550D01*
X849825Y216050D01*
G01X848430Y220425D02*
X843470D01*
G01X858350Y228550D02*
Y216050D01*
G01X854785Y228550D02*
X861915D01*
G01X873850Y216050D02*
X867650D01*
Y228550D01*
X873850D01*
G01X871370Y222508D02*
X867650D01*
G01X879740Y216050D02*
Y228550D01*
X882840D01*
X884080Y227925D01*
X885010Y227092D01*
X885785Y225842D01*
X886405Y224383D01*
X886560Y222300D01*
X886405Y220217D01*
X885785Y218758D01*
X885010Y217508D01*
X884080Y216675D01*
X882840Y216050D01*
X879740D01*
G01X818050Y191050D02*
Y203550D01*
X821770D01*
X823010Y202925D01*
X823940Y201467D01*
X824250Y199800D01*
X823940Y198133D01*
X823165Y196883D01*
X821770Y196258D01*
X818050D01*
G01X830450Y203550D02*
Y191050D01*
X836650D01*
G01X842075D02*
X845950Y203550D01*
X849825Y191050D01*
G01X848430Y195425D02*
X843470D01*
G01X858350Y203550D02*
Y191050D01*
G01X854785Y203550D02*
X861915D01*
G01X873850Y191050D02*
X867650D01*
Y203550D01*
X873850D01*
G01X871370Y197508D02*
X867650D01*
G01X879740Y191050D02*
Y203550D01*
X882840D01*
X884080Y202925D01*
X885010Y202092D01*
X885785Y200842D01*
X886405Y199383D01*
X886560Y197300D01*
X886405Y195217D01*
X885785Y193758D01*
X885010Y192508D01*
X884080Y191675D01*
X882840Y191050D01*
X879740D01*
G01X942050Y216050D02*
X940810Y216258D01*
X939725Y217091D01*
X938795Y218342D01*
X938175Y219800D01*
X937865Y221467D01*
Y223133D01*
X938175Y224800D01*
X938795Y226258D01*
X939725Y227508D01*
X940810Y228342D01*
X942050Y228550D01*
X943290Y228342D01*
X944375Y227508D01*
X945305Y226258D01*
X945925Y224800D01*
X946235Y223133D01*
Y221467D01*
X945925Y219800D01*
X945305Y218342D01*
X944375Y217091D01*
X943290Y216258D01*
X942050Y216050D01*
G01X943290Y219383D02*
X945150Y216050D01*
G01X954450Y228550D02*
Y216050D01*
G01X950885Y228550D02*
X958015D01*
G01X966850Y216050D02*
Y221675D01*
X963750Y228550D01*
G01X969950D02*
X966850Y221675D01*
G01X945305Y201467D02*
X946235Y202716D01*
X947320Y203342D01*
X948560Y203550D01*
X950110Y203133D01*
X951195Y202092D01*
X951505Y200842D01*
X951350Y199591D01*
X950730Y198550D01*
X947630Y196467D01*
X946235Y195008D01*
X945305Y192925D01*
X944995Y191050D01*
X951505D01*
G01X960650Y203550D02*
X959410Y203133D01*
X958480Y202092D01*
X957860Y200842D01*
X957395Y199175D01*
X957240Y197300D01*
X957395Y195425D01*
X957860Y193758D01*
X958480Y192508D01*
X959410Y191467D01*
X960650Y191050D01*
X961890Y191467D01*
X962820Y192508D01*
X963440Y193758D01*
X963905Y195425D01*
X964060Y197300D01*
X963905Y199175D01*
X963440Y200842D01*
X962820Y202092D01*
X961890Y203133D01*
X960650Y203550D01*
G01X954450Y166050D02*
X955535Y166258D01*
X956775Y166883D01*
X957550Y167925D01*
X957860Y169383D01*
X957550Y170841D01*
X956620Y172092D01*
X955225Y172717D01*
X953675D01*
X952745Y173133D01*
X951970Y174175D01*
X951660Y175633D01*
X952125Y177092D01*
X953210Y178133D01*
X954450Y178550D01*
X955690Y178133D01*
X956775Y177092D01*
X957240Y175633D01*
X956930Y174175D01*
X956155Y173133D01*
X955225Y172717D01*
X953675D01*
X952280Y172092D01*
X951350Y170841D01*
X951040Y169383D01*
X951350Y167925D01*
X952125Y166883D01*
X953365Y166258D01*
X954450Y166050D01*
M02*
