G04 ================== begin FILE IDENTIFICATION RECORD ==================*
G04 Layout Name:  TIDA-01606_HV_CARDE4_SCH_rev3.brd*
G04 Film Name:    SilkscreenTOP*
G04 File Format:  Gerber RS274X*
G04 File Origin:  Cadence Allegro -unreleased*
G04 Origin Date:  Fri Aug 27 12:34:44 2021*
G04 *
G04 Layer:  REF DES/SILKSCREEN_TOP*
G04 Layer:  PACKAGE GEOMETRY/SILKSCREEN_TOP*
G04 Layer:  BOARD GEOMETRY/SILKSCREEN_TOP*
G04 Layer:  BOARD GEOMETRY/OUTLINE*
G04 *
G04 Offset:    (0.00 0.00)*
G04 Mirror:    No*
G04 Mode:      Positive*
G04 Rotation:  0*
G04 FullContactRelief:  No*
G04 UndefLineWidth:     8.00*
G04 ================== end FILE IDENTIFICATION RECORD ====================*
%FSLAX25Y25*MOIN*%
%IR0*IPPOS*OFA0.00000B0.00000*MIA0B0*SFA1.00000B1.00000*%
%ADD10C,.01*%
%ADD11C,.06*%
%ADD12C,.008*%
%ADD13C,.005*%
%ADD14C,.006*%
%ADD15C,.00787*%
G75*
%LPD*%
G75*
G54D10*
G01X353900Y247700D02*
X352100Y245800D01*
X351800Y245500D01*
Y243700D01*
X331300D01*
G01D02*
Y251100D01*
G01X353900Y222700D02*
X352100Y220800D01*
X351800Y220500D01*
Y218700D01*
X331300D01*
G01X353900Y222700D02*
X351800Y224100D01*
Y226100D01*
X331300D01*
G01Y218700D02*
Y226100D01*
G01X353900Y247700D02*
X351800Y249100D01*
Y251100D01*
X331300D01*
G01X431300Y256200D02*
X433200Y254400D01*
X433500Y254100D01*
X435300D01*
Y233600D01*
G01X431300Y256200D02*
X429900Y254100D01*
X427900D01*
Y233600D01*
G01X435300D02*
X427900D01*
G54D11*
G01X302500Y260000D02*
Y195200D01*
G54D12*
G01X292650Y248700D02*
G03I-1750J0D01*
G01X192683Y195400D02*
Y200400D01*
X194267D01*
X194773Y200150D01*
X195090Y199817D01*
X195217Y199150D01*
X195090Y198483D01*
X194710Y198067D01*
X194267Y197817D01*
X192683D01*
G01X194267D02*
X195217Y195400D01*
G01X197847Y199567D02*
X198227Y200067D01*
X198670Y200317D01*
X199177Y200400D01*
X199810Y200233D01*
X200253Y199817D01*
X200380Y199317D01*
X200317Y198817D01*
X200063Y198400D01*
X198797Y197567D01*
X198227Y196983D01*
X197847Y196150D01*
X197720Y195400D01*
X200380D01*
G01X195143Y192683D02*
X194763Y192933D01*
X194320Y193100D01*
X193813D01*
X193243Y192850D01*
X192800Y192433D01*
X192483Y191933D01*
X192230Y191100D01*
X192167Y190350D01*
X192293Y189600D01*
X192483Y189100D01*
X192863Y188600D01*
X193307Y188267D01*
X193750Y188100D01*
X194193D01*
X194637Y188267D01*
X195017Y188517D01*
X195333Y188850D01*
G01X197457D02*
X197837Y188433D01*
X198280Y188183D01*
X198850Y188100D01*
X199420Y188267D01*
X199863Y188600D01*
X200180Y189183D01*
X200243Y189850D01*
X200117Y190517D01*
X199800Y190933D01*
X199357Y191267D01*
X198913Y191350D01*
X198470Y191267D01*
X197900Y190933D01*
X198090Y193100D01*
X199800D01*
G01X193457Y211800D02*
Y208217D01*
X193710Y207467D01*
X194217Y206967D01*
X194850Y206800D01*
X195483Y206967D01*
X195990Y207467D01*
X196243Y208217D01*
Y211800D01*
G01X199950Y206800D02*
Y211800D01*
X199190Y210800D01*
G01Y206800D02*
X200710D01*
G01X199983Y217900D02*
Y222900D01*
X201567D01*
X202073Y222650D01*
X202390Y222317D01*
X202517Y221650D01*
X202390Y220983D01*
X202010Y220567D01*
X201567Y220317D01*
X199983D01*
G01X201567D02*
X202517Y217900D01*
G01X205147Y219983D02*
X205590Y220567D01*
X205970Y220900D01*
X206477Y221067D01*
X206920Y220900D01*
X207237Y220567D01*
X207490Y220067D01*
X207553Y219483D01*
X207490Y218983D01*
X207237Y218483D01*
X206857Y218067D01*
X206413Y217900D01*
X205907Y218067D01*
X205463Y218567D01*
X205210Y219317D01*
X205147Y220150D01*
X205273Y221233D01*
X205463Y221817D01*
X205780Y222400D01*
X206223Y222817D01*
X206667Y222900D01*
X207110Y222733D01*
X207427Y222317D01*
G01X218683Y182300D02*
Y187300D01*
X220267D01*
X220773Y187050D01*
X221090Y186717D01*
X221217Y186050D01*
X221090Y185383D01*
X220710Y184967D01*
X220267Y184717D01*
X218683D01*
G01X220267D02*
X221217Y182300D01*
G01X223657Y183050D02*
X224037Y182633D01*
X224480Y182383D01*
X225050Y182300D01*
X225620Y182467D01*
X226063Y182800D01*
X226380Y183383D01*
X226443Y184050D01*
X226317Y184717D01*
X226000Y185133D01*
X225557Y185467D01*
X225113Y185550D01*
X224670Y185467D01*
X224100Y185133D01*
X224290Y187300D01*
X226000D01*
G01X216135Y182423D02*
X203773D01*
Y187777D01*
X216135D01*
Y182423D01*
G01X203773Y200077D02*
X216135D01*
Y194723D01*
X203773D01*
Y200077D01*
G01X216135Y188523D02*
X203773D01*
Y193877D01*
X216135D01*
Y188523D01*
G01X220877Y215335D02*
Y202973D01*
X215523D01*
Y215335D01*
X220877D01*
G01X221543Y221983D02*
X221163Y222233D01*
X220720Y222400D01*
X220213D01*
X219643Y222150D01*
X219200Y221733D01*
X218883Y221233D01*
X218630Y220400D01*
X218567Y219650D01*
X218693Y218900D01*
X218883Y218400D01*
X219263Y217900D01*
X219707Y217567D01*
X220150Y217400D01*
X220593D01*
X221037Y217567D01*
X221417Y217817D01*
X221733Y218150D01*
G01X224047Y221567D02*
X224427Y222067D01*
X224870Y222317D01*
X225377Y222400D01*
X226010Y222233D01*
X226453Y221817D01*
X226580Y221317D01*
X226517Y220817D01*
X226263Y220400D01*
X224997Y219567D01*
X224427Y218983D01*
X224047Y218150D01*
X223920Y217400D01*
X226580D01*
G01X205783Y224400D02*
Y229400D01*
X207367D01*
X207873Y229150D01*
X208190Y228817D01*
X208317Y228150D01*
X208190Y227483D01*
X207810Y227067D01*
X207367Y226817D01*
X205783D01*
G01X207367D02*
X208317Y224400D01*
G01X210757Y225400D02*
X211137Y224817D01*
X211643Y224483D01*
X212213Y224400D01*
X212720Y224483D01*
X213227Y224900D01*
X213543Y225400D01*
X213607Y225900D01*
X213480Y226483D01*
X213037Y226900D01*
X212593Y227067D01*
X212023D01*
G01X212593D02*
X212973Y227317D01*
X213290Y227733D01*
X213417Y228233D01*
X213290Y228733D01*
X212973Y229150D01*
X212403Y229400D01*
X211833Y229317D01*
X211263Y228983D01*
G01X227327Y224623D02*
X214965D01*
Y229977D01*
X227327D01*
Y224623D01*
G01X205883Y231200D02*
Y236200D01*
X207467D01*
X207973Y235950D01*
X208290Y235617D01*
X208417Y234950D01*
X208290Y234283D01*
X207910Y233867D01*
X207467Y233617D01*
X205883D01*
G01X207467D02*
X208417Y231200D01*
G01X212250D02*
X212693Y231283D01*
X213200Y231533D01*
X213517Y231950D01*
X213643Y232533D01*
X213517Y233117D01*
X213137Y233617D01*
X212567Y233867D01*
X211933D01*
X211553Y234033D01*
X211237Y234450D01*
X211110Y235033D01*
X211300Y235617D01*
X211743Y236033D01*
X212250Y236200D01*
X212757Y236033D01*
X213200Y235617D01*
X213390Y235033D01*
X213263Y234450D01*
X212947Y234033D01*
X212567Y233867D01*
X211933D01*
X211363Y233617D01*
X210983Y233117D01*
X210857Y232533D01*
X210983Y231950D01*
X211300Y231533D01*
X211807Y231283D01*
X212250Y231200D01*
G01X214765Y236577D02*
X227127D01*
Y231223D01*
X214765D01*
Y236577D01*
G01X217528Y218431D02*
X209662D01*
X209654Y218439D01*
Y222365D01*
X209658Y222369D01*
X217528D01*
Y218431D01*
G01X246683Y208700D02*
Y213700D01*
X248267D01*
X248773Y213450D01*
X249090Y213117D01*
X249217Y212450D01*
X249090Y211783D01*
X248710Y211367D01*
X248267Y211117D01*
X246683D01*
G01X248267D02*
X249217Y208700D01*
G01X253050D02*
Y213700D01*
X252290Y212700D01*
G01Y208700D02*
X253810D01*
G01X233165Y216077D02*
X245527D01*
Y210723D01*
X233165D01*
Y216077D01*
G01X235443Y202283D02*
X235063Y202533D01*
X234620Y202700D01*
X234113D01*
X233543Y202450D01*
X233100Y202033D01*
X232783Y201533D01*
X232530Y200700D01*
X232467Y199950D01*
X232593Y199200D01*
X232783Y198700D01*
X233163Y198200D01*
X233607Y197867D01*
X234050Y197700D01*
X234493D01*
X234937Y197867D01*
X235317Y198117D01*
X235633Y198450D01*
G01X239150Y197700D02*
Y202700D01*
X238390Y201700D01*
G01Y197700D02*
X239910D01*
G01X249343Y223383D02*
X248963Y223633D01*
X248520Y223800D01*
X248013D01*
X247443Y223550D01*
X247000Y223133D01*
X246683Y222633D01*
X246430Y221800D01*
X246367Y221050D01*
X246493Y220300D01*
X246683Y219800D01*
X247063Y219300D01*
X247507Y218967D01*
X247950Y218800D01*
X248393D01*
X248837Y218967D01*
X249217Y219217D01*
X249533Y219550D01*
G01X253810Y218800D02*
Y223800D01*
X251467Y220217D01*
X254633D01*
G01X245527Y216723D02*
X233165D01*
Y222077D01*
X245527D01*
Y216723D01*
G01X246883Y224800D02*
Y229800D01*
X248467D01*
X248973Y229550D01*
X249290Y229217D01*
X249417Y228550D01*
X249290Y227883D01*
X248910Y227467D01*
X248467Y227217D01*
X246883D01*
G01X248467D02*
X249417Y224800D01*
G01X253123D02*
X253250Y225883D01*
X253440Y226800D01*
X253693Y227633D01*
X254010Y228550D01*
X254517Y229800D01*
X251983D01*
G01X245527Y222723D02*
X233165D01*
Y228077D01*
X245527D01*
Y222723D01*
G01X240557Y250200D02*
Y246617D01*
X240810Y245867D01*
X241317Y245367D01*
X241950Y245200D01*
X242583Y245367D01*
X243090Y245867D01*
X243343Y246617D01*
Y250200D01*
G01X245847Y249367D02*
X246227Y249867D01*
X246670Y250117D01*
X247177Y250200D01*
X247810Y250033D01*
X248253Y249617D01*
X248380Y249117D01*
X248317Y248617D01*
X248063Y248200D01*
X246797Y247367D01*
X246227Y246783D01*
X245847Y245950D01*
X245720Y245200D01*
X248380D01*
G01X260243Y239483D02*
X259863Y239733D01*
X259420Y239900D01*
X258913D01*
X258343Y239650D01*
X257900Y239233D01*
X257583Y238733D01*
X257330Y237900D01*
X257267Y237150D01*
X257393Y236400D01*
X257583Y235900D01*
X257963Y235400D01*
X258407Y235067D01*
X258850Y234900D01*
X259293D01*
X259737Y235067D01*
X260117Y235317D01*
X260433Y235650D01*
G01X262557Y235900D02*
X262937Y235317D01*
X263443Y234983D01*
X264013Y234900D01*
X264520Y234983D01*
X265027Y235400D01*
X265343Y235900D01*
X265407Y236400D01*
X265280Y236983D01*
X264837Y237400D01*
X264393Y237567D01*
X263823D01*
G01X264393D02*
X264773Y237817D01*
X265090Y238233D01*
X265217Y238733D01*
X265090Y239233D01*
X264773Y239650D01*
X264203Y239900D01*
X263633Y239817D01*
X263063Y239483D01*
G01X276550Y212500D02*
Y207500D01*
G01X275093Y212500D02*
X278007D01*
G01X281650Y207500D02*
Y212500D01*
X280890Y211500D01*
G01Y207500D02*
X282410D01*
G01X276183Y225457D02*
X276433Y225837D01*
X276600Y226280D01*
Y226787D01*
X276350Y227357D01*
X275933Y227800D01*
X275433Y228117D01*
X274600Y228370D01*
X273850Y228433D01*
X273100Y228307D01*
X272600Y228117D01*
X272100Y227737D01*
X271767Y227293D01*
X271600Y226850D01*
Y226407D01*
X271767Y225963D01*
X272017Y225583D01*
X272350Y225267D01*
G01X273683Y222953D02*
X274267Y222510D01*
X274600Y222130D01*
X274767Y221623D01*
X274600Y221180D01*
X274267Y220863D01*
X273767Y220610D01*
X273183Y220547D01*
X272683Y220610D01*
X272183Y220863D01*
X271767Y221243D01*
X271600Y221687D01*
X271767Y222193D01*
X272267Y222637D01*
X273017Y222890D01*
X273850Y222953D01*
X274933Y222827D01*
X275517Y222637D01*
X276100Y222320D01*
X276517Y221877D01*
X276600Y221433D01*
X276433Y220990D01*
X276017Y220673D01*
G01X270523Y230365D02*
Y242727D01*
X275877D01*
Y230365D01*
X270523D01*
G01X338847Y209800D02*
Y217300D01*
X340713D01*
X341460Y216925D01*
X342020Y216425D01*
X342487Y215675D01*
X342860Y214800D01*
X342953Y213550D01*
X342860Y212300D01*
X342487Y211425D01*
X342020Y210675D01*
X341460Y210175D01*
X340713Y209800D01*
X338847D01*
G01X346627Y216050D02*
X347187Y216800D01*
X347840Y217175D01*
X348587Y217300D01*
X349520Y217050D01*
X350173Y216425D01*
X350360Y215675D01*
X350267Y214925D01*
X349893Y214300D01*
X348027Y213050D01*
X347187Y212175D01*
X346627Y210925D01*
X346440Y209800D01*
X350360D01*
G01X336947Y253900D02*
Y261400D01*
X338813D01*
X339560Y261025D01*
X340120Y260525D01*
X340587Y259775D01*
X340960Y258900D01*
X341053Y257650D01*
X340960Y256400D01*
X340587Y255525D01*
X340120Y254775D01*
X339560Y254275D01*
X338813Y253900D01*
X336947D01*
G01X346500D02*
Y261400D01*
X345380Y259900D01*
G01Y253900D02*
X347620D01*
G01X350607Y176300D02*
Y181300D01*
X351873D01*
X352380Y181050D01*
X352760Y180717D01*
X353077Y180217D01*
X353330Y179633D01*
X353393Y178800D01*
X353330Y177967D01*
X353077Y177383D01*
X352760Y176883D01*
X352380Y176550D01*
X351873Y176300D01*
X350607D01*
G01X358493Y180883D02*
X358113Y181133D01*
X357670Y181300D01*
X357163D01*
X356593Y181050D01*
X356150Y180633D01*
X355833Y180133D01*
X355580Y179300D01*
X355517Y178550D01*
X355643Y177800D01*
X355833Y177300D01*
X356213Y176800D01*
X356657Y176467D01*
X357100Y176300D01*
X357543D01*
X357987Y176467D01*
X358367Y176717D01*
X358683Y177050D01*
G01X361377Y177967D02*
X363023D01*
G01X367300Y176300D02*
Y181300D01*
X366540Y180300D01*
G01Y176300D02*
X368060D01*
G01X367900Y173000D02*
Y165700D01*
X350500D01*
Y173000D01*
X367900D01*
G01X369443Y226983D02*
X369063Y227233D01*
X368620Y227400D01*
X368113D01*
X367543Y227150D01*
X367100Y226733D01*
X366783Y226233D01*
X366530Y225400D01*
X366467Y224650D01*
X366593Y223900D01*
X366783Y223400D01*
X367163Y222900D01*
X367607Y222567D01*
X368050Y222400D01*
X368493D01*
X368937Y222567D01*
X369317Y222817D01*
X369633Y223150D01*
G01X373150Y222400D02*
X373593Y222483D01*
X374100Y222733D01*
X374417Y223150D01*
X374543Y223733D01*
X374417Y224317D01*
X374037Y224817D01*
X373467Y225067D01*
X372833D01*
X372453Y225233D01*
X372137Y225650D01*
X372010Y226233D01*
X372200Y226817D01*
X372643Y227233D01*
X373150Y227400D01*
X373657Y227233D01*
X374100Y226817D01*
X374290Y226233D01*
X374163Y225650D01*
X373847Y225233D01*
X373467Y225067D01*
X372833D01*
X372263Y224817D01*
X371883Y224317D01*
X371757Y223733D01*
X371883Y223150D01*
X372200Y222733D01*
X372707Y222483D01*
X373150Y222400D01*
G01X352165Y227077D02*
X364527D01*
Y221723D01*
X352165D01*
Y227077D01*
G01X376877Y251335D02*
Y238973D01*
X371523D01*
Y251335D01*
X376877D01*
G01X355817Y234543D02*
X355567Y234163D01*
X355400Y233720D01*
Y233213D01*
X355650Y232643D01*
X356067Y232200D01*
X356567Y231883D01*
X357400Y231630D01*
X358150Y231567D01*
X358900Y231693D01*
X359400Y231883D01*
X359900Y232263D01*
X360233Y232707D01*
X360400Y233150D01*
Y233593D01*
X360233Y234037D01*
X359983Y234417D01*
X359650Y234733D01*
G01X360400Y238123D02*
X359317Y238250D01*
X358400Y238440D01*
X357567Y238693D01*
X356650Y239010D01*
X355400Y239517D01*
Y236983D01*
G01X375843Y258183D02*
X375463Y258433D01*
X375020Y258600D01*
X374513D01*
X373943Y258350D01*
X373500Y257933D01*
X373183Y257433D01*
X372930Y256600D01*
X372867Y255850D01*
X372993Y255100D01*
X373183Y254600D01*
X373563Y254100D01*
X374007Y253767D01*
X374450Y253600D01*
X374893D01*
X375337Y253767D01*
X375717Y254017D01*
X376033Y254350D01*
G01X378473Y254183D02*
X378917Y253767D01*
X379423Y253600D01*
X379930Y253767D01*
X380373Y254267D01*
X380690Y255017D01*
X380817Y255767D01*
Y256683D01*
X380690Y257433D01*
X380373Y258100D01*
X379993Y258433D01*
X379550Y258600D01*
X379043Y258433D01*
X378663Y258100D01*
X378410Y257600D01*
X378283Y256933D01*
X378410Y256350D01*
X378727Y255767D01*
X379107Y255433D01*
X379550Y255350D01*
X380057Y255517D01*
X380437Y255933D01*
X380817Y256683D01*
G01X357593Y258683D02*
X357213Y258933D01*
X356770Y259100D01*
X356263D01*
X355693Y258850D01*
X355250Y258433D01*
X354933Y257933D01*
X354680Y257100D01*
X354617Y256350D01*
X354743Y255600D01*
X354933Y255100D01*
X355313Y254600D01*
X355757Y254267D01*
X356200Y254100D01*
X356643D01*
X357087Y254267D01*
X357467Y254517D01*
X357783Y254850D01*
G01X361300Y254100D02*
Y259100D01*
X360540Y258100D01*
G01Y254100D02*
X362060D01*
G01X366400Y259100D02*
X365893Y258933D01*
X365513Y258517D01*
X365260Y258017D01*
X365070Y257350D01*
X365007Y256600D01*
X365070Y255850D01*
X365260Y255183D01*
X365513Y254683D01*
X365893Y254267D01*
X366400Y254100D01*
X366907Y254267D01*
X367287Y254683D01*
X367540Y255183D01*
X367730Y255850D01*
X367793Y256600D01*
X367730Y257350D01*
X367540Y258017D01*
X367287Y258517D01*
X366907Y258933D01*
X366400Y259100D01*
G01X397693Y229483D02*
X397313Y229733D01*
X396870Y229900D01*
X396363D01*
X395793Y229650D01*
X395350Y229233D01*
X395033Y228733D01*
X394780Y227900D01*
X394717Y227150D01*
X394843Y226400D01*
X395033Y225900D01*
X395413Y225400D01*
X395857Y225067D01*
X396300Y224900D01*
X396743D01*
X397187Y225067D01*
X397567Y225317D01*
X397883Y225650D01*
G01X401400Y224900D02*
Y229900D01*
X400640Y228900D01*
G01Y224900D02*
X402160D01*
G01X405107Y225900D02*
X405487Y225317D01*
X405993Y224983D01*
X406563Y224900D01*
X407070Y224983D01*
X407577Y225400D01*
X407893Y225900D01*
X407957Y226400D01*
X407830Y226983D01*
X407387Y227400D01*
X406943Y227567D01*
X406373D01*
G01X406943D02*
X407323Y227817D01*
X407640Y228233D01*
X407767Y228733D01*
X407640Y229233D01*
X407323Y229650D01*
X406753Y229900D01*
X406183Y229817D01*
X405613Y229483D01*
G01X384657Y235600D02*
Y232017D01*
X384910Y231267D01*
X385417Y230767D01*
X386050Y230600D01*
X386683Y230767D01*
X387190Y231267D01*
X387443Y232017D01*
Y235600D01*
G01X389757Y231600D02*
X390137Y231017D01*
X390643Y230683D01*
X391213Y230600D01*
X391720Y230683D01*
X392227Y231100D01*
X392543Y231600D01*
X392607Y232100D01*
X392480Y232683D01*
X392037Y233100D01*
X391593Y233267D01*
X391023D01*
G01X391593D02*
X391973Y233517D01*
X392290Y233933D01*
X392417Y234433D01*
X392290Y234933D01*
X391973Y235350D01*
X391403Y235600D01*
X390833Y235517D01*
X390263Y235183D01*
G01X400083Y268500D02*
Y263500D01*
X402617D01*
G01X406450D02*
Y268500D01*
X405690Y267500D01*
G01Y263500D02*
X407210D01*
G01X414427Y256723D02*
X402065D01*
Y262077D01*
X414427D01*
Y256723D01*
G01X420417Y225993D02*
X420167Y225613D01*
X420000Y225170D01*
Y224663D01*
X420250Y224093D01*
X420667Y223650D01*
X421167Y223333D01*
X422000Y223080D01*
X422750Y223017D01*
X423500Y223143D01*
X424000Y223333D01*
X424500Y223713D01*
X424833Y224157D01*
X425000Y224600D01*
Y225043D01*
X424833Y225487D01*
X424583Y225867D01*
X424250Y226183D01*
G01X425000Y229700D02*
X420000D01*
X421000Y228940D01*
G01X425000D02*
Y230460D01*
G01Y234800D02*
X420000D01*
X421000Y234040D01*
G01X425000D02*
Y235560D01*
G01X425877Y250335D02*
Y237973D01*
X420523D01*
Y250335D01*
X425877D01*
G01X437523Y239973D02*
Y252335D01*
X442877D01*
Y239973D01*
X437523D01*
G01X428747Y224000D02*
Y231500D01*
X430613D01*
X431360Y231125D01*
X431920Y230625D01*
X432387Y229875D01*
X432760Y229000D01*
X432853Y227750D01*
X432760Y226500D01*
X432387Y225625D01*
X431920Y224875D01*
X431360Y224375D01*
X430613Y224000D01*
X428747D01*
G01X439420D02*
Y231500D01*
X435967Y226125D01*
X440633D01*
G01X413217Y225093D02*
X412967Y224713D01*
X412800Y224270D01*
Y223763D01*
X413050Y223193D01*
X413467Y222750D01*
X413967Y222433D01*
X414800Y222180D01*
X415550Y222117D01*
X416300Y222243D01*
X416800Y222433D01*
X417300Y222813D01*
X417633Y223257D01*
X417800Y223700D01*
Y224143D01*
X417633Y224587D01*
X417383Y224967D01*
X417050Y225283D01*
G01X417800Y228800D02*
X412800D01*
X413800Y228040D01*
G01X417800D02*
Y229560D01*
G01X413633Y232697D02*
X413133Y233077D01*
X412883Y233520D01*
X412800Y234027D01*
X412967Y234660D01*
X413383Y235103D01*
X413883Y235230D01*
X414383Y235167D01*
X414800Y234913D01*
X415633Y233647D01*
X416217Y233077D01*
X417050Y232697D01*
X417800Y232570D01*
Y235230D01*
G01X419300Y251960D02*
Y237360D01*
X411300D01*
Y251960D01*
X419300D01*
G01X416983Y263600D02*
Y268600D01*
X418567D01*
X419073Y268350D01*
X419390Y268017D01*
X419517Y267350D01*
X419390Y266683D01*
X419010Y266267D01*
X418567Y266017D01*
X416983D01*
G01X418567D02*
X419517Y263600D01*
G01X422273Y264183D02*
X422717Y263767D01*
X423223Y263600D01*
X423730Y263767D01*
X424173Y264267D01*
X424490Y265017D01*
X424617Y265767D01*
Y266683D01*
X424490Y267433D01*
X424173Y268100D01*
X423793Y268433D01*
X423350Y268600D01*
X422843Y268433D01*
X422463Y268100D01*
X422210Y267600D01*
X422083Y266933D01*
X422210Y266350D01*
X422527Y265767D01*
X422907Y265433D01*
X423350Y265350D01*
X423857Y265517D01*
X424237Y265933D01*
X424617Y266683D01*
G01X427427Y256723D02*
X415065D01*
Y262077D01*
X427427D01*
Y256723D01*
G01X431233Y263800D02*
Y268800D01*
X432817D01*
X433323Y268550D01*
X433640Y268217D01*
X433767Y267550D01*
X433640Y266883D01*
X433260Y266467D01*
X432817Y266217D01*
X431233D01*
G01X432817D02*
X433767Y263800D01*
G01X437600D02*
Y268800D01*
X436840Y267800D01*
G01Y263800D02*
X438360D01*
G01X442700Y268800D02*
X442193Y268633D01*
X441813Y268217D01*
X441560Y267717D01*
X441370Y267050D01*
X441307Y266300D01*
X441370Y265550D01*
X441560Y264883D01*
X441813Y264383D01*
X442193Y263967D01*
X442700Y263800D01*
X443207Y263967D01*
X443587Y264383D01*
X443840Y264883D01*
X444030Y265550D01*
X444093Y266300D01*
X444030Y267050D01*
X443840Y267717D01*
X443587Y268217D01*
X443207Y268633D01*
X442700Y268800D01*
G01X441427Y256723D02*
X429065D01*
Y262077D01*
X441427D01*
Y256723D01*
G01X454307Y176700D02*
Y181700D01*
X455573D01*
X456080Y181450D01*
X456460Y181117D01*
X456777Y180617D01*
X457030Y180033D01*
X457093Y179200D01*
X457030Y178367D01*
X456777Y177783D01*
X456460Y177283D01*
X456080Y176950D01*
X455573Y176700D01*
X454307D01*
G01X462193Y181283D02*
X461813Y181533D01*
X461370Y181700D01*
X460863D01*
X460293Y181450D01*
X459850Y181033D01*
X459533Y180533D01*
X459280Y179700D01*
X459217Y178950D01*
X459343Y178200D01*
X459533Y177700D01*
X459913Y177200D01*
X460357Y176867D01*
X460800Y176700D01*
X461243D01*
X461687Y176867D01*
X462067Y177117D01*
X462383Y177450D01*
G01X465203Y178367D02*
X466723D01*
G01X465900Y179450D02*
Y177283D01*
G01X471000Y176700D02*
Y181700D01*
X470240Y180700D01*
G01Y176700D02*
X471760D01*
G01X471900Y173000D02*
Y165700D01*
X454500D01*
Y173000D01*
X471900D01*
G01X445057Y241200D02*
Y246200D01*
X446323D01*
X446830Y245950D01*
X447210Y245617D01*
X447527Y245117D01*
X447780Y244533D01*
X447843Y243700D01*
X447780Y242867D01*
X447527Y242283D01*
X447210Y241783D01*
X446830Y241450D01*
X446323Y241200D01*
X445057D01*
G01X450157Y242200D02*
X450537Y241617D01*
X451043Y241283D01*
X451613Y241200D01*
X452120Y241283D01*
X452627Y241700D01*
X452943Y242200D01*
X453007Y242700D01*
X452880Y243283D01*
X452437Y243700D01*
X451993Y243867D01*
X451423D01*
G01X451993D02*
X452373Y244117D01*
X452690Y244533D01*
X452817Y245033D01*
X452690Y245533D01*
X452373Y245950D01*
X451803Y246200D01*
X451233Y246117D01*
X450663Y245783D01*
G54D13*
G01X213765Y212481D02*
Y207559D01*
G01X204553D02*
Y212481D01*
G01X245106Y242384D02*
X238176D01*
G01X245106Y230336D02*
X238176D01*
G01X318900Y217100D02*
X287400D01*
Y253100D01*
X318900D01*
Y217100D01*
G01X392106Y238918D02*
X385176D01*
G01Y251202D02*
X392106D01*
G54D14*
G01X223150Y215199D02*
Y200799D01*
G01X231250D02*
Y215199D01*
G54D15*
G01X206994Y201752D02*
G03I-394J0D01*
G01X257082Y213458D02*
X267318D01*
G01X257082Y233144D02*
Y213458D01*
G01X251877Y232620D02*
G03I-393J0D01*
G01X267318Y233144D02*
X257082D01*
G01X267318Y213458D02*
Y233144D01*
G01X334156Y240218D02*
Y229982D01*
G01X353842Y240218D02*
X334156D01*
G01Y229982D02*
X353842D01*
G01D02*
Y240218D01*
G01X359082Y231658D02*
X369318D01*
G01X359082Y251344D02*
Y231658D01*
G01X369318D02*
Y251344D01*
G01D02*
X359082D01*
G01X399082Y232658D02*
X409318D01*
G01X399082Y252344D02*
Y232658D01*
G01X409318D02*
Y252344D01*
G01X398287Y240926D02*
G03I-394J0D01*
G01X409318Y252344D02*
X399082D01*
M02*
