G04 ================== begin FILE IDENTIFICATION RECORD ==================*
G04 Layout Name:  TIDA-01606_HV_CARDE4_SCH_rev3.brd*
G04 Film Name:    SilkscreenBOTTOM*
G04 File Format:  Gerber RS274X*
G04 File Origin:  Cadence Allegro -unreleased*
G04 Origin Date:  Fri Aug 27 12:34:44 2021*
G04 *
G04 Layer:  REF DES/SILKSCREEN_BOTTOM*
G04 Layer:  PACKAGE GEOMETRY/SILKSCREEN_BOTTOM*
G04 Layer:  BOARD GEOMETRY/SILKSCREEN_BOTTOM*
G04 Layer:  BOARD GEOMETRY/OUTLINE*
G04 *
G04 Offset:    (0.00 0.00)*
G04 Mirror:    No*
G04 Mode:      Positive*
G04 Rotation:  0*
G04 FullContactRelief:  No*
G04 UndefLineWidth:     8.00*
G04 ================== end FILE IDENTIFICATION RECORD ====================*
%FSLAX25Y25*MOIN*%
%IR0*IPPOS*OFA0.00000B0.00000*MIA0B0*SFA1.00000B1.00000*%
%ADD10C,.06*%
%ADD11C,.005*%
%ADD12C,.008*%
%ADD13C,.00787*%
G75*
%LPD*%
G75*
G54D10*
G01X302500Y260000D02*
Y195200D01*
G54D11*
G01X216019Y227735D02*
X220941D01*
G01Y236947D02*
X216019D01*
G01X317545Y219187D02*
X287623D01*
G01X317545Y242613D02*
X287623D01*
G01X337739Y229597D02*
X342661D01*
G01Y228023D02*
Y234715D01*
G01X337739D02*
Y228023D01*
G54D12*
G01X208707Y218983D02*
X209087Y219233D01*
X209530Y219400D01*
X210037D01*
X210607Y219150D01*
X211050Y218733D01*
X211367Y218233D01*
X211620Y217400D01*
X211683Y216650D01*
X211557Y215900D01*
X211367Y215400D01*
X210987Y214900D01*
X210543Y214567D01*
X210100Y214400D01*
X209657D01*
X209213Y214567D01*
X208833Y214817D01*
X208517Y215150D01*
G01X206203Y218567D02*
X205823Y219067D01*
X205380Y219317D01*
X204873Y219400D01*
X204240Y219233D01*
X203797Y218817D01*
X203670Y218317D01*
X203733Y217817D01*
X203987Y217400D01*
X205253Y216567D01*
X205823Y215983D01*
X206203Y215150D01*
X206330Y214400D01*
X203670D01*
G01X199900D02*
Y219400D01*
X200660Y218400D01*
G01Y214400D02*
X199140D01*
G01X197400Y236267D02*
X192400D01*
Y234683D01*
X192650Y234177D01*
X192983Y233860D01*
X193650Y233733D01*
X194317Y233860D01*
X194733Y234240D01*
X194983Y234683D01*
Y236267D01*
G01Y234683D02*
X197400Y233733D01*
G01X193233Y231103D02*
X192733Y230723D01*
X192483Y230280D01*
X192400Y229773D01*
X192567Y229140D01*
X192983Y228697D01*
X193483Y228570D01*
X193983Y228633D01*
X194400Y228887D01*
X195233Y230153D01*
X195817Y230723D01*
X196650Y231103D01*
X197400Y231230D01*
Y228570D01*
G01X196400Y226193D02*
X196983Y225813D01*
X197317Y225307D01*
X197400Y224737D01*
X197317Y224230D01*
X196900Y223723D01*
X196400Y223407D01*
X195900Y223343D01*
X195317Y223470D01*
X194900Y223913D01*
X194733Y224357D01*
Y224927D01*
G01Y224357D02*
X194483Y223977D01*
X194067Y223660D01*
X193567Y223533D01*
X193067Y223660D01*
X192650Y223977D01*
X192400Y224547D01*
X192483Y225117D01*
X192817Y225687D01*
G01X229807Y203783D02*
X230187Y204033D01*
X230630Y204200D01*
X231137D01*
X231707Y203950D01*
X232150Y203533D01*
X232467Y203033D01*
X232720Y202200D01*
X232783Y201450D01*
X232657Y200700D01*
X232467Y200200D01*
X232087Y199700D01*
X231643Y199367D01*
X231200Y199200D01*
X230757D01*
X230313Y199367D01*
X229933Y199617D01*
X229617Y199950D01*
G01X226100Y199200D02*
Y204200D01*
X226860Y203200D01*
G01Y199200D02*
X225340D01*
G01X220240D02*
Y204200D01*
X222583Y200617D01*
X219417D01*
G01X230527Y211077D02*
X218165D01*
Y205723D01*
X230527D01*
Y211077D01*
G01X237527Y217577D02*
X225165D01*
Y212223D01*
X237527D01*
Y217577D01*
G01X213200Y210467D02*
X208200D01*
Y208883D01*
X208450Y208377D01*
X208783Y208060D01*
X209450Y207933D01*
X210117Y208060D01*
X210533Y208440D01*
X210783Y208883D01*
Y210467D01*
G01Y208883D02*
X213200Y207933D01*
G01Y204100D02*
X208200D01*
X209200Y204860D01*
G01X213200D02*
Y203340D01*
G01Y199000D02*
X213117Y198557D01*
X212867Y198050D01*
X212450Y197733D01*
X211867Y197607D01*
X211283Y197733D01*
X210783Y198113D01*
X210533Y198683D01*
Y199317D01*
X210367Y199697D01*
X209950Y200013D01*
X209367Y200140D01*
X208783Y199950D01*
X208367Y199507D01*
X208200Y199000D01*
X208367Y198493D01*
X208783Y198050D01*
X209367Y197860D01*
X209950Y197987D01*
X210367Y198303D01*
X210533Y198683D01*
Y199317D01*
X210783Y199887D01*
X211283Y200267D01*
X211867Y200393D01*
X212450Y200267D01*
X212867Y199950D01*
X213117Y199443D01*
X213200Y199000D01*
G01X224135Y217577D02*
X211773D01*
Y212223D01*
X224135D01*
Y217577D01*
G01X199773Y220723D02*
X212135D01*
Y226077D01*
X199773D01*
Y220723D01*
G01X212135Y232077D02*
X199773D01*
Y226723D01*
X212135D01*
Y232077D01*
G01X211877Y233365D02*
Y245727D01*
X206523D01*
Y233365D01*
X211877D01*
G01X224567Y240100D02*
Y243200D01*
X223608D01*
X223302Y243045D01*
X223110Y242838D01*
X223033Y242425D01*
X223110Y242012D01*
X223340Y241753D01*
X223608Y241598D01*
X224567D01*
G01X223608D02*
X223033Y240100D01*
G01X221428Y242683D02*
X221198Y242993D01*
X220930Y243148D01*
X220623Y243200D01*
X220240Y243097D01*
X219972Y242838D01*
X219895Y242528D01*
X219933Y242218D01*
X220087Y241960D01*
X220853Y241443D01*
X221198Y241082D01*
X221428Y240565D01*
X221505Y240100D01*
X219895D01*
G01X218252Y240462D02*
X217983Y240203D01*
X217677Y240100D01*
X217370Y240203D01*
X217102Y240513D01*
X216910Y240978D01*
X216833Y241443D01*
Y242012D01*
X216910Y242477D01*
X217102Y242890D01*
X217332Y243097D01*
X217600Y243200D01*
X217907Y243097D01*
X218137Y242890D01*
X218290Y242580D01*
X218367Y242167D01*
X218290Y241805D01*
X218098Y241443D01*
X217868Y241237D01*
X217600Y241185D01*
X217293Y241288D01*
X217063Y241547D01*
X216833Y242012D01*
G01X226323Y244327D02*
Y231965D01*
X231677D01*
Y244327D01*
X226323D01*
G01X223700Y221307D02*
X221478D01*
X221013Y221460D01*
X220703Y221767D01*
X220600Y222150D01*
X220703Y222533D01*
X221013Y222840D01*
X221478Y222993D01*
X223700D01*
G01X221065Y224407D02*
X220807Y224637D01*
X220652Y224905D01*
X220600Y225250D01*
X220703Y225595D01*
X220910Y225863D01*
X221272Y226055D01*
X221685Y226093D01*
X222098Y226017D01*
X222357Y225825D01*
X222563Y225557D01*
X222615Y225288D01*
X222563Y225020D01*
X222357Y224675D01*
X223700Y224790D01*
Y225825D01*
G01X212207Y252483D02*
X212587Y252733D01*
X213030Y252900D01*
X213537D01*
X214107Y252650D01*
X214550Y252233D01*
X214867Y251733D01*
X215120Y250900D01*
X215183Y250150D01*
X215057Y249400D01*
X214867Y248900D01*
X214487Y248400D01*
X214043Y248067D01*
X213600Y247900D01*
X213157D01*
X212713Y248067D01*
X212333Y248317D01*
X212017Y248650D01*
G01X208500Y247900D02*
Y252900D01*
X209260Y251900D01*
G01Y247900D02*
X207740D01*
G01X203400D02*
X202957Y247983D01*
X202450Y248233D01*
X202133Y248650D01*
X202007Y249233D01*
X202133Y249817D01*
X202513Y250317D01*
X203083Y250567D01*
X203717D01*
X204097Y250733D01*
X204413Y251150D01*
X204540Y251733D01*
X204350Y252317D01*
X203907Y252733D01*
X203400Y252900D01*
X202893Y252733D01*
X202450Y252317D01*
X202260Y251733D01*
X202387Y251150D01*
X202703Y250733D01*
X203083Y250567D01*
X203717D01*
X204287Y250317D01*
X204667Y249817D01*
X204793Y249233D01*
X204667Y248650D01*
X204350Y248233D01*
X203843Y247983D01*
X203400Y247900D01*
G01X236000Y164200D02*
Y174600D01*
X276400D01*
Y164200D01*
X236000D01*
G01X243400Y211367D02*
X238400D01*
Y209783D01*
X238650Y209277D01*
X238983Y208960D01*
X239650Y208833D01*
X240317Y208960D01*
X240733Y209340D01*
X240983Y209783D01*
Y211367D01*
G01Y209783D02*
X243400Y208833D01*
G01Y205000D02*
X238400D01*
X239400Y205760D01*
G01X243400D02*
Y204240D01*
G01Y200027D02*
X242317Y199900D01*
X241400Y199710D01*
X240567Y199457D01*
X239650Y199140D01*
X238400Y198633D01*
Y201167D01*
G01X234458Y227957D02*
X234303Y228187D01*
X234200Y228455D01*
Y228762D01*
X234355Y229107D01*
X234613Y229375D01*
X234923Y229567D01*
X235440Y229720D01*
X235905Y229758D01*
X236370Y229682D01*
X236680Y229567D01*
X236990Y229337D01*
X237197Y229068D01*
X237300Y228800D01*
Y228532D01*
X237197Y228263D01*
X237042Y228033D01*
X236835Y227842D01*
G01X234717Y226428D02*
X234407Y226198D01*
X234252Y225930D01*
X234200Y225623D01*
X234303Y225240D01*
X234562Y224972D01*
X234872Y224895D01*
X235182Y224933D01*
X235440Y225087D01*
X235957Y225853D01*
X236318Y226198D01*
X236835Y226428D01*
X237300Y226505D01*
Y224895D01*
G01X234717Y223328D02*
X234407Y223098D01*
X234252Y222830D01*
X234200Y222523D01*
X234303Y222140D01*
X234562Y221872D01*
X234872Y221795D01*
X235182Y221833D01*
X235440Y221987D01*
X235957Y222753D01*
X236318Y223098D01*
X236835Y223328D01*
X237300Y223405D01*
Y221795D01*
G01X238677Y231965D02*
Y244327D01*
X233323D01*
Y231965D01*
X238677D01*
G01X252867Y239200D02*
Y244200D01*
X251283D01*
X250777Y243950D01*
X250460Y243617D01*
X250333Y242950D01*
X250460Y242283D01*
X250840Y241867D01*
X251283Y241617D01*
X252867D01*
G01X251283D02*
X250333Y239200D01*
G01X247703Y243367D02*
X247323Y243867D01*
X246880Y244117D01*
X246373Y244200D01*
X245740Y244033D01*
X245297Y243617D01*
X245170Y243117D01*
X245233Y242617D01*
X245487Y242200D01*
X246753Y241367D01*
X247323Y240783D01*
X247703Y239950D01*
X247830Y239200D01*
X245170D01*
G01X242793Y239950D02*
X242413Y239533D01*
X241970Y239283D01*
X241400Y239200D01*
X240830Y239367D01*
X240387Y239700D01*
X240070Y240283D01*
X240007Y240950D01*
X240133Y241617D01*
X240450Y242033D01*
X240893Y242367D01*
X241337Y242450D01*
X241780Y242367D01*
X242350Y242033D01*
X242160Y244200D01*
X240450D01*
G01X253035Y237577D02*
X240673D01*
Y232223D01*
X253035D01*
Y237577D01*
G01X252167Y217300D02*
Y222300D01*
X250583D01*
X250077Y222050D01*
X249760Y221717D01*
X249633Y221050D01*
X249760Y220383D01*
X250140Y219967D01*
X250583Y219717D01*
X252167D01*
G01X250583D02*
X249633Y217300D01*
G01X247003Y221467D02*
X246623Y221967D01*
X246180Y222217D01*
X245673Y222300D01*
X245040Y222133D01*
X244597Y221717D01*
X244470Y221217D01*
X244533Y220717D01*
X244787Y220300D01*
X246053Y219467D01*
X246623Y218883D01*
X247003Y218050D01*
X247130Y217300D01*
X244470D01*
G01X240700D02*
Y222300D01*
X241460Y221300D01*
G01Y217300D02*
X239940D01*
G01X253035Y229577D02*
X240673D01*
Y224223D01*
X253035D01*
Y229577D01*
G01X257517Y252107D02*
X257267Y252487D01*
X257100Y252930D01*
Y253437D01*
X257350Y254007D01*
X257767Y254450D01*
X258267Y254767D01*
X259100Y255020D01*
X259850Y255083D01*
X260600Y254957D01*
X261100Y254767D01*
X261600Y254387D01*
X261933Y253943D01*
X262100Y253500D01*
Y253057D01*
X261933Y252613D01*
X261683Y252233D01*
X261350Y251917D01*
G01X257933Y249603D02*
X257433Y249223D01*
X257183Y248780D01*
X257100Y248273D01*
X257267Y247640D01*
X257683Y247197D01*
X258183Y247070D01*
X258683Y247133D01*
X259100Y247387D01*
X259933Y248653D01*
X260517Y249223D01*
X261350Y249603D01*
X262100Y249730D01*
Y247070D01*
G01X257100Y243300D02*
X257267Y243807D01*
X257683Y244187D01*
X258183Y244440D01*
X258850Y244630D01*
X259600Y244693D01*
X260350Y244630D01*
X261017Y244440D01*
X261517Y244187D01*
X261933Y243807D01*
X262100Y243300D01*
X261933Y242793D01*
X261517Y242413D01*
X261017Y242160D01*
X260350Y241970D01*
X259600Y241907D01*
X258850Y241970D01*
X258183Y242160D01*
X257683Y242413D01*
X257267Y242793D01*
X257100Y243300D01*
G01X260677Y224573D02*
Y236935D01*
X255323D01*
Y224573D01*
X260677D01*
G01X274967Y183000D02*
X274650Y182500D01*
X274270Y182167D01*
X273827Y182000D01*
X273320Y182167D01*
X272940Y182500D01*
X272560Y183000D01*
X272433Y183667D01*
Y187000D01*
G01X268600Y182000D02*
Y187000D01*
X269360Y186000D01*
G01Y182000D02*
X267840D01*
G01X276400Y174600D02*
X276000D01*
X271200Y179400D01*
X266200Y174400D01*
G01X277800Y222367D02*
X272800D01*
Y220783D01*
X273050Y220277D01*
X273383Y219960D01*
X274050Y219833D01*
X274717Y219960D01*
X275133Y220340D01*
X275383Y220783D01*
Y222367D01*
G01Y220783D02*
X277800Y219833D01*
G01X273633Y217203D02*
X273133Y216823D01*
X272883Y216380D01*
X272800Y215873D01*
X272967Y215240D01*
X273383Y214797D01*
X273883Y214670D01*
X274383Y214733D01*
X274800Y214987D01*
X275633Y216253D01*
X276217Y216823D01*
X277050Y217203D01*
X277800Y217330D01*
Y214670D01*
G01X272800Y210900D02*
X272967Y211407D01*
X273383Y211787D01*
X273883Y212040D01*
X274550Y212230D01*
X275300Y212293D01*
X276050Y212230D01*
X276717Y212040D01*
X277217Y211787D01*
X277633Y211407D01*
X277800Y210900D01*
X277633Y210393D01*
X277217Y210013D01*
X276717Y209760D01*
X276050Y209570D01*
X275300Y209507D01*
X274550Y209570D01*
X273883Y209760D01*
X273383Y210013D01*
X272967Y210393D01*
X272800Y210900D01*
G01X275427Y229577D02*
X263065D01*
Y224223D01*
X275427D01*
Y229577D01*
G01X269400Y254567D02*
X264400D01*
Y252983D01*
X264650Y252477D01*
X264983Y252160D01*
X265650Y252033D01*
X266317Y252160D01*
X266733Y252540D01*
X266983Y252983D01*
Y254567D01*
G01Y252983D02*
X269400Y252033D01*
G01X265233Y249403D02*
X264733Y249023D01*
X264483Y248580D01*
X264400Y248073D01*
X264567Y247440D01*
X264983Y246997D01*
X265483Y246870D01*
X265983Y246933D01*
X266400Y247187D01*
X267233Y248453D01*
X267817Y249023D01*
X268650Y249403D01*
X269400Y249530D01*
Y246870D01*
G01Y242340D02*
X264400D01*
X267983Y244683D01*
Y241517D01*
G01X275427Y237577D02*
X263065D01*
Y232223D01*
X275427D01*
Y237577D01*
G01X297607Y248683D02*
X297987Y248933D01*
X298430Y249100D01*
X298937D01*
X299507Y248850D01*
X299950Y248433D01*
X300267Y247933D01*
X300520Y247100D01*
X300583Y246350D01*
X300457Y245600D01*
X300267Y245100D01*
X299887Y244600D01*
X299443Y244267D01*
X299000Y244100D01*
X298557D01*
X298113Y244267D01*
X297733Y244517D01*
X297417Y244850D01*
G01X293900Y244100D02*
Y249100D01*
X294660Y248100D01*
G01Y244100D02*
X293140D01*
G01X290003Y246183D02*
X289560Y246767D01*
X289180Y247100D01*
X288673Y247267D01*
X288230Y247100D01*
X287913Y246767D01*
X287660Y246267D01*
X287597Y245683D01*
X287660Y245183D01*
X287913Y244683D01*
X288293Y244267D01*
X288737Y244100D01*
X289243Y244267D01*
X289687Y244767D01*
X289940Y245517D01*
X290003Y246350D01*
X289877Y247433D01*
X289687Y248017D01*
X289370Y248600D01*
X288927Y249017D01*
X288483Y249100D01*
X288040Y248933D01*
X287723Y248517D01*
G01X270560Y242700D02*
X285160D01*
Y250700D01*
X270560D01*
Y242700D01*
G01X295407Y257983D02*
X295787Y258233D01*
X296230Y258400D01*
X296737D01*
X297307Y258150D01*
X297750Y257733D01*
X298067Y257233D01*
X298320Y256400D01*
X298383Y255650D01*
X298257Y254900D01*
X298067Y254400D01*
X297687Y253900D01*
X297243Y253567D01*
X296800Y253400D01*
X296357D01*
X295913Y253567D01*
X295533Y253817D01*
X295217Y254150D01*
G01X291700Y253400D02*
Y258400D01*
X292460Y257400D01*
G01Y253400D02*
X290940D01*
G01X286727D02*
X286600Y254483D01*
X286410Y255400D01*
X286157Y256233D01*
X285840Y257150D01*
X285333Y258400D01*
X287867D01*
G01X271065Y253223D02*
X283427D01*
Y258577D01*
X271065D01*
Y253223D01*
G01X294017Y265600D02*
Y260600D01*
X291483D01*
G01X288853Y264767D02*
X288473Y265267D01*
X288030Y265517D01*
X287523Y265600D01*
X286890Y265433D01*
X286447Y265017D01*
X286320Y264517D01*
X286383Y264017D01*
X286637Y263600D01*
X287903Y262767D01*
X288473Y262183D01*
X288853Y261350D01*
X288980Y260600D01*
X286320D01*
G01X271065Y260223D02*
X283427D01*
Y265577D01*
X271065D01*
Y260223D01*
G01X316743Y251500D02*
Y247917D01*
X316490Y247167D01*
X315983Y246667D01*
X315350Y246500D01*
X314717Y246667D01*
X314210Y247167D01*
X313957Y247917D01*
Y251500D01*
G01X309490Y246500D02*
Y251500D01*
X311833Y247917D01*
X308667D01*
G01X329417Y220507D02*
X329167Y220887D01*
X329000Y221330D01*
Y221837D01*
X329250Y222407D01*
X329667Y222850D01*
X330167Y223167D01*
X331000Y223420D01*
X331750Y223483D01*
X332500Y223357D01*
X333000Y223167D01*
X333500Y222787D01*
X333833Y222343D01*
X334000Y221900D01*
Y221457D01*
X333833Y221013D01*
X333583Y220633D01*
X333250Y220317D01*
G01X334000Y216800D02*
X329000D01*
X330000Y217560D01*
G01X334000D02*
Y216040D01*
G01X333417Y212777D02*
X333833Y212333D01*
X334000Y211827D01*
X333833Y211320D01*
X333333Y210877D01*
X332583Y210560D01*
X331833Y210433D01*
X330917D01*
X330167Y210560D01*
X329500Y210877D01*
X329167Y211257D01*
X329000Y211700D01*
X329167Y212207D01*
X329500Y212587D01*
X330000Y212840D01*
X330667Y212967D01*
X331250Y212840D01*
X331833Y212523D01*
X332167Y212143D01*
X332250Y211700D01*
X332083Y211193D01*
X331667Y210813D01*
X330917Y210433D01*
G01X342500Y224167D02*
X337500D01*
Y222583D01*
X337750Y222077D01*
X338083Y221760D01*
X338750Y221633D01*
X339417Y221760D01*
X339833Y222140D01*
X340083Y222583D01*
Y224167D01*
G01Y222583D02*
X342500Y221633D01*
G01X338333Y219003D02*
X337833Y218623D01*
X337583Y218180D01*
X337500Y217673D01*
X337667Y217040D01*
X338083Y216597D01*
X338583Y216470D01*
X339083Y216533D01*
X339500Y216787D01*
X340333Y218053D01*
X340917Y218623D01*
X341750Y219003D01*
X342500Y219130D01*
Y216470D01*
G01Y212827D02*
X341417Y212700D01*
X340500Y212510D01*
X339667Y212257D01*
X338750Y211940D01*
X337500Y211433D01*
Y213967D01*
G01X355767Y209800D02*
Y214800D01*
X354183D01*
X353677Y214550D01*
X353360Y214217D01*
X353233Y213550D01*
X353360Y212883D01*
X353740Y212467D01*
X354183Y212217D01*
X355767D01*
G01X354183D02*
X353233Y209800D01*
G01X350603Y213967D02*
X350223Y214467D01*
X349780Y214717D01*
X349273Y214800D01*
X348640Y214633D01*
X348197Y214217D01*
X348070Y213717D01*
X348133Y213217D01*
X348387Y212800D01*
X349653Y211967D01*
X350223Y211383D01*
X350603Y210550D01*
X350730Y209800D01*
X348070D01*
G01X344300D02*
X343857Y209883D01*
X343350Y210133D01*
X343033Y210550D01*
X342907Y211133D01*
X343033Y211717D01*
X343413Y212217D01*
X343983Y212467D01*
X344617D01*
X344997Y212633D01*
X345313Y213050D01*
X345440Y213633D01*
X345250Y214217D01*
X344807Y214633D01*
X344300Y214800D01*
X343793Y214633D01*
X343350Y214217D01*
X343160Y213633D01*
X343287Y213050D01*
X343603Y212633D01*
X343983Y212467D01*
X344617D01*
X345187Y212217D01*
X345567Y211717D01*
X345693Y211133D01*
X345567Y210550D01*
X345250Y210133D01*
X344743Y209883D01*
X344300Y209800D01*
G01X333435Y248177D02*
X321073D01*
Y242823D01*
X333435D01*
Y248177D01*
G01X329523Y237335D02*
Y224973D01*
X334877D01*
Y237335D01*
X329523D01*
G01X360067Y239200D02*
Y244200D01*
X358483D01*
X357977Y243950D01*
X357660Y243617D01*
X357533Y242950D01*
X357660Y242283D01*
X358040Y241867D01*
X358483Y241617D01*
X360067D01*
G01X358483D02*
X357533Y239200D01*
G01X353700D02*
Y244200D01*
X354460Y243200D01*
G01Y239200D02*
X352940D01*
G01X349677Y239783D02*
X349233Y239367D01*
X348727Y239200D01*
X348220Y239367D01*
X347777Y239867D01*
X347460Y240617D01*
X347333Y241367D01*
Y242283D01*
X347460Y243033D01*
X347777Y243700D01*
X348157Y244033D01*
X348600Y244200D01*
X349107Y244033D01*
X349487Y243700D01*
X349740Y243200D01*
X349867Y242533D01*
X349740Y241950D01*
X349423Y241367D01*
X349043Y241033D01*
X348600Y240950D01*
X348093Y241117D01*
X347713Y241533D01*
X347333Y242283D01*
G01X356135Y237577D02*
X343773D01*
Y232223D01*
X356135D01*
Y237577D01*
G01Y229977D02*
X343773D01*
Y224623D01*
X356135D01*
Y229977D01*
G01X343773Y216623D02*
X356135D01*
Y221977D01*
X343773D01*
Y216623D01*
G01X344843Y238300D02*
Y243300D01*
X343577D01*
X343070Y243050D01*
X342690Y242717D01*
X342373Y242217D01*
X342120Y241633D01*
X342057Y240800D01*
X342120Y239967D01*
X342373Y239383D01*
X342690Y238883D01*
X343070Y238550D01*
X343577Y238300D01*
X344843D01*
G01X339743Y239050D02*
X339363Y238633D01*
X338920Y238383D01*
X338350Y238300D01*
X337780Y238467D01*
X337337Y238800D01*
X337020Y239383D01*
X336957Y240050D01*
X337083Y240717D01*
X337400Y241133D01*
X337843Y241467D01*
X338287Y241550D01*
X338730Y241467D01*
X339300Y241133D01*
X339110Y243300D01*
X337400D01*
G01X339507Y254883D02*
X339887Y255133D01*
X340330Y255300D01*
X340837D01*
X341407Y255050D01*
X341850Y254633D01*
X342167Y254133D01*
X342420Y253300D01*
X342483Y252550D01*
X342357Y251800D01*
X342167Y251300D01*
X341787Y250800D01*
X341343Y250467D01*
X340900Y250300D01*
X340457D01*
X340013Y250467D01*
X339633Y250717D01*
X339317Y251050D01*
G01X335800Y250300D02*
Y255300D01*
X336560Y254300D01*
G01Y250300D02*
X335040D01*
G01X332093Y251050D02*
X331713Y250633D01*
X331270Y250383D01*
X330700Y250300D01*
X330130Y250467D01*
X329687Y250800D01*
X329370Y251383D01*
X329307Y252050D01*
X329433Y252717D01*
X329750Y253133D01*
X330193Y253467D01*
X330637Y253550D01*
X331080Y253467D01*
X331650Y253133D01*
X331460Y255300D01*
X329750D01*
G01X367617Y210900D02*
Y215900D01*
X366033D01*
X365527Y215650D01*
X365210Y215317D01*
X365083Y214650D01*
X365210Y213983D01*
X365590Y213567D01*
X366033Y213317D01*
X367617D01*
G01X366033D02*
X365083Y210900D01*
G01X360490D02*
Y215900D01*
X362833Y212317D01*
X359667D01*
G01X361523Y210335D02*
Y197973D01*
X366877D01*
Y210335D01*
X361523D01*
G01X368067Y231300D02*
Y234400D01*
X367108D01*
X366802Y234245D01*
X366610Y234038D01*
X366533Y233625D01*
X366610Y233212D01*
X366840Y232953D01*
X367108Y232798D01*
X368067D01*
G01X367108D02*
X366533Y231300D01*
G01X364928Y233883D02*
X364698Y234193D01*
X364430Y234348D01*
X364123Y234400D01*
X363740Y234297D01*
X363472Y234038D01*
X363395Y233728D01*
X363433Y233418D01*
X363587Y233160D01*
X364353Y232643D01*
X364698Y232282D01*
X364928Y231765D01*
X365005Y231300D01*
X363395D01*
G01X361828Y232592D02*
X361560Y232953D01*
X361330Y233160D01*
X361023Y233263D01*
X360755Y233160D01*
X360563Y232953D01*
X360410Y232643D01*
X360372Y232282D01*
X360410Y231972D01*
X360563Y231662D01*
X360793Y231403D01*
X361062Y231300D01*
X361368Y231403D01*
X361637Y231713D01*
X361790Y232178D01*
X361828Y232695D01*
X361752Y233367D01*
X361637Y233728D01*
X361445Y234090D01*
X361177Y234348D01*
X360908Y234400D01*
X360640Y234297D01*
X360448Y234038D01*
G01X369135Y229977D02*
X356773D01*
Y224623D01*
X369135D01*
Y229977D01*
G01X381107Y221283D02*
X381487Y221533D01*
X381930Y221700D01*
X382437D01*
X383007Y221450D01*
X383450Y221033D01*
X383767Y220533D01*
X384020Y219700D01*
X384083Y218950D01*
X383957Y218200D01*
X383767Y217700D01*
X383387Y217200D01*
X382943Y216867D01*
X382500Y216700D01*
X382057D01*
X381613Y216867D01*
X381233Y217117D01*
X380917Y217450D01*
G01X378603Y220867D02*
X378223Y221367D01*
X377780Y221617D01*
X377273Y221700D01*
X376640Y221533D01*
X376197Y221117D01*
X376070Y220617D01*
X376133Y220117D01*
X376387Y219700D01*
X377653Y218867D01*
X378223Y218283D01*
X378603Y217450D01*
X378730Y216700D01*
X376070D01*
G01X373693Y217700D02*
X373313Y217117D01*
X372807Y216783D01*
X372237Y216700D01*
X371730Y216783D01*
X371223Y217200D01*
X370907Y217700D01*
X370843Y218200D01*
X370970Y218783D01*
X371413Y219200D01*
X371857Y219367D01*
X372427D01*
G01X371857D02*
X371477Y219617D01*
X371160Y220033D01*
X371033Y220533D01*
X371160Y221033D01*
X371477Y221450D01*
X372047Y221700D01*
X372617Y221617D01*
X373187Y221283D01*
G01X356773Y216623D02*
X369135D01*
Y221977D01*
X356773D01*
Y216623D01*
G01X369200Y238640D02*
Y224040D01*
X377200D01*
Y238640D01*
X369200D01*
G01X384440Y248400D02*
X369840D01*
Y240400D01*
X384440D01*
Y248400D01*
G01X374400Y251633D02*
X379400D01*
Y253217D01*
X379150Y253723D01*
X378817Y254040D01*
X378150Y254167D01*
X377483Y254040D01*
X377067Y253660D01*
X376817Y253217D01*
Y251633D01*
G01Y253217D02*
X374400Y254167D01*
G01Y258000D02*
X379400D01*
X378400Y257240D01*
G01X374400D02*
Y258760D01*
G01X376483Y261897D02*
X377067Y262340D01*
X377400Y262720D01*
X377567Y263227D01*
X377400Y263670D01*
X377067Y263987D01*
X376567Y264240D01*
X375983Y264303D01*
X375483Y264240D01*
X374983Y263987D01*
X374567Y263607D01*
X374400Y263163D01*
X374567Y262657D01*
X375067Y262213D01*
X375817Y261960D01*
X376650Y261897D01*
X377733Y262023D01*
X378317Y262213D01*
X378900Y262530D01*
X379317Y262973D01*
X379400Y263417D01*
X379233Y263860D01*
X378817Y264177D01*
G01X384700Y237367D02*
X379700D01*
Y235783D01*
X379950Y235277D01*
X380283Y234960D01*
X380950Y234833D01*
X381617Y234960D01*
X382033Y235340D01*
X382283Y235783D01*
Y237367D01*
G01Y235783D02*
X384700Y234833D01*
G01X380533Y232203D02*
X380033Y231823D01*
X379783Y231380D01*
X379700Y230873D01*
X379867Y230240D01*
X380283Y229797D01*
X380783Y229670D01*
X381283Y229733D01*
X381700Y229987D01*
X382533Y231253D01*
X383117Y231823D01*
X383950Y232203D01*
X384700Y232330D01*
Y229670D01*
G01X380533Y227103D02*
X380033Y226723D01*
X379783Y226280D01*
X379700Y225773D01*
X379867Y225140D01*
X380283Y224697D01*
X380783Y224570D01*
X381283Y224633D01*
X381700Y224887D01*
X382533Y226153D01*
X383117Y226723D01*
X383950Y227103D01*
X384700Y227230D01*
Y224570D01*
G01X401640Y248400D02*
X387040D01*
Y240400D01*
X401640D01*
Y248400D01*
G01X418840D02*
X404240D01*
Y240400D01*
X418840D01*
Y248400D01*
G01X391040Y251233D02*
X396040D01*
Y252817D01*
X395790Y253323D01*
X395457Y253640D01*
X394790Y253767D01*
X394123Y253640D01*
X393707Y253260D01*
X393457Y252817D01*
Y251233D01*
G01Y252817D02*
X391040Y253767D01*
G01Y257600D02*
X396040D01*
X395040Y256840D01*
G01X391040D02*
Y258360D01*
G01X391790Y261307D02*
X391373Y261687D01*
X391123Y262130D01*
X391040Y262700D01*
X391207Y263270D01*
X391540Y263713D01*
X392123Y264030D01*
X392790Y264093D01*
X393457Y263967D01*
X393873Y263650D01*
X394207Y263207D01*
X394290Y262763D01*
X394207Y262320D01*
X393873Y261750D01*
X396040Y261940D01*
Y263650D01*
G01X408240Y251233D02*
X413240D01*
Y252817D01*
X412990Y253323D01*
X412657Y253640D01*
X411990Y253767D01*
X411323Y253640D01*
X410907Y253260D01*
X410657Y252817D01*
Y251233D01*
G01Y252817D02*
X408240Y253767D01*
G01Y257600D02*
X413240D01*
X412240Y256840D01*
G01X408240D02*
Y258360D01*
G01Y263460D02*
X413240D01*
X409657Y261117D01*
Y264283D01*
G01X436060Y248400D02*
X421460D01*
Y240400D01*
X436060D01*
Y248400D01*
G01X453260D02*
X438660D01*
Y240400D01*
X453260D01*
Y248400D01*
G01X425460Y251233D02*
X430460D01*
Y252817D01*
X430210Y253323D01*
X429877Y253640D01*
X429210Y253767D01*
X428543Y253640D01*
X428127Y253260D01*
X427877Y252817D01*
Y251233D01*
G01Y252817D02*
X425460Y253767D01*
G01Y257600D02*
X430460D01*
X429460Y256840D01*
G01X425460D02*
Y258360D01*
G01X426460Y261307D02*
X425877Y261687D01*
X425543Y262193D01*
X425460Y262763D01*
X425543Y263270D01*
X425960Y263777D01*
X426460Y264093D01*
X426960Y264157D01*
X427543Y264030D01*
X427960Y263587D01*
X428127Y263143D01*
Y262573D01*
G01Y263143D02*
X428377Y263523D01*
X428793Y263840D01*
X429293Y263967D01*
X429793Y263840D01*
X430210Y263523D01*
X430460Y262953D01*
X430377Y262383D01*
X430043Y261813D01*
G01X470460Y248400D02*
X455860D01*
Y240400D01*
X470460D01*
Y248400D01*
G01X442660Y251233D02*
X447660D01*
Y252817D01*
X447410Y253323D01*
X447077Y253640D01*
X446410Y253767D01*
X445743Y253640D01*
X445327Y253260D01*
X445077Y252817D01*
Y251233D01*
G01Y252817D02*
X442660Y253767D01*
G01Y257600D02*
X447660D01*
X446660Y256840D01*
G01X442660D02*
Y258360D01*
G01X446827Y261497D02*
X447327Y261877D01*
X447577Y262320D01*
X447660Y262827D01*
X447493Y263460D01*
X447077Y263903D01*
X446577Y264030D01*
X446077Y263967D01*
X445660Y263713D01*
X444827Y262447D01*
X444243Y261877D01*
X443410Y261497D01*
X442660Y261370D01*
Y264030D01*
G01X459860Y251233D02*
X464860D01*
Y252817D01*
X464610Y253323D01*
X464277Y253640D01*
X463610Y253767D01*
X462943Y253640D01*
X462527Y253260D01*
X462277Y252817D01*
Y251233D01*
G01Y252817D02*
X459860Y253767D01*
G01Y257600D02*
X464860D01*
X463860Y256840D01*
G01X459860D02*
Y258360D01*
G01Y262700D02*
X464860D01*
X463860Y261940D01*
G01X459860D02*
Y263460D01*
G54D13*
G01X227141Y234900D02*
G03I-393J0D01*
G01X331049Y240762D02*
G03I-394J0D01*
M02*
