G04 ================== begin FILE IDENTIFICATION RECORD ==================*
G04 Layout Name:  TIDA-01606_HV_CARDE4_SCH_rev3.brd*
G04 Film Name:    SoldermaskBOTTOM*
G04 File Format:  Gerber RS274X*
G04 File Origin:  Cadence Allegro -unreleased*
G04 Origin Date:  Fri Aug 27 12:34:44 2021*
G04 *
G04 Layer:  VIA CLASS/SOLDERMASK_BOTTOM*
G04 Layer:  PIN/SOLDERMASK_BOTTOM*
G04 Layer:  PACKAGE GEOMETRY/SOLDERMASK_BOTTOM*
G04 Layer:  BOARD GEOMETRY/SOLDERMASK_BOTTOM*
G04 Layer:  BOARD GEOMETRY/OUTLINE*
G04 *
G04 Offset:    (0.00 0.00)*
G04 Mirror:    No*
G04 Mode:      Positive*
G04 Rotation:  0*
G04 FullContactRelief:  No*
G04 UndefLineWidth:     8.00*
G04 ================== end FILE IDENTIFICATION RECORD ====================*
%FSLAX25Y25*MOIN*%
%IR0*IPPOS*OFA0.00000B0.00000*MIA0B0*SFA1.00000B1.00000*%
%ADD14C,.07*%
%ADD10C,.035*%
%AMMACRO13*
4,1,44,-.02146,-.00787,
.02146,-.00787,
.021801,-.007841,
.022132,-.007754,
.022442,-.007611,
.022723,-.007415,
.022966,-.007174,
.023163,-.006895,
.023309,-.006585,
.023399,-.006255,
.02343,-.005914,
.02343,-.00591,
.02343,.00591,
.0234,.006251,
.023311,.006581,
.023166,.006891,
.022969,.007171,
.022727,.007413,
.022446,.007608,
.022136,.007753,
.021805,.007841,
.021464,.00787,
.02146,.00787,
-.02146,.00787,
-.021801,.007841,
-.022132,.007754,
-.022442,.007611,
-.022723,.007415,
-.022966,.007174,
-.023163,.006895,
-.023309,.006585,
-.023399,.006255,
-.02343,.005914,
-.02343,.00591,
-.02343,-.00591,
-.0234,-.006251,
-.023311,-.006581,
-.023166,-.006891,
-.022969,-.007171,
-.022727,-.007413,
-.022446,-.007608,
-.022136,-.007753,
-.021805,-.007841,
-.021464,-.00787,
-.02146,-.00787,
0.0*
%
%ADD13MACRO13*%
%ADD12R,.03937X.04331*%
%ADD11R,.04331X.03937*%
%AMMACRO16*
4,1,40,-.03248,-.01181,
.03248,-.01181,
.032993,-.011764,
.033491,-.01163,
.033957,-.011411,
.034379,-.011115,
.034742,-.01075,
.035037,-.010327,
.035254,-.00986,
.035386,-.009362,
.03543,-.00886,
.03543,.00886,
.035384,.009373,
.03525,.009871,
.035031,.010337,
.034735,.010759,
.03437,.011122,
.033947,.011417,
.03348,.011634,
.032982,.011766,
.03248,.01181,
-.03248,.01181,
-.032993,.011764,
-.033491,.01163,
-.033957,.011411,
-.034379,.011115,
-.034742,.01075,
-.035037,.010327,
-.035254,.00986,
-.035386,.009362,
-.03543,.00886,
-.03543,-.00886,
-.035384,-.009373,
-.03525,-.009871,
-.035031,-.010337,
-.034735,-.010759,
-.03437,-.011122,
-.033947,-.011417,
-.03348,-.011634,
-.032982,-.011766,
-.03248,-.01181,
0.0*
%
%ADD16MACRO16*%
%ADD18R,.06693X.05906*%
%ADD15R,.05906X.06693*%
%ADD17R,.01969X.01969*%
%ADD19C,.06*%
G75*
%LPD*%
G75*
G36*
G01X287000Y262800D02*
Y184500D01*
X318400D01*
Y262800D01*
X287000D01*
G37*
G54D10*
X207200Y179400D03*
X227200Y195400D03*
X221200D03*
X203200Y235400D03*
X220200Y246400D03*
X229200D03*
X254200Y216400D03*
X255200Y242400D03*
X237200Y246400D03*
X270200Y216400D03*
X264200Y242400D03*
X268200Y262400D03*
X335200Y214400D03*
X332200Y207400D03*
X341200D03*
X349200D03*
X332200Y240400D03*
X341200Y242400D03*
X324200Y252400D03*
X357200Y207400D03*
G54D11*
X221000Y208400D03*
X227692D03*
X228000Y214900D03*
X214608D03*
X221300D03*
X209300Y223400D03*
X202608D03*
Y229400D03*
X209300D03*
X234692Y214900D03*
X243508Y234900D03*
X250200D03*
X243508Y226900D03*
X250200D03*
X265900D03*
X272592D03*
X265900Y234900D03*
X272592D03*
X280592Y255900D03*
X273900D03*
X280592Y262900D03*
X273900D03*
X346608Y234900D03*
Y227300D03*
Y219300D03*
X323908Y245500D03*
X330600D03*
X353300Y234900D03*
Y227300D03*
Y219300D03*
X359608Y227300D03*
X366300D03*
Y219300D03*
X359608D03*
G54D12*
X209200Y242892D03*
Y236200D03*
X229000Y234800D03*
Y241492D03*
X236000D03*
Y234800D03*
X258000Y234100D03*
Y227408D03*
X332200Y227808D03*
Y234500D03*
X364200Y200808D03*
Y207500D03*
G54D13*
X214700Y234900D03*
Y229782D03*
X222260D03*
Y232341D03*
Y234900D03*
G54D14*
X241200Y169400D03*
X251200D03*
X261200D03*
X271200D03*
X364200D03*
X354200D03*
X468200D03*
X458200D03*
G54D15*
X281600Y246700D03*
X274120D03*
X373400Y244400D03*
X380880D03*
X390600D03*
X398080D03*
X407800D03*
X415280D03*
X425020D03*
X432500D03*
X442220D03*
X449700D03*
X459420D03*
X466900D03*
G54D16*
X281600Y238400D03*
Y233400D03*
Y228400D03*
Y223400D03*
X323568D03*
Y228400D03*
Y233400D03*
Y238400D03*
G54D17*
X340200Y235700D03*
Y227038D03*
G54D18*
X373200Y227600D03*
Y235080D03*
G54D19*
G01X302500Y260000D02*
Y195200D01*
M02*
