G04 ================== begin FILE IDENTIFICATION RECORD ==================*
G04 Layout Name:  TIDA-01606_HV_CARDE4_SCH_rev3.brd*
G04 Film Name:    SoldermaskTOP*
G04 File Format:  Gerber RS274X*
G04 File Origin:  Cadence Allegro -unreleased*
G04 Origin Date:  Fri Aug 27 12:34:44 2021*
G04 *
G04 Layer:  VIA CLASS/SOLDERMASK_TOP*
G04 Layer:  PIN/SOLDERMASK_TOP*
G04 Layer:  PACKAGE GEOMETRY/SOLDERMASK_TOP*
G04 Layer:  BOARD GEOMETRY/SOLDERMASK_TOP*
G04 Layer:  BOARD GEOMETRY/OUTLINE*
G04 *
G04 Offset:    (0.00 0.00)*
G04 Mirror:    No*
G04 Mode:      Positive*
G04 Rotation:  0*
G04 FullContactRelief:  No*
G04 UndefLineWidth:     8.00*
G04 ================== end FILE IDENTIFICATION RECORD ====================*
%FSLAX25Y25*MOIN*%
%IR0*IPPOS*OFA0.00000B0.00000*MIA0B0*SFA1.00000B1.00000*%
%ADD17C,.07*%
%ADD12C,.035*%
%ADD10C,.08*%
%AMMACRO23*
4,1,40,-.01801,.01161,
.01801,.01161,
.019018,.011523,
.019996,.011261,
.020913,.010834,
.021743,.010254,
.022459,.009539,
.02304,.008711,
.023468,.007794,
.023731,.006816,
.02382,.00581,
.02382,-.00581,
.023731,-.006818,
.023468,-.007795,
.023039,-.008712,
.022458,-.009541,
.021742,-.010255,
.020912,-.010835,
.019994,-.011262,
.019017,-.011523,
.01801,-.01161,
-.01801,-.01161,
-.019018,-.011523,
-.019996,-.011261,
-.020913,-.010834,
-.021743,-.010254,
-.022459,-.009539,
-.02304,-.008711,
-.023468,-.007794,
-.023731,-.006816,
-.02382,-.00581,
-.02382,.00581,
-.023731,.006818,
-.023468,.007795,
-.023039,.008712,
-.022458,.009541,
-.021742,.010255,
-.020912,.010835,
-.019994,.011262,
-.019017,.011523,
-.01801,.01161,
0.0*
%
%ADD23MACRO23*%
%AMMACRO14*
4,1,44,.00787,.02146,
.00787,-.02146,
.007841,-.021801,
.007754,-.022132,
.007611,-.022442,
.007415,-.022723,
.007174,-.022966,
.006895,-.023163,
.006585,-.023309,
.006255,-.023399,
.005914,-.02343,
.00591,-.02343,
-.00591,-.02343,
-.006251,-.0234,
-.006581,-.023311,
-.006891,-.023166,
-.007171,-.022969,
-.007413,-.022727,
-.007608,-.022446,
-.007753,-.022136,
-.007841,-.021805,
-.00787,-.021464,
-.00787,-.02146,
-.00787,.02146,
-.007841,.021801,
-.007754,.022132,
-.007611,.022442,
-.007415,.022723,
-.007174,.022966,
-.006895,.023163,
-.006585,.023309,
-.006255,.023399,
-.005914,.02343,
-.00591,.02343,
.00591,.02343,
.006251,.0234,
.006581,.023311,
.006891,.023166,
.007171,.022969,
.007413,.022727,
.007608,.022446,
.007753,.022136,
.007841,.021805,
.00787,.021464,
.00787,.02146,
0.0*
%
%ADD14MACRO14*%
%ADD24R,.061X.051*%
%ADD22R,.051X.061*%
%ADD20R,.035X.032*%
%ADD13R,.03937X.04331*%
%ADD11R,.04331X.03937*%
%ADD18R,.04764X.02283*%
%ADD16R,.01969X.02362*%
%ADD15R,.053X.04998*%
%ADD19R,.07874X.04724*%
%ADD25R,.06693X.05906*%
%ADD21R,.04724X.07874*%
%ADD26C,.06*%
G75*
%LPD*%
G75*
G36*
G01X287000Y267900D02*
Y189600D01*
X318400D01*
Y267900D01*
X287000D01*
G37*
G54D10*
X197200Y183400D03*
X469200D03*
Y273400D03*
G54D11*
X206608Y185100D03*
X213300D03*
Y197400D03*
X206608D03*
Y191200D03*
X213300D03*
X217800Y227300D03*
X224492D03*
X224292Y233900D03*
X217600D03*
X242692Y213400D03*
X236000D03*
Y219400D03*
X242692D03*
X236000Y225400D03*
X242692D03*
X361692Y224400D03*
X355000D03*
X404900Y259400D03*
X411592D03*
X417900D03*
X424592D03*
X431900D03*
X438592D03*
G54D20*
X280900Y223100D03*
Y235100D03*
Y247100D03*
X325400Y235100D03*
Y223100D03*
Y247100D03*
G54D21*
X337700Y235100D03*
X350298D03*
G54D12*
X207200Y179400D03*
X227200Y195400D03*
X221200D03*
X203200Y235400D03*
X220200Y246400D03*
X229200D03*
X254200Y216400D03*
X255200Y242400D03*
X237200Y246400D03*
X270200Y216400D03*
X264200Y242400D03*
X268200Y262400D03*
X335200Y214400D03*
X332200Y207400D03*
X341200D03*
X349200D03*
X332200Y240400D03*
X341200Y242400D03*
X324200Y252400D03*
X357200Y207400D03*
G54D13*
X218200Y205808D03*
Y212500D03*
X273200Y239892D03*
Y233200D03*
X374200Y241808D03*
Y248500D03*
X423200Y240808D03*
X440200Y242808D03*
X423200Y247500D03*
X440200Y249500D03*
G54D22*
X334700Y222400D03*
X348500D03*
X334700Y247400D03*
X348500D03*
G54D14*
X206600Y213800D03*
X211718D03*
Y206240D03*
X209159D03*
X206600D03*
G54D23*
X383700Y241320D03*
X393582D03*
X383700Y248800D03*
X393582D03*
Y245060D03*
G54D15*
X227200Y203498D03*
Y212500D03*
G54D24*
X431600Y237000D03*
Y250800D03*
G54D25*
X415300Y240920D03*
Y248400D03*
G54D16*
X211800Y220400D03*
X215382D03*
G54D26*
G01X302500Y260000D02*
Y195200D01*
G54D17*
X241200Y169400D03*
X251200D03*
X261200D03*
X271200D03*
X364200D03*
X354200D03*
X468200D03*
X458200D03*
G54D18*
X236700Y232620D03*
Y236360D03*
Y240100D03*
X246582D03*
Y236360D03*
Y232620D03*
G54D19*
X262200Y217002D03*
Y229600D03*
X364200Y235202D03*
Y247800D03*
X404200Y236202D03*
Y248800D03*
M02*
