M48
INCH
T01C.02
T02C.035
;LEADER: 12 
;HEADER: 
;CODE  : ASCII 
;FILE  : TIDA-01606_HV_CARDE4_SCH_rev3-1-4.drl for  ... layers TOP and BOTTOM
;DESIGN: TIDA-01606_HV_CARDE4_SCH_rev3.brd
;T01 Holesize 1. = 20.000000 Tolerance = +0.000000/-0.000000 PLATED MILS Quantity = 20
;T02 Holesize 2. = 35.000000 Tolerance = +0.000000/-0.000000 PLATED MILS Quantity = 8
%
G90
T01
X0357200Y0207400
R02X-0008000
X0332200Y0207400
X0341200Y0242400
X0332200Y0240400
X0324200Y0252400
X0335200Y0214400
X0203200Y0235400
X0268200Y0262400
X0207200Y0179400
X0264200Y0242400
X0255200Y0242400
X0221200Y0195400
X0237200Y0246400
X0229200Y0246400
X0270200Y0216400
X0220200Y0246400
X0227200Y0195400
X0254200Y0216400
T02
X0468200Y0169400
X0458200Y0169400
X0271200Y0169400
R03X-0010000
X0364200Y0169400
X0354200Y0169400
M30
