G04 ================== begin FILE IDENTIFICATION RECORD ==================*
G04 Layout Name:  TIDA-01606_Gate DriverE4_Sch_Rev18.brd*
G04 Film Name:    BOTTOM*
G04 File Format:  Gerber RS274X*
G04 File Origin:  Cadence Allegro -unreleased*
G04 Origin Date:  Fri Aug 27 12:28:27 2021*
G04 *
G04 Layer:  BOARD GEOMETRY/OUTLINE*
G04 Layer:  ETCH/BOTTOM*
G04 Layer:  PIN/BOTTOM*
G04 Layer:  VIA CLASS/BOTTOM*
G04 *
G04 Offset:    (0.00 0.00)*
G04 Mirror:    No*
G04 Mode:      Positive*
G04 Rotation:  0*
G04 FullContactRelief:  No*
G04 UndefLineWidth:     0.00*
G04 ================== end FILE IDENTIFICATION RECORD ====================*
%FSLAX25Y25*MOIN*%
%IR0*IPPOS*OFA0.00000B0.00000*MIA0B0*SFA1.00000B1.00000*%
%ADD11C,.06*%
%ADD10C,.024*%
%ADD12C,.093*%
%ADD16R,.025X.05*%
%ADD21R,.055X.045*%
%ADD22R,.045X.055*%
%ADD18R,.024X.079*%
%ADD13R,.03937X.04331*%
%ADD19R,.04331X.03937*%
%ADD14R,.05906X.05118*%
%ADD20R,.05118X.05906*%
%ADD17R,.03937X.03937*%
%ADD15R,.07087X.06299*%
%ADD23C,.02*%
%ADD24C,.03*%
%ADD25C,.015*%
%ADD26C,.025*%
G75*
%LPD*%
G75*
G36*
G01X161300Y82000D02*
X170500Y91200D01*
X183200D01*
X183300Y91100D01*
Y86200D01*
X183200Y86100D01*
X180200D01*
X178000Y83900D01*
Y74200D01*
X177900Y74100D01*
X162000D01*
X161300Y74800D01*
Y82000D01*
G37*
G36*
G01X178200Y71700D02*
X178300Y71600D01*
Y63700D01*
X180200Y61800D01*
Y58800D01*
X179200Y57800D01*
X174500D01*
X173300Y59000D01*
Y66400D01*
X173100Y66600D01*
X165100D01*
X165000Y66700D01*
Y71600D01*
X165100Y71700D01*
X178200D01*
G37*
G36*
G01X196100Y91600D02*
X212000D01*
X218400Y85200D01*
Y76200D01*
X216300Y74100D01*
X201600D01*
X201500Y74200D01*
Y80400D01*
X195700Y86200D01*
Y91200D01*
X196100Y91600D01*
G37*
G36*
G01X262800Y82000D02*
X272000Y91200D01*
X284700D01*
X284800Y91100D01*
Y86200D01*
X284700Y86100D01*
X281700D01*
X279500Y83900D01*
Y74200D01*
X279400Y74100D01*
X263500D01*
X262800Y74800D01*
Y82000D01*
G37*
G36*
G01X280700Y62700D02*
Y58600D01*
X279800Y57700D01*
X276100D01*
X274800Y59000D01*
Y65600D01*
X274300Y66100D01*
X265000D01*
X264800Y66300D01*
Y70600D01*
X265400Y71200D01*
X278300D01*
X279000Y70500D01*
Y64400D01*
X280700Y62700D01*
G37*
G36*
G01X297600Y91600D02*
X313500D01*
X319900Y85200D01*
Y76200D01*
X317800Y74100D01*
X303100D01*
X303000Y74200D01*
Y80400D01*
X297200Y86200D01*
Y91200D01*
X297600Y91600D01*
G37*
G36*
G01X381400Y76100D02*
X381300Y76200D01*
Y84000D01*
X381400Y84100D01*
X406200D01*
X407700Y82600D01*
Y75000D01*
X406800Y74100D01*
X394200D01*
X393200Y75100D01*
X389000D01*
X388000Y76100D01*
X381400D01*
G37*
G36*
G01X389100Y72500D02*
X389300Y72700D01*
X393000D01*
X394000Y71700D01*
X405200D01*
X408200Y68700D01*
Y66400D01*
X406900Y65100D01*
X396300D01*
X393000Y68400D01*
X389300D01*
X389100Y68600D01*
Y72500D01*
G37*
G36*
G01X481400Y76100D02*
X481300Y76200D01*
Y84000D01*
X481400Y84100D01*
X506200D01*
X507700Y82600D01*
Y75000D01*
X506800Y74100D01*
X494200D01*
X493200Y75100D01*
X489000D01*
X488000Y76100D01*
X481400D01*
G37*
G36*
G01X489100Y72600D02*
X489200Y72700D01*
X493000D01*
X494000Y71700D01*
X506000D01*
X507700Y70000D01*
Y66100D01*
X506900Y65300D01*
X496400D01*
X493300Y68400D01*
X489200D01*
X489100Y68500D01*
Y72600D01*
G37*
G54D10*
X12500Y17400D03*
X5000D03*
X7500Y27900D03*
X21240Y36140D03*
X15850Y105350D03*
X22500Y88400D03*
X15500D03*
X22500Y93400D03*
X15500D03*
X19000Y90900D03*
X20500Y127900D03*
X48500Y34400D03*
X36500Y127900D03*
X57000Y42900D03*
X69846Y36554D03*
X57000Y52400D03*
X64500Y85282D03*
X68500Y99900D03*
X67500Y89900D03*
X75500Y119400D03*
Y123900D03*
Y139400D03*
X91500Y50900D03*
X89500Y42400D03*
X82700Y40100D03*
X113000Y45900D03*
X113500Y52900D03*
X117000Y75400D03*
Y68900D03*
X152500Y113400D03*
X166300Y63500D03*
X169500D03*
X167750Y60550D03*
X177100Y81800D03*
X177000Y63600D03*
X175300Y60600D03*
X178700D03*
X166300Y85100D03*
X171200Y85200D03*
X178000Y131400D03*
X184500D03*
X205154Y33054D03*
X212000Y46400D03*
X214240Y44640D03*
X203500Y61900D03*
X211500Y62400D03*
X192000Y112900D03*
X197000D03*
X191000Y131400D03*
X221500Y19900D03*
X230000Y27400D03*
X221500Y35900D03*
X234500Y44900D03*
X229000Y34900D03*
X241700Y150200D03*
X242000Y41400D03*
X268500Y59400D03*
X266500Y62400D03*
X266800Y84000D03*
X254800Y125400D03*
X270000Y62400D03*
X276900Y81700D03*
X278500Y63000D03*
X277000Y59900D03*
X280400Y60100D03*
X271200Y83900D03*
X280500Y131800D03*
X293500Y112800D03*
X287000Y131800D03*
X293500D03*
X304500Y61900D03*
X312500Y62400D03*
X316500Y82400D03*
X312000D03*
X298500Y112800D03*
X326000Y30400D03*
X339500Y49900D03*
X337000Y47400D03*
X339740Y45140D03*
X343500Y72400D03*
X323000Y123900D03*
X342000Y127900D03*
X350000Y35400D03*
X358700Y45400D03*
X366240Y40900D03*
X353500Y32400D03*
X372500Y41400D03*
X367500Y71900D03*
X376000D03*
X357000Y122900D03*
X357500Y144900D03*
X362500Y149400D03*
X355900Y140150D03*
X403500Y79400D03*
Y69700D03*
X390500Y134400D03*
Y127900D03*
X379100Y144900D03*
X378100Y149400D03*
X390500Y150400D03*
X377400Y140900D03*
X425500Y27900D03*
X404800Y46600D03*
X406000Y76900D03*
X404500Y60400D03*
X406250Y67350D03*
X424000Y125900D03*
X450000Y33400D03*
X454000Y34900D03*
X439240Y43800D03*
X436000Y46400D03*
X439000Y48900D03*
X443057Y72900D03*
X455500Y123400D03*
X441500Y130400D03*
X466500Y41900D03*
X458500Y45000D03*
X472500Y41900D03*
X466000Y70900D03*
X476500Y72400D03*
X475500Y146900D03*
X504800Y46600D03*
X503000Y79900D03*
X505500Y77400D03*
X503500Y69900D03*
X506000Y67400D03*
X490500Y134400D03*
Y127400D03*
G54D20*
X370740Y56400D03*
X363260D03*
X398740Y60400D03*
X391260D03*
X470740Y56400D03*
X463260D03*
X498740Y60400D03*
X491260D03*
G54D11*
X50000Y22400D03*
X40000D03*
X50000Y12400D03*
X40000D03*
X80000Y22400D03*
X70000D03*
X60000D03*
X80000Y12400D03*
X70000D03*
X60000D03*
X100000Y22400D03*
X90000D03*
X100000Y12400D03*
X90000D03*
X110000Y22400D03*
Y12400D03*
X182500Y17400D03*
X172500D03*
X202500D03*
X192500D03*
X262500D03*
X292500D03*
X282500D03*
X272500D03*
X372500D03*
X362500D03*
X352500D03*
X382500D03*
X452500D03*
X442500D03*
X472500D03*
X462500D03*
G54D21*
X398000Y20100D03*
Y33900D03*
X495000Y20600D03*
Y34400D03*
G54D12*
X134400Y134900D03*
X120700Y131900D03*
X120300Y143100D03*
X167701Y129100D03*
X269800Y130246D03*
X332300Y133000D03*
X433600Y135100D03*
G54D13*
X152500Y124246D03*
Y117554D03*
X176000Y69554D03*
Y76246D03*
X184500Y127246D03*
Y120554D03*
X178000D03*
Y127246D03*
X203500Y69554D03*
Y76246D03*
X197500Y120554D03*
Y127246D03*
X191000D03*
Y120554D03*
X260000Y130246D03*
Y123554D03*
X277000Y69054D03*
Y75746D03*
X293500Y127246D03*
Y120554D03*
X287000Y127246D03*
Y120554D03*
X280500D03*
Y127246D03*
X304500Y69054D03*
Y75746D03*
X300000Y120554D03*
Y127246D03*
X339000Y58054D03*
Y64746D03*
X345500Y58054D03*
Y64746D03*
X323000Y134746D03*
Y128054D03*
X391000Y70554D03*
Y77246D03*
X424000Y130554D03*
Y137246D03*
X439000Y58054D03*
Y64746D03*
X445500Y58054D03*
Y64746D03*
X491000Y70554D03*
Y77246D03*
G54D22*
X391000Y51400D03*
X404800D03*
X504800D03*
X491000D03*
G54D23*
G01X68500Y99900D02*
X63050Y105350D01*
X15850D01*
G01X20500Y127900D02*
X36500D01*
G54D14*
X168000Y69160D03*
Y76640D03*
X211500Y69160D03*
Y76640D03*
X269000Y68660D03*
Y76140D03*
X312500Y68660D03*
Y76140D03*
X398500Y69160D03*
Y76640D03*
X498500Y69160D03*
Y76640D03*
G54D24*
G01X75500Y123900D02*
Y119400D01*
G01X184500Y67388D02*
Y40400D01*
X202500Y22400D01*
Y17400D01*
G01X195000Y67388D02*
X184500D01*
G01X242000Y41400D02*
Y65900D01*
X231260Y76640D01*
X211500D01*
G01X285500Y66888D02*
Y29900D01*
X292500Y22900D01*
Y17400D01*
G01X285500Y66888D02*
X296000D01*
G01X345500Y64746D02*
X339000D01*
G01X380000Y55888D02*
Y41900D01*
X375000Y36900D01*
X366500D01*
G01D02*
Y33522D01*
X369122Y30900D01*
X374500D01*
X382500Y22900D01*
Y17400D01*
G01X366500Y36900D02*
X358500D01*
X354000Y41400D01*
Y55888D01*
G01X430087Y17400D02*
X442500D01*
G01X454000Y55888D02*
Y41400D01*
X458000Y37400D01*
X466500D01*
G01D02*
Y26400D01*
X472500Y20400D01*
Y17400D01*
G01X466500Y37400D02*
X475500D01*
X480000Y41900D01*
Y55888D01*
G01X498740Y60400D02*
Y68920D01*
G01D02*
X498500Y69160D01*
G54D15*
X184500Y67388D03*
Y78412D03*
X195000Y67388D03*
Y78412D03*
X296000Y66888D03*
Y77912D03*
X285500Y66888D03*
Y77912D03*
X354000Y55888D03*
Y66912D03*
X370000Y129388D03*
Y140412D03*
X380000Y55888D03*
Y66912D03*
X454000Y55888D03*
Y66912D03*
X480000Y55888D03*
Y66912D03*
X470000Y129388D03*
Y140412D03*
G54D25*
G01X120300Y143100D02*
X113900Y136700D01*
Y122800D01*
X45000Y53900D01*
Y17400D01*
X50000Y12400D01*
G01X40000Y22400D02*
Y60782D01*
X64500Y85282D01*
G01X69846Y36554D02*
X67692Y34400D01*
X48500D01*
G01X60000Y12400D02*
X65000Y17400D01*
X72000D01*
X75000Y20400D01*
Y42900D01*
X88200Y56100D01*
Y79399D01*
X134400Y125599D01*
Y134900D01*
G01X69846Y36554D02*
Y45900D01*
X85000Y61054D01*
Y85300D01*
X120700Y121000D01*
Y131900D01*
G01X75500Y119400D02*
Y92400D01*
X68382Y85282D01*
X64500D01*
G01X91500Y50900D02*
Y79200D01*
X153350Y141050D01*
X194999D01*
X195949Y140100D01*
X352453D01*
X352503Y140150D01*
X355900D01*
G01X323000Y134746D02*
X319154D01*
X316100Y137800D01*
X194996D01*
X194046Y138750D01*
X154551D01*
X94500Y78699D01*
Y47400D01*
X89500Y42400D01*
G01X260000Y130246D02*
X256781D01*
X251527Y135500D01*
X194043D01*
X193093Y136450D01*
X155950D01*
X97500Y78000D01*
Y61400D01*
X113000Y45900D01*
G01X113500Y52900D02*
X100600Y65800D01*
Y77400D01*
X147446Y124246D01*
X152500D01*
G01X120700Y131900D02*
X134450Y145650D01*
X196905D01*
X197455Y145100D01*
X349300D01*
X353600Y149400D01*
X362500D01*
G01X368500Y150400D02*
X366500Y152400D01*
X352601D01*
X347601Y147400D01*
X202500D01*
X200900Y149000D01*
X126200D01*
X120300Y143100D01*
G01X134400Y134900D02*
X142850Y143350D01*
X195952D01*
X196902Y142400D01*
X351500D01*
X354000Y144900D01*
X357500D01*
G01X152500Y124246D02*
X162847D01*
X167701Y129100D01*
G01X152500Y117554D02*
Y113400D01*
G01X187000Y88650D02*
Y80912D01*
X184500Y78412D01*
G01X178000Y127246D02*
Y131400D01*
G01Y120554D02*
Y115900D01*
X182000Y111900D01*
Y108150D01*
G01X184500Y120554D02*
X178000D01*
G01X167701Y129100D02*
X171801Y133200D01*
X175910D01*
X176860Y134150D01*
X179140D01*
X180090Y133200D01*
X182410D01*
X183360Y134150D01*
X185640D01*
X186590Y133200D01*
X188910D01*
X189860Y134150D01*
X192140D01*
X193090Y133200D01*
X196200D01*
X197500Y131900D01*
Y127246D01*
G01X184500D02*
Y131400D01*
G01X192000Y88650D02*
Y81412D01*
X195000Y78412D01*
G01X203500Y69554D02*
Y61900D01*
G01X211500Y69160D02*
Y62400D01*
G01X197500Y120554D02*
X191000D01*
G01D02*
Y117138D01*
X187000Y113138D01*
Y108150D01*
G01X192000D02*
Y112900D01*
G01X197000Y108150D02*
Y112900D01*
G01X191000Y127246D02*
Y131400D01*
G01X260000Y130246D02*
X269800D01*
G01X254800Y125400D02*
X256646Y123554D01*
X260000D01*
G01X285500Y77912D02*
Y80900D01*
X288500Y83900D01*
Y88650D01*
G01X296000Y77912D02*
Y82312D01*
X293500Y84812D01*
Y88650D01*
G01X283500Y108150D02*
Y114138D01*
X280500Y117138D01*
Y120554D01*
G01X287000D02*
X280500D01*
G01X293500D02*
X300000D01*
G01X293500D02*
Y117138D01*
X288500Y112138D01*
Y108150D01*
G01X280500Y127246D02*
Y131800D01*
G01X269800Y130246D02*
X275054Y135500D01*
X298900D01*
X300000Y134400D01*
Y127246D01*
G01X293500Y108150D02*
Y112800D01*
G01X287000Y127246D02*
Y131800D01*
G01X293500Y127246D02*
Y131800D01*
G01X304500Y69054D02*
Y61900D01*
G01X312500Y68660D02*
Y62400D01*
G01X298500Y108150D02*
Y112800D01*
G01X398000Y20100D02*
Y13400D01*
X390000Y5400D01*
X332000D01*
X325913Y11487D01*
Y17400D01*
G01X340087D02*
X352500D01*
G01X339500Y49900D02*
Y52850D01*
X339000Y53350D01*
Y58054D01*
G01X347500Y80093D02*
Y74893D01*
X345007Y72400D01*
X343500D01*
G01X345500Y64746D02*
Y69393D01*
X349507Y73400D01*
X351007D01*
X352500Y74893D01*
Y80093D01*
G01X354000Y55888D02*
X347666D01*
X345500Y58054D01*
G01X323000Y134746D02*
X330554D01*
X332300Y133000D01*
G01D02*
X338200D01*
X339600Y134400D01*
X346654D01*
G01X323000Y128054D02*
Y123900D01*
G01X347500Y116707D02*
Y123835D01*
X346654Y124681D01*
Y127900D01*
G01D02*
X342000D01*
G01X366240Y40900D02*
X363260Y43880D01*
Y56400D01*
G01X370740D02*
Y44160D01*
X370767Y44133D01*
Y43133D01*
X372500Y41400D01*
G01X363654Y63900D02*
Y73739D01*
X362500Y74893D01*
Y80093D01*
G01X363654Y63900D02*
Y56794D01*
X363260Y56400D01*
G01X367500Y80093D02*
Y71900D01*
G01X357500Y80093D02*
Y74812D01*
X354000Y71312D01*
Y66912D01*
G01X372500Y80093D02*
Y71401D01*
X370346Y69247D01*
Y63900D01*
G01D02*
Y56794D01*
X370740Y56400D01*
G01X357500Y144900D02*
X360100Y142300D01*
Y124307D01*
X362500Y121907D01*
Y116707D01*
G01Y149400D02*
Y126907D01*
X367500Y121907D01*
Y116707D01*
G01X352500D02*
Y123835D01*
X353346Y124681D01*
Y127900D01*
G01Y134400D02*
Y127900D01*
G01X369500Y129900D02*
X372500Y126900D01*
Y126888D01*
G01D02*
X370000Y129388D01*
G01X372500Y116707D02*
Y126888D01*
G01X357500Y116707D02*
Y122400D01*
X357000Y122900D01*
G01X370000Y140412D02*
Y140400D01*
G01X368500Y150400D02*
X370000Y148900D01*
Y140412D01*
G01X470000D02*
Y144812D01*
X468112Y146700D01*
X387700D01*
X382000Y152400D01*
X370500D01*
X368500Y150400D01*
G01X398000Y33900D02*
Y40027D01*
X397846Y40181D01*
Y43400D01*
G01X391260Y60400D02*
Y55660D01*
X391000Y55400D01*
Y51400D01*
G01X391154Y43400D02*
Y47246D01*
X391000Y47400D01*
Y51400D01*
G01X377500Y80093D02*
Y74893D01*
X379493Y72900D01*
X385000D01*
X386500Y71400D01*
Y65554D01*
X391260Y60794D01*
Y60400D01*
G01X376000Y71900D02*
Y70518D01*
X379606Y66912D01*
X380000D01*
G01X398740Y60400D02*
X404500D01*
G01X385346Y134400D02*
X390500D01*
G01X377500Y116707D02*
Y123527D01*
X378654Y124681D01*
Y127900D01*
G01Y134400D02*
Y127900D01*
G01X385346D02*
X390500D01*
G01X385346D02*
Y122303D01*
X382500Y119457D01*
Y116707D01*
G01X462500D02*
Y121907D01*
X460500Y123907D01*
Y137400D01*
X455800Y142100D01*
X384350D01*
X381550Y144900D01*
X379100D01*
G01X467500Y116707D02*
Y121907D01*
X462900Y126507D01*
Y139500D01*
X458000Y144400D01*
X385550D01*
X380550Y149400D01*
X378100D01*
G01X377400Y140900D02*
X379133Y139167D01*
X418860D01*
X420781Y137246D01*
X424000D01*
G01X495000Y20600D02*
Y14900D01*
X485500Y5400D01*
X420001D01*
X415913Y9488D01*
Y17400D01*
G01X404800Y51400D02*
Y46600D01*
G01X424000Y130554D02*
Y125900D01*
G01X433600Y135100D02*
X431500D01*
X429354Y137246D01*
X424000D01*
G01X439000Y58054D02*
Y48900D01*
G01X445500Y64746D02*
Y70343D01*
X452500Y77343D01*
Y80093D01*
G01X457500D02*
Y74812D01*
X454000Y71312D01*
Y66912D01*
G01X447500Y80093D02*
Y77343D01*
X443057Y72900D01*
G01X453346Y136900D02*
Y130400D01*
G01X452500Y116707D02*
Y126335D01*
X453346Y127181D01*
Y130400D01*
G01X455500Y123400D02*
X457500Y121400D01*
Y116707D01*
G01X446654Y130400D02*
X441500D01*
G01X447500Y116707D02*
Y126335D01*
X446654Y127181D01*
Y130400D01*
G01Y136900D02*
X441300D01*
X439500Y135100D01*
X433600D01*
G01X463260Y56400D02*
Y45140D01*
X466500Y41900D01*
G01X470740Y56400D02*
Y43660D01*
X472500Y41900D01*
G01X462500Y80093D02*
Y68273D01*
X463654Y67119D01*
Y63900D01*
G01D02*
Y56794D01*
X463260Y56400D01*
G01X477500Y80093D02*
Y77343D01*
X481943Y72900D01*
X485500D01*
X486500Y71900D01*
Y65554D01*
X491260Y60794D01*
Y60400D01*
G01X467500Y80093D02*
Y74850D01*
X466000Y73350D01*
Y70900D01*
G01X476500Y72400D02*
Y71900D01*
X480000Y68400D01*
Y66912D01*
G01X472500Y80093D02*
Y69273D01*
X470346Y67119D01*
Y63900D01*
G01D02*
Y60681D01*
X470740Y60287D01*
Y56400D01*
G01X477500Y116707D02*
Y123527D01*
X478654Y124681D01*
Y127900D01*
G01Y134400D02*
Y127900D01*
G01X472500Y116707D02*
Y122488D01*
X470000Y124988D01*
Y129388D01*
G01X485346Y127900D02*
Y122303D01*
X482500Y119457D01*
Y116707D01*
G01X470000Y139900D02*
Y140412D01*
G01X504800Y51400D02*
Y46600D01*
G01X485346Y134400D02*
X490500D01*
G01X485346Y127900D02*
X490000D01*
X490500Y127400D01*
G54D16*
X187000Y88650D03*
X182000D03*
Y108150D03*
X187000D03*
X192000Y88650D03*
X197000D03*
X192000Y108150D03*
X197000D03*
X288500Y88650D03*
X283500D03*
X293500D03*
X283500Y108150D03*
X288500D03*
X293500D03*
X298500Y88650D03*
Y108150D03*
G54D26*
G01X439000Y64746D02*
X445500D01*
G01X454000Y55888D02*
X447666D01*
X445500Y58054D01*
G01X495000Y34400D02*
Y40027D01*
X494846Y40181D01*
Y43900D01*
G01X488154D02*
Y48554D01*
X491000Y51400D01*
G01D02*
Y60140D01*
X491260Y60400D01*
G54D17*
X340087Y17400D03*
X325913D03*
X430087D03*
X415913D03*
G54D18*
X347500Y80093D03*
Y116707D03*
X352500Y80093D03*
X357500D03*
X362500D03*
X367500D03*
X372500D03*
Y116707D03*
X367500D03*
X362500D03*
X357500D03*
X352500D03*
X377500Y80093D03*
X382500D03*
Y116707D03*
X377500D03*
X447500Y80093D03*
X452500D03*
Y116707D03*
X447500D03*
X457500Y80093D03*
X462500D03*
X467500D03*
X472500D03*
X477500D03*
X482500D03*
Y116707D03*
X477500D03*
X472500D03*
X467500D03*
X462500D03*
X457500D03*
G54D19*
X346654Y127900D03*
Y134400D03*
X370346Y63900D03*
X363654D03*
X353346Y127900D03*
Y134400D03*
X397846Y43400D03*
X391154D03*
X378654Y134400D03*
X385346D03*
Y127900D03*
X378654D03*
X446654Y130400D03*
X453346D03*
Y136900D03*
X446654D03*
X470346Y63900D03*
X463654D03*
X478654Y127900D03*
Y134400D03*
X494846Y43900D03*
X488154D03*
X485346Y127900D03*
Y134400D03*
M02*
