G04 ================== begin FILE IDENTIFICATION RECORD ==================*
G04 Layout Name:  TIDA-01606_Gate DriverE4_Sch_Rev18.brd*
G04 Film Name:    DrillDimensions*
G04 File Format:  Gerber RS274X*
G04 File Origin:  Cadence Allegro -unreleased*
G04 Origin Date:  Fri Aug 27 12:28:27 2021*
G04 *
G04 Layer:  MANUFACTURING/NCLEGEND-1-4*
G04 Layer:  MANUFACTURING/NCDRILL_LEGEND*
G04 Layer:  MANUFACTURING/NCDRILL_FIGURE*
G04 Layer:  BOARD GEOMETRY/OUTLINE*
G04 Layer:  BOARD GEOMETRY/DIMENSION*
G04 *
G04 Offset:    (0.00 0.00)*
G04 Mirror:    No*
G04 Mode:      Positive*
G04 Rotation:  0*
G04 FullContactRelief:  No*
G04 UndefLineWidth:     8.00*
G04 ================== end FILE IDENTIFICATION RECORD ====================*
%FSLAX25Y25*MOIN*%
%IR0*IPPOS*OFA0.00000B0.00000*MIA0B0*SFA1.00000B1.00000*%
%AMMACRO12*
1,1,.008,0.0,.0175*
20,1,.008,0.0,.0175,.0125,-.0175,0.0*
1,1,.008,.0125,-.0175*
20,1,.008,.0125,-.0175,-.0125,-.0175,0.0*
1,1,.008,-.0125,-.0175*
20,1,.008,-.0125,-.0175,0.0,.0175,0.0*
1,1,.008,0.0,.0175*
1,1,.008,.00458,.00521*
20,1,.008,.00458,.00521,.00333,.00583,0.0*
1,1,.008,.00333,.00583*
20,1,.008,.00333,.00583,.00188,.00625,0.0*
1,1,.008,.00188,.00625*
20,1,.008,.00188,.00625,.00021,.00625,0.0*
1,1,.008,.00021,.00625*
20,1,.008,.00021,.00625,-.00167,.00562,0.0*
1,1,.008,-.00167,.00562*
20,1,.008,-.00167,.00562,-.00312,.00458,0.0*
1,1,.008,-.00312,.00458*
20,1,.008,-.00312,.00458,-.00417,.00333,0.0*
1,1,.008,-.00417,.00333*
20,1,.008,-.00417,.00333,-.005,.00125,0.0*
1,1,.008,-.005,.00125*
20,1,.008,-.005,.00125,-.00521,-.00063,0.0*
1,1,.008,-.00521,-.00063*
20,1,.008,-.00521,-.00063,-.00479,-.0025,0.0*
1,1,.008,-.00479,-.0025*
20,1,.008,-.00479,-.0025,-.00417,-.00375,0.0*
1,1,.008,-.00417,-.00375*
20,1,.008,-.00417,-.00375,-.00292,-.005,0.0*
1,1,.008,-.00292,-.005*
20,1,.008,-.00292,-.005,-.00146,-.00583,0.0*
1,1,.008,-.00146,-.00583*
20,1,.008,-.00146,-.00583,0.0,-.00625,0.0*
1,1,.008,0.0,-.00625*
20,1,.008,0.0,-.00625,.00146,-.00625,0.0*
1,1,.008,.00146,-.00625*
20,1,.008,.00146,-.00625,.00292,-.00583,0.0*
1,1,.008,.00292,-.00583*
20,1,.008,.00292,-.00583,.00417,-.00521,0.0*
1,1,.008,.00417,-.00521*
20,1,.008,.00417,-.00521,.00521,-.00438,0.0*
1,1,.008,.00521,-.00438*
%
%ADD12MACRO12*%
%AMMACRO13*
1,1,.008,.025,0.0*
20,1,.008,.025,0.0,.02462,-.004341,0.0*
1,1,.008,.02462,-.004341*
20,1,.008,.02462,-.004341,.023492,-.008551,0.0*
1,1,.008,.023492,-.008551*
20,1,.008,.023492,-.008551,.021651,-.0125,0.0*
1,1,.008,.021651,-.0125*
20,1,.008,.021651,-.0125,.019151,-.01607,0.0*
1,1,.008,.019151,-.01607*
20,1,.008,.019151,-.01607,.01607,-.019151,0.0*
1,1,.008,.01607,-.019151*
20,1,.008,.01607,-.019151,.0125,-.021651,0.0*
1,1,.008,.0125,-.021651*
20,1,.008,.0125,-.021651,.008551,-.023492,0.0*
1,1,.008,.008551,-.023492*
20,1,.008,.008551,-.023492,.004341,-.02462,0.0*
1,1,.008,.004341,-.02462*
20,1,.008,.004341,-.02462,0.0,-.025,0.0*
1,1,.008,0.0,-.025*
20,1,.008,0.0,-.025,-.004341,-.02462,0.0*
1,1,.008,-.004341,-.02462*
20,1,.008,-.004341,-.02462,-.008551,-.023492,0.0*
1,1,.008,-.008551,-.023492*
20,1,.008,-.008551,-.023492,-.0125,-.021651,0.0*
1,1,.008,-.0125,-.021651*
20,1,.008,-.0125,-.021651,-.01607,-.019151,0.0*
1,1,.008,-.01607,-.019151*
20,1,.008,-.01607,-.019151,-.019151,-.01607,0.0*
1,1,.008,-.019151,-.01607*
20,1,.008,-.019151,-.01607,-.021651,-.0125,0.0*
1,1,.008,-.021651,-.0125*
20,1,.008,-.021651,-.0125,-.023492,-.008551,0.0*
1,1,.008,-.023492,-.008551*
20,1,.008,-.023492,-.008551,-.02462,-.004341,0.0*
1,1,.008,-.02462,-.004341*
20,1,.008,-.02462,-.004341,-.025,0.0,0.0*
1,1,.008,-.025,0.0*
20,1,.008,-.025,0.0,-.02462,.004341,0.0*
1,1,.008,-.02462,.004341*
20,1,.008,-.02462,.004341,-.023492,.008551,0.0*
1,1,.008,-.023492,.008551*
20,1,.008,-.023492,.008551,-.021651,.0125,0.0*
1,1,.008,-.021651,.0125*
20,1,.008,-.021651,.0125,-.019151,.01607,0.0*
1,1,.008,-.019151,.01607*
20,1,.008,-.019151,.01607,-.01607,.019151,0.0*
1,1,.008,-.01607,.019151*
20,1,.008,-.01607,.019151,-.0125,.021651,0.0*
1,1,.008,-.0125,.021651*
20,1,.008,-.0125,.021651,-.008551,.023492,0.0*
1,1,.008,-.008551,.023492*
20,1,.008,-.008551,.023492,-.004341,.02462,0.0*
1,1,.008,-.004341,.02462*
20,1,.008,-.004341,.02462,0.0,.025,0.0*
1,1,.008,0.0,.025*
20,1,.008,0.0,.025,.004341,.02462,0.0*
1,1,.008,.004341,.02462*
20,1,.008,.004341,.02462,.008551,.023492,0.0*
1,1,.008,.008551,.023492*
20,1,.008,.008551,.023492,.0125,.021651,0.0*
1,1,.008,.0125,.021651*
20,1,.008,.0125,.021651,.01607,.019151,0.0*
1,1,.008,.01607,.019151*
20,1,.008,.01607,.019151,.019151,.01607,0.0*
1,1,.008,.019151,.01607*
20,1,.008,.019151,.01607,.021651,.0125,0.0*
1,1,.008,.021651,.0125*
20,1,.008,.021651,.0125,.023492,.008551,0.0*
1,1,.008,.023492,.008551*
20,1,.008,.023492,.008551,.02462,.004341,0.0*
1,1,.008,.02462,.004341*
20,1,.008,.02462,.004341,.025,0.0,0.0*
1,1,.008,.025,0.0*
%
%ADD13MACRO13*%
%AMMACRO10*
1,1,.008,.025,0.0*
20,1,.008,.025,0.0,.02462,-.004341,0.0*
1,1,.008,.02462,-.004341*
20,1,.008,.02462,-.004341,.023492,-.008551,0.0*
1,1,.008,.023492,-.008551*
20,1,.008,.023492,-.008551,.021651,-.0125,0.0*
1,1,.008,.021651,-.0125*
20,1,.008,.021651,-.0125,.019151,-.01607,0.0*
1,1,.008,.019151,-.01607*
20,1,.008,.019151,-.01607,.01607,-.019151,0.0*
1,1,.008,.01607,-.019151*
20,1,.008,.01607,-.019151,.0125,-.021651,0.0*
1,1,.008,.0125,-.021651*
20,1,.008,.0125,-.021651,.008551,-.023492,0.0*
1,1,.008,.008551,-.023492*
20,1,.008,.008551,-.023492,.004341,-.02462,0.0*
1,1,.008,.004341,-.02462*
20,1,.008,.004341,-.02462,0.0,-.025,0.0*
1,1,.008,0.0,-.025*
20,1,.008,0.0,-.025,-.004341,-.02462,0.0*
1,1,.008,-.004341,-.02462*
20,1,.008,-.004341,-.02462,-.008551,-.023492,0.0*
1,1,.008,-.008551,-.023492*
20,1,.008,-.008551,-.023492,-.0125,-.021651,0.0*
1,1,.008,-.0125,-.021651*
20,1,.008,-.0125,-.021651,-.01607,-.019151,0.0*
1,1,.008,-.01607,-.019151*
20,1,.008,-.01607,-.019151,-.019151,-.01607,0.0*
1,1,.008,-.019151,-.01607*
20,1,.008,-.019151,-.01607,-.021651,-.0125,0.0*
1,1,.008,-.021651,-.0125*
20,1,.008,-.021651,-.0125,-.023492,-.008551,0.0*
1,1,.008,-.023492,-.008551*
20,1,.008,-.023492,-.008551,-.02462,-.004341,0.0*
1,1,.008,-.02462,-.004341*
20,1,.008,-.02462,-.004341,-.025,0.0,0.0*
1,1,.008,-.025,0.0*
20,1,.008,-.025,0.0,-.02462,.004341,0.0*
1,1,.008,-.02462,.004341*
20,1,.008,-.02462,.004341,-.023492,.008551,0.0*
1,1,.008,-.023492,.008551*
20,1,.008,-.023492,.008551,-.021651,.0125,0.0*
1,1,.008,-.021651,.0125*
20,1,.008,-.021651,.0125,-.019151,.01607,0.0*
1,1,.008,-.019151,.01607*
20,1,.008,-.019151,.01607,-.01607,.019151,0.0*
1,1,.008,-.01607,.019151*
20,1,.008,-.01607,.019151,-.0125,.021651,0.0*
1,1,.008,-.0125,.021651*
20,1,.008,-.0125,.021651,-.008551,.023492,0.0*
1,1,.008,-.008551,.023492*
20,1,.008,-.008551,.023492,-.004341,.02462,0.0*
1,1,.008,-.004341,.02462*
20,1,.008,-.004341,.02462,0.0,.025,0.0*
1,1,.008,0.0,.025*
20,1,.008,0.0,.025,.004341,.02462,0.0*
1,1,.008,.004341,.02462*
20,1,.008,.004341,.02462,.008551,.023492,0.0*
1,1,.008,.008551,.023492*
20,1,.008,.008551,.023492,.0125,.021651,0.0*
1,1,.008,.0125,.021651*
20,1,.008,.0125,.021651,.01607,.019151,0.0*
1,1,.008,.01607,.019151*
20,1,.008,.01607,.019151,.019151,.01607,0.0*
1,1,.008,.019151,.01607*
20,1,.008,.019151,.01607,.021651,.0125,0.0*
1,1,.008,.021651,.0125*
20,1,.008,.021651,.0125,.023492,.008551,0.0*
1,1,.008,.023492,.008551*
20,1,.008,.023492,.008551,.02462,.004341,0.0*
1,1,.008,.02462,.004341*
20,1,.008,.02462,.004341,.025,0.0,0.0*
1,1,.008,.025,0.0*
1,1,.008,.0125,0.0*
20,1,.008,.0125,0.0,-.0125,0.0,0.0*
1,1,.008,-.0125,0.0*
1,1,.008,0.0,.0125*
20,1,.008,0.0,.0125,0.0,-.0125,0.0*
1,1,.008,0.0,-.0125*
%
%ADD10MACRO10*%
%AMMACRO11*
1,1,.008,-.02,.0125*
20,1,.008,-.02,.0125,-.019696,.015973,0.0*
1,1,.008,-.019696,.015973*
20,1,.008,-.019696,.015973,-.018794,.01934,0.0*
1,1,.008,-.018794,.01934*
20,1,.008,-.018794,.01934,-.017321,.0225,0.0*
1,1,.008,-.017321,.0225*
20,1,.008,-.017321,.0225,-.015321,.025356,0.0*
1,1,.008,-.015321,.025356*
20,1,.008,-.015321,.025356,-.012856,.027821,0.0*
1,1,.008,-.012856,.027821*
20,1,.008,-.012856,.027821,-.01,.029821,0.0*
1,1,.008,-.01,.029821*
20,1,.008,-.01,.029821,-.00684,.031294,0.0*
1,1,.008,-.00684,.031294*
20,1,.008,-.00684,.031294,-.003473,.032196,0.0*
1,1,.008,-.003473,.032196*
20,1,.008,-.003473,.032196,0.0,.0325,0.0*
1,1,.008,0.0,.0325*
20,1,.008,0.0,.0325,.003473,.032196,0.0*
1,1,.008,.003473,.032196*
20,1,.008,.003473,.032196,.00684,.031294,0.0*
1,1,.008,.00684,.031294*
20,1,.008,.00684,.031294,.01,.029821,0.0*
1,1,.008,.01,.029821*
20,1,.008,.01,.029821,.012856,.027821,0.0*
1,1,.008,.012856,.027821*
20,1,.008,.012856,.027821,.015321,.025356,0.0*
1,1,.008,.015321,.025356*
20,1,.008,.015321,.025356,.017321,.0225,0.0*
1,1,.008,.017321,.0225*
20,1,.008,.017321,.0225,.018794,.01934,0.0*
1,1,.008,.018794,.01934*
20,1,.008,.018794,.01934,.019696,.015973,0.0*
1,1,.008,.019696,.015973*
20,1,.008,.019696,.015973,.02,.0125,0.0*
1,1,.008,.02,.0125*
20,1,.008,.02,.0125,.02,-.0125,0.0*
1,1,.008,.02,-.0125*
20,1,.008,.02,-.0125,.019696,-.015973,0.0*
1,1,.008,.019696,-.015973*
20,1,.008,.019696,-.015973,.018794,-.01934,0.0*
1,1,.008,.018794,-.01934*
20,1,.008,.018794,-.01934,.017321,-.0225,0.0*
1,1,.008,.017321,-.0225*
20,1,.008,.017321,-.0225,.015321,-.025356,0.0*
1,1,.008,.015321,-.025356*
20,1,.008,.015321,-.025356,.012856,-.027821,0.0*
1,1,.008,.012856,-.027821*
20,1,.008,.012856,-.027821,.01,-.029821,0.0*
1,1,.008,.01,-.029821*
20,1,.008,.01,-.029821,.00684,-.031294,0.0*
1,1,.008,.00684,-.031294*
20,1,.008,.00684,-.031294,.003473,-.032196,0.0*
1,1,.008,.003473,-.032196*
20,1,.008,.003473,-.032196,0.0,-.0325,0.0*
1,1,.008,0.0,-.0325*
20,1,.008,0.0,-.0325,-.003473,-.032196,0.0*
1,1,.008,-.003473,-.032196*
20,1,.008,-.003473,-.032196,-.00684,-.031294,0.0*
1,1,.008,-.00684,-.031294*
20,1,.008,-.00684,-.031294,-.01,-.029821,0.0*
1,1,.008,-.01,-.029821*
20,1,.008,-.01,-.029821,-.012856,-.027821,0.0*
1,1,.008,-.012856,-.027821*
20,1,.008,-.012856,-.027821,-.015321,-.025356,0.0*
1,1,.008,-.015321,-.025356*
20,1,.008,-.015321,-.025356,-.017321,-.0225,0.0*
1,1,.008,-.017321,-.0225*
20,1,.008,-.017321,-.0225,-.018794,-.01934,0.0*
1,1,.008,-.018794,-.01934*
20,1,.008,-.018794,-.01934,-.019696,-.015973,0.0*
1,1,.008,-.019696,-.015973*
20,1,.008,-.019696,-.015973,-.02,-.0125,0.0*
1,1,.008,-.02,-.0125*
20,1,.008,-.02,-.0125,-.02,.0125,0.0*
1,1,.008,-.02,.0125*
%
%ADD11MACRO11*%
%ADD14C,.008*%
G75*
%LPD*%
G75*
G54D10*
X12500Y17400D03*
X5000D03*
X7500Y27900D03*
X21240Y36140D03*
X15850Y105350D03*
X22500Y88400D03*
X15500D03*
X22500Y93400D03*
X15500D03*
X19000Y90900D03*
X20500Y127900D03*
X48500Y34400D03*
X36500Y127900D03*
X57000Y42900D03*
X69846Y36554D03*
X57000Y52400D03*
X64500Y85282D03*
X68500Y99900D03*
X67500Y89900D03*
X75500Y119400D03*
Y123900D03*
Y139400D03*
X91500Y50900D03*
X89500Y42400D03*
X82700Y40100D03*
X113000Y45900D03*
X113500Y52900D03*
X117000Y75400D03*
Y68900D03*
X152500Y113400D03*
X166300Y63500D03*
X169500D03*
X167750Y60550D03*
X177100Y81800D03*
X177000Y63600D03*
X175300Y60600D03*
X178700D03*
X166300Y85100D03*
X171200Y85200D03*
X178000Y131400D03*
X184500D03*
X205154Y33054D03*
X212000Y46400D03*
X214240Y44640D03*
X203500Y61900D03*
X211500Y62400D03*
X192000Y112900D03*
X197000D03*
X191000Y131400D03*
X221500Y19900D03*
X230000Y27400D03*
X221500Y35900D03*
X234500Y44900D03*
X229000Y34900D03*
X241700Y150200D03*
X242000Y41400D03*
X268500Y59400D03*
X266500Y62400D03*
X266800Y84000D03*
X254800Y125400D03*
X270000Y62400D03*
X276900Y81700D03*
X278500Y63000D03*
X277000Y59900D03*
X280400Y60100D03*
X271200Y83900D03*
X280500Y131800D03*
X293500Y112800D03*
X287000Y131800D03*
X293500D03*
X304500Y61900D03*
X312500Y62400D03*
X316500Y82400D03*
X312000D03*
X298500Y112800D03*
X326000Y30400D03*
X339500Y49900D03*
X337000Y47400D03*
X339740Y45140D03*
X343500Y72400D03*
X323000Y123900D03*
X342000Y127900D03*
X350000Y35400D03*
X358700Y45400D03*
X366240Y40900D03*
X353500Y32400D03*
X372500Y41400D03*
X367500Y71900D03*
X376000D03*
X357000Y122900D03*
X357500Y144900D03*
X362500Y149400D03*
X355900Y140150D03*
X403500Y79400D03*
Y69700D03*
X390500Y134400D03*
Y127900D03*
X379100Y144900D03*
X378100Y149400D03*
X390500Y150400D03*
X377400Y140900D03*
X425500Y27900D03*
X404800Y46600D03*
X406000Y76900D03*
X404500Y60400D03*
X406250Y67350D03*
X424000Y125900D03*
X450000Y33400D03*
X454000Y34900D03*
X439240Y43800D03*
X436000Y46400D03*
X439000Y48900D03*
X443057Y72900D03*
X455500Y123400D03*
X441500Y130400D03*
X466500Y41900D03*
X458500Y45000D03*
X472500Y41900D03*
X466000Y70900D03*
X476500Y72400D03*
X475500Y146900D03*
X504800Y46600D03*
X503000Y79900D03*
X505500Y77400D03*
X503500Y69900D03*
X506000Y67400D03*
X490500Y134400D03*
Y127400D03*
X594550Y68300D03*
G54D11*
X50000Y22400D03*
X40000D03*
X50000Y12400D03*
X40000D03*
X80000Y22400D03*
X70000D03*
X60000D03*
X80000Y12400D03*
X70000D03*
X60000D03*
X100000Y22400D03*
X90000D03*
X100000Y12400D03*
X90000D03*
X110000Y22400D03*
Y12400D03*
X594550Y18300D03*
G54D12*
X134400Y134900D03*
X120700Y131900D03*
X120300Y143100D03*
X167701Y129100D03*
X269800Y130246D03*
X332300Y133000D03*
X433600Y135100D03*
X594550Y-6700D03*
G54D13*
X182500Y17400D03*
X172500D03*
X202500D03*
X192500D03*
X262500D03*
X292500D03*
X282500D03*
X272500D03*
X372500D03*
X362500D03*
X352500D03*
X382500D03*
X452500D03*
X442500D03*
X472500D03*
X462500D03*
X594550Y43300D03*
G54D14*
G01X511800Y0D02*
Y157400D01*
X0D01*
Y0D01*
X511800D01*
G01X549600Y-19200D02*
Y155800D01*
X1045600D01*
Y-19200D01*
X549600D01*
G01Y5800D02*
X1045600D01*
G01X549600Y30800D02*
X1045600D01*
G01X549600Y55800D02*
X1045600D01*
G01X549600Y105800D02*
X1045600D01*
G01X549600Y80800D02*
X1045600D01*
G01X549600Y130800D02*
X1045600D01*
G01X639500Y105800D02*
Y-19200D01*
G01X841000Y105800D02*
Y-19200D01*
G01X968100Y105800D02*
Y-19200D01*
G01X560605Y87050D02*
Y99550D01*
X566495D01*
G01X564325Y93508D02*
X560605D01*
G01X574090Y99550D02*
X577810D01*
G01X575950D02*
Y87050D01*
G01X574090D02*
X577810D01*
G01X589280Y93300D02*
X592380D01*
Y89550D01*
X591450Y88300D01*
X590365Y87467D01*
X588815Y87050D01*
X587265Y87467D01*
X586180Y88300D01*
X585250Y89550D01*
X584630Y91008D01*
X584320Y92675D01*
Y94133D01*
X584630Y95383D01*
X585250Y96842D01*
X586180Y98092D01*
X587110Y98925D01*
X588350Y99550D01*
X589435D01*
X590675Y99133D01*
X591605Y98300D01*
G01X597340Y99550D02*
Y90592D01*
X597960Y88716D01*
X599200Y87467D01*
X600750Y87050D01*
X602300Y87467D01*
X603540Y88716D01*
X604160Y90592D01*
Y99550D01*
G01X610050Y87050D02*
Y99550D01*
X613925D01*
X615165Y98925D01*
X615940Y98092D01*
X616250Y96425D01*
X615940Y94758D01*
X615010Y93717D01*
X613925Y93092D01*
X610050D01*
G01X613925D02*
X616250Y87050D01*
G01X628650D02*
X622450D01*
Y99550D01*
X628650D01*
G01X626170Y93508D02*
X622450D01*
G01X639190Y137050D02*
Y149550D01*
X642290D01*
X643530Y148925D01*
X644460Y148092D01*
X645235Y146842D01*
X645855Y145383D01*
X646010Y143300D01*
X645855Y141217D01*
X645235Y139758D01*
X644460Y138508D01*
X643530Y137675D01*
X642290Y137050D01*
X639190D01*
G01X651900D02*
Y149550D01*
X655775D01*
X657015Y148925D01*
X657790Y148092D01*
X658100Y146425D01*
X657790Y144758D01*
X656860Y143717D01*
X655775Y143092D01*
X651900D01*
G01X655775D02*
X658100Y137050D01*
G01X665540Y149550D02*
X669260D01*
G01X667400D02*
Y137050D01*
G01X665540D02*
X669260D01*
G01X676700Y149550D02*
Y137050D01*
X682900D01*
G01X689100Y149550D02*
Y137050D01*
X695300D01*
G01X720410Y148508D02*
X719480Y149133D01*
X718395Y149550D01*
X717155D01*
X715760Y148925D01*
X714675Y147883D01*
X713900Y146633D01*
X713280Y144550D01*
X713125Y142675D01*
X713435Y140800D01*
X713900Y139550D01*
X714830Y138300D01*
X715915Y137467D01*
X717000Y137050D01*
X718085D01*
X719170Y137467D01*
X720100Y138091D01*
X720875Y138925D01*
G01X726145Y137050D02*
Y149550D01*
G01X732655D02*
Y137050D01*
G01Y143300D02*
X726145D01*
G01X737925Y137050D02*
X741800Y149550D01*
X745675Y137050D01*
G01X744280Y141425D02*
X739320D01*
G01X751100Y137050D02*
Y149550D01*
X754975D01*
X756215Y148925D01*
X756990Y148092D01*
X757300Y146425D01*
X756990Y144758D01*
X756060Y143717D01*
X754975Y143092D01*
X751100D01*
G01X754975D02*
X757300Y137050D01*
G01X766600Y149550D02*
Y137050D01*
G01X763035Y149550D02*
X770165D01*
G01X779000Y136633D02*
X778690Y136842D01*
Y137258D01*
X779000Y137467D01*
X779310Y137258D01*
Y136842D01*
X779000Y136633D01*
G01Y142258D02*
X778690Y142467D01*
Y142883D01*
X779000Y143092D01*
X779310Y142883D01*
Y142467D01*
X779000Y142258D01*
G01X803800Y149550D02*
Y137050D01*
G01X800235Y149550D02*
X807365D01*
G01X816200Y137050D02*
X814960Y137258D01*
X813875Y138091D01*
X812945Y139342D01*
X812325Y140800D01*
X812015Y142467D01*
Y144133D01*
X812325Y145800D01*
X812945Y147258D01*
X813875Y148508D01*
X814960Y149342D01*
X816200Y149550D01*
X817440Y149342D01*
X818525Y148508D01*
X819455Y147258D01*
X820075Y145800D01*
X820385Y144133D01*
Y142467D01*
X820075Y140800D01*
X819455Y139342D01*
X818525Y138091D01*
X817440Y137258D01*
X816200Y137050D01*
G01X825500D02*
Y149550D01*
X829220D01*
X830460Y148925D01*
X831390Y147467D01*
X831700Y145800D01*
X831390Y144133D01*
X830615Y142883D01*
X829220Y142258D01*
X825500D01*
G01X853400Y149550D02*
Y137050D01*
G01X851230Y145383D02*
X855570D01*
G01X865800Y137050D02*
X864870Y137258D01*
X863940Y138091D01*
X863320Y139550D01*
X863010Y141217D01*
X863320Y142883D01*
X863940Y144342D01*
X864870Y145175D01*
X865800Y145383D01*
X866730Y145175D01*
X867660Y144342D01*
X868280Y142883D01*
X868435Y141217D01*
X868280Y139550D01*
X867660Y138091D01*
X866730Y137258D01*
X865800Y137050D01*
G01X891840Y143717D02*
X892460Y144342D01*
X892925Y145383D01*
X893235Y146842D01*
X892925Y148092D01*
X892305Y148925D01*
X891220Y149550D01*
X887035D01*
Y137050D01*
X892150D01*
X893235Y137883D01*
X893855Y139133D01*
X894165Y140592D01*
X893855Y142050D01*
X892925Y143300D01*
X891840Y143717D01*
X887035D01*
G01X903000Y137050D02*
X901760Y137258D01*
X900675Y138091D01*
X899745Y139342D01*
X899125Y140800D01*
X898815Y142467D01*
Y144133D01*
X899125Y145800D01*
X899745Y147258D01*
X900675Y148508D01*
X901760Y149342D01*
X903000Y149550D01*
X904240Y149342D01*
X905325Y148508D01*
X906255Y147258D01*
X906875Y145800D01*
X907185Y144133D01*
Y142467D01*
X906875Y140800D01*
X906255Y139342D01*
X905325Y138091D01*
X904240Y137258D01*
X903000Y137050D01*
G01X915400Y149550D02*
Y137050D01*
G01X911835Y149550D02*
X918965D01*
G01X927800D02*
Y137050D01*
G01X924235Y149550D02*
X931365D01*
G01X940200Y137050D02*
X938960Y137258D01*
X937875Y138091D01*
X936945Y139342D01*
X936325Y140800D01*
X936015Y142467D01*
Y144133D01*
X936325Y145800D01*
X936945Y147258D01*
X937875Y148508D01*
X938960Y149342D01*
X940200Y149550D01*
X941440Y149342D01*
X942525Y148508D01*
X943455Y147258D01*
X944075Y145800D01*
X944385Y144133D01*
Y142467D01*
X944075Y140800D01*
X943455Y139342D01*
X942525Y138091D01*
X941440Y137258D01*
X940200Y137050D01*
G01X948570D02*
Y149550D01*
X952600Y139133D01*
X956630Y149550D01*
Y137050D01*
G01X662905Y87050D02*
Y99550D01*
X668795D01*
G01X666625Y93508D02*
X662905D01*
G01X676390Y99550D02*
X680110D01*
G01X678250D02*
Y87050D01*
G01X676390D02*
X680110D01*
G01X687085D02*
Y99550D01*
X694215Y87050D01*
Y99550D01*
G01X701190D02*
X704910D01*
G01X703050D02*
Y87050D01*
G01X701190D02*
X704910D01*
G01X712195Y88716D02*
X713435Y87675D01*
X714830Y87050D01*
X716070D01*
X717310Y87675D01*
X718240Y88716D01*
X718705Y90175D01*
X718395Y91633D01*
X717620Y92883D01*
X716225Y93717D01*
X714365Y94133D01*
X713280Y94967D01*
X712815Y96425D01*
X713125Y97883D01*
X713900Y98925D01*
X714985Y99550D01*
X716070D01*
X717155Y99133D01*
X718085Y98092D01*
G01X724595Y87050D02*
Y99550D01*
G01X731105D02*
Y87050D01*
G01Y93300D02*
X724595D01*
G01X743350Y87050D02*
X737150D01*
Y99550D01*
X743350D01*
G01X740870Y93508D02*
X737150D01*
G01X749240Y87050D02*
Y99550D01*
X752340D01*
X753580Y98925D01*
X754510Y98092D01*
X755285Y96842D01*
X755905Y95383D01*
X756060Y93300D01*
X755905Y91217D01*
X755285Y89758D01*
X754510Y88508D01*
X753580Y87675D01*
X752340Y87050D01*
X749240D01*
G01X760400Y82883D02*
X769700D01*
G01X774195Y88716D02*
X775435Y87675D01*
X776830Y87050D01*
X778070D01*
X779310Y87675D01*
X780240Y88716D01*
X780705Y90175D01*
X780395Y91633D01*
X779620Y92883D01*
X778225Y93717D01*
X776365Y94133D01*
X775280Y94967D01*
X774815Y96425D01*
X775125Y97883D01*
X775900Y98925D01*
X776985Y99550D01*
X778070D01*
X779155Y99133D01*
X780085Y98092D01*
G01X787990Y99550D02*
X791710D01*
G01X789850D02*
Y87050D01*
G01X787990D02*
X791710D01*
G01X799305Y99550D02*
X805195D01*
X799305Y87050D01*
X805195D01*
G01X817750D02*
X811550D01*
Y99550D01*
X817750D01*
G01X815270Y93508D02*
X811550D01*
G01X669725Y112050D02*
X673600Y124550D01*
X677475Y112050D01*
G01X676080Y116425D02*
X671120D01*
G01X682900Y124550D02*
Y112050D01*
X689100D01*
G01X695300Y124550D02*
Y112050D01*
X701500D01*
G01X719790Y124550D02*
Y115592D01*
X720410Y113716D01*
X721650Y112467D01*
X723200Y112050D01*
X724750Y112467D01*
X725990Y113716D01*
X726610Y115592D01*
Y124550D01*
G01X732035Y112050D02*
Y124550D01*
X739165Y112050D01*
Y124550D01*
G01X746140D02*
X749860D01*
G01X748000D02*
Y112050D01*
G01X746140D02*
X749860D01*
G01X760400Y124550D02*
Y112050D01*
G01X756835Y124550D02*
X763965D01*
G01X769545Y113716D02*
X770785Y112675D01*
X772180Y112050D01*
X773420D01*
X774660Y112675D01*
X775590Y113716D01*
X776055Y115175D01*
X775745Y116633D01*
X774970Y117883D01*
X773575Y118717D01*
X771715Y119133D01*
X770630Y119967D01*
X770165Y121425D01*
X770475Y122883D01*
X771250Y123925D01*
X772335Y124550D01*
X773420D01*
X774505Y124133D01*
X775435Y123092D01*
G01X793725Y112050D02*
X797600Y124550D01*
X801475Y112050D01*
G01X800080Y116425D02*
X795120D01*
G01X806900Y112050D02*
Y124550D01*
X810775D01*
X812015Y123925D01*
X812790Y123092D01*
X813100Y121425D01*
X812790Y119758D01*
X811860Y118717D01*
X810775Y118092D01*
X806900D01*
G01X810775D02*
X813100Y112050D01*
G01X825500D02*
X819300D01*
Y124550D01*
X825500D01*
G01X823020Y118508D02*
X819300D01*
G01X845340Y124550D02*
X849060D01*
G01X847200D02*
Y112050D01*
G01X845340D02*
X849060D01*
G01X856035D02*
Y124550D01*
X863165Y112050D01*
Y124550D01*
G01X880370Y112050D02*
Y124550D01*
X884400Y114133D01*
X888430Y124550D01*
Y112050D01*
G01X894940Y124550D02*
X898660D01*
G01X896800D02*
Y112050D01*
G01X894940D02*
X898660D01*
G01X906100Y124550D02*
Y112050D01*
X912300D01*
G01X918345Y113716D02*
X919585Y112675D01*
X920980Y112050D01*
X922220D01*
X923460Y112675D01*
X924390Y113716D01*
X924855Y115175D01*
X924545Y116633D01*
X923770Y117883D01*
X922375Y118717D01*
X920515Y119133D01*
X919430Y119967D01*
X918965Y121425D01*
X919275Y122883D01*
X920050Y123925D01*
X921135Y124550D01*
X922220D01*
X923305Y124133D01*
X924235Y123092D01*
G01X718240Y-11075D02*
X719170Y-12117D01*
X720255Y-12742D01*
X721650Y-12950D01*
X723045Y-12533D01*
X724130Y-11700D01*
X724905Y-10242D01*
X725060Y-8575D01*
X724750Y-6908D01*
X723975Y-5867D01*
X722890Y-5033D01*
X721805Y-4825D01*
X720720Y-5033D01*
X719325Y-5867D01*
X719790Y-450D01*
X723975D01*
G01X734050Y-12950D02*
X735135Y-12742D01*
X736375Y-12117D01*
X737150Y-11075D01*
X737460Y-9617D01*
X737150Y-8159D01*
X736220Y-6908D01*
X734825Y-6283D01*
X733275D01*
X732345Y-5867D01*
X731570Y-4825D01*
X731260Y-3367D01*
X731725Y-1908D01*
X732810Y-867D01*
X734050Y-450D01*
X735290Y-867D01*
X736375Y-1908D01*
X736840Y-3367D01*
X736530Y-4825D01*
X735755Y-5867D01*
X734825Y-6283D01*
X733275D01*
X731880Y-6908D01*
X730950Y-8159D01*
X730640Y-9617D01*
X730950Y-11075D01*
X731725Y-12117D01*
X732965Y-12742D01*
X734050Y-12950D01*
G01X746450Y-13367D02*
X746140Y-13158D01*
Y-12742D01*
X746450Y-12533D01*
X746760Y-12742D01*
Y-13158D01*
X746450Y-13367D01*
G01X758850Y-450D02*
X757610Y-867D01*
X756680Y-1908D01*
X756060Y-3158D01*
X755595Y-4825D01*
X755440Y-6700D01*
X755595Y-8575D01*
X756060Y-10242D01*
X756680Y-11492D01*
X757610Y-12533D01*
X758850Y-12950D01*
X760090Y-12533D01*
X761020Y-11492D01*
X761640Y-10242D01*
X762105Y-8575D01*
X762260Y-6700D01*
X762105Y-4825D01*
X761640Y-3158D01*
X761020Y-1908D01*
X760090Y-867D01*
X758850Y-450D01*
G01X723510Y12050D02*
Y24550D01*
X717775Y15592D01*
X725525D01*
G01X731105Y22467D02*
X732035Y23716D01*
X733120Y24342D01*
X734360Y24550D01*
X735910Y24133D01*
X736995Y23092D01*
X737305Y21842D01*
X737150Y20591D01*
X736530Y19550D01*
X733430Y17467D01*
X732035Y16008D01*
X731105Y13925D01*
X730795Y12050D01*
X737305D01*
G01X746450Y11633D02*
X746140Y11842D01*
Y12258D01*
X746450Y12467D01*
X746760Y12258D01*
Y11842D01*
X746450Y11633D01*
G01X758850Y24550D02*
X757610Y24133D01*
X756680Y23092D01*
X756060Y21842D01*
X755595Y20175D01*
X755440Y18300D01*
X755595Y16425D01*
X756060Y14758D01*
X756680Y13508D01*
X757610Y12467D01*
X758850Y12050D01*
X760090Y12467D01*
X761020Y13508D01*
X761640Y14758D01*
X762105Y16425D01*
X762260Y18300D01*
X762105Y20175D01*
X761640Y21842D01*
X761020Y23092D01*
X760090Y24133D01*
X758850Y24550D01*
G01X718240Y39550D02*
X719170Y38091D01*
X720410Y37258D01*
X721805Y37050D01*
X723045Y37258D01*
X724285Y38300D01*
X725060Y39550D01*
X725215Y40800D01*
X724905Y42258D01*
X723820Y43300D01*
X722735Y43717D01*
X721340D01*
G01X722735D02*
X723665Y44342D01*
X724440Y45383D01*
X724750Y46633D01*
X724440Y47883D01*
X723665Y48925D01*
X722270Y49550D01*
X720875Y49342D01*
X719480Y48508D01*
G01X730640Y38925D02*
X731570Y37883D01*
X732655Y37258D01*
X734050Y37050D01*
X735445Y37467D01*
X736530Y38300D01*
X737305Y39758D01*
X737460Y41425D01*
X737150Y43092D01*
X736375Y44133D01*
X735290Y44967D01*
X734205Y45175D01*
X733120Y44967D01*
X731725Y44133D01*
X732190Y49550D01*
X736375D01*
G01X746450Y36633D02*
X746140Y36842D01*
Y37258D01*
X746450Y37467D01*
X746760Y37258D01*
Y36842D01*
X746450Y36633D01*
G01X758850Y49550D02*
X757610Y49133D01*
X756680Y48092D01*
X756060Y46842D01*
X755595Y45175D01*
X755440Y43300D01*
X755595Y41425D01*
X756060Y39758D01*
X756680Y38508D01*
X757610Y37467D01*
X758850Y37050D01*
X760090Y37467D01*
X761020Y38508D01*
X761640Y39758D01*
X762105Y41425D01*
X762260Y43300D01*
X762105Y45175D01*
X761640Y46842D01*
X761020Y48092D01*
X760090Y49133D01*
X758850Y49550D01*
G01X721650Y62050D02*
Y74550D01*
X719790Y72050D01*
G01Y62050D02*
X723510D01*
G01X730640Y64550D02*
X731570Y63091D01*
X732810Y62258D01*
X734205Y62050D01*
X735445Y62258D01*
X736685Y63300D01*
X737460Y64550D01*
X737615Y65800D01*
X737305Y67258D01*
X736220Y68300D01*
X735135Y68717D01*
X733740D01*
G01X735135D02*
X736065Y69342D01*
X736840Y70383D01*
X737150Y71633D01*
X736840Y72883D01*
X736065Y73925D01*
X734670Y74550D01*
X733275Y74342D01*
X731880Y73508D01*
G01X746450Y61633D02*
X746140Y61842D01*
Y62258D01*
X746450Y62467D01*
X746760Y62258D01*
Y61842D01*
X746450Y61633D01*
G01X758850Y74550D02*
X757610Y74133D01*
X756680Y73092D01*
X756060Y71842D01*
X755595Y70175D01*
X755440Y68300D01*
X755595Y66425D01*
X756060Y64758D01*
X756680Y63508D01*
X757610Y62467D01*
X758850Y62050D01*
X760090Y62467D01*
X761020Y63508D01*
X761640Y64758D01*
X762105Y66425D01*
X762260Y68300D01*
X762105Y70175D01*
X761640Y71842D01*
X761020Y73092D01*
X760090Y74133D01*
X758850Y74550D01*
G01X870450Y-12950D02*
Y-450D01*
X874170D01*
X875410Y-1075D01*
X876340Y-2533D01*
X876650Y-4200D01*
X876340Y-5867D01*
X875565Y-7117D01*
X874170Y-7742D01*
X870450D01*
G01X882850Y-450D02*
Y-12950D01*
X889050D01*
G01X894475D02*
X898350Y-450D01*
X902225Y-12950D01*
G01X900830Y-8575D02*
X895870D01*
G01X910750Y-450D02*
Y-12950D01*
G01X907185Y-450D02*
X914315D01*
G01X926250Y-12950D02*
X920050D01*
Y-450D01*
X926250D01*
G01X923770Y-6492D02*
X920050D01*
G01X932140Y-12950D02*
Y-450D01*
X935240D01*
X936480Y-1075D01*
X937410Y-1908D01*
X938185Y-3158D01*
X938805Y-4617D01*
X938960Y-6700D01*
X938805Y-8783D01*
X938185Y-10242D01*
X937410Y-11492D01*
X936480Y-12325D01*
X935240Y-12950D01*
X932140D01*
G01X870450Y12050D02*
Y24550D01*
X874170D01*
X875410Y23925D01*
X876340Y22467D01*
X876650Y20800D01*
X876340Y19133D01*
X875565Y17883D01*
X874170Y17258D01*
X870450D01*
G01X882850Y24550D02*
Y12050D01*
X889050D01*
G01X894475D02*
X898350Y24550D01*
X902225Y12050D01*
G01X900830Y16425D02*
X895870D01*
G01X910750Y24550D02*
Y12050D01*
G01X907185Y24550D02*
X914315D01*
G01X926250Y12050D02*
X920050D01*
Y24550D01*
X926250D01*
G01X923770Y18508D02*
X920050D01*
G01X932140Y12050D02*
Y24550D01*
X935240D01*
X936480Y23925D01*
X937410Y23092D01*
X938185Y21842D01*
X938805Y20383D01*
X938960Y18300D01*
X938805Y16217D01*
X938185Y14758D01*
X937410Y13508D01*
X936480Y12675D01*
X935240Y12050D01*
X932140D01*
G01X870450Y37050D02*
Y49550D01*
X874170D01*
X875410Y48925D01*
X876340Y47467D01*
X876650Y45800D01*
X876340Y44133D01*
X875565Y42883D01*
X874170Y42258D01*
X870450D01*
G01X882850Y49550D02*
Y37050D01*
X889050D01*
G01X894475D02*
X898350Y49550D01*
X902225Y37050D01*
G01X900830Y41425D02*
X895870D01*
G01X910750Y49550D02*
Y37050D01*
G01X907185Y49550D02*
X914315D01*
G01X926250Y37050D02*
X920050D01*
Y49550D01*
X926250D01*
G01X923770Y43508D02*
X920050D01*
G01X932140Y37050D02*
Y49550D01*
X935240D01*
X936480Y48925D01*
X937410Y48092D01*
X938185Y46842D01*
X938805Y45383D01*
X938960Y43300D01*
X938805Y41217D01*
X938185Y39758D01*
X937410Y38508D01*
X936480Y37675D01*
X935240Y37050D01*
X932140D01*
G01X870450Y62050D02*
Y74550D01*
X874170D01*
X875410Y73925D01*
X876340Y72467D01*
X876650Y70800D01*
X876340Y69133D01*
X875565Y67883D01*
X874170Y67258D01*
X870450D01*
G01X882850Y74550D02*
Y62050D01*
X889050D01*
G01X894475D02*
X898350Y74550D01*
X902225Y62050D01*
G01X900830Y66425D02*
X895870D01*
G01X910750Y74550D02*
Y62050D01*
G01X907185Y74550D02*
X914315D01*
G01X926250Y62050D02*
X920050D01*
Y74550D01*
X926250D01*
G01X923770Y68508D02*
X920050D01*
G01X932140Y62050D02*
Y74550D01*
X935240D01*
X936480Y73925D01*
X937410Y73092D01*
X938185Y71842D01*
X938805Y70383D01*
X938960Y68300D01*
X938805Y66217D01*
X938185Y64758D01*
X937410Y63508D01*
X936480Y62675D01*
X935240Y62050D01*
X932140D01*
G01X870450Y87050D02*
Y99550D01*
X874170D01*
X875410Y98925D01*
X876340Y97467D01*
X876650Y95800D01*
X876340Y94133D01*
X875565Y92883D01*
X874170Y92258D01*
X870450D01*
G01X882850Y99550D02*
Y87050D01*
X889050D01*
G01X894475D02*
X898350Y99550D01*
X902225Y87050D01*
G01X900830Y91425D02*
X895870D01*
G01X910750Y99550D02*
Y87050D01*
G01X907185Y99550D02*
X914315D01*
G01X926250Y87050D02*
X920050D01*
Y99550D01*
X926250D01*
G01X923770Y93508D02*
X920050D01*
G01X932140Y87050D02*
Y99550D01*
X935240D01*
X936480Y98925D01*
X937410Y98092D01*
X938185Y96842D01*
X938805Y95383D01*
X938960Y93300D01*
X938805Y91217D01*
X938185Y89758D01*
X937410Y88508D01*
X936480Y87675D01*
X935240Y87050D01*
X932140D01*
G01X1000650Y12050D02*
Y24550D01*
X998790Y22050D01*
G01Y12050D02*
X1002510D01*
G01X1010105Y17258D02*
X1011190Y18717D01*
X1012120Y19550D01*
X1013360Y19967D01*
X1014445Y19550D01*
X1015220Y18717D01*
X1015840Y17467D01*
X1015995Y16008D01*
X1015840Y14758D01*
X1015220Y13508D01*
X1014290Y12467D01*
X1013205Y12050D01*
X1011965Y12467D01*
X1010880Y13716D01*
X1010260Y15592D01*
X1010105Y17675D01*
X1010415Y20383D01*
X1010880Y21842D01*
X1011655Y23300D01*
X1012740Y24342D01*
X1013825Y24550D01*
X1014910Y24133D01*
X1015685Y23092D01*
G01X1000650Y37050D02*
Y49550D01*
X998790Y47050D01*
G01Y37050D02*
X1002510D01*
G01X1010105Y42258D02*
X1011190Y43717D01*
X1012120Y44550D01*
X1013360Y44967D01*
X1014445Y44550D01*
X1015220Y43717D01*
X1015840Y42467D01*
X1015995Y41008D01*
X1015840Y39758D01*
X1015220Y38508D01*
X1014290Y37467D01*
X1013205Y37050D01*
X1011965Y37467D01*
X1010880Y38716D01*
X1010260Y40592D01*
X1010105Y42675D01*
X1010415Y45383D01*
X1010880Y46842D01*
X1011655Y48300D01*
X1012740Y49342D01*
X1013825Y49550D01*
X1014910Y49133D01*
X1015685Y48092D01*
G01X994450Y62050D02*
Y74550D01*
X992590Y72050D01*
G01Y62050D02*
X996310D01*
G01X1003905Y72467D02*
X1004835Y73716D01*
X1005920Y74342D01*
X1007160Y74550D01*
X1008710Y74133D01*
X1009795Y73092D01*
X1010105Y71842D01*
X1009950Y70591D01*
X1009330Y69550D01*
X1006230Y67467D01*
X1004835Y66008D01*
X1003905Y63925D01*
X1003595Y62050D01*
X1010105D01*
G01X1019250D02*
X1020335Y62258D01*
X1021575Y62883D01*
X1022350Y63925D01*
X1022660Y65383D01*
X1022350Y66841D01*
X1021420Y68092D01*
X1020025Y68717D01*
X1018475D01*
X1017545Y69133D01*
X1016770Y70175D01*
X1016460Y71633D01*
X1016925Y73092D01*
X1018010Y74133D01*
X1019250Y74550D01*
X1020490Y74133D01*
X1021575Y73092D01*
X1022040Y71633D01*
X1021730Y70175D01*
X1020955Y69133D01*
X1020025Y68717D01*
X1018475D01*
X1017080Y68092D01*
X1016150Y66841D01*
X1015840Y65383D01*
X1016150Y63925D01*
X1016925Y62883D01*
X1018165Y62258D01*
X1019250Y62050D01*
G01X994450Y87050D02*
X993210Y87258D01*
X992125Y88091D01*
X991195Y89342D01*
X990575Y90800D01*
X990265Y92467D01*
Y94133D01*
X990575Y95800D01*
X991195Y97258D01*
X992125Y98508D01*
X993210Y99342D01*
X994450Y99550D01*
X995690Y99342D01*
X996775Y98508D01*
X997705Y97258D01*
X998325Y95800D01*
X998635Y94133D01*
Y92467D01*
X998325Y90800D01*
X997705Y89342D01*
X996775Y88091D01*
X995690Y87258D01*
X994450Y87050D01*
G01X995690Y90383D02*
X997550Y87050D01*
G01X1006850Y99550D02*
Y87050D01*
G01X1003285Y99550D02*
X1010415D01*
G01X1019250Y87050D02*
Y92675D01*
X1016150Y99550D01*
G01X1022350D02*
X1019250Y92675D01*
G01X1006540Y-12950D02*
X1006850Y-10242D01*
X1007315Y-7950D01*
X1007935Y-5867D01*
X1008710Y-3575D01*
X1009950Y-450D01*
X1003750D01*
M02*
