G04 ================== begin FILE IDENTIFICATION RECORD ==================*
G04 Layout Name:  TIDA-01606_Gate DriverE4_Sch_Rev18.brd*
G04 Film Name:    GND_LAYER*
G04 File Format:  Gerber RS274X*
G04 File Origin:  Cadence Allegro -unreleased*
G04 Origin Date:  Fri Aug 27 12:28:27 2021*
G04 *
G04 Layer:  ETCH/GND_LAYER*
G04 Layer:  PIN/GND_LAYER*
G04 Layer:  VIA CLASS/GND_LAYER*
G04 *
G04 Offset:    (0.00 0.00)*
G04 Mirror:    No*
G04 Mode:      Positive*
G04 Rotation:  0*
G04 FullContactRelief:  No*
G04 UndefLineWidth:     0.00*
G04 ================== end FILE IDENTIFICATION RECORD ====================*
%FSLAX25Y25*MOIN*%
%IR0*IPPOS*OFA0.00000B0.00000*MIA0B0*SFA1.00000B1.00000*%
%ADD10C,.024*%
%ADD11C,.055*%
%ADD12C,.093*%
%ADD14C,.04004*%
%ADD13C,.07104*%
%ADD15C,.10904*%
G75*
%LPD*%
G75*
G36*
G01X5300Y156700D02*
X506300D01*
X509700Y153300D01*
Y108000D01*
X507300Y105600D01*
X144900D01*
X120200Y80900D01*
Y4300D01*
X116900Y1000D01*
X2300D01*
X800Y2500D01*
Y152200D01*
X5300Y156700D01*
G37*
G36*
G01X272669Y86200D02*
X315700D01*
X316815Y85085D01*
G02X316527Y84402I-282J-283D01*
G01X316500D01*
G03Y80398I0J-2002D01*
G03X318167Y81291I0J2002D01*
G02X318900Y81070I333J-221D01*
G01Y15200D01*
X306100Y2400D01*
X167800D01*
X161300Y8900D01*
Y82000D01*
X163788Y84488D01*
G02X164442Y84354I283J-283D01*
G03X166300Y83098I1858J746D01*
G03X168302Y85100I0J2002D01*
G03X168215Y85683I-2002J-1D01*
G02X168598Y86200I383J117D01*
G01X168874D01*
G02X169261Y85700I0J-400D01*
G03X169198Y85200I1939J-498D01*
G03X173202I2002J0D01*
G03X173139Y85700I-2002J2D01*
G02X173526Y86200I387J100D01*
G01X265210D01*
G02X265474Y85500I0J-400D01*
G03X264798Y84000I1326J-1500D01*
G03X266800Y81998I2002J0D01*
G03X268615Y83156I0J2001D01*
G02X269348Y83139I363J-168D01*
G03X271200Y81898I1852J761D01*
G03X273202Y83900I0J2002D01*
G03X272425Y85484I-2003J0D01*
G02X272669Y86200I245J316D01*
G37*
G36*
G01X342100Y81900D02*
X404300D01*
X404906Y81294D01*
X404655Y81043D01*
X404521Y81122D01*
G03X403500Y81402I-1021J-1722D01*
G03Y77398I0J-2002D01*
G03X403583Y77400I-7J2002D01*
G02X404000Y76983I17J-400D01*
G03X403998Y76900I2000J-90D01*
G03X406000Y74898I2002J0D01*
G03X407500Y75574I0J2002D01*
G02X408200Y75310I300J-264D01*
G01Y46800D01*
X396600Y35200D01*
Y2700D01*
X395500Y1600D01*
X374800D01*
X369100Y7300D01*
Y18300D01*
X357400Y30000D01*
X328402D01*
G02X328002Y30400I0J400D01*
G03X326091Y32400I-2002J0D01*
G02X325900Y32600I9J200D01*
G01Y47900D01*
X329200Y51200D01*
X335800D01*
X337000Y52400D01*
Y76800D01*
X342100Y81900D01*
G37*
G36*
G01X441600Y82300D02*
X501670D01*
G02X501891Y81567I0J-400D01*
G03X500998Y79900I1109J-1667D01*
G03X503000Y77898I2002J0D01*
G03X503083Y77900I-7J2002D01*
G02X503500Y77483I17J-400D01*
G03X503498Y77400I2000J-90D01*
G03X505500Y75398I2002J0D01*
G03X507000Y76074I0J2002D01*
G02X507700Y75810I300J-264D01*
G01Y14700D01*
X495000Y2000D01*
X463500D01*
X459100Y6400D01*
Y21700D01*
X455800Y25000D01*
Y29300D01*
X454700Y30400D01*
X426500D01*
X425400Y31500D01*
Y48300D01*
X428700Y51600D01*
X435300D01*
X436500Y52800D01*
Y77200D01*
X441600Y82300D01*
G37*
%LPC*%
G75*
G36*
G01X377607Y143567D02*
G02X377098Y144900I1493J1334D01*
G02X381102I2002J0D01*
G02X379176Y142899I-2002J0D01*
G03X378893Y142233I15J-400D01*
G02X379402Y140900I-1493J-1334D01*
G02X375398I-2002J0D01*
G02X377324Y142901I2002J0D01*
G03X377607Y143567I-15J400D01*
G37*
G36*
G01X118916Y137827D02*
G02X114848Y143100I1383J5273D01*
G02X125752I5452J0D01*
G02X122057Y137939I-5452J0D01*
G03X122084Y137173I129J-379D01*
G02X126152Y131900I-1383J-5273D01*
G02X115248I-5452J0D01*
G02X118943Y137061I5452J0D01*
G03X118916Y137827I-129J379D01*
G37*
G36*
G01X266566Y59916D02*
G03X266233Y60416I-387J103D01*
G02X264498Y62400I267J1984D01*
G02X266500Y64402I2002J0D01*
G02X267959Y63771I0J-2002D01*
G03X268541I291J274D01*
G02X270000Y64402I1459J-1371D01*
G02X272002Y62400I0J-2002D01*
G02X270657Y60509I-2002J0D01*
G03X270407Y60009I131J-378D01*
G02X270502Y59400I-1907J-609D01*
G02X266498I-2002J0D01*
G02X266566Y59916I2002J-1D01*
G37*
G36*
G01X165835Y61135D02*
G03X165594Y61627I-382J118D01*
G02X164298Y63500I705J1873D01*
G02X166300Y65502I2002J0D01*
G02X167634Y64993I0J-2003D01*
G03X168166I266J298D01*
G02X169500Y65502I1334J-1494D01*
G02X171502Y63500I0J-2002D01*
G02X169976Y61555I-2003J0D01*
G03X169685Y61064I95J-388D01*
G02X169752Y60550I-1935J-514D01*
G02X165748I-2002J0D01*
G02X165835Y61135I2002J1D01*
G37*
G54D14*
X57000Y42900D03*
X68500Y99900D03*
X21240Y36140D03*
X390500Y150400D03*
X117000Y75400D03*
X69846Y36554D03*
X91500Y50900D03*
X241700Y150200D03*
X20500Y127900D03*
X15850Y105350D03*
X362500Y149400D03*
X357500Y144900D03*
X490500Y134400D03*
X378100Y149400D03*
X113000Y45900D03*
X390500Y134400D03*
X64500Y85282D03*
X280500Y131800D03*
X75500Y119400D03*
X89500Y42400D03*
X475500Y146900D03*
X355900Y140150D03*
X178000Y131400D03*
X75500Y123900D03*
X113500Y52900D03*
X48500Y34400D03*
X36500Y127900D03*
X242000Y41400D03*
X177100Y81800D03*
X221500Y35900D03*
X276900Y81700D03*
X234500Y44900D03*
X312000Y82400D03*
X205154Y33054D03*
X350000Y35400D03*
X376000Y71900D03*
X343500Y72400D03*
X358700Y45400D03*
X367500Y71900D03*
X366240Y40900D03*
X458500Y45000D03*
X466000Y70900D03*
X450000Y33400D03*
X443057Y72900D03*
X476500Y72400D03*
X466500Y41900D03*
G54D13*
X80000Y12400D03*
X70000Y22400D03*
Y12400D03*
X60000Y22400D03*
Y12400D03*
X50000Y22400D03*
Y12400D03*
X40000Y22400D03*
X100000D03*
Y12400D03*
X90000Y22400D03*
Y12400D03*
X80000Y22400D03*
X40000Y12400D03*
X202500Y17400D03*
X182500D03*
X172500D03*
X292500D03*
X272500D03*
X262500D03*
X382500D03*
X472500D03*
G54D15*
X332300Y133000D03*
X134400Y134900D03*
X167701Y129100D03*
X433600Y135100D03*
X269800Y130246D03*
%LPD*%
G75*
G54D10*
X12500Y17400D03*
X5000D03*
X7500Y27900D03*
X21240Y36140D03*
X15850Y105350D03*
X22500Y88400D03*
X15500D03*
X22500Y93400D03*
X15500D03*
X19000Y90900D03*
X20500Y127900D03*
X48500Y34400D03*
X36500Y127900D03*
X57000Y42900D03*
X69846Y36554D03*
X57000Y52400D03*
X64500Y85282D03*
X68500Y99900D03*
X67500Y89900D03*
X75500Y119400D03*
Y123900D03*
Y139400D03*
X91500Y50900D03*
X89500Y42400D03*
X82700Y40100D03*
X113000Y45900D03*
X113500Y52900D03*
X117000Y75400D03*
Y68900D03*
X152500Y113400D03*
X166300Y63500D03*
X169500D03*
X167750Y60550D03*
X177100Y81800D03*
X177000Y63600D03*
X175300Y60600D03*
X178700D03*
X166300Y85100D03*
X171200Y85200D03*
X178000Y131400D03*
X184500D03*
X205154Y33054D03*
X212000Y46400D03*
X214240Y44640D03*
X203500Y61900D03*
X211500Y62400D03*
X192000Y112900D03*
X197000D03*
X191000Y131400D03*
X221500Y19900D03*
X230000Y27400D03*
X221500Y35900D03*
X234500Y44900D03*
X229000Y34900D03*
X241700Y150200D03*
X242000Y41400D03*
X268500Y59400D03*
X266500Y62400D03*
X266800Y84000D03*
X254800Y125400D03*
X270000Y62400D03*
X276900Y81700D03*
X278500Y63000D03*
X277000Y59900D03*
X280400Y60100D03*
X271200Y83900D03*
X280500Y131800D03*
X293500Y112800D03*
X287000Y131800D03*
X293500D03*
X304500Y61900D03*
X312500Y62400D03*
X316500Y82400D03*
X312000D03*
X298500Y112800D03*
X326000Y30400D03*
X339500Y49900D03*
X337000Y47400D03*
X339740Y45140D03*
X343500Y72400D03*
X323000Y123900D03*
X342000Y127900D03*
X350000Y35400D03*
X358700Y45400D03*
X366240Y40900D03*
X353500Y32400D03*
X372500Y41400D03*
X367500Y71900D03*
X376000D03*
X357000Y122900D03*
X357500Y144900D03*
X362500Y149400D03*
X355900Y140150D03*
X403500Y79400D03*
Y69700D03*
X390500Y134400D03*
Y127900D03*
X379100Y144900D03*
X378100Y149400D03*
X390500Y150400D03*
X377400Y140900D03*
X425500Y27900D03*
X404800Y46600D03*
X406000Y76900D03*
X404500Y60400D03*
X406250Y67350D03*
X424000Y125900D03*
X450000Y33400D03*
X454000Y34900D03*
X439240Y43800D03*
X436000Y46400D03*
X439000Y48900D03*
X443057Y72900D03*
X455500Y123400D03*
X441500Y130400D03*
X466500Y41900D03*
X458500Y45000D03*
X472500Y41900D03*
X466000Y70900D03*
X476500Y72400D03*
X475500Y146900D03*
X504800Y46600D03*
X503000Y79900D03*
X505500Y77400D03*
X503500Y69900D03*
X506000Y67400D03*
X490500Y134400D03*
Y127400D03*
G54D11*
X50000Y22400D03*
X40000D03*
X50000Y12400D03*
X40000D03*
X80000Y22400D03*
X70000D03*
X60000D03*
X80000Y12400D03*
X70000D03*
X60000D03*
X100000Y22400D03*
X90000D03*
X100000Y12400D03*
X90000D03*
X110000Y22400D03*
Y12400D03*
X182500Y17400D03*
X172500D03*
X202500D03*
X192500D03*
X262500D03*
X292500D03*
X282500D03*
X272500D03*
X372500D03*
X362500D03*
X352500D03*
X382500D03*
X452500D03*
X442500D03*
X472500D03*
X462500D03*
G54D12*
X134400Y134900D03*
X120700Y131900D03*
X120300Y143100D03*
X167701Y129100D03*
X269800Y130246D03*
X332300Y133000D03*
X433600Y135100D03*
M02*
