G04 ================== begin FILE IDENTIFICATION RECORD ==================*
G04 Layout Name:  TIDA-01606_Gate DriverE4_Sch_Rev18.brd*
G04 Film Name:    PWR_LAYER*
G04 File Format:  Gerber RS274X*
G04 File Origin:  Cadence Allegro -unreleased*
G04 Origin Date:  Fri Aug 27 12:28:27 2021*
G04 *
G04 Layer:  ETCH/PWR_LAYER*
G04 Layer:  PIN/PWR_LAYER*
G04 Layer:  VIA CLASS/PWR_LAYER*
G04 *
G04 Offset:    (0.00 0.00)*
G04 Mirror:    No*
G04 Mode:      Positive*
G04 Rotation:  0*
G04 FullContactRelief:  No*
G04 UndefLineWidth:     0.00*
G04 ================== end FILE IDENTIFICATION RECORD ====================*
%FSLAX25Y25*MOIN*%
%IR0*IPPOS*OFA0.00000B0.00000*MIA0B0*SFA1.00000B1.00000*%
%ADD10C,.024*%
%ADD11C,.055*%
%ADD12C,.093*%
%ADD13C,.015*%
%ADD14C,.04004*%
%ADD15C,.07104*%
%ADD16C,.10904*%
G75*
%LPD*%
G75*
G36*
G01X5300Y156700D02*
X13840D01*
G02X14123Y156017I0J-400D01*
G01X4903Y146797D01*
G03X4448Y145700I1097J-1098D01*
G01Y115200D01*
G03X4903Y114103I1552J1D01*
G01X13857Y105149D01*
X13866Y105082D01*
G03X15850Y103348I1984J268D01*
G03X17852Y105350I0J2002D01*
G03X16118Y107334I-2002J0D01*
G01X16051Y107343D01*
X7552Y115843D01*
Y145057D01*
X16743Y154248D01*
X94398D01*
Y106868D01*
X107568Y93698D01*
X118332D01*
X146632Y121998D01*
X302368D01*
X315368Y108998D01*
X504632D01*
X509017Y113384D01*
G02X509700Y113101I283J-283D01*
G01Y108000D01*
X507300Y105600D01*
X313600D01*
X302100Y117100D01*
X146900D01*
X120200Y90400D01*
Y4300D01*
X116900Y1000D01*
X2300D01*
X800Y2500D01*
Y152200D01*
X5300Y156700D01*
G37*
G36*
G01X387152Y156400D02*
X506500D01*
X509700Y153200D01*
Y115200D01*
X504300Y109800D01*
X469060D01*
G02X468777Y110483I0J400D01*
G01X490701Y132407D01*
X490768Y132416D01*
G03X492502Y134400I-268J1984D01*
G03X490500Y136402I-2002J0D01*
G03X488516Y134668I0J-2002D01*
G01X488507Y134601D01*
X463706Y109800D01*
X403052D01*
Y123400D01*
G03X402597Y124497I-1552J-1D01*
G01X392493Y134601D01*
X392484Y134668D01*
G03X390500Y136402I-1984J-268D01*
G03X388498Y134400I0J-2002D01*
G03X390232Y132416I2002J0D01*
G01X390299Y132407D01*
X399948Y122757D01*
Y109800D01*
X315700D01*
X302700Y122800D01*
X282052D01*
Y130535D01*
G03X282502Y131800I-1553J1265D01*
G03X278498I-2002J0D01*
G03X278948Y130535I2003J0D01*
G01Y122800D01*
X179552D01*
Y130135D01*
G03X180002Y131400I-1553J1265D01*
G03X175998I-2002J0D01*
G03X176448Y130135I2003J0D01*
G01Y122800D01*
X146300D01*
X118000Y94500D01*
X107900D01*
X95200Y107200D01*
Y154000D01*
X95449Y154248D01*
X235457D01*
X239707Y149999D01*
X239716Y149932D01*
G03X243684I1984J268D01*
G01X243693Y149999D01*
X246943Y153248D01*
X385457D01*
X388507Y150199D01*
X388516Y150132D01*
G03X390500Y148398I1984J268D01*
G03X391765Y148848I0J2003D01*
G01X471357D01*
X473507Y146699D01*
X473516Y146632D01*
G03X475500Y144898I1984J268D01*
G03X477502Y146900I0J2002D01*
G03X475768Y148884I-2002J0D01*
G01X475701Y148893D01*
X473097Y151497D01*
G03X472000Y151952I-1098J-1097D01*
G01X391765D01*
G03X390768Y152384I-1265J-1552D01*
G01X390701Y152393D01*
X387197Y155897D01*
G03X387032Y156040I-1096J-1098D01*
G01X387152Y156400D01*
G37*
G36*
G01X272669Y86200D02*
X315700D01*
X316815Y85085D01*
G02X316527Y84402I-282J-283D01*
G01X316500D01*
G03Y80398I0J-2002D01*
G03X318167Y81291I0J2002D01*
G02X318900Y81070I333J-221D01*
G01Y15200D01*
X306100Y2400D01*
X167800D01*
X161300Y8900D01*
Y82000D01*
X163788Y84488D01*
G02X164442Y84354I283J-283D01*
G03X166300Y83098I1858J746D01*
G03X168302Y85100I0J2002D01*
G03X168215Y85683I-2002J-1D01*
G02X168598Y86200I383J117D01*
G01X168874D01*
G02X169261Y85700I0J-400D01*
G03X169198Y85200I1939J-498D01*
G03X173202I2002J0D01*
G03X173139Y85700I-2002J2D01*
G02X173526Y86200I387J100D01*
G01X265210D01*
G02X265474Y85500I0J-400D01*
G03X264798Y84000I1326J-1500D01*
G03X266800Y81998I2002J0D01*
G03X268615Y83156I0J2001D01*
G02X269348Y83139I363J-168D01*
G03X271200Y81898I1852J761D01*
G03X273202Y83900I0J2002D01*
G03X272425Y85484I-2003J0D01*
G02X272669Y86200I245J316D01*
G37*
G36*
G01X342100Y81900D02*
X404300D01*
X408200Y78000D01*
Y69185D01*
G02X407542Y68879I-400J0D01*
G03X406250Y69352I-1292J-1528D01*
G03X405960Y69331I-1J-2002D01*
G02X405502Y69722I-58J396D01*
G03X403500Y71702I-2002J-22D01*
G03Y67698I0J-2002D01*
G03X403790Y67719I1J2002D01*
G02X404248Y67328I58J-396D01*
G03X406250Y65348I2002J22D01*
G03X407542Y65821I0J2001D01*
G02X408200Y65515I258J-306D01*
G01Y46800D01*
X407472Y46072D01*
G02X406792Y46396I-282J283D01*
G03X406802Y46600I-1992J200D01*
G03X404800Y44598I-2002J0D01*
G03X405004Y44608I4J2002D01*
G02X405328Y43928I41J-398D01*
G01X396600Y35200D01*
Y2700D01*
X395500Y1600D01*
X374800D01*
X369100Y7300D01*
Y14827D01*
G02X369804Y15088I400J1D01*
G03X372500Y13848I2696J2311D01*
G03Y20952I0J3552D01*
G03X369274Y18887I0J-3552D01*
G02X368628Y18772I-363J168D01*
G01X361500Y25900D01*
X327300D01*
X323800Y29400D01*
Y45800D01*
X329200Y51200D01*
X335800D01*
X337000Y52400D01*
Y76800D01*
X342100Y81900D01*
G37*
G36*
G01X441600Y82300D02*
X503800D01*
X507700Y78400D01*
Y69420D01*
G02X507084Y69083I-400J0D01*
G03X506000Y69402I-1084J-1682D01*
G03X505917Y69400I7J-2002D01*
G02X505500Y69817I-17J400D01*
G03X505502Y69900I-2000J90D01*
G03X503500Y67898I-2002J0D01*
G03X503583Y67900I-7J2002D01*
G02X504000Y67483I17J-400D01*
G03X503998Y67400I2000J-90D01*
G03X506000Y65398I2002J0D01*
G03X507084Y65717I0J2001D01*
G02X507700Y65380I216J-337D01*
G01Y14700D01*
X495000Y2000D01*
X463500D01*
X459100Y6400D01*
Y14827D01*
G02X459804Y15088I400J1D01*
G03X462500Y13848I2696J2311D01*
G03Y20952I0J3552D01*
G03X459804Y19712I0J-3551D01*
G02X459100Y19973I-304J260D01*
G01Y21700D01*
X455800Y25000D01*
X425000D01*
X423300Y26700D01*
Y48700D01*
X426200Y51600D01*
X435300D01*
X436500Y52800D01*
Y77200D01*
X441600Y82300D01*
G37*
%LPC*%
G75*
G36*
G01X20523Y93084D02*
G02X20498Y93400I1977J315D01*
G02X22500Y91398I2002J0D01*
G02X21560Y91633I1J2002D01*
G03X20977Y91216I-188J-353D01*
G02X21002Y90900I-1977J-315D01*
G02X20977Y90584I-2002J-1D01*
G03X21560Y90167I395J-64D01*
G02X22500Y90402I941J-1767D01*
G02X20498Y88400I0J-2002D01*
G02X20523Y88716I2002J1D01*
G03X19940Y89133I-395J64D01*
G02X19000Y88898I-941J1767D01*
G02X18060Y89133I1J2002D01*
G03X17477Y88716I-188J-353D01*
G02X17502Y88400I-1977J-315D01*
G02X15500Y90402I-2002J0D01*
G02X16440Y90167I-1J-2002D01*
G03X17023Y90584I188J353D01*
G02X16998Y90900I1977J315D01*
G02X17023Y91216I2002J1D01*
G03X16440Y91633I-395J64D01*
G02X15500Y91398I-941J1767D01*
G02X17502Y93400I0J2002D01*
G02X17477Y93084I-2002J-1D01*
G03X18060Y92667I395J-64D01*
G02X19000Y92902I941J-1767D01*
G02X19940Y92667I-1J-2002D01*
G03X20523Y93084I188J353D01*
G37*
G36*
G01X363765Y147848D02*
G02X362500Y147398I-1265J1553D01*
G02Y151402I0J2002D01*
G02X363765Y150952I0J-2003D01*
G01X376835D01*
G02X378100Y151402I1265J-1553D01*
G02Y147398I0J-2002D01*
G02X376835Y147848I0J2003D01*
G01X363765D01*
G37*
G36*
G01X358765Y146452D02*
X377835D01*
G02X379100Y146902I1265J-1553D01*
G02X381102Y144900I0J-2002D01*
G02X379176Y142899I-2002J0D01*
G03X378893Y142233I15J-400D01*
G02X379402Y140900I-1493J-1334D01*
G02X377400Y138898I-2002J0D01*
G02X376187Y139308I1J2002D01*
G01X376133Y139348D01*
X375593D01*
X375297Y139053D01*
G02X374200Y138598I-1098J1097D01*
G01X357165D01*
G02X355900Y138148I-1265J1553D01*
G02Y142152I0J2002D01*
G02X357165Y141702I0J-2003D01*
G01X373557D01*
X373853Y141997D01*
G02X374950Y142452I1098J-1097D01*
G01X376135D01*
G02X377400Y142902I1265J-1553D01*
G02X377876Y142845I2J-2002D01*
G03X378030Y143208I47J194D01*
G02X377835Y143348I1068J1693D01*
G01X358765D01*
G02X357500Y142898I-1265J1553D01*
G02Y146902I0J2002D01*
G02X358765Y146452I0J-2003D01*
G37*
G36*
G01X118916Y137827D02*
G02X114848Y143100I1383J5273D01*
G02X125752I5452J0D01*
G02X122057Y137939I-5452J0D01*
G03X122084Y137173I129J-379D01*
G02X126152Y131900I-1383J-5273D01*
G02X115248I-5452J0D01*
G02X118943Y137061I5452J0D01*
G03X118916Y137827I-129J379D01*
G37*
G36*
G01X213989Y46626D02*
G02X214240Y46642I253J-1986D01*
G02Y42638I0J-2002D01*
G02X212251Y44414I0J2002D01*
G02X212000Y44398I-253J1986D01*
G02Y48402I0J2002D01*
G02X213989Y46626I0J-2002D01*
G37*
G36*
G01X276369Y61800D02*
G03X276618Y62316I-127J379D01*
G02X276498Y63000I1882J683D01*
G02X280502I2002J0D01*
G02X280451Y62551I-2002J0D01*
G03X280767Y62068I390J-90D01*
G02X282402Y60100I-367J-1968D01*
G02X280400Y58098I-2002J0D01*
G02X279066Y58607I0J2003D01*
G03X278500Y58574I-267J-298D01*
G02X277000Y57898I-1500J1326D01*
G02X274998Y59900I0J2002D01*
G02X276369Y61800I2002J0D01*
G37*
G36*
G01X174796Y62537D02*
G03X175079Y63037I-101J387D01*
G02X174998Y63600I1921J564D01*
G02X179002I2002J0D01*
G02X178921Y63037I-2002J1D01*
G03X179204Y62537I384J-113D01*
G02X180702Y60600I-503J-1937D01*
G02X178700Y58598I-2002J0D01*
G02X177283Y59186I0J2001D01*
G03X176717I-283J-283D01*
G02X175300Y58598I-1417J1413D01*
G02X173298Y60600I0J2002D01*
G02X174796Y62537I2001J0D01*
G37*
G36*
G01X337083Y49400D02*
G03X337500Y49817I17J400D01*
G02X337498Y49900I2000J90D01*
G02X339500Y47898I2002J0D01*
G02X339417Y47900I7J2002D01*
G03X339000Y47483I-17J-400D01*
G02X339002Y47400I-2000J-90D01*
G02X338999Y47286I-2002J-4D01*
G03X339248Y47080I200J-12D01*
G02X339740Y47142I494J-1940D01*
G02Y43138I0J-2002D01*
G02X337740Y45042I0J2002D01*
G03X337284Y45418I-399J-20D01*
G02X337000Y45398I-282J1982D01*
G02Y49402I0J2002D01*
G02X337083Y49400I-7J-2002D01*
G37*
G36*
G01X368765Y70348D02*
G02X367500Y69898I-1265J1553D01*
G02Y73902I0J2002D01*
G02X368765Y73452I0J-2003D01*
G01X374735D01*
G02X376000Y73902I1265J-1553D01*
G02Y69898I0J-2002D01*
G02X374735Y70348I0J2003D01*
G01X368765D01*
G37*
G36*
G01X472953Y73497D02*
G02X474050Y73952I1098J-1097D01*
G01X475235D01*
G02X476500Y74402I1265J-1553D01*
G02Y70398I0J-2002D01*
G02X475287Y70808I1J2002D01*
G01X475233Y70848D01*
X474693D01*
X473647Y69803D01*
G02X472550Y69348I-1098J1097D01*
G01X467265D01*
G02X466000Y68898I-1265J1553D01*
G02Y72902I0J2002D01*
G02X467265Y72452I0J-2003D01*
G01X471907D01*
X472953Y73497D01*
G37*
G36*
G01X437003Y48754D02*
G02X436998Y48900I1997J141D01*
G02X439000Y46898I2002J0D01*
G02X438496Y46962I-2J2002D01*
G03X437997Y46546I-100J-387D01*
G02X438002Y46400I-1997J-141D01*
G02X437979Y46101I-2002J4D01*
G03X438519Y45668I396J-60D01*
G02X439240Y45802I720J-1868D01*
G02X437238Y43800I0J-2002D01*
G02X437261Y44099I2002J-4D01*
G03X436721Y44532I-396J60D01*
G02X436000Y44398I-720J1868D01*
G02Y48402I0J2002D01*
G02X436504Y48338I2J-2002D01*
G03X437003Y48754I100J387D01*
G37*
G54D14*
X75500Y139400D03*
X68500Y99900D03*
X7500Y27900D03*
X5000Y17400D03*
X12500D03*
X69846Y36554D03*
X91500Y50900D03*
X20500Y127900D03*
X117000Y68900D03*
X113000Y45900D03*
X64500Y85282D03*
X75500Y119400D03*
X89500Y42400D03*
X57000Y52400D03*
X75500Y123900D03*
X113500Y52900D03*
X48500Y34400D03*
X82700Y40100D03*
X36500Y127900D03*
X67500Y89900D03*
X424000Y125900D03*
X390500Y127900D03*
X287000Y131800D03*
X357000Y122900D03*
X455500Y123400D03*
X441500Y130400D03*
X293500Y131800D03*
X184500Y131400D03*
X191000D03*
X490500Y127400D03*
X323000Y123900D03*
X342000Y127900D03*
X254800Y125400D03*
X242000Y41400D03*
X304500Y61900D03*
X177100Y81800D03*
X230000Y27400D03*
X312500Y62400D03*
X221500Y19900D03*
X203500Y61900D03*
X276900Y81700D03*
X312000Y82400D03*
X229000Y34900D03*
X211500Y62400D03*
X372500Y41400D03*
X353500Y32400D03*
X366240Y40900D03*
X404500Y60400D03*
X466500Y41900D03*
X454000Y34900D03*
X504800Y46600D03*
X472500Y41900D03*
G54D15*
X80000Y12400D03*
X70000Y22400D03*
Y12400D03*
X60000Y22400D03*
Y12400D03*
X50000Y22400D03*
Y12400D03*
X40000Y22400D03*
X110000D03*
Y12400D03*
X100000Y22400D03*
Y12400D03*
X90000Y22400D03*
Y12400D03*
X80000Y22400D03*
X202500Y17400D03*
X192500D03*
X182500D03*
X172500D03*
X292500D03*
X282500D03*
X272500D03*
X262500D03*
X382500D03*
X472500D03*
G54D16*
X332300Y133000D03*
X134400Y134900D03*
X167701Y129100D03*
X433600Y135100D03*
X269800Y130246D03*
%LPD*%
G75*
G54D10*
X12500Y17400D03*
X5000D03*
X7500Y27900D03*
X21240Y36140D03*
X15850Y105350D03*
X22500Y88400D03*
X15500D03*
X22500Y93400D03*
X15500D03*
X19000Y90900D03*
X20500Y127900D03*
X48500Y34400D03*
X36500Y127900D03*
X57000Y42900D03*
X69846Y36554D03*
X57000Y52400D03*
X64500Y85282D03*
X68500Y99900D03*
X67500Y89900D03*
X75500Y119400D03*
Y123900D03*
Y139400D03*
X91500Y50900D03*
X89500Y42400D03*
X82700Y40100D03*
X113000Y45900D03*
X113500Y52900D03*
X117000Y75400D03*
Y68900D03*
X152500Y113400D03*
X166300Y63500D03*
X169500D03*
X167750Y60550D03*
X177100Y81800D03*
X177000Y63600D03*
X175300Y60600D03*
X178700D03*
X166300Y85100D03*
X171200Y85200D03*
X178000Y131400D03*
X184500D03*
X205154Y33054D03*
X212000Y46400D03*
X214240Y44640D03*
X203500Y61900D03*
X211500Y62400D03*
X192000Y112900D03*
X197000D03*
X191000Y131400D03*
X221500Y19900D03*
X230000Y27400D03*
X221500Y35900D03*
X234500Y44900D03*
X229000Y34900D03*
X241700Y150200D03*
X242000Y41400D03*
X268500Y59400D03*
X266500Y62400D03*
X266800Y84000D03*
X254800Y125400D03*
X270000Y62400D03*
X276900Y81700D03*
X278500Y63000D03*
X277000Y59900D03*
X280400Y60100D03*
X271200Y83900D03*
X280500Y131800D03*
X293500Y112800D03*
X287000Y131800D03*
X293500D03*
X304500Y61900D03*
X312500Y62400D03*
X316500Y82400D03*
X312000D03*
X298500Y112800D03*
X326000Y30400D03*
X339500Y49900D03*
X337000Y47400D03*
X339740Y45140D03*
X343500Y72400D03*
X323000Y123900D03*
X342000Y127900D03*
X350000Y35400D03*
X358700Y45400D03*
X366240Y40900D03*
X353500Y32400D03*
X372500Y41400D03*
X367500Y71900D03*
X376000D03*
X357000Y122900D03*
X357500Y144900D03*
X362500Y149400D03*
X355900Y140150D03*
X403500Y79400D03*
Y69700D03*
X390500Y134400D03*
Y127900D03*
X379100Y144900D03*
X378100Y149400D03*
X390500Y150400D03*
X377400Y140900D03*
X425500Y27900D03*
X404800Y46600D03*
X406000Y76900D03*
X404500Y60400D03*
X406250Y67350D03*
X424000Y125900D03*
X450000Y33400D03*
X454000Y34900D03*
X439240Y43800D03*
X436000Y46400D03*
X439000Y48900D03*
X443057Y72900D03*
X455500Y123400D03*
X441500Y130400D03*
X466500Y41900D03*
X458500Y45000D03*
X472500Y41900D03*
X466000Y70900D03*
X476500Y72400D03*
X475500Y146900D03*
X504800Y46600D03*
X503000Y79900D03*
X505500Y77400D03*
X503500Y69900D03*
X506000Y67400D03*
X490500Y134400D03*
Y127400D03*
G54D11*
X50000Y22400D03*
X40000D03*
X50000Y12400D03*
X40000D03*
X80000Y22400D03*
X70000D03*
X60000D03*
X80000Y12400D03*
X70000D03*
X60000D03*
X100000Y22400D03*
X90000D03*
X100000Y12400D03*
X90000D03*
X110000Y22400D03*
Y12400D03*
X182500Y17400D03*
X172500D03*
X202500D03*
X192500D03*
X262500D03*
X292500D03*
X282500D03*
X272500D03*
X372500D03*
X362500D03*
X352500D03*
X382500D03*
X452500D03*
X442500D03*
X472500D03*
X462500D03*
G54D12*
X134400Y134900D03*
X120700Y131900D03*
X120300Y143100D03*
X167701Y129100D03*
X269800Y130246D03*
X332300Y133000D03*
X433600Y135100D03*
G54D13*
G01X241700Y150200D02*
X236100Y155800D01*
X16100D01*
X6000Y145700D01*
Y115200D01*
X15850Y105350D01*
G01X166400Y63500D02*
X166334Y63434D01*
X166300Y63468D01*
Y63500D01*
G01X178000Y131400D02*
Y119100D01*
G01X390500Y150400D02*
X386100Y154800D01*
X246300D01*
X241700Y150200D01*
G01X280500Y131800D02*
Y120600D01*
G01X367500Y71900D02*
X376000D01*
G01X357500Y144900D02*
X379100D01*
G01X362500Y149400D02*
X378100D01*
G01X355900Y140150D02*
X374200D01*
X374950Y140900D01*
X377400D01*
G01X401500Y108000D02*
Y123400D01*
X390500Y134400D01*
G01Y150400D02*
X472000D01*
X475500Y146900D01*
G01X466000Y70900D02*
X472550D01*
X474050Y72400D01*
X476500D01*
G01X490500Y134400D02*
X463900Y107800D01*
G01D02*
X462500D01*
M02*
