G04 ================== begin FILE IDENTIFICATION RECORD ==================*
G04 Layout Name:  TIDA-01606_Gate DriverE4_Sch_Rev18.brd*
G04 Film Name:    SilkscreenBOTTOM*
G04 File Format:  Gerber RS274X*
G04 File Origin:  Cadence Allegro -unreleased*
G04 Origin Date:  Fri Aug 27 12:28:27 2021*
G04 *
G04 Layer:  REF DES/SILKSCREEN_BOTTOM*
G04 Layer:  PACKAGE GEOMETRY/SILKSCREEN_BOTTOM*
G04 Layer:  BOARD GEOMETRY/SILKSCREEN_BOTTOM*
G04 Layer:  BOARD GEOMETRY/OUTLINE*
G04 *
G04 Offset:    (0.00 0.00)*
G04 Mirror:    No*
G04 Mode:      Positive*
G04 Rotation:  0*
G04 FullContactRelief:  No*
G04 UndefLineWidth:     8.00*
G04 ================== end FILE IDENTIFICATION RECORD ====================*
%FSLAX25Y25*MOIN*%
%IR0*IPPOS*OFA0.00000B0.00000*MIA0B0*SFA1.00000B1.00000*%
%ADD10C,.01*%
%ADD11C,.008*%
%ADD12C,.006*%
%ADD13C,.00787*%
G75*
%LPD*%
G75*
G54D10*
G01X398300Y39300D02*
X396400Y37500D01*
X396100Y37200D01*
X394300D01*
Y16700D01*
G01X398300Y39300D02*
X399700Y37200D01*
X401700D01*
Y16700D01*
G01X394300D02*
X401700D01*
G01X385600Y51700D02*
X387400Y49800D01*
X387700Y49500D01*
Y47700D01*
X408200D01*
G01X385600Y51700D02*
X387700Y53100D01*
Y55100D01*
X408200D01*
G01Y47700D02*
Y55100D01*
G01X495300Y39800D02*
X493400Y38000D01*
X493100Y37700D01*
X491300D01*
Y17200D01*
G01X495300Y39800D02*
X496700Y37700D01*
X498700D01*
Y17200D01*
G01X491300D02*
X498700D01*
G01X485600Y51700D02*
X487400Y49800D01*
X487700Y49500D01*
Y47700D01*
X508200D01*
G01X485600Y51700D02*
X487700Y53100D01*
Y55100D01*
X508200D01*
G01Y47700D02*
Y55100D01*
G54D11*
G01X511800Y0D02*
Y157400D01*
X0D01*
Y0D01*
X511800D01*
G01X160083Y70493D02*
X160333Y70113D01*
X160500Y69670D01*
Y69163D01*
X160250Y68593D01*
X159833Y68150D01*
X159333Y67833D01*
X158500Y67580D01*
X157750Y67517D01*
X157000Y67643D01*
X156500Y67833D01*
X156000Y68213D01*
X155667Y68657D01*
X155500Y69100D01*
Y69543D01*
X155667Y69987D01*
X155917Y70367D01*
X156250Y70683D01*
G01X155500Y74960D02*
X160500D01*
X156917Y72617D01*
Y75783D01*
G01X155500Y79300D02*
X160500D01*
X159500Y78540D01*
G01X155500D02*
Y80060D01*
G01X156767Y129800D02*
Y134800D01*
X155183D01*
X154677Y134550D01*
X154360Y134217D01*
X154233Y133550D01*
X154360Y132883D01*
X154740Y132467D01*
X155183Y132217D01*
X156767D01*
G01X155183D02*
X154233Y129800D01*
G01X151793Y130550D02*
X151413Y130133D01*
X150970Y129883D01*
X150400Y129800D01*
X149830Y129967D01*
X149387Y130300D01*
X149070Y130883D01*
X149007Y131550D01*
X149133Y132217D01*
X149450Y132633D01*
X149893Y132967D01*
X150337Y133050D01*
X150780Y132967D01*
X151350Y132633D01*
X151160Y134800D01*
X149450D01*
G01X145300Y129800D02*
Y134800D01*
X146060Y133800D01*
G01Y129800D02*
X144540D01*
G01X155177Y114719D02*
Y127081D01*
X149823D01*
Y114719D01*
X155177D01*
G01X183300Y49333D02*
X188300D01*
Y50917D01*
X188050Y51423D01*
X187717Y51740D01*
X187050Y51867D01*
X186383Y51740D01*
X185967Y51360D01*
X185717Y50917D01*
Y49333D01*
G01Y50917D02*
X183300Y51867D01*
G01Y56460D02*
X188300D01*
X184717Y54117D01*
Y57283D01*
G01X183300Y60800D02*
X188300D01*
X187300Y60040D01*
G01X183300D02*
Y61560D01*
G01X164000Y80200D02*
Y65600D01*
X172000D01*
Y80200D01*
X164000D01*
G01X179900Y82600D02*
Y63200D01*
X189100D01*
Y82600D01*
X179900D01*
G01X173323Y79081D02*
Y66719D01*
X178677D01*
Y79081D01*
X173323D01*
G01X173817Y96507D02*
X173567Y96887D01*
X173400Y97330D01*
Y97837D01*
X173650Y98407D01*
X174067Y98850D01*
X174567Y99167D01*
X175400Y99420D01*
X176150Y99483D01*
X176900Y99357D01*
X177400Y99167D01*
X177900Y98787D01*
X178233Y98343D01*
X178400Y97900D01*
Y97457D01*
X178233Y97013D01*
X177983Y96633D01*
X177650Y96317D01*
G01X178400Y92040D02*
X173400D01*
X176983Y94383D01*
Y91217D01*
G01X173400Y87700D02*
X173567Y88207D01*
X173983Y88587D01*
X174483Y88840D01*
X175150Y89030D01*
X175900Y89093D01*
X176650Y89030D01*
X177317Y88840D01*
X177817Y88587D01*
X178233Y88207D01*
X178400Y87700D01*
X178233Y87193D01*
X177817Y86813D01*
X177317Y86560D01*
X176650Y86370D01*
X175900Y86307D01*
X175150Y86370D01*
X174483Y86560D01*
X173983Y86813D01*
X173567Y87193D01*
X173400Y87700D01*
G01X179500Y100400D02*
X183000D01*
Y96400D01*
X179500D01*
G01Y103900D02*
X199500D01*
Y92900D01*
X179500D01*
Y103900D01*
G01X187177Y117719D02*
Y130081D01*
X181823D01*
Y117719D01*
X187177D01*
G01X175323Y130081D02*
Y117719D01*
X180677D01*
Y130081D01*
X175323D01*
G01X192183Y138093D02*
X192433Y137713D01*
X192600Y137270D01*
Y136763D01*
X192350Y136193D01*
X191933Y135750D01*
X191433Y135433D01*
X190600Y135180D01*
X189850Y135117D01*
X189100Y135243D01*
X188600Y135433D01*
X188100Y135813D01*
X187767Y136257D01*
X187600Y136700D01*
Y137143D01*
X187767Y137587D01*
X188017Y137967D01*
X188350Y138283D01*
G01X187600Y142560D02*
X192600D01*
X189017Y140217D01*
Y143383D01*
G01X187600Y146773D02*
X188683Y146900D01*
X189600Y147090D01*
X190433Y147343D01*
X191350Y147660D01*
X192600Y148167D01*
Y145633D01*
G01X185283Y138393D02*
X185533Y138013D01*
X185700Y137570D01*
Y137063D01*
X185450Y136493D01*
X185033Y136050D01*
X184533Y135733D01*
X183700Y135480D01*
X182950Y135417D01*
X182200Y135543D01*
X181700Y135733D01*
X181200Y136113D01*
X180867Y136557D01*
X180700Y137000D01*
Y137443D01*
X180867Y137887D01*
X181117Y138267D01*
X181450Y138583D01*
G01X181700Y140707D02*
X181117Y141087D01*
X180783Y141593D01*
X180700Y142163D01*
X180783Y142670D01*
X181200Y143177D01*
X181700Y143493D01*
X182200Y143557D01*
X182783Y143430D01*
X183200Y142987D01*
X183367Y142543D01*
Y141973D01*
G01Y142543D02*
X183617Y142923D01*
X184033Y143240D01*
X184533Y143367D01*
X185033Y143240D01*
X185450Y142923D01*
X185700Y142353D01*
X185617Y141783D01*
X185283Y141213D01*
G01X181450Y145807D02*
X181033Y146187D01*
X180783Y146630D01*
X180700Y147200D01*
X180867Y147770D01*
X181200Y148213D01*
X181783Y148530D01*
X182450Y148593D01*
X183117Y148467D01*
X183533Y148150D01*
X183867Y147707D01*
X183950Y147263D01*
X183867Y146820D01*
X183533Y146250D01*
X185700Y146440D01*
Y148150D01*
G01X173700Y135633D02*
X178700D01*
Y137217D01*
X178450Y137723D01*
X178117Y138040D01*
X177450Y138167D01*
X176783Y138040D01*
X176367Y137660D01*
X176117Y137217D01*
Y135633D01*
G01Y137217D02*
X173700Y138167D01*
G01X174700Y140607D02*
X174117Y140987D01*
X173783Y141493D01*
X173700Y142063D01*
X173783Y142570D01*
X174200Y143077D01*
X174700Y143393D01*
X175200Y143457D01*
X175783Y143330D01*
X176200Y142887D01*
X176367Y142443D01*
Y141873D01*
G01Y142443D02*
X176617Y142823D01*
X177033Y143140D01*
X177533Y143267D01*
X178033Y143140D01*
X178450Y142823D01*
X178700Y142253D01*
X178617Y141683D01*
X178283Y141113D01*
G01X173700Y147860D02*
X178700D01*
X175117Y145517D01*
Y148683D01*
G01X192700Y49433D02*
X197700D01*
Y51017D01*
X197450Y51523D01*
X197117Y51840D01*
X196450Y51967D01*
X195783Y51840D01*
X195367Y51460D01*
X195117Y51017D01*
Y49433D01*
G01Y51017D02*
X192700Y51967D01*
G01X193700Y54407D02*
X193117Y54787D01*
X192783Y55293D01*
X192700Y55863D01*
X192783Y56370D01*
X193200Y56877D01*
X193700Y57193D01*
X194200Y57257D01*
X194783Y57130D01*
X195200Y56687D01*
X195367Y56243D01*
Y55673D01*
G01Y56243D02*
X195617Y56623D01*
X196033Y56940D01*
X196533Y57067D01*
X197033Y56940D01*
X197450Y56623D01*
X197700Y56053D01*
X197617Y55483D01*
X197283Y54913D01*
G01X192700Y60900D02*
X192783Y61343D01*
X193033Y61850D01*
X193450Y62167D01*
X194033Y62293D01*
X194617Y62167D01*
X195117Y61787D01*
X195367Y61217D01*
Y60583D01*
X195533Y60203D01*
X195950Y59887D01*
X196533Y59760D01*
X197117Y59950D01*
X197533Y60393D01*
X197700Y60900D01*
X197533Y61407D01*
X197117Y61850D01*
X196533Y62040D01*
X195950Y61913D01*
X195533Y61597D01*
X195367Y61217D01*
Y60583D01*
X195117Y60013D01*
X194617Y59633D01*
X194033Y59507D01*
X193450Y59633D01*
X193033Y59950D01*
X192783Y60457D01*
X192700Y60900D01*
G01X207500Y80200D02*
Y65600D01*
X215500D01*
Y80200D01*
X207500D01*
G01X190400Y82600D02*
Y63200D01*
X199600D01*
Y82600D01*
X190400D01*
G01X200823Y79081D02*
Y66719D01*
X206177D01*
Y79081D01*
X200823D01*
G01X205883Y85093D02*
X206133Y84713D01*
X206300Y84270D01*
Y83763D01*
X206050Y83193D01*
X205633Y82750D01*
X205133Y82433D01*
X204300Y82180D01*
X203550Y82117D01*
X202800Y82243D01*
X202300Y82433D01*
X201800Y82813D01*
X201467Y83257D01*
X201300Y83700D01*
Y84143D01*
X201467Y84587D01*
X201717Y84967D01*
X202050Y85283D01*
G01X202300Y87407D02*
X201717Y87787D01*
X201383Y88293D01*
X201300Y88863D01*
X201383Y89370D01*
X201800Y89877D01*
X202300Y90193D01*
X202800Y90257D01*
X203383Y90130D01*
X203800Y89687D01*
X203967Y89243D01*
Y88673D01*
G01Y89243D02*
X204217Y89623D01*
X204633Y89940D01*
X205133Y90067D01*
X205633Y89940D01*
X206050Y89623D01*
X206300Y89053D01*
X206217Y88483D01*
X205883Y87913D01*
G01X201300Y93900D02*
X201383Y94343D01*
X201633Y94850D01*
X202050Y95167D01*
X202633Y95293D01*
X203217Y95167D01*
X203717Y94787D01*
X203967Y94217D01*
Y93583D01*
X204133Y93203D01*
X204550Y92887D01*
X205133Y92760D01*
X205717Y92950D01*
X206133Y93393D01*
X206300Y93900D01*
X206133Y94407D01*
X205717Y94850D01*
X205133Y95040D01*
X204550Y94913D01*
X204133Y94597D01*
X203967Y94217D01*
Y93583D01*
X203717Y93013D01*
X203217Y92633D01*
X202633Y92507D01*
X202050Y92633D01*
X201633Y92950D01*
X201383Y93457D01*
X201300Y93900D01*
G01X211393Y108700D02*
Y105117D01*
X211140Y104367D01*
X210633Y103867D01*
X210000Y103700D01*
X209367Y103867D01*
X208860Y104367D01*
X208607Y105117D01*
Y108700D01*
G01X205977Y104283D02*
X205533Y103867D01*
X205027Y103700D01*
X204520Y103867D01*
X204077Y104367D01*
X203760Y105117D01*
X203633Y105867D01*
Y106783D01*
X203760Y107533D01*
X204077Y108200D01*
X204457Y108533D01*
X204900Y108700D01*
X205407Y108533D01*
X205787Y108200D01*
X206040Y107700D01*
X206167Y107033D01*
X206040Y106450D01*
X205723Y105867D01*
X205343Y105533D01*
X204900Y105450D01*
X204393Y105617D01*
X204013Y106033D01*
X203633Y106783D01*
G01X194823Y130081D02*
Y117719D01*
X200177D01*
Y130081D01*
X194823D01*
G01X193677Y117719D02*
Y130081D01*
X188323D01*
Y117719D01*
X193677D01*
G01X195300Y136333D02*
X200300D01*
Y137917D01*
X200050Y138423D01*
X199717Y138740D01*
X199050Y138867D01*
X198383Y138740D01*
X197967Y138360D01*
X197717Y137917D01*
Y136333D01*
G01Y137917D02*
X195300Y138867D01*
G01X196300Y141307D02*
X195717Y141687D01*
X195383Y142193D01*
X195300Y142763D01*
X195383Y143270D01*
X195800Y143777D01*
X196300Y144093D01*
X196800Y144157D01*
X197383Y144030D01*
X197800Y143587D01*
X197967Y143143D01*
Y142573D01*
G01Y143143D02*
X198217Y143523D01*
X198633Y143840D01*
X199133Y143967D01*
X199633Y143840D01*
X200050Y143523D01*
X200300Y142953D01*
X200217Y142383D01*
X199883Y141813D01*
G01X195300Y147673D02*
X196383Y147800D01*
X197300Y147990D01*
X198133Y148243D01*
X199050Y148560D01*
X200300Y149067D01*
Y146533D01*
G01X222383Y69393D02*
X222633Y69013D01*
X222800Y68570D01*
Y68063D01*
X222550Y67493D01*
X222133Y67050D01*
X221633Y66733D01*
X220800Y66480D01*
X220050Y66417D01*
X219300Y66543D01*
X218800Y66733D01*
X218300Y67113D01*
X217967Y67557D01*
X217800Y68000D01*
Y68443D01*
X217967Y68887D01*
X218217Y69267D01*
X218550Y69583D01*
G01X218800Y71707D02*
X218217Y72087D01*
X217883Y72593D01*
X217800Y73163D01*
X217883Y73670D01*
X218300Y74177D01*
X218800Y74493D01*
X219300Y74557D01*
X219883Y74430D01*
X220300Y73987D01*
X220467Y73543D01*
Y72973D01*
G01Y73543D02*
X220717Y73923D01*
X221133Y74240D01*
X221633Y74367D01*
X222133Y74240D01*
X222550Y73923D01*
X222800Y73353D01*
X222717Y72783D01*
X222383Y72213D01*
G01X218383Y77123D02*
X217967Y77567D01*
X217800Y78073D01*
X217967Y78580D01*
X218467Y79023D01*
X219217Y79340D01*
X219967Y79467D01*
X220883D01*
X221633Y79340D01*
X222300Y79023D01*
X222633Y78643D01*
X222800Y78200D01*
X222633Y77693D01*
X222300Y77313D01*
X221800Y77060D01*
X221133Y76933D01*
X220550Y77060D01*
X219967Y77377D01*
X219633Y77757D01*
X219550Y78200D01*
X219717Y78707D01*
X220133Y79087D01*
X220883Y79467D01*
G01X261983Y68493D02*
X262233Y68113D01*
X262400Y67670D01*
Y67163D01*
X262150Y66593D01*
X261733Y66150D01*
X261233Y65833D01*
X260400Y65580D01*
X259650Y65517D01*
X258900Y65643D01*
X258400Y65833D01*
X257900Y66213D01*
X257567Y66657D01*
X257400Y67100D01*
Y67543D01*
X257567Y67987D01*
X257817Y68367D01*
X258150Y68683D01*
G01X257400Y72960D02*
X262400D01*
X258817Y70617D01*
Y73783D01*
G01X258400Y75907D02*
X257817Y76287D01*
X257483Y76793D01*
X257400Y77363D01*
X257483Y77870D01*
X257900Y78377D01*
X258400Y78693D01*
X258900Y78757D01*
X259483Y78630D01*
X259900Y78187D01*
X260067Y77743D01*
Y77173D01*
G01Y77743D02*
X260317Y78123D01*
X260733Y78440D01*
X261233Y78567D01*
X261733Y78440D01*
X262150Y78123D01*
X262400Y77553D01*
X262317Y76983D01*
X261983Y76413D01*
G01X265000Y79700D02*
Y65100D01*
X273000D01*
Y79700D01*
X265000D01*
G01X264367Y135300D02*
Y140300D01*
X262783D01*
X262277Y140050D01*
X261960Y139717D01*
X261833Y139050D01*
X261960Y138383D01*
X262340Y137967D01*
X262783Y137717D01*
X264367D01*
G01X262783D02*
X261833Y135300D01*
G01X259393Y136050D02*
X259013Y135633D01*
X258570Y135383D01*
X258000Y135300D01*
X257430Y135467D01*
X256987Y135800D01*
X256670Y136383D01*
X256607Y137050D01*
X256733Y137717D01*
X257050Y138133D01*
X257493Y138467D01*
X257937Y138550D01*
X258380Y138467D01*
X258950Y138133D01*
X258760Y140300D01*
X257050D01*
G01X254103Y139467D02*
X253723Y139967D01*
X253280Y140217D01*
X252773Y140300D01*
X252140Y140133D01*
X251697Y139717D01*
X251570Y139217D01*
X251633Y138717D01*
X251887Y138300D01*
X253153Y137467D01*
X253723Y136883D01*
X254103Y136050D01*
X254230Y135300D01*
X251570D01*
G01X262677Y120719D02*
Y133081D01*
X257323D01*
Y120719D01*
X262677D01*
G01X293700Y47833D02*
X298700D01*
Y49417D01*
X298450Y49923D01*
X298117Y50240D01*
X297450Y50367D01*
X296783Y50240D01*
X296367Y49860D01*
X296117Y49417D01*
Y47833D01*
G01Y49417D02*
X293700Y50367D01*
G01X294700Y52807D02*
X294117Y53187D01*
X293783Y53693D01*
X293700Y54263D01*
X293783Y54770D01*
X294200Y55277D01*
X294700Y55593D01*
X295200Y55657D01*
X295783Y55530D01*
X296200Y55087D01*
X296367Y54643D01*
Y54073D01*
G01Y54643D02*
X296617Y55023D01*
X297033Y55340D01*
X297533Y55467D01*
X298033Y55340D01*
X298450Y55023D01*
X298700Y54453D01*
X298617Y53883D01*
X298283Y53313D01*
G01X295783Y58097D02*
X296367Y58540D01*
X296700Y58920D01*
X296867Y59427D01*
X296700Y59870D01*
X296367Y60187D01*
X295867Y60440D01*
X295283Y60503D01*
X294783Y60440D01*
X294283Y60187D01*
X293867Y59807D01*
X293700Y59363D01*
X293867Y58857D01*
X294367Y58413D01*
X295117Y58160D01*
X295950Y58097D01*
X297033Y58223D01*
X297617Y58413D01*
X298200Y58730D01*
X298617Y59173D01*
X298700Y59617D01*
X298533Y60060D01*
X298117Y60377D01*
G01X283900Y47733D02*
X288900D01*
Y49317D01*
X288650Y49823D01*
X288317Y50140D01*
X287650Y50267D01*
X286983Y50140D01*
X286567Y49760D01*
X286317Y49317D01*
Y47733D01*
G01Y49317D02*
X283900Y50267D01*
G01X284900Y52707D02*
X284317Y53087D01*
X283983Y53593D01*
X283900Y54163D01*
X283983Y54670D01*
X284400Y55177D01*
X284900Y55493D01*
X285400Y55557D01*
X285983Y55430D01*
X286400Y54987D01*
X286567Y54543D01*
Y53973D01*
G01Y54543D02*
X286817Y54923D01*
X287233Y55240D01*
X287733Y55367D01*
X288233Y55240D01*
X288650Y54923D01*
X288900Y54353D01*
X288817Y53783D01*
X288483Y53213D01*
G01X284483Y58123D02*
X284067Y58567D01*
X283900Y59073D01*
X284067Y59580D01*
X284567Y60023D01*
X285317Y60340D01*
X286067Y60467D01*
X286983D01*
X287733Y60340D01*
X288400Y60023D01*
X288733Y59643D01*
X288900Y59200D01*
X288733Y58693D01*
X288400Y58313D01*
X287900Y58060D01*
X287233Y57933D01*
X286650Y58060D01*
X286067Y58377D01*
X285733Y58757D01*
X285650Y59200D01*
X285817Y59707D01*
X286233Y60087D01*
X286983Y60467D01*
G01X279083Y46793D02*
X279333Y46413D01*
X279500Y45970D01*
Y45463D01*
X279250Y44893D01*
X278833Y44450D01*
X278333Y44133D01*
X277500Y43880D01*
X276750Y43817D01*
X276000Y43943D01*
X275500Y44133D01*
X275000Y44513D01*
X274667Y44957D01*
X274500Y45400D01*
Y45843D01*
X274667Y46287D01*
X274917Y46667D01*
X275250Y46983D01*
G01X274500Y51260D02*
X279500D01*
X275917Y48917D01*
Y52083D01*
G01X278667Y54397D02*
X279167Y54777D01*
X279417Y55220D01*
X279500Y55727D01*
X279333Y56360D01*
X278917Y56803D01*
X278417Y56930D01*
X277917Y56867D01*
X277500Y56613D01*
X276667Y55347D01*
X276083Y54777D01*
X275250Y54397D01*
X274500Y54270D01*
Y56930D01*
G01X291400Y82100D02*
Y62700D01*
X300600D01*
Y82100D01*
X291400D01*
G01X280900D02*
Y62700D01*
X290100D01*
Y82100D01*
X280900D01*
G01X274323Y78581D02*
Y66219D01*
X279677D01*
Y78581D01*
X274323D01*
G01X281000Y100400D02*
X284500D01*
Y96400D01*
X281000D01*
G01Y103900D02*
X301000D01*
Y92900D01*
X281000D01*
Y103900D01*
G01X296177Y117719D02*
Y130081D01*
X290823D01*
Y117719D01*
X296177D01*
G01X289677D02*
Y130081D01*
X284323D01*
Y117719D01*
X289677D01*
G01X277823Y130081D02*
Y117719D01*
X283177D01*
Y130081D01*
X277823D01*
G01X296183Y139093D02*
X296433Y138713D01*
X296600Y138270D01*
Y137763D01*
X296350Y137193D01*
X295933Y136750D01*
X295433Y136433D01*
X294600Y136180D01*
X293850Y136117D01*
X293100Y136243D01*
X292600Y136433D01*
X292100Y136813D01*
X291767Y137257D01*
X291600Y137700D01*
Y138143D01*
X291767Y138587D01*
X292017Y138967D01*
X292350Y139283D01*
G01X291600Y143560D02*
X296600D01*
X293017Y141217D01*
Y144383D01*
G01X293683Y146697D02*
X294267Y147140D01*
X294600Y147520D01*
X294767Y148027D01*
X294600Y148470D01*
X294267Y148787D01*
X293767Y149040D01*
X293183Y149103D01*
X292683Y149040D01*
X292183Y148787D01*
X291767Y148407D01*
X291600Y147963D01*
X291767Y147457D01*
X292267Y147013D01*
X293017Y146760D01*
X293850Y146697D01*
X294933Y146823D01*
X295517Y147013D01*
X296100Y147330D01*
X296517Y147773D01*
X296600Y148217D01*
X296433Y148660D01*
X296017Y148977D01*
G01X289483Y139093D02*
X289733Y138713D01*
X289900Y138270D01*
Y137763D01*
X289650Y137193D01*
X289233Y136750D01*
X288733Y136433D01*
X287900Y136180D01*
X287150Y136117D01*
X286400Y136243D01*
X285900Y136433D01*
X285400Y136813D01*
X285067Y137257D01*
X284900Y137700D01*
Y138143D01*
X285067Y138587D01*
X285317Y138967D01*
X285650Y139283D01*
G01X285900Y141407D02*
X285317Y141787D01*
X284983Y142293D01*
X284900Y142863D01*
X284983Y143370D01*
X285400Y143877D01*
X285900Y144193D01*
X286400Y144257D01*
X286983Y144130D01*
X287400Y143687D01*
X287567Y143243D01*
Y142673D01*
G01Y143243D02*
X287817Y143623D01*
X288233Y143940D01*
X288733Y144067D01*
X289233Y143940D01*
X289650Y143623D01*
X289900Y143053D01*
X289817Y142483D01*
X289483Y141913D01*
G01X284900Y148660D02*
X289900D01*
X286317Y146317D01*
Y149483D01*
G01X277400Y135833D02*
X282400D01*
Y137417D01*
X282150Y137923D01*
X281817Y138240D01*
X281150Y138367D01*
X280483Y138240D01*
X280067Y137860D01*
X279817Y137417D01*
Y135833D01*
G01Y137417D02*
X277400Y138367D01*
G01X278400Y140807D02*
X277817Y141187D01*
X277483Y141693D01*
X277400Y142263D01*
X277483Y142770D01*
X277900Y143277D01*
X278400Y143593D01*
X278900Y143657D01*
X279483Y143530D01*
X279900Y143087D01*
X280067Y142643D01*
Y142073D01*
G01Y142643D02*
X280317Y143023D01*
X280733Y143340D01*
X281233Y143467D01*
X281733Y143340D01*
X282150Y143023D01*
X282400Y142453D01*
X282317Y141883D01*
X281983Y141313D01*
G01X278400Y145907D02*
X277817Y146287D01*
X277483Y146793D01*
X277400Y147363D01*
X277483Y147870D01*
X277900Y148377D01*
X278400Y148693D01*
X278900Y148757D01*
X279483Y148630D01*
X279900Y148187D01*
X280067Y147743D01*
Y147173D01*
G01Y147743D02*
X280317Y148123D01*
X280733Y148440D01*
X281233Y148567D01*
X281733Y148440D01*
X282150Y148123D01*
X282400Y147553D01*
X282317Y146983D01*
X281983Y146413D01*
G01X303017Y55907D02*
X302767Y56287D01*
X302600Y56730D01*
Y57237D01*
X302850Y57807D01*
X303267Y58250D01*
X303767Y58567D01*
X304600Y58820D01*
X305350Y58883D01*
X306100Y58757D01*
X306600Y58567D01*
X307100Y58187D01*
X307433Y57743D01*
X307600Y57300D01*
Y56857D01*
X307433Y56413D01*
X307183Y56033D01*
X306850Y55717D01*
G01X306600Y53593D02*
X307183Y53213D01*
X307517Y52707D01*
X307600Y52137D01*
X307517Y51630D01*
X307100Y51123D01*
X306600Y50807D01*
X306100Y50743D01*
X305517Y50870D01*
X305100Y51313D01*
X304933Y51757D01*
Y52327D01*
G01Y51757D02*
X304683Y51377D01*
X304267Y51060D01*
X303767Y50933D01*
X303267Y51060D01*
X302850Y51377D01*
X302600Y51947D01*
X302683Y52517D01*
X303017Y53087D01*
G01X305517Y48303D02*
X304933Y47860D01*
X304600Y47480D01*
X304433Y46973D01*
X304600Y46530D01*
X304933Y46213D01*
X305433Y45960D01*
X306017Y45897D01*
X306517Y45960D01*
X307017Y46213D01*
X307433Y46593D01*
X307600Y47037D01*
X307433Y47543D01*
X306933Y47987D01*
X306183Y48240D01*
X305350Y48303D01*
X304267Y48177D01*
X303683Y47987D01*
X303100Y47670D01*
X302683Y47227D01*
X302600Y46783D01*
X302767Y46340D01*
X303183Y46023D01*
G01X323083Y69393D02*
X323333Y69013D01*
X323500Y68570D01*
Y68063D01*
X323250Y67493D01*
X322833Y67050D01*
X322333Y66733D01*
X321500Y66480D01*
X320750Y66417D01*
X320000Y66543D01*
X319500Y66733D01*
X319000Y67113D01*
X318667Y67557D01*
X318500Y68000D01*
Y68443D01*
X318667Y68887D01*
X318917Y69267D01*
X319250Y69583D01*
G01X319500Y71707D02*
X318917Y72087D01*
X318583Y72593D01*
X318500Y73163D01*
X318583Y73670D01*
X319000Y74177D01*
X319500Y74493D01*
X320000Y74557D01*
X320583Y74430D01*
X321000Y73987D01*
X321167Y73543D01*
Y72973D01*
G01Y73543D02*
X321417Y73923D01*
X321833Y74240D01*
X322333Y74367D01*
X322833Y74240D01*
X323250Y73923D01*
X323500Y73353D01*
X323417Y72783D01*
X323083Y72213D01*
G01X318500Y78073D02*
X319583Y78200D01*
X320500Y78390D01*
X321333Y78643D01*
X322250Y78960D01*
X323500Y79467D01*
Y76933D01*
G01X308500Y79700D02*
Y65100D01*
X316500D01*
Y79700D01*
X308500D01*
G01X301823Y78581D02*
Y66219D01*
X307177D01*
Y78581D01*
X301823D01*
G01X312393Y109200D02*
Y105617D01*
X312140Y104867D01*
X311633Y104367D01*
X311000Y104200D01*
X310367Y104367D01*
X309860Y104867D01*
X309607Y105617D01*
Y109200D01*
G01X305900Y104200D02*
X305457Y104283D01*
X304950Y104533D01*
X304633Y104950D01*
X304507Y105533D01*
X304633Y106117D01*
X305013Y106617D01*
X305583Y106867D01*
X306217D01*
X306597Y107033D01*
X306913Y107450D01*
X307040Y108033D01*
X306850Y108617D01*
X306407Y109033D01*
X305900Y109200D01*
X305393Y109033D01*
X304950Y108617D01*
X304760Y108033D01*
X304887Y107450D01*
X305203Y107033D01*
X305583Y106867D01*
X306217D01*
X306787Y106617D01*
X307167Y106117D01*
X307293Y105533D01*
X307167Y104950D01*
X306850Y104533D01*
X306343Y104283D01*
X305900Y104200D01*
G01X325677Y125219D02*
Y137581D01*
X320323D01*
Y125219D01*
X325677D01*
G01X297323Y130081D02*
Y117719D01*
X302677D01*
Y130081D01*
X297323D01*
G01X326467Y139300D02*
Y144300D01*
X324883D01*
X324377Y144050D01*
X324060Y143717D01*
X323933Y143050D01*
X324060Y142383D01*
X324440Y141967D01*
X324883Y141717D01*
X326467D01*
G01X324883D02*
X323933Y139300D01*
G01X321493Y140050D02*
X321113Y139633D01*
X320670Y139383D01*
X320100Y139300D01*
X319530Y139467D01*
X319087Y139800D01*
X318770Y140383D01*
X318707Y141050D01*
X318833Y141717D01*
X319150Y142133D01*
X319593Y142467D01*
X320037Y142550D01*
X320480Y142467D01*
X321050Y142133D01*
X320860Y144300D01*
X319150D01*
G01X316393Y140300D02*
X316013Y139717D01*
X315507Y139383D01*
X314937Y139300D01*
X314430Y139383D01*
X313923Y139800D01*
X313607Y140300D01*
X313543Y140800D01*
X313670Y141383D01*
X314113Y141800D01*
X314557Y141967D01*
X315127D01*
G01X314557D02*
X314177Y142217D01*
X313860Y142633D01*
X313733Y143133D01*
X313860Y143633D01*
X314177Y144050D01*
X314747Y144300D01*
X315317Y144217D01*
X315887Y143883D01*
G01X298400Y136933D02*
X303400D01*
Y138517D01*
X303150Y139023D01*
X302817Y139340D01*
X302150Y139467D01*
X301483Y139340D01*
X301067Y138960D01*
X300817Y138517D01*
Y136933D01*
G01Y138517D02*
X298400Y139467D01*
G01X299400Y141907D02*
X298817Y142287D01*
X298483Y142793D01*
X298400Y143363D01*
X298483Y143870D01*
X298900Y144377D01*
X299400Y144693D01*
X299900Y144757D01*
X300483Y144630D01*
X300900Y144187D01*
X301067Y143743D01*
Y143173D01*
G01Y143743D02*
X301317Y144123D01*
X301733Y144440D01*
X302233Y144567D01*
X302733Y144440D01*
X303150Y144123D01*
X303400Y143553D01*
X303317Y142983D01*
X302983Y142413D01*
G01X299150Y147007D02*
X298733Y147387D01*
X298483Y147830D01*
X298400Y148400D01*
X298567Y148970D01*
X298900Y149413D01*
X299483Y149730D01*
X300150Y149793D01*
X300817Y149667D01*
X301233Y149350D01*
X301567Y148907D01*
X301650Y148463D01*
X301567Y148020D01*
X301233Y147450D01*
X303400Y147640D01*
Y149350D01*
G01X328857Y27600D02*
Y22600D01*
X330123D01*
X330630Y22850D01*
X331010Y23183D01*
X331327Y23683D01*
X331580Y24267D01*
X331643Y25100D01*
X331580Y25933D01*
X331327Y26517D01*
X331010Y27017D01*
X330630Y27350D01*
X330123Y27600D01*
X328857D01*
G01X334273Y27017D02*
X334717Y27433D01*
X335223Y27600D01*
X335730Y27433D01*
X336173Y26933D01*
X336490Y26183D01*
X336617Y25433D01*
Y24517D01*
X336490Y23767D01*
X336173Y23100D01*
X335793Y22767D01*
X335350Y22600D01*
X334843Y22767D01*
X334463Y23100D01*
X334210Y23600D01*
X334083Y24267D01*
X334210Y24850D01*
X334527Y25433D01*
X334907Y25767D01*
X335350Y25850D01*
X335857Y25683D01*
X336237Y25267D01*
X336617Y24517D01*
G01X343300Y40933D02*
X348300D01*
Y42517D01*
X348050Y43023D01*
X347717Y43340D01*
X347050Y43467D01*
X346383Y43340D01*
X345967Y42960D01*
X345717Y42517D01*
Y40933D01*
G01Y42517D02*
X343300Y43467D01*
G01Y48060D02*
X348300D01*
X344717Y45717D01*
Y48883D01*
G01X343300Y52400D02*
X343383Y52843D01*
X343633Y53350D01*
X344050Y53667D01*
X344633Y53793D01*
X345217Y53667D01*
X345717Y53287D01*
X345967Y52717D01*
Y52083D01*
X346133Y51703D01*
X346550Y51387D01*
X347133Y51260D01*
X347717Y51450D01*
X348133Y51893D01*
X348300Y52400D01*
X348133Y52907D01*
X347717Y53350D01*
X347133Y53540D01*
X346550Y53413D01*
X346133Y53097D01*
X345967Y52717D01*
Y52083D01*
X345717Y51513D01*
X345217Y51133D01*
X344633Y51007D01*
X344050Y51133D01*
X343633Y51450D01*
X343383Y51957D01*
X343300Y52400D01*
G01X339500Y72300D02*
X360100D01*
X364500Y67900D01*
Y67100D01*
G01X335507Y74383D02*
X335887Y74633D01*
X336330Y74800D01*
X336837D01*
X337407Y74550D01*
X337850Y74133D01*
X338167Y73633D01*
X338420Y72800D01*
X338483Y72050D01*
X338357Y71300D01*
X338167Y70800D01*
X337787Y70300D01*
X337343Y69967D01*
X336900Y69800D01*
X336457D01*
X336013Y69967D01*
X335633Y70217D01*
X335317Y70550D01*
G01X333003Y73967D02*
X332623Y74467D01*
X332180Y74717D01*
X331673Y74800D01*
X331040Y74633D01*
X330597Y74217D01*
X330470Y73717D01*
X330533Y73217D01*
X330787Y72800D01*
X332053Y71967D01*
X332623Y71383D01*
X333003Y70550D01*
X333130Y69800D01*
X330470D01*
G01X327777Y70383D02*
X327333Y69967D01*
X326827Y69800D01*
X326320Y69967D01*
X325877Y70467D01*
X325560Y71217D01*
X325433Y71967D01*
Y72883D01*
X325560Y73633D01*
X325877Y74300D01*
X326257Y74633D01*
X326700Y74800D01*
X327207Y74633D01*
X327587Y74300D01*
X327840Y73800D01*
X327967Y73133D01*
X327840Y72550D01*
X327523Y71967D01*
X327143Y71633D01*
X326700Y71550D01*
X326193Y71717D01*
X325813Y72133D01*
X325433Y72883D01*
G01X328900Y55333D02*
X333900D01*
Y56917D01*
X333650Y57423D01*
X333317Y57740D01*
X332650Y57867D01*
X331983Y57740D01*
X331567Y57360D01*
X331317Y56917D01*
Y55333D01*
G01Y56917D02*
X328900Y57867D01*
G01Y62460D02*
X333900D01*
X330317Y60117D01*
Y63283D01*
G01X328900Y66673D02*
X329983Y66800D01*
X330900Y66990D01*
X331733Y67243D01*
X332650Y67560D01*
X333900Y68067D01*
Y65533D01*
G01X336323Y67581D02*
Y55219D01*
X341677D01*
Y67581D01*
X336323D01*
G01X342823D02*
Y55219D01*
X348177D01*
Y67581D01*
X342823D01*
G01X337107Y127083D02*
X337487Y127333D01*
X337930Y127500D01*
X338437D01*
X339007Y127250D01*
X339450Y126833D01*
X339767Y126333D01*
X340020Y125500D01*
X340083Y124750D01*
X339957Y124000D01*
X339767Y123500D01*
X339387Y123000D01*
X338943Y122667D01*
X338500Y122500D01*
X338057D01*
X337613Y122667D01*
X337233Y122917D01*
X336917Y123250D01*
G01X332640Y122500D02*
Y127500D01*
X334983Y123917D01*
X331817D01*
G01X329693Y123250D02*
X329313Y122833D01*
X328870Y122583D01*
X328300Y122500D01*
X327730Y122667D01*
X327287Y123000D01*
X326970Y123583D01*
X326907Y124250D01*
X327033Y124917D01*
X327350Y125333D01*
X327793Y125667D01*
X328237Y125750D01*
X328680Y125667D01*
X329250Y125333D01*
X329060Y127500D01*
X327350D01*
G01X356181Y130577D02*
X343819D01*
Y125223D01*
X356181D01*
Y130577D01*
G01X343819Y131723D02*
X356181D01*
Y137077D01*
X343819D01*
Y131723D01*
G01X352667Y138500D02*
Y143500D01*
X351083D01*
X350577Y143250D01*
X350260Y142917D01*
X350133Y142250D01*
X350260Y141583D01*
X350640Y141167D01*
X351083Y140917D01*
X352667D01*
G01X351083D02*
X350133Y138500D01*
G01X347503Y142667D02*
X347123Y143167D01*
X346680Y143417D01*
X346173Y143500D01*
X345540Y143333D01*
X345097Y142917D01*
X344970Y142417D01*
X345033Y141917D01*
X345287Y141500D01*
X346553Y140667D01*
X347123Y140083D01*
X347503Y139250D01*
X347630Y138500D01*
X344970D01*
G01X341327D02*
X341200Y139583D01*
X341010Y140500D01*
X340757Y141333D01*
X340440Y142250D01*
X339933Y143500D01*
X342467D01*
G01X370807Y50983D02*
X371187Y51233D01*
X371630Y51400D01*
X372137D01*
X372707Y51150D01*
X373150Y50733D01*
X373467Y50233D01*
X373720Y49400D01*
X373783Y48650D01*
X373657Y47900D01*
X373467Y47400D01*
X373087Y46900D01*
X372643Y46567D01*
X372200Y46400D01*
X371757D01*
X371313Y46567D01*
X370933Y46817D01*
X370617Y47150D01*
G01X368493Y47400D02*
X368113Y46817D01*
X367607Y46483D01*
X367037Y46400D01*
X366530Y46483D01*
X366023Y46900D01*
X365707Y47400D01*
X365643Y47900D01*
X365770Y48483D01*
X366213Y48900D01*
X366657Y49067D01*
X367227D01*
G01X366657D02*
X366277Y49317D01*
X365960Y49733D01*
X365833Y50233D01*
X365960Y50733D01*
X366277Y51150D01*
X366847Y51400D01*
X367417Y51317D01*
X367987Y50983D01*
G01X362000Y51400D02*
X362507Y51233D01*
X362887Y50817D01*
X363140Y50317D01*
X363330Y49650D01*
X363393Y48900D01*
X363330Y48150D01*
X363140Y47483D01*
X362887Y46983D01*
X362507Y46567D01*
X362000Y46400D01*
X361493Y46567D01*
X361113Y46983D01*
X360860Y47483D01*
X360670Y48150D01*
X360607Y48900D01*
X360670Y49650D01*
X360860Y50317D01*
X361113Y50817D01*
X361493Y51233D01*
X362000Y51400D01*
G01X359700Y52400D02*
X374300D01*
Y60400D01*
X359700D01*
Y52400D01*
G01X350900Y36633D02*
X355900D01*
Y38217D01*
X355650Y38723D01*
X355317Y39040D01*
X354650Y39167D01*
X353983Y39040D01*
X353567Y38660D01*
X353317Y38217D01*
Y36633D01*
G01Y38217D02*
X350900Y39167D01*
G01X355067Y41797D02*
X355567Y42177D01*
X355817Y42620D01*
X355900Y43127D01*
X355733Y43760D01*
X355317Y44203D01*
X354817Y44330D01*
X354317Y44267D01*
X353900Y44013D01*
X353067Y42747D01*
X352483Y42177D01*
X351650Y41797D01*
X350900Y41670D01*
Y44330D01*
G01X351483Y47023D02*
X351067Y47467D01*
X350900Y47973D01*
X351067Y48480D01*
X351567Y48923D01*
X352317Y49240D01*
X353067Y49367D01*
X353983D01*
X354733Y49240D01*
X355400Y48923D01*
X355733Y48543D01*
X355900Y48100D01*
X355733Y47593D01*
X355400Y47213D01*
X354900Y46960D01*
X354233Y46833D01*
X353650Y46960D01*
X353067Y47277D01*
X352733Y47657D01*
X352650Y48100D01*
X352817Y48607D01*
X353233Y48987D01*
X353983Y49367D01*
G01X349400Y71100D02*
Y51700D01*
X358600D01*
Y71100D01*
X349400D01*
G01X360819Y61223D02*
X373181D01*
Y66577D01*
X360819D01*
Y61223D01*
G01X365400Y144600D02*
Y125200D01*
X374600D01*
Y144600D01*
X365400D01*
G01X376267Y151100D02*
Y156100D01*
X374683D01*
X374177Y155850D01*
X373860Y155517D01*
X373733Y154850D01*
X373860Y154183D01*
X374240Y153767D01*
X374683Y153517D01*
X376267D01*
G01X374683D02*
X373733Y151100D01*
G01X371293Y152100D02*
X370913Y151517D01*
X370407Y151183D01*
X369837Y151100D01*
X369330Y151183D01*
X368823Y151600D01*
X368507Y152100D01*
X368443Y152600D01*
X368570Y153183D01*
X369013Y153600D01*
X369457Y153767D01*
X370027D01*
G01X369457D02*
X369077Y154017D01*
X368760Y154433D01*
X368633Y154933D01*
X368760Y155433D01*
X369077Y155850D01*
X369647Y156100D01*
X370217Y156017D01*
X370787Y155683D01*
G01X364800Y151100D02*
Y156100D01*
X365560Y155100D01*
G01Y151100D02*
X364040D01*
G01X404593Y9800D02*
Y14800D01*
X403327D01*
X402820Y14550D01*
X402440Y14217D01*
X402123Y13717D01*
X401870Y13133D01*
X401807Y12300D01*
X401870Y11467D01*
X402123Y10883D01*
X402440Y10383D01*
X402820Y10050D01*
X403327Y9800D01*
X404593D01*
G01X398100D02*
Y14800D01*
X398860Y13800D01*
G01Y9800D02*
X397340D01*
G01X393000D02*
X392557Y9883D01*
X392050Y10133D01*
X391733Y10550D01*
X391607Y11133D01*
X391733Y11717D01*
X392113Y12217D01*
X392683Y12467D01*
X393317D01*
X393697Y12633D01*
X394013Y13050D01*
X394140Y13633D01*
X393950Y14217D01*
X393507Y14633D01*
X393000Y14800D01*
X392493Y14633D01*
X392050Y14217D01*
X391860Y13633D01*
X391987Y13050D01*
X392303Y12633D01*
X392683Y12467D01*
X393317D01*
X393887Y12217D01*
X394267Y11717D01*
X394393Y11133D01*
X394267Y10550D01*
X393950Y10133D01*
X393443Y9883D01*
X393000Y9800D01*
G01X378600Y37133D02*
X383600D01*
Y38717D01*
X383350Y39223D01*
X383017Y39540D01*
X382350Y39667D01*
X381683Y39540D01*
X381267Y39160D01*
X381017Y38717D01*
Y37133D01*
G01Y38717D02*
X378600Y39667D01*
G01X379600Y42107D02*
X379017Y42487D01*
X378683Y42993D01*
X378600Y43563D01*
X378683Y44070D01*
X379100Y44577D01*
X379600Y44893D01*
X380100Y44957D01*
X380683Y44830D01*
X381100Y44387D01*
X381267Y43943D01*
Y43373D01*
G01Y43943D02*
X381517Y44323D01*
X381933Y44640D01*
X382433Y44767D01*
X382933Y44640D01*
X383350Y44323D01*
X383600Y43753D01*
X383517Y43183D01*
X383183Y42613D01*
G01X383600Y48600D02*
X383433Y48093D01*
X383017Y47713D01*
X382517Y47460D01*
X381850Y47270D01*
X381100Y47207D01*
X380350Y47270D01*
X379683Y47460D01*
X379183Y47713D01*
X378767Y48093D01*
X378600Y48600D01*
X378767Y49107D01*
X379183Y49487D01*
X379683Y49740D01*
X380350Y49930D01*
X381100Y49993D01*
X381850Y49930D01*
X382517Y49740D01*
X383017Y49487D01*
X383433Y49107D01*
X383600Y48600D01*
G01X375400Y71100D02*
Y51700D01*
X384600D01*
Y71100D01*
X375400D01*
G01X414867Y39500D02*
Y44500D01*
X413283D01*
X412777Y44250D01*
X412460Y43917D01*
X412333Y43250D01*
X412460Y42583D01*
X412840Y42167D01*
X413283Y41917D01*
X414867D01*
G01X413283D02*
X412333Y39500D01*
G01X409703Y43667D02*
X409323Y44167D01*
X408880Y44417D01*
X408373Y44500D01*
X407740Y44333D01*
X407297Y43917D01*
X407170Y43417D01*
X407233Y42917D01*
X407487Y42500D01*
X408753Y41667D01*
X409323Y41083D01*
X409703Y40250D01*
X409830Y39500D01*
X407170D01*
G01X403400D02*
X402957Y39583D01*
X402450Y39833D01*
X402133Y40250D01*
X402007Y40833D01*
X402133Y41417D01*
X402513Y41917D01*
X403083Y42167D01*
X403717D01*
X404097Y42333D01*
X404413Y42750D01*
X404540Y43333D01*
X404350Y43917D01*
X403907Y44333D01*
X403400Y44500D01*
X402893Y44333D01*
X402450Y43917D01*
X402260Y43333D01*
X402387Y42750D01*
X402703Y42333D01*
X403083Y42167D01*
X403717D01*
X404287Y41917D01*
X404667Y41417D01*
X404793Y40833D01*
X404667Y40250D01*
X404350Y39833D01*
X403843Y39583D01*
X403400Y39500D01*
G01X388319Y40723D02*
X400681D01*
Y46077D01*
X388319D01*
Y40723D01*
G01X387700Y56400D02*
X402300D01*
Y64400D01*
X387700D01*
Y56400D01*
G01X394500Y80200D02*
Y65600D01*
X402500D01*
Y80200D01*
X394500D01*
G01X388323Y80081D02*
Y67719D01*
X393677D01*
Y80081D01*
X388323D01*
G01X400283Y85093D02*
X400533Y84713D01*
X400700Y84270D01*
Y83763D01*
X400450Y83193D01*
X400033Y82750D01*
X399533Y82433D01*
X398700Y82180D01*
X397950Y82117D01*
X397200Y82243D01*
X396700Y82433D01*
X396200Y82813D01*
X395867Y83257D01*
X395700Y83700D01*
Y84143D01*
X395867Y84587D01*
X396117Y84967D01*
X396450Y85283D01*
G01X396700Y87407D02*
X396117Y87787D01*
X395783Y88293D01*
X395700Y88863D01*
X395783Y89370D01*
X396200Y89877D01*
X396700Y90193D01*
X397200Y90257D01*
X397783Y90130D01*
X398200Y89687D01*
X398367Y89243D01*
Y88673D01*
G01Y89243D02*
X398617Y89623D01*
X399033Y89940D01*
X399533Y90067D01*
X400033Y89940D01*
X400450Y89623D01*
X400700Y89053D01*
X400617Y88483D01*
X400283Y87913D01*
G01X396700Y92507D02*
X396117Y92887D01*
X395783Y93393D01*
X395700Y93963D01*
X395783Y94470D01*
X396200Y94977D01*
X396700Y95293D01*
X397200Y95357D01*
X397783Y95230D01*
X398200Y94787D01*
X398367Y94343D01*
Y93773D01*
G01Y94343D02*
X398617Y94723D01*
X399033Y95040D01*
X399533Y95167D01*
X400033Y95040D01*
X400450Y94723D01*
X400700Y94153D01*
X400617Y93583D01*
X400283Y93013D01*
G01X393083Y84693D02*
X393333Y84313D01*
X393500Y83870D01*
Y83363D01*
X393250Y82793D01*
X392833Y82350D01*
X392333Y82033D01*
X391500Y81780D01*
X390750Y81717D01*
X390000Y81843D01*
X389500Y82033D01*
X389000Y82413D01*
X388667Y82857D01*
X388500Y83300D01*
Y83743D01*
X388667Y84187D01*
X388917Y84567D01*
X389250Y84883D01*
G01X389500Y87007D02*
X388917Y87387D01*
X388583Y87893D01*
X388500Y88463D01*
X388583Y88970D01*
X389000Y89477D01*
X389500Y89793D01*
X390000Y89857D01*
X390583Y89730D01*
X391000Y89287D01*
X391167Y88843D01*
Y88273D01*
G01Y88843D02*
X391417Y89223D01*
X391833Y89540D01*
X392333Y89667D01*
X392833Y89540D01*
X393250Y89223D01*
X393500Y88653D01*
X393417Y88083D01*
X393083Y87513D01*
G01X392667Y92297D02*
X393167Y92677D01*
X393417Y93120D01*
X393500Y93627D01*
X393333Y94260D01*
X392917Y94703D01*
X392417Y94830D01*
X391917Y94767D01*
X391500Y94513D01*
X390667Y93247D01*
X390083Y92677D01*
X389250Y92297D01*
X388500Y92170D01*
Y94830D01*
G01X395243Y108300D02*
Y104717D01*
X394990Y103967D01*
X394483Y103467D01*
X393850Y103300D01*
X393217Y103467D01*
X392710Y103967D01*
X392457Y104717D01*
Y108300D01*
G01X388877Y103300D02*
X388750Y104383D01*
X388560Y105300D01*
X388307Y106133D01*
X387990Y107050D01*
X387483Y108300D01*
X390017D01*
G01X406867Y132000D02*
Y137000D01*
X405283D01*
X404777Y136750D01*
X404460Y136417D01*
X404333Y135750D01*
X404460Y135083D01*
X404840Y134667D01*
X405283Y134417D01*
X406867D01*
G01X405283D02*
X404333Y132000D01*
G01X401703Y136167D02*
X401323Y136667D01*
X400880Y136917D01*
X400373Y137000D01*
X399740Y136833D01*
X399297Y136417D01*
X399170Y135917D01*
X399233Y135417D01*
X399487Y135000D01*
X400753Y134167D01*
X401323Y133583D01*
X401703Y132750D01*
X401830Y132000D01*
X399170D01*
G01X396603Y134083D02*
X396160Y134667D01*
X395780Y135000D01*
X395273Y135167D01*
X394830Y135000D01*
X394513Y134667D01*
X394260Y134167D01*
X394197Y133583D01*
X394260Y133083D01*
X394513Y132583D01*
X394893Y132167D01*
X395337Y132000D01*
X395843Y132167D01*
X396287Y132667D01*
X396540Y133417D01*
X396603Y134250D01*
X396477Y135333D01*
X396287Y135917D01*
X395970Y136500D01*
X395527Y136917D01*
X395083Y137000D01*
X394640Y136833D01*
X394323Y136417D01*
G01X388181Y137077D02*
X375819D01*
Y131723D01*
X388181D01*
Y137077D01*
G01X404607Y129883D02*
X404987Y130133D01*
X405430Y130300D01*
X405937D01*
X406507Y130050D01*
X406950Y129633D01*
X407267Y129133D01*
X407520Y128300D01*
X407583Y127550D01*
X407457Y126800D01*
X407267Y126300D01*
X406887Y125800D01*
X406443Y125467D01*
X406000Y125300D01*
X405557D01*
X405113Y125467D01*
X404733Y125717D01*
X404417Y126050D01*
G01X402103Y129467D02*
X401723Y129967D01*
X401280Y130217D01*
X400773Y130300D01*
X400140Y130133D01*
X399697Y129717D01*
X399570Y129217D01*
X399633Y128717D01*
X399887Y128300D01*
X401153Y127467D01*
X401723Y126883D01*
X402103Y126050D01*
X402230Y125300D01*
X399570D01*
G01X395800D02*
X395357Y125383D01*
X394850Y125633D01*
X394533Y126050D01*
X394407Y126633D01*
X394533Y127217D01*
X394913Y127717D01*
X395483Y127967D01*
X396117D01*
X396497Y128133D01*
X396813Y128550D01*
X396940Y129133D01*
X396750Y129717D01*
X396307Y130133D01*
X395800Y130300D01*
X395293Y130133D01*
X394850Y129717D01*
X394660Y129133D01*
X394787Y128550D01*
X395103Y128133D01*
X395483Y127967D01*
X396117D01*
X396687Y127717D01*
X397067Y127217D01*
X397193Y126633D01*
X397067Y126050D01*
X396750Y125633D01*
X396243Y125383D01*
X395800Y125300D01*
G01X375819Y125223D02*
X388181D01*
Y130577D01*
X375819D01*
Y125223D01*
G01X437293Y21835D02*
Y26835D01*
X436027D01*
X435520Y26585D01*
X435140Y26252D01*
X434823Y25752D01*
X434570Y25168D01*
X434507Y24335D01*
X434570Y23502D01*
X434823Y22918D01*
X435140Y22418D01*
X435520Y22085D01*
X436027Y21835D01*
X437293D01*
G01X430927D02*
X430800Y22918D01*
X430610Y23835D01*
X430357Y24668D01*
X430040Y25585D01*
X429533Y26835D01*
X432067D01*
G01X423393Y49600D02*
Y54600D01*
X422127D01*
X421620Y54350D01*
X421240Y54017D01*
X420923Y53517D01*
X420670Y52933D01*
X420607Y52100D01*
X420670Y51267D01*
X420923Y50683D01*
X421240Y50183D01*
X421620Y49850D01*
X422127Y49600D01*
X423393D01*
G01X416900D02*
Y54600D01*
X417660Y53600D01*
G01Y49600D02*
X416140D01*
G01X411800Y54600D02*
X412307Y54433D01*
X412687Y54017D01*
X412940Y53517D01*
X413130Y52850D01*
X413193Y52100D01*
X413130Y51350D01*
X412940Y50683D01*
X412687Y50183D01*
X412307Y49767D01*
X411800Y49600D01*
X411293Y49767D01*
X410913Y50183D01*
X410660Y50683D01*
X410470Y51350D01*
X410407Y52100D01*
X410470Y52850D01*
X410660Y53517D01*
X410913Y54017D01*
X411293Y54433D01*
X411800Y54600D01*
G01X405893Y58717D02*
X405513Y58467D01*
X405070Y58300D01*
X404563D01*
X403993Y58550D01*
X403550Y58967D01*
X403233Y59467D01*
X402980Y60300D01*
X402917Y61050D01*
X403043Y61800D01*
X403233Y62300D01*
X403613Y62800D01*
X404057Y63133D01*
X404500Y63300D01*
X404943D01*
X405387Y63133D01*
X405767Y62883D01*
X406083Y62550D01*
G01X408207Y62300D02*
X408587Y62883D01*
X409093Y63217D01*
X409663Y63300D01*
X410170Y63217D01*
X410677Y62800D01*
X410993Y62300D01*
X411057Y61800D01*
X410930Y61217D01*
X410487Y60800D01*
X410043Y60633D01*
X409473D01*
G01X410043D02*
X410423Y60383D01*
X410740Y59967D01*
X410867Y59467D01*
X410740Y58967D01*
X410423Y58550D01*
X409853Y58300D01*
X409283Y58383D01*
X408713Y58717D01*
G01X414700Y63300D02*
Y58300D01*
X413940Y59300D01*
G01Y63300D02*
X415460D01*
G01X429500Y55133D02*
X434500D01*
Y56717D01*
X434250Y57223D01*
X433917Y57540D01*
X433250Y57667D01*
X432583Y57540D01*
X432167Y57160D01*
X431917Y56717D01*
Y55133D01*
G01Y56717D02*
X429500Y57667D01*
G01Y62260D02*
X434500D01*
X430917Y59917D01*
Y63083D01*
G01X430250Y65207D02*
X429833Y65587D01*
X429583Y66030D01*
X429500Y66600D01*
X429667Y67170D01*
X430000Y67613D01*
X430583Y67930D01*
X431250Y67993D01*
X431917Y67867D01*
X432333Y67550D01*
X432667Y67107D01*
X432750Y66663D01*
X432667Y66220D01*
X432333Y65650D01*
X434500Y65840D01*
Y67550D01*
G01X429507Y74283D02*
X429887Y74533D01*
X430330Y74700D01*
X430837D01*
X431407Y74450D01*
X431850Y74033D01*
X432167Y73533D01*
X432420Y72700D01*
X432483Y71950D01*
X432357Y71200D01*
X432167Y70700D01*
X431787Y70200D01*
X431343Y69867D01*
X430900Y69700D01*
X430457D01*
X430013Y69867D01*
X429633Y70117D01*
X429317Y70450D01*
G01X427003Y73867D02*
X426623Y74367D01*
X426180Y74617D01*
X425673Y74700D01*
X425040Y74533D01*
X424597Y74117D01*
X424470Y73617D01*
X424533Y73117D01*
X424787Y72700D01*
X426053Y71867D01*
X426623Y71283D01*
X427003Y70450D01*
X427130Y69700D01*
X424470D01*
G01X421903Y73867D02*
X421523Y74367D01*
X421080Y74617D01*
X420573Y74700D01*
X419940Y74533D01*
X419497Y74117D01*
X419370Y73617D01*
X419433Y73117D01*
X419687Y72700D01*
X420953Y71867D01*
X421523Y71283D01*
X421903Y70450D01*
X422030Y69700D01*
X419370D01*
G01X426677Y127719D02*
Y140081D01*
X421323D01*
Y127719D01*
X426677D01*
G01X427567Y141900D02*
Y146900D01*
X425983D01*
X425477Y146650D01*
X425160Y146317D01*
X425033Y145650D01*
X425160Y144983D01*
X425540Y144567D01*
X425983Y144317D01*
X427567D01*
G01X425983D02*
X425033Y141900D01*
G01X422593Y142650D02*
X422213Y142233D01*
X421770Y141983D01*
X421200Y141900D01*
X420630Y142067D01*
X420187Y142400D01*
X419870Y142983D01*
X419807Y143650D01*
X419933Y144317D01*
X420250Y144733D01*
X420693Y145067D01*
X421137Y145150D01*
X421580Y145067D01*
X422150Y144733D01*
X421960Y146900D01*
X420250D01*
G01X415340Y141900D02*
Y146900D01*
X417683Y143317D01*
X414517D01*
G01X451900Y37533D02*
X456900D01*
Y39117D01*
X456650Y39623D01*
X456317Y39940D01*
X455650Y40067D01*
X454983Y39940D01*
X454567Y39560D01*
X454317Y39117D01*
Y37533D01*
G01Y39117D02*
X451900Y40067D01*
G01X456067Y42697D02*
X456567Y43077D01*
X456817Y43520D01*
X456900Y44027D01*
X456733Y44660D01*
X456317Y45103D01*
X455817Y45230D01*
X455317Y45167D01*
X454900Y44913D01*
X454067Y43647D01*
X453483Y43077D01*
X452650Y42697D01*
X451900Y42570D01*
Y45230D01*
G01Y49000D02*
X456900D01*
X455900Y48240D01*
G01X451900D02*
Y49760D01*
G01X449400Y71100D02*
Y51700D01*
X458600D01*
Y71100D01*
X449400D01*
G01X443200Y41033D02*
X448200D01*
Y42617D01*
X447950Y43123D01*
X447617Y43440D01*
X446950Y43567D01*
X446283Y43440D01*
X445867Y43060D01*
X445617Y42617D01*
Y41033D01*
G01Y42617D02*
X443200Y43567D01*
G01Y48160D02*
X448200D01*
X444617Y45817D01*
Y48983D01*
G01X445283Y51297D02*
X445867Y51740D01*
X446200Y52120D01*
X446367Y52627D01*
X446200Y53070D01*
X445867Y53387D01*
X445367Y53640D01*
X444783Y53703D01*
X444283Y53640D01*
X443783Y53387D01*
X443367Y53007D01*
X443200Y52563D01*
X443367Y52057D01*
X443867Y51613D01*
X444617Y51360D01*
X445450Y51297D01*
X446533Y51423D01*
X447117Y51613D01*
X447700Y51930D01*
X448117Y52373D01*
X448200Y52817D01*
X448033Y53260D01*
X447617Y53577D01*
G01X434000Y72400D02*
X460900D01*
X466600Y66700D01*
G01X436323Y67581D02*
Y55219D01*
X441677D01*
Y67581D01*
X436323D01*
G01X442823D02*
Y55219D01*
X448177D01*
Y67581D01*
X442823D01*
G01X447707Y126883D02*
X448087Y127133D01*
X448530Y127300D01*
X449037D01*
X449607Y127050D01*
X450050Y126633D01*
X450367Y126133D01*
X450620Y125300D01*
X450683Y124550D01*
X450557Y123800D01*
X450367Y123300D01*
X449987Y122800D01*
X449543Y122467D01*
X449100Y122300D01*
X448657D01*
X448213Y122467D01*
X447833Y122717D01*
X447517Y123050D01*
G01X443240Y122300D02*
Y127300D01*
X445583Y123717D01*
X442417D01*
G01X438140Y122300D02*
Y127300D01*
X440483Y123717D01*
X437317D01*
G01X456181Y133077D02*
X443819D01*
Y127723D01*
X456181D01*
Y133077D01*
G01X443819Y134223D02*
X456181D01*
Y139577D01*
X443819D01*
Y134223D01*
G01X453867Y141500D02*
Y146500D01*
X452283D01*
X451777Y146250D01*
X451460Y145917D01*
X451333Y145250D01*
X451460Y144583D01*
X451840Y144167D01*
X452283Y143917D01*
X453867D01*
G01X452283D02*
X451333Y141500D01*
G01X447500D02*
Y146500D01*
X448260Y145500D01*
G01Y141500D02*
X446740D01*
G01X443477Y142083D02*
X443033Y141667D01*
X442527Y141500D01*
X442020Y141667D01*
X441577Y142167D01*
X441260Y142917D01*
X441133Y143667D01*
Y144583D01*
X441260Y145333D01*
X441577Y146000D01*
X441957Y146333D01*
X442400Y146500D01*
X442907Y146333D01*
X443287Y146000D01*
X443540Y145500D01*
X443667Y144833D01*
X443540Y144250D01*
X443223Y143667D01*
X442843Y143333D01*
X442400Y143250D01*
X441893Y143417D01*
X441513Y143833D01*
X441133Y144583D01*
G01X470707Y50183D02*
X471087Y50433D01*
X471530Y50600D01*
X472037D01*
X472607Y50350D01*
X473050Y49933D01*
X473367Y49433D01*
X473620Y48600D01*
X473683Y47850D01*
X473557Y47100D01*
X473367Y46600D01*
X472987Y46100D01*
X472543Y45767D01*
X472100Y45600D01*
X471657D01*
X471213Y45767D01*
X470833Y46017D01*
X470517Y46350D01*
G01X468203Y49767D02*
X467823Y50267D01*
X467380Y50517D01*
X466873Y50600D01*
X466240Y50433D01*
X465797Y50017D01*
X465670Y49517D01*
X465733Y49017D01*
X465987Y48600D01*
X467253Y47767D01*
X467823Y47183D01*
X468203Y46350D01*
X468330Y45600D01*
X465670D01*
G01X463293Y46600D02*
X462913Y46017D01*
X462407Y45683D01*
X461837Y45600D01*
X461330Y45683D01*
X460823Y46100D01*
X460507Y46600D01*
X460443Y47100D01*
X460570Y47683D01*
X461013Y48100D01*
X461457Y48267D01*
X462027D01*
G01X461457D02*
X461077Y48517D01*
X460760Y48933D01*
X460633Y49433D01*
X460760Y49933D01*
X461077Y50350D01*
X461647Y50600D01*
X462217Y50517D01*
X462787Y50183D01*
G01X459700Y52400D02*
X474300D01*
Y60400D01*
X459700D01*
Y52400D01*
G01X477600Y37033D02*
X482600D01*
Y38617D01*
X482350Y39123D01*
X482017Y39440D01*
X481350Y39567D01*
X480683Y39440D01*
X480267Y39060D01*
X480017Y38617D01*
Y37033D01*
G01Y38617D02*
X477600Y39567D01*
G01X481767Y42197D02*
X482267Y42577D01*
X482517Y43020D01*
X482600Y43527D01*
X482433Y44160D01*
X482017Y44603D01*
X481517Y44730D01*
X481017Y44667D01*
X480600Y44413D01*
X479767Y43147D01*
X479183Y42577D01*
X478350Y42197D01*
X477600Y42070D01*
Y44730D01*
G01X481767Y47297D02*
X482267Y47677D01*
X482517Y48120D01*
X482600Y48627D01*
X482433Y49260D01*
X482017Y49703D01*
X481517Y49830D01*
X481017Y49767D01*
X480600Y49513D01*
X479767Y48247D01*
X479183Y47677D01*
X478350Y47297D01*
X477600Y47170D01*
Y49830D01*
G01X475400Y71100D02*
Y51700D01*
X484600D01*
Y71100D01*
X475400D01*
G01X460819Y61223D02*
X473181D01*
Y66577D01*
X460819D01*
Y61223D01*
G01X465400Y144600D02*
Y125200D01*
X474600D01*
Y144600D01*
X465400D01*
G01X475819Y125223D02*
X488181D01*
Y130577D01*
X475819D01*
Y125223D01*
G01X488181Y137077D02*
X475819D01*
Y131723D01*
X488181D01*
Y137077D01*
G01X472267Y145700D02*
Y150700D01*
X470683D01*
X470177Y150450D01*
X469860Y150117D01*
X469733Y149450D01*
X469860Y148783D01*
X470240Y148367D01*
X470683Y148117D01*
X472267D01*
G01X470683D02*
X469733Y145700D01*
G01X467103Y149867D02*
X466723Y150367D01*
X466280Y150617D01*
X465773Y150700D01*
X465140Y150533D01*
X464697Y150117D01*
X464570Y149617D01*
X464633Y149117D01*
X464887Y148700D01*
X466153Y147867D01*
X466723Y147283D01*
X467103Y146450D01*
X467230Y145700D01*
X464570D01*
G01X462193Y146700D02*
X461813Y146117D01*
X461307Y145783D01*
X460737Y145700D01*
X460230Y145783D01*
X459723Y146200D01*
X459407Y146700D01*
X459343Y147200D01*
X459470Y147783D01*
X459913Y148200D01*
X460357Y148367D01*
X460927D01*
G01X460357D02*
X459977Y148617D01*
X459660Y149033D01*
X459533Y149533D01*
X459660Y150033D01*
X459977Y150450D01*
X460547Y150700D01*
X461117Y150617D01*
X461687Y150283D01*
G01X489667Y138600D02*
Y143600D01*
X488083D01*
X487577Y143350D01*
X487260Y143017D01*
X487133Y142350D01*
X487260Y141683D01*
X487640Y141267D01*
X488083Y141017D01*
X489667D01*
G01X488083D02*
X487133Y138600D01*
G01X483300D02*
Y143600D01*
X484060Y142600D01*
G01Y138600D02*
X482540D01*
G01X478327D02*
X478200Y139683D01*
X478010Y140600D01*
X477757Y141433D01*
X477440Y142350D01*
X476933Y143600D01*
X479467D01*
G01X500693Y10200D02*
Y15200D01*
X499427D01*
X498920Y14950D01*
X498540Y14617D01*
X498223Y14117D01*
X497970Y13533D01*
X497907Y12700D01*
X497970Y11867D01*
X498223Y11283D01*
X498540Y10783D01*
X498920Y10450D01*
X499427Y10200D01*
X500693D01*
G01X494200D02*
Y15200D01*
X494960Y14200D01*
G01Y10200D02*
X493440D01*
G01X489227D02*
X489100Y11283D01*
X488910Y12200D01*
X488657Y13033D01*
X488340Y13950D01*
X487833Y15200D01*
X490367D01*
G01X510967Y40200D02*
Y45200D01*
X509383D01*
X508877Y44950D01*
X508560Y44617D01*
X508433Y43950D01*
X508560Y43283D01*
X508940Y42867D01*
X509383Y42617D01*
X510967D01*
G01X509383D02*
X508433Y40200D01*
G01X505803Y44367D02*
X505423Y44867D01*
X504980Y45117D01*
X504473Y45200D01*
X503840Y45033D01*
X503397Y44617D01*
X503270Y44117D01*
X503333Y43617D01*
X503587Y43200D01*
X504853Y42367D01*
X505423Y41783D01*
X505803Y40950D01*
X505930Y40200D01*
X503270D01*
G01X499500Y45200D02*
X500007Y45033D01*
X500387Y44617D01*
X500640Y44117D01*
X500830Y43450D01*
X500893Y42700D01*
X500830Y41950D01*
X500640Y41283D01*
X500387Y40783D01*
X500007Y40367D01*
X499500Y40200D01*
X498993Y40367D01*
X498613Y40783D01*
X498360Y41283D01*
X498170Y41950D01*
X498107Y42700D01*
X498170Y43450D01*
X498360Y44117D01*
X498613Y44617D01*
X498993Y45033D01*
X499500Y45200D01*
G01X485319Y41223D02*
X497681D01*
Y46577D01*
X485319D01*
Y41223D01*
G01X487700Y56400D02*
X502300D01*
Y64400D01*
X487700D01*
Y56400D01*
G01X511083Y70993D02*
X511333Y70613D01*
X511500Y70170D01*
Y69663D01*
X511250Y69093D01*
X510833Y68650D01*
X510333Y68333D01*
X509500Y68080D01*
X508750Y68017D01*
X508000Y68143D01*
X507500Y68333D01*
X507000Y68713D01*
X506667Y69157D01*
X506500Y69600D01*
Y70043D01*
X506667Y70487D01*
X506917Y70867D01*
X507250Y71183D01*
G01X510667Y73497D02*
X511167Y73877D01*
X511417Y74320D01*
X511500Y74827D01*
X511333Y75460D01*
X510917Y75903D01*
X510417Y76030D01*
X509917Y75967D01*
X509500Y75713D01*
X508667Y74447D01*
X508083Y73877D01*
X507250Y73497D01*
X506500Y73370D01*
Y76030D01*
G01Y79673D02*
X507583Y79800D01*
X508500Y79990D01*
X509333Y80243D01*
X510250Y80560D01*
X511500Y81067D01*
Y78533D01*
G01X494500Y80200D02*
Y65600D01*
X502500D01*
Y80200D01*
X494500D01*
G01X506200Y56707D02*
X511200D01*
Y57973D01*
X510950Y58480D01*
X510617Y58860D01*
X510117Y59177D01*
X509533Y59430D01*
X508700Y59493D01*
X507867Y59430D01*
X507283Y59177D01*
X506783Y58860D01*
X506450Y58480D01*
X506200Y57973D01*
Y56707D01*
G01Y63200D02*
X506283Y63643D01*
X506533Y64150D01*
X506950Y64467D01*
X507533Y64593D01*
X508117Y64467D01*
X508617Y64087D01*
X508867Y63517D01*
Y62883D01*
X509033Y62503D01*
X509450Y62187D01*
X510033Y62060D01*
X510617Y62250D01*
X511033Y62693D01*
X511200Y63200D01*
X511033Y63707D01*
X510617Y64150D01*
X510033Y64340D01*
X509450Y64213D01*
X509033Y63897D01*
X508867Y63517D01*
Y62883D01*
X508617Y62313D01*
X508117Y61933D01*
X507533Y61807D01*
X506950Y61933D01*
X506533Y62250D01*
X506283Y62757D01*
X506200Y63200D01*
G01X488323Y80081D02*
Y67719D01*
X493677D01*
Y80081D01*
X488323D01*
G01X500283Y86293D02*
X500533Y85913D01*
X500700Y85470D01*
Y84963D01*
X500450Y84393D01*
X500033Y83950D01*
X499533Y83633D01*
X498700Y83380D01*
X497950Y83317D01*
X497200Y83443D01*
X496700Y83633D01*
X496200Y84013D01*
X495867Y84457D01*
X495700Y84900D01*
Y85343D01*
X495867Y85787D01*
X496117Y86167D01*
X496450Y86483D01*
G01X499867Y88797D02*
X500367Y89177D01*
X500617Y89620D01*
X500700Y90127D01*
X500533Y90760D01*
X500117Y91203D01*
X499617Y91330D01*
X499117Y91267D01*
X498700Y91013D01*
X497867Y89747D01*
X497283Y89177D01*
X496450Y88797D01*
X495700Y88670D01*
Y91330D01*
G01X496450Y93707D02*
X496033Y94087D01*
X495783Y94530D01*
X495700Y95100D01*
X495867Y95670D01*
X496200Y96113D01*
X496783Y96430D01*
X497450Y96493D01*
X498117Y96367D01*
X498533Y96050D01*
X498867Y95607D01*
X498950Y95163D01*
X498867Y94720D01*
X498533Y94150D01*
X500700Y94340D01*
Y96050D01*
G01X493083Y85393D02*
X493333Y85013D01*
X493500Y84570D01*
Y84063D01*
X493250Y83493D01*
X492833Y83050D01*
X492333Y82733D01*
X491500Y82480D01*
X490750Y82417D01*
X490000Y82543D01*
X489500Y82733D01*
X489000Y83113D01*
X488667Y83557D01*
X488500Y84000D01*
Y84443D01*
X488667Y84887D01*
X488917Y85267D01*
X489250Y85583D01*
G01X492667Y87897D02*
X493167Y88277D01*
X493417Y88720D01*
X493500Y89227D01*
X493333Y89860D01*
X492917Y90303D01*
X492417Y90430D01*
X491917Y90367D01*
X491500Y90113D01*
X490667Y88847D01*
X490083Y88277D01*
X489250Y87897D01*
X488500Y87770D01*
Y90430D01*
G01X490583Y92997D02*
X491167Y93440D01*
X491500Y93820D01*
X491667Y94327D01*
X491500Y94770D01*
X491167Y95087D01*
X490667Y95340D01*
X490083Y95403D01*
X489583Y95340D01*
X489083Y95087D01*
X488667Y94707D01*
X488500Y94263D01*
X488667Y93757D01*
X489167Y93313D01*
X489917Y93060D01*
X490750Y92997D01*
X491833Y93123D01*
X492417Y93313D01*
X493000Y93630D01*
X493417Y94073D01*
X493500Y94517D01*
X493333Y94960D01*
X492917Y95277D01*
G01X497243Y106100D02*
Y102517D01*
X496990Y101767D01*
X496483Y101267D01*
X495850Y101100D01*
X495217Y101267D01*
X494710Y101767D01*
X494457Y102517D01*
Y106100D01*
G01X492143Y101850D02*
X491763Y101433D01*
X491320Y101183D01*
X490750Y101100D01*
X490180Y101267D01*
X489737Y101600D01*
X489420Y102183D01*
X489357Y102850D01*
X489483Y103517D01*
X489800Y103933D01*
X490243Y104267D01*
X490687Y104350D01*
X491130Y104267D01*
X491700Y103933D01*
X491510Y106100D01*
X489800D01*
G01X502807Y129783D02*
X503187Y130033D01*
X503630Y130200D01*
X504137D01*
X504707Y129950D01*
X505150Y129533D01*
X505467Y129033D01*
X505720Y128200D01*
X505783Y127450D01*
X505657Y126700D01*
X505467Y126200D01*
X505087Y125700D01*
X504643Y125367D01*
X504200Y125200D01*
X503757D01*
X503313Y125367D01*
X502933Y125617D01*
X502617Y125950D01*
G01X500303Y129367D02*
X499923Y129867D01*
X499480Y130117D01*
X498973Y130200D01*
X498340Y130033D01*
X497897Y129617D01*
X497770Y129117D01*
X497833Y128617D01*
X498087Y128200D01*
X499353Y127367D01*
X499923Y126783D01*
X500303Y125950D01*
X500430Y125200D01*
X497770D01*
G01X494000D02*
Y130200D01*
X494760Y129200D01*
G01Y125200D02*
X493240D01*
G54D12*
G01X344200Y83150D02*
Y113650D01*
G01X382800Y72643D02*
G02I-300J0D01*
G01X385800Y113650D02*
Y83150D01*
G01X444200D02*
Y113650D01*
G01X482800Y72643D02*
G02I-300J0D01*
G01X485800Y113650D02*
Y83150D01*
G54D13*
G01X336937Y20550D02*
X329063D01*
G01X336937Y14250D02*
Y20550D01*
G01X329063D02*
Y14250D01*
G01X334575Y19762D02*
Y15038D01*
G01X340874Y20451D02*
G03I-394J0D01*
G01X329063Y14250D02*
X336937D01*
G01X426937Y20550D02*
X419063D01*
G01X426937Y14250D02*
Y20550D01*
G01X419063D02*
Y14250D01*
G01X424575Y19762D02*
Y15038D01*
G01X419063Y14250D02*
X426937D01*
G01X430874Y20451D02*
G03I-394J0D01*
M02*
