M48
INCH
T01C.013
T02C.035
T03C.042
T04C.058
;LEADER: 12 
;HEADER: 
;CODE  : ASCII 
;FILE  : TIDA-01606_Gate DriverE4_Sch_Rev18-1-4.drl for  ... layers TOP and BOTTOM
;DESIGN: TIDA-01606_Gate DriverE4_Sch_Rev18.brd
;T01 Holesize 1. = 13.000000 Tolerance = +0.000000/-0.000000 PLATED MILS Quantity = 128
;T02 Holesize 2. = 35.000000 Tolerance = +0.000000/-0.000000 PLATED MILS Quantity = 16
;T03 Holesize 3. = 42.000000 Tolerance = +0.000000/-0.000000 PLATED MILS Quantity = 16
;T04 Holesize 4. = 58.000000 Tolerance = +0.000000/-0.000000 PLATED MILS Quantity = 7
%
G90
T01
X0439000Y0048900
X0436000Y0046400
X0439240Y0043800
X0454000Y0034900
X0472500Y0041900
X0504800Y0046600
X0506000Y0067400
X0503500Y0069900
X0406250Y0067350
X0403500Y0069700
X0404500Y0060400
X0404800Y0046600
X0372500Y0041400
X0339740Y0045140
X0337000Y0047400
X0339500Y0049900
X0353500Y0032400
X0441500Y0130400
X0293500Y0131800
X0287000Y0131800
X0191000Y0131400
X0184500Y0131400
X0075500Y0139400
X0490500Y0127400
X0455500Y0123400
X0424000Y0125900
X0390500Y0127900
X0357000Y0122900
X0342000Y0127900
X0323000Y0123900
X0298500Y0112800
X0293500Y0112800
X0254800Y0125400
X0197000Y0112900
X0192000Y0112900
X0152500Y0113400
X0117000Y0068900
X0067500Y0089900
X0019000Y0090900
X0015500Y0093400
X0022500Y0093400
X0015500Y0088400
X0022500Y0088400
X0082700Y0040100
X0057000Y0052400
X0007500Y0027900
X0005000Y0017400
X0012500Y0017400
X0280400Y0060100
X0277000Y0059900
X0278500Y0063000
X0178700Y0060600
X0175300Y0060600
X0177000Y0063600
X0312500Y0062400
X0304500Y0061900
X0214240Y0044640
X0212000Y0046400
X0211500Y0062400
X0203500Y0061900
X0229000Y0034900
X0230000Y0027400
X0221500Y0019900
X0113500Y0052900
X0113000Y0045900
X0089500Y0042400
X0377400Y0140900
X0091500Y0050900
X0355900Y0140150
X0376000Y0071900
X0367500Y0071900
X0458500Y0045000
X0425500Y0027900
X0505500Y0077400
X0503000Y0079900
X0443057Y0072900
X0450000Y0033400
X0366240Y0040900
X0475500Y0146900
X0390500Y0150400
X0241700Y0150200
X0068500Y0099900
X0015850Y0105350
X0476500Y0072400
X0466000Y0070900
X0177100Y0081800
X0171200Y0085200
X0166300Y0085100
X0036500Y0127900
X0020500Y0127900
X0075500Y0123900
X0075500Y0119400
X0064500Y0085282
X0069846Y0036554
X0048500Y0034400
X0378100Y0149400
X0362500Y0149400
X0379100Y0144900
X0357500Y0144900
X0117000Y0075400
X0057000Y0042900
X0021240Y0036140
X0178000Y0131400
X0280500Y0131800
X0490500Y0134400
X0390500Y0134400
X0276900Y0081700
X0271200Y0083900
X0266800Y0084000
X0167750Y0060550
X0169500Y0063500
X0166300Y0063500
X0270000Y0062400
X0266500Y0062400
X0268500Y0059400
X0234500Y0044900
X0221500Y0035900
X0205154Y0033054
X0242000Y0041400
X0312000Y0082400
X0316500Y0082400
X0358700Y0045400
X0326000Y0030400
X0406000Y0076900
X0403500Y0079400
X0343500Y0072400
X0350000Y0035400
X0466500Y0041900
T02
X0172500Y0017400
R03X0010000
X0262500Y0017400
R03X0010000
X0352500Y0017400
R03X0010000
X0442500Y0017400
R03X0010000
T03
X0040000Y0012400
X0040000Y0022400
X0050000Y0012400
X0050000Y0022400
X0060000Y0012400
X0060000Y0022400
X0070000Y0012400
X0070000Y0022400
X0080000Y0012400
X0080000Y0022400
X0090000Y0012400
X0090000Y0022400
X0100000Y0012400
X0100000Y0022400
X0110000Y0012400
X0110000Y0022400
T04
X0167701Y0129100
X0269800Y0130246
X0332300Y0133000
X0433600Y0135100
X0120700Y0131900
X0134400Y0134900
X0120300Y0143100
M30
